%FSLAX34Y34*%
G04 Gerber Fmt 3.4, Leading zero omitted, Abs format*
G04 (created by PCBNEW (2014-03-01 BZR 4730)-product) date Monday, May 12, 2014 'PMt' 11:38:01 PM*
%MOIN*%
G01*
G70*
G90*
G04 APERTURE LIST*
%ADD10C,0.006000*%
%ADD11C,0.005906*%
%ADD12C,0.004921*%
G04 APERTURE END LIST*
G54D10*
X68921Y-61909D02*
G75*
G03X68921Y-61909I-78J0D01*
G74*
G01*
X66637Y-61897D02*
X68606Y-61897D01*
X68606Y-61897D02*
X68606Y-50897D01*
X68606Y-50897D02*
X66637Y-50897D01*
X66637Y-50897D02*
X66637Y-61897D01*
X66736Y-63677D02*
G75*
G03X66736Y-63677I-78J0D01*
G74*
G01*
X66622Y-65881D02*
X66622Y-63913D01*
X66622Y-63913D02*
X53622Y-63913D01*
X53622Y-63913D02*
X53622Y-65881D01*
X53622Y-65881D02*
X66622Y-65881D01*
X49921Y-61909D02*
G75*
G03X49921Y-61909I-78J0D01*
G74*
G01*
X47637Y-61897D02*
X49606Y-61897D01*
X49606Y-61897D02*
X49606Y-50897D01*
X49606Y-50897D02*
X47637Y-50897D01*
X47637Y-50897D02*
X47637Y-61897D01*
G54D11*
X38858Y-53385D02*
G75*
G03X38858Y-53385I-39J0D01*
G74*
G01*
X38188Y-53228D02*
X42283Y-53228D01*
X42283Y-53228D02*
X42283Y-57322D01*
X42283Y-57322D02*
X38188Y-57322D01*
X38188Y-57322D02*
X38188Y-53228D01*
X39015Y-54055D02*
X41456Y-54055D01*
X41456Y-54055D02*
X41456Y-56496D01*
X41456Y-56496D02*
X39015Y-56496D01*
X39015Y-56496D02*
X39015Y-54055D01*
G54D10*
X63960Y-45823D02*
X63598Y-45823D01*
X63598Y-45823D02*
X63598Y-46539D01*
X63598Y-46539D02*
X63960Y-46539D01*
X63960Y-46539D02*
X63960Y-45823D01*
X63960Y-43224D02*
X63598Y-43224D01*
X63598Y-43224D02*
X63598Y-43940D01*
X63598Y-43940D02*
X63960Y-43940D01*
X63960Y-43940D02*
X63960Y-43224D01*
X69366Y-47417D02*
X69366Y-47779D01*
X69366Y-47779D02*
X70082Y-47779D01*
X70082Y-47779D02*
X70082Y-47417D01*
X70082Y-47417D02*
X69366Y-47417D01*
X50901Y-48861D02*
X51263Y-48861D01*
X51263Y-48861D02*
X51263Y-48145D01*
X51263Y-48145D02*
X50901Y-48145D01*
X50901Y-48145D02*
X50901Y-48861D01*
X41944Y-43901D02*
X42306Y-43901D01*
X42306Y-43901D02*
X42306Y-43185D01*
X42306Y-43185D02*
X41944Y-43185D01*
X41944Y-43185D02*
X41944Y-43901D01*
X41944Y-42798D02*
X42306Y-42798D01*
X42306Y-42798D02*
X42306Y-42082D01*
X42306Y-42082D02*
X41944Y-42082D01*
X41944Y-42082D02*
X41944Y-42798D01*
X32208Y-44787D02*
X32208Y-44425D01*
X32208Y-44425D02*
X31492Y-44425D01*
X31492Y-44425D02*
X31492Y-44787D01*
X31492Y-44787D02*
X32208Y-44787D01*
X39208Y-52141D02*
X39208Y-52503D01*
X39208Y-52503D02*
X39924Y-52503D01*
X39924Y-52503D02*
X39924Y-52141D01*
X39924Y-52141D02*
X39208Y-52141D01*
X43665Y-55102D02*
X43665Y-54740D01*
X43665Y-54740D02*
X42949Y-54740D01*
X42949Y-54740D02*
X42949Y-55102D01*
X42949Y-55102D02*
X43665Y-55102D01*
X47378Y-47877D02*
X47740Y-47877D01*
X47740Y-47877D02*
X47740Y-47161D01*
X47740Y-47161D02*
X47378Y-47161D01*
X47378Y-47161D02*
X47378Y-47877D01*
X40330Y-58625D02*
X40692Y-58625D01*
X40692Y-58625D02*
X40692Y-57909D01*
X40692Y-57909D02*
X40330Y-57909D01*
X40330Y-57909D02*
X40330Y-58625D01*
X37405Y-54701D02*
X37043Y-54701D01*
X37043Y-54701D02*
X37043Y-55417D01*
X37043Y-55417D02*
X37405Y-55417D01*
X37405Y-55417D02*
X37405Y-54701D01*
X40791Y-52228D02*
X40791Y-51866D01*
X40791Y-51866D02*
X40075Y-51866D01*
X40075Y-51866D02*
X40075Y-52228D01*
X40075Y-52228D02*
X40791Y-52228D01*
X49169Y-47161D02*
X49169Y-47523D01*
X49169Y-47523D02*
X49885Y-47523D01*
X49885Y-47523D02*
X49885Y-47161D01*
X49885Y-47161D02*
X49169Y-47161D01*
X46578Y-47523D02*
X46578Y-47161D01*
X46578Y-47161D02*
X45862Y-47161D01*
X45862Y-47161D02*
X45862Y-47523D01*
X45862Y-47523D02*
X46578Y-47523D01*
X39937Y-58271D02*
X40299Y-58271D01*
X40299Y-58271D02*
X40299Y-57555D01*
X40299Y-57555D02*
X39937Y-57555D01*
X39937Y-57555D02*
X39937Y-58271D01*
X48933Y-43106D02*
X48933Y-43468D01*
X48933Y-43468D02*
X49649Y-43468D01*
X49649Y-43468D02*
X49649Y-43106D01*
X49649Y-43106D02*
X48933Y-43106D01*
X45704Y-43106D02*
X45704Y-43468D01*
X45704Y-43468D02*
X46420Y-43468D01*
X46420Y-43468D02*
X46420Y-43106D01*
X46420Y-43106D02*
X45704Y-43106D01*
X46608Y-43106D02*
X46608Y-43468D01*
X46608Y-43468D02*
X47328Y-43468D01*
X47328Y-43468D02*
X47328Y-43106D01*
X47328Y-43106D02*
X46608Y-43106D01*
X63566Y-45821D02*
X63204Y-45821D01*
X63204Y-45821D02*
X63204Y-46541D01*
X63204Y-46541D02*
X63566Y-46541D01*
X63566Y-46541D02*
X63566Y-45821D01*
X63566Y-43222D02*
X63204Y-43222D01*
X63204Y-43222D02*
X63204Y-43942D01*
X63204Y-43942D02*
X63566Y-43942D01*
X63566Y-43942D02*
X63566Y-43222D01*
X69364Y-47811D02*
X69364Y-48173D01*
X69364Y-48173D02*
X70084Y-48173D01*
X70084Y-48173D02*
X70084Y-47811D01*
X70084Y-47811D02*
X69364Y-47811D01*
X47505Y-43094D02*
X47505Y-42732D01*
X47505Y-42732D02*
X46785Y-42732D01*
X46785Y-42732D02*
X46785Y-43094D01*
X46785Y-43094D02*
X47505Y-43094D01*
X51619Y-49236D02*
X51619Y-48874D01*
X51619Y-48874D02*
X50899Y-48874D01*
X50899Y-48874D02*
X50899Y-49236D01*
X50899Y-49236D02*
X51619Y-49236D01*
X41962Y-43913D02*
X41962Y-44275D01*
X41962Y-44275D02*
X42682Y-44275D01*
X42682Y-44275D02*
X42682Y-43913D01*
X42682Y-43913D02*
X41962Y-43913D01*
X41962Y-41708D02*
X41962Y-42070D01*
X41962Y-42070D02*
X42682Y-42070D01*
X42682Y-42070D02*
X42682Y-41708D01*
X42682Y-41708D02*
X41962Y-41708D01*
X51293Y-48480D02*
X51293Y-48842D01*
X51293Y-48842D02*
X52013Y-48842D01*
X52013Y-48842D02*
X52013Y-48480D01*
X52013Y-48480D02*
X51293Y-48480D01*
X42338Y-43903D02*
X42700Y-43903D01*
X42700Y-43903D02*
X42700Y-43183D01*
X42700Y-43183D02*
X42338Y-43183D01*
X42338Y-43183D02*
X42338Y-43903D01*
X42338Y-42800D02*
X42700Y-42800D01*
X42700Y-42800D02*
X42700Y-42080D01*
X42700Y-42080D02*
X42338Y-42080D01*
X42338Y-42080D02*
X42338Y-42800D01*
X51619Y-48133D02*
X51619Y-47771D01*
X51619Y-47771D02*
X50899Y-47771D01*
X50899Y-47771D02*
X50899Y-48133D01*
X50899Y-48133D02*
X51619Y-48133D01*
X50388Y-60212D02*
X50388Y-60574D01*
X50388Y-60574D02*
X51108Y-60574D01*
X51108Y-60574D02*
X51108Y-60212D01*
X51108Y-60212D02*
X50388Y-60212D01*
X30742Y-46000D02*
X30742Y-46362D01*
X30742Y-46362D02*
X31462Y-46362D01*
X31462Y-46362D02*
X31462Y-46000D01*
X31462Y-46000D02*
X30742Y-46000D01*
X30742Y-45606D02*
X30742Y-45968D01*
X30742Y-45968D02*
X31462Y-45968D01*
X31462Y-45968D02*
X31462Y-45606D01*
X31462Y-45606D02*
X30742Y-45606D01*
X30742Y-44819D02*
X30742Y-45181D01*
X30742Y-45181D02*
X31462Y-45181D01*
X31462Y-45181D02*
X31462Y-44819D01*
X31462Y-44819D02*
X30742Y-44819D01*
X42682Y-46873D02*
X42682Y-46511D01*
X42682Y-46511D02*
X41962Y-46511D01*
X41962Y-46511D02*
X41962Y-46873D01*
X41962Y-46873D02*
X42682Y-46873D01*
X41962Y-47929D02*
X41962Y-48291D01*
X41962Y-48291D02*
X42682Y-48291D01*
X42682Y-48291D02*
X42682Y-47929D01*
X42682Y-47929D02*
X41962Y-47929D01*
X30742Y-46630D02*
X30742Y-46992D01*
X30742Y-46992D02*
X31462Y-46992D01*
X31462Y-46992D02*
X31462Y-46630D01*
X31462Y-46630D02*
X30742Y-46630D01*
X30742Y-44425D02*
X30742Y-44787D01*
X30742Y-44787D02*
X31462Y-44787D01*
X31462Y-44787D02*
X31462Y-44425D01*
X31462Y-44425D02*
X30742Y-44425D01*
X42682Y-46480D02*
X42682Y-46118D01*
X42682Y-46118D02*
X41962Y-46118D01*
X41962Y-46118D02*
X41962Y-46480D01*
X41962Y-46480D02*
X42682Y-46480D01*
X42682Y-48684D02*
X42682Y-48322D01*
X42682Y-48322D02*
X41962Y-48322D01*
X41962Y-48322D02*
X41962Y-48684D01*
X41962Y-48684D02*
X42682Y-48684D01*
X31116Y-42456D02*
X31116Y-42818D01*
X31116Y-42818D02*
X31836Y-42818D01*
X31836Y-42818D02*
X31836Y-42456D01*
X31836Y-42456D02*
X31116Y-42456D01*
X48795Y-48194D02*
X49157Y-48194D01*
X49157Y-48194D02*
X49157Y-47474D01*
X49157Y-47474D02*
X48795Y-47474D01*
X48795Y-47474D02*
X48795Y-48194D01*
X48401Y-48194D02*
X48763Y-48194D01*
X48763Y-48194D02*
X48763Y-47474D01*
X48763Y-47474D02*
X48401Y-47474D01*
X48401Y-47474D02*
X48401Y-48194D01*
X47771Y-47879D02*
X48133Y-47879D01*
X48133Y-47879D02*
X48133Y-47159D01*
X48133Y-47159D02*
X47771Y-47159D01*
X47771Y-47159D02*
X47771Y-47879D01*
X34787Y-58931D02*
X34425Y-58931D01*
X34425Y-58931D02*
X34425Y-59651D01*
X34425Y-59651D02*
X34787Y-59651D01*
X34787Y-59651D02*
X34787Y-58931D01*
X37919Y-58527D02*
X37919Y-58165D01*
X37919Y-58165D02*
X37199Y-58165D01*
X37199Y-58165D02*
X37199Y-58527D01*
X37199Y-58527D02*
X37919Y-58527D01*
X37947Y-58165D02*
X37947Y-58527D01*
X37947Y-58527D02*
X38667Y-58527D01*
X38667Y-58527D02*
X38667Y-58165D01*
X38667Y-58165D02*
X37947Y-58165D01*
X48025Y-42811D02*
X48025Y-43173D01*
X48025Y-43173D02*
X48745Y-43173D01*
X48745Y-43173D02*
X48745Y-42811D01*
X48745Y-42811D02*
X48025Y-42811D01*
X49379Y-47362D02*
G75*
G03X49379Y-47362I-39J0D01*
G74*
G01*
X49685Y-46023D02*
X45669Y-46023D01*
X49842Y-47155D02*
X49842Y-43473D01*
X49842Y-43473D02*
X45512Y-43473D01*
X45512Y-43473D02*
X45512Y-47155D01*
X45512Y-47155D02*
X49842Y-47155D01*
X49685Y-46200D02*
X49685Y-44428D01*
X49685Y-44428D02*
X45669Y-44428D01*
X45669Y-44428D02*
X45669Y-46200D01*
X45669Y-46200D02*
X49685Y-46200D01*
X56417Y-46535D02*
X54527Y-46535D01*
X57126Y-43227D02*
X57126Y-45826D01*
X53818Y-45826D02*
X53818Y-43227D01*
X54527Y-46535D02*
X53818Y-45826D01*
X56417Y-46535D02*
X57126Y-45826D01*
X53818Y-43227D02*
X57126Y-43227D01*
X57047Y-44881D02*
G75*
G03X57047Y-44881I-1575J0D01*
G74*
G01*
X57342Y-47135D02*
X57342Y-42627D01*
X57342Y-42627D02*
X53602Y-42627D01*
X53602Y-42627D02*
X53602Y-47135D01*
X53602Y-47135D02*
X57342Y-47135D01*
X52677Y-46535D02*
X50787Y-46535D01*
X53386Y-43227D02*
X53386Y-45826D01*
X50078Y-45826D02*
X50078Y-43227D01*
X50787Y-46535D02*
X50078Y-45826D01*
X52677Y-46535D02*
X53386Y-45826D01*
X50078Y-43227D02*
X53386Y-43227D01*
X53307Y-44881D02*
G75*
G03X53307Y-44881I-1575J0D01*
G74*
G01*
X53602Y-47135D02*
X53602Y-42627D01*
X53602Y-42627D02*
X49862Y-42627D01*
X49862Y-42627D02*
X49862Y-47135D01*
X49862Y-47135D02*
X53602Y-47135D01*
X31496Y-59153D02*
X31496Y-49114D01*
X31496Y-59153D02*
X31889Y-59153D01*
X31889Y-59153D02*
X31889Y-58917D01*
X31889Y-58917D02*
X33464Y-58917D01*
X31496Y-49114D02*
X31889Y-49114D01*
X31889Y-49114D02*
X31889Y-49350D01*
X31889Y-49350D02*
X33464Y-49350D01*
X33464Y-58917D02*
X33464Y-49350D01*
X64370Y-46377D02*
X68307Y-46377D01*
X68307Y-46377D02*
X68307Y-46653D01*
X68307Y-46653D02*
X70472Y-46653D01*
X64370Y-44015D02*
X64370Y-46377D01*
X70472Y-44015D02*
X64370Y-44015D01*
X70472Y-44015D02*
X70472Y-46653D01*
X70472Y-44212D02*
X71062Y-44212D01*
X71062Y-44212D02*
X71062Y-46181D01*
X71062Y-46181D02*
X70472Y-46181D01*
X42913Y-64960D02*
X42519Y-64960D01*
X42716Y-64763D02*
X42716Y-65157D01*
X41273Y-59841D02*
G75*
G02X41274Y-66141I-3084J-3151D01*
G74*
G01*
X35104Y-66143D02*
G75*
G02X35103Y-59842I3084J3151D01*
G74*
G01*
X41274Y-66141D02*
X35103Y-66141D01*
X41274Y-59842D02*
X35103Y-59842D01*
X34000Y-61614D02*
X32559Y-61614D01*
X32559Y-61614D02*
X32559Y-64370D01*
X32559Y-64370D02*
X34000Y-64370D01*
X42377Y-61614D02*
X43818Y-61614D01*
X43818Y-61614D02*
X43818Y-64370D01*
X43818Y-64370D02*
X42377Y-64370D01*
X50885Y-49261D02*
X50885Y-47746D01*
X50885Y-47746D02*
X49507Y-47746D01*
X49507Y-47746D02*
X49507Y-49261D01*
X49507Y-49261D02*
X50885Y-49261D01*
X50767Y-48622D02*
X50767Y-48385D01*
X50767Y-48385D02*
X49625Y-48385D01*
X49625Y-48385D02*
X49625Y-48622D01*
X49625Y-48622D02*
X50767Y-48622D01*
X30610Y-42864D02*
X30610Y-44379D01*
X30610Y-44379D02*
X31988Y-44379D01*
X31988Y-44379D02*
X31988Y-42864D01*
X31988Y-42864D02*
X30610Y-42864D01*
X30728Y-43503D02*
X30728Y-43740D01*
X30728Y-43740D02*
X31870Y-43740D01*
X31870Y-43740D02*
X31870Y-43503D01*
X31870Y-43503D02*
X30728Y-43503D01*
X37795Y-39370D02*
X37795Y-45078D01*
X37795Y-45078D02*
X40157Y-45078D01*
X40157Y-45078D02*
X40157Y-39370D01*
X40157Y-39370D02*
X37795Y-39370D01*
X37992Y-39370D02*
X37992Y-38385D01*
X37992Y-38385D02*
X39960Y-38385D01*
X39960Y-38385D02*
X39960Y-39370D01*
X33070Y-39370D02*
X33070Y-45078D01*
X33070Y-45078D02*
X35433Y-45078D01*
X35433Y-45078D02*
X35433Y-39370D01*
X35433Y-39370D02*
X33070Y-39370D01*
X33267Y-39370D02*
X33267Y-38385D01*
X33267Y-38385D02*
X35236Y-38385D01*
X35236Y-38385D02*
X35236Y-39370D01*
X34546Y-58898D02*
X34546Y-57716D01*
X34546Y-57716D02*
X33956Y-57716D01*
X33956Y-57716D02*
X33956Y-58898D01*
X33956Y-58898D02*
X34546Y-58898D01*
X49911Y-47735D02*
X51111Y-47735D01*
X51111Y-47735D02*
X51111Y-47145D01*
X51111Y-47145D02*
X49911Y-47145D01*
X49911Y-47145D02*
X49911Y-47735D01*
X37647Y-48917D02*
X36447Y-48917D01*
X36447Y-48917D02*
X36447Y-49507D01*
X36447Y-49507D02*
X37647Y-49507D01*
X37647Y-49507D02*
X37647Y-48917D01*
X35964Y-48867D02*
X35964Y-47667D01*
X35964Y-47667D02*
X35374Y-47667D01*
X35374Y-47667D02*
X35374Y-48867D01*
X35374Y-48867D02*
X35964Y-48867D01*
X37653Y-48389D02*
X38015Y-48389D01*
X38015Y-48389D02*
X38015Y-47673D01*
X38015Y-47673D02*
X37653Y-47673D01*
X37653Y-47673D02*
X37653Y-48389D01*
X46059Y-42732D02*
X46059Y-43094D01*
X46059Y-43094D02*
X46775Y-43094D01*
X46775Y-43094D02*
X46775Y-42732D01*
X46775Y-42732D02*
X46059Y-42732D01*
X46873Y-57828D02*
X46511Y-57828D01*
X46511Y-57828D02*
X46511Y-58548D01*
X46511Y-58548D02*
X46873Y-58548D01*
X46873Y-58548D02*
X46873Y-57828D01*
X45501Y-42697D02*
X48277Y-42697D01*
X48277Y-42697D02*
X48277Y-40531D01*
X48277Y-40531D02*
X45501Y-40531D01*
X45501Y-40531D02*
X45501Y-42697D01*
X46043Y-40768D02*
X47381Y-40768D01*
X47735Y-42106D02*
X47735Y-41122D01*
X47381Y-42460D02*
X46043Y-42460D01*
X47735Y-42106D02*
X47381Y-42460D01*
X47735Y-41122D02*
X47381Y-40768D01*
X47676Y-41614D02*
G75*
G03X47676Y-41614I-787J0D01*
G74*
G01*
X46043Y-40768D02*
X46043Y-42460D01*
X42706Y-49586D02*
X45482Y-49586D01*
X45482Y-49586D02*
X45482Y-47420D01*
X45482Y-47420D02*
X42706Y-47420D01*
X42706Y-47420D02*
X42706Y-49586D01*
X43248Y-47657D02*
X44586Y-47657D01*
X44940Y-48995D02*
X44940Y-48011D01*
X44586Y-49349D02*
X43248Y-49349D01*
X44940Y-48995D02*
X44586Y-49349D01*
X44940Y-48011D02*
X44586Y-47657D01*
X44881Y-48503D02*
G75*
G03X44881Y-48503I-787J0D01*
G74*
G01*
X43248Y-47657D02*
X43248Y-49349D01*
X42706Y-47382D02*
X45482Y-47382D01*
X45482Y-47382D02*
X45482Y-45216D01*
X45482Y-45216D02*
X42706Y-45216D01*
X42706Y-45216D02*
X42706Y-47382D01*
X43248Y-45453D02*
X44586Y-45453D01*
X44940Y-46791D02*
X44940Y-45807D01*
X44586Y-47145D02*
X43248Y-47145D01*
X44940Y-46791D02*
X44586Y-47145D01*
X44940Y-45807D02*
X44586Y-45453D01*
X44881Y-46299D02*
G75*
G03X44881Y-46299I-787J0D01*
G74*
G01*
X43248Y-45453D02*
X43248Y-47145D01*
X42706Y-42972D02*
X45482Y-42972D01*
X45482Y-42972D02*
X45482Y-40806D01*
X45482Y-40806D02*
X42706Y-40806D01*
X42706Y-40806D02*
X42706Y-42972D01*
X43248Y-41043D02*
X44586Y-41043D01*
X44940Y-42381D02*
X44940Y-41397D01*
X44586Y-42735D02*
X43248Y-42735D01*
X44940Y-42381D02*
X44586Y-42735D01*
X44940Y-41397D02*
X44586Y-41043D01*
X44881Y-41889D02*
G75*
G03X44881Y-41889I-787J0D01*
G74*
G01*
X43248Y-41043D02*
X43248Y-42735D01*
X42706Y-45177D02*
X45482Y-45177D01*
X45482Y-45177D02*
X45482Y-43011D01*
X45482Y-43011D02*
X42706Y-43011D01*
X42706Y-43011D02*
X42706Y-45177D01*
X43248Y-43248D02*
X44586Y-43248D01*
X44940Y-44586D02*
X44940Y-43602D01*
X44586Y-44940D02*
X43248Y-44940D01*
X44940Y-44586D02*
X44586Y-44940D01*
X44940Y-43602D02*
X44586Y-43248D01*
X44881Y-44094D02*
G75*
G03X44881Y-44094I-787J0D01*
G74*
G01*
X43248Y-43248D02*
X43248Y-44940D01*
X34370Y-59153D02*
X32874Y-59153D01*
X32874Y-59153D02*
X32874Y-60531D01*
X32874Y-60531D02*
X34370Y-60531D01*
X34370Y-60531D02*
X34370Y-59153D01*
X33750Y-59271D02*
X33494Y-59271D01*
X33494Y-59271D02*
X33494Y-60413D01*
X33494Y-60413D02*
X33750Y-60413D01*
X33750Y-60413D02*
X33750Y-59271D01*
X36624Y-48799D02*
X36998Y-48799D01*
X36998Y-48799D02*
X36998Y-47657D01*
X36998Y-47657D02*
X36624Y-47657D01*
X36624Y-47657D02*
X36624Y-48799D01*
X36771Y-48602D02*
G75*
G03X36771Y-48602I-39J0D01*
G74*
G01*
X35965Y-48927D02*
X37657Y-48927D01*
X37657Y-48927D02*
X37657Y-47529D01*
X37657Y-47529D02*
X35965Y-47529D01*
X35965Y-47529D02*
X35965Y-48927D01*
X26751Y-47839D02*
X26751Y-48004D01*
X26751Y-48004D02*
X24929Y-48004D01*
X24929Y-48004D02*
X24929Y-47839D01*
X23937Y-47839D02*
X29921Y-47839D01*
X23937Y-42396D02*
X23937Y-47839D01*
X29921Y-42396D02*
X23937Y-42396D01*
X29921Y-47839D02*
X29921Y-42396D01*
X35860Y-58677D02*
X35860Y-59039D01*
X35860Y-59039D02*
X36580Y-59039D01*
X36580Y-59039D02*
X36580Y-58677D01*
X36580Y-58677D02*
X35860Y-58677D01*
G54D12*
X68585Y-62215D02*
X68585Y-62018D01*
X68510Y-62018D01*
X68491Y-62027D01*
X68482Y-62036D01*
X68473Y-62055D01*
X68473Y-62083D01*
X68482Y-62102D01*
X68491Y-62111D01*
X68510Y-62121D01*
X68585Y-62121D01*
X68398Y-62036D02*
X68388Y-62027D01*
X68369Y-62018D01*
X68323Y-62018D01*
X68304Y-62027D01*
X68294Y-62036D01*
X68285Y-62055D01*
X68285Y-62074D01*
X68294Y-62102D01*
X68407Y-62215D01*
X68285Y-62215D01*
X68163Y-62018D02*
X68144Y-62018D01*
X68126Y-62027D01*
X68116Y-62036D01*
X68107Y-62055D01*
X68098Y-62093D01*
X68098Y-62140D01*
X68107Y-62177D01*
X68116Y-62196D01*
X68126Y-62205D01*
X68144Y-62215D01*
X68163Y-62215D01*
X68182Y-62205D01*
X68191Y-62196D01*
X68201Y-62177D01*
X68210Y-62140D01*
X68210Y-62093D01*
X68201Y-62055D01*
X68191Y-62036D01*
X68182Y-62027D01*
X68163Y-62018D01*
X66939Y-63934D02*
X66742Y-63934D01*
X66742Y-64009D01*
X66751Y-64027D01*
X66761Y-64037D01*
X66780Y-64046D01*
X66808Y-64046D01*
X66826Y-64037D01*
X66836Y-64027D01*
X66845Y-64009D01*
X66845Y-63934D01*
X66761Y-64121D02*
X66751Y-64131D01*
X66742Y-64149D01*
X66742Y-64196D01*
X66751Y-64215D01*
X66761Y-64224D01*
X66780Y-64234D01*
X66798Y-64234D01*
X66826Y-64224D01*
X66939Y-64112D01*
X66939Y-64234D01*
X66761Y-64309D02*
X66751Y-64318D01*
X66742Y-64337D01*
X66742Y-64384D01*
X66751Y-64402D01*
X66761Y-64412D01*
X66780Y-64421D01*
X66798Y-64421D01*
X66826Y-64412D01*
X66939Y-64299D01*
X66939Y-64421D01*
X49609Y-62215D02*
X49609Y-62018D01*
X49534Y-62018D01*
X49515Y-62027D01*
X49505Y-62036D01*
X49496Y-62055D01*
X49496Y-62083D01*
X49505Y-62102D01*
X49515Y-62111D01*
X49534Y-62121D01*
X49609Y-62121D01*
X49421Y-62036D02*
X49412Y-62027D01*
X49393Y-62018D01*
X49346Y-62018D01*
X49327Y-62027D01*
X49318Y-62036D01*
X49309Y-62055D01*
X49309Y-62074D01*
X49318Y-62102D01*
X49431Y-62215D01*
X49309Y-62215D01*
X49196Y-62102D02*
X49215Y-62093D01*
X49224Y-62083D01*
X49234Y-62065D01*
X49234Y-62055D01*
X49224Y-62036D01*
X49215Y-62027D01*
X49196Y-62018D01*
X49159Y-62018D01*
X49140Y-62027D01*
X49131Y-62036D01*
X49121Y-62055D01*
X49121Y-62065D01*
X49131Y-62083D01*
X49140Y-62093D01*
X49159Y-62102D01*
X49196Y-62102D01*
X49215Y-62111D01*
X49224Y-62121D01*
X49234Y-62140D01*
X49234Y-62177D01*
X49224Y-62196D01*
X49215Y-62205D01*
X49196Y-62215D01*
X49159Y-62215D01*
X49140Y-62205D01*
X49131Y-62196D01*
X49121Y-62177D01*
X49121Y-62140D01*
X49131Y-62121D01*
X49140Y-62111D01*
X49159Y-62102D01*
X40128Y-55125D02*
X40287Y-55125D01*
X40306Y-55134D01*
X40315Y-55144D01*
X40325Y-55163D01*
X40325Y-55200D01*
X40315Y-55219D01*
X40306Y-55228D01*
X40287Y-55238D01*
X40128Y-55238D01*
X40325Y-55434D02*
X40325Y-55322D01*
X40325Y-55378D02*
X40128Y-55378D01*
X40156Y-55359D01*
X40175Y-55341D01*
X40184Y-55322D01*
X63849Y-46817D02*
X63859Y-46808D01*
X63868Y-46780D01*
X63868Y-46761D01*
X63859Y-46733D01*
X63840Y-46714D01*
X63821Y-46705D01*
X63784Y-46695D01*
X63756Y-46695D01*
X63718Y-46705D01*
X63699Y-46714D01*
X63681Y-46733D01*
X63671Y-46761D01*
X63671Y-46780D01*
X63681Y-46808D01*
X63690Y-46817D01*
X63737Y-46986D02*
X63868Y-46986D01*
X63662Y-46939D02*
X63802Y-46892D01*
X63802Y-47014D01*
X63849Y-42880D02*
X63859Y-42871D01*
X63868Y-42843D01*
X63868Y-42824D01*
X63859Y-42796D01*
X63840Y-42777D01*
X63821Y-42768D01*
X63784Y-42758D01*
X63756Y-42758D01*
X63718Y-42768D01*
X63699Y-42777D01*
X63681Y-42796D01*
X63671Y-42824D01*
X63671Y-42843D01*
X63681Y-42871D01*
X63690Y-42880D01*
X63671Y-43058D02*
X63671Y-42964D01*
X63765Y-42955D01*
X63756Y-42964D01*
X63746Y-42983D01*
X63746Y-43030D01*
X63756Y-43049D01*
X63765Y-43058D01*
X63784Y-43068D01*
X63831Y-43068D01*
X63849Y-43058D01*
X63859Y-43049D01*
X63868Y-43030D01*
X63868Y-42983D01*
X63859Y-42964D01*
X63849Y-42955D01*
X68851Y-47708D02*
X68861Y-47717D01*
X68889Y-47726D01*
X68907Y-47726D01*
X68936Y-47717D01*
X68954Y-47698D01*
X68964Y-47679D01*
X68973Y-47642D01*
X68973Y-47614D01*
X68964Y-47576D01*
X68954Y-47558D01*
X68936Y-47539D01*
X68907Y-47529D01*
X68889Y-47529D01*
X68861Y-47539D01*
X68851Y-47548D01*
X68682Y-47529D02*
X68720Y-47529D01*
X68739Y-47539D01*
X68748Y-47548D01*
X68767Y-47576D01*
X68776Y-47614D01*
X68776Y-47689D01*
X68767Y-47708D01*
X68757Y-47717D01*
X68739Y-47726D01*
X68701Y-47726D01*
X68682Y-47717D01*
X68673Y-47708D01*
X68664Y-47689D01*
X68664Y-47642D01*
X68673Y-47623D01*
X68682Y-47614D01*
X68701Y-47604D01*
X68739Y-47604D01*
X68757Y-47614D01*
X68767Y-47623D01*
X68776Y-47642D01*
X51881Y-48156D02*
X51890Y-48146D01*
X51900Y-48118D01*
X51900Y-48099D01*
X51890Y-48071D01*
X51871Y-48053D01*
X51853Y-48043D01*
X51815Y-48034D01*
X51787Y-48034D01*
X51750Y-48043D01*
X51731Y-48053D01*
X51712Y-48071D01*
X51703Y-48099D01*
X51703Y-48118D01*
X51712Y-48146D01*
X51721Y-48156D01*
X51703Y-48221D02*
X51703Y-48353D01*
X51900Y-48268D01*
X41487Y-43746D02*
X41497Y-43737D01*
X41506Y-43709D01*
X41506Y-43690D01*
X41497Y-43662D01*
X41478Y-43643D01*
X41459Y-43634D01*
X41422Y-43624D01*
X41393Y-43624D01*
X41356Y-43634D01*
X41337Y-43643D01*
X41318Y-43662D01*
X41309Y-43690D01*
X41309Y-43709D01*
X41318Y-43737D01*
X41328Y-43746D01*
X41506Y-43840D02*
X41506Y-43877D01*
X41497Y-43896D01*
X41487Y-43906D01*
X41459Y-43924D01*
X41422Y-43934D01*
X41347Y-43934D01*
X41328Y-43924D01*
X41318Y-43915D01*
X41309Y-43896D01*
X41309Y-43859D01*
X41318Y-43840D01*
X41328Y-43831D01*
X41347Y-43821D01*
X41393Y-43821D01*
X41412Y-43831D01*
X41422Y-43840D01*
X41431Y-43859D01*
X41431Y-43896D01*
X41422Y-43915D01*
X41412Y-43924D01*
X41393Y-43934D01*
X41487Y-41999D02*
X41497Y-41990D01*
X41506Y-41961D01*
X41506Y-41943D01*
X41497Y-41915D01*
X41478Y-41896D01*
X41459Y-41886D01*
X41422Y-41877D01*
X41393Y-41877D01*
X41356Y-41886D01*
X41337Y-41896D01*
X41318Y-41915D01*
X41309Y-41943D01*
X41309Y-41961D01*
X41318Y-41990D01*
X41328Y-41999D01*
X41506Y-42186D02*
X41506Y-42074D01*
X41506Y-42130D02*
X41309Y-42130D01*
X41337Y-42111D01*
X41356Y-42093D01*
X41365Y-42074D01*
X41309Y-42308D02*
X41309Y-42327D01*
X41318Y-42346D01*
X41328Y-42355D01*
X41347Y-42365D01*
X41384Y-42374D01*
X41431Y-42374D01*
X41468Y-42365D01*
X41487Y-42355D01*
X41497Y-42346D01*
X41506Y-42327D01*
X41506Y-42308D01*
X41497Y-42290D01*
X41487Y-42280D01*
X41468Y-42271D01*
X41431Y-42261D01*
X41384Y-42261D01*
X41347Y-42271D01*
X41328Y-42280D01*
X41318Y-42290D01*
X41309Y-42308D01*
X32724Y-44558D02*
X32734Y-44567D01*
X32762Y-44577D01*
X32781Y-44577D01*
X32809Y-44567D01*
X32828Y-44549D01*
X32837Y-44530D01*
X32846Y-44492D01*
X32846Y-44464D01*
X32837Y-44427D01*
X32828Y-44408D01*
X32809Y-44389D01*
X32781Y-44380D01*
X32762Y-44380D01*
X32734Y-44389D01*
X32724Y-44399D01*
X32537Y-44577D02*
X32649Y-44577D01*
X32593Y-44577D02*
X32593Y-44380D01*
X32612Y-44408D01*
X32631Y-44427D01*
X32649Y-44436D01*
X32359Y-44380D02*
X32453Y-44380D01*
X32462Y-44474D01*
X32453Y-44464D01*
X32434Y-44455D01*
X32387Y-44455D01*
X32368Y-44464D01*
X32359Y-44474D01*
X32350Y-44492D01*
X32350Y-44539D01*
X32359Y-44558D01*
X32368Y-44567D01*
X32387Y-44577D01*
X32434Y-44577D01*
X32453Y-44567D01*
X32462Y-44558D01*
X38945Y-52432D02*
X38954Y-52441D01*
X38982Y-52451D01*
X39001Y-52451D01*
X39029Y-52441D01*
X39048Y-52423D01*
X39057Y-52404D01*
X39067Y-52366D01*
X39067Y-52338D01*
X39057Y-52301D01*
X39048Y-52282D01*
X39029Y-52263D01*
X39001Y-52254D01*
X38982Y-52254D01*
X38954Y-52263D01*
X38945Y-52273D01*
X38757Y-52451D02*
X38870Y-52451D01*
X38814Y-52451D02*
X38814Y-52254D01*
X38832Y-52282D01*
X38851Y-52301D01*
X38870Y-52310D01*
X38589Y-52254D02*
X38626Y-52254D01*
X38645Y-52263D01*
X38654Y-52273D01*
X38673Y-52301D01*
X38682Y-52338D01*
X38682Y-52413D01*
X38673Y-52432D01*
X38664Y-52441D01*
X38645Y-52451D01*
X38607Y-52451D01*
X38589Y-52441D01*
X38579Y-52432D01*
X38570Y-52413D01*
X38570Y-52366D01*
X38579Y-52348D01*
X38589Y-52338D01*
X38607Y-52329D01*
X38645Y-52329D01*
X38664Y-52338D01*
X38673Y-52348D01*
X38682Y-52366D01*
X44378Y-55030D02*
X44387Y-55040D01*
X44416Y-55049D01*
X44434Y-55049D01*
X44462Y-55040D01*
X44481Y-55021D01*
X44491Y-55002D01*
X44500Y-54965D01*
X44500Y-54937D01*
X44491Y-54899D01*
X44481Y-54880D01*
X44462Y-54862D01*
X44434Y-54852D01*
X44416Y-54852D01*
X44387Y-54862D01*
X44378Y-54871D01*
X44191Y-55049D02*
X44303Y-55049D01*
X44247Y-55049D02*
X44247Y-54852D01*
X44266Y-54880D01*
X44284Y-54899D01*
X44303Y-54909D01*
X44078Y-54937D02*
X44097Y-54927D01*
X44106Y-54918D01*
X44116Y-54899D01*
X44116Y-54890D01*
X44106Y-54871D01*
X44097Y-54862D01*
X44078Y-54852D01*
X44041Y-54852D01*
X44022Y-54862D01*
X44012Y-54871D01*
X44003Y-54890D01*
X44003Y-54899D01*
X44012Y-54918D01*
X44022Y-54927D01*
X44041Y-54937D01*
X44078Y-54937D01*
X44097Y-54946D01*
X44106Y-54955D01*
X44116Y-54974D01*
X44116Y-55012D01*
X44106Y-55030D01*
X44097Y-55040D01*
X44078Y-55049D01*
X44041Y-55049D01*
X44022Y-55040D01*
X44012Y-55030D01*
X44003Y-55012D01*
X44003Y-54974D01*
X44012Y-54955D01*
X44022Y-54946D01*
X44041Y-54937D01*
X47629Y-48298D02*
X47638Y-48289D01*
X47648Y-48261D01*
X47648Y-48242D01*
X47638Y-48214D01*
X47619Y-48195D01*
X47601Y-48186D01*
X47563Y-48176D01*
X47535Y-48176D01*
X47498Y-48186D01*
X47479Y-48195D01*
X47460Y-48214D01*
X47451Y-48242D01*
X47451Y-48261D01*
X47460Y-48289D01*
X47470Y-48298D01*
X47648Y-48486D02*
X47648Y-48373D01*
X47648Y-48429D02*
X47451Y-48429D01*
X47479Y-48411D01*
X47498Y-48392D01*
X47507Y-48373D01*
X47648Y-48579D02*
X47648Y-48617D01*
X47638Y-48636D01*
X47629Y-48645D01*
X47601Y-48664D01*
X47563Y-48673D01*
X47488Y-48673D01*
X47470Y-48664D01*
X47460Y-48654D01*
X47451Y-48636D01*
X47451Y-48598D01*
X47460Y-48579D01*
X47470Y-48570D01*
X47488Y-48561D01*
X47535Y-48561D01*
X47554Y-48570D01*
X47563Y-48579D01*
X47573Y-48598D01*
X47573Y-48636D01*
X47563Y-48654D01*
X47554Y-48664D01*
X47535Y-48673D01*
X40542Y-58849D02*
X40552Y-58840D01*
X40561Y-58812D01*
X40561Y-58793D01*
X40552Y-58765D01*
X40533Y-58746D01*
X40514Y-58737D01*
X40477Y-58727D01*
X40449Y-58727D01*
X40411Y-58737D01*
X40392Y-58746D01*
X40374Y-58765D01*
X40364Y-58793D01*
X40364Y-58812D01*
X40374Y-58840D01*
X40383Y-58849D01*
X40383Y-58924D02*
X40374Y-58934D01*
X40364Y-58952D01*
X40364Y-58999D01*
X40374Y-59018D01*
X40383Y-59027D01*
X40402Y-59037D01*
X40420Y-59037D01*
X40449Y-59027D01*
X40561Y-58915D01*
X40561Y-59037D01*
X40364Y-59159D02*
X40364Y-59177D01*
X40374Y-59196D01*
X40383Y-59206D01*
X40402Y-59215D01*
X40439Y-59224D01*
X40486Y-59224D01*
X40523Y-59215D01*
X40542Y-59206D01*
X40552Y-59196D01*
X40561Y-59177D01*
X40561Y-59159D01*
X40552Y-59140D01*
X40542Y-59131D01*
X40523Y-59121D01*
X40486Y-59112D01*
X40439Y-59112D01*
X40402Y-59121D01*
X40383Y-59131D01*
X40374Y-59140D01*
X40364Y-59159D01*
X37314Y-54204D02*
X37323Y-54194D01*
X37333Y-54166D01*
X37333Y-54147D01*
X37323Y-54119D01*
X37305Y-54101D01*
X37286Y-54091D01*
X37248Y-54082D01*
X37220Y-54082D01*
X37183Y-54091D01*
X37164Y-54101D01*
X37145Y-54119D01*
X37136Y-54147D01*
X37136Y-54166D01*
X37145Y-54194D01*
X37155Y-54204D01*
X37155Y-54279D02*
X37145Y-54288D01*
X37136Y-54307D01*
X37136Y-54354D01*
X37145Y-54372D01*
X37155Y-54382D01*
X37173Y-54391D01*
X37192Y-54391D01*
X37220Y-54382D01*
X37333Y-54269D01*
X37333Y-54391D01*
X37333Y-54579D02*
X37333Y-54466D01*
X37333Y-54522D02*
X37136Y-54522D01*
X37164Y-54504D01*
X37183Y-54485D01*
X37192Y-54466D01*
X41622Y-52117D02*
X41631Y-52126D01*
X41660Y-52136D01*
X41678Y-52136D01*
X41706Y-52126D01*
X41725Y-52108D01*
X41735Y-52089D01*
X41744Y-52051D01*
X41744Y-52023D01*
X41735Y-51986D01*
X41725Y-51967D01*
X41706Y-51948D01*
X41678Y-51939D01*
X41660Y-51939D01*
X41631Y-51948D01*
X41622Y-51958D01*
X41547Y-51958D02*
X41538Y-51948D01*
X41519Y-51939D01*
X41472Y-51939D01*
X41453Y-51948D01*
X41444Y-51958D01*
X41435Y-51976D01*
X41435Y-51995D01*
X41444Y-52023D01*
X41556Y-52136D01*
X41435Y-52136D01*
X41360Y-51958D02*
X41350Y-51948D01*
X41332Y-51939D01*
X41285Y-51939D01*
X41266Y-51948D01*
X41257Y-51958D01*
X41247Y-51976D01*
X41247Y-51995D01*
X41257Y-52023D01*
X41369Y-52136D01*
X41247Y-52136D01*
X49260Y-48731D02*
X49269Y-48741D01*
X49297Y-48750D01*
X49316Y-48750D01*
X49344Y-48741D01*
X49363Y-48722D01*
X49372Y-48703D01*
X49382Y-48666D01*
X49382Y-48637D01*
X49372Y-48600D01*
X49363Y-48581D01*
X49344Y-48562D01*
X49316Y-48553D01*
X49297Y-48553D01*
X49269Y-48562D01*
X49260Y-48572D01*
X49185Y-48572D02*
X49176Y-48562D01*
X49157Y-48553D01*
X49110Y-48553D01*
X49091Y-48562D01*
X49082Y-48572D01*
X49072Y-48591D01*
X49072Y-48609D01*
X49082Y-48637D01*
X49194Y-48750D01*
X49072Y-48750D01*
X48904Y-48619D02*
X48904Y-48750D01*
X48951Y-48544D02*
X48997Y-48684D01*
X48876Y-48684D01*
X46032Y-47786D02*
X46041Y-47796D01*
X46069Y-47805D01*
X46088Y-47805D01*
X46116Y-47796D01*
X46135Y-47777D01*
X46144Y-47758D01*
X46153Y-47721D01*
X46153Y-47693D01*
X46144Y-47655D01*
X46135Y-47636D01*
X46116Y-47618D01*
X46088Y-47608D01*
X46069Y-47608D01*
X46041Y-47618D01*
X46032Y-47627D01*
X45957Y-47627D02*
X45947Y-47618D01*
X45928Y-47608D01*
X45882Y-47608D01*
X45863Y-47618D01*
X45853Y-47627D01*
X45844Y-47646D01*
X45844Y-47664D01*
X45853Y-47693D01*
X45966Y-47805D01*
X45844Y-47805D01*
X45666Y-47608D02*
X45760Y-47608D01*
X45769Y-47702D01*
X45760Y-47693D01*
X45741Y-47683D01*
X45694Y-47683D01*
X45675Y-47693D01*
X45666Y-47702D01*
X45657Y-47721D01*
X45657Y-47768D01*
X45666Y-47786D01*
X45675Y-47796D01*
X45694Y-47805D01*
X45741Y-47805D01*
X45760Y-47796D01*
X45769Y-47786D01*
X39991Y-58534D02*
X40000Y-58525D01*
X40010Y-58497D01*
X40010Y-58478D01*
X40000Y-58450D01*
X39982Y-58431D01*
X39963Y-58422D01*
X39925Y-58413D01*
X39897Y-58413D01*
X39860Y-58422D01*
X39841Y-58431D01*
X39822Y-58450D01*
X39813Y-58478D01*
X39813Y-58497D01*
X39822Y-58525D01*
X39832Y-58534D01*
X39832Y-58609D02*
X39822Y-58619D01*
X39813Y-58637D01*
X39813Y-58684D01*
X39822Y-58703D01*
X39832Y-58712D01*
X39850Y-58722D01*
X39869Y-58722D01*
X39897Y-58712D01*
X40010Y-58600D01*
X40010Y-58722D01*
X39813Y-58891D02*
X39813Y-58853D01*
X39822Y-58834D01*
X39832Y-58825D01*
X39860Y-58806D01*
X39897Y-58797D01*
X39972Y-58797D01*
X39991Y-58806D01*
X40000Y-58816D01*
X40010Y-58834D01*
X40010Y-58872D01*
X40000Y-58891D01*
X39991Y-58900D01*
X39972Y-58909D01*
X39925Y-58909D01*
X39907Y-58900D01*
X39897Y-58891D01*
X39888Y-58872D01*
X39888Y-58834D01*
X39897Y-58816D01*
X39907Y-58806D01*
X39925Y-58797D01*
X52252Y-42432D02*
X52261Y-42441D01*
X52290Y-42451D01*
X52308Y-42451D01*
X52336Y-42441D01*
X52355Y-42423D01*
X52365Y-42404D01*
X52374Y-42366D01*
X52374Y-42338D01*
X52365Y-42301D01*
X52355Y-42282D01*
X52336Y-42263D01*
X52308Y-42254D01*
X52290Y-42254D01*
X52261Y-42263D01*
X52252Y-42273D01*
X52177Y-42273D02*
X52168Y-42263D01*
X52149Y-42254D01*
X52102Y-42254D01*
X52083Y-42263D01*
X52074Y-42273D01*
X52065Y-42291D01*
X52065Y-42310D01*
X52074Y-42338D01*
X52186Y-42451D01*
X52065Y-42451D01*
X51952Y-42338D02*
X51971Y-42329D01*
X51980Y-42320D01*
X51990Y-42301D01*
X51990Y-42291D01*
X51980Y-42273D01*
X51971Y-42263D01*
X51952Y-42254D01*
X51915Y-42254D01*
X51896Y-42263D01*
X51886Y-42273D01*
X51877Y-42291D01*
X51877Y-42301D01*
X51886Y-42320D01*
X51896Y-42329D01*
X51915Y-42338D01*
X51952Y-42338D01*
X51971Y-42348D01*
X51980Y-42357D01*
X51990Y-42376D01*
X51990Y-42413D01*
X51980Y-42432D01*
X51971Y-42441D01*
X51952Y-42451D01*
X51915Y-42451D01*
X51896Y-42441D01*
X51886Y-42432D01*
X51877Y-42413D01*
X51877Y-42376D01*
X51886Y-42357D01*
X51896Y-42348D01*
X51915Y-42338D01*
X50598Y-42432D02*
X50608Y-42441D01*
X50636Y-42451D01*
X50655Y-42451D01*
X50683Y-42441D01*
X50702Y-42423D01*
X50711Y-42404D01*
X50720Y-42366D01*
X50720Y-42338D01*
X50711Y-42301D01*
X50702Y-42282D01*
X50683Y-42263D01*
X50655Y-42254D01*
X50636Y-42254D01*
X50608Y-42263D01*
X50598Y-42273D01*
X50523Y-42273D02*
X50514Y-42263D01*
X50495Y-42254D01*
X50449Y-42254D01*
X50430Y-42263D01*
X50420Y-42273D01*
X50411Y-42291D01*
X50411Y-42310D01*
X50420Y-42338D01*
X50533Y-42451D01*
X50411Y-42451D01*
X50317Y-42451D02*
X50280Y-42451D01*
X50261Y-42441D01*
X50252Y-42432D01*
X50233Y-42404D01*
X50224Y-42366D01*
X50224Y-42291D01*
X50233Y-42273D01*
X50242Y-42263D01*
X50261Y-42254D01*
X50299Y-42254D01*
X50317Y-42263D01*
X50327Y-42273D01*
X50336Y-42291D01*
X50336Y-42338D01*
X50327Y-42357D01*
X50317Y-42366D01*
X50299Y-42376D01*
X50261Y-42376D01*
X50242Y-42366D01*
X50233Y-42357D01*
X50224Y-42338D01*
X51135Y-42451D02*
X51200Y-42357D01*
X51247Y-42451D02*
X51247Y-42254D01*
X51172Y-42254D01*
X51153Y-42263D01*
X51144Y-42273D01*
X51135Y-42291D01*
X51135Y-42320D01*
X51144Y-42338D01*
X51153Y-42348D01*
X51172Y-42357D01*
X51247Y-42357D01*
X50947Y-42451D02*
X51060Y-42451D01*
X51003Y-42451D02*
X51003Y-42254D01*
X51022Y-42282D01*
X51041Y-42301D01*
X51060Y-42310D01*
X63474Y-46817D02*
X63381Y-46751D01*
X63474Y-46705D02*
X63278Y-46705D01*
X63278Y-46780D01*
X63287Y-46798D01*
X63296Y-46808D01*
X63315Y-46817D01*
X63343Y-46817D01*
X63362Y-46808D01*
X63371Y-46798D01*
X63381Y-46780D01*
X63381Y-46705D01*
X63296Y-46892D02*
X63287Y-46901D01*
X63278Y-46920D01*
X63278Y-46967D01*
X63287Y-46986D01*
X63296Y-46995D01*
X63315Y-47005D01*
X63334Y-47005D01*
X63362Y-46995D01*
X63474Y-46883D01*
X63474Y-47005D01*
X63474Y-42880D02*
X63381Y-42814D01*
X63474Y-42768D02*
X63278Y-42768D01*
X63278Y-42843D01*
X63287Y-42861D01*
X63296Y-42871D01*
X63315Y-42880D01*
X63343Y-42880D01*
X63362Y-42871D01*
X63371Y-42861D01*
X63381Y-42843D01*
X63381Y-42768D01*
X63278Y-42946D02*
X63278Y-43068D01*
X63353Y-43002D01*
X63353Y-43030D01*
X63362Y-43049D01*
X63371Y-43058D01*
X63390Y-43068D01*
X63437Y-43068D01*
X63456Y-43058D01*
X63465Y-43049D01*
X63474Y-43030D01*
X63474Y-42974D01*
X63465Y-42955D01*
X63456Y-42946D01*
X68851Y-48041D02*
X68917Y-47948D01*
X68964Y-48041D02*
X68964Y-47844D01*
X68889Y-47844D01*
X68870Y-47854D01*
X68861Y-47863D01*
X68851Y-47882D01*
X68851Y-47910D01*
X68861Y-47929D01*
X68870Y-47938D01*
X68889Y-47948D01*
X68964Y-47948D01*
X68682Y-47910D02*
X68682Y-48041D01*
X68729Y-47835D02*
X68776Y-47976D01*
X68654Y-47976D01*
X51292Y-42136D02*
X51358Y-42042D01*
X51405Y-42136D02*
X51405Y-41939D01*
X51330Y-41939D01*
X51311Y-41948D01*
X51302Y-41958D01*
X51292Y-41976D01*
X51292Y-42005D01*
X51302Y-42023D01*
X51311Y-42033D01*
X51330Y-42042D01*
X51405Y-42042D01*
X51114Y-41939D02*
X51208Y-41939D01*
X51217Y-42033D01*
X51208Y-42023D01*
X51189Y-42014D01*
X51142Y-42014D01*
X51123Y-42023D01*
X51114Y-42033D01*
X51105Y-42051D01*
X51105Y-42098D01*
X51114Y-42117D01*
X51123Y-42126D01*
X51142Y-42136D01*
X51189Y-42136D01*
X51208Y-42126D01*
X51217Y-42117D01*
X51292Y-49537D02*
X51358Y-49444D01*
X51405Y-49537D02*
X51405Y-49341D01*
X51330Y-49341D01*
X51311Y-49350D01*
X51302Y-49359D01*
X51292Y-49378D01*
X51292Y-49406D01*
X51302Y-49425D01*
X51311Y-49434D01*
X51330Y-49444D01*
X51405Y-49444D01*
X51123Y-49341D02*
X51161Y-49341D01*
X51180Y-49350D01*
X51189Y-49359D01*
X51208Y-49387D01*
X51217Y-49425D01*
X51217Y-49500D01*
X51208Y-49519D01*
X51198Y-49528D01*
X51180Y-49537D01*
X51142Y-49537D01*
X51123Y-49528D01*
X51114Y-49519D01*
X51105Y-49500D01*
X51105Y-49453D01*
X51114Y-49434D01*
X51123Y-49425D01*
X51142Y-49416D01*
X51180Y-49416D01*
X51198Y-49425D01*
X51208Y-49434D01*
X51217Y-49453D01*
X42395Y-44577D02*
X42460Y-44483D01*
X42507Y-44577D02*
X42507Y-44380D01*
X42432Y-44380D01*
X42413Y-44389D01*
X42404Y-44399D01*
X42395Y-44417D01*
X42395Y-44446D01*
X42404Y-44464D01*
X42413Y-44474D01*
X42432Y-44483D01*
X42507Y-44483D01*
X42329Y-44380D02*
X42198Y-44380D01*
X42282Y-44577D01*
X42395Y-41585D02*
X42460Y-41491D01*
X42507Y-41585D02*
X42507Y-41388D01*
X42432Y-41388D01*
X42413Y-41397D01*
X42404Y-41407D01*
X42395Y-41425D01*
X42395Y-41453D01*
X42404Y-41472D01*
X42413Y-41482D01*
X42432Y-41491D01*
X42507Y-41491D01*
X42282Y-41472D02*
X42301Y-41463D01*
X42310Y-41453D01*
X42320Y-41435D01*
X42320Y-41425D01*
X42310Y-41407D01*
X42301Y-41397D01*
X42282Y-41388D01*
X42245Y-41388D01*
X42226Y-41397D01*
X42216Y-41407D01*
X42207Y-41425D01*
X42207Y-41435D01*
X42216Y-41453D01*
X42226Y-41463D01*
X42245Y-41472D01*
X42282Y-41472D01*
X42301Y-41482D01*
X42310Y-41491D01*
X42320Y-41510D01*
X42320Y-41547D01*
X42310Y-41566D01*
X42301Y-41575D01*
X42282Y-41585D01*
X42245Y-41585D01*
X42226Y-41575D01*
X42216Y-41566D01*
X42207Y-41547D01*
X42207Y-41510D01*
X42216Y-41491D01*
X42226Y-41482D01*
X42245Y-41472D01*
X52552Y-48750D02*
X52618Y-48656D01*
X52664Y-48750D02*
X52664Y-48553D01*
X52589Y-48553D01*
X52571Y-48562D01*
X52561Y-48572D01*
X52552Y-48591D01*
X52552Y-48619D01*
X52561Y-48637D01*
X52571Y-48647D01*
X52589Y-48656D01*
X52664Y-48656D01*
X52458Y-48750D02*
X52421Y-48750D01*
X52402Y-48741D01*
X52393Y-48731D01*
X52374Y-48703D01*
X52365Y-48666D01*
X52365Y-48591D01*
X52374Y-48572D01*
X52383Y-48562D01*
X52402Y-48553D01*
X52440Y-48553D01*
X52458Y-48562D01*
X52468Y-48572D01*
X52477Y-48591D01*
X52477Y-48637D01*
X52468Y-48656D01*
X52458Y-48666D01*
X52440Y-48675D01*
X52402Y-48675D01*
X52383Y-48666D01*
X52374Y-48656D01*
X52365Y-48637D01*
X41821Y-43731D02*
X41727Y-43666D01*
X41821Y-43619D02*
X41624Y-43619D01*
X41624Y-43694D01*
X41633Y-43712D01*
X41643Y-43722D01*
X41661Y-43731D01*
X41690Y-43731D01*
X41708Y-43722D01*
X41718Y-43712D01*
X41727Y-43694D01*
X41727Y-43619D01*
X41821Y-43919D02*
X41821Y-43806D01*
X41821Y-43862D02*
X41624Y-43862D01*
X41652Y-43844D01*
X41671Y-43825D01*
X41680Y-43806D01*
X41624Y-44041D02*
X41624Y-44059D01*
X41633Y-44078D01*
X41643Y-44087D01*
X41661Y-44097D01*
X41699Y-44106D01*
X41746Y-44106D01*
X41783Y-44097D01*
X41802Y-44087D01*
X41811Y-44078D01*
X41821Y-44059D01*
X41821Y-44041D01*
X41811Y-44022D01*
X41802Y-44012D01*
X41783Y-44003D01*
X41746Y-43994D01*
X41699Y-43994D01*
X41661Y-44003D01*
X41643Y-44012D01*
X41633Y-44022D01*
X41624Y-44041D01*
X41821Y-41999D02*
X41727Y-41933D01*
X41821Y-41886D02*
X41624Y-41886D01*
X41624Y-41961D01*
X41633Y-41980D01*
X41643Y-41990D01*
X41661Y-41999D01*
X41690Y-41999D01*
X41708Y-41990D01*
X41718Y-41980D01*
X41727Y-41961D01*
X41727Y-41886D01*
X41821Y-42186D02*
X41821Y-42074D01*
X41821Y-42130D02*
X41624Y-42130D01*
X41652Y-42111D01*
X41671Y-42093D01*
X41680Y-42074D01*
X41821Y-42374D02*
X41821Y-42261D01*
X41821Y-42318D02*
X41624Y-42318D01*
X41652Y-42299D01*
X41671Y-42280D01*
X41680Y-42261D01*
X52095Y-47884D02*
X52160Y-47790D01*
X52207Y-47884D02*
X52207Y-47687D01*
X52132Y-47687D01*
X52113Y-47696D01*
X52104Y-47706D01*
X52095Y-47724D01*
X52095Y-47753D01*
X52104Y-47771D01*
X52113Y-47781D01*
X52132Y-47790D01*
X52207Y-47790D01*
X51907Y-47884D02*
X52020Y-47884D01*
X51963Y-47884D02*
X51963Y-47687D01*
X51982Y-47715D01*
X52001Y-47734D01*
X52020Y-47743D01*
X51832Y-47706D02*
X51823Y-47696D01*
X51804Y-47687D01*
X51757Y-47687D01*
X51738Y-47696D01*
X51729Y-47706D01*
X51720Y-47724D01*
X51720Y-47743D01*
X51729Y-47771D01*
X51841Y-47884D01*
X51720Y-47884D01*
X51937Y-60482D02*
X52003Y-60389D01*
X52050Y-60482D02*
X52050Y-60285D01*
X51975Y-60285D01*
X51956Y-60295D01*
X51946Y-60304D01*
X51937Y-60323D01*
X51937Y-60351D01*
X51946Y-60370D01*
X51956Y-60379D01*
X51975Y-60389D01*
X52050Y-60389D01*
X51750Y-60482D02*
X51862Y-60482D01*
X51806Y-60482D02*
X51806Y-60285D01*
X51825Y-60314D01*
X51843Y-60332D01*
X51862Y-60342D01*
X51684Y-60285D02*
X51562Y-60285D01*
X51628Y-60360D01*
X51600Y-60360D01*
X51581Y-60370D01*
X51571Y-60379D01*
X51562Y-60398D01*
X51562Y-60445D01*
X51571Y-60464D01*
X51581Y-60473D01*
X51600Y-60482D01*
X51656Y-60482D01*
X51675Y-60473D01*
X51684Y-60464D01*
X31937Y-46309D02*
X32003Y-46215D01*
X32050Y-46309D02*
X32050Y-46112D01*
X31975Y-46112D01*
X31956Y-46122D01*
X31946Y-46131D01*
X31937Y-46150D01*
X31937Y-46178D01*
X31946Y-46197D01*
X31956Y-46206D01*
X31975Y-46215D01*
X32050Y-46215D01*
X31750Y-46309D02*
X31862Y-46309D01*
X31806Y-46309D02*
X31806Y-46112D01*
X31825Y-46140D01*
X31843Y-46159D01*
X31862Y-46168D01*
X31581Y-46178D02*
X31581Y-46309D01*
X31628Y-46103D02*
X31675Y-46243D01*
X31553Y-46243D01*
X31937Y-45915D02*
X32003Y-45822D01*
X32050Y-45915D02*
X32050Y-45718D01*
X31975Y-45718D01*
X31956Y-45728D01*
X31946Y-45737D01*
X31937Y-45756D01*
X31937Y-45784D01*
X31946Y-45803D01*
X31956Y-45812D01*
X31975Y-45822D01*
X32050Y-45822D01*
X31750Y-45915D02*
X31862Y-45915D01*
X31806Y-45915D02*
X31806Y-45718D01*
X31825Y-45747D01*
X31843Y-45765D01*
X31862Y-45775D01*
X31571Y-45718D02*
X31665Y-45718D01*
X31675Y-45812D01*
X31665Y-45803D01*
X31646Y-45793D01*
X31600Y-45793D01*
X31581Y-45803D01*
X31571Y-45812D01*
X31562Y-45831D01*
X31562Y-45878D01*
X31571Y-45897D01*
X31581Y-45906D01*
X31600Y-45915D01*
X31646Y-45915D01*
X31665Y-45906D01*
X31675Y-45897D01*
X31937Y-45443D02*
X32003Y-45349D01*
X32050Y-45443D02*
X32050Y-45246D01*
X31975Y-45246D01*
X31956Y-45255D01*
X31946Y-45265D01*
X31937Y-45284D01*
X31937Y-45312D01*
X31946Y-45330D01*
X31956Y-45340D01*
X31975Y-45349D01*
X32050Y-45349D01*
X31750Y-45443D02*
X31862Y-45443D01*
X31806Y-45443D02*
X31806Y-45246D01*
X31825Y-45274D01*
X31843Y-45293D01*
X31862Y-45302D01*
X31581Y-45246D02*
X31618Y-45246D01*
X31637Y-45255D01*
X31646Y-45265D01*
X31665Y-45293D01*
X31675Y-45330D01*
X31675Y-45405D01*
X31665Y-45424D01*
X31656Y-45434D01*
X31637Y-45443D01*
X31600Y-45443D01*
X31581Y-45434D01*
X31571Y-45424D01*
X31562Y-45405D01*
X31562Y-45359D01*
X31571Y-45340D01*
X31581Y-45330D01*
X31600Y-45321D01*
X31637Y-45321D01*
X31656Y-45330D01*
X31665Y-45340D01*
X31675Y-45359D01*
X41701Y-46781D02*
X41766Y-46688D01*
X41813Y-46781D02*
X41813Y-46585D01*
X41738Y-46585D01*
X41720Y-46594D01*
X41710Y-46603D01*
X41701Y-46622D01*
X41701Y-46650D01*
X41710Y-46669D01*
X41720Y-46678D01*
X41738Y-46688D01*
X41813Y-46688D01*
X41513Y-46781D02*
X41626Y-46781D01*
X41570Y-46781D02*
X41570Y-46585D01*
X41588Y-46613D01*
X41607Y-46631D01*
X41626Y-46641D01*
X41448Y-46585D02*
X41317Y-46585D01*
X41401Y-46781D01*
X41701Y-48199D02*
X41766Y-48105D01*
X41813Y-48199D02*
X41813Y-48002D01*
X41738Y-48002D01*
X41720Y-48011D01*
X41710Y-48021D01*
X41701Y-48039D01*
X41701Y-48068D01*
X41710Y-48086D01*
X41720Y-48096D01*
X41738Y-48105D01*
X41813Y-48105D01*
X41513Y-48199D02*
X41626Y-48199D01*
X41570Y-48199D02*
X41570Y-48002D01*
X41588Y-48030D01*
X41607Y-48049D01*
X41626Y-48058D01*
X41401Y-48086D02*
X41420Y-48077D01*
X41429Y-48068D01*
X41438Y-48049D01*
X41438Y-48039D01*
X41429Y-48021D01*
X41420Y-48011D01*
X41401Y-48002D01*
X41363Y-48002D01*
X41345Y-48011D01*
X41335Y-48021D01*
X41326Y-48039D01*
X41326Y-48049D01*
X41335Y-48068D01*
X41345Y-48077D01*
X41363Y-48086D01*
X41401Y-48086D01*
X41420Y-48096D01*
X41429Y-48105D01*
X41438Y-48124D01*
X41438Y-48161D01*
X41429Y-48180D01*
X41420Y-48189D01*
X41401Y-48199D01*
X41363Y-48199D01*
X41345Y-48189D01*
X41335Y-48180D01*
X41326Y-48161D01*
X41326Y-48124D01*
X41335Y-48105D01*
X41345Y-48096D01*
X41363Y-48086D01*
X31937Y-46939D02*
X32003Y-46845D01*
X32050Y-46939D02*
X32050Y-46742D01*
X31975Y-46742D01*
X31956Y-46751D01*
X31946Y-46761D01*
X31937Y-46780D01*
X31937Y-46808D01*
X31946Y-46826D01*
X31956Y-46836D01*
X31975Y-46845D01*
X32050Y-46845D01*
X31750Y-46939D02*
X31862Y-46939D01*
X31806Y-46939D02*
X31806Y-46742D01*
X31825Y-46770D01*
X31843Y-46789D01*
X31862Y-46798D01*
X31656Y-46939D02*
X31618Y-46939D01*
X31600Y-46930D01*
X31590Y-46920D01*
X31571Y-46892D01*
X31562Y-46855D01*
X31562Y-46780D01*
X31571Y-46761D01*
X31581Y-46751D01*
X31600Y-46742D01*
X31637Y-46742D01*
X31656Y-46751D01*
X31665Y-46761D01*
X31675Y-46780D01*
X31675Y-46826D01*
X31665Y-46845D01*
X31656Y-46855D01*
X31637Y-46864D01*
X31600Y-46864D01*
X31581Y-46855D01*
X31571Y-46845D01*
X31562Y-46826D01*
X30362Y-44341D02*
X30428Y-44247D01*
X30475Y-44341D02*
X30475Y-44144D01*
X30400Y-44144D01*
X30381Y-44153D01*
X30372Y-44162D01*
X30362Y-44181D01*
X30362Y-44209D01*
X30372Y-44228D01*
X30381Y-44237D01*
X30400Y-44247D01*
X30475Y-44247D01*
X30287Y-44162D02*
X30278Y-44153D01*
X30259Y-44144D01*
X30212Y-44144D01*
X30194Y-44153D01*
X30184Y-44162D01*
X30175Y-44181D01*
X30175Y-44200D01*
X30184Y-44228D01*
X30297Y-44341D01*
X30175Y-44341D01*
X30053Y-44144D02*
X30034Y-44144D01*
X30015Y-44153D01*
X30006Y-44162D01*
X29997Y-44181D01*
X29987Y-44219D01*
X29987Y-44266D01*
X29997Y-44303D01*
X30006Y-44322D01*
X30015Y-44331D01*
X30034Y-44341D01*
X30053Y-44341D01*
X30072Y-44331D01*
X30081Y-44322D01*
X30090Y-44303D01*
X30100Y-44266D01*
X30100Y-44219D01*
X30090Y-44181D01*
X30081Y-44162D01*
X30072Y-44153D01*
X30053Y-44144D01*
X41701Y-46388D02*
X41766Y-46294D01*
X41813Y-46388D02*
X41813Y-46191D01*
X41738Y-46191D01*
X41720Y-46200D01*
X41710Y-46210D01*
X41701Y-46228D01*
X41701Y-46257D01*
X41710Y-46275D01*
X41720Y-46285D01*
X41738Y-46294D01*
X41813Y-46294D01*
X41626Y-46210D02*
X41616Y-46200D01*
X41598Y-46191D01*
X41551Y-46191D01*
X41532Y-46200D01*
X41523Y-46210D01*
X41513Y-46228D01*
X41513Y-46247D01*
X41523Y-46275D01*
X41635Y-46388D01*
X41513Y-46388D01*
X41326Y-46388D02*
X41438Y-46388D01*
X41382Y-46388D02*
X41382Y-46191D01*
X41401Y-46219D01*
X41420Y-46238D01*
X41438Y-46247D01*
X41701Y-48592D02*
X41766Y-48499D01*
X41813Y-48592D02*
X41813Y-48396D01*
X41738Y-48396D01*
X41720Y-48405D01*
X41710Y-48414D01*
X41701Y-48433D01*
X41701Y-48461D01*
X41710Y-48480D01*
X41720Y-48489D01*
X41738Y-48499D01*
X41813Y-48499D01*
X41626Y-48414D02*
X41616Y-48405D01*
X41598Y-48396D01*
X41551Y-48396D01*
X41532Y-48405D01*
X41523Y-48414D01*
X41513Y-48433D01*
X41513Y-48452D01*
X41523Y-48480D01*
X41635Y-48592D01*
X41513Y-48592D01*
X41438Y-48414D02*
X41429Y-48405D01*
X41410Y-48396D01*
X41363Y-48396D01*
X41345Y-48405D01*
X41335Y-48414D01*
X41326Y-48433D01*
X41326Y-48452D01*
X41335Y-48480D01*
X41448Y-48592D01*
X41326Y-48592D01*
X31622Y-42372D02*
X31688Y-42278D01*
X31735Y-42372D02*
X31735Y-42175D01*
X31660Y-42175D01*
X31641Y-42185D01*
X31631Y-42194D01*
X31622Y-42213D01*
X31622Y-42241D01*
X31631Y-42260D01*
X31641Y-42269D01*
X31660Y-42278D01*
X31735Y-42278D01*
X31547Y-42194D02*
X31538Y-42185D01*
X31519Y-42175D01*
X31472Y-42175D01*
X31453Y-42185D01*
X31444Y-42194D01*
X31435Y-42213D01*
X31435Y-42231D01*
X31444Y-42260D01*
X31556Y-42372D01*
X31435Y-42372D01*
X31369Y-42175D02*
X31247Y-42175D01*
X31313Y-42250D01*
X31285Y-42250D01*
X31266Y-42260D01*
X31257Y-42269D01*
X31247Y-42288D01*
X31247Y-42335D01*
X31257Y-42353D01*
X31266Y-42363D01*
X31285Y-42372D01*
X31341Y-42372D01*
X31360Y-42363D01*
X31369Y-42353D01*
X48829Y-49007D02*
X48735Y-48941D01*
X48829Y-48894D02*
X48632Y-48894D01*
X48632Y-48969D01*
X48641Y-48988D01*
X48651Y-48997D01*
X48669Y-49007D01*
X48697Y-49007D01*
X48716Y-48997D01*
X48726Y-48988D01*
X48735Y-48969D01*
X48735Y-48894D01*
X48651Y-49082D02*
X48641Y-49091D01*
X48632Y-49110D01*
X48632Y-49157D01*
X48641Y-49176D01*
X48651Y-49185D01*
X48669Y-49194D01*
X48688Y-49194D01*
X48716Y-49185D01*
X48829Y-49072D01*
X48829Y-49194D01*
X48697Y-49363D02*
X48829Y-49363D01*
X48622Y-49316D02*
X48763Y-49269D01*
X48763Y-49391D01*
X48514Y-49007D02*
X48420Y-48941D01*
X48514Y-48894D02*
X48317Y-48894D01*
X48317Y-48969D01*
X48326Y-48988D01*
X48336Y-48997D01*
X48354Y-49007D01*
X48383Y-49007D01*
X48401Y-48997D01*
X48411Y-48988D01*
X48420Y-48969D01*
X48420Y-48894D01*
X48336Y-49082D02*
X48326Y-49091D01*
X48317Y-49110D01*
X48317Y-49157D01*
X48326Y-49176D01*
X48336Y-49185D01*
X48354Y-49194D01*
X48373Y-49194D01*
X48401Y-49185D01*
X48514Y-49072D01*
X48514Y-49194D01*
X48317Y-49372D02*
X48317Y-49279D01*
X48411Y-49269D01*
X48401Y-49279D01*
X48392Y-49297D01*
X48392Y-49344D01*
X48401Y-49363D01*
X48411Y-49372D01*
X48429Y-49382D01*
X48476Y-49382D01*
X48495Y-49372D01*
X48504Y-49363D01*
X48514Y-49344D01*
X48514Y-49297D01*
X48504Y-49279D01*
X48495Y-49269D01*
X48041Y-48298D02*
X47948Y-48233D01*
X48041Y-48186D02*
X47844Y-48186D01*
X47844Y-48261D01*
X47854Y-48279D01*
X47863Y-48289D01*
X47882Y-48298D01*
X47910Y-48298D01*
X47929Y-48289D01*
X47938Y-48279D01*
X47948Y-48261D01*
X47948Y-48186D01*
X47863Y-48373D02*
X47854Y-48383D01*
X47844Y-48401D01*
X47844Y-48448D01*
X47854Y-48467D01*
X47863Y-48476D01*
X47882Y-48486D01*
X47901Y-48486D01*
X47929Y-48476D01*
X48041Y-48364D01*
X48041Y-48486D01*
X47844Y-48654D02*
X47844Y-48617D01*
X47854Y-48598D01*
X47863Y-48589D01*
X47891Y-48570D01*
X47929Y-48561D01*
X48004Y-48561D01*
X48023Y-48570D01*
X48032Y-48579D01*
X48041Y-48598D01*
X48041Y-48636D01*
X48032Y-48654D01*
X48023Y-48664D01*
X48004Y-48673D01*
X47957Y-48673D01*
X47938Y-48664D01*
X47929Y-48654D01*
X47919Y-48636D01*
X47919Y-48598D01*
X47929Y-48579D01*
X47938Y-48570D01*
X47957Y-48561D01*
X35128Y-59401D02*
X35034Y-59335D01*
X35128Y-59288D02*
X34931Y-59288D01*
X34931Y-59363D01*
X34940Y-59382D01*
X34950Y-59391D01*
X34969Y-59401D01*
X34997Y-59401D01*
X35015Y-59391D01*
X35025Y-59382D01*
X35034Y-59363D01*
X35034Y-59288D01*
X34950Y-59476D02*
X34940Y-59485D01*
X34931Y-59504D01*
X34931Y-59550D01*
X34940Y-59569D01*
X34950Y-59579D01*
X34969Y-59588D01*
X34987Y-59588D01*
X35015Y-59579D01*
X35128Y-59466D01*
X35128Y-59588D01*
X34931Y-59654D02*
X34931Y-59785D01*
X35128Y-59700D01*
X37685Y-58829D02*
X37751Y-58735D01*
X37798Y-58829D02*
X37798Y-58632D01*
X37723Y-58632D01*
X37704Y-58641D01*
X37694Y-58651D01*
X37685Y-58669D01*
X37685Y-58697D01*
X37694Y-58716D01*
X37704Y-58726D01*
X37723Y-58735D01*
X37798Y-58735D01*
X37610Y-58651D02*
X37601Y-58641D01*
X37582Y-58632D01*
X37535Y-58632D01*
X37516Y-58641D01*
X37507Y-58651D01*
X37498Y-58669D01*
X37498Y-58688D01*
X37507Y-58716D01*
X37619Y-58829D01*
X37498Y-58829D01*
X37385Y-58716D02*
X37404Y-58707D01*
X37413Y-58697D01*
X37423Y-58679D01*
X37423Y-58669D01*
X37413Y-58651D01*
X37404Y-58641D01*
X37385Y-58632D01*
X37348Y-58632D01*
X37329Y-58641D01*
X37320Y-58651D01*
X37310Y-58669D01*
X37310Y-58679D01*
X37320Y-58697D01*
X37329Y-58707D01*
X37348Y-58716D01*
X37385Y-58716D01*
X37404Y-58726D01*
X37413Y-58735D01*
X37423Y-58754D01*
X37423Y-58791D01*
X37413Y-58810D01*
X37404Y-58819D01*
X37385Y-58829D01*
X37348Y-58829D01*
X37329Y-58819D01*
X37320Y-58810D01*
X37310Y-58791D01*
X37310Y-58754D01*
X37320Y-58735D01*
X37329Y-58726D01*
X37348Y-58716D01*
X38473Y-58829D02*
X38538Y-58735D01*
X38585Y-58829D02*
X38585Y-58632D01*
X38510Y-58632D01*
X38491Y-58641D01*
X38482Y-58651D01*
X38473Y-58669D01*
X38473Y-58697D01*
X38482Y-58716D01*
X38491Y-58726D01*
X38510Y-58735D01*
X38585Y-58735D01*
X38398Y-58651D02*
X38388Y-58641D01*
X38369Y-58632D01*
X38323Y-58632D01*
X38304Y-58641D01*
X38294Y-58651D01*
X38285Y-58669D01*
X38285Y-58688D01*
X38294Y-58716D01*
X38407Y-58829D01*
X38285Y-58829D01*
X38191Y-58829D02*
X38154Y-58829D01*
X38135Y-58819D01*
X38126Y-58810D01*
X38107Y-58782D01*
X38098Y-58744D01*
X38098Y-58669D01*
X38107Y-58651D01*
X38116Y-58641D01*
X38135Y-58632D01*
X38173Y-58632D01*
X38191Y-58641D01*
X38201Y-58651D01*
X38210Y-58669D01*
X38210Y-58716D01*
X38201Y-58735D01*
X38191Y-58744D01*
X38173Y-58754D01*
X38135Y-58754D01*
X38116Y-58744D01*
X38107Y-58735D01*
X38098Y-58716D01*
X51937Y-42136D02*
X52003Y-42042D01*
X52050Y-42136D02*
X52050Y-41939D01*
X51975Y-41939D01*
X51956Y-41948D01*
X51946Y-41958D01*
X51937Y-41976D01*
X51937Y-42005D01*
X51946Y-42023D01*
X51956Y-42033D01*
X51975Y-42042D01*
X52050Y-42042D01*
X51871Y-41939D02*
X51750Y-41939D01*
X51815Y-42014D01*
X51787Y-42014D01*
X51768Y-42023D01*
X51759Y-42033D01*
X51750Y-42051D01*
X51750Y-42098D01*
X51759Y-42117D01*
X51768Y-42126D01*
X51787Y-42136D01*
X51843Y-42136D01*
X51862Y-42126D01*
X51871Y-42117D01*
X51562Y-42136D02*
X51675Y-42136D01*
X51618Y-42136D02*
X51618Y-41939D01*
X51637Y-41967D01*
X51656Y-41986D01*
X51675Y-41995D01*
X49341Y-45598D02*
X49500Y-45598D01*
X49519Y-45607D01*
X49528Y-45616D01*
X49537Y-45635D01*
X49537Y-45673D01*
X49528Y-45691D01*
X49519Y-45701D01*
X49500Y-45710D01*
X49341Y-45710D01*
X49341Y-45785D02*
X49341Y-45907D01*
X49416Y-45841D01*
X49416Y-45869D01*
X49425Y-45888D01*
X49434Y-45898D01*
X49453Y-45907D01*
X49500Y-45907D01*
X49519Y-45898D01*
X49528Y-45888D01*
X49537Y-45869D01*
X49537Y-45813D01*
X49528Y-45794D01*
X49519Y-45785D01*
X57156Y-46817D02*
X57166Y-46808D01*
X57175Y-46780D01*
X57175Y-46761D01*
X57166Y-46733D01*
X57147Y-46714D01*
X57128Y-46705D01*
X57091Y-46695D01*
X57063Y-46695D01*
X57025Y-46705D01*
X57006Y-46714D01*
X56988Y-46733D01*
X56978Y-46761D01*
X56978Y-46780D01*
X56988Y-46808D01*
X56997Y-46817D01*
X56997Y-46892D02*
X56988Y-46901D01*
X56978Y-46920D01*
X56978Y-46967D01*
X56988Y-46986D01*
X56997Y-46995D01*
X57016Y-47005D01*
X57035Y-47005D01*
X57063Y-46995D01*
X57175Y-46883D01*
X57175Y-47005D01*
X53456Y-46817D02*
X53465Y-46808D01*
X53474Y-46780D01*
X53474Y-46761D01*
X53465Y-46733D01*
X53446Y-46714D01*
X53428Y-46705D01*
X53390Y-46695D01*
X53362Y-46695D01*
X53324Y-46705D01*
X53306Y-46714D01*
X53287Y-46733D01*
X53278Y-46761D01*
X53278Y-46780D01*
X53287Y-46808D01*
X53296Y-46817D01*
X53474Y-47005D02*
X53474Y-46892D01*
X53474Y-46948D02*
X53278Y-46948D01*
X53306Y-46930D01*
X53324Y-46911D01*
X53334Y-46892D01*
X31152Y-58989D02*
X31292Y-58989D01*
X31320Y-58980D01*
X31339Y-58961D01*
X31348Y-58933D01*
X31348Y-58914D01*
X31152Y-59064D02*
X31152Y-59186D01*
X31227Y-59120D01*
X31227Y-59148D01*
X31236Y-59167D01*
X31245Y-59176D01*
X31264Y-59186D01*
X31311Y-59186D01*
X31330Y-59176D01*
X31339Y-59167D01*
X31348Y-59148D01*
X31348Y-59092D01*
X31339Y-59073D01*
X31330Y-59064D01*
X68176Y-46703D02*
X68176Y-46506D01*
X68101Y-46506D01*
X68083Y-46515D01*
X68073Y-46525D01*
X68064Y-46543D01*
X68064Y-46571D01*
X68073Y-46590D01*
X68083Y-46600D01*
X68101Y-46609D01*
X68176Y-46609D01*
X67876Y-46703D02*
X67989Y-46703D01*
X67933Y-46703D02*
X67933Y-46506D01*
X67951Y-46534D01*
X67970Y-46553D01*
X67989Y-46562D01*
X42044Y-66048D02*
X42016Y-66058D01*
X42006Y-66067D01*
X41997Y-66086D01*
X41997Y-66114D01*
X42006Y-66133D01*
X42016Y-66142D01*
X42035Y-66152D01*
X42110Y-66152D01*
X42110Y-65955D01*
X42044Y-65955D01*
X42025Y-65964D01*
X42016Y-65973D01*
X42006Y-65992D01*
X42006Y-66011D01*
X42016Y-66030D01*
X42025Y-66039D01*
X42044Y-66048D01*
X42110Y-66048D01*
X41941Y-65955D02*
X41828Y-65955D01*
X41885Y-66152D02*
X41885Y-65955D01*
X41660Y-66152D02*
X41772Y-66152D01*
X41716Y-66152D02*
X41716Y-65955D01*
X41735Y-65983D01*
X41753Y-66002D01*
X41772Y-66011D01*
X50816Y-49508D02*
X50807Y-49490D01*
X50788Y-49471D01*
X50760Y-49443D01*
X50750Y-49424D01*
X50750Y-49405D01*
X50797Y-49415D02*
X50788Y-49396D01*
X50769Y-49377D01*
X50732Y-49368D01*
X50666Y-49368D01*
X50628Y-49377D01*
X50610Y-49396D01*
X50600Y-49415D01*
X50600Y-49452D01*
X50610Y-49471D01*
X50628Y-49490D01*
X50666Y-49499D01*
X50732Y-49499D01*
X50769Y-49490D01*
X50788Y-49471D01*
X50797Y-49452D01*
X50797Y-49415D01*
X50797Y-49686D02*
X50797Y-49574D01*
X50797Y-49630D02*
X50600Y-49630D01*
X50628Y-49611D01*
X50647Y-49593D01*
X50657Y-49574D01*
X30501Y-43052D02*
X30492Y-43033D01*
X30473Y-43014D01*
X30445Y-42986D01*
X30435Y-42967D01*
X30435Y-42949D01*
X30482Y-42958D02*
X30473Y-42939D01*
X30454Y-42920D01*
X30417Y-42911D01*
X30351Y-42911D01*
X30314Y-42920D01*
X30295Y-42939D01*
X30285Y-42958D01*
X30285Y-42995D01*
X30295Y-43014D01*
X30314Y-43033D01*
X30351Y-43042D01*
X30417Y-43042D01*
X30454Y-43033D01*
X30473Y-43014D01*
X30482Y-42995D01*
X30482Y-42958D01*
X30304Y-43117D02*
X30295Y-43127D01*
X30285Y-43145D01*
X30285Y-43192D01*
X30295Y-43211D01*
X30304Y-43220D01*
X30323Y-43230D01*
X30342Y-43230D01*
X30370Y-43220D01*
X30482Y-43108D01*
X30482Y-43230D01*
X40482Y-41272D02*
X40285Y-41272D01*
X40285Y-41347D01*
X40295Y-41365D01*
X40304Y-41375D01*
X40323Y-41384D01*
X40351Y-41384D01*
X40370Y-41375D01*
X40379Y-41365D01*
X40389Y-41347D01*
X40389Y-41272D01*
X40304Y-41459D02*
X40295Y-41468D01*
X40285Y-41487D01*
X40285Y-41534D01*
X40295Y-41553D01*
X40304Y-41562D01*
X40323Y-41571D01*
X40342Y-41571D01*
X40370Y-41562D01*
X40482Y-41450D01*
X40482Y-41571D01*
X35758Y-41272D02*
X35561Y-41272D01*
X35561Y-41347D01*
X35570Y-41365D01*
X35580Y-41375D01*
X35598Y-41384D01*
X35627Y-41384D01*
X35645Y-41375D01*
X35655Y-41365D01*
X35664Y-41347D01*
X35664Y-41272D01*
X35561Y-41450D02*
X35561Y-41571D01*
X35636Y-41506D01*
X35636Y-41534D01*
X35645Y-41553D01*
X35655Y-41562D01*
X35673Y-41571D01*
X35720Y-41571D01*
X35739Y-41562D01*
X35748Y-41553D01*
X35758Y-41534D01*
X35758Y-41478D01*
X35748Y-41459D01*
X35739Y-41450D01*
X34892Y-57904D02*
X34798Y-57839D01*
X34892Y-57792D02*
X34695Y-57792D01*
X34695Y-57867D01*
X34704Y-57886D01*
X34714Y-57895D01*
X34732Y-57904D01*
X34760Y-57904D01*
X34779Y-57895D01*
X34789Y-57886D01*
X34798Y-57867D01*
X34798Y-57792D01*
X34695Y-57970D02*
X34695Y-58092D01*
X34770Y-58026D01*
X34770Y-58054D01*
X34779Y-58073D01*
X34789Y-58083D01*
X34807Y-58092D01*
X34854Y-58092D01*
X34873Y-58083D01*
X34882Y-58073D01*
X34892Y-58054D01*
X34892Y-57998D01*
X34882Y-57979D01*
X34873Y-57970D01*
X34695Y-58214D02*
X34695Y-58233D01*
X34704Y-58251D01*
X34714Y-58261D01*
X34732Y-58270D01*
X34770Y-58279D01*
X34817Y-58279D01*
X34854Y-58270D01*
X34873Y-58261D01*
X34882Y-58251D01*
X34892Y-58233D01*
X34892Y-58214D01*
X34882Y-58195D01*
X34873Y-58186D01*
X34854Y-58176D01*
X34817Y-58167D01*
X34770Y-58167D01*
X34732Y-58176D01*
X34714Y-58186D01*
X34704Y-58195D01*
X34695Y-58214D01*
X51607Y-47471D02*
X51616Y-47481D01*
X51645Y-47490D01*
X51663Y-47490D01*
X51691Y-47481D01*
X51710Y-47462D01*
X51720Y-47443D01*
X51729Y-47406D01*
X51729Y-47378D01*
X51720Y-47340D01*
X51710Y-47321D01*
X51691Y-47303D01*
X51663Y-47293D01*
X51645Y-47293D01*
X51616Y-47303D01*
X51607Y-47312D01*
X51495Y-47378D02*
X51513Y-47368D01*
X51523Y-47359D01*
X51532Y-47340D01*
X51532Y-47331D01*
X51523Y-47312D01*
X51513Y-47303D01*
X51495Y-47293D01*
X51457Y-47293D01*
X51438Y-47303D01*
X51429Y-47312D01*
X51420Y-47331D01*
X51420Y-47340D01*
X51429Y-47359D01*
X51438Y-47368D01*
X51457Y-47378D01*
X51495Y-47378D01*
X51513Y-47387D01*
X51523Y-47396D01*
X51532Y-47415D01*
X51532Y-47453D01*
X51523Y-47471D01*
X51513Y-47481D01*
X51495Y-47490D01*
X51457Y-47490D01*
X51438Y-47481D01*
X51429Y-47471D01*
X51420Y-47453D01*
X51420Y-47415D01*
X51429Y-47396D01*
X51438Y-47387D01*
X51457Y-47378D01*
X37213Y-49834D02*
X37222Y-49843D01*
X37250Y-49852D01*
X37269Y-49852D01*
X37297Y-49843D01*
X37316Y-49824D01*
X37325Y-49805D01*
X37335Y-49768D01*
X37335Y-49740D01*
X37325Y-49702D01*
X37316Y-49684D01*
X37297Y-49665D01*
X37269Y-49655D01*
X37250Y-49655D01*
X37222Y-49665D01*
X37213Y-49674D01*
X37138Y-49674D02*
X37128Y-49665D01*
X37110Y-49655D01*
X37063Y-49655D01*
X37044Y-49665D01*
X37035Y-49674D01*
X37025Y-49693D01*
X37025Y-49712D01*
X37035Y-49740D01*
X37147Y-49852D01*
X37025Y-49852D01*
X36960Y-49655D02*
X36828Y-49655D01*
X36913Y-49852D01*
X35188Y-48377D02*
X35197Y-48368D01*
X35207Y-48339D01*
X35207Y-48321D01*
X35197Y-48293D01*
X35179Y-48274D01*
X35160Y-48264D01*
X35122Y-48255D01*
X35094Y-48255D01*
X35057Y-48264D01*
X35038Y-48274D01*
X35019Y-48293D01*
X35010Y-48321D01*
X35010Y-48339D01*
X35019Y-48368D01*
X35029Y-48377D01*
X35207Y-48564D02*
X35207Y-48452D01*
X35207Y-48508D02*
X35010Y-48508D01*
X35038Y-48489D01*
X35057Y-48471D01*
X35066Y-48452D01*
X35010Y-48630D02*
X35010Y-48761D01*
X35207Y-48677D01*
X38338Y-47904D02*
X38347Y-47895D01*
X38356Y-47867D01*
X38356Y-47848D01*
X38347Y-47820D01*
X38328Y-47801D01*
X38309Y-47792D01*
X38272Y-47783D01*
X38244Y-47783D01*
X38206Y-47792D01*
X38188Y-47801D01*
X38169Y-47820D01*
X38159Y-47848D01*
X38159Y-47867D01*
X38169Y-47895D01*
X38178Y-47904D01*
X38178Y-47979D02*
X38169Y-47989D01*
X38159Y-48008D01*
X38159Y-48054D01*
X38169Y-48073D01*
X38178Y-48083D01*
X38197Y-48092D01*
X38216Y-48092D01*
X38244Y-48083D01*
X38356Y-47970D01*
X38356Y-48092D01*
X38159Y-48158D02*
X38159Y-48279D01*
X38234Y-48214D01*
X38234Y-48242D01*
X38244Y-48261D01*
X38253Y-48270D01*
X38272Y-48279D01*
X38319Y-48279D01*
X38338Y-48270D01*
X38347Y-48261D01*
X38356Y-48242D01*
X38356Y-48186D01*
X38347Y-48167D01*
X38338Y-48158D01*
X50756Y-42117D02*
X50765Y-42126D01*
X50793Y-42136D01*
X50812Y-42136D01*
X50840Y-42126D01*
X50859Y-42108D01*
X50868Y-42089D01*
X50878Y-42051D01*
X50878Y-42023D01*
X50868Y-41986D01*
X50859Y-41967D01*
X50840Y-41948D01*
X50812Y-41939D01*
X50793Y-41939D01*
X50765Y-41948D01*
X50756Y-41958D01*
X50690Y-41939D02*
X50568Y-41939D01*
X50634Y-42014D01*
X50606Y-42014D01*
X50587Y-42023D01*
X50578Y-42033D01*
X50568Y-42051D01*
X50568Y-42098D01*
X50578Y-42117D01*
X50587Y-42126D01*
X50606Y-42136D01*
X50662Y-42136D01*
X50681Y-42126D01*
X50690Y-42117D01*
X50447Y-41939D02*
X50428Y-41939D01*
X50409Y-41948D01*
X50400Y-41958D01*
X50390Y-41976D01*
X50381Y-42014D01*
X50381Y-42061D01*
X50390Y-42098D01*
X50400Y-42117D01*
X50409Y-42126D01*
X50428Y-42136D01*
X50447Y-42136D01*
X50465Y-42126D01*
X50475Y-42117D01*
X50484Y-42098D01*
X50494Y-42061D01*
X50494Y-42014D01*
X50484Y-41976D01*
X50475Y-41958D01*
X50465Y-41948D01*
X50447Y-41939D01*
X46388Y-58377D02*
X46294Y-58311D01*
X46388Y-58264D02*
X46191Y-58264D01*
X46191Y-58339D01*
X46200Y-58358D01*
X46210Y-58368D01*
X46228Y-58377D01*
X46257Y-58377D01*
X46275Y-58368D01*
X46285Y-58358D01*
X46294Y-58339D01*
X46294Y-58264D01*
X46191Y-58443D02*
X46191Y-58564D01*
X46266Y-58499D01*
X46266Y-58527D01*
X46275Y-58546D01*
X46285Y-58555D01*
X46303Y-58564D01*
X46350Y-58564D01*
X46369Y-58555D01*
X46378Y-58546D01*
X46388Y-58527D01*
X46388Y-58471D01*
X46378Y-58452D01*
X46369Y-58443D01*
X46210Y-58639D02*
X46200Y-58649D01*
X46191Y-58667D01*
X46191Y-58714D01*
X46200Y-58733D01*
X46210Y-58742D01*
X46228Y-58752D01*
X46247Y-58752D01*
X46275Y-58742D01*
X46388Y-58630D01*
X46388Y-58752D01*
X44264Y-52648D02*
X44151Y-52648D01*
X44207Y-52844D02*
X44207Y-52648D01*
X44086Y-52844D02*
X44086Y-52648D01*
X44011Y-52648D01*
X43992Y-52657D01*
X43982Y-52666D01*
X43973Y-52685D01*
X43973Y-52713D01*
X43982Y-52732D01*
X43992Y-52741D01*
X44011Y-52751D01*
X44086Y-52751D01*
X43786Y-52844D02*
X43898Y-52844D01*
X43842Y-52844D02*
X43842Y-52648D01*
X43861Y-52676D01*
X43879Y-52694D01*
X43898Y-52704D01*
X44264Y-52963D02*
X44151Y-52963D01*
X44207Y-53159D02*
X44207Y-52963D01*
X44086Y-53159D02*
X44086Y-52963D01*
X44011Y-52963D01*
X43992Y-52972D01*
X43982Y-52981D01*
X43973Y-53000D01*
X43973Y-53028D01*
X43982Y-53047D01*
X43992Y-53056D01*
X44011Y-53066D01*
X44086Y-53066D01*
X43898Y-52981D02*
X43889Y-52972D01*
X43870Y-52963D01*
X43823Y-52963D01*
X43804Y-52972D01*
X43795Y-52981D01*
X43786Y-53000D01*
X43786Y-53019D01*
X43795Y-53047D01*
X43907Y-53159D01*
X43786Y-53159D01*
X44264Y-53278D02*
X44151Y-53278D01*
X44207Y-53474D02*
X44207Y-53278D01*
X44086Y-53474D02*
X44086Y-53278D01*
X44011Y-53278D01*
X43992Y-53287D01*
X43982Y-53296D01*
X43973Y-53315D01*
X43973Y-53343D01*
X43982Y-53362D01*
X43992Y-53371D01*
X44011Y-53381D01*
X44086Y-53381D01*
X43907Y-53278D02*
X43786Y-53278D01*
X43851Y-53353D01*
X43823Y-53353D01*
X43804Y-53362D01*
X43795Y-53371D01*
X43786Y-53390D01*
X43786Y-53437D01*
X43795Y-53456D01*
X43804Y-53465D01*
X43823Y-53474D01*
X43879Y-53474D01*
X43898Y-53465D01*
X43907Y-53456D01*
X44264Y-53592D02*
X44151Y-53592D01*
X44207Y-53789D02*
X44207Y-53592D01*
X44086Y-53789D02*
X44086Y-53592D01*
X44011Y-53592D01*
X43992Y-53602D01*
X43982Y-53611D01*
X43973Y-53630D01*
X43973Y-53658D01*
X43982Y-53677D01*
X43992Y-53686D01*
X44011Y-53696D01*
X44086Y-53696D01*
X43804Y-53658D02*
X43804Y-53789D01*
X43851Y-53583D02*
X43898Y-53724D01*
X43776Y-53724D01*
X44264Y-52333D02*
X44151Y-52333D01*
X44207Y-52529D02*
X44207Y-52333D01*
X44086Y-52529D02*
X44086Y-52333D01*
X44011Y-52333D01*
X43992Y-52342D01*
X43982Y-52351D01*
X43973Y-52370D01*
X43973Y-52398D01*
X43982Y-52417D01*
X43992Y-52426D01*
X44011Y-52436D01*
X44086Y-52436D01*
X43795Y-52333D02*
X43889Y-52333D01*
X43898Y-52426D01*
X43889Y-52417D01*
X43870Y-52408D01*
X43823Y-52408D01*
X43804Y-52417D01*
X43795Y-52426D01*
X43786Y-52445D01*
X43786Y-52492D01*
X43795Y-52511D01*
X43804Y-52520D01*
X43823Y-52529D01*
X43870Y-52529D01*
X43889Y-52520D01*
X43898Y-52511D01*
X44185Y-51624D02*
X44072Y-51624D01*
X44129Y-51821D02*
X44129Y-51624D01*
X44007Y-51821D02*
X44007Y-51624D01*
X43932Y-51624D01*
X43913Y-51633D01*
X43904Y-51643D01*
X43894Y-51661D01*
X43894Y-51690D01*
X43904Y-51708D01*
X43913Y-51718D01*
X43932Y-51727D01*
X44007Y-51727D01*
X43726Y-51624D02*
X43763Y-51624D01*
X43782Y-51633D01*
X43791Y-51643D01*
X43810Y-51671D01*
X43819Y-51708D01*
X43819Y-51783D01*
X43810Y-51802D01*
X43801Y-51811D01*
X43782Y-51821D01*
X43744Y-51821D01*
X43726Y-51811D01*
X43716Y-51802D01*
X43707Y-51783D01*
X43707Y-51736D01*
X43716Y-51718D01*
X43726Y-51708D01*
X43744Y-51699D01*
X43782Y-51699D01*
X43801Y-51708D01*
X43810Y-51718D01*
X43819Y-51736D01*
X47985Y-40857D02*
X47994Y-40867D01*
X48023Y-40876D01*
X48041Y-40876D01*
X48069Y-40867D01*
X48088Y-40848D01*
X48098Y-40829D01*
X48107Y-40792D01*
X48107Y-40763D01*
X48098Y-40726D01*
X48088Y-40707D01*
X48069Y-40688D01*
X48041Y-40679D01*
X48023Y-40679D01*
X47994Y-40688D01*
X47985Y-40698D01*
X47919Y-40679D02*
X47798Y-40679D01*
X47863Y-40754D01*
X47835Y-40754D01*
X47816Y-40763D01*
X47807Y-40773D01*
X47798Y-40792D01*
X47798Y-40838D01*
X47807Y-40857D01*
X47816Y-40867D01*
X47835Y-40876D01*
X47891Y-40876D01*
X47910Y-40867D01*
X47919Y-40857D01*
X45244Y-47708D02*
X45254Y-47717D01*
X45282Y-47726D01*
X45300Y-47726D01*
X45329Y-47717D01*
X45347Y-47698D01*
X45357Y-47679D01*
X45366Y-47642D01*
X45366Y-47614D01*
X45357Y-47576D01*
X45347Y-47558D01*
X45329Y-47539D01*
X45300Y-47529D01*
X45282Y-47529D01*
X45254Y-47539D01*
X45244Y-47548D01*
X45057Y-47726D02*
X45169Y-47726D01*
X45113Y-47726D02*
X45113Y-47529D01*
X45132Y-47558D01*
X45150Y-47576D01*
X45169Y-47586D01*
X44888Y-47595D02*
X44888Y-47726D01*
X44935Y-47520D02*
X44982Y-47661D01*
X44860Y-47661D01*
X45244Y-45503D02*
X45254Y-45512D01*
X45282Y-45522D01*
X45300Y-45522D01*
X45329Y-45512D01*
X45347Y-45494D01*
X45357Y-45475D01*
X45366Y-45437D01*
X45366Y-45409D01*
X45357Y-45372D01*
X45347Y-45353D01*
X45329Y-45334D01*
X45300Y-45325D01*
X45282Y-45325D01*
X45254Y-45334D01*
X45244Y-45344D01*
X45057Y-45522D02*
X45169Y-45522D01*
X45113Y-45522D02*
X45113Y-45325D01*
X45132Y-45353D01*
X45150Y-45372D01*
X45169Y-45381D01*
X44991Y-45325D02*
X44869Y-45325D01*
X44935Y-45400D01*
X44907Y-45400D01*
X44888Y-45409D01*
X44879Y-45419D01*
X44869Y-45437D01*
X44869Y-45484D01*
X44879Y-45503D01*
X44888Y-45512D01*
X44907Y-45522D01*
X44963Y-45522D01*
X44982Y-45512D01*
X44991Y-45503D01*
X45244Y-41093D02*
X45254Y-41103D01*
X45282Y-41112D01*
X45300Y-41112D01*
X45329Y-41103D01*
X45347Y-41084D01*
X45357Y-41065D01*
X45366Y-41028D01*
X45366Y-41000D01*
X45357Y-40962D01*
X45347Y-40943D01*
X45329Y-40925D01*
X45300Y-40915D01*
X45282Y-40915D01*
X45254Y-40925D01*
X45244Y-40934D01*
X45057Y-41112D02*
X45169Y-41112D01*
X45113Y-41112D02*
X45113Y-40915D01*
X45132Y-40943D01*
X45150Y-40962D01*
X45169Y-40972D01*
X44982Y-40934D02*
X44972Y-40925D01*
X44954Y-40915D01*
X44907Y-40915D01*
X44888Y-40925D01*
X44879Y-40934D01*
X44869Y-40953D01*
X44869Y-40972D01*
X44879Y-41000D01*
X44991Y-41112D01*
X44869Y-41112D01*
X45244Y-43298D02*
X45254Y-43308D01*
X45282Y-43317D01*
X45300Y-43317D01*
X45329Y-43308D01*
X45347Y-43289D01*
X45357Y-43270D01*
X45366Y-43233D01*
X45366Y-43204D01*
X45357Y-43167D01*
X45347Y-43148D01*
X45329Y-43129D01*
X45300Y-43120D01*
X45282Y-43120D01*
X45254Y-43129D01*
X45244Y-43139D01*
X45057Y-43317D02*
X45169Y-43317D01*
X45113Y-43317D02*
X45113Y-43120D01*
X45132Y-43148D01*
X45150Y-43167D01*
X45169Y-43176D01*
X44869Y-43317D02*
X44982Y-43317D01*
X44925Y-43317D02*
X44925Y-43120D01*
X44944Y-43148D01*
X44963Y-43167D01*
X44982Y-43176D01*
X33719Y-59084D02*
X33738Y-59074D01*
X33757Y-59056D01*
X33785Y-59027D01*
X33803Y-59018D01*
X33822Y-59018D01*
X33813Y-59065D02*
X33832Y-59056D01*
X33850Y-59037D01*
X33860Y-58999D01*
X33860Y-58934D01*
X33850Y-58896D01*
X33832Y-58877D01*
X33813Y-58868D01*
X33775Y-58868D01*
X33757Y-58877D01*
X33738Y-58896D01*
X33728Y-58934D01*
X33728Y-58999D01*
X33738Y-59037D01*
X33757Y-59056D01*
X33775Y-59065D01*
X33813Y-59065D01*
X33663Y-58868D02*
X33541Y-58868D01*
X33607Y-58943D01*
X33578Y-58943D01*
X33560Y-58952D01*
X33550Y-58962D01*
X33541Y-58981D01*
X33541Y-59027D01*
X33550Y-59046D01*
X33560Y-59056D01*
X33578Y-59065D01*
X33635Y-59065D01*
X33653Y-59056D01*
X33663Y-59046D01*
X36134Y-49026D02*
X36134Y-49185D01*
X36124Y-49204D01*
X36115Y-49213D01*
X36096Y-49222D01*
X36059Y-49222D01*
X36040Y-49213D01*
X36031Y-49204D01*
X36021Y-49185D01*
X36021Y-49026D01*
X35937Y-49044D02*
X35928Y-49035D01*
X35909Y-49026D01*
X35862Y-49026D01*
X35843Y-49035D01*
X35834Y-49044D01*
X35824Y-49063D01*
X35824Y-49082D01*
X35834Y-49110D01*
X35946Y-49222D01*
X35824Y-49222D01*
X30049Y-47650D02*
X30190Y-47650D01*
X30218Y-47641D01*
X30237Y-47622D01*
X30246Y-47594D01*
X30246Y-47575D01*
X30068Y-47735D02*
X30059Y-47744D01*
X30049Y-47763D01*
X30049Y-47810D01*
X30059Y-47829D01*
X30068Y-47838D01*
X30087Y-47847D01*
X30105Y-47847D01*
X30134Y-47838D01*
X30246Y-47725D01*
X30246Y-47847D01*
X36347Y-59341D02*
X36412Y-59247D01*
X36459Y-59341D02*
X36459Y-59144D01*
X36384Y-59144D01*
X36365Y-59153D01*
X36356Y-59162D01*
X36347Y-59181D01*
X36347Y-59209D01*
X36356Y-59228D01*
X36365Y-59237D01*
X36384Y-59247D01*
X36459Y-59247D01*
X36281Y-59144D02*
X36159Y-59144D01*
X36225Y-59219D01*
X36197Y-59219D01*
X36178Y-59228D01*
X36168Y-59237D01*
X36159Y-59256D01*
X36159Y-59303D01*
X36168Y-59322D01*
X36178Y-59331D01*
X36197Y-59341D01*
X36253Y-59341D01*
X36272Y-59331D01*
X36281Y-59322D01*
X36093Y-59144D02*
X35972Y-59144D01*
X36037Y-59219D01*
X36009Y-59219D01*
X35990Y-59228D01*
X35981Y-59237D01*
X35972Y-59256D01*
X35972Y-59303D01*
X35981Y-59322D01*
X35990Y-59331D01*
X36009Y-59341D01*
X36065Y-59341D01*
X36084Y-59331D01*
X36093Y-59322D01*
M02*
