%FSLAX34Y34*%
G04 Gerber Fmt 3.4, Leading zero omitted, Abs format*
G04 (created by PCBNEW (2014-03-01 BZR 4730)-product) date Monday, May 12, 2014 'PMt' 11:38:01 PM*
%MOIN*%
G01*
G70*
G90*
G04 APERTURE LIST*
%ADD10C,0.006000*%
%ADD11C,0.011811*%
%ADD12C,0.220472*%
%ADD13C,0.023622*%
%ADD14C,0.082677*%
%ADD15C,0.055118*%
%ADD16C,0.032000*%
%ADD17C,0.007874*%
G04 APERTURE END LIST*
G54D10*
G54D11*
X29330Y-67786D02*
X29696Y-67786D01*
X29499Y-68011D01*
X29583Y-68011D01*
X29640Y-68039D01*
X29668Y-68068D01*
X29696Y-68124D01*
X29696Y-68264D01*
X29668Y-68321D01*
X29640Y-68349D01*
X29583Y-68377D01*
X29415Y-68377D01*
X29358Y-68349D01*
X29330Y-68321D01*
G54D12*
X25196Y-40944D03*
G54D13*
X25196Y-40078D03*
X24330Y-40944D03*
X25196Y-41811D03*
X26062Y-40944D03*
X25807Y-40334D03*
X24586Y-40334D03*
X24586Y-41555D03*
X25807Y-41555D03*
G54D12*
X25196Y-67322D03*
G54D13*
X25196Y-66456D03*
X24330Y-67322D03*
X25196Y-68188D03*
X26062Y-67322D03*
X25807Y-66712D03*
X24586Y-66712D03*
X24586Y-67933D03*
X25807Y-67933D03*
G54D12*
X69291Y-67322D03*
G54D13*
X69291Y-66456D03*
X68425Y-67322D03*
X69291Y-68188D03*
X70157Y-67322D03*
X69901Y-66712D03*
X68681Y-66712D03*
X68681Y-67933D03*
X69901Y-67933D03*
G54D12*
X69291Y-40944D03*
G54D13*
X69291Y-40078D03*
X68425Y-40944D03*
X69291Y-41811D03*
X70157Y-40944D03*
X69901Y-40334D03*
X68681Y-40334D03*
X68681Y-41555D03*
X69901Y-41555D03*
G54D12*
X49606Y-40944D03*
G54D13*
X49606Y-40078D03*
X48740Y-40944D03*
X49606Y-41811D03*
X50472Y-40944D03*
X50216Y-40334D03*
X48996Y-40334D03*
X48996Y-41555D03*
X50216Y-41555D03*
G54D14*
X55492Y-56711D03*
X60648Y-51555D03*
X58507Y-54570D03*
X55492Y-51555D03*
X56651Y-47775D03*
X64017Y-51082D03*
X64401Y-55414D03*
X59490Y-60492D03*
X52124Y-57185D03*
G54D15*
X53649Y-42834D03*
X52649Y-42834D03*
G54D16*
X37677Y-49212D03*
X40157Y-57480D03*
X40314Y-52362D03*
X31889Y-42637D03*
X31929Y-43169D03*
X51299Y-60393D03*
X40511Y-57874D03*
X34251Y-58937D03*
X34566Y-58622D03*
X44173Y-52086D03*
X52086Y-48661D03*
X37125Y-58346D03*
X38740Y-58346D03*
X34055Y-51181D03*
X42913Y-54921D03*
X50078Y-48956D03*
X49822Y-48622D03*
X61102Y-64763D03*
X61102Y-63031D03*
X50472Y-61377D03*
X69488Y-60393D03*
X67755Y-60393D03*
X39685Y-52637D03*
X37519Y-55196D03*
X33149Y-57381D03*
X37086Y-48228D03*
X38779Y-49370D03*
X41889Y-60000D03*
X50452Y-48051D03*
X50196Y-47106D03*
X49940Y-48051D03*
X49055Y-43031D03*
X47283Y-47322D03*
X45787Y-46692D03*
X45787Y-47322D03*
X49566Y-46692D03*
X49370Y-47637D03*
X49094Y-44488D03*
X47952Y-47952D03*
X50472Y-52401D03*
X58110Y-63031D03*
X48582Y-43385D03*
X48937Y-47322D03*
X59133Y-65039D03*
X52913Y-52795D03*
X48464Y-47322D03*
X60118Y-63031D03*
X53622Y-53110D03*
X59133Y-63031D03*
X47795Y-46102D03*
X43346Y-55314D03*
X42598Y-53346D03*
X41889Y-59133D03*
X39566Y-51653D03*
X40000Y-51614D03*
X41889Y-59566D03*
X41889Y-58700D03*
X40984Y-51968D03*
X48307Y-44527D03*
X54133Y-65039D03*
X55118Y-65039D03*
X48070Y-43385D03*
X30236Y-46496D03*
X48759Y-60393D03*
X46535Y-55984D03*
X25551Y-45807D03*
X48759Y-57401D03*
X25551Y-45039D03*
X30551Y-45000D03*
X48759Y-58405D03*
X25551Y-46614D03*
X30236Y-45787D03*
X30551Y-46181D03*
X25708Y-47007D03*
X46771Y-59389D03*
X50472Y-59409D03*
X25551Y-44212D03*
X30236Y-44606D03*
X30551Y-46811D03*
X46771Y-60393D03*
X25551Y-44625D03*
X47637Y-56889D03*
X32519Y-44881D03*
X35748Y-58858D03*
X33070Y-40157D03*
X31496Y-40157D03*
X29921Y-40157D03*
X28346Y-40157D03*
X26771Y-40157D03*
X26771Y-41732D03*
X64566Y-52362D03*
X59842Y-51574D03*
X58661Y-51574D03*
X57480Y-51574D03*
X56299Y-51181D03*
X56299Y-50000D03*
X57086Y-48818D03*
X57874Y-47637D03*
X59448Y-47637D03*
X61023Y-47637D03*
X61811Y-48425D03*
X61023Y-49212D03*
X61023Y-50787D03*
X61811Y-51968D03*
X62992Y-51574D03*
X63385Y-50393D03*
X64566Y-53937D03*
X63385Y-53149D03*
X61811Y-53149D03*
X60236Y-53149D03*
X32086Y-44881D03*
X46456Y-57992D03*
X30157Y-43996D03*
X29586Y-43996D03*
X29547Y-46968D03*
X29842Y-47342D03*
X29842Y-43129D03*
X29547Y-42755D03*
X24074Y-42854D03*
X24389Y-42539D03*
X24468Y-47657D03*
X24114Y-47381D03*
X24704Y-44566D03*
X24704Y-46673D03*
X25433Y-46200D03*
X42913Y-61417D03*
X42519Y-62992D03*
X43307Y-64566D03*
X44488Y-65748D03*
X45669Y-66929D03*
X45669Y-68110D03*
X40551Y-59842D03*
X38976Y-59842D03*
X37401Y-59842D03*
X35826Y-59842D03*
X28346Y-66535D03*
X29921Y-66535D03*
X26771Y-66535D03*
X26771Y-68110D03*
X25984Y-65748D03*
X24409Y-65748D03*
X24409Y-64173D03*
X24409Y-62598D03*
X31496Y-68110D03*
X33070Y-68110D03*
X34645Y-68110D03*
X36220Y-68110D03*
X37795Y-68110D03*
X39370Y-68110D03*
X40944Y-68110D03*
X42519Y-68110D03*
X44094Y-68110D03*
X31496Y-66535D03*
X66141Y-68110D03*
X64566Y-68110D03*
X62992Y-68110D03*
X61417Y-68110D03*
X59842Y-68110D03*
X58267Y-68110D03*
X56692Y-68110D03*
X55118Y-68110D03*
X53543Y-68110D03*
X51968Y-68110D03*
X50393Y-68110D03*
X48818Y-68110D03*
X47244Y-68110D03*
X67716Y-68110D03*
X33858Y-61417D03*
X32677Y-60629D03*
X31889Y-59842D03*
X31102Y-58661D03*
X31889Y-57480D03*
X31889Y-55905D03*
X31889Y-54330D03*
X31889Y-52755D03*
X31889Y-51181D03*
X31102Y-50393D03*
X31102Y-48818D03*
X31889Y-48031D03*
X33070Y-48031D03*
X34251Y-49212D03*
X34251Y-47244D03*
X32283Y-47244D03*
X30708Y-47244D03*
X35354Y-47952D03*
X35669Y-47637D03*
X36653Y-48228D03*
X51141Y-47440D03*
X53149Y-46456D03*
X54724Y-46456D03*
X54724Y-47637D03*
X52755Y-48031D03*
X65748Y-44488D03*
X67322Y-44488D03*
X63110Y-43405D03*
X57480Y-43307D03*
X59055Y-42913D03*
X60629Y-43307D03*
X62204Y-42913D03*
X64055Y-43405D03*
X66929Y-43307D03*
X65354Y-42913D03*
X51968Y-41732D03*
X53543Y-41732D03*
X55118Y-41732D03*
X56692Y-41732D03*
X58267Y-41732D03*
X59842Y-41732D03*
X61417Y-41732D03*
X62992Y-41732D03*
X64566Y-41732D03*
X66141Y-41732D03*
X67716Y-41732D03*
X70078Y-50000D03*
X60629Y-45275D03*
X59055Y-45275D03*
X57480Y-45275D03*
X56692Y-46062D03*
X58267Y-46062D03*
X59842Y-46062D03*
X61417Y-46062D03*
X62204Y-46850D03*
X63385Y-48031D03*
X64566Y-49212D03*
X65748Y-50393D03*
X67322Y-50787D03*
X68897Y-50787D03*
X27559Y-48425D03*
X56692Y-66929D03*
X55118Y-66929D03*
X53543Y-66929D03*
X51968Y-66929D03*
X50393Y-66929D03*
X48818Y-66929D03*
X53149Y-65748D03*
X51968Y-64566D03*
X50787Y-63385D03*
X49212Y-63385D03*
X47637Y-63385D03*
X46062Y-63385D03*
X44881Y-64566D03*
X46062Y-65748D03*
X47244Y-66929D03*
X59055Y-66929D03*
X60629Y-66929D03*
X63779Y-66929D03*
X67716Y-64960D03*
X67716Y-63385D03*
X66535Y-62204D03*
X64960Y-62204D03*
X64960Y-60629D03*
X63385Y-60629D03*
X52362Y-61417D03*
X53937Y-61417D03*
X55511Y-61417D03*
X57086Y-61417D03*
X58661Y-61417D03*
X60236Y-60629D03*
X61811Y-60629D03*
X55511Y-53149D03*
X56692Y-54330D03*
X57874Y-55511D03*
X59448Y-55511D03*
X61023Y-55511D03*
X62598Y-55511D03*
X51574Y-55905D03*
X53149Y-55905D03*
X54724Y-55905D03*
X60236Y-58267D03*
X58661Y-58267D03*
X57086Y-58267D03*
X55511Y-58267D03*
X41732Y-40157D03*
X43307Y-40157D03*
X44881Y-40157D03*
X46456Y-40157D03*
X48031Y-40157D03*
X51968Y-40157D03*
X53543Y-40157D03*
X55118Y-40157D03*
X56692Y-40157D03*
X58267Y-40157D03*
X59842Y-40157D03*
X61417Y-40157D03*
X62992Y-40157D03*
X64566Y-40157D03*
X66141Y-40157D03*
X67716Y-40157D03*
X27559Y-50000D03*
X27559Y-51574D03*
X27559Y-53149D03*
X27559Y-54724D03*
X27559Y-56299D03*
X27559Y-57874D03*
X27559Y-59448D03*
X27559Y-61023D03*
X27559Y-62598D03*
X25984Y-62598D03*
X31555Y-62992D03*
X70078Y-48425D03*
X70078Y-51574D03*
X70078Y-53149D03*
X70078Y-54724D03*
X70078Y-56299D03*
X70078Y-57874D03*
X70078Y-59448D03*
X70078Y-61023D03*
X70078Y-62598D03*
X70078Y-64173D03*
X70078Y-65748D03*
X68503Y-65748D03*
X67716Y-66535D03*
X36417Y-49212D03*
X37834Y-48602D03*
X39881Y-58090D03*
X40236Y-58405D03*
X34074Y-60472D03*
X34074Y-59980D03*
X34842Y-59094D03*
X34055Y-57480D03*
X44488Y-52401D03*
X33110Y-51181D03*
X32421Y-64055D03*
X33287Y-62992D03*
X32421Y-61929D03*
X40236Y-56102D03*
X40236Y-54448D03*
X39409Y-55275D03*
X41062Y-55275D03*
X40236Y-55275D03*
X41062Y-56102D03*
X39409Y-56102D03*
X41062Y-54448D03*
X39409Y-54448D03*
X43740Y-54921D03*
X50826Y-47106D03*
X51456Y-48228D03*
X42125Y-47874D03*
X42125Y-46929D03*
X48188Y-42755D03*
X42795Y-43346D03*
X41850Y-43366D03*
X41850Y-42618D03*
X42795Y-42637D03*
X34921Y-40314D03*
X35708Y-40984D03*
X36496Y-40314D03*
X39645Y-40314D03*
X40433Y-40984D03*
X41220Y-40314D03*
X48976Y-48267D03*
X48582Y-48267D03*
X46811Y-47283D03*
X47519Y-47952D03*
X46220Y-42637D03*
X69291Y-47992D03*
X69291Y-47598D03*
X45885Y-43031D03*
X47677Y-44547D03*
X45787Y-43937D03*
X49468Y-43031D03*
X49566Y-43937D03*
X46397Y-47598D03*
X49704Y-47086D03*
X63110Y-46358D03*
X64055Y-46358D03*
X68464Y-46653D03*
X69133Y-45866D03*
X31811Y-58799D03*
X32362Y-59507D03*
X33228Y-58641D03*
X33228Y-49625D03*
X32362Y-48759D03*
X31811Y-49468D03*
X46771Y-56377D03*
X48503Y-56377D03*
X48503Y-61377D03*
X46771Y-61377D03*
X69488Y-55393D03*
X67755Y-55393D03*
X69488Y-54409D03*
X67755Y-54409D03*
X69488Y-52401D03*
X67755Y-52401D03*
X58110Y-66771D03*
X58110Y-65039D03*
X62125Y-66732D03*
X62125Y-65039D03*
X65118Y-66732D03*
X65118Y-65039D03*
X40610Y-51771D03*
X39389Y-52047D03*
X36929Y-54921D03*
X33149Y-56397D03*
X33149Y-56003D03*
X34015Y-55807D03*
X33149Y-55610D03*
X34015Y-55413D03*
X33149Y-55216D03*
X24901Y-45433D03*
X31692Y-45000D03*
G54D10*
G36*
X70673Y-67303D02*
X70564Y-67850D01*
X70265Y-68297D01*
X69818Y-68595D01*
X69766Y-68606D01*
X69766Y-60338D01*
X69724Y-60236D01*
X69645Y-60158D01*
X69543Y-60115D01*
X69433Y-60115D01*
X69330Y-60157D01*
X69252Y-60235D01*
X69210Y-60338D01*
X69210Y-60448D01*
X69252Y-60551D01*
X69330Y-60629D01*
X69432Y-60671D01*
X69543Y-60671D01*
X69645Y-60629D01*
X69723Y-60551D01*
X69766Y-60449D01*
X69766Y-60338D01*
X69766Y-68606D01*
X69272Y-68704D01*
X69153Y-68704D01*
X69153Y-45107D01*
X69084Y-44940D01*
X68957Y-44813D01*
X68791Y-44744D01*
X68611Y-44744D01*
X68444Y-44812D01*
X68317Y-44940D01*
X68248Y-45106D01*
X68247Y-45286D01*
X68316Y-45452D01*
X68443Y-45580D01*
X68610Y-45649D01*
X68790Y-45649D01*
X68956Y-45580D01*
X69084Y-45453D01*
X69153Y-45287D01*
X69153Y-45107D01*
X69153Y-68704D01*
X68034Y-68704D01*
X68034Y-60338D01*
X67991Y-60236D01*
X67913Y-60158D01*
X67811Y-60115D01*
X67700Y-60115D01*
X67598Y-60157D01*
X67520Y-60235D01*
X67477Y-60338D01*
X67477Y-60448D01*
X67519Y-60551D01*
X67598Y-60629D01*
X67700Y-60671D01*
X67810Y-60671D01*
X67913Y-60629D01*
X67991Y-60551D01*
X68033Y-60449D01*
X68034Y-60338D01*
X68034Y-68704D01*
X66397Y-68704D01*
X66397Y-45107D01*
X66328Y-44940D01*
X66201Y-44813D01*
X66035Y-44744D01*
X65855Y-44744D01*
X65688Y-44812D01*
X65561Y-44940D01*
X65492Y-45106D01*
X65492Y-45286D01*
X65560Y-45452D01*
X65688Y-45580D01*
X65854Y-45649D01*
X66034Y-45649D01*
X66201Y-45580D01*
X66328Y-45453D01*
X66397Y-45287D01*
X66397Y-45107D01*
X66397Y-68704D01*
X64548Y-68704D01*
X64548Y-50977D01*
X64468Y-50782D01*
X64318Y-50632D01*
X64123Y-50551D01*
X63912Y-50551D01*
X63716Y-50631D01*
X63567Y-50781D01*
X63485Y-50976D01*
X63485Y-51187D01*
X63566Y-51383D01*
X63715Y-51532D01*
X63911Y-51614D01*
X64122Y-51614D01*
X64317Y-51533D01*
X64467Y-51384D01*
X64548Y-51188D01*
X64548Y-50977D01*
X64548Y-68704D01*
X63152Y-68704D01*
X63152Y-58130D01*
X63152Y-49778D01*
X63014Y-49445D01*
X62760Y-49190D01*
X62427Y-49052D01*
X62067Y-49052D01*
X61734Y-49189D01*
X61479Y-49444D01*
X61341Y-49776D01*
X61341Y-50137D01*
X61478Y-50470D01*
X61733Y-50725D01*
X62065Y-50863D01*
X62426Y-50863D01*
X62759Y-50725D01*
X63014Y-50471D01*
X63152Y-50138D01*
X63152Y-49778D01*
X63152Y-58130D01*
X63014Y-57797D01*
X62760Y-57542D01*
X62427Y-57404D01*
X62067Y-57404D01*
X61734Y-57541D01*
X61479Y-57796D01*
X61341Y-58128D01*
X61341Y-58489D01*
X61478Y-58822D01*
X61733Y-59077D01*
X62065Y-59215D01*
X62426Y-59215D01*
X62759Y-59077D01*
X63014Y-58823D01*
X63152Y-58490D01*
X63152Y-58130D01*
X63152Y-68704D01*
X61380Y-68704D01*
X61380Y-64708D01*
X61380Y-62976D01*
X61338Y-62874D01*
X61260Y-62795D01*
X61180Y-62762D01*
X61180Y-51450D01*
X61099Y-51255D01*
X60950Y-51105D01*
X60755Y-51024D01*
X60543Y-51024D01*
X60348Y-51105D01*
X60198Y-51254D01*
X60117Y-51449D01*
X60117Y-51661D01*
X60197Y-51856D01*
X60347Y-52006D01*
X60542Y-52087D01*
X60754Y-52087D01*
X60949Y-52006D01*
X61099Y-51857D01*
X61180Y-51662D01*
X61180Y-51450D01*
X61180Y-62762D01*
X61157Y-62753D01*
X61047Y-62753D01*
X60945Y-62795D01*
X60866Y-62873D01*
X60824Y-62975D01*
X60824Y-63086D01*
X60866Y-63188D01*
X60944Y-63267D01*
X61046Y-63309D01*
X61157Y-63309D01*
X61259Y-63267D01*
X61337Y-63189D01*
X61380Y-63087D01*
X61380Y-62976D01*
X61380Y-64708D01*
X61338Y-64606D01*
X61260Y-64528D01*
X61157Y-64485D01*
X61047Y-64485D01*
X60945Y-64527D01*
X60866Y-64606D01*
X60824Y-64708D01*
X60824Y-64818D01*
X60866Y-64921D01*
X60944Y-64999D01*
X61046Y-65041D01*
X61157Y-65041D01*
X61259Y-64999D01*
X61337Y-64921D01*
X61380Y-64819D01*
X61380Y-64708D01*
X61380Y-68704D01*
X60396Y-68704D01*
X60396Y-62976D01*
X60354Y-62874D01*
X60275Y-62795D01*
X60173Y-62753D01*
X60063Y-62753D01*
X60022Y-62770D01*
X60022Y-60386D01*
X59941Y-60191D01*
X59792Y-60041D01*
X59756Y-60027D01*
X59756Y-52795D01*
X59690Y-52636D01*
X59569Y-52514D01*
X59410Y-52448D01*
X59237Y-52447D01*
X59078Y-52513D01*
X58956Y-52635D01*
X58890Y-52794D01*
X58890Y-52966D01*
X58956Y-53126D01*
X59077Y-53248D01*
X59237Y-53314D01*
X59409Y-53314D01*
X59568Y-53248D01*
X59690Y-53126D01*
X59756Y-52967D01*
X59756Y-52795D01*
X59756Y-60027D01*
X59596Y-59960D01*
X59385Y-59960D01*
X59189Y-60041D01*
X59040Y-60190D01*
X59039Y-60192D01*
X59039Y-54465D01*
X58958Y-54270D01*
X58809Y-54120D01*
X58614Y-54039D01*
X58402Y-54039D01*
X58207Y-54120D01*
X58057Y-54269D01*
X57976Y-54464D01*
X57976Y-54676D01*
X58057Y-54871D01*
X58206Y-55021D01*
X58401Y-55102D01*
X58613Y-55102D01*
X58808Y-55021D01*
X58958Y-54872D01*
X59039Y-54677D01*
X59039Y-54465D01*
X59039Y-60192D01*
X58959Y-60385D01*
X58958Y-60597D01*
X59039Y-60792D01*
X59189Y-60942D01*
X59384Y-61023D01*
X59595Y-61023D01*
X59791Y-60942D01*
X59940Y-60793D01*
X60021Y-60598D01*
X60022Y-60386D01*
X60022Y-62770D01*
X59960Y-62795D01*
X59882Y-62873D01*
X59840Y-62975D01*
X59839Y-63086D01*
X59882Y-63188D01*
X59960Y-63267D01*
X60062Y-63309D01*
X60173Y-63309D01*
X60275Y-63267D01*
X60353Y-63189D01*
X60396Y-63087D01*
X60396Y-62976D01*
X60396Y-68704D01*
X59412Y-68704D01*
X59412Y-64984D01*
X59412Y-62976D01*
X59369Y-62874D01*
X59291Y-62795D01*
X59189Y-62753D01*
X59078Y-62753D01*
X58976Y-62795D01*
X58898Y-62873D01*
X58855Y-62975D01*
X58855Y-63086D01*
X58897Y-63188D01*
X58976Y-63267D01*
X59078Y-63309D01*
X59188Y-63309D01*
X59291Y-63267D01*
X59369Y-63189D01*
X59411Y-63087D01*
X59412Y-62976D01*
X59412Y-64984D01*
X59369Y-64882D01*
X59291Y-64803D01*
X59189Y-64761D01*
X59078Y-64761D01*
X58976Y-64803D01*
X58898Y-64881D01*
X58855Y-64983D01*
X58855Y-65094D01*
X58897Y-65196D01*
X58976Y-65275D01*
X59078Y-65317D01*
X59188Y-65317D01*
X59291Y-65275D01*
X59369Y-65197D01*
X59411Y-65094D01*
X59412Y-64984D01*
X59412Y-68704D01*
X58388Y-68704D01*
X58388Y-62976D01*
X58346Y-62874D01*
X58267Y-62795D01*
X58165Y-62753D01*
X58055Y-62753D01*
X57952Y-62795D01*
X57874Y-62873D01*
X57832Y-62975D01*
X57832Y-63086D01*
X57874Y-63188D01*
X57952Y-63267D01*
X58054Y-63309D01*
X58165Y-63309D01*
X58267Y-63267D01*
X58345Y-63189D01*
X58388Y-63087D01*
X58388Y-62976D01*
X58388Y-68704D01*
X57251Y-68704D01*
X57251Y-55300D01*
X57185Y-55141D01*
X57182Y-55138D01*
X57182Y-47670D01*
X57102Y-47474D01*
X56952Y-47325D01*
X56757Y-47244D01*
X56545Y-47244D01*
X56350Y-47324D01*
X56200Y-47474D01*
X56119Y-47669D01*
X56119Y-47880D01*
X56200Y-48076D01*
X56349Y-48225D01*
X56544Y-48306D01*
X56756Y-48307D01*
X56951Y-48226D01*
X57101Y-48077D01*
X57182Y-47881D01*
X57182Y-47670D01*
X57182Y-55138D01*
X57063Y-55019D01*
X56904Y-54953D01*
X56732Y-54953D01*
X56573Y-55019D01*
X56451Y-55140D01*
X56385Y-55300D01*
X56384Y-55472D01*
X56450Y-55631D01*
X56572Y-55753D01*
X56731Y-55819D01*
X56903Y-55819D01*
X57063Y-55753D01*
X57185Y-55632D01*
X57251Y-55473D01*
X57251Y-55300D01*
X57251Y-68704D01*
X56024Y-68704D01*
X56024Y-51450D01*
X55943Y-51255D01*
X55794Y-51105D01*
X55599Y-51024D01*
X55387Y-51024D01*
X55192Y-51105D01*
X55042Y-51254D01*
X54961Y-51449D01*
X54961Y-51661D01*
X55042Y-51856D01*
X55191Y-52006D01*
X55386Y-52087D01*
X55598Y-52087D01*
X55793Y-52006D01*
X55943Y-51857D01*
X56024Y-51662D01*
X56024Y-51450D01*
X56024Y-68704D01*
X55396Y-68704D01*
X55396Y-64984D01*
X55354Y-64882D01*
X55275Y-64803D01*
X55173Y-64761D01*
X55063Y-64761D01*
X54960Y-64803D01*
X54882Y-64881D01*
X54840Y-64983D01*
X54839Y-65094D01*
X54882Y-65196D01*
X54960Y-65275D01*
X55062Y-65317D01*
X55173Y-65317D01*
X55275Y-65275D01*
X55353Y-65197D01*
X55396Y-65094D01*
X55396Y-64984D01*
X55396Y-68704D01*
X54800Y-68704D01*
X54800Y-58130D01*
X54800Y-49778D01*
X54662Y-49445D01*
X54408Y-49190D01*
X54075Y-49052D01*
X54043Y-49052D01*
X54043Y-42756D01*
X53983Y-42611D01*
X53872Y-42501D01*
X53728Y-42441D01*
X53571Y-42440D01*
X53426Y-42500D01*
X53316Y-42611D01*
X53255Y-42755D01*
X53255Y-42912D01*
X53315Y-43057D01*
X53426Y-43168D01*
X53570Y-43228D01*
X53727Y-43228D01*
X53872Y-43168D01*
X53983Y-43057D01*
X54043Y-42913D01*
X54043Y-42756D01*
X54043Y-49052D01*
X53715Y-49052D01*
X53382Y-49189D01*
X53127Y-49444D01*
X52989Y-49776D01*
X52989Y-50137D01*
X53126Y-50470D01*
X53381Y-50725D01*
X53713Y-50863D01*
X54074Y-50863D01*
X54407Y-50725D01*
X54662Y-50471D01*
X54800Y-50138D01*
X54800Y-49778D01*
X54800Y-58130D01*
X54662Y-57797D01*
X54408Y-57542D01*
X54075Y-57404D01*
X53900Y-57404D01*
X53900Y-53055D01*
X53857Y-52952D01*
X53779Y-52874D01*
X53677Y-52832D01*
X53566Y-52832D01*
X53464Y-52874D01*
X53386Y-52952D01*
X53343Y-53054D01*
X53343Y-53165D01*
X53386Y-53267D01*
X53464Y-53345D01*
X53566Y-53388D01*
X53677Y-53388D01*
X53779Y-53346D01*
X53857Y-53267D01*
X53900Y-53165D01*
X53900Y-53055D01*
X53900Y-57404D01*
X53715Y-57404D01*
X53382Y-57541D01*
X53191Y-57732D01*
X53191Y-52740D01*
X53149Y-52637D01*
X53071Y-52559D01*
X52968Y-52517D01*
X52858Y-52517D01*
X52756Y-52559D01*
X52677Y-52637D01*
X52635Y-52739D01*
X52635Y-52850D01*
X52677Y-52952D01*
X52755Y-53030D01*
X52857Y-53073D01*
X52968Y-53073D01*
X53070Y-53031D01*
X53149Y-52953D01*
X53191Y-52850D01*
X53191Y-52740D01*
X53191Y-57732D01*
X53127Y-57796D01*
X52989Y-58128D01*
X52989Y-58489D01*
X53126Y-58822D01*
X53381Y-59077D01*
X53713Y-59215D01*
X54074Y-59215D01*
X54407Y-59077D01*
X54662Y-58823D01*
X54800Y-58490D01*
X54800Y-58130D01*
X54800Y-68704D01*
X54412Y-68704D01*
X54412Y-64984D01*
X54369Y-64882D01*
X54291Y-64803D01*
X54189Y-64761D01*
X54078Y-64761D01*
X53976Y-64803D01*
X53898Y-64881D01*
X53855Y-64983D01*
X53855Y-65094D01*
X53897Y-65196D01*
X53976Y-65275D01*
X54078Y-65317D01*
X54188Y-65317D01*
X54291Y-65275D01*
X54369Y-65197D01*
X54411Y-65094D01*
X54412Y-64984D01*
X54412Y-68704D01*
X52655Y-68704D01*
X52655Y-57079D01*
X52575Y-56884D01*
X52425Y-56734D01*
X52364Y-56709D01*
X52364Y-48606D01*
X52322Y-48504D01*
X52244Y-48425D01*
X52142Y-48383D01*
X52031Y-48383D01*
X51929Y-48425D01*
X51850Y-48503D01*
X51808Y-48605D01*
X51808Y-48716D01*
X51850Y-48818D01*
X51928Y-48897D01*
X52031Y-48939D01*
X52141Y-48939D01*
X52243Y-48897D01*
X52322Y-48819D01*
X52364Y-48716D01*
X52364Y-48606D01*
X52364Y-56709D01*
X52230Y-56653D01*
X52019Y-56653D01*
X51823Y-56734D01*
X51674Y-56883D01*
X51593Y-57078D01*
X51592Y-57290D01*
X51673Y-57485D01*
X51822Y-57635D01*
X52018Y-57716D01*
X52229Y-57716D01*
X52425Y-57635D01*
X52574Y-57486D01*
X52655Y-57291D01*
X52655Y-57079D01*
X52655Y-68704D01*
X51577Y-68704D01*
X51577Y-60338D01*
X51535Y-60236D01*
X51456Y-60158D01*
X51354Y-60115D01*
X51244Y-60115D01*
X51141Y-60157D01*
X51063Y-60235D01*
X51021Y-60338D01*
X51021Y-60448D01*
X51063Y-60551D01*
X51141Y-60629D01*
X51243Y-60671D01*
X51354Y-60671D01*
X51456Y-60629D01*
X51534Y-60551D01*
X51577Y-60449D01*
X51577Y-60338D01*
X51577Y-68704D01*
X50750Y-68704D01*
X50750Y-61322D01*
X50750Y-59354D01*
X50750Y-52346D01*
X50730Y-52298D01*
X50730Y-47996D01*
X50688Y-47893D01*
X50610Y-47815D01*
X50508Y-47773D01*
X50475Y-47773D01*
X50475Y-47051D01*
X50432Y-46948D01*
X50354Y-46870D01*
X50252Y-46828D01*
X50141Y-46828D01*
X50039Y-46870D01*
X49961Y-46948D01*
X49918Y-47050D01*
X49918Y-47161D01*
X49960Y-47263D01*
X50039Y-47341D01*
X50141Y-47384D01*
X50251Y-47384D01*
X50354Y-47342D01*
X50432Y-47264D01*
X50474Y-47161D01*
X50475Y-47051D01*
X50475Y-47773D01*
X50397Y-47773D01*
X50295Y-47815D01*
X50217Y-47893D01*
X50196Y-47942D01*
X50176Y-47893D01*
X50098Y-47815D01*
X49996Y-47773D01*
X49885Y-47773D01*
X49845Y-47789D01*
X49845Y-46637D01*
X49802Y-46535D01*
X49724Y-46457D01*
X49622Y-46414D01*
X49511Y-46414D01*
X49409Y-46457D01*
X49372Y-46493D01*
X49372Y-44433D01*
X49333Y-44337D01*
X49333Y-42976D01*
X49291Y-42874D01*
X49212Y-42795D01*
X49110Y-42753D01*
X49000Y-42753D01*
X48897Y-42795D01*
X48819Y-42873D01*
X48777Y-42975D01*
X48776Y-43086D01*
X48819Y-43188D01*
X48897Y-43267D01*
X48999Y-43309D01*
X49110Y-43309D01*
X49212Y-43267D01*
X49290Y-43189D01*
X49333Y-43087D01*
X49333Y-42976D01*
X49333Y-44337D01*
X49330Y-44330D01*
X49252Y-44252D01*
X49150Y-44210D01*
X49039Y-44210D01*
X48937Y-44252D01*
X48860Y-44328D01*
X48860Y-43330D01*
X48818Y-43228D01*
X48740Y-43150D01*
X48638Y-43107D01*
X48527Y-43107D01*
X48425Y-43149D01*
X48347Y-43228D01*
X48326Y-43276D01*
X48306Y-43228D01*
X48228Y-43150D01*
X48126Y-43107D01*
X48015Y-43107D01*
X47913Y-43149D01*
X47835Y-43228D01*
X47792Y-43330D01*
X47792Y-43440D01*
X47834Y-43543D01*
X47913Y-43621D01*
X48015Y-43663D01*
X48125Y-43663D01*
X48228Y-43621D01*
X48306Y-43543D01*
X48326Y-43494D01*
X48346Y-43543D01*
X48424Y-43621D01*
X48527Y-43663D01*
X48637Y-43663D01*
X48740Y-43621D01*
X48818Y-43543D01*
X48860Y-43441D01*
X48860Y-43330D01*
X48860Y-44328D01*
X48858Y-44330D01*
X48816Y-44432D01*
X48816Y-44543D01*
X48858Y-44645D01*
X48936Y-44723D01*
X49038Y-44766D01*
X49149Y-44766D01*
X49251Y-44724D01*
X49330Y-44645D01*
X49372Y-44543D01*
X49372Y-44433D01*
X49372Y-46493D01*
X49331Y-46535D01*
X49288Y-46637D01*
X49288Y-46747D01*
X49331Y-46850D01*
X49409Y-46928D01*
X49511Y-46970D01*
X49622Y-46971D01*
X49724Y-46928D01*
X49802Y-46850D01*
X49844Y-46748D01*
X49845Y-46637D01*
X49845Y-47789D01*
X49783Y-47815D01*
X49705Y-47893D01*
X49662Y-47995D01*
X49662Y-48106D01*
X49705Y-48208D01*
X49783Y-48286D01*
X49885Y-48329D01*
X49996Y-48329D01*
X50098Y-48287D01*
X50176Y-48208D01*
X50196Y-48160D01*
X50216Y-48208D01*
X50295Y-48286D01*
X50397Y-48329D01*
X50507Y-48329D01*
X50610Y-48287D01*
X50688Y-48208D01*
X50730Y-48106D01*
X50730Y-47996D01*
X50730Y-52298D01*
X50708Y-52244D01*
X50630Y-52165D01*
X50528Y-52123D01*
X50417Y-52123D01*
X50356Y-52148D01*
X50356Y-48901D01*
X50314Y-48799D01*
X50236Y-48721D01*
X50134Y-48678D01*
X50100Y-48678D01*
X50100Y-48677D01*
X50100Y-48566D01*
X50058Y-48464D01*
X49980Y-48386D01*
X49878Y-48343D01*
X49767Y-48343D01*
X49665Y-48386D01*
X49648Y-48403D01*
X49648Y-47582D01*
X49605Y-47480D01*
X49527Y-47402D01*
X49425Y-47359D01*
X49315Y-47359D01*
X49212Y-47401D01*
X49200Y-47414D01*
X49215Y-47378D01*
X49215Y-47267D01*
X49172Y-47165D01*
X49094Y-47087D01*
X48992Y-47044D01*
X48881Y-47044D01*
X48779Y-47086D01*
X48701Y-47165D01*
X48700Y-47166D01*
X48700Y-47165D01*
X48622Y-47087D01*
X48585Y-47071D01*
X48585Y-44472D01*
X48542Y-44370D01*
X48464Y-44291D01*
X48362Y-44249D01*
X48252Y-44249D01*
X48149Y-44291D01*
X48071Y-44369D01*
X48029Y-44471D01*
X48028Y-44582D01*
X48071Y-44684D01*
X48149Y-44763D01*
X48251Y-44805D01*
X48362Y-44805D01*
X48464Y-44763D01*
X48542Y-44685D01*
X48585Y-44583D01*
X48585Y-44472D01*
X48585Y-47071D01*
X48520Y-47044D01*
X48409Y-47044D01*
X48307Y-47086D01*
X48228Y-47165D01*
X48186Y-47267D01*
X48186Y-47377D01*
X48228Y-47480D01*
X48306Y-47558D01*
X48409Y-47600D01*
X48519Y-47600D01*
X48621Y-47558D01*
X48700Y-47480D01*
X48700Y-47479D01*
X48701Y-47480D01*
X48779Y-47558D01*
X48881Y-47600D01*
X48992Y-47600D01*
X49094Y-47558D01*
X49107Y-47546D01*
X49092Y-47582D01*
X49091Y-47692D01*
X49134Y-47795D01*
X49212Y-47873D01*
X49314Y-47915D01*
X49425Y-47915D01*
X49527Y-47873D01*
X49605Y-47795D01*
X49648Y-47693D01*
X49648Y-47582D01*
X49648Y-48403D01*
X49587Y-48464D01*
X49544Y-48566D01*
X49544Y-48677D01*
X49586Y-48779D01*
X49665Y-48857D01*
X49767Y-48900D01*
X49801Y-48900D01*
X49800Y-48901D01*
X49800Y-49011D01*
X49842Y-49114D01*
X49920Y-49192D01*
X50023Y-49234D01*
X50133Y-49234D01*
X50236Y-49192D01*
X50314Y-49114D01*
X50356Y-49012D01*
X50356Y-48901D01*
X50356Y-52148D01*
X50315Y-52165D01*
X50236Y-52243D01*
X50194Y-52346D01*
X50194Y-52456D01*
X50236Y-52558D01*
X50314Y-52637D01*
X50416Y-52679D01*
X50527Y-52679D01*
X50629Y-52637D01*
X50708Y-52559D01*
X50750Y-52457D01*
X50750Y-52346D01*
X50750Y-59354D01*
X50708Y-59252D01*
X50630Y-59173D01*
X50528Y-59131D01*
X50417Y-59131D01*
X50315Y-59173D01*
X50236Y-59251D01*
X50194Y-59353D01*
X50194Y-59464D01*
X50236Y-59566D01*
X50314Y-59645D01*
X50416Y-59687D01*
X50527Y-59687D01*
X50629Y-59645D01*
X50708Y-59567D01*
X50750Y-59465D01*
X50750Y-59354D01*
X50750Y-61322D01*
X50708Y-61220D01*
X50630Y-61142D01*
X50528Y-61099D01*
X50417Y-61099D01*
X50315Y-61142D01*
X50236Y-61220D01*
X50194Y-61322D01*
X50194Y-61433D01*
X50236Y-61535D01*
X50314Y-61613D01*
X50416Y-61656D01*
X50527Y-61656D01*
X50629Y-61613D01*
X50708Y-61535D01*
X50750Y-61433D01*
X50750Y-61322D01*
X50750Y-68704D01*
X49038Y-68704D01*
X49038Y-60338D01*
X49038Y-58350D01*
X49038Y-57346D01*
X48995Y-57244D01*
X48917Y-57165D01*
X48815Y-57123D01*
X48704Y-57123D01*
X48602Y-57165D01*
X48524Y-57243D01*
X48481Y-57346D01*
X48481Y-57456D01*
X48523Y-57558D01*
X48602Y-57637D01*
X48704Y-57679D01*
X48814Y-57679D01*
X48917Y-57637D01*
X48995Y-57559D01*
X49037Y-57457D01*
X49038Y-57346D01*
X49038Y-58350D01*
X48995Y-58248D01*
X48917Y-58169D01*
X48815Y-58127D01*
X48704Y-58127D01*
X48602Y-58169D01*
X48524Y-58247D01*
X48481Y-58349D01*
X48481Y-58460D01*
X48523Y-58562D01*
X48602Y-58641D01*
X48704Y-58683D01*
X48814Y-58683D01*
X48917Y-58641D01*
X48995Y-58563D01*
X49037Y-58461D01*
X49038Y-58350D01*
X49038Y-60338D01*
X48995Y-60236D01*
X48917Y-60158D01*
X48815Y-60115D01*
X48704Y-60115D01*
X48602Y-60157D01*
X48524Y-60235D01*
X48481Y-60338D01*
X48481Y-60448D01*
X48523Y-60551D01*
X48602Y-60629D01*
X48704Y-60671D01*
X48814Y-60671D01*
X48917Y-60629D01*
X48995Y-60551D01*
X49037Y-60449D01*
X49038Y-60338D01*
X49038Y-68704D01*
X48230Y-68704D01*
X48230Y-47897D01*
X48188Y-47795D01*
X48110Y-47717D01*
X48073Y-47701D01*
X48073Y-46047D01*
X48031Y-45945D01*
X47953Y-45866D01*
X47850Y-45824D01*
X47740Y-45824D01*
X47637Y-45866D01*
X47559Y-45944D01*
X47517Y-46046D01*
X47517Y-46157D01*
X47559Y-46259D01*
X47637Y-46337D01*
X47739Y-46380D01*
X47850Y-46380D01*
X47952Y-46338D01*
X48030Y-46260D01*
X48073Y-46157D01*
X48073Y-46047D01*
X48073Y-47701D01*
X48008Y-47674D01*
X47897Y-47674D01*
X47795Y-47716D01*
X47717Y-47795D01*
X47674Y-47897D01*
X47674Y-48007D01*
X47716Y-48110D01*
X47795Y-48188D01*
X47897Y-48230D01*
X48007Y-48230D01*
X48110Y-48188D01*
X48188Y-48110D01*
X48230Y-48008D01*
X48230Y-47897D01*
X48230Y-68704D01*
X47915Y-68704D01*
X47915Y-56834D01*
X47873Y-56732D01*
X47795Y-56654D01*
X47693Y-56611D01*
X47582Y-56611D01*
X47561Y-56620D01*
X47561Y-47267D01*
X47519Y-47165D01*
X47441Y-47087D01*
X47339Y-47044D01*
X47228Y-47044D01*
X47126Y-47086D01*
X47047Y-47165D01*
X47005Y-47267D01*
X47005Y-47377D01*
X47047Y-47480D01*
X47125Y-47558D01*
X47227Y-47600D01*
X47338Y-47600D01*
X47440Y-47558D01*
X47519Y-47480D01*
X47561Y-47378D01*
X47561Y-47267D01*
X47561Y-56620D01*
X47480Y-56653D01*
X47402Y-56732D01*
X47359Y-56834D01*
X47359Y-56944D01*
X47401Y-57047D01*
X47480Y-57125D01*
X47582Y-57167D01*
X47692Y-57167D01*
X47795Y-57125D01*
X47873Y-57047D01*
X47915Y-56945D01*
X47915Y-56834D01*
X47915Y-68704D01*
X47049Y-68704D01*
X47049Y-60338D01*
X47049Y-59334D01*
X47007Y-59232D01*
X46929Y-59154D01*
X46827Y-59111D01*
X46813Y-59111D01*
X46813Y-55929D01*
X46771Y-55826D01*
X46693Y-55748D01*
X46590Y-55706D01*
X46480Y-55706D01*
X46378Y-55748D01*
X46299Y-55826D01*
X46257Y-55928D01*
X46257Y-56039D01*
X46299Y-56141D01*
X46377Y-56219D01*
X46479Y-56262D01*
X46590Y-56262D01*
X46692Y-56220D01*
X46771Y-56141D01*
X46813Y-56039D01*
X46813Y-55929D01*
X46813Y-59111D01*
X46716Y-59111D01*
X46614Y-59153D01*
X46536Y-59232D01*
X46493Y-59334D01*
X46493Y-59444D01*
X46535Y-59547D01*
X46613Y-59625D01*
X46716Y-59667D01*
X46826Y-59667D01*
X46928Y-59625D01*
X47007Y-59547D01*
X47049Y-59445D01*
X47049Y-59334D01*
X47049Y-60338D01*
X47007Y-60236D01*
X46929Y-60158D01*
X46827Y-60115D01*
X46716Y-60115D01*
X46614Y-60157D01*
X46536Y-60235D01*
X46493Y-60338D01*
X46493Y-60448D01*
X46535Y-60551D01*
X46613Y-60629D01*
X46716Y-60671D01*
X46826Y-60671D01*
X46928Y-60629D01*
X47007Y-60551D01*
X47049Y-60449D01*
X47049Y-60338D01*
X47049Y-68704D01*
X46065Y-68704D01*
X46065Y-47267D01*
X46065Y-46637D01*
X46023Y-46535D01*
X45945Y-46457D01*
X45842Y-46414D01*
X45732Y-46414D01*
X45630Y-46457D01*
X45551Y-46535D01*
X45509Y-46637D01*
X45509Y-46747D01*
X45551Y-46850D01*
X45629Y-46928D01*
X45731Y-46970D01*
X45842Y-46971D01*
X45944Y-46928D01*
X46023Y-46850D01*
X46065Y-46748D01*
X46065Y-46637D01*
X46065Y-47267D01*
X46023Y-47165D01*
X45945Y-47087D01*
X45842Y-47044D01*
X45732Y-47044D01*
X45630Y-47086D01*
X45551Y-47165D01*
X45509Y-47267D01*
X45509Y-47377D01*
X45551Y-47480D01*
X45629Y-47558D01*
X45731Y-47600D01*
X45842Y-47600D01*
X45944Y-47558D01*
X46023Y-47480D01*
X46065Y-47378D01*
X46065Y-47267D01*
X46065Y-68704D01*
X44451Y-68704D01*
X44451Y-52031D01*
X44409Y-51929D01*
X44330Y-51850D01*
X44228Y-51808D01*
X44118Y-51808D01*
X44015Y-51850D01*
X43937Y-51928D01*
X43895Y-52031D01*
X43895Y-52141D01*
X43937Y-52243D01*
X44015Y-52322D01*
X44117Y-52364D01*
X44228Y-52364D01*
X44330Y-52322D01*
X44408Y-52244D01*
X44451Y-52142D01*
X44451Y-52031D01*
X44451Y-68704D01*
X43624Y-68704D01*
X43624Y-55259D01*
X43582Y-55157D01*
X43504Y-55079D01*
X43402Y-55036D01*
X43291Y-55036D01*
X43191Y-55078D01*
X43191Y-54866D01*
X43149Y-54763D01*
X43071Y-54685D01*
X42968Y-54643D01*
X42876Y-54643D01*
X42876Y-53291D01*
X42834Y-53189D01*
X42756Y-53110D01*
X42653Y-53068D01*
X42543Y-53068D01*
X42441Y-53110D01*
X42362Y-53188D01*
X42320Y-53290D01*
X42320Y-53401D01*
X42362Y-53503D01*
X42440Y-53582D01*
X42542Y-53624D01*
X42653Y-53624D01*
X42755Y-53582D01*
X42834Y-53504D01*
X42876Y-53402D01*
X42876Y-53291D01*
X42876Y-54643D01*
X42858Y-54643D01*
X42756Y-54685D01*
X42677Y-54763D01*
X42635Y-54865D01*
X42635Y-54976D01*
X42677Y-55078D01*
X42755Y-55156D01*
X42857Y-55199D01*
X42968Y-55199D01*
X43070Y-55157D01*
X43149Y-55079D01*
X43191Y-54976D01*
X43191Y-54866D01*
X43191Y-55078D01*
X43189Y-55079D01*
X43110Y-55157D01*
X43068Y-55259D01*
X43068Y-55370D01*
X43110Y-55472D01*
X43188Y-55550D01*
X43290Y-55593D01*
X43401Y-55593D01*
X43503Y-55550D01*
X43582Y-55472D01*
X43624Y-55370D01*
X43624Y-55259D01*
X43624Y-68704D01*
X42167Y-68704D01*
X42167Y-59944D01*
X42125Y-59842D01*
X42066Y-59783D01*
X42125Y-59724D01*
X42167Y-59622D01*
X42167Y-59511D01*
X42125Y-59409D01*
X42066Y-59350D01*
X42125Y-59291D01*
X42167Y-59189D01*
X42167Y-59078D01*
X42125Y-58976D01*
X42066Y-58917D01*
X42125Y-58858D01*
X42167Y-58756D01*
X42167Y-58645D01*
X42125Y-58543D01*
X42047Y-58465D01*
X41945Y-58422D01*
X41834Y-58422D01*
X41732Y-58464D01*
X41654Y-58543D01*
X41611Y-58645D01*
X41611Y-58755D01*
X41653Y-58858D01*
X41712Y-58917D01*
X41654Y-58976D01*
X41611Y-59078D01*
X41611Y-59188D01*
X41653Y-59291D01*
X41712Y-59350D01*
X41654Y-59409D01*
X41611Y-59511D01*
X41611Y-59622D01*
X41653Y-59724D01*
X41712Y-59783D01*
X41654Y-59842D01*
X41611Y-59944D01*
X41611Y-60055D01*
X41653Y-60157D01*
X41732Y-60235D01*
X41834Y-60278D01*
X41944Y-60278D01*
X42047Y-60235D01*
X42125Y-60157D01*
X42167Y-60055D01*
X42167Y-59944D01*
X42167Y-68704D01*
X41262Y-68704D01*
X41262Y-51913D01*
X41220Y-51811D01*
X41141Y-51732D01*
X41039Y-51690D01*
X40929Y-51690D01*
X40826Y-51732D01*
X40748Y-51810D01*
X40706Y-51912D01*
X40706Y-52023D01*
X40748Y-52125D01*
X40826Y-52204D01*
X40928Y-52246D01*
X41039Y-52246D01*
X41141Y-52204D01*
X41219Y-52126D01*
X41262Y-52024D01*
X41262Y-51913D01*
X41262Y-68704D01*
X40789Y-68704D01*
X40789Y-57818D01*
X40747Y-57716D01*
X40669Y-57638D01*
X40593Y-57606D01*
X40593Y-52307D01*
X40550Y-52204D01*
X40472Y-52126D01*
X40370Y-52084D01*
X40278Y-52084D01*
X40278Y-51559D01*
X40235Y-51456D01*
X40157Y-51378D01*
X40055Y-51336D01*
X39944Y-51336D01*
X39842Y-51378D01*
X39764Y-51456D01*
X39764Y-51457D01*
X39724Y-51417D01*
X39622Y-51375D01*
X39511Y-51375D01*
X39429Y-51409D01*
X39429Y-43414D01*
X39429Y-40658D01*
X39360Y-40491D01*
X39233Y-40364D01*
X39066Y-40295D01*
X38886Y-40295D01*
X38720Y-40363D01*
X38592Y-40491D01*
X38523Y-40657D01*
X38523Y-40837D01*
X38592Y-41004D01*
X38719Y-41131D01*
X38885Y-41200D01*
X39066Y-41200D01*
X39232Y-41132D01*
X39359Y-41004D01*
X39429Y-40838D01*
X39429Y-40658D01*
X39429Y-43414D01*
X39360Y-43247D01*
X39233Y-43120D01*
X39066Y-43051D01*
X38886Y-43051D01*
X38720Y-43119D01*
X38592Y-43247D01*
X38523Y-43413D01*
X38523Y-43593D01*
X38592Y-43760D01*
X38719Y-43887D01*
X38885Y-43956D01*
X39066Y-43956D01*
X39232Y-43887D01*
X39359Y-43760D01*
X39429Y-43594D01*
X39429Y-43414D01*
X39429Y-51409D01*
X39409Y-51417D01*
X39331Y-51495D01*
X39288Y-51597D01*
X39288Y-51708D01*
X39331Y-51810D01*
X39409Y-51889D01*
X39511Y-51931D01*
X39622Y-51931D01*
X39724Y-51889D01*
X39802Y-51811D01*
X39802Y-51810D01*
X39842Y-51849D01*
X39944Y-51892D01*
X40055Y-51892D01*
X40157Y-51850D01*
X40235Y-51771D01*
X40278Y-51669D01*
X40278Y-51559D01*
X40278Y-52084D01*
X40259Y-52084D01*
X40157Y-52126D01*
X40079Y-52204D01*
X40036Y-52306D01*
X40036Y-52417D01*
X40079Y-52519D01*
X40157Y-52597D01*
X40259Y-52640D01*
X40370Y-52640D01*
X40472Y-52598D01*
X40550Y-52519D01*
X40593Y-52417D01*
X40593Y-52307D01*
X40593Y-57606D01*
X40567Y-57595D01*
X40456Y-57595D01*
X40401Y-57618D01*
X40435Y-57535D01*
X40435Y-57425D01*
X40393Y-57322D01*
X40315Y-57244D01*
X40213Y-57202D01*
X40102Y-57202D01*
X40000Y-57244D01*
X39963Y-57281D01*
X39963Y-52582D01*
X39920Y-52480D01*
X39842Y-52402D01*
X39740Y-52359D01*
X39629Y-52359D01*
X39527Y-52401D01*
X39449Y-52480D01*
X39406Y-52582D01*
X39406Y-52692D01*
X39449Y-52795D01*
X39527Y-52873D01*
X39629Y-52915D01*
X39740Y-52915D01*
X39842Y-52873D01*
X39920Y-52795D01*
X39963Y-52693D01*
X39963Y-52582D01*
X39963Y-57281D01*
X39921Y-57322D01*
X39879Y-57424D01*
X39879Y-57535D01*
X39921Y-57637D01*
X39999Y-57715D01*
X40101Y-57758D01*
X40212Y-57758D01*
X40268Y-57735D01*
X40233Y-57818D01*
X40233Y-57929D01*
X40275Y-58031D01*
X40354Y-58109D01*
X40456Y-58152D01*
X40566Y-58152D01*
X40669Y-58109D01*
X40747Y-58031D01*
X40789Y-57929D01*
X40789Y-57818D01*
X40789Y-68704D01*
X39057Y-68704D01*
X39057Y-49315D01*
X39015Y-49212D01*
X38937Y-49134D01*
X38835Y-49092D01*
X38724Y-49091D01*
X38622Y-49134D01*
X38543Y-49212D01*
X38501Y-49314D01*
X38501Y-49425D01*
X38543Y-49527D01*
X38621Y-49605D01*
X38723Y-49648D01*
X38834Y-49648D01*
X38936Y-49605D01*
X39015Y-49527D01*
X39057Y-49425D01*
X39057Y-49315D01*
X39057Y-68704D01*
X39018Y-68704D01*
X39018Y-58291D01*
X38976Y-58189D01*
X38897Y-58110D01*
X38795Y-58068D01*
X38685Y-58068D01*
X38582Y-58110D01*
X38504Y-58188D01*
X38462Y-58290D01*
X38461Y-58401D01*
X38504Y-58503D01*
X38582Y-58582D01*
X38684Y-58624D01*
X38795Y-58624D01*
X38897Y-58582D01*
X38975Y-58504D01*
X39018Y-58402D01*
X39018Y-58291D01*
X39018Y-68704D01*
X37955Y-68704D01*
X37955Y-49157D01*
X37913Y-49055D01*
X37834Y-48976D01*
X37732Y-48934D01*
X37622Y-48934D01*
X37519Y-48976D01*
X37441Y-49054D01*
X37399Y-49157D01*
X37399Y-49267D01*
X37441Y-49369D01*
X37519Y-49448D01*
X37621Y-49490D01*
X37732Y-49490D01*
X37834Y-49448D01*
X37912Y-49370D01*
X37955Y-49268D01*
X37955Y-49157D01*
X37955Y-68704D01*
X37797Y-68704D01*
X37797Y-55141D01*
X37755Y-55039D01*
X37677Y-54961D01*
X37575Y-54918D01*
X37464Y-54918D01*
X37364Y-54959D01*
X37364Y-48173D01*
X37322Y-48071D01*
X37244Y-47992D01*
X37142Y-47950D01*
X37031Y-47950D01*
X36929Y-47992D01*
X36850Y-48070D01*
X36808Y-48172D01*
X36808Y-48283D01*
X36850Y-48385D01*
X36928Y-48463D01*
X37031Y-48506D01*
X37141Y-48506D01*
X37243Y-48464D01*
X37322Y-48386D01*
X37364Y-48283D01*
X37364Y-48173D01*
X37364Y-54959D01*
X37362Y-54960D01*
X37284Y-55039D01*
X37241Y-55141D01*
X37241Y-55251D01*
X37283Y-55354D01*
X37361Y-55432D01*
X37464Y-55474D01*
X37574Y-55475D01*
X37677Y-55432D01*
X37755Y-55354D01*
X37797Y-55252D01*
X37797Y-55141D01*
X37797Y-68704D01*
X37404Y-68704D01*
X37404Y-58291D01*
X37361Y-58189D01*
X37283Y-58110D01*
X37181Y-58068D01*
X37070Y-58068D01*
X36968Y-58110D01*
X36890Y-58188D01*
X36847Y-58290D01*
X36847Y-58401D01*
X36890Y-58503D01*
X36968Y-58582D01*
X37070Y-58624D01*
X37181Y-58624D01*
X37283Y-58582D01*
X37361Y-58504D01*
X37404Y-58402D01*
X37404Y-58291D01*
X37404Y-68704D01*
X34845Y-68704D01*
X34845Y-58566D01*
X34802Y-58464D01*
X34724Y-58386D01*
X34704Y-58378D01*
X34704Y-43414D01*
X34704Y-40658D01*
X34636Y-40491D01*
X34508Y-40364D01*
X34342Y-40295D01*
X34162Y-40295D01*
X33995Y-40363D01*
X33868Y-40491D01*
X33799Y-40657D01*
X33799Y-40837D01*
X33867Y-41004D01*
X33995Y-41131D01*
X34161Y-41200D01*
X34341Y-41200D01*
X34508Y-41132D01*
X34635Y-41004D01*
X34704Y-40838D01*
X34704Y-40658D01*
X34704Y-43414D01*
X34636Y-43247D01*
X34508Y-43120D01*
X34342Y-43051D01*
X34162Y-43051D01*
X33995Y-43119D01*
X33868Y-43247D01*
X33799Y-43413D01*
X33799Y-43593D01*
X33867Y-43760D01*
X33995Y-43887D01*
X34161Y-43956D01*
X34341Y-43956D01*
X34508Y-43887D01*
X34635Y-43760D01*
X34704Y-43594D01*
X34704Y-43414D01*
X34704Y-58378D01*
X34622Y-58343D01*
X34511Y-58343D01*
X34409Y-58386D01*
X34333Y-58462D01*
X34333Y-51126D01*
X34291Y-51023D01*
X34212Y-50945D01*
X34110Y-50903D01*
X34000Y-50902D01*
X33897Y-50945D01*
X33819Y-51023D01*
X33777Y-51125D01*
X33776Y-51236D01*
X33819Y-51338D01*
X33897Y-51416D01*
X33999Y-51459D01*
X34110Y-51459D01*
X34212Y-51417D01*
X34290Y-51338D01*
X34333Y-51236D01*
X34333Y-51126D01*
X34333Y-58462D01*
X34331Y-58464D01*
X34288Y-58566D01*
X34288Y-58658D01*
X34196Y-58658D01*
X34094Y-58701D01*
X34016Y-58779D01*
X33973Y-58881D01*
X33973Y-58992D01*
X34016Y-59094D01*
X34094Y-59172D01*
X34196Y-59215D01*
X34307Y-59215D01*
X34409Y-59172D01*
X34487Y-59094D01*
X34530Y-58992D01*
X34530Y-58900D01*
X34622Y-58900D01*
X34724Y-58857D01*
X34802Y-58779D01*
X34844Y-58677D01*
X34845Y-58566D01*
X34845Y-68704D01*
X33427Y-68704D01*
X33427Y-57326D01*
X33385Y-57224D01*
X33307Y-57146D01*
X33205Y-57103D01*
X33094Y-57103D01*
X32992Y-57145D01*
X32913Y-57224D01*
X32871Y-57326D01*
X32871Y-57436D01*
X32913Y-57539D01*
X32991Y-57617D01*
X33094Y-57659D01*
X33204Y-57660D01*
X33306Y-57617D01*
X33385Y-57539D01*
X33427Y-57437D01*
X33427Y-57326D01*
X33427Y-68704D01*
X32797Y-68704D01*
X32797Y-44826D01*
X32755Y-44724D01*
X32677Y-44646D01*
X32575Y-44603D01*
X32464Y-44603D01*
X32362Y-44645D01*
X32284Y-44724D01*
X32241Y-44826D01*
X32241Y-44936D01*
X32283Y-45039D01*
X32361Y-45117D01*
X32464Y-45159D01*
X32574Y-45160D01*
X32677Y-45117D01*
X32755Y-45039D01*
X32797Y-44937D01*
X32797Y-44826D01*
X32797Y-68704D01*
X32207Y-68704D01*
X32207Y-43114D01*
X32165Y-43011D01*
X32086Y-42933D01*
X31994Y-42895D01*
X32047Y-42873D01*
X32125Y-42795D01*
X32167Y-42693D01*
X32167Y-42582D01*
X32125Y-42480D01*
X32047Y-42402D01*
X31945Y-42359D01*
X31834Y-42359D01*
X31732Y-42401D01*
X31654Y-42480D01*
X31611Y-42582D01*
X31611Y-42692D01*
X31653Y-42795D01*
X31732Y-42873D01*
X31824Y-42911D01*
X31771Y-42933D01*
X31693Y-43011D01*
X31651Y-43113D01*
X31650Y-43224D01*
X31693Y-43326D01*
X31771Y-43404D01*
X31873Y-43447D01*
X31984Y-43447D01*
X32086Y-43405D01*
X32164Y-43327D01*
X32207Y-43224D01*
X32207Y-43114D01*
X32207Y-68704D01*
X31971Y-68704D01*
X31971Y-44944D01*
X31928Y-44842D01*
X31850Y-44764D01*
X31748Y-44721D01*
X31637Y-44721D01*
X31535Y-44764D01*
X31457Y-44842D01*
X31414Y-44944D01*
X31414Y-45055D01*
X31457Y-45157D01*
X31535Y-45235D01*
X31637Y-45278D01*
X31747Y-45278D01*
X31850Y-45235D01*
X31928Y-45157D01*
X31970Y-45055D01*
X31971Y-44944D01*
X31971Y-68704D01*
X31181Y-68704D01*
X31181Y-67244D01*
X30829Y-67244D01*
X30829Y-46755D01*
X30787Y-46653D01*
X30708Y-46575D01*
X30606Y-46532D01*
X30514Y-46532D01*
X30514Y-46459D01*
X30606Y-46459D01*
X30708Y-46417D01*
X30786Y-46338D01*
X30829Y-46236D01*
X30829Y-46126D01*
X30829Y-44944D01*
X30787Y-44842D01*
X30708Y-44764D01*
X30606Y-44721D01*
X30496Y-44721D01*
X30487Y-44725D01*
X30514Y-44661D01*
X30514Y-44551D01*
X30472Y-44448D01*
X30393Y-44370D01*
X30291Y-44328D01*
X30181Y-44328D01*
X30078Y-44370D01*
X30000Y-44448D01*
X29958Y-44550D01*
X29958Y-44661D01*
X30000Y-44763D01*
X30078Y-44841D01*
X30180Y-44884D01*
X30291Y-44884D01*
X30299Y-44881D01*
X30273Y-44944D01*
X30273Y-45055D01*
X30315Y-45157D01*
X30393Y-45235D01*
X30495Y-45278D01*
X30606Y-45278D01*
X30708Y-45235D01*
X30786Y-45157D01*
X30829Y-45055D01*
X30829Y-44944D01*
X30829Y-46126D01*
X30787Y-46023D01*
X30708Y-45945D01*
X30606Y-45903D01*
X30496Y-45902D01*
X30487Y-45906D01*
X30514Y-45842D01*
X30514Y-45732D01*
X30472Y-45630D01*
X30393Y-45551D01*
X30291Y-45509D01*
X30181Y-45509D01*
X30078Y-45551D01*
X30000Y-45629D01*
X29958Y-45731D01*
X29958Y-45842D01*
X30000Y-45944D01*
X30078Y-46023D01*
X30180Y-46065D01*
X30291Y-46065D01*
X30299Y-46062D01*
X30273Y-46125D01*
X30273Y-46217D01*
X30181Y-46217D01*
X30078Y-46260D01*
X30000Y-46338D01*
X29958Y-46440D01*
X29958Y-46551D01*
X30000Y-46653D01*
X30078Y-46731D01*
X30180Y-46774D01*
X30273Y-46774D01*
X30273Y-46866D01*
X30315Y-46968D01*
X30393Y-47046D01*
X30495Y-47089D01*
X30606Y-47089D01*
X30708Y-47046D01*
X30786Y-46968D01*
X30829Y-46866D01*
X30829Y-46755D01*
X30829Y-67244D01*
X27086Y-67244D01*
X27086Y-68704D01*
X25215Y-68704D01*
X24669Y-68595D01*
X24222Y-68297D01*
X23923Y-67850D01*
X23815Y-67303D01*
X23815Y-62617D01*
X23863Y-62372D01*
X23991Y-62180D01*
X24183Y-62052D01*
X24428Y-62004D01*
X26377Y-62004D01*
X26396Y-62000D01*
X26415Y-62000D01*
X26566Y-61970D01*
X26566Y-61970D01*
X26635Y-61941D01*
X26635Y-61941D01*
X26763Y-61856D01*
X26763Y-61856D01*
X26763Y-61856D01*
X26816Y-61802D01*
X26816Y-61802D01*
X26902Y-61675D01*
X26931Y-61605D01*
X26931Y-61605D01*
X26961Y-61454D01*
X26961Y-61435D01*
X26964Y-61417D01*
X26964Y-49015D01*
X26961Y-48997D01*
X26961Y-48978D01*
X26931Y-48827D01*
X26931Y-48827D01*
X26902Y-48757D01*
X26816Y-48630D01*
X26816Y-48630D01*
X26763Y-48576D01*
X26763Y-48576D01*
X26635Y-48491D01*
X26566Y-48462D01*
X26566Y-48462D01*
X26415Y-48432D01*
X26396Y-48432D01*
X26377Y-48428D01*
X25986Y-48428D01*
X25986Y-46952D01*
X25944Y-46850D01*
X25866Y-46772D01*
X25798Y-46744D01*
X25829Y-46669D01*
X25829Y-46559D01*
X25829Y-45752D01*
X25829Y-44984D01*
X25787Y-44882D01*
X25737Y-44832D01*
X25786Y-44783D01*
X25829Y-44681D01*
X25829Y-44570D01*
X25787Y-44468D01*
X25737Y-44419D01*
X25786Y-44370D01*
X25829Y-44268D01*
X25829Y-44157D01*
X25787Y-44055D01*
X25708Y-43976D01*
X25606Y-43934D01*
X25496Y-43934D01*
X25393Y-43976D01*
X25315Y-44054D01*
X25273Y-44157D01*
X25273Y-44267D01*
X25315Y-44369D01*
X25364Y-44419D01*
X25315Y-44468D01*
X25273Y-44570D01*
X25273Y-44681D01*
X25315Y-44783D01*
X25364Y-44832D01*
X25315Y-44881D01*
X25273Y-44983D01*
X25273Y-45094D01*
X25315Y-45196D01*
X25393Y-45275D01*
X25495Y-45317D01*
X25606Y-45317D01*
X25708Y-45275D01*
X25786Y-45197D01*
X25829Y-45094D01*
X25829Y-44984D01*
X25829Y-45752D01*
X25787Y-45649D01*
X25708Y-45571D01*
X25606Y-45529D01*
X25496Y-45528D01*
X25393Y-45571D01*
X25315Y-45649D01*
X25273Y-45751D01*
X25273Y-45862D01*
X25315Y-45964D01*
X25393Y-46042D01*
X25495Y-46085D01*
X25606Y-46085D01*
X25708Y-46042D01*
X25786Y-45964D01*
X25829Y-45862D01*
X25829Y-45752D01*
X25829Y-46559D01*
X25787Y-46456D01*
X25708Y-46378D01*
X25606Y-46336D01*
X25496Y-46336D01*
X25393Y-46378D01*
X25315Y-46456D01*
X25273Y-46558D01*
X25273Y-46669D01*
X25315Y-46771D01*
X25393Y-46849D01*
X25461Y-46878D01*
X25430Y-46952D01*
X25430Y-47062D01*
X25472Y-47165D01*
X25550Y-47243D01*
X25653Y-47285D01*
X25763Y-47286D01*
X25865Y-47243D01*
X25944Y-47165D01*
X25986Y-47063D01*
X25986Y-46952D01*
X25986Y-48428D01*
X25179Y-48428D01*
X25179Y-45377D01*
X25137Y-45275D01*
X25059Y-45197D01*
X24957Y-45155D01*
X24846Y-45154D01*
X24744Y-45197D01*
X24665Y-45275D01*
X24623Y-45377D01*
X24623Y-45488D01*
X24665Y-45590D01*
X24743Y-45668D01*
X24846Y-45711D01*
X24956Y-45711D01*
X25058Y-45668D01*
X25137Y-45590D01*
X25179Y-45488D01*
X25179Y-45377D01*
X25179Y-48428D01*
X24428Y-48428D01*
X24183Y-48380D01*
X23991Y-48252D01*
X23863Y-48060D01*
X23815Y-47815D01*
X23815Y-40963D01*
X23923Y-40417D01*
X24222Y-39970D01*
X24669Y-39671D01*
X25215Y-39563D01*
X69272Y-39563D01*
X69818Y-39671D01*
X70265Y-39970D01*
X70564Y-40417D01*
X70673Y-40963D01*
X70673Y-67303D01*
X70673Y-67303D01*
G37*
G54D17*
X70673Y-67303D02*
X70564Y-67850D01*
X70265Y-68297D01*
X69818Y-68595D01*
X69766Y-68606D01*
X69766Y-60338D01*
X69724Y-60236D01*
X69645Y-60158D01*
X69543Y-60115D01*
X69433Y-60115D01*
X69330Y-60157D01*
X69252Y-60235D01*
X69210Y-60338D01*
X69210Y-60448D01*
X69252Y-60551D01*
X69330Y-60629D01*
X69432Y-60671D01*
X69543Y-60671D01*
X69645Y-60629D01*
X69723Y-60551D01*
X69766Y-60449D01*
X69766Y-60338D01*
X69766Y-68606D01*
X69272Y-68704D01*
X69153Y-68704D01*
X69153Y-45107D01*
X69084Y-44940D01*
X68957Y-44813D01*
X68791Y-44744D01*
X68611Y-44744D01*
X68444Y-44812D01*
X68317Y-44940D01*
X68248Y-45106D01*
X68247Y-45286D01*
X68316Y-45452D01*
X68443Y-45580D01*
X68610Y-45649D01*
X68790Y-45649D01*
X68956Y-45580D01*
X69084Y-45453D01*
X69153Y-45287D01*
X69153Y-45107D01*
X69153Y-68704D01*
X68034Y-68704D01*
X68034Y-60338D01*
X67991Y-60236D01*
X67913Y-60158D01*
X67811Y-60115D01*
X67700Y-60115D01*
X67598Y-60157D01*
X67520Y-60235D01*
X67477Y-60338D01*
X67477Y-60448D01*
X67519Y-60551D01*
X67598Y-60629D01*
X67700Y-60671D01*
X67810Y-60671D01*
X67913Y-60629D01*
X67991Y-60551D01*
X68033Y-60449D01*
X68034Y-60338D01*
X68034Y-68704D01*
X66397Y-68704D01*
X66397Y-45107D01*
X66328Y-44940D01*
X66201Y-44813D01*
X66035Y-44744D01*
X65855Y-44744D01*
X65688Y-44812D01*
X65561Y-44940D01*
X65492Y-45106D01*
X65492Y-45286D01*
X65560Y-45452D01*
X65688Y-45580D01*
X65854Y-45649D01*
X66034Y-45649D01*
X66201Y-45580D01*
X66328Y-45453D01*
X66397Y-45287D01*
X66397Y-45107D01*
X66397Y-68704D01*
X64548Y-68704D01*
X64548Y-50977D01*
X64468Y-50782D01*
X64318Y-50632D01*
X64123Y-50551D01*
X63912Y-50551D01*
X63716Y-50631D01*
X63567Y-50781D01*
X63485Y-50976D01*
X63485Y-51187D01*
X63566Y-51383D01*
X63715Y-51532D01*
X63911Y-51614D01*
X64122Y-51614D01*
X64317Y-51533D01*
X64467Y-51384D01*
X64548Y-51188D01*
X64548Y-50977D01*
X64548Y-68704D01*
X63152Y-68704D01*
X63152Y-58130D01*
X63152Y-49778D01*
X63014Y-49445D01*
X62760Y-49190D01*
X62427Y-49052D01*
X62067Y-49052D01*
X61734Y-49189D01*
X61479Y-49444D01*
X61341Y-49776D01*
X61341Y-50137D01*
X61478Y-50470D01*
X61733Y-50725D01*
X62065Y-50863D01*
X62426Y-50863D01*
X62759Y-50725D01*
X63014Y-50471D01*
X63152Y-50138D01*
X63152Y-49778D01*
X63152Y-58130D01*
X63014Y-57797D01*
X62760Y-57542D01*
X62427Y-57404D01*
X62067Y-57404D01*
X61734Y-57541D01*
X61479Y-57796D01*
X61341Y-58128D01*
X61341Y-58489D01*
X61478Y-58822D01*
X61733Y-59077D01*
X62065Y-59215D01*
X62426Y-59215D01*
X62759Y-59077D01*
X63014Y-58823D01*
X63152Y-58490D01*
X63152Y-58130D01*
X63152Y-68704D01*
X61380Y-68704D01*
X61380Y-64708D01*
X61380Y-62976D01*
X61338Y-62874D01*
X61260Y-62795D01*
X61180Y-62762D01*
X61180Y-51450D01*
X61099Y-51255D01*
X60950Y-51105D01*
X60755Y-51024D01*
X60543Y-51024D01*
X60348Y-51105D01*
X60198Y-51254D01*
X60117Y-51449D01*
X60117Y-51661D01*
X60197Y-51856D01*
X60347Y-52006D01*
X60542Y-52087D01*
X60754Y-52087D01*
X60949Y-52006D01*
X61099Y-51857D01*
X61180Y-51662D01*
X61180Y-51450D01*
X61180Y-62762D01*
X61157Y-62753D01*
X61047Y-62753D01*
X60945Y-62795D01*
X60866Y-62873D01*
X60824Y-62975D01*
X60824Y-63086D01*
X60866Y-63188D01*
X60944Y-63267D01*
X61046Y-63309D01*
X61157Y-63309D01*
X61259Y-63267D01*
X61337Y-63189D01*
X61380Y-63087D01*
X61380Y-62976D01*
X61380Y-64708D01*
X61338Y-64606D01*
X61260Y-64528D01*
X61157Y-64485D01*
X61047Y-64485D01*
X60945Y-64527D01*
X60866Y-64606D01*
X60824Y-64708D01*
X60824Y-64818D01*
X60866Y-64921D01*
X60944Y-64999D01*
X61046Y-65041D01*
X61157Y-65041D01*
X61259Y-64999D01*
X61337Y-64921D01*
X61380Y-64819D01*
X61380Y-64708D01*
X61380Y-68704D01*
X60396Y-68704D01*
X60396Y-62976D01*
X60354Y-62874D01*
X60275Y-62795D01*
X60173Y-62753D01*
X60063Y-62753D01*
X60022Y-62770D01*
X60022Y-60386D01*
X59941Y-60191D01*
X59792Y-60041D01*
X59756Y-60027D01*
X59756Y-52795D01*
X59690Y-52636D01*
X59569Y-52514D01*
X59410Y-52448D01*
X59237Y-52447D01*
X59078Y-52513D01*
X58956Y-52635D01*
X58890Y-52794D01*
X58890Y-52966D01*
X58956Y-53126D01*
X59077Y-53248D01*
X59237Y-53314D01*
X59409Y-53314D01*
X59568Y-53248D01*
X59690Y-53126D01*
X59756Y-52967D01*
X59756Y-52795D01*
X59756Y-60027D01*
X59596Y-59960D01*
X59385Y-59960D01*
X59189Y-60041D01*
X59040Y-60190D01*
X59039Y-60192D01*
X59039Y-54465D01*
X58958Y-54270D01*
X58809Y-54120D01*
X58614Y-54039D01*
X58402Y-54039D01*
X58207Y-54120D01*
X58057Y-54269D01*
X57976Y-54464D01*
X57976Y-54676D01*
X58057Y-54871D01*
X58206Y-55021D01*
X58401Y-55102D01*
X58613Y-55102D01*
X58808Y-55021D01*
X58958Y-54872D01*
X59039Y-54677D01*
X59039Y-54465D01*
X59039Y-60192D01*
X58959Y-60385D01*
X58958Y-60597D01*
X59039Y-60792D01*
X59189Y-60942D01*
X59384Y-61023D01*
X59595Y-61023D01*
X59791Y-60942D01*
X59940Y-60793D01*
X60021Y-60598D01*
X60022Y-60386D01*
X60022Y-62770D01*
X59960Y-62795D01*
X59882Y-62873D01*
X59840Y-62975D01*
X59839Y-63086D01*
X59882Y-63188D01*
X59960Y-63267D01*
X60062Y-63309D01*
X60173Y-63309D01*
X60275Y-63267D01*
X60353Y-63189D01*
X60396Y-63087D01*
X60396Y-62976D01*
X60396Y-68704D01*
X59412Y-68704D01*
X59412Y-64984D01*
X59412Y-62976D01*
X59369Y-62874D01*
X59291Y-62795D01*
X59189Y-62753D01*
X59078Y-62753D01*
X58976Y-62795D01*
X58898Y-62873D01*
X58855Y-62975D01*
X58855Y-63086D01*
X58897Y-63188D01*
X58976Y-63267D01*
X59078Y-63309D01*
X59188Y-63309D01*
X59291Y-63267D01*
X59369Y-63189D01*
X59411Y-63087D01*
X59412Y-62976D01*
X59412Y-64984D01*
X59369Y-64882D01*
X59291Y-64803D01*
X59189Y-64761D01*
X59078Y-64761D01*
X58976Y-64803D01*
X58898Y-64881D01*
X58855Y-64983D01*
X58855Y-65094D01*
X58897Y-65196D01*
X58976Y-65275D01*
X59078Y-65317D01*
X59188Y-65317D01*
X59291Y-65275D01*
X59369Y-65197D01*
X59411Y-65094D01*
X59412Y-64984D01*
X59412Y-68704D01*
X58388Y-68704D01*
X58388Y-62976D01*
X58346Y-62874D01*
X58267Y-62795D01*
X58165Y-62753D01*
X58055Y-62753D01*
X57952Y-62795D01*
X57874Y-62873D01*
X57832Y-62975D01*
X57832Y-63086D01*
X57874Y-63188D01*
X57952Y-63267D01*
X58054Y-63309D01*
X58165Y-63309D01*
X58267Y-63267D01*
X58345Y-63189D01*
X58388Y-63087D01*
X58388Y-62976D01*
X58388Y-68704D01*
X57251Y-68704D01*
X57251Y-55300D01*
X57185Y-55141D01*
X57182Y-55138D01*
X57182Y-47670D01*
X57102Y-47474D01*
X56952Y-47325D01*
X56757Y-47244D01*
X56545Y-47244D01*
X56350Y-47324D01*
X56200Y-47474D01*
X56119Y-47669D01*
X56119Y-47880D01*
X56200Y-48076D01*
X56349Y-48225D01*
X56544Y-48306D01*
X56756Y-48307D01*
X56951Y-48226D01*
X57101Y-48077D01*
X57182Y-47881D01*
X57182Y-47670D01*
X57182Y-55138D01*
X57063Y-55019D01*
X56904Y-54953D01*
X56732Y-54953D01*
X56573Y-55019D01*
X56451Y-55140D01*
X56385Y-55300D01*
X56384Y-55472D01*
X56450Y-55631D01*
X56572Y-55753D01*
X56731Y-55819D01*
X56903Y-55819D01*
X57063Y-55753D01*
X57185Y-55632D01*
X57251Y-55473D01*
X57251Y-55300D01*
X57251Y-68704D01*
X56024Y-68704D01*
X56024Y-51450D01*
X55943Y-51255D01*
X55794Y-51105D01*
X55599Y-51024D01*
X55387Y-51024D01*
X55192Y-51105D01*
X55042Y-51254D01*
X54961Y-51449D01*
X54961Y-51661D01*
X55042Y-51856D01*
X55191Y-52006D01*
X55386Y-52087D01*
X55598Y-52087D01*
X55793Y-52006D01*
X55943Y-51857D01*
X56024Y-51662D01*
X56024Y-51450D01*
X56024Y-68704D01*
X55396Y-68704D01*
X55396Y-64984D01*
X55354Y-64882D01*
X55275Y-64803D01*
X55173Y-64761D01*
X55063Y-64761D01*
X54960Y-64803D01*
X54882Y-64881D01*
X54840Y-64983D01*
X54839Y-65094D01*
X54882Y-65196D01*
X54960Y-65275D01*
X55062Y-65317D01*
X55173Y-65317D01*
X55275Y-65275D01*
X55353Y-65197D01*
X55396Y-65094D01*
X55396Y-64984D01*
X55396Y-68704D01*
X54800Y-68704D01*
X54800Y-58130D01*
X54800Y-49778D01*
X54662Y-49445D01*
X54408Y-49190D01*
X54075Y-49052D01*
X54043Y-49052D01*
X54043Y-42756D01*
X53983Y-42611D01*
X53872Y-42501D01*
X53728Y-42441D01*
X53571Y-42440D01*
X53426Y-42500D01*
X53316Y-42611D01*
X53255Y-42755D01*
X53255Y-42912D01*
X53315Y-43057D01*
X53426Y-43168D01*
X53570Y-43228D01*
X53727Y-43228D01*
X53872Y-43168D01*
X53983Y-43057D01*
X54043Y-42913D01*
X54043Y-42756D01*
X54043Y-49052D01*
X53715Y-49052D01*
X53382Y-49189D01*
X53127Y-49444D01*
X52989Y-49776D01*
X52989Y-50137D01*
X53126Y-50470D01*
X53381Y-50725D01*
X53713Y-50863D01*
X54074Y-50863D01*
X54407Y-50725D01*
X54662Y-50471D01*
X54800Y-50138D01*
X54800Y-49778D01*
X54800Y-58130D01*
X54662Y-57797D01*
X54408Y-57542D01*
X54075Y-57404D01*
X53900Y-57404D01*
X53900Y-53055D01*
X53857Y-52952D01*
X53779Y-52874D01*
X53677Y-52832D01*
X53566Y-52832D01*
X53464Y-52874D01*
X53386Y-52952D01*
X53343Y-53054D01*
X53343Y-53165D01*
X53386Y-53267D01*
X53464Y-53345D01*
X53566Y-53388D01*
X53677Y-53388D01*
X53779Y-53346D01*
X53857Y-53267D01*
X53900Y-53165D01*
X53900Y-53055D01*
X53900Y-57404D01*
X53715Y-57404D01*
X53382Y-57541D01*
X53191Y-57732D01*
X53191Y-52740D01*
X53149Y-52637D01*
X53071Y-52559D01*
X52968Y-52517D01*
X52858Y-52517D01*
X52756Y-52559D01*
X52677Y-52637D01*
X52635Y-52739D01*
X52635Y-52850D01*
X52677Y-52952D01*
X52755Y-53030D01*
X52857Y-53073D01*
X52968Y-53073D01*
X53070Y-53031D01*
X53149Y-52953D01*
X53191Y-52850D01*
X53191Y-52740D01*
X53191Y-57732D01*
X53127Y-57796D01*
X52989Y-58128D01*
X52989Y-58489D01*
X53126Y-58822D01*
X53381Y-59077D01*
X53713Y-59215D01*
X54074Y-59215D01*
X54407Y-59077D01*
X54662Y-58823D01*
X54800Y-58490D01*
X54800Y-58130D01*
X54800Y-68704D01*
X54412Y-68704D01*
X54412Y-64984D01*
X54369Y-64882D01*
X54291Y-64803D01*
X54189Y-64761D01*
X54078Y-64761D01*
X53976Y-64803D01*
X53898Y-64881D01*
X53855Y-64983D01*
X53855Y-65094D01*
X53897Y-65196D01*
X53976Y-65275D01*
X54078Y-65317D01*
X54188Y-65317D01*
X54291Y-65275D01*
X54369Y-65197D01*
X54411Y-65094D01*
X54412Y-64984D01*
X54412Y-68704D01*
X52655Y-68704D01*
X52655Y-57079D01*
X52575Y-56884D01*
X52425Y-56734D01*
X52364Y-56709D01*
X52364Y-48606D01*
X52322Y-48504D01*
X52244Y-48425D01*
X52142Y-48383D01*
X52031Y-48383D01*
X51929Y-48425D01*
X51850Y-48503D01*
X51808Y-48605D01*
X51808Y-48716D01*
X51850Y-48818D01*
X51928Y-48897D01*
X52031Y-48939D01*
X52141Y-48939D01*
X52243Y-48897D01*
X52322Y-48819D01*
X52364Y-48716D01*
X52364Y-48606D01*
X52364Y-56709D01*
X52230Y-56653D01*
X52019Y-56653D01*
X51823Y-56734D01*
X51674Y-56883D01*
X51593Y-57078D01*
X51592Y-57290D01*
X51673Y-57485D01*
X51822Y-57635D01*
X52018Y-57716D01*
X52229Y-57716D01*
X52425Y-57635D01*
X52574Y-57486D01*
X52655Y-57291D01*
X52655Y-57079D01*
X52655Y-68704D01*
X51577Y-68704D01*
X51577Y-60338D01*
X51535Y-60236D01*
X51456Y-60158D01*
X51354Y-60115D01*
X51244Y-60115D01*
X51141Y-60157D01*
X51063Y-60235D01*
X51021Y-60338D01*
X51021Y-60448D01*
X51063Y-60551D01*
X51141Y-60629D01*
X51243Y-60671D01*
X51354Y-60671D01*
X51456Y-60629D01*
X51534Y-60551D01*
X51577Y-60449D01*
X51577Y-60338D01*
X51577Y-68704D01*
X50750Y-68704D01*
X50750Y-61322D01*
X50750Y-59354D01*
X50750Y-52346D01*
X50730Y-52298D01*
X50730Y-47996D01*
X50688Y-47893D01*
X50610Y-47815D01*
X50508Y-47773D01*
X50475Y-47773D01*
X50475Y-47051D01*
X50432Y-46948D01*
X50354Y-46870D01*
X50252Y-46828D01*
X50141Y-46828D01*
X50039Y-46870D01*
X49961Y-46948D01*
X49918Y-47050D01*
X49918Y-47161D01*
X49960Y-47263D01*
X50039Y-47341D01*
X50141Y-47384D01*
X50251Y-47384D01*
X50354Y-47342D01*
X50432Y-47264D01*
X50474Y-47161D01*
X50475Y-47051D01*
X50475Y-47773D01*
X50397Y-47773D01*
X50295Y-47815D01*
X50217Y-47893D01*
X50196Y-47942D01*
X50176Y-47893D01*
X50098Y-47815D01*
X49996Y-47773D01*
X49885Y-47773D01*
X49845Y-47789D01*
X49845Y-46637D01*
X49802Y-46535D01*
X49724Y-46457D01*
X49622Y-46414D01*
X49511Y-46414D01*
X49409Y-46457D01*
X49372Y-46493D01*
X49372Y-44433D01*
X49333Y-44337D01*
X49333Y-42976D01*
X49291Y-42874D01*
X49212Y-42795D01*
X49110Y-42753D01*
X49000Y-42753D01*
X48897Y-42795D01*
X48819Y-42873D01*
X48777Y-42975D01*
X48776Y-43086D01*
X48819Y-43188D01*
X48897Y-43267D01*
X48999Y-43309D01*
X49110Y-43309D01*
X49212Y-43267D01*
X49290Y-43189D01*
X49333Y-43087D01*
X49333Y-42976D01*
X49333Y-44337D01*
X49330Y-44330D01*
X49252Y-44252D01*
X49150Y-44210D01*
X49039Y-44210D01*
X48937Y-44252D01*
X48860Y-44328D01*
X48860Y-43330D01*
X48818Y-43228D01*
X48740Y-43150D01*
X48638Y-43107D01*
X48527Y-43107D01*
X48425Y-43149D01*
X48347Y-43228D01*
X48326Y-43276D01*
X48306Y-43228D01*
X48228Y-43150D01*
X48126Y-43107D01*
X48015Y-43107D01*
X47913Y-43149D01*
X47835Y-43228D01*
X47792Y-43330D01*
X47792Y-43440D01*
X47834Y-43543D01*
X47913Y-43621D01*
X48015Y-43663D01*
X48125Y-43663D01*
X48228Y-43621D01*
X48306Y-43543D01*
X48326Y-43494D01*
X48346Y-43543D01*
X48424Y-43621D01*
X48527Y-43663D01*
X48637Y-43663D01*
X48740Y-43621D01*
X48818Y-43543D01*
X48860Y-43441D01*
X48860Y-43330D01*
X48860Y-44328D01*
X48858Y-44330D01*
X48816Y-44432D01*
X48816Y-44543D01*
X48858Y-44645D01*
X48936Y-44723D01*
X49038Y-44766D01*
X49149Y-44766D01*
X49251Y-44724D01*
X49330Y-44645D01*
X49372Y-44543D01*
X49372Y-44433D01*
X49372Y-46493D01*
X49331Y-46535D01*
X49288Y-46637D01*
X49288Y-46747D01*
X49331Y-46850D01*
X49409Y-46928D01*
X49511Y-46970D01*
X49622Y-46971D01*
X49724Y-46928D01*
X49802Y-46850D01*
X49844Y-46748D01*
X49845Y-46637D01*
X49845Y-47789D01*
X49783Y-47815D01*
X49705Y-47893D01*
X49662Y-47995D01*
X49662Y-48106D01*
X49705Y-48208D01*
X49783Y-48286D01*
X49885Y-48329D01*
X49996Y-48329D01*
X50098Y-48287D01*
X50176Y-48208D01*
X50196Y-48160D01*
X50216Y-48208D01*
X50295Y-48286D01*
X50397Y-48329D01*
X50507Y-48329D01*
X50610Y-48287D01*
X50688Y-48208D01*
X50730Y-48106D01*
X50730Y-47996D01*
X50730Y-52298D01*
X50708Y-52244D01*
X50630Y-52165D01*
X50528Y-52123D01*
X50417Y-52123D01*
X50356Y-52148D01*
X50356Y-48901D01*
X50314Y-48799D01*
X50236Y-48721D01*
X50134Y-48678D01*
X50100Y-48678D01*
X50100Y-48677D01*
X50100Y-48566D01*
X50058Y-48464D01*
X49980Y-48386D01*
X49878Y-48343D01*
X49767Y-48343D01*
X49665Y-48386D01*
X49648Y-48403D01*
X49648Y-47582D01*
X49605Y-47480D01*
X49527Y-47402D01*
X49425Y-47359D01*
X49315Y-47359D01*
X49212Y-47401D01*
X49200Y-47414D01*
X49215Y-47378D01*
X49215Y-47267D01*
X49172Y-47165D01*
X49094Y-47087D01*
X48992Y-47044D01*
X48881Y-47044D01*
X48779Y-47086D01*
X48701Y-47165D01*
X48700Y-47166D01*
X48700Y-47165D01*
X48622Y-47087D01*
X48585Y-47071D01*
X48585Y-44472D01*
X48542Y-44370D01*
X48464Y-44291D01*
X48362Y-44249D01*
X48252Y-44249D01*
X48149Y-44291D01*
X48071Y-44369D01*
X48029Y-44471D01*
X48028Y-44582D01*
X48071Y-44684D01*
X48149Y-44763D01*
X48251Y-44805D01*
X48362Y-44805D01*
X48464Y-44763D01*
X48542Y-44685D01*
X48585Y-44583D01*
X48585Y-44472D01*
X48585Y-47071D01*
X48520Y-47044D01*
X48409Y-47044D01*
X48307Y-47086D01*
X48228Y-47165D01*
X48186Y-47267D01*
X48186Y-47377D01*
X48228Y-47480D01*
X48306Y-47558D01*
X48409Y-47600D01*
X48519Y-47600D01*
X48621Y-47558D01*
X48700Y-47480D01*
X48700Y-47479D01*
X48701Y-47480D01*
X48779Y-47558D01*
X48881Y-47600D01*
X48992Y-47600D01*
X49094Y-47558D01*
X49107Y-47546D01*
X49092Y-47582D01*
X49091Y-47692D01*
X49134Y-47795D01*
X49212Y-47873D01*
X49314Y-47915D01*
X49425Y-47915D01*
X49527Y-47873D01*
X49605Y-47795D01*
X49648Y-47693D01*
X49648Y-47582D01*
X49648Y-48403D01*
X49587Y-48464D01*
X49544Y-48566D01*
X49544Y-48677D01*
X49586Y-48779D01*
X49665Y-48857D01*
X49767Y-48900D01*
X49801Y-48900D01*
X49800Y-48901D01*
X49800Y-49011D01*
X49842Y-49114D01*
X49920Y-49192D01*
X50023Y-49234D01*
X50133Y-49234D01*
X50236Y-49192D01*
X50314Y-49114D01*
X50356Y-49012D01*
X50356Y-48901D01*
X50356Y-52148D01*
X50315Y-52165D01*
X50236Y-52243D01*
X50194Y-52346D01*
X50194Y-52456D01*
X50236Y-52558D01*
X50314Y-52637D01*
X50416Y-52679D01*
X50527Y-52679D01*
X50629Y-52637D01*
X50708Y-52559D01*
X50750Y-52457D01*
X50750Y-52346D01*
X50750Y-59354D01*
X50708Y-59252D01*
X50630Y-59173D01*
X50528Y-59131D01*
X50417Y-59131D01*
X50315Y-59173D01*
X50236Y-59251D01*
X50194Y-59353D01*
X50194Y-59464D01*
X50236Y-59566D01*
X50314Y-59645D01*
X50416Y-59687D01*
X50527Y-59687D01*
X50629Y-59645D01*
X50708Y-59567D01*
X50750Y-59465D01*
X50750Y-59354D01*
X50750Y-61322D01*
X50708Y-61220D01*
X50630Y-61142D01*
X50528Y-61099D01*
X50417Y-61099D01*
X50315Y-61142D01*
X50236Y-61220D01*
X50194Y-61322D01*
X50194Y-61433D01*
X50236Y-61535D01*
X50314Y-61613D01*
X50416Y-61656D01*
X50527Y-61656D01*
X50629Y-61613D01*
X50708Y-61535D01*
X50750Y-61433D01*
X50750Y-61322D01*
X50750Y-68704D01*
X49038Y-68704D01*
X49038Y-60338D01*
X49038Y-58350D01*
X49038Y-57346D01*
X48995Y-57244D01*
X48917Y-57165D01*
X48815Y-57123D01*
X48704Y-57123D01*
X48602Y-57165D01*
X48524Y-57243D01*
X48481Y-57346D01*
X48481Y-57456D01*
X48523Y-57558D01*
X48602Y-57637D01*
X48704Y-57679D01*
X48814Y-57679D01*
X48917Y-57637D01*
X48995Y-57559D01*
X49037Y-57457D01*
X49038Y-57346D01*
X49038Y-58350D01*
X48995Y-58248D01*
X48917Y-58169D01*
X48815Y-58127D01*
X48704Y-58127D01*
X48602Y-58169D01*
X48524Y-58247D01*
X48481Y-58349D01*
X48481Y-58460D01*
X48523Y-58562D01*
X48602Y-58641D01*
X48704Y-58683D01*
X48814Y-58683D01*
X48917Y-58641D01*
X48995Y-58563D01*
X49037Y-58461D01*
X49038Y-58350D01*
X49038Y-60338D01*
X48995Y-60236D01*
X48917Y-60158D01*
X48815Y-60115D01*
X48704Y-60115D01*
X48602Y-60157D01*
X48524Y-60235D01*
X48481Y-60338D01*
X48481Y-60448D01*
X48523Y-60551D01*
X48602Y-60629D01*
X48704Y-60671D01*
X48814Y-60671D01*
X48917Y-60629D01*
X48995Y-60551D01*
X49037Y-60449D01*
X49038Y-60338D01*
X49038Y-68704D01*
X48230Y-68704D01*
X48230Y-47897D01*
X48188Y-47795D01*
X48110Y-47717D01*
X48073Y-47701D01*
X48073Y-46047D01*
X48031Y-45945D01*
X47953Y-45866D01*
X47850Y-45824D01*
X47740Y-45824D01*
X47637Y-45866D01*
X47559Y-45944D01*
X47517Y-46046D01*
X47517Y-46157D01*
X47559Y-46259D01*
X47637Y-46337D01*
X47739Y-46380D01*
X47850Y-46380D01*
X47952Y-46338D01*
X48030Y-46260D01*
X48073Y-46157D01*
X48073Y-46047D01*
X48073Y-47701D01*
X48008Y-47674D01*
X47897Y-47674D01*
X47795Y-47716D01*
X47717Y-47795D01*
X47674Y-47897D01*
X47674Y-48007D01*
X47716Y-48110D01*
X47795Y-48188D01*
X47897Y-48230D01*
X48007Y-48230D01*
X48110Y-48188D01*
X48188Y-48110D01*
X48230Y-48008D01*
X48230Y-47897D01*
X48230Y-68704D01*
X47915Y-68704D01*
X47915Y-56834D01*
X47873Y-56732D01*
X47795Y-56654D01*
X47693Y-56611D01*
X47582Y-56611D01*
X47561Y-56620D01*
X47561Y-47267D01*
X47519Y-47165D01*
X47441Y-47087D01*
X47339Y-47044D01*
X47228Y-47044D01*
X47126Y-47086D01*
X47047Y-47165D01*
X47005Y-47267D01*
X47005Y-47377D01*
X47047Y-47480D01*
X47125Y-47558D01*
X47227Y-47600D01*
X47338Y-47600D01*
X47440Y-47558D01*
X47519Y-47480D01*
X47561Y-47378D01*
X47561Y-47267D01*
X47561Y-56620D01*
X47480Y-56653D01*
X47402Y-56732D01*
X47359Y-56834D01*
X47359Y-56944D01*
X47401Y-57047D01*
X47480Y-57125D01*
X47582Y-57167D01*
X47692Y-57167D01*
X47795Y-57125D01*
X47873Y-57047D01*
X47915Y-56945D01*
X47915Y-56834D01*
X47915Y-68704D01*
X47049Y-68704D01*
X47049Y-60338D01*
X47049Y-59334D01*
X47007Y-59232D01*
X46929Y-59154D01*
X46827Y-59111D01*
X46813Y-59111D01*
X46813Y-55929D01*
X46771Y-55826D01*
X46693Y-55748D01*
X46590Y-55706D01*
X46480Y-55706D01*
X46378Y-55748D01*
X46299Y-55826D01*
X46257Y-55928D01*
X46257Y-56039D01*
X46299Y-56141D01*
X46377Y-56219D01*
X46479Y-56262D01*
X46590Y-56262D01*
X46692Y-56220D01*
X46771Y-56141D01*
X46813Y-56039D01*
X46813Y-55929D01*
X46813Y-59111D01*
X46716Y-59111D01*
X46614Y-59153D01*
X46536Y-59232D01*
X46493Y-59334D01*
X46493Y-59444D01*
X46535Y-59547D01*
X46613Y-59625D01*
X46716Y-59667D01*
X46826Y-59667D01*
X46928Y-59625D01*
X47007Y-59547D01*
X47049Y-59445D01*
X47049Y-59334D01*
X47049Y-60338D01*
X47007Y-60236D01*
X46929Y-60158D01*
X46827Y-60115D01*
X46716Y-60115D01*
X46614Y-60157D01*
X46536Y-60235D01*
X46493Y-60338D01*
X46493Y-60448D01*
X46535Y-60551D01*
X46613Y-60629D01*
X46716Y-60671D01*
X46826Y-60671D01*
X46928Y-60629D01*
X47007Y-60551D01*
X47049Y-60449D01*
X47049Y-60338D01*
X47049Y-68704D01*
X46065Y-68704D01*
X46065Y-47267D01*
X46065Y-46637D01*
X46023Y-46535D01*
X45945Y-46457D01*
X45842Y-46414D01*
X45732Y-46414D01*
X45630Y-46457D01*
X45551Y-46535D01*
X45509Y-46637D01*
X45509Y-46747D01*
X45551Y-46850D01*
X45629Y-46928D01*
X45731Y-46970D01*
X45842Y-46971D01*
X45944Y-46928D01*
X46023Y-46850D01*
X46065Y-46748D01*
X46065Y-46637D01*
X46065Y-47267D01*
X46023Y-47165D01*
X45945Y-47087D01*
X45842Y-47044D01*
X45732Y-47044D01*
X45630Y-47086D01*
X45551Y-47165D01*
X45509Y-47267D01*
X45509Y-47377D01*
X45551Y-47480D01*
X45629Y-47558D01*
X45731Y-47600D01*
X45842Y-47600D01*
X45944Y-47558D01*
X46023Y-47480D01*
X46065Y-47378D01*
X46065Y-47267D01*
X46065Y-68704D01*
X44451Y-68704D01*
X44451Y-52031D01*
X44409Y-51929D01*
X44330Y-51850D01*
X44228Y-51808D01*
X44118Y-51808D01*
X44015Y-51850D01*
X43937Y-51928D01*
X43895Y-52031D01*
X43895Y-52141D01*
X43937Y-52243D01*
X44015Y-52322D01*
X44117Y-52364D01*
X44228Y-52364D01*
X44330Y-52322D01*
X44408Y-52244D01*
X44451Y-52142D01*
X44451Y-52031D01*
X44451Y-68704D01*
X43624Y-68704D01*
X43624Y-55259D01*
X43582Y-55157D01*
X43504Y-55079D01*
X43402Y-55036D01*
X43291Y-55036D01*
X43191Y-55078D01*
X43191Y-54866D01*
X43149Y-54763D01*
X43071Y-54685D01*
X42968Y-54643D01*
X42876Y-54643D01*
X42876Y-53291D01*
X42834Y-53189D01*
X42756Y-53110D01*
X42653Y-53068D01*
X42543Y-53068D01*
X42441Y-53110D01*
X42362Y-53188D01*
X42320Y-53290D01*
X42320Y-53401D01*
X42362Y-53503D01*
X42440Y-53582D01*
X42542Y-53624D01*
X42653Y-53624D01*
X42755Y-53582D01*
X42834Y-53504D01*
X42876Y-53402D01*
X42876Y-53291D01*
X42876Y-54643D01*
X42858Y-54643D01*
X42756Y-54685D01*
X42677Y-54763D01*
X42635Y-54865D01*
X42635Y-54976D01*
X42677Y-55078D01*
X42755Y-55156D01*
X42857Y-55199D01*
X42968Y-55199D01*
X43070Y-55157D01*
X43149Y-55079D01*
X43191Y-54976D01*
X43191Y-54866D01*
X43191Y-55078D01*
X43189Y-55079D01*
X43110Y-55157D01*
X43068Y-55259D01*
X43068Y-55370D01*
X43110Y-55472D01*
X43188Y-55550D01*
X43290Y-55593D01*
X43401Y-55593D01*
X43503Y-55550D01*
X43582Y-55472D01*
X43624Y-55370D01*
X43624Y-55259D01*
X43624Y-68704D01*
X42167Y-68704D01*
X42167Y-59944D01*
X42125Y-59842D01*
X42066Y-59783D01*
X42125Y-59724D01*
X42167Y-59622D01*
X42167Y-59511D01*
X42125Y-59409D01*
X42066Y-59350D01*
X42125Y-59291D01*
X42167Y-59189D01*
X42167Y-59078D01*
X42125Y-58976D01*
X42066Y-58917D01*
X42125Y-58858D01*
X42167Y-58756D01*
X42167Y-58645D01*
X42125Y-58543D01*
X42047Y-58465D01*
X41945Y-58422D01*
X41834Y-58422D01*
X41732Y-58464D01*
X41654Y-58543D01*
X41611Y-58645D01*
X41611Y-58755D01*
X41653Y-58858D01*
X41712Y-58917D01*
X41654Y-58976D01*
X41611Y-59078D01*
X41611Y-59188D01*
X41653Y-59291D01*
X41712Y-59350D01*
X41654Y-59409D01*
X41611Y-59511D01*
X41611Y-59622D01*
X41653Y-59724D01*
X41712Y-59783D01*
X41654Y-59842D01*
X41611Y-59944D01*
X41611Y-60055D01*
X41653Y-60157D01*
X41732Y-60235D01*
X41834Y-60278D01*
X41944Y-60278D01*
X42047Y-60235D01*
X42125Y-60157D01*
X42167Y-60055D01*
X42167Y-59944D01*
X42167Y-68704D01*
X41262Y-68704D01*
X41262Y-51913D01*
X41220Y-51811D01*
X41141Y-51732D01*
X41039Y-51690D01*
X40929Y-51690D01*
X40826Y-51732D01*
X40748Y-51810D01*
X40706Y-51912D01*
X40706Y-52023D01*
X40748Y-52125D01*
X40826Y-52204D01*
X40928Y-52246D01*
X41039Y-52246D01*
X41141Y-52204D01*
X41219Y-52126D01*
X41262Y-52024D01*
X41262Y-51913D01*
X41262Y-68704D01*
X40789Y-68704D01*
X40789Y-57818D01*
X40747Y-57716D01*
X40669Y-57638D01*
X40593Y-57606D01*
X40593Y-52307D01*
X40550Y-52204D01*
X40472Y-52126D01*
X40370Y-52084D01*
X40278Y-52084D01*
X40278Y-51559D01*
X40235Y-51456D01*
X40157Y-51378D01*
X40055Y-51336D01*
X39944Y-51336D01*
X39842Y-51378D01*
X39764Y-51456D01*
X39764Y-51457D01*
X39724Y-51417D01*
X39622Y-51375D01*
X39511Y-51375D01*
X39429Y-51409D01*
X39429Y-43414D01*
X39429Y-40658D01*
X39360Y-40491D01*
X39233Y-40364D01*
X39066Y-40295D01*
X38886Y-40295D01*
X38720Y-40363D01*
X38592Y-40491D01*
X38523Y-40657D01*
X38523Y-40837D01*
X38592Y-41004D01*
X38719Y-41131D01*
X38885Y-41200D01*
X39066Y-41200D01*
X39232Y-41132D01*
X39359Y-41004D01*
X39429Y-40838D01*
X39429Y-40658D01*
X39429Y-43414D01*
X39360Y-43247D01*
X39233Y-43120D01*
X39066Y-43051D01*
X38886Y-43051D01*
X38720Y-43119D01*
X38592Y-43247D01*
X38523Y-43413D01*
X38523Y-43593D01*
X38592Y-43760D01*
X38719Y-43887D01*
X38885Y-43956D01*
X39066Y-43956D01*
X39232Y-43887D01*
X39359Y-43760D01*
X39429Y-43594D01*
X39429Y-43414D01*
X39429Y-51409D01*
X39409Y-51417D01*
X39331Y-51495D01*
X39288Y-51597D01*
X39288Y-51708D01*
X39331Y-51810D01*
X39409Y-51889D01*
X39511Y-51931D01*
X39622Y-51931D01*
X39724Y-51889D01*
X39802Y-51811D01*
X39802Y-51810D01*
X39842Y-51849D01*
X39944Y-51892D01*
X40055Y-51892D01*
X40157Y-51850D01*
X40235Y-51771D01*
X40278Y-51669D01*
X40278Y-51559D01*
X40278Y-52084D01*
X40259Y-52084D01*
X40157Y-52126D01*
X40079Y-52204D01*
X40036Y-52306D01*
X40036Y-52417D01*
X40079Y-52519D01*
X40157Y-52597D01*
X40259Y-52640D01*
X40370Y-52640D01*
X40472Y-52598D01*
X40550Y-52519D01*
X40593Y-52417D01*
X40593Y-52307D01*
X40593Y-57606D01*
X40567Y-57595D01*
X40456Y-57595D01*
X40401Y-57618D01*
X40435Y-57535D01*
X40435Y-57425D01*
X40393Y-57322D01*
X40315Y-57244D01*
X40213Y-57202D01*
X40102Y-57202D01*
X40000Y-57244D01*
X39963Y-57281D01*
X39963Y-52582D01*
X39920Y-52480D01*
X39842Y-52402D01*
X39740Y-52359D01*
X39629Y-52359D01*
X39527Y-52401D01*
X39449Y-52480D01*
X39406Y-52582D01*
X39406Y-52692D01*
X39449Y-52795D01*
X39527Y-52873D01*
X39629Y-52915D01*
X39740Y-52915D01*
X39842Y-52873D01*
X39920Y-52795D01*
X39963Y-52693D01*
X39963Y-52582D01*
X39963Y-57281D01*
X39921Y-57322D01*
X39879Y-57424D01*
X39879Y-57535D01*
X39921Y-57637D01*
X39999Y-57715D01*
X40101Y-57758D01*
X40212Y-57758D01*
X40268Y-57735D01*
X40233Y-57818D01*
X40233Y-57929D01*
X40275Y-58031D01*
X40354Y-58109D01*
X40456Y-58152D01*
X40566Y-58152D01*
X40669Y-58109D01*
X40747Y-58031D01*
X40789Y-57929D01*
X40789Y-57818D01*
X40789Y-68704D01*
X39057Y-68704D01*
X39057Y-49315D01*
X39015Y-49212D01*
X38937Y-49134D01*
X38835Y-49092D01*
X38724Y-49091D01*
X38622Y-49134D01*
X38543Y-49212D01*
X38501Y-49314D01*
X38501Y-49425D01*
X38543Y-49527D01*
X38621Y-49605D01*
X38723Y-49648D01*
X38834Y-49648D01*
X38936Y-49605D01*
X39015Y-49527D01*
X39057Y-49425D01*
X39057Y-49315D01*
X39057Y-68704D01*
X39018Y-68704D01*
X39018Y-58291D01*
X38976Y-58189D01*
X38897Y-58110D01*
X38795Y-58068D01*
X38685Y-58068D01*
X38582Y-58110D01*
X38504Y-58188D01*
X38462Y-58290D01*
X38461Y-58401D01*
X38504Y-58503D01*
X38582Y-58582D01*
X38684Y-58624D01*
X38795Y-58624D01*
X38897Y-58582D01*
X38975Y-58504D01*
X39018Y-58402D01*
X39018Y-58291D01*
X39018Y-68704D01*
X37955Y-68704D01*
X37955Y-49157D01*
X37913Y-49055D01*
X37834Y-48976D01*
X37732Y-48934D01*
X37622Y-48934D01*
X37519Y-48976D01*
X37441Y-49054D01*
X37399Y-49157D01*
X37399Y-49267D01*
X37441Y-49369D01*
X37519Y-49448D01*
X37621Y-49490D01*
X37732Y-49490D01*
X37834Y-49448D01*
X37912Y-49370D01*
X37955Y-49268D01*
X37955Y-49157D01*
X37955Y-68704D01*
X37797Y-68704D01*
X37797Y-55141D01*
X37755Y-55039D01*
X37677Y-54961D01*
X37575Y-54918D01*
X37464Y-54918D01*
X37364Y-54959D01*
X37364Y-48173D01*
X37322Y-48071D01*
X37244Y-47992D01*
X37142Y-47950D01*
X37031Y-47950D01*
X36929Y-47992D01*
X36850Y-48070D01*
X36808Y-48172D01*
X36808Y-48283D01*
X36850Y-48385D01*
X36928Y-48463D01*
X37031Y-48506D01*
X37141Y-48506D01*
X37243Y-48464D01*
X37322Y-48386D01*
X37364Y-48283D01*
X37364Y-48173D01*
X37364Y-54959D01*
X37362Y-54960D01*
X37284Y-55039D01*
X37241Y-55141D01*
X37241Y-55251D01*
X37283Y-55354D01*
X37361Y-55432D01*
X37464Y-55474D01*
X37574Y-55475D01*
X37677Y-55432D01*
X37755Y-55354D01*
X37797Y-55252D01*
X37797Y-55141D01*
X37797Y-68704D01*
X37404Y-68704D01*
X37404Y-58291D01*
X37361Y-58189D01*
X37283Y-58110D01*
X37181Y-58068D01*
X37070Y-58068D01*
X36968Y-58110D01*
X36890Y-58188D01*
X36847Y-58290D01*
X36847Y-58401D01*
X36890Y-58503D01*
X36968Y-58582D01*
X37070Y-58624D01*
X37181Y-58624D01*
X37283Y-58582D01*
X37361Y-58504D01*
X37404Y-58402D01*
X37404Y-58291D01*
X37404Y-68704D01*
X34845Y-68704D01*
X34845Y-58566D01*
X34802Y-58464D01*
X34724Y-58386D01*
X34704Y-58378D01*
X34704Y-43414D01*
X34704Y-40658D01*
X34636Y-40491D01*
X34508Y-40364D01*
X34342Y-40295D01*
X34162Y-40295D01*
X33995Y-40363D01*
X33868Y-40491D01*
X33799Y-40657D01*
X33799Y-40837D01*
X33867Y-41004D01*
X33995Y-41131D01*
X34161Y-41200D01*
X34341Y-41200D01*
X34508Y-41132D01*
X34635Y-41004D01*
X34704Y-40838D01*
X34704Y-40658D01*
X34704Y-43414D01*
X34636Y-43247D01*
X34508Y-43120D01*
X34342Y-43051D01*
X34162Y-43051D01*
X33995Y-43119D01*
X33868Y-43247D01*
X33799Y-43413D01*
X33799Y-43593D01*
X33867Y-43760D01*
X33995Y-43887D01*
X34161Y-43956D01*
X34341Y-43956D01*
X34508Y-43887D01*
X34635Y-43760D01*
X34704Y-43594D01*
X34704Y-43414D01*
X34704Y-58378D01*
X34622Y-58343D01*
X34511Y-58343D01*
X34409Y-58386D01*
X34333Y-58462D01*
X34333Y-51126D01*
X34291Y-51023D01*
X34212Y-50945D01*
X34110Y-50903D01*
X34000Y-50902D01*
X33897Y-50945D01*
X33819Y-51023D01*
X33777Y-51125D01*
X33776Y-51236D01*
X33819Y-51338D01*
X33897Y-51416D01*
X33999Y-51459D01*
X34110Y-51459D01*
X34212Y-51417D01*
X34290Y-51338D01*
X34333Y-51236D01*
X34333Y-51126D01*
X34333Y-58462D01*
X34331Y-58464D01*
X34288Y-58566D01*
X34288Y-58658D01*
X34196Y-58658D01*
X34094Y-58701D01*
X34016Y-58779D01*
X33973Y-58881D01*
X33973Y-58992D01*
X34016Y-59094D01*
X34094Y-59172D01*
X34196Y-59215D01*
X34307Y-59215D01*
X34409Y-59172D01*
X34487Y-59094D01*
X34530Y-58992D01*
X34530Y-58900D01*
X34622Y-58900D01*
X34724Y-58857D01*
X34802Y-58779D01*
X34844Y-58677D01*
X34845Y-58566D01*
X34845Y-68704D01*
X33427Y-68704D01*
X33427Y-57326D01*
X33385Y-57224D01*
X33307Y-57146D01*
X33205Y-57103D01*
X33094Y-57103D01*
X32992Y-57145D01*
X32913Y-57224D01*
X32871Y-57326D01*
X32871Y-57436D01*
X32913Y-57539D01*
X32991Y-57617D01*
X33094Y-57659D01*
X33204Y-57660D01*
X33306Y-57617D01*
X33385Y-57539D01*
X33427Y-57437D01*
X33427Y-57326D01*
X33427Y-68704D01*
X32797Y-68704D01*
X32797Y-44826D01*
X32755Y-44724D01*
X32677Y-44646D01*
X32575Y-44603D01*
X32464Y-44603D01*
X32362Y-44645D01*
X32284Y-44724D01*
X32241Y-44826D01*
X32241Y-44936D01*
X32283Y-45039D01*
X32361Y-45117D01*
X32464Y-45159D01*
X32574Y-45160D01*
X32677Y-45117D01*
X32755Y-45039D01*
X32797Y-44937D01*
X32797Y-44826D01*
X32797Y-68704D01*
X32207Y-68704D01*
X32207Y-43114D01*
X32165Y-43011D01*
X32086Y-42933D01*
X31994Y-42895D01*
X32047Y-42873D01*
X32125Y-42795D01*
X32167Y-42693D01*
X32167Y-42582D01*
X32125Y-42480D01*
X32047Y-42402D01*
X31945Y-42359D01*
X31834Y-42359D01*
X31732Y-42401D01*
X31654Y-42480D01*
X31611Y-42582D01*
X31611Y-42692D01*
X31653Y-42795D01*
X31732Y-42873D01*
X31824Y-42911D01*
X31771Y-42933D01*
X31693Y-43011D01*
X31651Y-43113D01*
X31650Y-43224D01*
X31693Y-43326D01*
X31771Y-43404D01*
X31873Y-43447D01*
X31984Y-43447D01*
X32086Y-43405D01*
X32164Y-43327D01*
X32207Y-43224D01*
X32207Y-43114D01*
X32207Y-68704D01*
X31971Y-68704D01*
X31971Y-44944D01*
X31928Y-44842D01*
X31850Y-44764D01*
X31748Y-44721D01*
X31637Y-44721D01*
X31535Y-44764D01*
X31457Y-44842D01*
X31414Y-44944D01*
X31414Y-45055D01*
X31457Y-45157D01*
X31535Y-45235D01*
X31637Y-45278D01*
X31747Y-45278D01*
X31850Y-45235D01*
X31928Y-45157D01*
X31970Y-45055D01*
X31971Y-44944D01*
X31971Y-68704D01*
X31181Y-68704D01*
X31181Y-67244D01*
X30829Y-67244D01*
X30829Y-46755D01*
X30787Y-46653D01*
X30708Y-46575D01*
X30606Y-46532D01*
X30514Y-46532D01*
X30514Y-46459D01*
X30606Y-46459D01*
X30708Y-46417D01*
X30786Y-46338D01*
X30829Y-46236D01*
X30829Y-46126D01*
X30829Y-44944D01*
X30787Y-44842D01*
X30708Y-44764D01*
X30606Y-44721D01*
X30496Y-44721D01*
X30487Y-44725D01*
X30514Y-44661D01*
X30514Y-44551D01*
X30472Y-44448D01*
X30393Y-44370D01*
X30291Y-44328D01*
X30181Y-44328D01*
X30078Y-44370D01*
X30000Y-44448D01*
X29958Y-44550D01*
X29958Y-44661D01*
X30000Y-44763D01*
X30078Y-44841D01*
X30180Y-44884D01*
X30291Y-44884D01*
X30299Y-44881D01*
X30273Y-44944D01*
X30273Y-45055D01*
X30315Y-45157D01*
X30393Y-45235D01*
X30495Y-45278D01*
X30606Y-45278D01*
X30708Y-45235D01*
X30786Y-45157D01*
X30829Y-45055D01*
X30829Y-44944D01*
X30829Y-46126D01*
X30787Y-46023D01*
X30708Y-45945D01*
X30606Y-45903D01*
X30496Y-45902D01*
X30487Y-45906D01*
X30514Y-45842D01*
X30514Y-45732D01*
X30472Y-45630D01*
X30393Y-45551D01*
X30291Y-45509D01*
X30181Y-45509D01*
X30078Y-45551D01*
X30000Y-45629D01*
X29958Y-45731D01*
X29958Y-45842D01*
X30000Y-45944D01*
X30078Y-46023D01*
X30180Y-46065D01*
X30291Y-46065D01*
X30299Y-46062D01*
X30273Y-46125D01*
X30273Y-46217D01*
X30181Y-46217D01*
X30078Y-46260D01*
X30000Y-46338D01*
X29958Y-46440D01*
X29958Y-46551D01*
X30000Y-46653D01*
X30078Y-46731D01*
X30180Y-46774D01*
X30273Y-46774D01*
X30273Y-46866D01*
X30315Y-46968D01*
X30393Y-47046D01*
X30495Y-47089D01*
X30606Y-47089D01*
X30708Y-47046D01*
X30786Y-46968D01*
X30829Y-46866D01*
X30829Y-46755D01*
X30829Y-67244D01*
X27086Y-67244D01*
X27086Y-68704D01*
X25215Y-68704D01*
X24669Y-68595D01*
X24222Y-68297D01*
X23923Y-67850D01*
X23815Y-67303D01*
X23815Y-62617D01*
X23863Y-62372D01*
X23991Y-62180D01*
X24183Y-62052D01*
X24428Y-62004D01*
X26377Y-62004D01*
X26396Y-62000D01*
X26415Y-62000D01*
X26566Y-61970D01*
X26566Y-61970D01*
X26635Y-61941D01*
X26635Y-61941D01*
X26763Y-61856D01*
X26763Y-61856D01*
X26763Y-61856D01*
X26816Y-61802D01*
X26816Y-61802D01*
X26902Y-61675D01*
X26931Y-61605D01*
X26931Y-61605D01*
X26961Y-61454D01*
X26961Y-61435D01*
X26964Y-61417D01*
X26964Y-49015D01*
X26961Y-48997D01*
X26961Y-48978D01*
X26931Y-48827D01*
X26931Y-48827D01*
X26902Y-48757D01*
X26816Y-48630D01*
X26816Y-48630D01*
X26763Y-48576D01*
X26763Y-48576D01*
X26635Y-48491D01*
X26566Y-48462D01*
X26566Y-48462D01*
X26415Y-48432D01*
X26396Y-48432D01*
X26377Y-48428D01*
X25986Y-48428D01*
X25986Y-46952D01*
X25944Y-46850D01*
X25866Y-46772D01*
X25798Y-46744D01*
X25829Y-46669D01*
X25829Y-46559D01*
X25829Y-45752D01*
X25829Y-44984D01*
X25787Y-44882D01*
X25737Y-44832D01*
X25786Y-44783D01*
X25829Y-44681D01*
X25829Y-44570D01*
X25787Y-44468D01*
X25737Y-44419D01*
X25786Y-44370D01*
X25829Y-44268D01*
X25829Y-44157D01*
X25787Y-44055D01*
X25708Y-43976D01*
X25606Y-43934D01*
X25496Y-43934D01*
X25393Y-43976D01*
X25315Y-44054D01*
X25273Y-44157D01*
X25273Y-44267D01*
X25315Y-44369D01*
X25364Y-44419D01*
X25315Y-44468D01*
X25273Y-44570D01*
X25273Y-44681D01*
X25315Y-44783D01*
X25364Y-44832D01*
X25315Y-44881D01*
X25273Y-44983D01*
X25273Y-45094D01*
X25315Y-45196D01*
X25393Y-45275D01*
X25495Y-45317D01*
X25606Y-45317D01*
X25708Y-45275D01*
X25786Y-45197D01*
X25829Y-45094D01*
X25829Y-44984D01*
X25829Y-45752D01*
X25787Y-45649D01*
X25708Y-45571D01*
X25606Y-45529D01*
X25496Y-45528D01*
X25393Y-45571D01*
X25315Y-45649D01*
X25273Y-45751D01*
X25273Y-45862D01*
X25315Y-45964D01*
X25393Y-46042D01*
X25495Y-46085D01*
X25606Y-46085D01*
X25708Y-46042D01*
X25786Y-45964D01*
X25829Y-45862D01*
X25829Y-45752D01*
X25829Y-46559D01*
X25787Y-46456D01*
X25708Y-46378D01*
X25606Y-46336D01*
X25496Y-46336D01*
X25393Y-46378D01*
X25315Y-46456D01*
X25273Y-46558D01*
X25273Y-46669D01*
X25315Y-46771D01*
X25393Y-46849D01*
X25461Y-46878D01*
X25430Y-46952D01*
X25430Y-47062D01*
X25472Y-47165D01*
X25550Y-47243D01*
X25653Y-47285D01*
X25763Y-47286D01*
X25865Y-47243D01*
X25944Y-47165D01*
X25986Y-47063D01*
X25986Y-46952D01*
X25986Y-48428D01*
X25179Y-48428D01*
X25179Y-45377D01*
X25137Y-45275D01*
X25059Y-45197D01*
X24957Y-45155D01*
X24846Y-45154D01*
X24744Y-45197D01*
X24665Y-45275D01*
X24623Y-45377D01*
X24623Y-45488D01*
X24665Y-45590D01*
X24743Y-45668D01*
X24846Y-45711D01*
X24956Y-45711D01*
X25058Y-45668D01*
X25137Y-45590D01*
X25179Y-45488D01*
X25179Y-45377D01*
X25179Y-48428D01*
X24428Y-48428D01*
X24183Y-48380D01*
X23991Y-48252D01*
X23863Y-48060D01*
X23815Y-47815D01*
X23815Y-40963D01*
X23923Y-40417D01*
X24222Y-39970D01*
X24669Y-39671D01*
X25215Y-39563D01*
X69272Y-39563D01*
X69818Y-39671D01*
X70265Y-39970D01*
X70564Y-40417D01*
X70673Y-40963D01*
X70673Y-67303D01*
M02*
