M48
;DRILL file {Pcbnew (2014-03-01 BZR 4730)-product} date Monday, May 12, 2014 'PMt' 11:38:04 PM
;FORMAT={-:-/ absolute / inch / decimal}
FMAT,2
INCH,TZ
T1C0.014
T2C0.015
T3C0.031
T4C0.055
T5C0.126
T6C0.063
T7C0.067
T8C0.157
%
G90
G05
M72
T1
X2.4075Y-4.2854
X2.4114Y-4.7382
X2.439Y-4.2539
X2.4409Y-6.2598
X2.4409Y-6.4173
X2.4409Y-6.5748
X2.4469Y-4.7657
X2.4705Y-4.4567
X2.4705Y-4.6673
X2.4902Y-4.5433
X2.5433Y-4.6201
X2.5551Y-4.4213
X2.5551Y-4.4626
X2.5551Y-4.5039
X2.5551Y-4.5807
X2.5551Y-4.6614
X2.5709Y-4.7008
X2.5984Y-6.2598
X2.5984Y-6.5748
X2.6772Y-4.0157
X2.6772Y-4.1732
X2.6772Y-6.6535
X2.6772Y-6.811
X2.7559Y-4.8425
X2.7559Y-5.
X2.7559Y-5.1575
X2.7559Y-5.315
X2.7559Y-5.4724
X2.7559Y-5.6299
X2.7559Y-5.7874
X2.7559Y-5.9449
X2.7559Y-6.1024
X2.7559Y-6.2598
X2.8346Y-4.0157
X2.8346Y-6.6535
X2.9547Y-4.2756
X2.9547Y-4.6969
X2.9587Y-4.3996
X2.9843Y-4.313
X2.9843Y-4.7343
X2.9921Y-4.0157
X2.9921Y-6.6535
X3.0157Y-4.3996
X3.0236Y-4.4606
X3.0236Y-4.5787
X3.0236Y-4.6496
X3.0551Y-4.5
X3.0551Y-4.6181
X3.0551Y-4.6811
X3.0709Y-4.7244
X3.1102Y-4.8819
X3.1102Y-5.0394
X3.1102Y-5.8661
X3.1496Y-4.0157
X3.1496Y-6.6535
X3.1496Y-6.811
X3.1555Y-6.2992
X3.1693Y-4.5
X3.1811Y-4.9469
X3.1811Y-5.8799
X3.189Y-4.2638
X3.189Y-4.8031
X3.189Y-5.1181
X3.189Y-5.2756
X3.189Y-5.4331
X3.189Y-5.5906
X3.189Y-5.748
X3.189Y-5.9843
X3.1929Y-4.3169
X3.2087Y-4.4882
X3.2283Y-4.7244
X3.2362Y-4.876
X3.2362Y-5.9508
X3.2421Y-6.1929
X3.2421Y-6.4055
X3.252Y-4.4882
X3.2677Y-6.063
X3.3071Y-4.0157
X3.3071Y-4.8031
X3.3071Y-6.811
X3.311Y-5.1181
X3.315Y-5.5217
X3.315Y-5.561
X3.315Y-5.6004
X3.315Y-5.6398
X3.315Y-5.7382
X3.3228Y-4.9626
X3.3228Y-5.8642
X3.3287Y-6.2992
X3.3858Y-6.1417
X3.4016Y-5.5413
X3.4016Y-5.5807
X3.4055Y-5.1181
X3.4055Y-5.748
X3.4075Y-5.998
X3.4075Y-6.0472
X3.4252Y-4.7244
X3.4252Y-4.9213
X3.4252Y-5.8937
X3.4567Y-5.8622
X3.4646Y-6.811
X3.4843Y-5.9094
X3.4921Y-4.0315
X3.5354Y-4.7953
X3.5669Y-4.7638
X3.5709Y-4.0984
X3.5748Y-5.8858
X3.5827Y-5.9843
X3.622Y-6.811
X3.6417Y-4.9213
X3.6496Y-4.0315
X3.6654Y-4.8228
X3.6929Y-5.4921
X3.7087Y-4.8228
X3.7126Y-5.8346
X3.7402Y-5.9843
X3.752Y-5.5197
X3.7677Y-4.9213
X3.7795Y-6.811
X3.7835Y-4.8602
X3.874Y-5.8346
X3.878Y-4.937
X3.8976Y-5.9843
X3.937Y-6.811
X3.939Y-5.2047
X3.9409Y-5.4449
X3.9409Y-5.5276
X3.9409Y-5.6102
X3.9567Y-5.1654
X3.9646Y-4.0315
X3.9685Y-5.2638
X3.9882Y-5.8091
X4.Y-5.1614
X4.0157Y-5.748
X4.0236Y-5.4449
X4.0236Y-5.5276
X4.0236Y-5.6102
X4.0236Y-5.8406
X4.0315Y-5.2362
X4.0433Y-4.0984
X4.0512Y-5.7874
X4.0551Y-5.9843
X4.061Y-5.1772
X4.0945Y-6.811
X4.0984Y-5.1969
X4.1063Y-5.4449
X4.1063Y-5.5276
X4.1063Y-5.6102
X4.122Y-4.0315
X4.1732Y-4.0157
X4.185Y-4.2618
X4.185Y-4.3366
X4.189Y-5.8701
X4.189Y-5.9134
X4.189Y-5.9567
X4.189Y-6.
X4.2126Y-4.6929
X4.2126Y-4.7874
X4.252Y-6.2992
X4.252Y-6.811
X4.2598Y-5.3346
X4.2795Y-4.2638
X4.2795Y-4.3346
X4.2913Y-5.4921
X4.2913Y-6.1417
X4.3307Y-4.0157
X4.3307Y-6.4567
X4.3346Y-5.5315
X4.374Y-5.4921
X4.4094Y-6.811
X4.4173Y-5.2087
X4.4488Y-5.2402
X4.4488Y-6.5748
X4.4882Y-4.0157
X4.4882Y-6.4567
X4.5669Y-6.6929
X4.5669Y-6.811
X4.5787Y-4.3937
X4.5787Y-4.6693
X4.5787Y-4.7323
X4.5886Y-4.3031
X4.6063Y-6.3386
X4.6063Y-6.5748
X4.622Y-4.2638
X4.6398Y-4.7598
X4.6457Y-4.0157
X4.6457Y-5.7992
X4.6535Y-5.5984
X4.6772Y-5.6378
X4.6772Y-5.939
X4.6772Y-6.0394
X4.6772Y-6.1378
X4.6811Y-4.7283
X4.7244Y-6.6929
X4.7244Y-6.811
X4.7283Y-4.7323
X4.752Y-4.7953
X4.7638Y-5.689
X4.7638Y-6.3386
X4.7677Y-4.4547
X4.7795Y-4.6102
X4.7953Y-4.7953
X4.8031Y-4.0157
X4.8071Y-4.3386
X4.8189Y-4.2756
X4.8307Y-4.4528
X4.8465Y-4.7323
X4.8504Y-5.6378
X4.8504Y-6.1378
X4.8583Y-4.3386
X4.8583Y-4.8268
X4.876Y-5.7402
X4.876Y-5.8406
X4.876Y-6.0394
X4.8819Y-6.6929
X4.8819Y-6.811
X4.8937Y-4.7323
X4.8976Y-4.8268
X4.9055Y-4.3031
X4.9094Y-4.4488
X4.9213Y-6.3386
X4.937Y-4.7638
X4.9469Y-4.3031
X4.9567Y-4.3937
X4.9567Y-4.6693
X4.9705Y-4.7087
X4.9823Y-4.8622
X4.9941Y-4.8051
X5.0079Y-4.8957
X5.0197Y-4.7106
X5.0394Y-6.6929
X5.0394Y-6.811
X5.0453Y-4.8051
X5.0472Y-5.2402
X5.0472Y-5.9409
X5.0472Y-6.1378
X5.0787Y-6.3386
X5.0827Y-4.7106
X5.1142Y-4.7441
X5.1299Y-6.0394
X5.1457Y-4.8228
X5.1575Y-5.5906
X5.1969Y-4.0157
X5.1969Y-4.1732
X5.1969Y-6.4567
X5.1969Y-6.6929
X5.1969Y-6.811
X5.2087Y-4.8661
X5.2362Y-6.1417
X5.2756Y-4.8031
X5.2913Y-5.2795
X5.315Y-4.6457
X5.315Y-5.5906
X5.315Y-6.5748
X5.3543Y-4.0157
X5.3543Y-4.1732
X5.3543Y-6.6929
X5.3543Y-6.811
X5.3622Y-5.311
X5.3937Y-6.1417
X5.4134Y-6.5039
X5.4724Y-4.6457
X5.4724Y-4.7638
X5.4724Y-5.5906
X5.5118Y-4.0157
X5.5118Y-4.1732
X5.5118Y-6.5039
X5.5118Y-6.6929
X5.5118Y-6.811
X5.5512Y-5.315
X5.5512Y-5.8268
X5.5512Y-6.1417
X5.6299Y-5.
X5.6299Y-5.1181
X5.6693Y-4.0157
X5.6693Y-4.1732
X5.6693Y-4.6063
X5.6693Y-5.4331
X5.6693Y-6.6929
X5.6693Y-6.811
X5.7087Y-4.8819
X5.7087Y-5.8268
X5.7087Y-6.1417
X5.748Y-4.3307
X5.748Y-4.5276
X5.748Y-5.1575
X5.7874Y-4.7638
X5.7874Y-5.5512
X5.811Y-6.3031
X5.811Y-6.5039
X5.811Y-6.6772
X5.8268Y-4.0157
X5.8268Y-4.1732
X5.8268Y-4.6063
X5.8268Y-6.811
X5.8661Y-5.1575
X5.8661Y-5.8268
X5.8661Y-6.1417
X5.9055Y-4.2913
X5.9055Y-4.5276
X5.9055Y-6.6929
X5.9134Y-6.3031
X5.9134Y-6.5039
X5.9449Y-4.7638
X5.9449Y-5.5512
X5.9843Y-4.0157
X5.9843Y-4.1732
X5.9843Y-4.6063
X5.9843Y-5.1575
X5.9843Y-6.811
X6.0118Y-6.3031
X6.0236Y-5.315
X6.0236Y-5.8268
X6.0236Y-6.063
X6.063Y-4.3307
X6.063Y-4.5276
X6.063Y-6.6929
X6.1024Y-4.7638
X6.1024Y-4.9213
X6.1024Y-5.0787
X6.1024Y-5.5512
X6.1102Y-6.3031
X6.1102Y-6.4764
X6.1417Y-4.0157
X6.1417Y-4.1732
X6.1417Y-4.6063
X6.1417Y-6.811
X6.1811Y-4.8425
X6.1811Y-5.1969
X6.1811Y-5.315
X6.1811Y-6.063
X6.2126Y-6.5039
X6.2126Y-6.6732
X6.2205Y-4.2913
X6.2205Y-4.685
X6.2598Y-5.5512
X6.2992Y-4.0157
X6.2992Y-4.1732
X6.2992Y-5.1575
X6.2992Y-6.811
X6.311Y-4.3406
X6.311Y-4.6358
X6.3386Y-4.8031
X6.3386Y-5.0394
X6.3386Y-5.315
X6.3386Y-6.063
X6.378Y-6.6929
X6.4055Y-4.3406
X6.4055Y-4.6358
X6.4567Y-4.0157
X6.4567Y-4.1732
X6.4567Y-4.9213
X6.4567Y-5.2362
X6.4567Y-5.3937
X6.4567Y-6.811
X6.4961Y-6.063
X6.4961Y-6.2205
X6.5118Y-6.5039
X6.5118Y-6.6732
X6.5354Y-4.2913
X6.5748Y-4.4488
X6.5748Y-5.0394
X6.6142Y-4.0157
X6.6142Y-4.1732
X6.6142Y-6.811
X6.6535Y-6.2205
X6.6929Y-4.3307
X6.7323Y-4.4488
X6.7323Y-5.0787
X6.7717Y-4.0157
X6.7717Y-4.1732
X6.7717Y-6.3386
X6.7717Y-6.4961
X6.7717Y-6.6535
X6.7717Y-6.811
X6.7756Y-5.2402
X6.7756Y-5.4409
X6.7756Y-5.5394
X6.7756Y-6.0394
X6.8465Y-4.6654
X6.8504Y-6.5748
X6.8898Y-5.0787
X6.9134Y-4.5866
X6.9291Y-4.7598
X6.9291Y-4.7992
X6.9488Y-5.2402
X6.9488Y-5.4409
X6.9488Y-5.5394
X6.9488Y-6.0394
X7.0079Y-4.8425
X7.0079Y-5.
X7.0079Y-5.1575
X7.0079Y-5.315
X7.0079Y-5.4724
X7.0079Y-5.6299
X7.0079Y-5.7874
X7.0079Y-5.9449
X7.0079Y-6.1024
X7.0079Y-6.2598
X7.0079Y-6.4173
X7.0079Y-6.5748
T2
X2.4331Y-4.0945
X2.4331Y-6.7323
X2.4587Y-4.0335
X2.4587Y-4.1555
X2.4587Y-6.6713
X2.4587Y-6.7933
X2.5197Y-4.0079
X2.5197Y-4.1811
X2.5197Y-6.6457
X2.5197Y-6.8189
X2.5807Y-4.0335
X2.5807Y-4.1555
X2.5807Y-6.6713
X2.5807Y-6.7933
X2.6063Y-4.0945
X2.6063Y-6.7323
X4.874Y-4.0945
X4.8996Y-4.0335
X4.8996Y-4.1555
X4.9606Y-4.0079
X4.9606Y-4.1811
X5.0217Y-4.0335
X5.0217Y-4.1555
X5.0472Y-4.0945
X6.8425Y-4.0945
X6.8425Y-6.7323
X6.8681Y-4.0335
X6.8681Y-4.1555
X6.8681Y-6.6713
X6.8681Y-6.7933
X6.9291Y-4.0079
X6.9291Y-4.1811
X6.9291Y-6.6457
X6.9291Y-6.8189
X6.9902Y-4.0335
X6.9902Y-4.1555
X6.9902Y-6.6713
X6.9902Y-6.7933
X7.0157Y-4.0945
X7.0157Y-6.7323
T3
X5.265Y-4.2835
X5.365Y-4.2835
T4
X5.2124Y-5.7185
X5.5493Y-5.1556
X5.5493Y-5.6712
X5.6651Y-4.7776
X5.8508Y-5.4571
X5.9491Y-6.0492
X6.0649Y-5.1556
X6.4017Y-5.1083
X6.4402Y-5.5415
T5
X2.5197Y-4.0945
X2.5197Y-6.7323
X4.9606Y-4.0945
X6.9291Y-4.0945
X6.9291Y-6.7323
T6
X5.6818Y-5.5387
X5.9324Y-5.2881
T7
X3.4252Y-4.0748
X3.4252Y-4.3504
X3.8976Y-4.0748
X3.8976Y-4.3504
X6.5945Y-4.5197
X6.8701Y-4.5197
T8
X5.3895Y-4.9958
X5.3895Y-5.831
X6.2247Y-4.9958
X6.2247Y-5.831
T0
M30
