G04 (created by PCBNEW (2013-mar-13)-testing) date Wed 03 Jul 2013 03:21:25 PM PDT*
%MOIN*%
G04 Gerber Fmt 3.4, Leading zero omitted, Abs format*
%FSLAX34Y34*%
G01*
G70*
G90*
G04 APERTURE LIST*
%ADD10C,0.008000*%
%ADD11C,0.015000*%
%ADD12C,0.005906*%
G04 APERTURE END LIST*
G54D10*
X81358Y-41220D02*
X81358Y-40038D01*
X81358Y-40038D02*
X81948Y-40038D01*
X81948Y-40038D02*
X81948Y-41220D01*
X81948Y-41220D02*
X81358Y-41220D01*
X80649Y-41220D02*
X80649Y-40038D01*
X80649Y-40038D02*
X81239Y-40038D01*
X81239Y-40038D02*
X81239Y-41220D01*
X81239Y-41220D02*
X80649Y-41220D01*
X79941Y-41220D02*
X79941Y-40038D01*
X79941Y-40038D02*
X80531Y-40038D01*
X80531Y-40038D02*
X80531Y-41220D01*
X80531Y-41220D02*
X79941Y-41220D01*
X77854Y-33660D02*
X77854Y-34842D01*
X77854Y-34842D02*
X77264Y-34842D01*
X77264Y-34842D02*
X77264Y-33660D01*
X77264Y-33660D02*
X77854Y-33660D01*
X77145Y-33660D02*
X77145Y-34842D01*
X77145Y-34842D02*
X76555Y-34842D01*
X76555Y-34842D02*
X76555Y-33660D01*
X76555Y-33660D02*
X77145Y-33660D01*
X75019Y-33660D02*
X75019Y-34842D01*
X75019Y-34842D02*
X74429Y-34842D01*
X74429Y-34842D02*
X74429Y-33660D01*
X74429Y-33660D02*
X75019Y-33660D01*
X79507Y-40038D02*
X79507Y-41220D01*
X79507Y-41220D02*
X78917Y-41220D01*
X78917Y-41220D02*
X78917Y-40038D01*
X78917Y-40038D02*
X79507Y-40038D01*
X78798Y-40038D02*
X78798Y-41220D01*
X78798Y-41220D02*
X78208Y-41220D01*
X78208Y-41220D02*
X78208Y-40038D01*
X78208Y-40038D02*
X78798Y-40038D01*
X75846Y-34842D02*
X75846Y-33660D01*
X75846Y-33660D02*
X76436Y-33660D01*
X76436Y-33660D02*
X76436Y-34842D01*
X76436Y-34842D02*
X75846Y-34842D01*
X75138Y-34842D02*
X75138Y-33660D01*
X75138Y-33660D02*
X75728Y-33660D01*
X75728Y-33660D02*
X75728Y-34842D01*
X75728Y-34842D02*
X75138Y-34842D01*
X72657Y-36338D02*
X72657Y-37520D01*
X72657Y-37520D02*
X72067Y-37520D01*
X72067Y-37520D02*
X72067Y-36338D01*
X72067Y-36338D02*
X72657Y-36338D01*
X72657Y-34999D02*
X72657Y-36181D01*
X72657Y-36181D02*
X72067Y-36181D01*
X72067Y-36181D02*
X72067Y-34999D01*
X72067Y-34999D02*
X72657Y-34999D01*
X83188Y-39705D02*
X84370Y-39705D01*
X84370Y-39705D02*
X84370Y-40295D01*
X84370Y-40295D02*
X83188Y-40295D01*
X83188Y-40295D02*
X83188Y-39705D01*
X66830Y-46820D02*
X66830Y-45620D01*
X66830Y-45620D02*
X67420Y-45620D01*
X67420Y-45620D02*
X67420Y-46820D01*
X67420Y-46820D02*
X66830Y-46820D01*
X77106Y-39418D02*
X77106Y-38218D01*
X77106Y-38218D02*
X77696Y-38218D01*
X77696Y-38218D02*
X77696Y-39418D01*
X77696Y-39418D02*
X77106Y-39418D01*
X66751Y-49400D02*
X66751Y-50600D01*
X66751Y-50600D02*
X66161Y-50600D01*
X66161Y-50600D02*
X66161Y-49400D01*
X66161Y-49400D02*
X66751Y-49400D01*
X80502Y-39153D02*
X81702Y-39153D01*
X81702Y-39153D02*
X81702Y-39743D01*
X81702Y-39743D02*
X80502Y-39743D01*
X80502Y-39743D02*
X80502Y-39153D01*
X55245Y-45491D02*
X54045Y-45491D01*
X54045Y-45491D02*
X54045Y-44901D01*
X54045Y-44901D02*
X55245Y-44901D01*
X55245Y-44901D02*
X55245Y-45491D01*
X58316Y-45491D02*
X57116Y-45491D01*
X57116Y-45491D02*
X57116Y-44901D01*
X57116Y-44901D02*
X58316Y-44901D01*
X58316Y-44901D02*
X58316Y-45491D01*
X55245Y-44861D02*
X54045Y-44861D01*
X54045Y-44861D02*
X54045Y-44271D01*
X54045Y-44271D02*
X55245Y-44271D01*
X55245Y-44271D02*
X55245Y-44861D01*
X55009Y-39822D02*
X53809Y-39822D01*
X53809Y-39822D02*
X53809Y-39232D01*
X53809Y-39232D02*
X55009Y-39232D01*
X55009Y-39232D02*
X55009Y-39822D01*
X56662Y-39822D02*
X55462Y-39822D01*
X55462Y-39822D02*
X55462Y-39232D01*
X55462Y-39232D02*
X56662Y-39232D01*
X56662Y-39232D02*
X56662Y-39822D01*
X59390Y-41229D02*
X59390Y-40029D01*
X59390Y-40029D02*
X59980Y-40029D01*
X59980Y-40029D02*
X59980Y-41229D01*
X59980Y-41229D02*
X59390Y-41229D01*
X58316Y-44861D02*
X57116Y-44861D01*
X57116Y-44861D02*
X57116Y-44271D01*
X57116Y-44271D02*
X58316Y-44271D01*
X58316Y-44271D02*
X58316Y-44861D01*
X55009Y-40452D02*
X53809Y-40452D01*
X53809Y-40452D02*
X53809Y-39862D01*
X53809Y-39862D02*
X55009Y-39862D01*
X55009Y-39862D02*
X55009Y-40452D01*
X56662Y-40452D02*
X55462Y-40452D01*
X55462Y-40452D02*
X55462Y-39862D01*
X55462Y-39862D02*
X56662Y-39862D01*
X56662Y-39862D02*
X56662Y-40452D01*
X58760Y-41229D02*
X58760Y-40029D01*
X58760Y-40029D02*
X59350Y-40029D01*
X59350Y-40029D02*
X59350Y-41229D01*
X59350Y-41229D02*
X58760Y-41229D01*
X65157Y-53464D02*
X65157Y-49133D01*
X63582Y-53858D02*
X64567Y-53858D01*
X60433Y-49133D02*
X60433Y-53464D01*
X62008Y-53858D02*
X61023Y-53858D01*
X61614Y-54645D02*
X63976Y-54645D01*
X63976Y-54645D02*
X63976Y-53858D01*
X61614Y-54645D02*
X61614Y-53858D01*
X65157Y-53464D02*
X64567Y-53464D01*
X64567Y-53464D02*
X64567Y-53858D01*
X60433Y-53464D02*
X61023Y-53464D01*
X61023Y-53464D02*
X61023Y-53858D01*
X62008Y-53385D02*
X63582Y-53385D01*
X63582Y-53858D02*
X63582Y-53385D01*
X62008Y-53858D02*
X62008Y-53385D01*
X65157Y-49133D02*
X60433Y-49133D01*
X60039Y-53464D02*
X60039Y-49133D01*
X58464Y-53858D02*
X59449Y-53858D01*
X55315Y-49133D02*
X55315Y-53464D01*
X56890Y-53858D02*
X55905Y-53858D01*
X56496Y-54645D02*
X58858Y-54645D01*
X58858Y-54645D02*
X58858Y-53858D01*
X56496Y-54645D02*
X56496Y-53858D01*
X60039Y-53464D02*
X59449Y-53464D01*
X59449Y-53464D02*
X59449Y-53858D01*
X55315Y-53464D02*
X55905Y-53464D01*
X55905Y-53464D02*
X55905Y-53858D01*
X56890Y-53385D02*
X58464Y-53385D01*
X58464Y-53858D02*
X58464Y-53385D01*
X56890Y-53858D02*
X56890Y-53385D01*
X60039Y-49133D02*
X55315Y-49133D01*
X54232Y-42794D02*
X54232Y-43976D01*
X54232Y-43976D02*
X53642Y-43976D01*
X53642Y-43976D02*
X53642Y-42794D01*
X53642Y-42794D02*
X54232Y-42794D01*
X61772Y-48956D02*
X60590Y-48956D01*
X60590Y-48956D02*
X60590Y-48366D01*
X60590Y-48366D02*
X61772Y-48366D01*
X61772Y-48366D02*
X61772Y-48956D01*
X65000Y-48956D02*
X63818Y-48956D01*
X63818Y-48956D02*
X63818Y-48366D01*
X63818Y-48366D02*
X65000Y-48366D01*
X65000Y-48366D02*
X65000Y-48956D01*
X55925Y-47362D02*
X55925Y-46180D01*
X55925Y-46180D02*
X56515Y-46180D01*
X56515Y-46180D02*
X56515Y-47362D01*
X56515Y-47362D02*
X55925Y-47362D01*
X55314Y-48366D02*
X56496Y-48366D01*
X56496Y-48366D02*
X56496Y-48956D01*
X56496Y-48956D02*
X55314Y-48956D01*
X55314Y-48956D02*
X55314Y-48366D01*
X55295Y-47598D02*
X55295Y-46416D01*
X55295Y-46416D02*
X55885Y-46416D01*
X55885Y-46416D02*
X55885Y-47598D01*
X55885Y-47598D02*
X55295Y-47598D01*
X61771Y-44015D02*
X59881Y-44015D01*
X62480Y-47323D02*
X62480Y-44724D01*
X59172Y-44724D02*
X59172Y-47323D01*
X59881Y-44015D02*
X59172Y-44724D01*
X61771Y-44015D02*
X62480Y-44724D01*
X59172Y-47323D02*
X62480Y-47323D01*
X62401Y-45669D02*
G75*
G03X62401Y-45669I-1575J0D01*
G74*
G01*
X62696Y-43415D02*
X62696Y-47923D01*
X62696Y-47923D02*
X58956Y-47923D01*
X58956Y-47923D02*
X58956Y-43415D01*
X58956Y-43415D02*
X62696Y-43415D01*
X65708Y-44015D02*
X63818Y-44015D01*
X66417Y-47323D02*
X66417Y-44724D01*
X63109Y-44724D02*
X63109Y-47323D01*
X63818Y-44015D02*
X63109Y-44724D01*
X65708Y-44015D02*
X66417Y-44724D01*
X63109Y-47323D02*
X66417Y-47323D01*
X66338Y-45669D02*
G75*
G03X66338Y-45669I-1574J0D01*
G74*
G01*
X66633Y-43415D02*
X66633Y-47923D01*
X66633Y-47923D02*
X62893Y-47923D01*
X62893Y-47923D02*
X62893Y-43415D01*
X62893Y-43415D02*
X66633Y-43415D01*
X56633Y-48947D02*
X56633Y-46171D01*
X56633Y-46171D02*
X58799Y-46171D01*
X58799Y-46171D02*
X58799Y-48947D01*
X58799Y-48947D02*
X56633Y-48947D01*
X58562Y-48405D02*
X58562Y-47067D01*
X57224Y-46713D02*
X58208Y-46713D01*
X56870Y-47067D02*
X56870Y-48405D01*
X57224Y-46713D02*
X56870Y-47067D01*
X58208Y-46713D02*
X58562Y-47067D01*
X58503Y-47559D02*
G75*
G03X58503Y-47559I-787J0D01*
G74*
G01*
X58562Y-48405D02*
X56870Y-48405D01*
X56505Y-48326D02*
X55305Y-48326D01*
X55305Y-48326D02*
X55305Y-47736D01*
X55305Y-47736D02*
X56505Y-47736D01*
X56505Y-47736D02*
X56505Y-48326D01*
X66968Y-49212D02*
X70039Y-49212D01*
X67135Y-50413D02*
G75*
G03X67135Y-50413I-39J0D01*
G74*
G01*
X66850Y-50196D02*
X66850Y-47125D01*
X66850Y-47125D02*
X70157Y-47125D01*
X70157Y-47125D02*
X70157Y-50196D01*
X70157Y-50196D02*
X66850Y-50196D01*
X66968Y-49379D02*
X66968Y-47942D01*
X66968Y-47942D02*
X70039Y-47942D01*
X70039Y-47942D02*
X70039Y-49379D01*
X70039Y-49379D02*
X66968Y-49379D01*
X70432Y-33090D02*
X71614Y-33090D01*
X71614Y-33090D02*
X71614Y-33680D01*
X71614Y-33680D02*
X70432Y-33680D01*
X70432Y-33680D02*
X70432Y-33090D01*
X70432Y-32460D02*
X71614Y-32460D01*
X71614Y-32460D02*
X71614Y-33050D01*
X71614Y-33050D02*
X70432Y-33050D01*
X70432Y-33050D02*
X70432Y-32460D01*
X70432Y-31830D02*
X71614Y-31830D01*
X71614Y-31830D02*
X71614Y-32420D01*
X71614Y-32420D02*
X70432Y-32420D01*
X70432Y-32420D02*
X70432Y-31830D01*
X71614Y-36200D02*
X70432Y-36200D01*
X70432Y-36200D02*
X70432Y-35610D01*
X70432Y-35610D02*
X71614Y-35610D01*
X71614Y-35610D02*
X71614Y-36200D01*
X71614Y-35570D02*
X70432Y-35570D01*
X70432Y-35570D02*
X70432Y-34980D01*
X70432Y-34980D02*
X71614Y-34980D01*
X71614Y-34980D02*
X71614Y-35570D01*
X71614Y-34940D02*
X70432Y-34940D01*
X70432Y-34940D02*
X70432Y-34350D01*
X70432Y-34350D02*
X71614Y-34350D01*
X71614Y-34350D02*
X71614Y-34940D01*
X71614Y-34310D02*
X70432Y-34310D01*
X70432Y-34310D02*
X70432Y-33720D01*
X70432Y-33720D02*
X71614Y-33720D01*
X71614Y-33720D02*
X71614Y-34310D01*
X80236Y-39015D02*
X80236Y-35944D01*
X81476Y-38887D02*
G75*
G03X81476Y-38887I-39J0D01*
G74*
G01*
X81220Y-39133D02*
X78149Y-39133D01*
X78149Y-39133D02*
X78149Y-35826D01*
X78149Y-35826D02*
X81220Y-35826D01*
X81220Y-35826D02*
X81220Y-39133D01*
X80403Y-39015D02*
X78966Y-39015D01*
X78966Y-39015D02*
X78966Y-35944D01*
X78966Y-35944D02*
X80403Y-35944D01*
X80403Y-35944D02*
X80403Y-39015D01*
X58198Y-40275D02*
G75*
G03X58198Y-40275I-39J0D01*
G74*
G01*
X58503Y-41614D02*
X54488Y-41614D01*
X58661Y-40481D02*
X58661Y-44163D01*
X58661Y-44163D02*
X54331Y-44163D01*
X54331Y-44163D02*
X54331Y-40481D01*
X54331Y-40481D02*
X58661Y-40481D01*
X58504Y-41436D02*
X58504Y-43208D01*
X58504Y-43208D02*
X54488Y-43208D01*
X54488Y-43208D02*
X54488Y-41436D01*
X54488Y-41436D02*
X58504Y-41436D01*
X75266Y-41909D02*
X76466Y-41909D01*
X76466Y-41909D02*
X76466Y-42499D01*
X76466Y-42499D02*
X75266Y-42499D01*
X75266Y-42499D02*
X75266Y-41909D01*
X75452Y-39990D02*
X75452Y-41190D01*
X75452Y-41190D02*
X74862Y-41190D01*
X74862Y-41190D02*
X74862Y-39990D01*
X74862Y-39990D02*
X75452Y-39990D01*
X77067Y-41181D02*
X77067Y-39999D01*
X77067Y-39999D02*
X77657Y-39999D01*
X77657Y-39999D02*
X77657Y-41181D01*
X77657Y-41181D02*
X77067Y-41181D01*
X76850Y-39743D02*
X75668Y-39743D01*
X75668Y-39743D02*
X75668Y-39153D01*
X75668Y-39153D02*
X76850Y-39153D01*
X76850Y-39153D02*
X76850Y-39743D01*
X75688Y-41013D02*
X75688Y-40639D01*
X75688Y-40639D02*
X76830Y-40639D01*
X76830Y-40639D02*
X76830Y-41013D01*
X76830Y-41013D02*
X75688Y-41013D01*
X75924Y-40905D02*
G75*
G03X75924Y-40905I-39J0D01*
G74*
G01*
X75560Y-41672D02*
X75560Y-39980D01*
X75560Y-39980D02*
X76958Y-39980D01*
X76958Y-39980D02*
X76958Y-41672D01*
X76958Y-41672D02*
X75560Y-41672D01*
X71948Y-37637D02*
X70413Y-37637D01*
X70413Y-37637D02*
X70413Y-36220D01*
X70413Y-36220D02*
X71948Y-36220D01*
X71948Y-36220D02*
X71948Y-37637D01*
X71299Y-37500D02*
X71062Y-37500D01*
X71062Y-37500D02*
X71062Y-36358D01*
X71062Y-36358D02*
X71299Y-36358D01*
X71299Y-36358D02*
X71299Y-37500D01*
G54D11*
X52305Y-47120D02*
X53805Y-47120D01*
X53805Y-47120D02*
X53805Y-48370D01*
X53805Y-48370D02*
X52305Y-48370D01*
X52305Y-48370D02*
X52305Y-47120D01*
X52555Y-47370D02*
X53555Y-47370D01*
X53555Y-47370D02*
X53555Y-53370D01*
X53555Y-53370D02*
X52555Y-53370D01*
X52555Y-53370D02*
X52555Y-47370D01*
X72805Y-51120D02*
X71555Y-51120D01*
X71555Y-51120D02*
X71555Y-52370D01*
X71555Y-52370D02*
X72805Y-52370D01*
X72805Y-52370D02*
X72805Y-51120D01*
X72555Y-51370D02*
X66555Y-51370D01*
X66555Y-51370D02*
X66555Y-53370D01*
X66555Y-53370D02*
X72555Y-53370D01*
X72555Y-53370D02*
X72555Y-51370D01*
X74305Y-52120D02*
X75555Y-52120D01*
X75555Y-52120D02*
X75555Y-53620D01*
X75555Y-53620D02*
X74305Y-53620D01*
X74305Y-53620D02*
X74305Y-52120D01*
X74555Y-53370D02*
X74555Y-52370D01*
X74555Y-52370D02*
X80555Y-52370D01*
X80555Y-52370D02*
X80555Y-53370D01*
X80555Y-53370D02*
X74555Y-53370D01*
X83555Y-50370D02*
X83555Y-49120D01*
X83555Y-49120D02*
X84805Y-49120D01*
X84805Y-49120D02*
X84805Y-50370D01*
X84805Y-50370D02*
X83555Y-50370D01*
X84555Y-49370D02*
X84555Y-51370D01*
X84555Y-51370D02*
X81555Y-51370D01*
X81555Y-51370D02*
X81555Y-49370D01*
X81555Y-49370D02*
X84555Y-49370D01*
X83555Y-46370D02*
X84805Y-46370D01*
X84805Y-46370D02*
X84805Y-47620D01*
X84805Y-47620D02*
X83555Y-47620D01*
X83555Y-47620D02*
X83555Y-46370D01*
X84555Y-47370D02*
X82555Y-47370D01*
X82555Y-47370D02*
X82555Y-41370D01*
X82555Y-41370D02*
X84555Y-41370D01*
X84555Y-41370D02*
X84555Y-47370D01*
X81555Y-32870D02*
X81555Y-31620D01*
X81555Y-31620D02*
X82805Y-31620D01*
X82805Y-31620D02*
X82805Y-32870D01*
X82805Y-32870D02*
X81555Y-32870D01*
X82555Y-31870D02*
X82555Y-33870D01*
X82555Y-33870D02*
X78555Y-33870D01*
X78555Y-33870D02*
X78555Y-31870D01*
X78555Y-31870D02*
X82555Y-31870D01*
X83555Y-38370D02*
X84805Y-38370D01*
X84805Y-38370D02*
X84805Y-39620D01*
X84805Y-39620D02*
X83555Y-39620D01*
X83555Y-39620D02*
X83555Y-38370D01*
X84555Y-39370D02*
X82555Y-39370D01*
X82555Y-39370D02*
X82555Y-34370D01*
X82555Y-34370D02*
X84555Y-34370D01*
X84555Y-34370D02*
X84555Y-39370D01*
G54D10*
X87661Y-52295D02*
G75*
G03X87661Y-52295I-1181J0D01*
G74*
G01*
X87661Y-26444D02*
G75*
G03X87661Y-26444I-1181J0D01*
G74*
G01*
X69744Y-34968D02*
X69744Y-35244D01*
X60177Y-34968D02*
X60177Y-35244D01*
X59940Y-35244D02*
X69980Y-35244D01*
X59940Y-35244D02*
X59940Y-35637D01*
X59940Y-35637D02*
X60177Y-35637D01*
X60177Y-35637D02*
X60177Y-37212D01*
X69980Y-35244D02*
X69980Y-35637D01*
X69980Y-35637D02*
X69744Y-35637D01*
X69744Y-35637D02*
X69744Y-37212D01*
X69980Y-34574D02*
X69980Y-34968D01*
X59940Y-34574D02*
X59940Y-34968D01*
X60177Y-34574D02*
X59940Y-34574D01*
X59940Y-34968D02*
X60177Y-34968D01*
X69744Y-34574D02*
X69980Y-34574D01*
X69980Y-34968D02*
X69744Y-34968D01*
X69744Y-34574D02*
X60177Y-34574D01*
X60177Y-37212D02*
X69744Y-37212D01*
G54D12*
X81831Y-42142D02*
X81644Y-42274D01*
X81831Y-42367D02*
X81437Y-42367D01*
X81437Y-42217D01*
X81456Y-42180D01*
X81475Y-42161D01*
X81512Y-42142D01*
X81569Y-42142D01*
X81606Y-42161D01*
X81625Y-42180D01*
X81644Y-42217D01*
X81644Y-42367D01*
X81437Y-42011D02*
X81437Y-41767D01*
X81587Y-41899D01*
X81587Y-41842D01*
X81606Y-41805D01*
X81625Y-41786D01*
X81662Y-41767D01*
X81756Y-41767D01*
X81794Y-41786D01*
X81812Y-41805D01*
X81831Y-41842D01*
X81831Y-41955D01*
X81812Y-41992D01*
X81794Y-42011D01*
X81831Y-41392D02*
X81831Y-41617D01*
X81831Y-41505D02*
X81437Y-41505D01*
X81494Y-41542D01*
X81531Y-41580D01*
X81550Y-41617D01*
X81122Y-42142D02*
X80935Y-42274D01*
X81122Y-42367D02*
X80729Y-42367D01*
X80729Y-42217D01*
X80748Y-42180D01*
X80766Y-42161D01*
X80804Y-42142D01*
X80860Y-42142D01*
X80898Y-42161D01*
X80916Y-42180D01*
X80935Y-42217D01*
X80935Y-42367D01*
X80729Y-42011D02*
X80729Y-41767D01*
X80879Y-41899D01*
X80879Y-41842D01*
X80898Y-41805D01*
X80916Y-41786D01*
X80954Y-41767D01*
X81047Y-41767D01*
X81085Y-41786D01*
X81104Y-41805D01*
X81122Y-41842D01*
X81122Y-41955D01*
X81104Y-41992D01*
X81085Y-42011D01*
X80729Y-41524D02*
X80729Y-41486D01*
X80748Y-41449D01*
X80766Y-41430D01*
X80804Y-41411D01*
X80879Y-41392D01*
X80973Y-41392D01*
X81047Y-41411D01*
X81085Y-41430D01*
X81104Y-41449D01*
X81122Y-41486D01*
X81122Y-41524D01*
X81104Y-41561D01*
X81085Y-41580D01*
X81047Y-41599D01*
X80973Y-41617D01*
X80879Y-41617D01*
X80804Y-41599D01*
X80766Y-41580D01*
X80748Y-41561D01*
X80729Y-41524D01*
X80414Y-42142D02*
X80226Y-42274D01*
X80414Y-42367D02*
X80020Y-42367D01*
X80020Y-42217D01*
X80039Y-42180D01*
X80058Y-42161D01*
X80095Y-42142D01*
X80151Y-42142D01*
X80189Y-42161D01*
X80208Y-42180D01*
X80226Y-42217D01*
X80226Y-42367D01*
X80058Y-41992D02*
X80039Y-41974D01*
X80020Y-41936D01*
X80020Y-41842D01*
X80039Y-41805D01*
X80058Y-41786D01*
X80095Y-41767D01*
X80133Y-41767D01*
X80189Y-41786D01*
X80414Y-42011D01*
X80414Y-41767D01*
X80414Y-41580D02*
X80414Y-41505D01*
X80395Y-41467D01*
X80376Y-41449D01*
X80320Y-41411D01*
X80245Y-41392D01*
X80095Y-41392D01*
X80058Y-41411D01*
X80039Y-41430D01*
X80020Y-41467D01*
X80020Y-41542D01*
X80039Y-41580D01*
X80058Y-41599D01*
X80095Y-41617D01*
X80189Y-41617D01*
X80226Y-41599D01*
X80245Y-41580D01*
X80264Y-41542D01*
X80264Y-41467D01*
X80245Y-41430D01*
X80226Y-41411D01*
X80189Y-41392D01*
X77737Y-35764D02*
X77549Y-35896D01*
X77737Y-35989D02*
X77343Y-35989D01*
X77343Y-35839D01*
X77362Y-35802D01*
X77380Y-35783D01*
X77418Y-35764D01*
X77474Y-35764D01*
X77512Y-35783D01*
X77530Y-35802D01*
X77549Y-35839D01*
X77549Y-35989D01*
X77380Y-35614D02*
X77362Y-35596D01*
X77343Y-35558D01*
X77343Y-35464D01*
X77362Y-35427D01*
X77380Y-35408D01*
X77418Y-35389D01*
X77455Y-35389D01*
X77512Y-35408D01*
X77737Y-35633D01*
X77737Y-35389D01*
X77512Y-35164D02*
X77493Y-35202D01*
X77474Y-35221D01*
X77437Y-35239D01*
X77418Y-35239D01*
X77380Y-35221D01*
X77362Y-35202D01*
X77343Y-35164D01*
X77343Y-35089D01*
X77362Y-35052D01*
X77380Y-35033D01*
X77418Y-35014D01*
X77437Y-35014D01*
X77474Y-35033D01*
X77493Y-35052D01*
X77512Y-35089D01*
X77512Y-35164D01*
X77530Y-35202D01*
X77549Y-35221D01*
X77587Y-35239D01*
X77662Y-35239D01*
X77699Y-35221D01*
X77718Y-35202D01*
X77737Y-35164D01*
X77737Y-35089D01*
X77718Y-35052D01*
X77699Y-35033D01*
X77662Y-35014D01*
X77587Y-35014D01*
X77549Y-35033D01*
X77530Y-35052D01*
X77512Y-35089D01*
X77028Y-35764D02*
X76841Y-35896D01*
X77028Y-35989D02*
X76634Y-35989D01*
X76634Y-35839D01*
X76653Y-35802D01*
X76672Y-35783D01*
X76709Y-35764D01*
X76766Y-35764D01*
X76803Y-35783D01*
X76822Y-35802D01*
X76841Y-35839D01*
X76841Y-35989D01*
X76672Y-35614D02*
X76653Y-35596D01*
X76634Y-35558D01*
X76634Y-35464D01*
X76653Y-35427D01*
X76672Y-35408D01*
X76709Y-35389D01*
X76747Y-35389D01*
X76803Y-35408D01*
X77028Y-35633D01*
X77028Y-35389D01*
X76634Y-35258D02*
X76634Y-34996D01*
X77028Y-35164D01*
X74902Y-35764D02*
X74715Y-35896D01*
X74902Y-35989D02*
X74508Y-35989D01*
X74508Y-35839D01*
X74527Y-35802D01*
X74546Y-35783D01*
X74583Y-35764D01*
X74640Y-35764D01*
X74677Y-35783D01*
X74696Y-35802D01*
X74715Y-35839D01*
X74715Y-35989D01*
X74546Y-35614D02*
X74527Y-35596D01*
X74508Y-35558D01*
X74508Y-35464D01*
X74527Y-35427D01*
X74546Y-35408D01*
X74583Y-35389D01*
X74621Y-35389D01*
X74677Y-35408D01*
X74902Y-35633D01*
X74902Y-35389D01*
X74508Y-35052D02*
X74508Y-35127D01*
X74527Y-35164D01*
X74546Y-35183D01*
X74602Y-35221D01*
X74677Y-35239D01*
X74827Y-35239D01*
X74865Y-35221D01*
X74883Y-35202D01*
X74902Y-35164D01*
X74902Y-35089D01*
X74883Y-35052D01*
X74865Y-35033D01*
X74827Y-35014D01*
X74733Y-35014D01*
X74696Y-35033D01*
X74677Y-35052D01*
X74658Y-35089D01*
X74658Y-35164D01*
X74677Y-35202D01*
X74696Y-35221D01*
X74733Y-35239D01*
X79390Y-42142D02*
X79203Y-42274D01*
X79390Y-42367D02*
X78997Y-42367D01*
X78997Y-42217D01*
X79015Y-42180D01*
X79034Y-42161D01*
X79071Y-42142D01*
X79128Y-42142D01*
X79165Y-42161D01*
X79184Y-42180D01*
X79203Y-42217D01*
X79203Y-42367D01*
X79034Y-41992D02*
X79015Y-41974D01*
X78997Y-41936D01*
X78997Y-41842D01*
X79015Y-41805D01*
X79034Y-41786D01*
X79071Y-41767D01*
X79109Y-41767D01*
X79165Y-41786D01*
X79390Y-42011D01*
X79390Y-41767D01*
X78997Y-41411D02*
X78997Y-41599D01*
X79184Y-41617D01*
X79165Y-41599D01*
X79146Y-41561D01*
X79146Y-41467D01*
X79165Y-41430D01*
X79184Y-41411D01*
X79221Y-41392D01*
X79315Y-41392D01*
X79353Y-41411D01*
X79371Y-41430D01*
X79390Y-41467D01*
X79390Y-41561D01*
X79371Y-41599D01*
X79353Y-41617D01*
X78682Y-42142D02*
X78494Y-42274D01*
X78682Y-42367D02*
X78288Y-42367D01*
X78288Y-42217D01*
X78307Y-42180D01*
X78325Y-42161D01*
X78363Y-42142D01*
X78419Y-42142D01*
X78457Y-42161D01*
X78475Y-42180D01*
X78494Y-42217D01*
X78494Y-42367D01*
X78325Y-41992D02*
X78307Y-41974D01*
X78288Y-41936D01*
X78288Y-41842D01*
X78307Y-41805D01*
X78325Y-41786D01*
X78363Y-41767D01*
X78400Y-41767D01*
X78457Y-41786D01*
X78682Y-42011D01*
X78682Y-41767D01*
X78419Y-41430D02*
X78682Y-41430D01*
X78269Y-41524D02*
X78550Y-41617D01*
X78550Y-41374D01*
X76319Y-35764D02*
X76132Y-35896D01*
X76319Y-35989D02*
X75926Y-35989D01*
X75926Y-35839D01*
X75944Y-35802D01*
X75963Y-35783D01*
X76001Y-35764D01*
X76057Y-35764D01*
X76094Y-35783D01*
X76113Y-35802D01*
X76132Y-35839D01*
X76132Y-35989D01*
X75963Y-35614D02*
X75944Y-35596D01*
X75926Y-35558D01*
X75926Y-35464D01*
X75944Y-35427D01*
X75963Y-35408D01*
X76001Y-35389D01*
X76038Y-35389D01*
X76094Y-35408D01*
X76319Y-35633D01*
X76319Y-35389D01*
X75926Y-35258D02*
X75926Y-35014D01*
X76076Y-35146D01*
X76076Y-35089D01*
X76094Y-35052D01*
X76113Y-35033D01*
X76151Y-35014D01*
X76244Y-35014D01*
X76282Y-35033D01*
X76301Y-35052D01*
X76319Y-35089D01*
X76319Y-35202D01*
X76301Y-35239D01*
X76282Y-35258D01*
X75611Y-35764D02*
X75423Y-35896D01*
X75611Y-35989D02*
X75217Y-35989D01*
X75217Y-35839D01*
X75236Y-35802D01*
X75254Y-35783D01*
X75292Y-35764D01*
X75348Y-35764D01*
X75386Y-35783D01*
X75404Y-35802D01*
X75423Y-35839D01*
X75423Y-35989D01*
X75254Y-35614D02*
X75236Y-35596D01*
X75217Y-35558D01*
X75217Y-35464D01*
X75236Y-35427D01*
X75254Y-35408D01*
X75292Y-35389D01*
X75329Y-35389D01*
X75386Y-35408D01*
X75611Y-35633D01*
X75611Y-35389D01*
X75254Y-35239D02*
X75236Y-35221D01*
X75217Y-35183D01*
X75217Y-35089D01*
X75236Y-35052D01*
X75254Y-35033D01*
X75292Y-35014D01*
X75329Y-35014D01*
X75386Y-35033D01*
X75611Y-35258D01*
X75611Y-35014D01*
X73248Y-37182D02*
X73061Y-37313D01*
X73248Y-37407D02*
X72855Y-37407D01*
X72855Y-37257D01*
X72874Y-37219D01*
X72892Y-37200D01*
X72930Y-37182D01*
X72986Y-37182D01*
X73023Y-37200D01*
X73042Y-37219D01*
X73061Y-37257D01*
X73061Y-37407D01*
X72892Y-37032D02*
X72874Y-37013D01*
X72855Y-36976D01*
X72855Y-36882D01*
X72874Y-36844D01*
X72892Y-36826D01*
X72930Y-36807D01*
X72967Y-36807D01*
X73023Y-36826D01*
X73248Y-37050D01*
X73248Y-36807D01*
X72855Y-36563D02*
X72855Y-36526D01*
X72874Y-36488D01*
X72892Y-36469D01*
X72930Y-36451D01*
X73005Y-36432D01*
X73098Y-36432D01*
X73173Y-36451D01*
X73211Y-36469D01*
X73230Y-36488D01*
X73248Y-36526D01*
X73248Y-36563D01*
X73230Y-36601D01*
X73211Y-36619D01*
X73173Y-36638D01*
X73098Y-36657D01*
X73005Y-36657D01*
X72930Y-36638D01*
X72892Y-36619D01*
X72874Y-36601D01*
X72855Y-36563D01*
X73248Y-35843D02*
X73061Y-35974D01*
X73248Y-36068D02*
X72855Y-36068D01*
X72855Y-35918D01*
X72874Y-35881D01*
X72892Y-35862D01*
X72930Y-35843D01*
X72986Y-35843D01*
X73023Y-35862D01*
X73042Y-35881D01*
X73061Y-35918D01*
X73061Y-36068D01*
X73248Y-35468D02*
X73248Y-35693D01*
X73248Y-35581D02*
X72855Y-35581D01*
X72911Y-35618D01*
X72949Y-35656D01*
X72967Y-35693D01*
X73248Y-35281D02*
X73248Y-35206D01*
X73230Y-35168D01*
X73211Y-35149D01*
X73155Y-35112D01*
X73080Y-35093D01*
X72930Y-35093D01*
X72892Y-35112D01*
X72874Y-35131D01*
X72855Y-35168D01*
X72855Y-35243D01*
X72874Y-35281D01*
X72892Y-35299D01*
X72930Y-35318D01*
X73023Y-35318D01*
X73061Y-35299D01*
X73080Y-35281D01*
X73098Y-35243D01*
X73098Y-35168D01*
X73080Y-35131D01*
X73061Y-35112D01*
X73023Y-35093D01*
X83526Y-40886D02*
X83395Y-40699D01*
X83301Y-40886D02*
X83301Y-40493D01*
X83451Y-40493D01*
X83488Y-40511D01*
X83507Y-40530D01*
X83526Y-40568D01*
X83526Y-40624D01*
X83507Y-40661D01*
X83488Y-40680D01*
X83451Y-40699D01*
X83301Y-40699D01*
X83901Y-40886D02*
X83676Y-40886D01*
X83788Y-40886D02*
X83788Y-40493D01*
X83751Y-40549D01*
X83713Y-40586D01*
X83676Y-40605D01*
X84126Y-40661D02*
X84088Y-40643D01*
X84070Y-40624D01*
X84051Y-40586D01*
X84051Y-40568D01*
X84070Y-40530D01*
X84088Y-40511D01*
X84126Y-40493D01*
X84201Y-40493D01*
X84238Y-40511D01*
X84257Y-40530D01*
X84276Y-40568D01*
X84276Y-40586D01*
X84257Y-40624D01*
X84238Y-40643D01*
X84201Y-40661D01*
X84126Y-40661D01*
X84088Y-40680D01*
X84070Y-40699D01*
X84051Y-40736D01*
X84051Y-40811D01*
X84070Y-40849D01*
X84088Y-40868D01*
X84126Y-40886D01*
X84201Y-40886D01*
X84238Y-40868D01*
X84257Y-40849D01*
X84276Y-40811D01*
X84276Y-40736D01*
X84257Y-40699D01*
X84238Y-40680D01*
X84201Y-40661D01*
X67935Y-46394D02*
X67954Y-46413D01*
X67973Y-46469D01*
X67973Y-46507D01*
X67954Y-46563D01*
X67917Y-46601D01*
X67879Y-46619D01*
X67804Y-46638D01*
X67748Y-46638D01*
X67673Y-46619D01*
X67635Y-46601D01*
X67598Y-46563D01*
X67579Y-46507D01*
X67579Y-46469D01*
X67598Y-46413D01*
X67617Y-46394D01*
X67617Y-46244D02*
X67598Y-46226D01*
X67579Y-46188D01*
X67579Y-46094D01*
X67598Y-46057D01*
X67617Y-46038D01*
X67654Y-46019D01*
X67692Y-46019D01*
X67748Y-46038D01*
X67973Y-46263D01*
X67973Y-46019D01*
X67617Y-45869D02*
X67598Y-45851D01*
X67579Y-45813D01*
X67579Y-45719D01*
X67598Y-45682D01*
X67617Y-45663D01*
X67654Y-45644D01*
X67692Y-45644D01*
X67748Y-45663D01*
X67973Y-45888D01*
X67973Y-45644D01*
X77542Y-37812D02*
X77560Y-37830D01*
X77579Y-37887D01*
X77579Y-37924D01*
X77560Y-37980D01*
X77523Y-38018D01*
X77485Y-38037D01*
X77410Y-38055D01*
X77354Y-38055D01*
X77279Y-38037D01*
X77242Y-38018D01*
X77204Y-37980D01*
X77185Y-37924D01*
X77185Y-37887D01*
X77204Y-37830D01*
X77223Y-37812D01*
X77223Y-37662D02*
X77204Y-37643D01*
X77185Y-37605D01*
X77185Y-37512D01*
X77204Y-37474D01*
X77223Y-37455D01*
X77260Y-37437D01*
X77298Y-37437D01*
X77354Y-37455D01*
X77579Y-37680D01*
X77579Y-37437D01*
X77579Y-37062D02*
X77579Y-37287D01*
X77579Y-37174D02*
X77185Y-37174D01*
X77242Y-37212D01*
X77279Y-37249D01*
X77298Y-37287D01*
X66597Y-48993D02*
X66616Y-49011D01*
X66634Y-49068D01*
X66634Y-49105D01*
X66616Y-49161D01*
X66578Y-49199D01*
X66541Y-49218D01*
X66466Y-49236D01*
X66409Y-49236D01*
X66334Y-49218D01*
X66297Y-49199D01*
X66259Y-49161D01*
X66241Y-49105D01*
X66241Y-49068D01*
X66259Y-49011D01*
X66278Y-48993D01*
X66634Y-48618D02*
X66634Y-48843D01*
X66634Y-48730D02*
X66241Y-48730D01*
X66297Y-48768D01*
X66334Y-48805D01*
X66353Y-48843D01*
X66634Y-48430D02*
X66634Y-48355D01*
X66616Y-48318D01*
X66597Y-48299D01*
X66541Y-48262D01*
X66466Y-48243D01*
X66316Y-48243D01*
X66278Y-48262D01*
X66259Y-48280D01*
X66241Y-48318D01*
X66241Y-48393D01*
X66259Y-48430D01*
X66278Y-48449D01*
X66316Y-48468D01*
X66409Y-48468D01*
X66447Y-48449D01*
X66466Y-48430D01*
X66484Y-48393D01*
X66484Y-48318D01*
X66466Y-48280D01*
X66447Y-48262D01*
X66409Y-48243D01*
X79589Y-39668D02*
X79570Y-39686D01*
X79514Y-39705D01*
X79476Y-39705D01*
X79420Y-39686D01*
X79383Y-39649D01*
X79364Y-39611D01*
X79345Y-39536D01*
X79345Y-39480D01*
X79364Y-39405D01*
X79383Y-39368D01*
X79420Y-39330D01*
X79476Y-39311D01*
X79514Y-39311D01*
X79570Y-39330D01*
X79589Y-39349D01*
X79964Y-39705D02*
X79739Y-39705D01*
X79851Y-39705D02*
X79851Y-39311D01*
X79814Y-39368D01*
X79776Y-39405D01*
X79739Y-39424D01*
X80189Y-39480D02*
X80151Y-39461D01*
X80133Y-39443D01*
X80114Y-39405D01*
X80114Y-39386D01*
X80133Y-39349D01*
X80151Y-39330D01*
X80189Y-39311D01*
X80264Y-39311D01*
X80301Y-39330D01*
X80320Y-39349D01*
X80339Y-39386D01*
X80339Y-39405D01*
X80320Y-39443D01*
X80301Y-39461D01*
X80264Y-39480D01*
X80189Y-39480D01*
X80151Y-39499D01*
X80133Y-39518D01*
X80114Y-39555D01*
X80114Y-39630D01*
X80133Y-39668D01*
X80151Y-39686D01*
X80189Y-39705D01*
X80264Y-39705D01*
X80301Y-39686D01*
X80320Y-39668D01*
X80339Y-39630D01*
X80339Y-39555D01*
X80320Y-39518D01*
X80301Y-39499D01*
X80264Y-39480D01*
X53132Y-45337D02*
X53113Y-45356D01*
X53057Y-45374D01*
X53020Y-45374D01*
X52964Y-45356D01*
X52926Y-45318D01*
X52907Y-45281D01*
X52889Y-45206D01*
X52889Y-45149D01*
X52907Y-45074D01*
X52926Y-45037D01*
X52964Y-45000D01*
X53020Y-44981D01*
X53057Y-44981D01*
X53113Y-45000D01*
X53132Y-45018D01*
X53507Y-45374D02*
X53282Y-45374D01*
X53395Y-45374D02*
X53395Y-44981D01*
X53357Y-45037D01*
X53320Y-45074D01*
X53282Y-45093D01*
X53638Y-44981D02*
X53901Y-44981D01*
X53732Y-45374D01*
X56203Y-45337D02*
X56184Y-45356D01*
X56128Y-45374D01*
X56091Y-45374D01*
X56034Y-45356D01*
X55997Y-45318D01*
X55978Y-45281D01*
X55959Y-45206D01*
X55959Y-45149D01*
X55978Y-45074D01*
X55997Y-45037D01*
X56034Y-45000D01*
X56091Y-44981D01*
X56128Y-44981D01*
X56184Y-45000D01*
X56203Y-45018D01*
X56578Y-45374D02*
X56353Y-45374D01*
X56466Y-45374D02*
X56466Y-44981D01*
X56428Y-45037D01*
X56391Y-45074D01*
X56353Y-45093D01*
X56916Y-44981D02*
X56841Y-44981D01*
X56803Y-45000D01*
X56784Y-45018D01*
X56747Y-45074D01*
X56728Y-45149D01*
X56728Y-45299D01*
X56747Y-45337D01*
X56766Y-45356D01*
X56803Y-45374D01*
X56878Y-45374D01*
X56916Y-45356D01*
X56934Y-45337D01*
X56953Y-45299D01*
X56953Y-45206D01*
X56934Y-45168D01*
X56916Y-45149D01*
X56878Y-45131D01*
X56803Y-45131D01*
X56766Y-45149D01*
X56747Y-45168D01*
X56728Y-45206D01*
X53132Y-44707D02*
X53113Y-44726D01*
X53057Y-44745D01*
X53020Y-44745D01*
X52964Y-44726D01*
X52926Y-44688D01*
X52907Y-44651D01*
X52889Y-44576D01*
X52889Y-44520D01*
X52907Y-44445D01*
X52926Y-44407D01*
X52964Y-44370D01*
X53020Y-44351D01*
X53057Y-44351D01*
X53113Y-44370D01*
X53132Y-44388D01*
X53507Y-44745D02*
X53282Y-44745D01*
X53395Y-44745D02*
X53395Y-44351D01*
X53357Y-44407D01*
X53320Y-44445D01*
X53282Y-44463D01*
X53845Y-44482D02*
X53845Y-44745D01*
X53751Y-44332D02*
X53657Y-44613D01*
X53901Y-44613D01*
X52896Y-39668D02*
X52877Y-39686D01*
X52821Y-39705D01*
X52784Y-39705D01*
X52727Y-39686D01*
X52690Y-39649D01*
X52671Y-39611D01*
X52652Y-39536D01*
X52652Y-39480D01*
X52671Y-39405D01*
X52690Y-39368D01*
X52727Y-39330D01*
X52784Y-39311D01*
X52821Y-39311D01*
X52877Y-39330D01*
X52896Y-39349D01*
X53271Y-39705D02*
X53046Y-39705D01*
X53158Y-39705D02*
X53158Y-39311D01*
X53121Y-39368D01*
X53083Y-39405D01*
X53046Y-39424D01*
X53402Y-39311D02*
X53646Y-39311D01*
X53515Y-39461D01*
X53571Y-39461D01*
X53608Y-39480D01*
X53627Y-39499D01*
X53646Y-39536D01*
X53646Y-39630D01*
X53627Y-39668D01*
X53608Y-39686D01*
X53571Y-39705D01*
X53458Y-39705D01*
X53421Y-39686D01*
X53402Y-39668D01*
X57069Y-39668D02*
X57050Y-39686D01*
X56994Y-39705D01*
X56957Y-39705D01*
X56901Y-39686D01*
X56863Y-39649D01*
X56844Y-39611D01*
X56826Y-39536D01*
X56826Y-39480D01*
X56844Y-39405D01*
X56863Y-39368D01*
X56901Y-39330D01*
X56957Y-39311D01*
X56994Y-39311D01*
X57050Y-39330D01*
X57069Y-39349D01*
X57444Y-39705D02*
X57219Y-39705D01*
X57332Y-39705D02*
X57332Y-39311D01*
X57294Y-39368D01*
X57257Y-39405D01*
X57219Y-39424D01*
X57594Y-39349D02*
X57613Y-39330D01*
X57650Y-39311D01*
X57744Y-39311D01*
X57782Y-39330D01*
X57800Y-39349D01*
X57819Y-39386D01*
X57819Y-39424D01*
X57800Y-39480D01*
X57575Y-39705D01*
X57819Y-39705D01*
X59825Y-42142D02*
X59844Y-42161D01*
X59863Y-42217D01*
X59863Y-42255D01*
X59844Y-42311D01*
X59806Y-42349D01*
X59769Y-42367D01*
X59694Y-42386D01*
X59638Y-42386D01*
X59563Y-42367D01*
X59525Y-42349D01*
X59488Y-42311D01*
X59469Y-42255D01*
X59469Y-42217D01*
X59488Y-42161D01*
X59506Y-42142D01*
X59863Y-41767D02*
X59863Y-41992D01*
X59863Y-41880D02*
X59469Y-41880D01*
X59525Y-41917D01*
X59563Y-41955D01*
X59581Y-41992D01*
X59863Y-41392D02*
X59863Y-41617D01*
X59863Y-41505D02*
X59469Y-41505D01*
X59525Y-41542D01*
X59563Y-41580D01*
X59581Y-41617D01*
X56203Y-44707D02*
X56184Y-44726D01*
X56128Y-44745D01*
X56091Y-44745D01*
X56034Y-44726D01*
X55997Y-44688D01*
X55978Y-44651D01*
X55959Y-44576D01*
X55959Y-44520D01*
X55978Y-44445D01*
X55997Y-44407D01*
X56034Y-44370D01*
X56091Y-44351D01*
X56128Y-44351D01*
X56184Y-44370D01*
X56203Y-44388D01*
X56578Y-44745D02*
X56353Y-44745D01*
X56466Y-44745D02*
X56466Y-44351D01*
X56428Y-44407D01*
X56391Y-44445D01*
X56353Y-44463D01*
X56822Y-44351D02*
X56859Y-44351D01*
X56897Y-44370D01*
X56916Y-44388D01*
X56934Y-44426D01*
X56953Y-44501D01*
X56953Y-44595D01*
X56934Y-44670D01*
X56916Y-44707D01*
X56897Y-44726D01*
X56859Y-44745D01*
X56822Y-44745D01*
X56784Y-44726D01*
X56766Y-44707D01*
X56747Y-44670D01*
X56728Y-44595D01*
X56728Y-44501D01*
X56747Y-44426D01*
X56766Y-44388D01*
X56784Y-44370D01*
X56822Y-44351D01*
X53241Y-40298D02*
X53222Y-40316D01*
X53166Y-40335D01*
X53128Y-40335D01*
X53072Y-40316D01*
X53035Y-40279D01*
X53016Y-40241D01*
X52997Y-40166D01*
X52997Y-40110D01*
X53016Y-40035D01*
X53035Y-39998D01*
X53072Y-39960D01*
X53128Y-39941D01*
X53166Y-39941D01*
X53222Y-39960D01*
X53241Y-39979D01*
X53428Y-40335D02*
X53503Y-40335D01*
X53541Y-40316D01*
X53560Y-40298D01*
X53597Y-40241D01*
X53616Y-40166D01*
X53616Y-40016D01*
X53597Y-39979D01*
X53578Y-39960D01*
X53541Y-39941D01*
X53466Y-39941D01*
X53428Y-39960D01*
X53410Y-39979D01*
X53391Y-40016D01*
X53391Y-40110D01*
X53410Y-40148D01*
X53428Y-40166D01*
X53466Y-40185D01*
X53541Y-40185D01*
X53578Y-40166D01*
X53597Y-40148D01*
X53616Y-40110D01*
X57099Y-40298D02*
X57080Y-40316D01*
X57024Y-40335D01*
X56987Y-40335D01*
X56931Y-40316D01*
X56893Y-40279D01*
X56874Y-40241D01*
X56856Y-40166D01*
X56856Y-40110D01*
X56874Y-40035D01*
X56893Y-39998D01*
X56931Y-39960D01*
X56987Y-39941D01*
X57024Y-39941D01*
X57080Y-39960D01*
X57099Y-39979D01*
X57230Y-39941D02*
X57493Y-39941D01*
X57324Y-40335D01*
X59195Y-41797D02*
X59214Y-41816D01*
X59233Y-41872D01*
X59233Y-41910D01*
X59214Y-41966D01*
X59176Y-42004D01*
X59139Y-42022D01*
X59064Y-42041D01*
X59008Y-42041D01*
X58933Y-42022D01*
X58895Y-42004D01*
X58858Y-41966D01*
X58839Y-41910D01*
X58839Y-41872D01*
X58858Y-41816D01*
X58877Y-41797D01*
X58839Y-41441D02*
X58839Y-41629D01*
X59026Y-41647D01*
X59008Y-41629D01*
X58989Y-41591D01*
X58989Y-41497D01*
X59008Y-41460D01*
X59026Y-41441D01*
X59064Y-41422D01*
X59158Y-41422D01*
X59195Y-41441D01*
X59214Y-41460D01*
X59233Y-41497D01*
X59233Y-41591D01*
X59214Y-41629D01*
X59195Y-41647D01*
X65768Y-53440D02*
X65374Y-53440D01*
X65374Y-53290D01*
X65393Y-53252D01*
X65412Y-53233D01*
X65449Y-53215D01*
X65506Y-53215D01*
X65543Y-53233D01*
X65562Y-53252D01*
X65581Y-53290D01*
X65581Y-53440D01*
X65412Y-53065D02*
X65393Y-53046D01*
X65374Y-53008D01*
X65374Y-52915D01*
X65393Y-52877D01*
X65412Y-52859D01*
X65449Y-52840D01*
X65487Y-52840D01*
X65543Y-52859D01*
X65768Y-53083D01*
X65768Y-52840D01*
X55138Y-53440D02*
X54745Y-53440D01*
X54745Y-53290D01*
X54763Y-53252D01*
X54782Y-53233D01*
X54820Y-53215D01*
X54876Y-53215D01*
X54913Y-53233D01*
X54932Y-53252D01*
X54951Y-53290D01*
X54951Y-53440D01*
X55138Y-52840D02*
X55138Y-53065D01*
X55138Y-52952D02*
X54745Y-52952D01*
X54801Y-52990D01*
X54838Y-53027D01*
X54857Y-53065D01*
X53485Y-43638D02*
X53297Y-43770D01*
X53485Y-43863D02*
X53091Y-43863D01*
X53091Y-43713D01*
X53110Y-43676D01*
X53128Y-43657D01*
X53166Y-43638D01*
X53222Y-43638D01*
X53260Y-43657D01*
X53278Y-43676D01*
X53297Y-43713D01*
X53297Y-43863D01*
X53485Y-43263D02*
X53485Y-43488D01*
X53485Y-43376D02*
X53091Y-43376D01*
X53147Y-43413D01*
X53185Y-43451D01*
X53203Y-43488D01*
X53091Y-42907D02*
X53091Y-43095D01*
X53278Y-43113D01*
X53260Y-43095D01*
X53241Y-43057D01*
X53241Y-42964D01*
X53260Y-42926D01*
X53278Y-42907D01*
X53316Y-42889D01*
X53410Y-42889D01*
X53447Y-42907D01*
X53466Y-42926D01*
X53485Y-42964D01*
X53485Y-43057D01*
X53466Y-43095D01*
X53447Y-43113D01*
X59668Y-48839D02*
X59536Y-48652D01*
X59443Y-48839D02*
X59443Y-48445D01*
X59593Y-48445D01*
X59630Y-48464D01*
X59649Y-48483D01*
X59668Y-48520D01*
X59668Y-48577D01*
X59649Y-48614D01*
X59630Y-48633D01*
X59593Y-48652D01*
X59443Y-48652D01*
X60043Y-48839D02*
X59818Y-48839D01*
X59930Y-48839D02*
X59930Y-48445D01*
X59893Y-48502D01*
X59855Y-48539D01*
X59818Y-48558D01*
X60380Y-48577D02*
X60380Y-48839D01*
X60286Y-48427D02*
X60193Y-48708D01*
X60436Y-48708D01*
X65337Y-48839D02*
X65206Y-48652D01*
X65112Y-48839D02*
X65112Y-48445D01*
X65262Y-48445D01*
X65299Y-48464D01*
X65318Y-48483D01*
X65337Y-48520D01*
X65337Y-48577D01*
X65318Y-48614D01*
X65299Y-48633D01*
X65262Y-48652D01*
X65112Y-48652D01*
X65712Y-48839D02*
X65487Y-48839D01*
X65599Y-48839D02*
X65599Y-48445D01*
X65562Y-48502D01*
X65524Y-48539D01*
X65487Y-48558D01*
X65843Y-48445D02*
X66087Y-48445D01*
X65956Y-48595D01*
X66012Y-48595D01*
X66049Y-48614D01*
X66068Y-48633D01*
X66087Y-48670D01*
X66087Y-48764D01*
X66068Y-48802D01*
X66049Y-48820D01*
X66012Y-48839D01*
X65899Y-48839D01*
X65862Y-48820D01*
X65843Y-48802D01*
X55138Y-46946D02*
X54951Y-47077D01*
X55138Y-47170D02*
X54745Y-47170D01*
X54745Y-47020D01*
X54763Y-46983D01*
X54782Y-46964D01*
X54820Y-46946D01*
X54876Y-46946D01*
X54913Y-46964D01*
X54932Y-46983D01*
X54951Y-47020D01*
X54951Y-47170D01*
X55138Y-46571D02*
X55138Y-46796D01*
X55138Y-46683D02*
X54745Y-46683D01*
X54801Y-46721D01*
X54838Y-46758D01*
X54857Y-46796D01*
X54782Y-46421D02*
X54763Y-46402D01*
X54745Y-46364D01*
X54745Y-46271D01*
X54763Y-46233D01*
X54782Y-46214D01*
X54820Y-46196D01*
X54857Y-46196D01*
X54913Y-46214D01*
X55138Y-46439D01*
X55138Y-46196D01*
X54392Y-48839D02*
X54261Y-48652D01*
X54167Y-48839D02*
X54167Y-48445D01*
X54317Y-48445D01*
X54355Y-48464D01*
X54373Y-48483D01*
X54392Y-48520D01*
X54392Y-48577D01*
X54373Y-48614D01*
X54355Y-48633D01*
X54317Y-48652D01*
X54167Y-48652D01*
X54767Y-48839D02*
X54542Y-48839D01*
X54655Y-48839D02*
X54655Y-48445D01*
X54617Y-48502D01*
X54580Y-48539D01*
X54542Y-48558D01*
X55142Y-48839D02*
X54917Y-48839D01*
X55029Y-48839D02*
X55029Y-48445D01*
X54992Y-48502D01*
X54955Y-48539D01*
X54917Y-48558D01*
X54587Y-47260D02*
X54400Y-47392D01*
X54587Y-47485D02*
X54193Y-47485D01*
X54193Y-47335D01*
X54212Y-47298D01*
X54231Y-47279D01*
X54268Y-47260D01*
X54325Y-47260D01*
X54362Y-47279D01*
X54381Y-47298D01*
X54400Y-47335D01*
X54400Y-47485D01*
X54587Y-46886D02*
X54587Y-47110D01*
X54587Y-46998D02*
X54193Y-46998D01*
X54250Y-47035D01*
X54287Y-47073D01*
X54306Y-47110D01*
X54193Y-46642D02*
X54193Y-46604D01*
X54212Y-46567D01*
X54231Y-46548D01*
X54268Y-46529D01*
X54343Y-46511D01*
X54437Y-46511D01*
X54512Y-46529D01*
X54550Y-46548D01*
X54568Y-46567D01*
X54587Y-46604D01*
X54587Y-46642D01*
X54568Y-46679D01*
X54550Y-46698D01*
X54512Y-46717D01*
X54437Y-46736D01*
X54343Y-46736D01*
X54268Y-46717D01*
X54231Y-46698D01*
X54212Y-46679D01*
X54193Y-46642D01*
X60721Y-43211D02*
X60703Y-43230D01*
X60646Y-43248D01*
X60609Y-43248D01*
X60553Y-43230D01*
X60515Y-43192D01*
X60496Y-43155D01*
X60478Y-43080D01*
X60478Y-43023D01*
X60496Y-42949D01*
X60515Y-42911D01*
X60553Y-42874D01*
X60609Y-42855D01*
X60646Y-42855D01*
X60703Y-42874D01*
X60721Y-42892D01*
X61059Y-42986D02*
X61059Y-43248D01*
X60965Y-42836D02*
X60871Y-43117D01*
X61115Y-43117D01*
X64737Y-43211D02*
X64718Y-43230D01*
X64662Y-43248D01*
X64625Y-43248D01*
X64568Y-43230D01*
X64531Y-43192D01*
X64512Y-43155D01*
X64493Y-43080D01*
X64493Y-43023D01*
X64512Y-42949D01*
X64531Y-42911D01*
X64568Y-42874D01*
X64625Y-42855D01*
X64662Y-42855D01*
X64718Y-42874D01*
X64737Y-42892D01*
X64868Y-42855D02*
X65112Y-42855D01*
X64981Y-43005D01*
X65037Y-43005D01*
X65074Y-43023D01*
X65093Y-43042D01*
X65112Y-43080D01*
X65112Y-43173D01*
X65093Y-43211D01*
X65074Y-43230D01*
X65037Y-43248D01*
X64925Y-43248D01*
X64887Y-43230D01*
X64868Y-43211D01*
X58438Y-45967D02*
X58419Y-45986D01*
X58363Y-46004D01*
X58325Y-46004D01*
X58269Y-45986D01*
X58232Y-45948D01*
X58213Y-45911D01*
X58194Y-45836D01*
X58194Y-45779D01*
X58213Y-45704D01*
X58232Y-45667D01*
X58269Y-45629D01*
X58325Y-45611D01*
X58363Y-45611D01*
X58419Y-45629D01*
X58438Y-45648D01*
X58588Y-45648D02*
X58607Y-45629D01*
X58644Y-45611D01*
X58738Y-45611D01*
X58775Y-45629D01*
X58794Y-45648D01*
X58813Y-45686D01*
X58813Y-45723D01*
X58794Y-45779D01*
X58569Y-46004D01*
X58813Y-46004D01*
X54816Y-48172D02*
X54797Y-48190D01*
X54741Y-48209D01*
X54703Y-48209D01*
X54647Y-48190D01*
X54610Y-48153D01*
X54591Y-48115D01*
X54572Y-48040D01*
X54572Y-47984D01*
X54591Y-47909D01*
X54610Y-47872D01*
X54647Y-47834D01*
X54703Y-47815D01*
X54741Y-47815D01*
X54797Y-47834D01*
X54816Y-47853D01*
X55191Y-48209D02*
X54966Y-48209D01*
X55078Y-48209D02*
X55078Y-47815D01*
X55041Y-47872D01*
X55003Y-47909D01*
X54966Y-47928D01*
X67343Y-51008D02*
X67662Y-51008D01*
X67699Y-50989D01*
X67718Y-50971D01*
X67737Y-50933D01*
X67737Y-50858D01*
X67718Y-50821D01*
X67699Y-50802D01*
X67662Y-50783D01*
X67343Y-50783D01*
X67343Y-50633D02*
X67343Y-50389D01*
X67493Y-50521D01*
X67493Y-50464D01*
X67512Y-50427D01*
X67530Y-50408D01*
X67568Y-50389D01*
X67662Y-50389D01*
X67699Y-50408D01*
X67718Y-50427D01*
X67737Y-50464D01*
X67737Y-50577D01*
X67718Y-50614D01*
X67699Y-50633D01*
X72690Y-32067D02*
X72559Y-31880D01*
X72465Y-32067D02*
X72465Y-31674D01*
X72615Y-31674D01*
X72652Y-31692D01*
X72671Y-31711D01*
X72690Y-31749D01*
X72690Y-31805D01*
X72671Y-31842D01*
X72652Y-31861D01*
X72615Y-31880D01*
X72465Y-31880D01*
X72877Y-32067D02*
X72952Y-32067D01*
X72990Y-32049D01*
X73008Y-32030D01*
X73046Y-31974D01*
X73065Y-31899D01*
X73065Y-31749D01*
X73046Y-31711D01*
X73027Y-31692D01*
X72990Y-31674D01*
X72915Y-31674D01*
X72877Y-31692D01*
X72859Y-31711D01*
X72840Y-31749D01*
X72840Y-31842D01*
X72859Y-31880D01*
X72877Y-31899D01*
X72915Y-31917D01*
X72990Y-31917D01*
X73027Y-31899D01*
X73046Y-31880D01*
X73065Y-31842D01*
X72690Y-31516D02*
X72559Y-31329D01*
X72465Y-31516D02*
X72465Y-31122D01*
X72615Y-31122D01*
X72652Y-31141D01*
X72671Y-31160D01*
X72690Y-31197D01*
X72690Y-31254D01*
X72671Y-31291D01*
X72652Y-31310D01*
X72615Y-31329D01*
X72465Y-31329D01*
X72915Y-31291D02*
X72877Y-31272D01*
X72859Y-31254D01*
X72840Y-31216D01*
X72840Y-31197D01*
X72859Y-31160D01*
X72877Y-31141D01*
X72915Y-31122D01*
X72990Y-31122D01*
X73027Y-31141D01*
X73046Y-31160D01*
X73065Y-31197D01*
X73065Y-31216D01*
X73046Y-31254D01*
X73027Y-31272D01*
X72990Y-31291D01*
X72915Y-31291D01*
X72877Y-31310D01*
X72859Y-31329D01*
X72840Y-31366D01*
X72840Y-31441D01*
X72859Y-31479D01*
X72877Y-31497D01*
X72915Y-31516D01*
X72990Y-31516D01*
X73027Y-31497D01*
X73046Y-31479D01*
X73065Y-31441D01*
X73065Y-31366D01*
X73046Y-31329D01*
X73027Y-31310D01*
X72990Y-31291D01*
X72690Y-30965D02*
X72559Y-30778D01*
X72465Y-30965D02*
X72465Y-30571D01*
X72615Y-30571D01*
X72652Y-30590D01*
X72671Y-30609D01*
X72690Y-30646D01*
X72690Y-30703D01*
X72671Y-30740D01*
X72652Y-30759D01*
X72615Y-30778D01*
X72465Y-30778D01*
X72821Y-30571D02*
X73083Y-30571D01*
X72915Y-30965D01*
X72690Y-34272D02*
X72559Y-34085D01*
X72465Y-34272D02*
X72465Y-33878D01*
X72615Y-33878D01*
X72652Y-33897D01*
X72671Y-33916D01*
X72690Y-33953D01*
X72690Y-34010D01*
X72671Y-34047D01*
X72652Y-34066D01*
X72615Y-34085D01*
X72465Y-34085D01*
X73027Y-33878D02*
X72952Y-33878D01*
X72915Y-33897D01*
X72896Y-33916D01*
X72859Y-33972D01*
X72840Y-34047D01*
X72840Y-34197D01*
X72859Y-34235D01*
X72877Y-34253D01*
X72915Y-34272D01*
X72990Y-34272D01*
X73027Y-34253D01*
X73046Y-34235D01*
X73065Y-34197D01*
X73065Y-34103D01*
X73046Y-34066D01*
X73027Y-34047D01*
X72990Y-34028D01*
X72915Y-34028D01*
X72877Y-34047D01*
X72859Y-34066D01*
X72840Y-34103D01*
X72690Y-33721D02*
X72559Y-33533D01*
X72465Y-33721D02*
X72465Y-33327D01*
X72615Y-33327D01*
X72652Y-33346D01*
X72671Y-33365D01*
X72690Y-33402D01*
X72690Y-33458D01*
X72671Y-33496D01*
X72652Y-33515D01*
X72615Y-33533D01*
X72465Y-33533D01*
X73046Y-33327D02*
X72859Y-33327D01*
X72840Y-33515D01*
X72859Y-33496D01*
X72896Y-33477D01*
X72990Y-33477D01*
X73027Y-33496D01*
X73046Y-33515D01*
X73065Y-33552D01*
X73065Y-33646D01*
X73046Y-33683D01*
X73027Y-33702D01*
X72990Y-33721D01*
X72896Y-33721D01*
X72859Y-33702D01*
X72840Y-33683D01*
X72690Y-33170D02*
X72559Y-32982D01*
X72465Y-33170D02*
X72465Y-32776D01*
X72615Y-32776D01*
X72652Y-32795D01*
X72671Y-32814D01*
X72690Y-32851D01*
X72690Y-32907D01*
X72671Y-32945D01*
X72652Y-32964D01*
X72615Y-32982D01*
X72465Y-32982D01*
X73027Y-32907D02*
X73027Y-33170D01*
X72934Y-32757D02*
X72840Y-33038D01*
X73083Y-33038D01*
X72690Y-32619D02*
X72559Y-32431D01*
X72465Y-32619D02*
X72465Y-32225D01*
X72615Y-32225D01*
X72652Y-32244D01*
X72671Y-32262D01*
X72690Y-32300D01*
X72690Y-32356D01*
X72671Y-32394D01*
X72652Y-32412D01*
X72615Y-32431D01*
X72465Y-32431D01*
X72821Y-32225D02*
X73065Y-32225D01*
X72934Y-32375D01*
X72990Y-32375D01*
X73027Y-32394D01*
X73046Y-32412D01*
X73065Y-32450D01*
X73065Y-32544D01*
X73046Y-32581D01*
X73027Y-32600D01*
X72990Y-32619D01*
X72877Y-32619D01*
X72840Y-32600D01*
X72821Y-32581D01*
X81432Y-38288D02*
X81432Y-38607D01*
X81451Y-38644D01*
X81469Y-38663D01*
X81507Y-38682D01*
X81582Y-38682D01*
X81619Y-38663D01*
X81638Y-38644D01*
X81657Y-38607D01*
X81657Y-38288D01*
X81826Y-38325D02*
X81844Y-38307D01*
X81882Y-38288D01*
X81976Y-38288D01*
X82013Y-38307D01*
X82032Y-38325D01*
X82050Y-38363D01*
X82050Y-38400D01*
X82032Y-38457D01*
X81807Y-38682D01*
X82050Y-38682D01*
X57967Y-39705D02*
X57967Y-40024D01*
X57986Y-40061D01*
X58005Y-40080D01*
X58042Y-40099D01*
X58117Y-40099D01*
X58155Y-40080D01*
X58173Y-40061D01*
X58192Y-40024D01*
X58192Y-39705D01*
X58586Y-40099D02*
X58361Y-40099D01*
X58473Y-40099D02*
X58473Y-39705D01*
X58436Y-39761D01*
X58398Y-39799D01*
X58361Y-39818D01*
X75573Y-43053D02*
X75554Y-43072D01*
X75498Y-43091D01*
X75461Y-43091D01*
X75404Y-43072D01*
X75367Y-43035D01*
X75348Y-42997D01*
X75329Y-42922D01*
X75329Y-42866D01*
X75348Y-42791D01*
X75367Y-42754D01*
X75404Y-42716D01*
X75461Y-42697D01*
X75498Y-42697D01*
X75554Y-42716D01*
X75573Y-42735D01*
X75723Y-42735D02*
X75742Y-42716D01*
X75779Y-42697D01*
X75873Y-42697D01*
X75911Y-42716D01*
X75929Y-42735D01*
X75948Y-42772D01*
X75948Y-42810D01*
X75929Y-42866D01*
X75704Y-43091D01*
X75948Y-43091D01*
X76079Y-42697D02*
X76342Y-42697D01*
X76173Y-43091D01*
X74628Y-40883D02*
X74647Y-40901D01*
X74666Y-40958D01*
X74666Y-40995D01*
X74647Y-41051D01*
X74610Y-41089D01*
X74572Y-41107D01*
X74497Y-41126D01*
X74441Y-41126D01*
X74366Y-41107D01*
X74328Y-41089D01*
X74291Y-41051D01*
X74272Y-40995D01*
X74272Y-40958D01*
X74291Y-40901D01*
X74310Y-40883D01*
X74310Y-40733D02*
X74291Y-40714D01*
X74272Y-40676D01*
X74272Y-40583D01*
X74291Y-40545D01*
X74310Y-40526D01*
X74347Y-40508D01*
X74385Y-40508D01*
X74441Y-40526D01*
X74666Y-40751D01*
X74666Y-40508D01*
X74441Y-40283D02*
X74422Y-40320D01*
X74403Y-40339D01*
X74366Y-40358D01*
X74347Y-40358D01*
X74310Y-40339D01*
X74291Y-40320D01*
X74272Y-40283D01*
X74272Y-40208D01*
X74291Y-40170D01*
X74310Y-40151D01*
X74347Y-40133D01*
X74366Y-40133D01*
X74403Y-40151D01*
X74422Y-40170D01*
X74441Y-40208D01*
X74441Y-40283D01*
X74460Y-40320D01*
X74478Y-40339D01*
X74516Y-40358D01*
X74591Y-40358D01*
X74628Y-40339D01*
X74647Y-40320D01*
X74666Y-40283D01*
X74666Y-40208D01*
X74647Y-40170D01*
X74628Y-40151D01*
X74591Y-40133D01*
X74516Y-40133D01*
X74478Y-40151D01*
X74460Y-40170D01*
X74441Y-40208D01*
X77579Y-42142D02*
X77392Y-42274D01*
X77579Y-42367D02*
X77185Y-42367D01*
X77185Y-42217D01*
X77204Y-42180D01*
X77223Y-42161D01*
X77260Y-42142D01*
X77317Y-42142D01*
X77354Y-42161D01*
X77373Y-42180D01*
X77392Y-42217D01*
X77392Y-42367D01*
X77185Y-42011D02*
X77185Y-41767D01*
X77335Y-41899D01*
X77335Y-41842D01*
X77354Y-41805D01*
X77373Y-41786D01*
X77410Y-41767D01*
X77504Y-41767D01*
X77542Y-41786D01*
X77560Y-41805D01*
X77579Y-41842D01*
X77579Y-41955D01*
X77560Y-41992D01*
X77542Y-42011D01*
X77223Y-41617D02*
X77204Y-41599D01*
X77185Y-41561D01*
X77185Y-41467D01*
X77204Y-41430D01*
X77223Y-41411D01*
X77260Y-41392D01*
X77298Y-41392D01*
X77354Y-41411D01*
X77579Y-41636D01*
X77579Y-41392D01*
X75967Y-38997D02*
X75836Y-38809D01*
X75742Y-38997D02*
X75742Y-38603D01*
X75892Y-38603D01*
X75929Y-38622D01*
X75948Y-38640D01*
X75967Y-38678D01*
X75967Y-38734D01*
X75948Y-38772D01*
X75929Y-38790D01*
X75892Y-38809D01*
X75742Y-38809D01*
X76098Y-38603D02*
X76342Y-38603D01*
X76211Y-38753D01*
X76267Y-38753D01*
X76304Y-38772D01*
X76323Y-38790D01*
X76342Y-38828D01*
X76342Y-38922D01*
X76323Y-38959D01*
X76304Y-38978D01*
X76267Y-38997D01*
X76154Y-38997D01*
X76117Y-38978D01*
X76098Y-38959D01*
X76473Y-38603D02*
X76717Y-38603D01*
X76586Y-38753D01*
X76642Y-38753D01*
X76679Y-38772D01*
X76698Y-38790D01*
X76717Y-38828D01*
X76717Y-38922D01*
X76698Y-38959D01*
X76679Y-38978D01*
X76642Y-38997D01*
X76529Y-38997D01*
X76492Y-38978D01*
X76473Y-38959D01*
X74666Y-42189D02*
X74985Y-42189D01*
X75022Y-42170D01*
X75041Y-42152D01*
X75059Y-42114D01*
X75059Y-42039D01*
X75041Y-42002D01*
X75022Y-41983D01*
X74985Y-41964D01*
X74666Y-41964D01*
X74666Y-41608D02*
X74666Y-41683D01*
X74685Y-41721D01*
X74703Y-41739D01*
X74760Y-41777D01*
X74835Y-41796D01*
X74985Y-41796D01*
X75022Y-41777D01*
X75041Y-41758D01*
X75059Y-41721D01*
X75059Y-41646D01*
X75041Y-41608D01*
X75022Y-41589D01*
X74985Y-41571D01*
X74891Y-41571D01*
X74853Y-41589D01*
X74835Y-41608D01*
X74816Y-41646D01*
X74816Y-41721D01*
X74835Y-41758D01*
X74853Y-41777D01*
X74891Y-41796D01*
X71143Y-38247D02*
X71106Y-38228D01*
X71068Y-38190D01*
X71012Y-38134D01*
X70974Y-38115D01*
X70937Y-38115D01*
X70956Y-38209D02*
X70918Y-38190D01*
X70881Y-38153D01*
X70862Y-38078D01*
X70862Y-37947D01*
X70881Y-37872D01*
X70918Y-37834D01*
X70956Y-37815D01*
X71031Y-37815D01*
X71068Y-37834D01*
X71106Y-37872D01*
X71124Y-37947D01*
X71124Y-38078D01*
X71106Y-38153D01*
X71068Y-38190D01*
X71031Y-38209D01*
X70956Y-38209D01*
X71499Y-38209D02*
X71274Y-38209D01*
X71387Y-38209D02*
X71387Y-37815D01*
X71349Y-37872D01*
X71312Y-37909D01*
X71274Y-37928D01*
M02*
