G04 (created by PCBNEW (2013-mar-13)-testing) date Wed 03 Jul 2013 03:21:25 PM PDT*
%MOIN*%
G04 Gerber Fmt 3.4, Leading zero omitted, Abs format*
%FSLAX34Y34*%
G01*
G70*
G90*
G04 APERTURE LIST*
%ADD10C,0.008000*%
%ADD11C,0.013110*%
%ADD12C,0.019685*%
%ADD13C,0.005906*%
G04 APERTURE END LIST*
G54D10*
G54D11*
X86257Y-46950D02*
X86220Y-46975D01*
X86182Y-47025D01*
X86182Y-47150D01*
X86220Y-47200D01*
X86257Y-47225D01*
X86332Y-47250D01*
X86407Y-47250D01*
X86520Y-47225D01*
X86970Y-46925D01*
X86970Y-47250D01*
X86182Y-47575D02*
X86182Y-47625D01*
X86220Y-47675D01*
X86257Y-47700D01*
X86332Y-47725D01*
X86482Y-47750D01*
X86670Y-47750D01*
X86820Y-47725D01*
X86895Y-47700D01*
X86932Y-47675D01*
X86970Y-47625D01*
X86970Y-47575D01*
X86932Y-47525D01*
X86895Y-47500D01*
X86820Y-47475D01*
X86670Y-47450D01*
X86482Y-47450D01*
X86332Y-47475D01*
X86257Y-47500D01*
X86220Y-47525D01*
X86182Y-47575D01*
X86970Y-48249D02*
X86970Y-47949D01*
X86970Y-48099D02*
X86182Y-48099D01*
X86295Y-48049D01*
X86370Y-47999D01*
X86407Y-47949D01*
X86182Y-48424D02*
X86182Y-48749D01*
X86482Y-48574D01*
X86482Y-48649D01*
X86520Y-48699D01*
X86557Y-48724D01*
X86632Y-48749D01*
X86820Y-48749D01*
X86895Y-48724D01*
X86932Y-48699D01*
X86970Y-48649D01*
X86970Y-48499D01*
X86932Y-48449D01*
X86895Y-48424D01*
X86182Y-49074D02*
X86182Y-49124D01*
X86220Y-49174D01*
X86257Y-49199D01*
X86332Y-49224D01*
X86482Y-49249D01*
X86670Y-49249D01*
X86820Y-49224D01*
X86895Y-49199D01*
X86932Y-49174D01*
X86970Y-49124D01*
X86970Y-49074D01*
X86932Y-49024D01*
X86895Y-48999D01*
X86820Y-48974D01*
X86670Y-48949D01*
X86482Y-48949D01*
X86332Y-48974D01*
X86257Y-48999D01*
X86220Y-49024D01*
X86182Y-49074D01*
X86182Y-49424D02*
X86182Y-49774D01*
X86970Y-49549D01*
X86182Y-50074D02*
X86182Y-50124D01*
X86220Y-50174D01*
X86257Y-50199D01*
X86332Y-50224D01*
X86482Y-50249D01*
X86670Y-50249D01*
X86820Y-50224D01*
X86895Y-50199D01*
X86932Y-50174D01*
X86970Y-50124D01*
X86970Y-50074D01*
X86932Y-50024D01*
X86895Y-49999D01*
X86820Y-49974D01*
X86670Y-49949D01*
X86482Y-49949D01*
X86332Y-49974D01*
X86257Y-49999D01*
X86220Y-50024D01*
X86182Y-50074D01*
X86182Y-50424D02*
X86182Y-50748D01*
X86482Y-50573D01*
X86482Y-50648D01*
X86520Y-50698D01*
X86557Y-50723D01*
X86632Y-50748D01*
X86820Y-50748D01*
X86895Y-50723D01*
X86932Y-50698D01*
X86970Y-50648D01*
X86970Y-50499D01*
X86932Y-50449D01*
X86895Y-50424D01*
X55436Y-26950D02*
X55474Y-27025D01*
X55474Y-27150D01*
X55436Y-27200D01*
X55399Y-27225D01*
X55324Y-27250D01*
X55249Y-27250D01*
X55174Y-27225D01*
X55136Y-27200D01*
X55099Y-27150D01*
X55061Y-27050D01*
X55024Y-27000D01*
X54986Y-26975D01*
X54911Y-26950D01*
X54836Y-26950D01*
X54761Y-26975D01*
X54724Y-27000D01*
X54686Y-27050D01*
X54686Y-27175D01*
X54724Y-27250D01*
X55474Y-27475D02*
X54686Y-27475D01*
X55474Y-27700D02*
X55061Y-27700D01*
X54986Y-27675D01*
X54949Y-27625D01*
X54949Y-27550D01*
X54986Y-27500D01*
X55024Y-27475D01*
X55474Y-28174D02*
X55061Y-28174D01*
X54986Y-28149D01*
X54949Y-28099D01*
X54949Y-27999D01*
X54986Y-27949D01*
X55436Y-28174D02*
X55474Y-28124D01*
X55474Y-27999D01*
X55436Y-27949D01*
X55361Y-27924D01*
X55286Y-27924D01*
X55211Y-27949D01*
X55174Y-27999D01*
X55174Y-28124D01*
X55136Y-28174D01*
X55474Y-28424D02*
X54949Y-28424D01*
X55099Y-28424D02*
X55024Y-28449D01*
X54986Y-28474D01*
X54949Y-28524D01*
X54949Y-28574D01*
X55436Y-28949D02*
X55474Y-28899D01*
X55474Y-28799D01*
X55436Y-28749D01*
X55361Y-28724D01*
X55061Y-28724D01*
X54986Y-28749D01*
X54949Y-28799D01*
X54949Y-28899D01*
X54986Y-28949D01*
X55061Y-28974D01*
X55136Y-28974D01*
X55211Y-28724D01*
X55061Y-29374D02*
X55099Y-29449D01*
X55136Y-29474D01*
X55211Y-29499D01*
X55324Y-29499D01*
X55399Y-29474D01*
X55436Y-29449D01*
X55474Y-29399D01*
X55474Y-29199D01*
X54686Y-29199D01*
X54686Y-29374D01*
X54724Y-29424D01*
X54761Y-29449D01*
X54836Y-29474D01*
X54911Y-29474D01*
X54986Y-29449D01*
X55024Y-29424D01*
X55061Y-29374D01*
X55061Y-29199D01*
X55474Y-29724D02*
X54949Y-29724D01*
X55099Y-29724D02*
X55024Y-29749D01*
X54986Y-29774D01*
X54949Y-29824D01*
X54949Y-29874D01*
X55474Y-30274D02*
X55061Y-30274D01*
X54986Y-30249D01*
X54949Y-30199D01*
X54949Y-30099D01*
X54986Y-30049D01*
X55436Y-30274D02*
X55474Y-30224D01*
X55474Y-30099D01*
X55436Y-30049D01*
X55361Y-30024D01*
X55286Y-30024D01*
X55211Y-30049D01*
X55174Y-30099D01*
X55174Y-30224D01*
X55136Y-30274D01*
X55474Y-30524D02*
X54949Y-30524D01*
X54686Y-30524D02*
X54724Y-30499D01*
X54761Y-30524D01*
X54724Y-30549D01*
X54686Y-30524D01*
X54761Y-30524D01*
X54949Y-30773D02*
X55474Y-30773D01*
X55024Y-30773D02*
X54986Y-30798D01*
X54949Y-30848D01*
X54949Y-30923D01*
X54986Y-30973D01*
X55061Y-30998D01*
X55474Y-30998D01*
X55436Y-31448D02*
X55474Y-31398D01*
X55474Y-31298D01*
X55436Y-31248D01*
X55361Y-31223D01*
X55061Y-31223D01*
X54986Y-31248D01*
X54949Y-31298D01*
X54949Y-31398D01*
X54986Y-31448D01*
X55061Y-31473D01*
X55136Y-31473D01*
X55211Y-31223D01*
X55474Y-31923D02*
X54686Y-31923D01*
X55436Y-31923D02*
X55474Y-31873D01*
X55474Y-31773D01*
X55436Y-31723D01*
X55399Y-31698D01*
X55324Y-31673D01*
X55099Y-31673D01*
X55024Y-31698D01*
X54986Y-31723D01*
X54949Y-31773D01*
X54949Y-31873D01*
X54986Y-31923D01*
X54686Y-32498D02*
X54686Y-32798D01*
X55474Y-32648D02*
X54686Y-32648D01*
X55436Y-33173D02*
X55474Y-33123D01*
X55474Y-33023D01*
X55436Y-32973D01*
X55361Y-32948D01*
X55061Y-32948D01*
X54986Y-32973D01*
X54949Y-33023D01*
X54949Y-33123D01*
X54986Y-33173D01*
X55061Y-33198D01*
X55136Y-33198D01*
X55211Y-32948D01*
X55436Y-33647D02*
X55474Y-33597D01*
X55474Y-33497D01*
X55436Y-33447D01*
X55399Y-33422D01*
X55324Y-33397D01*
X55099Y-33397D01*
X55024Y-33422D01*
X54986Y-33447D01*
X54949Y-33497D01*
X54949Y-33597D01*
X54986Y-33647D01*
X55474Y-33872D02*
X54686Y-33872D01*
X55474Y-34097D02*
X55061Y-34097D01*
X54986Y-34072D01*
X54949Y-34022D01*
X54949Y-33947D01*
X54986Y-33897D01*
X55024Y-33872D01*
X54949Y-34347D02*
X55474Y-34347D01*
X55024Y-34347D02*
X54986Y-34372D01*
X54949Y-34422D01*
X54949Y-34497D01*
X54986Y-34547D01*
X55061Y-34572D01*
X55474Y-34572D01*
X55474Y-34897D02*
X55436Y-34847D01*
X55399Y-34822D01*
X55324Y-34797D01*
X55099Y-34797D01*
X55024Y-34822D01*
X54986Y-34847D01*
X54949Y-34897D01*
X54949Y-34972D01*
X54986Y-35022D01*
X55024Y-35047D01*
X55099Y-35072D01*
X55324Y-35072D01*
X55399Y-35047D01*
X55436Y-35022D01*
X55474Y-34972D01*
X55474Y-34897D01*
X55474Y-35372D02*
X55436Y-35322D01*
X55361Y-35297D01*
X54686Y-35297D01*
X55474Y-35647D02*
X55436Y-35597D01*
X55399Y-35572D01*
X55324Y-35547D01*
X55099Y-35547D01*
X55024Y-35572D01*
X54986Y-35597D01*
X54949Y-35647D01*
X54949Y-35722D01*
X54986Y-35772D01*
X55024Y-35797D01*
X55099Y-35822D01*
X55324Y-35822D01*
X55399Y-35797D01*
X55436Y-35772D01*
X55474Y-35722D01*
X55474Y-35647D01*
X54949Y-36271D02*
X55586Y-36271D01*
X55661Y-36246D01*
X55699Y-36221D01*
X55736Y-36171D01*
X55736Y-36096D01*
X55699Y-36046D01*
X55436Y-36271D02*
X55474Y-36221D01*
X55474Y-36121D01*
X55436Y-36071D01*
X55399Y-36046D01*
X55324Y-36021D01*
X55099Y-36021D01*
X55024Y-36046D01*
X54986Y-36071D01*
X54949Y-36121D01*
X54949Y-36221D01*
X54986Y-36271D01*
X54949Y-36471D02*
X55474Y-36596D01*
X54949Y-36721D02*
X55474Y-36596D01*
X55661Y-36546D01*
X55699Y-36521D01*
X55736Y-36471D01*
X55436Y-36946D02*
X55474Y-36946D01*
X55549Y-36921D01*
X55586Y-36896D01*
X55474Y-37571D02*
X54686Y-37571D01*
X54949Y-37821D02*
X55474Y-37821D01*
X55024Y-37821D02*
X54986Y-37846D01*
X54949Y-37896D01*
X54949Y-37971D01*
X54986Y-38021D01*
X55061Y-38046D01*
X55474Y-38046D01*
X55436Y-38521D02*
X55474Y-38471D01*
X55474Y-38371D01*
X55436Y-38321D01*
X55399Y-38296D01*
X55324Y-38271D01*
X55099Y-38271D01*
X55024Y-38296D01*
X54986Y-38321D01*
X54949Y-38371D01*
X54949Y-38471D01*
X54986Y-38521D01*
X55399Y-38745D02*
X55436Y-38770D01*
X55474Y-38745D01*
X55436Y-38720D01*
X55399Y-38745D01*
X55474Y-38745D01*
G54D12*
X54077Y-26959D02*
X52896Y-26959D01*
X53458Y-26959D02*
X53458Y-27409D01*
X54077Y-27409D02*
X52896Y-27409D01*
X54077Y-28121D02*
X53458Y-28121D01*
X53346Y-28083D01*
X53290Y-28008D01*
X53290Y-27859D01*
X53346Y-27784D01*
X54021Y-28121D02*
X54077Y-28046D01*
X54077Y-27859D01*
X54021Y-27784D01*
X53908Y-27746D01*
X53796Y-27746D01*
X53683Y-27784D01*
X53627Y-27859D01*
X53627Y-28046D01*
X53571Y-28121D01*
X54021Y-28833D02*
X54077Y-28758D01*
X54077Y-28608D01*
X54021Y-28533D01*
X53965Y-28496D01*
X53852Y-28458D01*
X53515Y-28458D01*
X53402Y-28496D01*
X53346Y-28533D01*
X53290Y-28608D01*
X53290Y-28758D01*
X53346Y-28833D01*
X54077Y-29171D02*
X52896Y-29171D01*
X53627Y-29246D02*
X54077Y-29471D01*
X53290Y-29471D02*
X53740Y-29171D01*
X54077Y-30258D02*
X53515Y-29996D01*
X54077Y-29808D02*
X52896Y-29808D01*
X52896Y-30108D01*
X52952Y-30183D01*
X53008Y-30221D01*
X53121Y-30258D01*
X53290Y-30258D01*
X53402Y-30221D01*
X53458Y-30183D01*
X53515Y-30108D01*
X53515Y-29808D01*
X53458Y-30858D02*
X53458Y-30596D01*
X54077Y-30596D02*
X52896Y-30596D01*
X52896Y-30971D01*
X52896Y-32095D02*
X53740Y-32095D01*
X53908Y-32058D01*
X54021Y-31983D01*
X54077Y-31871D01*
X54077Y-31796D01*
X54077Y-32808D02*
X53458Y-32808D01*
X53346Y-32770D01*
X53290Y-32695D01*
X53290Y-32545D01*
X53346Y-32470D01*
X54021Y-32808D02*
X54077Y-32733D01*
X54077Y-32545D01*
X54021Y-32470D01*
X53908Y-32433D01*
X53796Y-32433D01*
X53683Y-32470D01*
X53627Y-32545D01*
X53627Y-32733D01*
X53571Y-32808D01*
X53290Y-33108D02*
X54077Y-33258D01*
X53515Y-33408D01*
X54077Y-33558D01*
X53290Y-33708D01*
X54077Y-34008D02*
X52896Y-34008D01*
X53346Y-34008D02*
X53290Y-34083D01*
X53290Y-34233D01*
X53346Y-34308D01*
X53402Y-34345D01*
X53515Y-34383D01*
X53852Y-34383D01*
X53965Y-34345D01*
X54021Y-34308D01*
X54077Y-34233D01*
X54077Y-34083D01*
X54021Y-34008D01*
X54077Y-34720D02*
X53290Y-34720D01*
X53515Y-34720D02*
X53402Y-34758D01*
X53346Y-34795D01*
X53290Y-34870D01*
X53290Y-34945D01*
X54021Y-35508D02*
X54077Y-35433D01*
X54077Y-35283D01*
X54021Y-35208D01*
X53908Y-35170D01*
X53458Y-35170D01*
X53346Y-35208D01*
X53290Y-35283D01*
X53290Y-35433D01*
X53346Y-35508D01*
X53458Y-35545D01*
X53571Y-35545D01*
X53683Y-35170D01*
X54077Y-36220D02*
X53458Y-36220D01*
X53346Y-36182D01*
X53290Y-36107D01*
X53290Y-35958D01*
X53346Y-35883D01*
X54021Y-36220D02*
X54077Y-36145D01*
X54077Y-35958D01*
X54021Y-35883D01*
X53908Y-35845D01*
X53796Y-35845D01*
X53683Y-35883D01*
X53627Y-35958D01*
X53627Y-36145D01*
X53571Y-36220D01*
X54077Y-36595D02*
X52896Y-36595D01*
X53627Y-36670D02*
X54077Y-36895D01*
X53290Y-36895D02*
X53740Y-36595D01*
X54021Y-37532D02*
X54077Y-37457D01*
X54077Y-37307D01*
X54021Y-37232D01*
X53908Y-37195D01*
X53458Y-37195D01*
X53346Y-37232D01*
X53290Y-37307D01*
X53290Y-37457D01*
X53346Y-37532D01*
X53458Y-37570D01*
X53571Y-37570D01*
X53683Y-37195D01*
X54077Y-37907D02*
X53290Y-37907D01*
X53515Y-37907D02*
X53402Y-37945D01*
X53346Y-37982D01*
X53290Y-38057D01*
X53290Y-38132D01*
X54077Y-38995D02*
X52896Y-38995D01*
X52896Y-39295D01*
X52952Y-39370D01*
X53008Y-39407D01*
X53121Y-39445D01*
X53290Y-39445D01*
X53402Y-39407D01*
X53458Y-39370D01*
X53515Y-39295D01*
X53515Y-38995D01*
X54077Y-39895D02*
X54021Y-39820D01*
X53965Y-39782D01*
X53852Y-39745D01*
X53515Y-39745D01*
X53402Y-39782D01*
X53346Y-39820D01*
X53290Y-39895D01*
X53290Y-40007D01*
X53346Y-40082D01*
X53402Y-40119D01*
X53515Y-40157D01*
X53852Y-40157D01*
X53965Y-40119D01*
X54021Y-40082D01*
X54077Y-40007D01*
X54077Y-39895D01*
X54077Y-40494D02*
X53290Y-40494D01*
X53515Y-40494D02*
X53402Y-40532D01*
X53346Y-40569D01*
X53290Y-40644D01*
X53290Y-40719D01*
X53290Y-40869D02*
X53290Y-41169D01*
X52896Y-40982D02*
X53908Y-40982D01*
X54021Y-41019D01*
X54077Y-41094D01*
X54077Y-41169D01*
X54077Y-41769D02*
X53458Y-41769D01*
X53346Y-41732D01*
X53290Y-41657D01*
X53290Y-41507D01*
X53346Y-41432D01*
X54021Y-41769D02*
X54077Y-41694D01*
X54077Y-41507D01*
X54021Y-41432D01*
X53908Y-41394D01*
X53796Y-41394D01*
X53683Y-41432D01*
X53627Y-41507D01*
X53627Y-41694D01*
X53571Y-41769D01*
X54077Y-42144D02*
X52896Y-42144D01*
X52896Y-42444D01*
X52952Y-42519D01*
X53008Y-42557D01*
X53121Y-42594D01*
X53290Y-42594D01*
X53402Y-42557D01*
X53458Y-42519D01*
X53515Y-42444D01*
X53515Y-42144D01*
X54077Y-43269D02*
X53458Y-43269D01*
X53346Y-43232D01*
X53290Y-43157D01*
X53290Y-43007D01*
X53346Y-42932D01*
X54021Y-43269D02*
X54077Y-43194D01*
X54077Y-43007D01*
X54021Y-42932D01*
X53908Y-42894D01*
X53796Y-42894D01*
X53683Y-42932D01*
X53627Y-43007D01*
X53627Y-43194D01*
X53571Y-43269D01*
X54021Y-43982D02*
X54077Y-43907D01*
X54077Y-43757D01*
X54021Y-43682D01*
X53965Y-43644D01*
X53852Y-43607D01*
X53515Y-43607D01*
X53402Y-43644D01*
X53346Y-43682D01*
X53290Y-43757D01*
X53290Y-43907D01*
X53346Y-43982D01*
X54077Y-44319D02*
X52896Y-44319D01*
X53627Y-44394D02*
X54077Y-44619D01*
X53290Y-44619D02*
X53740Y-44319D01*
G54D10*
X77677Y-44753D02*
X74527Y-44753D01*
X77677Y-47923D02*
X77677Y-44753D01*
X74527Y-47923D02*
X77677Y-47923D01*
X74527Y-44753D02*
X74527Y-47923D01*
X75984Y-46850D02*
G75*
G03X75984Y-46850I-393J0D01*
G74*
G01*
X77677Y-29399D02*
X74527Y-29399D01*
X77677Y-32568D02*
X77677Y-29399D01*
X74527Y-32568D02*
X77677Y-32568D01*
X74527Y-29399D02*
X74527Y-32568D01*
X75984Y-31496D02*
G75*
G03X75984Y-31496I-393J0D01*
G74*
G01*
X87661Y-52295D02*
G75*
G03X87661Y-52295I-1181J0D01*
G74*
G01*
X87661Y-26444D02*
G75*
G03X87661Y-26444I-1181J0D01*
G74*
G01*
X56551Y-49362D02*
X73370Y-49362D01*
X73370Y-49362D02*
X73370Y-25637D01*
X73370Y-25637D02*
X56551Y-25637D01*
X56551Y-25637D02*
X56551Y-49362D01*
G54D13*
X74332Y-47337D02*
X74351Y-47394D01*
X74351Y-47487D01*
X74332Y-47525D01*
X74313Y-47544D01*
X74276Y-47562D01*
X74238Y-47562D01*
X74201Y-47544D01*
X74182Y-47525D01*
X74163Y-47487D01*
X74145Y-47412D01*
X74126Y-47375D01*
X74107Y-47356D01*
X74070Y-47337D01*
X74032Y-47337D01*
X73995Y-47356D01*
X73976Y-47375D01*
X73957Y-47412D01*
X73957Y-47506D01*
X73976Y-47562D01*
X73995Y-47712D02*
X73976Y-47731D01*
X73957Y-47769D01*
X73957Y-47862D01*
X73976Y-47900D01*
X73995Y-47919D01*
X74032Y-47937D01*
X74070Y-47937D01*
X74126Y-47919D01*
X74351Y-47694D01*
X74351Y-47937D01*
X74332Y-31983D02*
X74351Y-32039D01*
X74351Y-32133D01*
X74332Y-32170D01*
X74313Y-32189D01*
X74276Y-32208D01*
X74238Y-32208D01*
X74201Y-32189D01*
X74182Y-32170D01*
X74163Y-32133D01*
X74145Y-32058D01*
X74126Y-32020D01*
X74107Y-32002D01*
X74070Y-31983D01*
X74032Y-31983D01*
X73995Y-32002D01*
X73976Y-32020D01*
X73957Y-32058D01*
X73957Y-32152D01*
X73976Y-32208D01*
X74351Y-32583D02*
X74351Y-32358D01*
X74351Y-32470D02*
X73957Y-32470D01*
X74013Y-32433D01*
X74051Y-32395D01*
X74070Y-32358D01*
X65091Y-38367D02*
X65091Y-38648D01*
X65110Y-38704D01*
X65148Y-38742D01*
X65204Y-38760D01*
X65241Y-38760D01*
X64941Y-38367D02*
X64698Y-38367D01*
X64829Y-38517D01*
X64773Y-38517D01*
X64735Y-38535D01*
X64716Y-38554D01*
X64698Y-38592D01*
X64698Y-38685D01*
X64716Y-38723D01*
X64735Y-38742D01*
X64773Y-38760D01*
X64885Y-38760D01*
X64923Y-38742D01*
X64941Y-38723D01*
M02*
