M48
INCH,TZ
T1C0.013
T2C0.039
T3C0.040
T4C0.047
T5C0.031
T6C0.043
T7C0.126
%
G90
G05
T1
X53622Y-39528
X53858Y-44567
X53858Y-45197
X54094Y-40630
X54488Y-43701
X55039Y-48031
X55039Y-48661
X55079Y-41575
X55276Y-39528
X55276Y-40157
X55354Y-41811
X55748Y-41811
X55984Y-44646
X56220Y-42362
X56299Y-44409
X56850Y-41732
X56929Y-44567
X56929Y-45197
X58583Y-40315
X58583Y-43701
X58976Y-46220
X59449Y-36299
X60157Y-40315
X61339Y-37874
X61417Y-46220
X62047Y-48661
X62913Y-36772
X63543Y-48661
X64803Y-36772
X64803Y-37874
X65197Y-36772
X65984Y-50315
X67087Y-46929
X67126Y-45354
X67244Y-36614
X67638Y-46929
X68189Y-50551
X68819Y-36220
X69213Y-37559
X70000Y-46850
X70276Y-47520
X70276Y-49803
X71811Y-34016
X71811Y-34646
X71811Y-35276
X71811Y-35906
X74646Y-30000
X74646Y-31811
X74921Y-33268
X74921Y-44016
X75157Y-41339
X75591Y-31811
X75591Y-44016
X75787Y-40827
X75984Y-31811
X76063Y-51260
X76181Y-42638
X76260Y-40827
X76614Y-29724
X76614Y-33268
X76614Y-44016
X76732Y-40827
X76929Y-38504
X77165Y-45433
X77283Y-33268
X77283Y-44016
X77362Y-41339
X77638Y-45433
X77874Y-29252
X77874Y-35906
X77874Y-38504
X78110Y-45433
X80866Y-52835
X81102Y-49370
X81417Y-39055
X81496Y-36142
X81496Y-49449
X82992Y-40000
X84646Y-32677
X84882Y-49449
X84882Y-49882
X84882Y-50315
X84961Y-32520
X84961Y-35276
T2
X53055Y-47870
X53055Y-48870
X53055Y-49870
X53055Y-50870
X53055Y-51870
X53055Y-52870
X67055Y-51870
X67055Y-52870
X68055Y-51870
X68055Y-52870
X69055Y-51870
X69055Y-52870
X70055Y-51870
X70055Y-52870
X71055Y-51870
X71055Y-52870
X72055Y-51870
X72055Y-52870
X75055Y-52870
X76055Y-52870
X77055Y-52870
X78055Y-52870
X79055Y-32370
X79055Y-33370
X79055Y-52870
X80055Y-32370
X80055Y-33370
X80055Y-52870
X81055Y-32370
X81055Y-33370
X82055Y-32370
X82055Y-33370
X82055Y-49870
X82055Y-50870
X83055Y-34870
X83055Y-35870
X83055Y-36870
X83055Y-37870
X83055Y-38870
X83055Y-41870
X83055Y-42870
X83055Y-43870
X83055Y-44870
X83055Y-45870
X83055Y-46870
X83055Y-49870
X83055Y-50870
X84055Y-34870
X84055Y-35870
X84055Y-36870
X84055Y-37870
X84055Y-41870
X84055Y-42870
X84055Y-43870
X84055Y-44870
X84055Y-45870
X84055Y-46870
X84055Y-49870
X84055Y-50870
X56846Y-25933
X56846Y-49067
X73075Y-25933
X73075Y-49067
T3
X84055Y-38870
T4
X55708Y-50118
X56693Y-50118
X57677Y-52087
X58661Y-50118
X59646Y-50118
X60826Y-50118
X61811Y-50118
X62795Y-52087
X63779Y-50118
X64764Y-50118
X55708Y-52087
X55708Y-53071
X57677Y-50118
X59646Y-52087
X59646Y-53071
X60826Y-52087
X60826Y-53071
X62795Y-50118
X64764Y-52087
X64764Y-53071
T5
X75000Y-30433
X75000Y-45787
T6
X76654Y-32087
X76654Y-47441
T7
X86480Y-26445
X86480Y-52295
T0
M30
