G04 (created by PCBNEW (2013-mar-13)-testing) date Wed 03 Jul 2013 03:21:25 PM PDT*
%MOIN*%
G04 Gerber Fmt 3.4, Leading zero omitted, Abs format*
%FSLAX34Y34*%
G01*
G70*
G90*
G04 APERTURE LIST*
%ADD10C,0.008000*%
%ADD11C,0.037496*%
%ADD12C,0.049307*%
%ADD13R,0.045400X0.041400*%
%ADD14R,0.041400X0.045400*%
%ADD15R,0.045400X0.043400*%
%ADD16R,0.043400X0.045400*%
%ADD17C,0.076900*%
%ADD18C,0.053200*%
%ADD19R,0.069000X0.169400*%
%ADD20R,0.069000X0.106400*%
%ADD21R,0.023717X0.065055*%
%ADD22R,0.065055X0.023717*%
%ADD23R,0.023700X0.078800*%
%ADD24R,0.029600X0.049300*%
%ADD25R,0.047339X0.029622*%
%ADD26R,0.066000X0.066000*%
%ADD27C,0.066000*%
%ADD28C,0.132000*%
%ADD29R,0.017811X0.053244*%
%ADD30R,0.068992X0.037496*%
%ADD31R,0.100488X0.068992*%
%ADD32C,0.045370*%
G04 APERTURE END LIST*
G54D10*
G54D11*
X75000Y-45787D03*
G54D12*
X76653Y-47440D03*
G54D11*
X75000Y-30433D03*
G54D12*
X76653Y-32086D03*
G54D13*
X81653Y-40944D03*
X81653Y-40314D03*
X80944Y-40944D03*
X80944Y-40314D03*
X80236Y-40944D03*
X80236Y-40314D03*
X77559Y-33936D03*
X77559Y-34566D03*
X76850Y-33936D03*
X76850Y-34566D03*
X74724Y-33936D03*
X74724Y-34566D03*
X79212Y-40314D03*
X79212Y-40944D03*
X78503Y-40314D03*
X78503Y-40944D03*
X76141Y-34566D03*
X76141Y-33936D03*
X75433Y-34566D03*
X75433Y-33936D03*
X72362Y-36614D03*
X72362Y-37244D03*
X72362Y-35275D03*
X72362Y-35905D03*
G54D14*
X83464Y-40000D03*
X84094Y-40000D03*
G54D15*
X67125Y-46535D03*
X67125Y-45905D03*
X77401Y-39133D03*
X77401Y-38503D03*
X66456Y-49685D03*
X66456Y-50315D03*
G54D16*
X80787Y-39448D03*
X81417Y-39448D03*
X54960Y-45196D03*
X54330Y-45196D03*
X58031Y-45196D03*
X57401Y-45196D03*
X54960Y-44566D03*
X54330Y-44566D03*
X54724Y-39527D03*
X54094Y-39527D03*
X56377Y-39527D03*
X55747Y-39527D03*
G54D15*
X59685Y-40944D03*
X59685Y-40314D03*
G54D16*
X58031Y-44566D03*
X57401Y-44566D03*
X54724Y-40157D03*
X54094Y-40157D03*
X56377Y-40157D03*
X55747Y-40157D03*
G54D15*
X59055Y-40944D03*
X59055Y-40314D03*
G54D17*
X60826Y-50117D03*
X64764Y-50117D03*
X62795Y-52086D03*
G54D18*
X62795Y-50117D03*
X60826Y-52086D03*
X64764Y-52086D03*
X60826Y-53070D03*
X64764Y-53070D03*
G54D17*
X63779Y-50117D03*
X61811Y-50117D03*
X55708Y-50117D03*
X59646Y-50117D03*
X57677Y-52086D03*
G54D18*
X57677Y-50117D03*
X55708Y-52086D03*
X59646Y-52086D03*
X55708Y-53070D03*
X59646Y-53070D03*
G54D17*
X58661Y-50117D03*
X56693Y-50117D03*
G54D13*
X53937Y-43070D03*
X53937Y-43700D03*
G54D14*
X61496Y-48661D03*
X60866Y-48661D03*
X64724Y-48661D03*
X64094Y-48661D03*
G54D13*
X56220Y-47086D03*
X56220Y-46456D03*
G54D14*
X55590Y-48661D03*
X56220Y-48661D03*
G54D13*
X55590Y-47322D03*
X55590Y-46692D03*
G54D19*
X60826Y-44429D03*
X60826Y-46909D03*
X64763Y-44429D03*
X64763Y-46909D03*
G54D20*
X57716Y-46870D03*
X57716Y-48248D03*
G54D16*
X56220Y-48031D03*
X55590Y-48031D03*
G54D21*
X67096Y-49803D03*
X67352Y-49803D03*
X67608Y-49803D03*
X67864Y-49803D03*
X68120Y-49803D03*
X68375Y-49803D03*
X68631Y-49803D03*
X68887Y-49803D03*
X69143Y-49803D03*
X69399Y-49803D03*
X69655Y-49803D03*
X69911Y-49803D03*
X69911Y-47519D03*
X69655Y-47519D03*
X69399Y-47519D03*
X69143Y-47519D03*
X68887Y-47519D03*
X68631Y-47519D03*
X68375Y-47519D03*
X68120Y-47519D03*
X67864Y-47519D03*
X67608Y-47519D03*
X67352Y-47519D03*
X67096Y-47519D03*
G54D14*
X70708Y-33385D03*
X71338Y-33385D03*
X70708Y-32755D03*
X71338Y-32755D03*
X70708Y-32125D03*
X71338Y-32125D03*
X71338Y-35905D03*
X70708Y-35905D03*
X71338Y-35275D03*
X70708Y-35275D03*
X71338Y-34645D03*
X70708Y-34645D03*
X71338Y-34015D03*
X70708Y-34015D03*
G54D22*
X80826Y-38887D03*
X80826Y-38631D03*
X80826Y-38375D03*
X80826Y-38120D03*
X80826Y-37864D03*
X80826Y-37608D03*
X80826Y-37352D03*
X80826Y-37096D03*
X80826Y-36840D03*
X80826Y-36584D03*
X80826Y-36328D03*
X80826Y-36072D03*
X78543Y-36072D03*
X78543Y-36328D03*
X78543Y-36584D03*
X78543Y-36840D03*
X78543Y-37096D03*
X78543Y-37352D03*
X78543Y-37608D03*
X78543Y-37864D03*
X78543Y-38120D03*
X78543Y-38375D03*
X78543Y-38631D03*
X78543Y-38887D03*
G54D23*
X58159Y-40944D03*
X57903Y-40944D03*
X57648Y-40944D03*
X57392Y-40944D03*
X57136Y-40944D03*
X56880Y-40944D03*
X56624Y-40944D03*
X56368Y-40944D03*
X56112Y-40944D03*
X55856Y-40944D03*
X55600Y-40944D03*
X55344Y-40944D03*
X55089Y-40944D03*
X54833Y-40944D03*
X54833Y-43700D03*
X55089Y-43700D03*
X55344Y-43700D03*
X55600Y-43700D03*
X55856Y-43700D03*
X56112Y-43700D03*
X56368Y-43700D03*
X56624Y-43700D03*
X56880Y-43700D03*
X57136Y-43700D03*
X57392Y-43700D03*
X57648Y-43700D03*
X57903Y-43700D03*
X58159Y-43700D03*
G54D16*
X75551Y-42204D03*
X76181Y-42204D03*
G54D15*
X75157Y-40275D03*
X75157Y-40905D03*
G54D13*
X77362Y-40905D03*
X77362Y-40275D03*
G54D14*
X76574Y-39448D03*
X75944Y-39448D03*
G54D24*
X75885Y-41357D03*
X76259Y-41357D03*
X76633Y-41357D03*
X76633Y-40295D03*
X75885Y-40295D03*
G54D25*
X71633Y-37303D03*
X71633Y-36555D03*
X70728Y-36929D03*
G54D26*
X84055Y-38870D03*
G54D27*
X83055Y-38870D03*
X84055Y-37870D03*
X83055Y-37870D03*
X84055Y-36870D03*
X83055Y-36870D03*
X84055Y-35870D03*
X83055Y-35870D03*
X84055Y-34870D03*
X83055Y-34870D03*
G54D26*
X82055Y-32370D03*
G54D27*
X82055Y-33370D03*
X81055Y-32370D03*
X81055Y-33370D03*
X80055Y-32370D03*
X80055Y-33370D03*
X79055Y-32370D03*
X79055Y-33370D03*
G54D26*
X84055Y-46870D03*
G54D27*
X83055Y-46870D03*
X84055Y-45870D03*
X83055Y-45870D03*
X84055Y-44870D03*
X83055Y-44870D03*
X84055Y-43870D03*
X83055Y-43870D03*
X84055Y-42870D03*
X83055Y-42870D03*
X84055Y-41870D03*
X83055Y-41870D03*
G54D26*
X84055Y-49870D03*
G54D27*
X84055Y-50870D03*
X83055Y-49870D03*
X83055Y-50870D03*
X82055Y-49870D03*
X82055Y-50870D03*
G54D26*
X75055Y-52870D03*
G54D27*
X76055Y-52870D03*
X77055Y-52870D03*
X78055Y-52870D03*
X79055Y-52870D03*
X80055Y-52870D03*
G54D26*
X72055Y-51870D03*
G54D27*
X72055Y-52870D03*
X71055Y-51870D03*
X71055Y-52870D03*
X70055Y-51870D03*
X70055Y-52870D03*
X69055Y-51870D03*
X69055Y-52870D03*
X68055Y-51870D03*
X68055Y-52870D03*
X67055Y-51870D03*
X67055Y-52870D03*
G54D26*
X53055Y-47870D03*
G54D27*
X53055Y-48870D03*
X53055Y-49870D03*
X53055Y-50870D03*
X53055Y-51870D03*
X53055Y-52870D03*
G54D28*
X86480Y-52295D03*
X86480Y-26444D03*
G54D29*
X61122Y-37330D03*
X61318Y-37330D03*
X61515Y-37330D03*
X61712Y-37330D03*
X61909Y-37330D03*
X62106Y-37330D03*
X62303Y-37330D03*
X62500Y-37330D03*
X62696Y-37330D03*
X62893Y-37330D03*
X63090Y-37330D03*
X63287Y-37330D03*
X63484Y-37330D03*
X63681Y-37330D03*
X63877Y-37330D03*
X64074Y-37330D03*
X64271Y-37330D03*
X64468Y-37330D03*
X64665Y-37330D03*
X64862Y-37330D03*
X65059Y-37330D03*
X65255Y-37330D03*
X65452Y-37330D03*
X65649Y-37330D03*
X65846Y-37330D03*
X66043Y-37330D03*
X66240Y-37330D03*
X66437Y-37330D03*
X66633Y-37330D03*
X66830Y-37330D03*
X67027Y-37330D03*
X67224Y-37330D03*
X67421Y-37330D03*
X67618Y-37330D03*
X67814Y-37330D03*
X68011Y-37330D03*
X68208Y-37330D03*
X68405Y-37330D03*
X68602Y-37330D03*
X68799Y-37330D03*
G54D30*
X60452Y-36582D03*
G54D31*
X60295Y-36110D03*
X69625Y-36110D03*
G54D30*
X69468Y-36582D03*
G54D32*
X56846Y-49066D03*
X73074Y-49066D03*
X73074Y-25933D03*
X56846Y-25933D03*
M02*
