G04 (created by PCBNEW (2013-mar-13)-testing) date Wed 03 Jul 2013 03:21:25 PM PDT*
%MOIN*%
G04 Gerber Fmt 3.4, Leading zero omitted, Abs format*
%FSLAX34Y34*%
G01*
G70*
G90*
G04 APERTURE LIST*
%ADD10C,0.008000*%
%ADD11R,0.055118X0.039370*%
%ADD12C,0.070900*%
%ADD13C,0.039400*%
%ADD14R,0.060000X0.060000*%
%ADD15C,0.060000*%
%ADD16C,0.027000*%
%ADD17C,0.010000*%
%ADD18C,0.016000*%
G04 APERTURE END LIST*
G54D10*
G54D11*
X74921Y-44586D03*
X75590Y-44586D03*
X76614Y-44586D03*
X77283Y-44586D03*
X77283Y-48090D03*
X76614Y-48090D03*
X74921Y-48090D03*
X74921Y-29232D03*
X75590Y-29232D03*
X76614Y-29232D03*
X77283Y-29232D03*
X77283Y-32736D03*
X76614Y-32736D03*
X74921Y-32736D03*
G54D12*
X60826Y-50117D03*
X64764Y-50117D03*
X62795Y-52086D03*
X63779Y-50117D03*
X61811Y-50117D03*
X55708Y-50117D03*
X59646Y-50117D03*
X57677Y-52086D03*
X58661Y-50117D03*
X56693Y-50117D03*
G54D13*
X55669Y-40944D03*
X54763Y-40944D03*
X56456Y-43700D03*
X55511Y-43700D03*
G54D14*
X84055Y-38870D03*
G54D15*
X83055Y-38870D03*
X84055Y-37870D03*
X83055Y-37870D03*
X84055Y-36870D03*
X83055Y-36870D03*
X84055Y-35870D03*
X83055Y-35870D03*
X84055Y-34870D03*
X83055Y-34870D03*
G54D14*
X82055Y-32370D03*
G54D15*
X82055Y-33370D03*
X81055Y-32370D03*
X81055Y-33370D03*
X80055Y-32370D03*
X80055Y-33370D03*
X79055Y-32370D03*
X79055Y-33370D03*
G54D14*
X84055Y-46870D03*
G54D15*
X83055Y-46870D03*
X84055Y-45870D03*
X83055Y-45870D03*
X84055Y-44870D03*
X83055Y-44870D03*
X84055Y-43870D03*
X83055Y-43870D03*
X84055Y-42870D03*
X83055Y-42870D03*
X84055Y-41870D03*
X83055Y-41870D03*
G54D14*
X84055Y-49870D03*
G54D15*
X84055Y-50870D03*
X83055Y-49870D03*
X83055Y-50870D03*
X82055Y-49870D03*
X82055Y-50870D03*
G54D14*
X75055Y-52870D03*
G54D15*
X76055Y-52870D03*
X77055Y-52870D03*
X78055Y-52870D03*
X79055Y-52870D03*
X80055Y-52870D03*
G54D14*
X72055Y-51870D03*
G54D15*
X72055Y-52870D03*
X71055Y-51870D03*
X71055Y-52870D03*
X70055Y-51870D03*
X70055Y-52870D03*
X69055Y-51870D03*
X69055Y-52870D03*
X68055Y-51870D03*
X68055Y-52870D03*
X67055Y-51870D03*
X67055Y-52870D03*
G54D14*
X53055Y-47870D03*
G54D15*
X53055Y-48870D03*
X53055Y-49870D03*
X53055Y-50870D03*
X53055Y-51870D03*
X53055Y-52870D03*
G54D16*
X84960Y-32519D03*
X84960Y-35275D03*
X77874Y-29251D03*
X77283Y-44015D03*
X84645Y-32677D03*
X76614Y-29724D03*
X76614Y-44015D03*
X76062Y-51259D03*
X56850Y-41732D03*
X56220Y-42362D03*
X74645Y-30000D03*
X74645Y-31811D03*
X80866Y-52834D03*
X64803Y-36771D03*
X64803Y-37874D03*
X58976Y-46220D03*
X61417Y-46220D03*
X81102Y-49370D03*
X81496Y-49448D03*
X67086Y-46929D03*
X70000Y-46850D03*
X84881Y-49881D03*
X84881Y-50314D03*
X84881Y-49448D03*
X76929Y-38503D03*
X67637Y-46929D03*
X69212Y-37559D03*
X68188Y-50551D03*
X71811Y-34015D03*
X71811Y-34645D03*
X71811Y-35275D03*
X71811Y-35905D03*
X62913Y-36771D03*
X59448Y-36299D03*
X68818Y-36220D03*
X61338Y-37874D03*
X67244Y-36614D03*
X65196Y-36771D03*
X77362Y-41338D03*
X76732Y-40826D03*
X76259Y-40826D03*
X75157Y-41338D03*
X60157Y-40314D03*
X58582Y-40314D03*
X56929Y-45196D03*
X56929Y-44566D03*
X58582Y-43700D03*
X65984Y-50314D03*
X81417Y-39055D03*
X82992Y-40000D03*
X54488Y-43700D03*
X53858Y-45196D03*
X53858Y-44566D03*
X53622Y-39527D03*
X54094Y-40629D03*
X55275Y-39527D03*
X55275Y-40157D03*
X67125Y-45354D03*
X70275Y-49803D03*
X70275Y-47519D03*
X75787Y-40826D03*
X76181Y-42637D03*
X81496Y-36141D03*
X77874Y-38503D03*
X77874Y-35905D03*
X55748Y-41811D03*
X55039Y-48661D03*
X55039Y-48031D03*
X63543Y-48661D03*
X62047Y-48661D03*
X77283Y-33267D03*
X78110Y-45433D03*
X56299Y-44409D03*
X75590Y-44015D03*
X77637Y-45433D03*
X74921Y-44015D03*
X74921Y-33267D03*
X77165Y-45433D03*
X75590Y-31811D03*
X55354Y-41811D03*
X75984Y-31811D03*
X76614Y-33267D03*
X55078Y-41574D03*
X55984Y-44645D03*
G54D17*
X84960Y-35275D02*
X84960Y-32519D01*
X77874Y-29251D02*
X77303Y-29251D01*
X77303Y-29251D02*
X77283Y-29232D01*
X77283Y-44015D02*
X77283Y-44586D01*
X84330Y-37362D02*
X84645Y-37047D01*
X84645Y-37047D02*
X84645Y-32677D01*
X83055Y-37870D02*
X83562Y-37362D01*
X76614Y-29724D02*
X76614Y-29232D01*
X83562Y-37362D02*
X84330Y-37362D01*
X76614Y-44015D02*
X76614Y-44586D01*
X76062Y-51259D02*
X76055Y-51267D01*
X76055Y-52870D02*
X76055Y-51267D01*
X56850Y-41732D02*
X56220Y-42362D01*
X74645Y-30000D02*
X74645Y-31811D01*
X68570Y-53385D02*
X68055Y-52870D01*
X80314Y-53385D02*
X80866Y-52834D01*
X68570Y-53385D02*
X80314Y-53385D01*
X64803Y-37874D02*
X64803Y-36771D01*
X58976Y-46220D02*
X61417Y-46220D01*
X82519Y-46405D02*
X83055Y-45870D01*
X82519Y-47952D02*
X82519Y-46405D01*
X81102Y-49370D02*
X82519Y-47952D01*
X81496Y-49448D02*
X83543Y-47401D01*
X83543Y-47401D02*
X83543Y-45358D01*
X83543Y-45358D02*
X83055Y-44870D01*
G54D18*
X67086Y-46929D02*
X67637Y-47480D01*
X67637Y-47480D02*
X69370Y-47480D01*
X69370Y-47480D02*
X70000Y-46850D01*
X84055Y-49870D02*
X84870Y-49870D01*
X84870Y-49870D02*
X84881Y-49881D01*
X84055Y-49870D02*
X84500Y-50314D01*
X84500Y-50314D02*
X84881Y-50314D01*
X84055Y-49870D02*
X84476Y-49448D01*
X84476Y-49448D02*
X84881Y-49448D01*
G54D17*
X77283Y-33267D02*
X77283Y-32736D01*
X77283Y-48090D02*
X77283Y-46259D01*
X77283Y-46259D02*
X78110Y-45433D01*
X56299Y-43858D02*
X56456Y-43700D01*
X56299Y-44409D02*
X56299Y-43858D01*
X75590Y-44015D02*
X75590Y-44586D01*
X76614Y-48090D02*
X76515Y-48090D01*
X76141Y-46929D02*
X77637Y-45433D01*
X76141Y-47716D02*
X76141Y-46929D01*
X76515Y-48090D02*
X76141Y-47716D01*
X76555Y-48031D02*
X76614Y-48090D01*
X74921Y-44015D02*
X74921Y-44586D01*
X74921Y-33267D02*
X74921Y-32736D01*
X74921Y-48090D02*
X74921Y-47677D01*
X74921Y-47677D02*
X77165Y-45433D01*
X74921Y-29232D02*
X74921Y-29566D01*
X75590Y-30236D02*
X75590Y-31811D01*
X74921Y-29566D02*
X75590Y-30236D01*
X55354Y-41259D02*
X55669Y-40944D01*
X55354Y-41811D02*
X55354Y-41259D01*
X75590Y-29232D02*
X75590Y-29606D01*
X75984Y-30000D02*
X75984Y-31811D01*
X75590Y-29606D02*
X75984Y-30000D01*
X76614Y-33267D02*
X76614Y-32736D01*
X55078Y-41259D02*
X54763Y-40944D01*
X55078Y-41574D02*
X55078Y-41259D01*
X55984Y-44173D02*
X55511Y-43700D01*
X55984Y-44645D02*
X55984Y-44173D01*
G54D10*
G36*
X87915Y-52281D02*
X87803Y-52843D01*
X87493Y-53307D01*
X87230Y-53483D01*
X87230Y-52146D01*
X87230Y-26296D01*
X87116Y-26020D01*
X86905Y-25809D01*
X86630Y-25695D01*
X86331Y-25694D01*
X86056Y-25808D01*
X85844Y-26019D01*
X85730Y-26295D01*
X85730Y-26593D01*
X85844Y-26869D01*
X86054Y-27080D01*
X86330Y-27194D01*
X86628Y-27195D01*
X86904Y-27081D01*
X87115Y-26870D01*
X87230Y-26594D01*
X87230Y-26296D01*
X87230Y-52146D01*
X87116Y-51870D01*
X86905Y-51659D01*
X86630Y-51545D01*
X86331Y-51545D01*
X86056Y-51659D01*
X85844Y-51869D01*
X85730Y-52145D01*
X85730Y-52443D01*
X85844Y-52719D01*
X86054Y-52930D01*
X86330Y-53045D01*
X86628Y-53045D01*
X86904Y-52931D01*
X87115Y-52720D01*
X87230Y-52445D01*
X87230Y-52146D01*
X87230Y-53483D01*
X87028Y-53618D01*
X86465Y-53730D01*
X85215Y-53730D01*
X85215Y-35225D01*
X85176Y-35131D01*
X85130Y-35084D01*
X85130Y-32710D01*
X85176Y-32664D01*
X85215Y-32570D01*
X85215Y-32469D01*
X85176Y-32375D01*
X85105Y-32303D01*
X85011Y-32264D01*
X84910Y-32264D01*
X84816Y-32303D01*
X84744Y-32375D01*
X84720Y-32432D01*
X84696Y-32422D01*
X84595Y-32422D01*
X84501Y-32460D01*
X84429Y-32532D01*
X84390Y-32626D01*
X84390Y-32727D01*
X84429Y-32821D01*
X84475Y-32867D01*
X84475Y-34854D01*
X84464Y-34744D01*
X84433Y-34669D01*
X84375Y-34634D01*
X84291Y-34718D01*
X84291Y-34549D01*
X84255Y-34491D01*
X84095Y-34443D01*
X83929Y-34460D01*
X83854Y-34491D01*
X83819Y-34549D01*
X84055Y-34785D01*
X84291Y-34549D01*
X84291Y-34718D01*
X84139Y-34870D01*
X84375Y-35106D01*
X84433Y-35070D01*
X84475Y-34929D01*
X84475Y-36976D01*
X84458Y-36994D01*
X84475Y-36953D01*
X84475Y-36786D01*
X84475Y-35786D01*
X84411Y-35632D01*
X84293Y-35514D01*
X84291Y-35513D01*
X84291Y-35190D01*
X84055Y-34954D01*
X83970Y-35039D01*
X83970Y-34870D01*
X83734Y-34634D01*
X83676Y-34669D01*
X83628Y-34829D01*
X83645Y-34995D01*
X83676Y-35070D01*
X83734Y-35106D01*
X83970Y-34870D01*
X83970Y-35039D01*
X83819Y-35190D01*
X83854Y-35248D01*
X84014Y-35296D01*
X84180Y-35279D01*
X84255Y-35248D01*
X84291Y-35190D01*
X84291Y-35513D01*
X84139Y-35450D01*
X83971Y-35450D01*
X83817Y-35513D01*
X83699Y-35631D01*
X83635Y-35786D01*
X83635Y-35953D01*
X83698Y-36107D01*
X83816Y-36225D01*
X83971Y-36290D01*
X84138Y-36290D01*
X84292Y-36226D01*
X84410Y-36108D01*
X84475Y-35953D01*
X84475Y-35786D01*
X84475Y-36786D01*
X84411Y-36632D01*
X84293Y-36514D01*
X84139Y-36450D01*
X83971Y-36450D01*
X83817Y-36513D01*
X83699Y-36631D01*
X83635Y-36786D01*
X83635Y-36953D01*
X83698Y-37107D01*
X83783Y-37192D01*
X83562Y-37192D01*
X83497Y-37205D01*
X83481Y-37216D01*
X83481Y-34910D01*
X83464Y-34744D01*
X83433Y-34669D01*
X83375Y-34634D01*
X83291Y-34718D01*
X83291Y-34549D01*
X83255Y-34491D01*
X83095Y-34443D01*
X82929Y-34460D01*
X82854Y-34491D01*
X82819Y-34549D01*
X83055Y-34785D01*
X83291Y-34549D01*
X83291Y-34718D01*
X83139Y-34870D01*
X83375Y-35106D01*
X83433Y-35070D01*
X83481Y-34910D01*
X83481Y-37216D01*
X83475Y-37220D01*
X83475Y-36786D01*
X83475Y-35786D01*
X83411Y-35632D01*
X83293Y-35514D01*
X83291Y-35513D01*
X83291Y-35190D01*
X83055Y-34954D01*
X82970Y-35039D01*
X82970Y-34870D01*
X82734Y-34634D01*
X82676Y-34669D01*
X82628Y-34829D01*
X82645Y-34995D01*
X82676Y-35070D01*
X82734Y-35106D01*
X82970Y-34870D01*
X82970Y-35039D01*
X82819Y-35190D01*
X82854Y-35248D01*
X83014Y-35296D01*
X83180Y-35279D01*
X83255Y-35248D01*
X83291Y-35190D01*
X83291Y-35513D01*
X83139Y-35450D01*
X82971Y-35450D01*
X82817Y-35513D01*
X82699Y-35631D01*
X82635Y-35786D01*
X82635Y-35953D01*
X82698Y-36107D01*
X82816Y-36225D01*
X82971Y-36290D01*
X83138Y-36290D01*
X83292Y-36226D01*
X83410Y-36108D01*
X83475Y-35953D01*
X83475Y-35786D01*
X83475Y-36786D01*
X83411Y-36632D01*
X83293Y-36514D01*
X83139Y-36450D01*
X82971Y-36450D01*
X82817Y-36513D01*
X82699Y-36631D01*
X82635Y-36786D01*
X82635Y-36953D01*
X82698Y-37107D01*
X82816Y-37225D01*
X82971Y-37290D01*
X83138Y-37290D01*
X83292Y-37226D01*
X83410Y-37108D01*
X83475Y-36953D01*
X83475Y-36786D01*
X83475Y-37220D01*
X83442Y-37241D01*
X83442Y-37241D01*
X83206Y-37478D01*
X83139Y-37450D01*
X82971Y-37450D01*
X82817Y-37513D01*
X82699Y-37631D01*
X82635Y-37786D01*
X82635Y-37953D01*
X82698Y-38107D01*
X82816Y-38225D01*
X82971Y-38290D01*
X83138Y-38290D01*
X83292Y-38226D01*
X83410Y-38108D01*
X83475Y-37953D01*
X83475Y-37786D01*
X83446Y-37718D01*
X83633Y-37532D01*
X83799Y-37532D01*
X83699Y-37631D01*
X83635Y-37786D01*
X83635Y-37953D01*
X83698Y-38107D01*
X83816Y-38225D01*
X83971Y-38290D01*
X84138Y-38290D01*
X84292Y-38226D01*
X84410Y-38108D01*
X84475Y-37953D01*
X84475Y-37786D01*
X84411Y-37632D01*
X84311Y-37532D01*
X84330Y-37532D01*
X84395Y-37519D01*
X84395Y-37519D01*
X84450Y-37482D01*
X84765Y-37167D01*
X84802Y-37112D01*
X84802Y-37112D01*
X84804Y-37101D01*
X84815Y-37047D01*
X84815Y-37047D01*
X84815Y-37047D01*
X84815Y-35491D01*
X84815Y-35491D01*
X84909Y-35530D01*
X85011Y-35530D01*
X85104Y-35491D01*
X85176Y-35420D01*
X85215Y-35326D01*
X85215Y-35225D01*
X85215Y-53730D01*
X85136Y-53730D01*
X85136Y-50264D01*
X85098Y-50170D01*
X85026Y-50098D01*
X85025Y-50098D01*
X85026Y-50098D01*
X85097Y-50026D01*
X85136Y-49932D01*
X85136Y-49831D01*
X85098Y-49737D01*
X85026Y-49665D01*
X85025Y-49665D01*
X85026Y-49665D01*
X85097Y-49593D01*
X85136Y-49499D01*
X85136Y-49398D01*
X85098Y-49304D01*
X85026Y-49232D01*
X84932Y-49193D01*
X84831Y-49193D01*
X84737Y-49232D01*
X84721Y-49248D01*
X84476Y-49248D01*
X84475Y-49249D01*
X84475Y-45786D01*
X84475Y-44786D01*
X84475Y-43786D01*
X84475Y-42786D01*
X84475Y-41786D01*
X84475Y-41786D01*
X84475Y-39193D01*
X84475Y-39146D01*
X84475Y-38546D01*
X84456Y-38502D01*
X84423Y-38468D01*
X84378Y-38450D01*
X84331Y-38450D01*
X83731Y-38450D01*
X83687Y-38468D01*
X83653Y-38502D01*
X83635Y-38546D01*
X83635Y-38593D01*
X83635Y-39193D01*
X83653Y-39238D01*
X83687Y-39271D01*
X83731Y-39290D01*
X83778Y-39290D01*
X84378Y-39290D01*
X84423Y-39271D01*
X84456Y-39238D01*
X84475Y-39193D01*
X84475Y-41786D01*
X84411Y-41632D01*
X84293Y-41514D01*
X84139Y-41450D01*
X83971Y-41450D01*
X83817Y-41513D01*
X83699Y-41631D01*
X83635Y-41786D01*
X83635Y-41953D01*
X83698Y-42107D01*
X83816Y-42225D01*
X83971Y-42290D01*
X84138Y-42290D01*
X84292Y-42226D01*
X84410Y-42108D01*
X84475Y-41953D01*
X84475Y-41786D01*
X84475Y-42786D01*
X84411Y-42632D01*
X84293Y-42514D01*
X84139Y-42450D01*
X83971Y-42450D01*
X83817Y-42513D01*
X83699Y-42631D01*
X83635Y-42786D01*
X83635Y-42953D01*
X83698Y-43107D01*
X83816Y-43225D01*
X83971Y-43290D01*
X84138Y-43290D01*
X84292Y-43226D01*
X84410Y-43108D01*
X84475Y-42953D01*
X84475Y-42786D01*
X84475Y-43786D01*
X84411Y-43632D01*
X84293Y-43514D01*
X84139Y-43450D01*
X83971Y-43450D01*
X83817Y-43513D01*
X83699Y-43631D01*
X83635Y-43786D01*
X83635Y-43953D01*
X83698Y-44107D01*
X83816Y-44225D01*
X83971Y-44290D01*
X84138Y-44290D01*
X84292Y-44226D01*
X84410Y-44108D01*
X84475Y-43953D01*
X84475Y-43786D01*
X84475Y-44786D01*
X84411Y-44632D01*
X84293Y-44514D01*
X84139Y-44450D01*
X83971Y-44450D01*
X83817Y-44513D01*
X83699Y-44631D01*
X83635Y-44786D01*
X83635Y-44953D01*
X83698Y-45107D01*
X83816Y-45225D01*
X83971Y-45290D01*
X84138Y-45290D01*
X84292Y-45226D01*
X84410Y-45108D01*
X84475Y-44953D01*
X84475Y-44786D01*
X84475Y-45786D01*
X84411Y-45632D01*
X84293Y-45514D01*
X84139Y-45450D01*
X83971Y-45450D01*
X83817Y-45513D01*
X83713Y-45617D01*
X83713Y-45358D01*
X83713Y-45358D01*
X83713Y-45358D01*
X83702Y-45304D01*
X83700Y-45293D01*
X83700Y-45293D01*
X83663Y-45238D01*
X83446Y-45021D01*
X83475Y-44953D01*
X83475Y-44786D01*
X83475Y-43786D01*
X83475Y-42786D01*
X83475Y-41786D01*
X83475Y-38786D01*
X83411Y-38632D01*
X83293Y-38514D01*
X83139Y-38450D01*
X82971Y-38450D01*
X82817Y-38513D01*
X82699Y-38631D01*
X82635Y-38786D01*
X82635Y-38953D01*
X82698Y-39107D01*
X82816Y-39225D01*
X82971Y-39290D01*
X83138Y-39290D01*
X83292Y-39226D01*
X83410Y-39108D01*
X83475Y-38953D01*
X83475Y-38786D01*
X83475Y-41786D01*
X83411Y-41632D01*
X83293Y-41514D01*
X83139Y-41450D01*
X82971Y-41450D01*
X82817Y-41513D01*
X82699Y-41631D01*
X82635Y-41786D01*
X82635Y-41953D01*
X82698Y-42107D01*
X82816Y-42225D01*
X82971Y-42290D01*
X83138Y-42290D01*
X83292Y-42226D01*
X83410Y-42108D01*
X83475Y-41953D01*
X83475Y-41786D01*
X83475Y-42786D01*
X83411Y-42632D01*
X83293Y-42514D01*
X83139Y-42450D01*
X82971Y-42450D01*
X82817Y-42513D01*
X82699Y-42631D01*
X82635Y-42786D01*
X82635Y-42953D01*
X82698Y-43107D01*
X82816Y-43225D01*
X82971Y-43290D01*
X83138Y-43290D01*
X83292Y-43226D01*
X83410Y-43108D01*
X83475Y-42953D01*
X83475Y-42786D01*
X83475Y-43786D01*
X83411Y-43632D01*
X83293Y-43514D01*
X83139Y-43450D01*
X82971Y-43450D01*
X82817Y-43513D01*
X82699Y-43631D01*
X82635Y-43786D01*
X82635Y-43953D01*
X82698Y-44107D01*
X82816Y-44225D01*
X82971Y-44290D01*
X83138Y-44290D01*
X83292Y-44226D01*
X83410Y-44108D01*
X83475Y-43953D01*
X83475Y-43786D01*
X83475Y-44786D01*
X83411Y-44632D01*
X83293Y-44514D01*
X83139Y-44450D01*
X82971Y-44450D01*
X82817Y-44513D01*
X82699Y-44631D01*
X82635Y-44786D01*
X82635Y-44953D01*
X82698Y-45107D01*
X82816Y-45225D01*
X82971Y-45290D01*
X83138Y-45290D01*
X83206Y-45261D01*
X83373Y-45428D01*
X83373Y-45594D01*
X83293Y-45514D01*
X83139Y-45450D01*
X82971Y-45450D01*
X82817Y-45513D01*
X82699Y-45631D01*
X82635Y-45786D01*
X82635Y-45953D01*
X82663Y-46021D01*
X82475Y-46209D01*
X82475Y-33286D01*
X82475Y-33286D01*
X82475Y-32693D01*
X82475Y-32646D01*
X82475Y-32460D01*
X82475Y-32280D01*
X82475Y-32093D01*
X82475Y-32046D01*
X82456Y-32002D01*
X82423Y-31968D01*
X82378Y-31950D01*
X82145Y-31950D01*
X82115Y-31980D01*
X82115Y-32310D01*
X82445Y-32310D01*
X82475Y-32280D01*
X82475Y-32460D01*
X82445Y-32430D01*
X82115Y-32430D01*
X82115Y-32760D01*
X82145Y-32790D01*
X82378Y-32790D01*
X82423Y-32771D01*
X82456Y-32738D01*
X82475Y-32693D01*
X82475Y-33286D01*
X82411Y-33132D01*
X82293Y-33014D01*
X82139Y-32950D01*
X81995Y-32950D01*
X81995Y-32760D01*
X81995Y-32430D01*
X81995Y-32310D01*
X81995Y-31980D01*
X81965Y-31950D01*
X81731Y-31950D01*
X81687Y-31968D01*
X81653Y-32002D01*
X81635Y-32046D01*
X81635Y-32093D01*
X81635Y-32280D01*
X81665Y-32310D01*
X81995Y-32310D01*
X81995Y-32430D01*
X81665Y-32430D01*
X81635Y-32460D01*
X81635Y-32646D01*
X81635Y-32693D01*
X81653Y-32738D01*
X81687Y-32771D01*
X81731Y-32790D01*
X81965Y-32790D01*
X81995Y-32760D01*
X81995Y-32950D01*
X81971Y-32950D01*
X81817Y-33013D01*
X81699Y-33131D01*
X81635Y-33286D01*
X81635Y-33453D01*
X81698Y-33607D01*
X81816Y-33725D01*
X81971Y-33790D01*
X82138Y-33790D01*
X82292Y-33726D01*
X82410Y-33608D01*
X82475Y-33453D01*
X82475Y-33286D01*
X82475Y-46209D01*
X82399Y-46285D01*
X82362Y-46340D01*
X82349Y-46405D01*
X82349Y-47882D01*
X81481Y-48750D01*
X81481Y-32410D01*
X81464Y-32244D01*
X81433Y-32169D01*
X81375Y-32134D01*
X81291Y-32218D01*
X81291Y-32049D01*
X81255Y-31991D01*
X81095Y-31943D01*
X80929Y-31960D01*
X80854Y-31991D01*
X80819Y-32049D01*
X81055Y-32285D01*
X81291Y-32049D01*
X81291Y-32218D01*
X81139Y-32370D01*
X81375Y-32606D01*
X81433Y-32570D01*
X81481Y-32410D01*
X81481Y-48750D01*
X81475Y-48756D01*
X81475Y-33286D01*
X81411Y-33132D01*
X81293Y-33014D01*
X81291Y-33013D01*
X81291Y-32690D01*
X81055Y-32454D01*
X80970Y-32539D01*
X80970Y-32370D01*
X80734Y-32134D01*
X80676Y-32169D01*
X80628Y-32329D01*
X80645Y-32495D01*
X80676Y-32570D01*
X80734Y-32606D01*
X80970Y-32370D01*
X80970Y-32539D01*
X80819Y-32690D01*
X80854Y-32748D01*
X81014Y-32796D01*
X81180Y-32779D01*
X81255Y-32748D01*
X81291Y-32690D01*
X81291Y-33013D01*
X81139Y-32950D01*
X80971Y-32950D01*
X80817Y-33013D01*
X80699Y-33131D01*
X80635Y-33286D01*
X80635Y-33453D01*
X80698Y-33607D01*
X80816Y-33725D01*
X80971Y-33790D01*
X81138Y-33790D01*
X81292Y-33726D01*
X81410Y-33608D01*
X81475Y-33453D01*
X81475Y-33286D01*
X81475Y-48756D01*
X81116Y-49115D01*
X81051Y-49115D01*
X80958Y-49153D01*
X80886Y-49225D01*
X80847Y-49319D01*
X80847Y-49420D01*
X80886Y-49514D01*
X80957Y-49586D01*
X81051Y-49625D01*
X81152Y-49625D01*
X81246Y-49586D01*
X81268Y-49564D01*
X81279Y-49593D01*
X81351Y-49664D01*
X81445Y-49703D01*
X81546Y-49703D01*
X81640Y-49665D01*
X81712Y-49593D01*
X81751Y-49499D01*
X81751Y-49434D01*
X83663Y-47521D01*
X83663Y-47521D01*
X83663Y-47521D01*
X83688Y-47484D01*
X83700Y-47466D01*
X83700Y-47466D01*
X83713Y-47401D01*
X83713Y-47401D01*
X83713Y-47401D01*
X83713Y-47282D01*
X83731Y-47290D01*
X83778Y-47290D01*
X84378Y-47290D01*
X84423Y-47271D01*
X84456Y-47238D01*
X84475Y-47193D01*
X84475Y-47146D01*
X84475Y-46546D01*
X84456Y-46502D01*
X84423Y-46468D01*
X84378Y-46450D01*
X84331Y-46450D01*
X83731Y-46450D01*
X83713Y-46457D01*
X83713Y-46122D01*
X83816Y-46225D01*
X83971Y-46290D01*
X84138Y-46290D01*
X84292Y-46226D01*
X84410Y-46108D01*
X84475Y-45953D01*
X84475Y-45786D01*
X84475Y-49249D01*
X84399Y-49264D01*
X84334Y-49307D01*
X84192Y-49450D01*
X83731Y-49450D01*
X83687Y-49468D01*
X83653Y-49502D01*
X83635Y-49546D01*
X83635Y-49593D01*
X83635Y-50193D01*
X83653Y-50238D01*
X83687Y-50271D01*
X83731Y-50290D01*
X83778Y-50290D01*
X84192Y-50290D01*
X84358Y-50456D01*
X84423Y-50499D01*
X84423Y-50499D01*
X84436Y-50502D01*
X84500Y-50514D01*
X84721Y-50514D01*
X84737Y-50531D01*
X84830Y-50569D01*
X84932Y-50570D01*
X85026Y-50531D01*
X85097Y-50459D01*
X85136Y-50365D01*
X85136Y-50264D01*
X85136Y-53730D01*
X84475Y-53730D01*
X84475Y-50786D01*
X84411Y-50632D01*
X84293Y-50514D01*
X84139Y-50450D01*
X83971Y-50450D01*
X83817Y-50513D01*
X83699Y-50631D01*
X83635Y-50786D01*
X83635Y-50953D01*
X83698Y-51107D01*
X83816Y-51225D01*
X83971Y-51290D01*
X84138Y-51290D01*
X84292Y-51226D01*
X84410Y-51108D01*
X84475Y-50953D01*
X84475Y-50786D01*
X84475Y-53730D01*
X83475Y-53730D01*
X83475Y-50786D01*
X83475Y-49786D01*
X83411Y-49632D01*
X83293Y-49514D01*
X83139Y-49450D01*
X82971Y-49450D01*
X82817Y-49513D01*
X82699Y-49631D01*
X82635Y-49786D01*
X82635Y-49953D01*
X82698Y-50107D01*
X82816Y-50225D01*
X82971Y-50290D01*
X83138Y-50290D01*
X83292Y-50226D01*
X83410Y-50108D01*
X83475Y-49953D01*
X83475Y-49786D01*
X83475Y-50786D01*
X83411Y-50632D01*
X83293Y-50514D01*
X83139Y-50450D01*
X82971Y-50450D01*
X82817Y-50513D01*
X82699Y-50631D01*
X82635Y-50786D01*
X82635Y-50953D01*
X82698Y-51107D01*
X82816Y-51225D01*
X82971Y-51290D01*
X83138Y-51290D01*
X83292Y-51226D01*
X83410Y-51108D01*
X83475Y-50953D01*
X83475Y-50786D01*
X83475Y-53730D01*
X82481Y-53730D01*
X82481Y-50910D01*
X82475Y-50849D01*
X82475Y-49786D01*
X82411Y-49632D01*
X82293Y-49514D01*
X82139Y-49450D01*
X81971Y-49450D01*
X81817Y-49513D01*
X81699Y-49631D01*
X81635Y-49786D01*
X81635Y-49953D01*
X81698Y-50107D01*
X81816Y-50225D01*
X81971Y-50290D01*
X82138Y-50290D01*
X82292Y-50226D01*
X82410Y-50108D01*
X82475Y-49953D01*
X82475Y-49786D01*
X82475Y-50849D01*
X82464Y-50744D01*
X82433Y-50669D01*
X82375Y-50634D01*
X82291Y-50718D01*
X82291Y-50549D01*
X82255Y-50491D01*
X82095Y-50443D01*
X81929Y-50460D01*
X81854Y-50491D01*
X81819Y-50549D01*
X82055Y-50785D01*
X82291Y-50549D01*
X82291Y-50718D01*
X82139Y-50870D01*
X82375Y-51106D01*
X82433Y-51070D01*
X82481Y-50910D01*
X82481Y-53730D01*
X82291Y-53730D01*
X82291Y-51190D01*
X82055Y-50954D01*
X81970Y-51039D01*
X81970Y-50870D01*
X81734Y-50634D01*
X81676Y-50669D01*
X81628Y-50829D01*
X81645Y-50995D01*
X81676Y-51070D01*
X81734Y-51106D01*
X81970Y-50870D01*
X81970Y-51039D01*
X81819Y-51190D01*
X81854Y-51248D01*
X82014Y-51296D01*
X82180Y-51279D01*
X82255Y-51248D01*
X82291Y-51190D01*
X82291Y-53730D01*
X81121Y-53730D01*
X81121Y-52784D01*
X81082Y-52690D01*
X81010Y-52618D01*
X80917Y-52579D01*
X80815Y-52579D01*
X80721Y-52618D01*
X80650Y-52690D01*
X80611Y-52783D01*
X80611Y-52849D01*
X80481Y-52978D01*
X80481Y-32410D01*
X80464Y-32244D01*
X80433Y-32169D01*
X80375Y-32134D01*
X80291Y-32218D01*
X80291Y-32049D01*
X80255Y-31991D01*
X80095Y-31943D01*
X79929Y-31960D01*
X79854Y-31991D01*
X79819Y-32049D01*
X80055Y-32285D01*
X80291Y-32049D01*
X80291Y-32218D01*
X80139Y-32370D01*
X80375Y-32606D01*
X80433Y-32570D01*
X80481Y-32410D01*
X80481Y-52978D01*
X80452Y-53007D01*
X80475Y-52953D01*
X80475Y-52786D01*
X80475Y-33286D01*
X80411Y-33132D01*
X80293Y-33014D01*
X80291Y-33013D01*
X80291Y-32690D01*
X80055Y-32454D01*
X79970Y-32539D01*
X79970Y-32370D01*
X79734Y-32134D01*
X79676Y-32169D01*
X79628Y-32329D01*
X79645Y-32495D01*
X79676Y-32570D01*
X79734Y-32606D01*
X79970Y-32370D01*
X79970Y-32539D01*
X79819Y-32690D01*
X79854Y-32748D01*
X80014Y-32796D01*
X80180Y-32779D01*
X80255Y-32748D01*
X80291Y-32690D01*
X80291Y-33013D01*
X80139Y-32950D01*
X79971Y-32950D01*
X79817Y-33013D01*
X79699Y-33131D01*
X79635Y-33286D01*
X79635Y-33453D01*
X79698Y-33607D01*
X79816Y-33725D01*
X79971Y-33790D01*
X80138Y-33790D01*
X80292Y-33726D01*
X80410Y-33608D01*
X80475Y-33453D01*
X80475Y-33286D01*
X80475Y-52786D01*
X80411Y-52632D01*
X80293Y-52514D01*
X80139Y-52450D01*
X79971Y-52450D01*
X79817Y-52513D01*
X79699Y-52631D01*
X79635Y-52786D01*
X79635Y-52953D01*
X79698Y-53107D01*
X79806Y-53215D01*
X79481Y-53215D01*
X79481Y-32410D01*
X79464Y-32244D01*
X79433Y-32169D01*
X79375Y-32134D01*
X79291Y-32218D01*
X79291Y-32049D01*
X79255Y-31991D01*
X79095Y-31943D01*
X78929Y-31960D01*
X78854Y-31991D01*
X78819Y-32049D01*
X79055Y-32285D01*
X79291Y-32049D01*
X79291Y-32218D01*
X79139Y-32370D01*
X79375Y-32606D01*
X79433Y-32570D01*
X79481Y-32410D01*
X79481Y-53215D01*
X79303Y-53215D01*
X79410Y-53108D01*
X79475Y-52953D01*
X79475Y-52786D01*
X79475Y-33286D01*
X79411Y-33132D01*
X79293Y-33014D01*
X79291Y-33013D01*
X79291Y-32690D01*
X79055Y-32454D01*
X78970Y-32539D01*
X78970Y-32370D01*
X78734Y-32134D01*
X78676Y-32169D01*
X78628Y-32329D01*
X78645Y-32495D01*
X78676Y-32570D01*
X78734Y-32606D01*
X78970Y-32370D01*
X78970Y-32539D01*
X78819Y-32690D01*
X78854Y-32748D01*
X79014Y-32796D01*
X79180Y-32779D01*
X79255Y-32748D01*
X79291Y-32690D01*
X79291Y-33013D01*
X79139Y-32950D01*
X78971Y-32950D01*
X78817Y-33013D01*
X78699Y-33131D01*
X78635Y-33286D01*
X78635Y-33453D01*
X78698Y-33607D01*
X78816Y-33725D01*
X78971Y-33790D01*
X79138Y-33790D01*
X79292Y-33726D01*
X79410Y-33608D01*
X79475Y-33453D01*
X79475Y-33286D01*
X79475Y-52786D01*
X79411Y-52632D01*
X79293Y-52514D01*
X79139Y-52450D01*
X78971Y-52450D01*
X78817Y-52513D01*
X78699Y-52631D01*
X78635Y-52786D01*
X78635Y-52953D01*
X78698Y-53107D01*
X78806Y-53215D01*
X78303Y-53215D01*
X78410Y-53108D01*
X78475Y-52953D01*
X78475Y-52786D01*
X78411Y-52632D01*
X78365Y-52586D01*
X78365Y-45382D01*
X78326Y-45288D01*
X78254Y-45217D01*
X78161Y-45178D01*
X78129Y-45178D01*
X78129Y-29201D01*
X78090Y-29107D01*
X78018Y-29035D01*
X77924Y-28997D01*
X77823Y-28996D01*
X77729Y-29035D01*
X77683Y-29081D01*
X77679Y-29081D01*
X77679Y-29011D01*
X77660Y-28967D01*
X77627Y-28933D01*
X77582Y-28915D01*
X77535Y-28915D01*
X76984Y-28915D01*
X76948Y-28930D01*
X76913Y-28915D01*
X76865Y-28915D01*
X76314Y-28915D01*
X76270Y-28933D01*
X76236Y-28967D01*
X76218Y-29011D01*
X76218Y-29059D01*
X76218Y-29453D01*
X76236Y-29497D01*
X76270Y-29530D01*
X76314Y-29549D01*
X76362Y-29549D01*
X76428Y-29549D01*
X76398Y-29579D01*
X76359Y-29673D01*
X76359Y-29774D01*
X76397Y-29868D01*
X76469Y-29940D01*
X76563Y-29979D01*
X76664Y-29979D01*
X76758Y-29940D01*
X76830Y-29869D01*
X76869Y-29775D01*
X76869Y-29673D01*
X76830Y-29580D01*
X76799Y-29549D01*
X76913Y-29549D01*
X76948Y-29534D01*
X76984Y-29549D01*
X77031Y-29549D01*
X77582Y-29549D01*
X77627Y-29530D01*
X77660Y-29497D01*
X77679Y-29453D01*
X77679Y-29421D01*
X77683Y-29421D01*
X77729Y-29468D01*
X77823Y-29506D01*
X77924Y-29507D01*
X78018Y-29468D01*
X78090Y-29396D01*
X78128Y-29302D01*
X78129Y-29201D01*
X78129Y-45178D01*
X78059Y-45178D01*
X77965Y-45216D01*
X77894Y-45288D01*
X77874Y-45337D01*
X77854Y-45288D01*
X77782Y-45217D01*
X77688Y-45178D01*
X77679Y-45178D01*
X77679Y-44807D01*
X77679Y-44759D01*
X77679Y-44365D01*
X77679Y-32956D01*
X77679Y-32909D01*
X77679Y-32515D01*
X77660Y-32471D01*
X77627Y-32437D01*
X77582Y-32419D01*
X77535Y-32419D01*
X76984Y-32419D01*
X76948Y-32433D01*
X76913Y-32419D01*
X76865Y-32419D01*
X76729Y-32419D01*
X76843Y-32372D01*
X76938Y-32277D01*
X76990Y-32153D01*
X76990Y-32019D01*
X76939Y-31896D01*
X76844Y-31801D01*
X76720Y-31750D01*
X76586Y-31750D01*
X76463Y-31801D01*
X76368Y-31895D01*
X76317Y-32019D01*
X76316Y-32153D01*
X76368Y-32276D01*
X76462Y-32371D01*
X76577Y-32419D01*
X76314Y-32419D01*
X76270Y-32437D01*
X76239Y-32468D01*
X76239Y-31760D01*
X76200Y-31666D01*
X76154Y-31620D01*
X76154Y-30000D01*
X76154Y-30000D01*
X76154Y-30000D01*
X76141Y-29934D01*
X76141Y-29934D01*
X76129Y-29916D01*
X76104Y-29879D01*
X76104Y-29879D01*
X76104Y-29879D01*
X75773Y-29549D01*
X75890Y-29549D01*
X75934Y-29530D01*
X75967Y-29497D01*
X75986Y-29453D01*
X75986Y-29405D01*
X75986Y-29011D01*
X75967Y-28967D01*
X75934Y-28933D01*
X75890Y-28915D01*
X75842Y-28915D01*
X75291Y-28915D01*
X75255Y-28930D01*
X75220Y-28915D01*
X75172Y-28915D01*
X74621Y-28915D01*
X74577Y-28933D01*
X74543Y-28967D01*
X74525Y-29011D01*
X74525Y-29059D01*
X74525Y-29453D01*
X74543Y-29497D01*
X74577Y-29530D01*
X74621Y-29549D01*
X74669Y-29549D01*
X74751Y-29549D01*
X74751Y-29566D01*
X74764Y-29631D01*
X74801Y-29687D01*
X75420Y-30306D01*
X75420Y-31620D01*
X75374Y-31666D01*
X75335Y-31760D01*
X75335Y-31861D01*
X75374Y-31955D01*
X75445Y-32027D01*
X75539Y-32065D01*
X75641Y-32066D01*
X75734Y-32027D01*
X75787Y-31974D01*
X75839Y-32027D01*
X75933Y-32065D01*
X76034Y-32066D01*
X76128Y-32027D01*
X76200Y-31955D01*
X76239Y-31861D01*
X76239Y-31760D01*
X76239Y-32468D01*
X76236Y-32471D01*
X76218Y-32515D01*
X76218Y-32563D01*
X76218Y-32956D01*
X76236Y-33001D01*
X76270Y-33034D01*
X76314Y-33053D01*
X76362Y-33053D01*
X76444Y-33053D01*
X76444Y-33077D01*
X76398Y-33123D01*
X76359Y-33216D01*
X76359Y-33318D01*
X76397Y-33411D01*
X76469Y-33483D01*
X76563Y-33522D01*
X76664Y-33522D01*
X76758Y-33484D01*
X76830Y-33412D01*
X76869Y-33318D01*
X76869Y-33217D01*
X76830Y-33123D01*
X76784Y-33077D01*
X76784Y-33053D01*
X76913Y-33053D01*
X76948Y-33038D01*
X76984Y-33053D01*
X77031Y-33053D01*
X77113Y-33053D01*
X77113Y-33077D01*
X77067Y-33123D01*
X77028Y-33216D01*
X77028Y-33318D01*
X77067Y-33411D01*
X77138Y-33483D01*
X77232Y-33522D01*
X77333Y-33522D01*
X77427Y-33484D01*
X77499Y-33412D01*
X77538Y-33318D01*
X77538Y-33217D01*
X77499Y-33123D01*
X77453Y-33077D01*
X77453Y-33053D01*
X77582Y-33053D01*
X77627Y-33034D01*
X77660Y-33001D01*
X77679Y-32956D01*
X77679Y-44365D01*
X77660Y-44321D01*
X77627Y-44288D01*
X77582Y-44269D01*
X77535Y-44269D01*
X77453Y-44269D01*
X77453Y-44206D01*
X77499Y-44160D01*
X77538Y-44066D01*
X77538Y-43965D01*
X77499Y-43871D01*
X77428Y-43799D01*
X77334Y-43760D01*
X77232Y-43760D01*
X77139Y-43799D01*
X77067Y-43871D01*
X77028Y-43964D01*
X77028Y-44066D01*
X77067Y-44160D01*
X77113Y-44206D01*
X77113Y-44269D01*
X76984Y-44269D01*
X76948Y-44284D01*
X76913Y-44269D01*
X76865Y-44269D01*
X76784Y-44269D01*
X76784Y-44206D01*
X76830Y-44160D01*
X76869Y-44066D01*
X76869Y-43965D01*
X76830Y-43871D01*
X76758Y-43799D01*
X76665Y-43760D01*
X76563Y-43760D01*
X76469Y-43799D01*
X76398Y-43871D01*
X76359Y-43964D01*
X76359Y-44066D01*
X76397Y-44160D01*
X76444Y-44206D01*
X76444Y-44269D01*
X76314Y-44269D01*
X76270Y-44288D01*
X76236Y-44321D01*
X76218Y-44365D01*
X76218Y-44413D01*
X76218Y-44807D01*
X76236Y-44851D01*
X76270Y-44885D01*
X76314Y-44903D01*
X76362Y-44903D01*
X76913Y-44903D01*
X76948Y-44888D01*
X76984Y-44903D01*
X77031Y-44903D01*
X77582Y-44903D01*
X77627Y-44885D01*
X77660Y-44851D01*
X77679Y-44807D01*
X77679Y-45178D01*
X77587Y-45178D01*
X77493Y-45216D01*
X77421Y-45288D01*
X77401Y-45337D01*
X77381Y-45288D01*
X77309Y-45217D01*
X77216Y-45178D01*
X77114Y-45178D01*
X77021Y-45216D01*
X76949Y-45288D01*
X76910Y-45382D01*
X76910Y-45447D01*
X75986Y-46371D01*
X75986Y-44807D01*
X75986Y-44759D01*
X75986Y-44365D01*
X75967Y-44321D01*
X75934Y-44288D01*
X75890Y-44269D01*
X75842Y-44269D01*
X75760Y-44269D01*
X75760Y-44206D01*
X75806Y-44160D01*
X75845Y-44066D01*
X75845Y-43965D01*
X75806Y-43871D01*
X75735Y-43799D01*
X75641Y-43760D01*
X75540Y-43760D01*
X75446Y-43799D01*
X75374Y-43871D01*
X75335Y-43964D01*
X75335Y-44066D01*
X75374Y-44160D01*
X75420Y-44206D01*
X75420Y-44269D01*
X75316Y-44269D01*
X75316Y-32956D01*
X75316Y-32909D01*
X75316Y-32515D01*
X75298Y-32471D01*
X75277Y-32450D01*
X75277Y-30378D01*
X75235Y-30276D01*
X75157Y-30197D01*
X75055Y-30155D01*
X74945Y-30155D01*
X74843Y-30197D01*
X74815Y-30225D01*
X74815Y-30190D01*
X74861Y-30144D01*
X74900Y-30050D01*
X74900Y-29949D01*
X74861Y-29855D01*
X74790Y-29783D01*
X74696Y-29745D01*
X74595Y-29744D01*
X74501Y-29783D01*
X74429Y-29855D01*
X74390Y-29949D01*
X74390Y-30050D01*
X74429Y-30144D01*
X74475Y-30190D01*
X74475Y-31620D01*
X74429Y-31666D01*
X74390Y-31760D01*
X74390Y-31861D01*
X74429Y-31955D01*
X74501Y-32027D01*
X74594Y-32065D01*
X74696Y-32066D01*
X74789Y-32027D01*
X74861Y-31955D01*
X74900Y-31861D01*
X74900Y-31760D01*
X74861Y-31666D01*
X74815Y-31620D01*
X74815Y-30641D01*
X74842Y-30668D01*
X74944Y-30710D01*
X75054Y-30710D01*
X75156Y-30668D01*
X75235Y-30590D01*
X75277Y-30488D01*
X75277Y-30378D01*
X75277Y-32450D01*
X75264Y-32437D01*
X75220Y-32419D01*
X75172Y-32419D01*
X74621Y-32419D01*
X74577Y-32437D01*
X74543Y-32471D01*
X74525Y-32515D01*
X74525Y-32563D01*
X74525Y-32956D01*
X74543Y-33001D01*
X74577Y-33034D01*
X74621Y-33053D01*
X74669Y-33053D01*
X74751Y-33053D01*
X74751Y-33077D01*
X74705Y-33123D01*
X74666Y-33216D01*
X74666Y-33318D01*
X74704Y-33411D01*
X74776Y-33483D01*
X74870Y-33522D01*
X74971Y-33522D01*
X75065Y-33484D01*
X75137Y-33412D01*
X75176Y-33318D01*
X75176Y-33217D01*
X75137Y-33123D01*
X75091Y-33077D01*
X75091Y-33053D01*
X75220Y-33053D01*
X75264Y-33034D01*
X75298Y-33001D01*
X75316Y-32956D01*
X75316Y-44269D01*
X75291Y-44269D01*
X75255Y-44284D01*
X75220Y-44269D01*
X75172Y-44269D01*
X75091Y-44269D01*
X75091Y-44206D01*
X75137Y-44160D01*
X75176Y-44066D01*
X75176Y-43965D01*
X75137Y-43871D01*
X75065Y-43799D01*
X74972Y-43760D01*
X74870Y-43760D01*
X74777Y-43799D01*
X74705Y-43871D01*
X74666Y-43964D01*
X74666Y-44066D01*
X74704Y-44160D01*
X74751Y-44206D01*
X74751Y-44269D01*
X74621Y-44269D01*
X74577Y-44288D01*
X74543Y-44321D01*
X74525Y-44365D01*
X74525Y-44413D01*
X74525Y-44807D01*
X74543Y-44851D01*
X74577Y-44885D01*
X74621Y-44903D01*
X74669Y-44903D01*
X75220Y-44903D01*
X75255Y-44888D01*
X75291Y-44903D01*
X75338Y-44903D01*
X75890Y-44903D01*
X75934Y-44885D01*
X75967Y-44851D01*
X75986Y-44807D01*
X75986Y-46371D01*
X75277Y-47080D01*
X75277Y-45732D01*
X75235Y-45630D01*
X75157Y-45552D01*
X75055Y-45509D01*
X74945Y-45509D01*
X74843Y-45552D01*
X74764Y-45630D01*
X74722Y-45731D01*
X74722Y-45842D01*
X74764Y-45944D01*
X74842Y-46022D01*
X74944Y-46064D01*
X75054Y-46064D01*
X75156Y-46022D01*
X75235Y-45944D01*
X75277Y-45842D01*
X75277Y-45732D01*
X75277Y-47080D01*
X74801Y-47556D01*
X74764Y-47612D01*
X74751Y-47677D01*
X74751Y-47773D01*
X74621Y-47773D01*
X74577Y-47791D01*
X74543Y-47825D01*
X74525Y-47869D01*
X74525Y-47917D01*
X74525Y-48311D01*
X74543Y-48355D01*
X74577Y-48389D01*
X74621Y-48407D01*
X74669Y-48407D01*
X75220Y-48407D01*
X75264Y-48389D01*
X75298Y-48355D01*
X75316Y-48311D01*
X75316Y-48263D01*
X75316Y-47869D01*
X75298Y-47825D01*
X75264Y-47791D01*
X75220Y-47773D01*
X75172Y-47773D01*
X75091Y-47773D01*
X75091Y-47747D01*
X76004Y-46834D01*
X75984Y-46864D01*
X75971Y-46929D01*
X75971Y-47716D01*
X75984Y-47781D01*
X76021Y-47836D01*
X76218Y-48033D01*
X76218Y-48311D01*
X76236Y-48355D01*
X76270Y-48389D01*
X76314Y-48407D01*
X76362Y-48407D01*
X76913Y-48407D01*
X76948Y-48392D01*
X76984Y-48407D01*
X77031Y-48407D01*
X77582Y-48407D01*
X77627Y-48389D01*
X77660Y-48355D01*
X77679Y-48311D01*
X77679Y-48263D01*
X77679Y-47869D01*
X77660Y-47825D01*
X77627Y-47791D01*
X77582Y-47773D01*
X77535Y-47773D01*
X77453Y-47773D01*
X77453Y-46330D01*
X78095Y-45688D01*
X78160Y-45688D01*
X78254Y-45649D01*
X78326Y-45577D01*
X78365Y-45484D01*
X78365Y-45382D01*
X78365Y-52586D01*
X78293Y-52514D01*
X78139Y-52450D01*
X77971Y-52450D01*
X77817Y-52513D01*
X77699Y-52631D01*
X77635Y-52786D01*
X77635Y-52953D01*
X77698Y-53107D01*
X77806Y-53215D01*
X77303Y-53215D01*
X77410Y-53108D01*
X77475Y-52953D01*
X77475Y-52786D01*
X77411Y-52632D01*
X77293Y-52514D01*
X77139Y-52450D01*
X76971Y-52450D01*
X76817Y-52513D01*
X76699Y-52631D01*
X76635Y-52786D01*
X76635Y-52953D01*
X76698Y-53107D01*
X76806Y-53215D01*
X76303Y-53215D01*
X76410Y-53108D01*
X76475Y-52953D01*
X76475Y-52786D01*
X76411Y-52632D01*
X76293Y-52514D01*
X76225Y-52485D01*
X76225Y-51458D01*
X76279Y-51404D01*
X76317Y-51310D01*
X76318Y-51209D01*
X76279Y-51115D01*
X76207Y-51043D01*
X76113Y-51004D01*
X76012Y-51004D01*
X75918Y-51043D01*
X75846Y-51115D01*
X75808Y-51208D01*
X75807Y-51310D01*
X75846Y-51404D01*
X75885Y-51442D01*
X75885Y-52485D01*
X75817Y-52513D01*
X75699Y-52631D01*
X75635Y-52786D01*
X75635Y-52953D01*
X75698Y-53107D01*
X75806Y-53215D01*
X75466Y-53215D01*
X75475Y-53193D01*
X75475Y-53146D01*
X75475Y-52960D01*
X75475Y-52780D01*
X75475Y-52593D01*
X75475Y-52546D01*
X75456Y-52502D01*
X75423Y-52468D01*
X75378Y-52450D01*
X75145Y-52450D01*
X75115Y-52480D01*
X75115Y-52810D01*
X75445Y-52810D01*
X75475Y-52780D01*
X75475Y-52960D01*
X75445Y-52930D01*
X75115Y-52930D01*
X75115Y-52937D01*
X74995Y-52937D01*
X74995Y-52930D01*
X74995Y-52810D01*
X74995Y-52480D01*
X74965Y-52450D01*
X74731Y-52450D01*
X74687Y-52468D01*
X74653Y-52502D01*
X74635Y-52546D01*
X74635Y-52593D01*
X74635Y-52780D01*
X74665Y-52810D01*
X74995Y-52810D01*
X74995Y-52930D01*
X74665Y-52930D01*
X74635Y-52960D01*
X74635Y-53146D01*
X74635Y-53193D01*
X74644Y-53215D01*
X73391Y-53215D01*
X73391Y-49004D01*
X73391Y-25870D01*
X73343Y-25753D01*
X73254Y-25664D01*
X73138Y-25616D01*
X73012Y-25616D01*
X72895Y-25664D01*
X72806Y-25753D01*
X72758Y-25869D01*
X72757Y-25995D01*
X72806Y-26112D01*
X72895Y-26201D01*
X73011Y-26249D01*
X73137Y-26249D01*
X73254Y-26201D01*
X73343Y-26112D01*
X73391Y-25996D01*
X73391Y-25870D01*
X73391Y-49004D01*
X73343Y-48887D01*
X73254Y-48798D01*
X73138Y-48750D01*
X73012Y-48750D01*
X72895Y-48798D01*
X72806Y-48887D01*
X72758Y-49003D01*
X72757Y-49129D01*
X72806Y-49246D01*
X72895Y-49335D01*
X73011Y-49383D01*
X73137Y-49383D01*
X73254Y-49335D01*
X73343Y-49246D01*
X73391Y-49130D01*
X73391Y-49004D01*
X73391Y-53215D01*
X72303Y-53215D01*
X72410Y-53108D01*
X72475Y-52953D01*
X72475Y-52786D01*
X72475Y-52786D01*
X72475Y-52193D01*
X72475Y-52146D01*
X72475Y-51960D01*
X72475Y-51780D01*
X72475Y-51593D01*
X72475Y-51546D01*
X72456Y-51502D01*
X72423Y-51468D01*
X72378Y-51450D01*
X72145Y-51450D01*
X72115Y-51480D01*
X72115Y-51810D01*
X72445Y-51810D01*
X72475Y-51780D01*
X72475Y-51960D01*
X72445Y-51930D01*
X72115Y-51930D01*
X72115Y-52260D01*
X72145Y-52290D01*
X72378Y-52290D01*
X72423Y-52271D01*
X72456Y-52238D01*
X72475Y-52193D01*
X72475Y-52786D01*
X72411Y-52632D01*
X72293Y-52514D01*
X72139Y-52450D01*
X71995Y-52450D01*
X71995Y-52260D01*
X71995Y-51930D01*
X71995Y-51810D01*
X71995Y-51480D01*
X71965Y-51450D01*
X71731Y-51450D01*
X71687Y-51468D01*
X71653Y-51502D01*
X71635Y-51546D01*
X71635Y-51593D01*
X71635Y-51780D01*
X71665Y-51810D01*
X71995Y-51810D01*
X71995Y-51930D01*
X71665Y-51930D01*
X71635Y-51960D01*
X71635Y-52146D01*
X71635Y-52193D01*
X71653Y-52238D01*
X71687Y-52271D01*
X71731Y-52290D01*
X71965Y-52290D01*
X71995Y-52260D01*
X71995Y-52450D01*
X71971Y-52450D01*
X71817Y-52513D01*
X71699Y-52631D01*
X71635Y-52786D01*
X71635Y-52953D01*
X71698Y-53107D01*
X71806Y-53215D01*
X71303Y-53215D01*
X71410Y-53108D01*
X71475Y-52953D01*
X71475Y-52786D01*
X71475Y-51786D01*
X71411Y-51632D01*
X71293Y-51514D01*
X71139Y-51450D01*
X70971Y-51450D01*
X70817Y-51513D01*
X70699Y-51631D01*
X70635Y-51786D01*
X70635Y-51953D01*
X70698Y-52107D01*
X70816Y-52225D01*
X70971Y-52290D01*
X71138Y-52290D01*
X71292Y-52226D01*
X71410Y-52108D01*
X71475Y-51953D01*
X71475Y-51786D01*
X71475Y-52786D01*
X71411Y-52632D01*
X71293Y-52514D01*
X71139Y-52450D01*
X70971Y-52450D01*
X70817Y-52513D01*
X70699Y-52631D01*
X70635Y-52786D01*
X70635Y-52953D01*
X70698Y-53107D01*
X70806Y-53215D01*
X70303Y-53215D01*
X70410Y-53108D01*
X70475Y-52953D01*
X70475Y-52786D01*
X70475Y-51786D01*
X70411Y-51632D01*
X70293Y-51514D01*
X70255Y-51498D01*
X70255Y-46799D01*
X70216Y-46706D01*
X70144Y-46634D01*
X70050Y-46595D01*
X69949Y-46595D01*
X69855Y-46634D01*
X69783Y-46705D01*
X69745Y-46799D01*
X69745Y-46822D01*
X69287Y-47280D01*
X67720Y-47280D01*
X67341Y-46901D01*
X67341Y-46878D01*
X67302Y-46784D01*
X67231Y-46713D01*
X67137Y-46674D01*
X67036Y-46674D01*
X66942Y-46712D01*
X66870Y-46784D01*
X66831Y-46878D01*
X66831Y-46979D01*
X66870Y-47073D01*
X66941Y-47145D01*
X67035Y-47184D01*
X67058Y-47184D01*
X67496Y-47621D01*
X67561Y-47665D01*
X67637Y-47680D01*
X69370Y-47680D01*
X69446Y-47665D01*
X69511Y-47621D01*
X70027Y-47105D01*
X70050Y-47105D01*
X70144Y-47066D01*
X70216Y-46995D01*
X70254Y-46901D01*
X70255Y-46799D01*
X70255Y-51498D01*
X70139Y-51450D01*
X69971Y-51450D01*
X69817Y-51513D01*
X69699Y-51631D01*
X69635Y-51786D01*
X69635Y-51953D01*
X69698Y-52107D01*
X69816Y-52225D01*
X69971Y-52290D01*
X70138Y-52290D01*
X70292Y-52226D01*
X70410Y-52108D01*
X70475Y-51953D01*
X70475Y-51786D01*
X70475Y-52786D01*
X70411Y-52632D01*
X70293Y-52514D01*
X70139Y-52450D01*
X69971Y-52450D01*
X69817Y-52513D01*
X69699Y-52631D01*
X69635Y-52786D01*
X69635Y-52953D01*
X69698Y-53107D01*
X69806Y-53215D01*
X69303Y-53215D01*
X69410Y-53108D01*
X69475Y-52953D01*
X69475Y-52786D01*
X69475Y-51786D01*
X69411Y-51632D01*
X69293Y-51514D01*
X69139Y-51450D01*
X68971Y-51450D01*
X68817Y-51513D01*
X68699Y-51631D01*
X68635Y-51786D01*
X68635Y-51953D01*
X68698Y-52107D01*
X68816Y-52225D01*
X68971Y-52290D01*
X69138Y-52290D01*
X69292Y-52226D01*
X69410Y-52108D01*
X69475Y-51953D01*
X69475Y-51786D01*
X69475Y-52786D01*
X69411Y-52632D01*
X69293Y-52514D01*
X69139Y-52450D01*
X68971Y-52450D01*
X68817Y-52513D01*
X68699Y-52631D01*
X68635Y-52786D01*
X68635Y-52953D01*
X68698Y-53107D01*
X68806Y-53215D01*
X68641Y-53215D01*
X68446Y-53021D01*
X68475Y-52953D01*
X68475Y-52786D01*
X68475Y-51786D01*
X68411Y-51632D01*
X68293Y-51514D01*
X68139Y-51450D01*
X67971Y-51450D01*
X67817Y-51513D01*
X67699Y-51631D01*
X67635Y-51786D01*
X67635Y-51953D01*
X67698Y-52107D01*
X67816Y-52225D01*
X67971Y-52290D01*
X68138Y-52290D01*
X68292Y-52226D01*
X68410Y-52108D01*
X68475Y-51953D01*
X68475Y-51786D01*
X68475Y-52786D01*
X68411Y-52632D01*
X68293Y-52514D01*
X68139Y-52450D01*
X67971Y-52450D01*
X67817Y-52513D01*
X67699Y-52631D01*
X67635Y-52786D01*
X67635Y-52953D01*
X67698Y-53107D01*
X67816Y-53225D01*
X67971Y-53290D01*
X68138Y-53290D01*
X68206Y-53261D01*
X68450Y-53506D01*
X68505Y-53542D01*
X68505Y-53542D01*
X68516Y-53545D01*
X68570Y-53555D01*
X68570Y-53555D01*
X68570Y-53555D01*
X80314Y-53555D01*
X80380Y-53542D01*
X80380Y-53542D01*
X80435Y-53506D01*
X80851Y-53089D01*
X80916Y-53089D01*
X81010Y-53050D01*
X81082Y-52979D01*
X81121Y-52885D01*
X81121Y-52784D01*
X81121Y-53730D01*
X67475Y-53730D01*
X67475Y-52786D01*
X67475Y-51786D01*
X67411Y-51632D01*
X67293Y-51514D01*
X67139Y-51450D01*
X66971Y-51450D01*
X66817Y-51513D01*
X66699Y-51631D01*
X66635Y-51786D01*
X66635Y-51953D01*
X66698Y-52107D01*
X66816Y-52225D01*
X66971Y-52290D01*
X67138Y-52290D01*
X67292Y-52226D01*
X67410Y-52108D01*
X67475Y-51953D01*
X67475Y-51786D01*
X67475Y-52786D01*
X67411Y-52632D01*
X67293Y-52514D01*
X67139Y-52450D01*
X66971Y-52450D01*
X66817Y-52513D01*
X66699Y-52631D01*
X66635Y-52786D01*
X66635Y-52953D01*
X66698Y-53107D01*
X66816Y-53225D01*
X66971Y-53290D01*
X67138Y-53290D01*
X67292Y-53226D01*
X67410Y-53108D01*
X67475Y-52953D01*
X67475Y-52786D01*
X67475Y-53730D01*
X65238Y-53730D01*
X65238Y-50023D01*
X65166Y-49849D01*
X65058Y-49740D01*
X65058Y-37823D01*
X65019Y-37729D01*
X64973Y-37683D01*
X64973Y-36962D01*
X65019Y-36916D01*
X65058Y-36822D01*
X65058Y-36721D01*
X65019Y-36627D01*
X64947Y-36555D01*
X64854Y-36516D01*
X64752Y-36516D01*
X64658Y-36555D01*
X64587Y-36627D01*
X64548Y-36720D01*
X64548Y-36822D01*
X64586Y-36915D01*
X64633Y-36962D01*
X64633Y-37683D01*
X64587Y-37729D01*
X64548Y-37823D01*
X64548Y-37924D01*
X64586Y-38018D01*
X64658Y-38090D01*
X64752Y-38128D01*
X64853Y-38129D01*
X64947Y-38090D01*
X65019Y-38018D01*
X65058Y-37924D01*
X65058Y-37823D01*
X65058Y-49740D01*
X65033Y-49715D01*
X64859Y-49643D01*
X64670Y-49643D01*
X64495Y-49715D01*
X64362Y-49848D01*
X64289Y-50022D01*
X64289Y-50211D01*
X64361Y-50386D01*
X64495Y-50519D01*
X64669Y-50592D01*
X64858Y-50592D01*
X65032Y-50520D01*
X65166Y-50386D01*
X65238Y-50212D01*
X65238Y-50023D01*
X65238Y-53730D01*
X65120Y-53730D01*
X65120Y-53000D01*
X65120Y-52016D01*
X65066Y-51885D01*
X64966Y-51784D01*
X64835Y-51730D01*
X64693Y-51730D01*
X64562Y-51784D01*
X64462Y-51884D01*
X64408Y-52015D01*
X64408Y-52157D01*
X64462Y-52288D01*
X64562Y-52388D01*
X64693Y-52442D01*
X64834Y-52442D01*
X64965Y-52388D01*
X65065Y-52288D01*
X65120Y-52157D01*
X65120Y-52016D01*
X65120Y-53000D01*
X65066Y-52869D01*
X64966Y-52768D01*
X64835Y-52714D01*
X64693Y-52714D01*
X64562Y-52768D01*
X64462Y-52868D01*
X64408Y-52999D01*
X64408Y-53141D01*
X64462Y-53272D01*
X64562Y-53372D01*
X64693Y-53426D01*
X64834Y-53426D01*
X64965Y-53372D01*
X65065Y-53272D01*
X65120Y-53141D01*
X65120Y-53000D01*
X65120Y-53730D01*
X64253Y-53730D01*
X64253Y-50023D01*
X64181Y-49849D01*
X64048Y-49715D01*
X63874Y-49643D01*
X63685Y-49643D01*
X63510Y-49715D01*
X63377Y-49848D01*
X63304Y-50022D01*
X63304Y-50211D01*
X63376Y-50386D01*
X63510Y-50519D01*
X63684Y-50592D01*
X63873Y-50592D01*
X64047Y-50520D01*
X64181Y-50386D01*
X64253Y-50212D01*
X64253Y-50023D01*
X64253Y-53730D01*
X63761Y-53730D01*
X63761Y-53346D01*
X63751Y-53293D01*
X63720Y-53247D01*
X63675Y-53217D01*
X63622Y-53206D01*
X63276Y-53206D01*
X63276Y-52140D01*
X63260Y-51952D01*
X63218Y-51852D01*
X63155Y-51810D01*
X63151Y-51815D01*
X63151Y-50047D01*
X63097Y-49916D01*
X62997Y-49815D01*
X62866Y-49761D01*
X62724Y-49761D01*
X62593Y-49815D01*
X62493Y-49915D01*
X62439Y-50046D01*
X62439Y-50188D01*
X62493Y-50319D01*
X62593Y-50419D01*
X62724Y-50473D01*
X62865Y-50473D01*
X62996Y-50419D01*
X63096Y-50319D01*
X63151Y-50188D01*
X63151Y-50047D01*
X63151Y-51815D01*
X63070Y-51895D01*
X63070Y-51726D01*
X63028Y-51662D01*
X62849Y-51605D01*
X62660Y-51621D01*
X62561Y-51662D01*
X62519Y-51726D01*
X62795Y-52001D01*
X63070Y-51726D01*
X63070Y-51895D01*
X62880Y-52086D01*
X63155Y-52362D01*
X63218Y-52320D01*
X63276Y-52140D01*
X63276Y-53206D01*
X63070Y-53206D01*
X63070Y-52447D01*
X62795Y-52171D01*
X62710Y-52256D01*
X62710Y-52086D01*
X62434Y-51810D01*
X62371Y-51852D01*
X62314Y-52032D01*
X62330Y-52220D01*
X62371Y-52320D01*
X62434Y-52362D01*
X62710Y-52086D01*
X62710Y-52256D01*
X62519Y-52447D01*
X62561Y-52510D01*
X62741Y-52567D01*
X62929Y-52551D01*
X63028Y-52510D01*
X63070Y-52447D01*
X63070Y-53206D01*
X62285Y-53206D01*
X62285Y-50023D01*
X62213Y-49849D01*
X62080Y-49715D01*
X61906Y-49643D01*
X61717Y-49643D01*
X61672Y-49661D01*
X61672Y-46169D01*
X61633Y-46076D01*
X61561Y-46004D01*
X61468Y-45965D01*
X61366Y-45965D01*
X61273Y-46004D01*
X61226Y-46050D01*
X59166Y-46050D01*
X59121Y-46004D01*
X59027Y-45965D01*
X58925Y-45965D01*
X58832Y-46004D01*
X58760Y-46075D01*
X58721Y-46169D01*
X58721Y-46270D01*
X58760Y-46364D01*
X58831Y-46436D01*
X58925Y-46475D01*
X59026Y-46475D01*
X59120Y-46436D01*
X59167Y-46390D01*
X61226Y-46390D01*
X61272Y-46436D01*
X61366Y-46475D01*
X61467Y-46475D01*
X61561Y-46436D01*
X61633Y-46365D01*
X61672Y-46271D01*
X61672Y-46169D01*
X61672Y-49661D01*
X61542Y-49715D01*
X61409Y-49848D01*
X61336Y-50022D01*
X61336Y-50211D01*
X61408Y-50386D01*
X61542Y-50519D01*
X61716Y-50592D01*
X61905Y-50592D01*
X62079Y-50520D01*
X62213Y-50386D01*
X62285Y-50212D01*
X62285Y-50023D01*
X62285Y-53206D01*
X61968Y-53206D01*
X61915Y-53217D01*
X61869Y-53247D01*
X61839Y-53293D01*
X61828Y-53346D01*
X61828Y-53730D01*
X61300Y-53730D01*
X61300Y-50023D01*
X61228Y-49849D01*
X61095Y-49715D01*
X60921Y-49643D01*
X60732Y-49643D01*
X60557Y-49715D01*
X60424Y-49848D01*
X60351Y-50022D01*
X60351Y-50211D01*
X60423Y-50386D01*
X60557Y-50519D01*
X60731Y-50592D01*
X60920Y-50592D01*
X61094Y-50520D01*
X61228Y-50386D01*
X61300Y-50212D01*
X61300Y-50023D01*
X61300Y-53730D01*
X61182Y-53730D01*
X61182Y-53000D01*
X61182Y-52016D01*
X61128Y-51885D01*
X61028Y-51784D01*
X60897Y-51730D01*
X60755Y-51730D01*
X60624Y-51784D01*
X60524Y-51884D01*
X60470Y-52015D01*
X60470Y-52157D01*
X60524Y-52288D01*
X60624Y-52388D01*
X60755Y-52442D01*
X60896Y-52442D01*
X61027Y-52388D01*
X61127Y-52288D01*
X61182Y-52157D01*
X61182Y-52016D01*
X61182Y-53000D01*
X61128Y-52869D01*
X61028Y-52768D01*
X60897Y-52714D01*
X60755Y-52714D01*
X60624Y-52768D01*
X60524Y-52868D01*
X60470Y-52999D01*
X60470Y-53141D01*
X60524Y-53272D01*
X60624Y-53372D01*
X60755Y-53426D01*
X60896Y-53426D01*
X61027Y-53372D01*
X61127Y-53272D01*
X61182Y-53141D01*
X61182Y-53000D01*
X61182Y-53730D01*
X60120Y-53730D01*
X60120Y-50023D01*
X60048Y-49849D01*
X59915Y-49715D01*
X59740Y-49643D01*
X59552Y-49643D01*
X59377Y-49715D01*
X59244Y-49848D01*
X59171Y-50022D01*
X59171Y-50211D01*
X59243Y-50386D01*
X59377Y-50519D01*
X59551Y-50592D01*
X59740Y-50592D01*
X59914Y-50520D01*
X60048Y-50386D01*
X60120Y-50212D01*
X60120Y-50023D01*
X60120Y-53730D01*
X60002Y-53730D01*
X60002Y-53000D01*
X60002Y-52016D01*
X59948Y-51885D01*
X59848Y-51784D01*
X59717Y-51730D01*
X59575Y-51730D01*
X59444Y-51784D01*
X59344Y-51884D01*
X59290Y-52015D01*
X59290Y-52157D01*
X59344Y-52288D01*
X59444Y-52388D01*
X59575Y-52442D01*
X59716Y-52442D01*
X59847Y-52388D01*
X59947Y-52288D01*
X60002Y-52157D01*
X60002Y-52016D01*
X60002Y-53000D01*
X59948Y-52869D01*
X59848Y-52768D01*
X59717Y-52714D01*
X59575Y-52714D01*
X59444Y-52768D01*
X59344Y-52868D01*
X59290Y-52999D01*
X59290Y-53141D01*
X59344Y-53272D01*
X59444Y-53372D01*
X59575Y-53426D01*
X59716Y-53426D01*
X59847Y-53372D01*
X59947Y-53272D01*
X60002Y-53141D01*
X60002Y-53000D01*
X60002Y-53730D01*
X59135Y-53730D01*
X59135Y-50023D01*
X59063Y-49849D01*
X58930Y-49715D01*
X58755Y-49643D01*
X58567Y-49643D01*
X58392Y-49715D01*
X58259Y-49848D01*
X58186Y-50022D01*
X58186Y-50211D01*
X58258Y-50386D01*
X58392Y-50519D01*
X58566Y-50592D01*
X58755Y-50592D01*
X58929Y-50520D01*
X59063Y-50386D01*
X59135Y-50212D01*
X59135Y-50023D01*
X59135Y-53730D01*
X58643Y-53730D01*
X58643Y-53346D01*
X58632Y-53293D01*
X58602Y-53247D01*
X58557Y-53217D01*
X58503Y-53206D01*
X58157Y-53206D01*
X58157Y-52140D01*
X58141Y-51952D01*
X58100Y-51852D01*
X58037Y-51810D01*
X58033Y-51815D01*
X58033Y-50047D01*
X57979Y-49916D01*
X57879Y-49815D01*
X57748Y-49761D01*
X57606Y-49761D01*
X57475Y-49815D01*
X57375Y-49915D01*
X57321Y-50046D01*
X57321Y-50188D01*
X57375Y-50319D01*
X57475Y-50419D01*
X57606Y-50473D01*
X57747Y-50473D01*
X57878Y-50419D01*
X57978Y-50319D01*
X58033Y-50188D01*
X58033Y-50047D01*
X58033Y-51815D01*
X57952Y-51895D01*
X57952Y-51726D01*
X57910Y-51662D01*
X57730Y-51605D01*
X57542Y-51621D01*
X57443Y-51662D01*
X57401Y-51726D01*
X57677Y-52001D01*
X57952Y-51726D01*
X57952Y-51895D01*
X57762Y-52086D01*
X58037Y-52362D01*
X58100Y-52320D01*
X58157Y-52140D01*
X58157Y-53206D01*
X57952Y-53206D01*
X57952Y-52447D01*
X57677Y-52171D01*
X57592Y-52256D01*
X57592Y-52086D01*
X57316Y-51810D01*
X57253Y-51852D01*
X57196Y-52032D01*
X57212Y-52220D01*
X57253Y-52320D01*
X57316Y-52362D01*
X57592Y-52086D01*
X57592Y-52256D01*
X57401Y-52447D01*
X57443Y-52510D01*
X57623Y-52567D01*
X57811Y-52551D01*
X57910Y-52510D01*
X57952Y-52447D01*
X57952Y-53206D01*
X57167Y-53206D01*
X57167Y-50023D01*
X57163Y-50013D01*
X57163Y-49004D01*
X57163Y-25870D01*
X57115Y-25753D01*
X57026Y-25664D01*
X56909Y-25616D01*
X56783Y-25616D01*
X56667Y-25664D01*
X56578Y-25753D01*
X56529Y-25869D01*
X56529Y-25995D01*
X56577Y-26112D01*
X56666Y-26201D01*
X56783Y-26249D01*
X56909Y-26249D01*
X57025Y-26201D01*
X57114Y-26112D01*
X57163Y-25996D01*
X57163Y-25870D01*
X57163Y-49004D01*
X57115Y-48887D01*
X57105Y-48877D01*
X57105Y-41681D01*
X57066Y-41588D01*
X56995Y-41516D01*
X56901Y-41477D01*
X56799Y-41477D01*
X56706Y-41515D01*
X56634Y-41587D01*
X56595Y-41681D01*
X56595Y-41746D01*
X56235Y-42107D01*
X56169Y-42107D01*
X56076Y-42145D01*
X56004Y-42217D01*
X55986Y-42261D01*
X55986Y-40882D01*
X55938Y-40765D01*
X55849Y-40676D01*
X55732Y-40627D01*
X55606Y-40627D01*
X55489Y-40675D01*
X55400Y-40765D01*
X55352Y-40881D01*
X55352Y-41007D01*
X55356Y-41017D01*
X55234Y-41139D01*
X55216Y-41165D01*
X55216Y-41165D01*
X55198Y-41139D01*
X55076Y-41017D01*
X55080Y-41008D01*
X55080Y-40882D01*
X55032Y-40765D01*
X54943Y-40676D01*
X54827Y-40627D01*
X54701Y-40627D01*
X54584Y-40675D01*
X54495Y-40765D01*
X54446Y-40881D01*
X54446Y-41007D01*
X54494Y-41124D01*
X54583Y-41213D01*
X54700Y-41261D01*
X54826Y-41261D01*
X54836Y-41257D01*
X54908Y-41330D01*
X54908Y-41384D01*
X54862Y-41430D01*
X54823Y-41523D01*
X54823Y-41625D01*
X54862Y-41719D01*
X54934Y-41790D01*
X55027Y-41829D01*
X55099Y-41829D01*
X55099Y-41861D01*
X55138Y-41955D01*
X55209Y-42027D01*
X55303Y-42065D01*
X55404Y-42066D01*
X55498Y-42027D01*
X55570Y-41955D01*
X55609Y-41861D01*
X55609Y-41760D01*
X55570Y-41666D01*
X55524Y-41620D01*
X55524Y-41330D01*
X55596Y-41257D01*
X55605Y-41261D01*
X55732Y-41261D01*
X55848Y-41213D01*
X55937Y-41124D01*
X55986Y-41008D01*
X55986Y-40882D01*
X55986Y-42261D01*
X55965Y-42311D01*
X55965Y-42412D01*
X56004Y-42506D01*
X56075Y-42578D01*
X56169Y-42617D01*
X56270Y-42617D01*
X56364Y-42578D01*
X56436Y-42506D01*
X56475Y-42413D01*
X56475Y-42347D01*
X56835Y-41987D01*
X56900Y-41987D01*
X56994Y-41948D01*
X57066Y-41876D01*
X57105Y-41783D01*
X57105Y-41681D01*
X57105Y-48877D01*
X57026Y-48798D01*
X56909Y-48750D01*
X56783Y-48750D01*
X56773Y-48754D01*
X56773Y-43638D01*
X56725Y-43521D01*
X56636Y-43432D01*
X56520Y-43383D01*
X56393Y-43383D01*
X56277Y-43431D01*
X56188Y-43520D01*
X56139Y-43637D01*
X56139Y-43763D01*
X56148Y-43784D01*
X56142Y-43793D01*
X56129Y-43858D01*
X56129Y-44090D01*
X56104Y-44053D01*
X55824Y-43773D01*
X55828Y-43764D01*
X55828Y-43638D01*
X55780Y-43521D01*
X55691Y-43432D01*
X55575Y-43383D01*
X55449Y-43383D01*
X55332Y-43431D01*
X55243Y-43520D01*
X55194Y-43637D01*
X55194Y-43763D01*
X55242Y-43880D01*
X55332Y-43969D01*
X55448Y-44017D01*
X55574Y-44017D01*
X55584Y-44013D01*
X55814Y-44243D01*
X55814Y-44455D01*
X55768Y-44501D01*
X55729Y-44594D01*
X55729Y-44696D01*
X55767Y-44789D01*
X55839Y-44861D01*
X55933Y-44900D01*
X56034Y-44900D01*
X56128Y-44861D01*
X56200Y-44790D01*
X56239Y-44696D01*
X56239Y-44660D01*
X56248Y-44664D01*
X56349Y-44664D01*
X56443Y-44625D01*
X56515Y-44554D01*
X56554Y-44460D01*
X56554Y-44358D01*
X56515Y-44265D01*
X56469Y-44218D01*
X56469Y-44017D01*
X56519Y-44017D01*
X56636Y-43969D01*
X56725Y-43880D01*
X56773Y-43764D01*
X56773Y-43638D01*
X56773Y-48754D01*
X56667Y-48798D01*
X56578Y-48887D01*
X56529Y-49003D01*
X56529Y-49129D01*
X56577Y-49246D01*
X56666Y-49335D01*
X56783Y-49383D01*
X56909Y-49383D01*
X57025Y-49335D01*
X57114Y-49246D01*
X57163Y-49130D01*
X57163Y-49004D01*
X57163Y-50013D01*
X57095Y-49849D01*
X56962Y-49715D01*
X56787Y-49643D01*
X56599Y-49643D01*
X56424Y-49715D01*
X56291Y-49848D01*
X56218Y-50022D01*
X56218Y-50211D01*
X56290Y-50386D01*
X56424Y-50519D01*
X56598Y-50592D01*
X56787Y-50592D01*
X56961Y-50520D01*
X57095Y-50386D01*
X57167Y-50212D01*
X57167Y-50023D01*
X57167Y-53206D01*
X56850Y-53206D01*
X56796Y-53217D01*
X56751Y-53247D01*
X56721Y-53293D01*
X56710Y-53346D01*
X56710Y-53730D01*
X56182Y-53730D01*
X56182Y-50023D01*
X56110Y-49849D01*
X55977Y-49715D01*
X55802Y-49643D01*
X55614Y-49643D01*
X55439Y-49715D01*
X55306Y-49848D01*
X55233Y-50022D01*
X55233Y-50211D01*
X55305Y-50386D01*
X55439Y-50519D01*
X55613Y-50592D01*
X55802Y-50592D01*
X55976Y-50520D01*
X56110Y-50386D01*
X56182Y-50212D01*
X56182Y-50023D01*
X56182Y-53730D01*
X56064Y-53730D01*
X56064Y-53000D01*
X56064Y-52016D01*
X56010Y-51885D01*
X55910Y-51784D01*
X55779Y-51730D01*
X55637Y-51730D01*
X55506Y-51784D01*
X55406Y-51884D01*
X55352Y-52015D01*
X55352Y-52157D01*
X55406Y-52288D01*
X55506Y-52388D01*
X55637Y-52442D01*
X55778Y-52442D01*
X55909Y-52388D01*
X56009Y-52288D01*
X56064Y-52157D01*
X56064Y-52016D01*
X56064Y-53000D01*
X56010Y-52869D01*
X55910Y-52768D01*
X55779Y-52714D01*
X55637Y-52714D01*
X55506Y-52768D01*
X55406Y-52868D01*
X55352Y-52999D01*
X55352Y-53141D01*
X55406Y-53272D01*
X55506Y-53372D01*
X55637Y-53426D01*
X55778Y-53426D01*
X55909Y-53372D01*
X56009Y-53272D01*
X56064Y-53141D01*
X56064Y-53000D01*
X56064Y-53730D01*
X53481Y-53730D01*
X53481Y-51910D01*
X53475Y-51849D01*
X53475Y-50786D01*
X53475Y-49786D01*
X53475Y-48786D01*
X53475Y-48786D01*
X53475Y-48193D01*
X53475Y-48146D01*
X53475Y-47546D01*
X53456Y-47502D01*
X53423Y-47468D01*
X53378Y-47450D01*
X53331Y-47450D01*
X52731Y-47450D01*
X52687Y-47468D01*
X52653Y-47502D01*
X52635Y-47546D01*
X52635Y-47593D01*
X52635Y-48193D01*
X52653Y-48238D01*
X52687Y-48271D01*
X52731Y-48290D01*
X52778Y-48290D01*
X53378Y-48290D01*
X53423Y-48271D01*
X53456Y-48238D01*
X53475Y-48193D01*
X53475Y-48786D01*
X53411Y-48632D01*
X53293Y-48514D01*
X53139Y-48450D01*
X52971Y-48450D01*
X52817Y-48513D01*
X52699Y-48631D01*
X52635Y-48786D01*
X52635Y-48953D01*
X52698Y-49107D01*
X52816Y-49225D01*
X52971Y-49290D01*
X53138Y-49290D01*
X53292Y-49226D01*
X53410Y-49108D01*
X53475Y-48953D01*
X53475Y-48786D01*
X53475Y-49786D01*
X53411Y-49632D01*
X53293Y-49514D01*
X53139Y-49450D01*
X52971Y-49450D01*
X52817Y-49513D01*
X52699Y-49631D01*
X52635Y-49786D01*
X52635Y-49953D01*
X52698Y-50107D01*
X52816Y-50225D01*
X52971Y-50290D01*
X53138Y-50290D01*
X53292Y-50226D01*
X53410Y-50108D01*
X53475Y-49953D01*
X53475Y-49786D01*
X53475Y-50786D01*
X53411Y-50632D01*
X53293Y-50514D01*
X53139Y-50450D01*
X52971Y-50450D01*
X52817Y-50513D01*
X52699Y-50631D01*
X52635Y-50786D01*
X52635Y-50953D01*
X52698Y-51107D01*
X52816Y-51225D01*
X52971Y-51290D01*
X53138Y-51290D01*
X53292Y-51226D01*
X53410Y-51108D01*
X53475Y-50953D01*
X53475Y-50786D01*
X53475Y-51849D01*
X53464Y-51744D01*
X53433Y-51669D01*
X53375Y-51634D01*
X53291Y-51718D01*
X53291Y-51549D01*
X53255Y-51491D01*
X53095Y-51443D01*
X52929Y-51460D01*
X52854Y-51491D01*
X52819Y-51549D01*
X53055Y-51785D01*
X53291Y-51549D01*
X53291Y-51718D01*
X53139Y-51870D01*
X53375Y-52106D01*
X53433Y-52070D01*
X53481Y-51910D01*
X53481Y-53730D01*
X53475Y-53730D01*
X53475Y-52786D01*
X53411Y-52632D01*
X53293Y-52514D01*
X53291Y-52513D01*
X53291Y-52190D01*
X53055Y-51954D01*
X52970Y-52039D01*
X52970Y-51870D01*
X52734Y-51634D01*
X52676Y-51669D01*
X52628Y-51829D01*
X52645Y-51995D01*
X52676Y-52070D01*
X52734Y-52106D01*
X52970Y-51870D01*
X52970Y-52039D01*
X52819Y-52190D01*
X52854Y-52248D01*
X53014Y-52296D01*
X53180Y-52279D01*
X53255Y-52248D01*
X53291Y-52190D01*
X53291Y-52513D01*
X53139Y-52450D01*
X52971Y-52450D01*
X52817Y-52513D01*
X52699Y-52631D01*
X52635Y-52786D01*
X52635Y-52953D01*
X52698Y-53107D01*
X52816Y-53225D01*
X52971Y-53290D01*
X53138Y-53290D01*
X53292Y-53226D01*
X53410Y-53108D01*
X53475Y-52953D01*
X53475Y-52786D01*
X53475Y-53730D01*
X52769Y-53730D01*
X52207Y-53618D01*
X51743Y-53308D01*
X51432Y-52843D01*
X51320Y-52281D01*
X51320Y-26458D01*
X51432Y-25896D01*
X51743Y-25432D01*
X52207Y-25121D01*
X52769Y-25009D01*
X57230Y-25009D01*
X57490Y-25061D01*
X57700Y-25201D01*
X57839Y-25410D01*
X57891Y-25671D01*
X57891Y-26811D01*
X57902Y-26864D01*
X57932Y-26909D01*
X57978Y-26940D01*
X58031Y-26950D01*
X72283Y-26950D01*
X72336Y-26940D01*
X72382Y-26909D01*
X72412Y-26864D01*
X72423Y-26811D01*
X72423Y-25671D01*
X72474Y-25410D01*
X72614Y-25201D01*
X72824Y-25061D01*
X73084Y-25009D01*
X86466Y-25009D01*
X87028Y-25121D01*
X87493Y-25432D01*
X87803Y-25896D01*
X87915Y-26458D01*
X87915Y-52281D01*
X87915Y-52281D01*
G37*
X87915Y-52281D02*
X87803Y-52843D01*
X87493Y-53307D01*
X87230Y-53483D01*
X87230Y-52146D01*
X87230Y-26296D01*
X87116Y-26020D01*
X86905Y-25809D01*
X86630Y-25695D01*
X86331Y-25694D01*
X86056Y-25808D01*
X85844Y-26019D01*
X85730Y-26295D01*
X85730Y-26593D01*
X85844Y-26869D01*
X86054Y-27080D01*
X86330Y-27194D01*
X86628Y-27195D01*
X86904Y-27081D01*
X87115Y-26870D01*
X87230Y-26594D01*
X87230Y-26296D01*
X87230Y-52146D01*
X87116Y-51870D01*
X86905Y-51659D01*
X86630Y-51545D01*
X86331Y-51545D01*
X86056Y-51659D01*
X85844Y-51869D01*
X85730Y-52145D01*
X85730Y-52443D01*
X85844Y-52719D01*
X86054Y-52930D01*
X86330Y-53045D01*
X86628Y-53045D01*
X86904Y-52931D01*
X87115Y-52720D01*
X87230Y-52445D01*
X87230Y-52146D01*
X87230Y-53483D01*
X87028Y-53618D01*
X86465Y-53730D01*
X85215Y-53730D01*
X85215Y-35225D01*
X85176Y-35131D01*
X85130Y-35084D01*
X85130Y-32710D01*
X85176Y-32664D01*
X85215Y-32570D01*
X85215Y-32469D01*
X85176Y-32375D01*
X85105Y-32303D01*
X85011Y-32264D01*
X84910Y-32264D01*
X84816Y-32303D01*
X84744Y-32375D01*
X84720Y-32432D01*
X84696Y-32422D01*
X84595Y-32422D01*
X84501Y-32460D01*
X84429Y-32532D01*
X84390Y-32626D01*
X84390Y-32727D01*
X84429Y-32821D01*
X84475Y-32867D01*
X84475Y-34854D01*
X84464Y-34744D01*
X84433Y-34669D01*
X84375Y-34634D01*
X84291Y-34718D01*
X84291Y-34549D01*
X84255Y-34491D01*
X84095Y-34443D01*
X83929Y-34460D01*
X83854Y-34491D01*
X83819Y-34549D01*
X84055Y-34785D01*
X84291Y-34549D01*
X84291Y-34718D01*
X84139Y-34870D01*
X84375Y-35106D01*
X84433Y-35070D01*
X84475Y-34929D01*
X84475Y-36976D01*
X84458Y-36994D01*
X84475Y-36953D01*
X84475Y-36786D01*
X84475Y-35786D01*
X84411Y-35632D01*
X84293Y-35514D01*
X84291Y-35513D01*
X84291Y-35190D01*
X84055Y-34954D01*
X83970Y-35039D01*
X83970Y-34870D01*
X83734Y-34634D01*
X83676Y-34669D01*
X83628Y-34829D01*
X83645Y-34995D01*
X83676Y-35070D01*
X83734Y-35106D01*
X83970Y-34870D01*
X83970Y-35039D01*
X83819Y-35190D01*
X83854Y-35248D01*
X84014Y-35296D01*
X84180Y-35279D01*
X84255Y-35248D01*
X84291Y-35190D01*
X84291Y-35513D01*
X84139Y-35450D01*
X83971Y-35450D01*
X83817Y-35513D01*
X83699Y-35631D01*
X83635Y-35786D01*
X83635Y-35953D01*
X83698Y-36107D01*
X83816Y-36225D01*
X83971Y-36290D01*
X84138Y-36290D01*
X84292Y-36226D01*
X84410Y-36108D01*
X84475Y-35953D01*
X84475Y-35786D01*
X84475Y-36786D01*
X84411Y-36632D01*
X84293Y-36514D01*
X84139Y-36450D01*
X83971Y-36450D01*
X83817Y-36513D01*
X83699Y-36631D01*
X83635Y-36786D01*
X83635Y-36953D01*
X83698Y-37107D01*
X83783Y-37192D01*
X83562Y-37192D01*
X83497Y-37205D01*
X83481Y-37216D01*
X83481Y-34910D01*
X83464Y-34744D01*
X83433Y-34669D01*
X83375Y-34634D01*
X83291Y-34718D01*
X83291Y-34549D01*
X83255Y-34491D01*
X83095Y-34443D01*
X82929Y-34460D01*
X82854Y-34491D01*
X82819Y-34549D01*
X83055Y-34785D01*
X83291Y-34549D01*
X83291Y-34718D01*
X83139Y-34870D01*
X83375Y-35106D01*
X83433Y-35070D01*
X83481Y-34910D01*
X83481Y-37216D01*
X83475Y-37220D01*
X83475Y-36786D01*
X83475Y-35786D01*
X83411Y-35632D01*
X83293Y-35514D01*
X83291Y-35513D01*
X83291Y-35190D01*
X83055Y-34954D01*
X82970Y-35039D01*
X82970Y-34870D01*
X82734Y-34634D01*
X82676Y-34669D01*
X82628Y-34829D01*
X82645Y-34995D01*
X82676Y-35070D01*
X82734Y-35106D01*
X82970Y-34870D01*
X82970Y-35039D01*
X82819Y-35190D01*
X82854Y-35248D01*
X83014Y-35296D01*
X83180Y-35279D01*
X83255Y-35248D01*
X83291Y-35190D01*
X83291Y-35513D01*
X83139Y-35450D01*
X82971Y-35450D01*
X82817Y-35513D01*
X82699Y-35631D01*
X82635Y-35786D01*
X82635Y-35953D01*
X82698Y-36107D01*
X82816Y-36225D01*
X82971Y-36290D01*
X83138Y-36290D01*
X83292Y-36226D01*
X83410Y-36108D01*
X83475Y-35953D01*
X83475Y-35786D01*
X83475Y-36786D01*
X83411Y-36632D01*
X83293Y-36514D01*
X83139Y-36450D01*
X82971Y-36450D01*
X82817Y-36513D01*
X82699Y-36631D01*
X82635Y-36786D01*
X82635Y-36953D01*
X82698Y-37107D01*
X82816Y-37225D01*
X82971Y-37290D01*
X83138Y-37290D01*
X83292Y-37226D01*
X83410Y-37108D01*
X83475Y-36953D01*
X83475Y-36786D01*
X83475Y-37220D01*
X83442Y-37241D01*
X83442Y-37241D01*
X83206Y-37478D01*
X83139Y-37450D01*
X82971Y-37450D01*
X82817Y-37513D01*
X82699Y-37631D01*
X82635Y-37786D01*
X82635Y-37953D01*
X82698Y-38107D01*
X82816Y-38225D01*
X82971Y-38290D01*
X83138Y-38290D01*
X83292Y-38226D01*
X83410Y-38108D01*
X83475Y-37953D01*
X83475Y-37786D01*
X83446Y-37718D01*
X83633Y-37532D01*
X83799Y-37532D01*
X83699Y-37631D01*
X83635Y-37786D01*
X83635Y-37953D01*
X83698Y-38107D01*
X83816Y-38225D01*
X83971Y-38290D01*
X84138Y-38290D01*
X84292Y-38226D01*
X84410Y-38108D01*
X84475Y-37953D01*
X84475Y-37786D01*
X84411Y-37632D01*
X84311Y-37532D01*
X84330Y-37532D01*
X84395Y-37519D01*
X84395Y-37519D01*
X84450Y-37482D01*
X84765Y-37167D01*
X84802Y-37112D01*
X84802Y-37112D01*
X84804Y-37101D01*
X84815Y-37047D01*
X84815Y-37047D01*
X84815Y-37047D01*
X84815Y-35491D01*
X84815Y-35491D01*
X84909Y-35530D01*
X85011Y-35530D01*
X85104Y-35491D01*
X85176Y-35420D01*
X85215Y-35326D01*
X85215Y-35225D01*
X85215Y-53730D01*
X85136Y-53730D01*
X85136Y-50264D01*
X85098Y-50170D01*
X85026Y-50098D01*
X85025Y-50098D01*
X85026Y-50098D01*
X85097Y-50026D01*
X85136Y-49932D01*
X85136Y-49831D01*
X85098Y-49737D01*
X85026Y-49665D01*
X85025Y-49665D01*
X85026Y-49665D01*
X85097Y-49593D01*
X85136Y-49499D01*
X85136Y-49398D01*
X85098Y-49304D01*
X85026Y-49232D01*
X84932Y-49193D01*
X84831Y-49193D01*
X84737Y-49232D01*
X84721Y-49248D01*
X84476Y-49248D01*
X84475Y-49249D01*
X84475Y-45786D01*
X84475Y-44786D01*
X84475Y-43786D01*
X84475Y-42786D01*
X84475Y-41786D01*
X84475Y-41786D01*
X84475Y-39193D01*
X84475Y-39146D01*
X84475Y-38546D01*
X84456Y-38502D01*
X84423Y-38468D01*
X84378Y-38450D01*
X84331Y-38450D01*
X83731Y-38450D01*
X83687Y-38468D01*
X83653Y-38502D01*
X83635Y-38546D01*
X83635Y-38593D01*
X83635Y-39193D01*
X83653Y-39238D01*
X83687Y-39271D01*
X83731Y-39290D01*
X83778Y-39290D01*
X84378Y-39290D01*
X84423Y-39271D01*
X84456Y-39238D01*
X84475Y-39193D01*
X84475Y-41786D01*
X84411Y-41632D01*
X84293Y-41514D01*
X84139Y-41450D01*
X83971Y-41450D01*
X83817Y-41513D01*
X83699Y-41631D01*
X83635Y-41786D01*
X83635Y-41953D01*
X83698Y-42107D01*
X83816Y-42225D01*
X83971Y-42290D01*
X84138Y-42290D01*
X84292Y-42226D01*
X84410Y-42108D01*
X84475Y-41953D01*
X84475Y-41786D01*
X84475Y-42786D01*
X84411Y-42632D01*
X84293Y-42514D01*
X84139Y-42450D01*
X83971Y-42450D01*
X83817Y-42513D01*
X83699Y-42631D01*
X83635Y-42786D01*
X83635Y-42953D01*
X83698Y-43107D01*
X83816Y-43225D01*
X83971Y-43290D01*
X84138Y-43290D01*
X84292Y-43226D01*
X84410Y-43108D01*
X84475Y-42953D01*
X84475Y-42786D01*
X84475Y-43786D01*
X84411Y-43632D01*
X84293Y-43514D01*
X84139Y-43450D01*
X83971Y-43450D01*
X83817Y-43513D01*
X83699Y-43631D01*
X83635Y-43786D01*
X83635Y-43953D01*
X83698Y-44107D01*
X83816Y-44225D01*
X83971Y-44290D01*
X84138Y-44290D01*
X84292Y-44226D01*
X84410Y-44108D01*
X84475Y-43953D01*
X84475Y-43786D01*
X84475Y-44786D01*
X84411Y-44632D01*
X84293Y-44514D01*
X84139Y-44450D01*
X83971Y-44450D01*
X83817Y-44513D01*
X83699Y-44631D01*
X83635Y-44786D01*
X83635Y-44953D01*
X83698Y-45107D01*
X83816Y-45225D01*
X83971Y-45290D01*
X84138Y-45290D01*
X84292Y-45226D01*
X84410Y-45108D01*
X84475Y-44953D01*
X84475Y-44786D01*
X84475Y-45786D01*
X84411Y-45632D01*
X84293Y-45514D01*
X84139Y-45450D01*
X83971Y-45450D01*
X83817Y-45513D01*
X83713Y-45617D01*
X83713Y-45358D01*
X83713Y-45358D01*
X83713Y-45358D01*
X83702Y-45304D01*
X83700Y-45293D01*
X83700Y-45293D01*
X83663Y-45238D01*
X83446Y-45021D01*
X83475Y-44953D01*
X83475Y-44786D01*
X83475Y-43786D01*
X83475Y-42786D01*
X83475Y-41786D01*
X83475Y-38786D01*
X83411Y-38632D01*
X83293Y-38514D01*
X83139Y-38450D01*
X82971Y-38450D01*
X82817Y-38513D01*
X82699Y-38631D01*
X82635Y-38786D01*
X82635Y-38953D01*
X82698Y-39107D01*
X82816Y-39225D01*
X82971Y-39290D01*
X83138Y-39290D01*
X83292Y-39226D01*
X83410Y-39108D01*
X83475Y-38953D01*
X83475Y-38786D01*
X83475Y-41786D01*
X83411Y-41632D01*
X83293Y-41514D01*
X83139Y-41450D01*
X82971Y-41450D01*
X82817Y-41513D01*
X82699Y-41631D01*
X82635Y-41786D01*
X82635Y-41953D01*
X82698Y-42107D01*
X82816Y-42225D01*
X82971Y-42290D01*
X83138Y-42290D01*
X83292Y-42226D01*
X83410Y-42108D01*
X83475Y-41953D01*
X83475Y-41786D01*
X83475Y-42786D01*
X83411Y-42632D01*
X83293Y-42514D01*
X83139Y-42450D01*
X82971Y-42450D01*
X82817Y-42513D01*
X82699Y-42631D01*
X82635Y-42786D01*
X82635Y-42953D01*
X82698Y-43107D01*
X82816Y-43225D01*
X82971Y-43290D01*
X83138Y-43290D01*
X83292Y-43226D01*
X83410Y-43108D01*
X83475Y-42953D01*
X83475Y-42786D01*
X83475Y-43786D01*
X83411Y-43632D01*
X83293Y-43514D01*
X83139Y-43450D01*
X82971Y-43450D01*
X82817Y-43513D01*
X82699Y-43631D01*
X82635Y-43786D01*
X82635Y-43953D01*
X82698Y-44107D01*
X82816Y-44225D01*
X82971Y-44290D01*
X83138Y-44290D01*
X83292Y-44226D01*
X83410Y-44108D01*
X83475Y-43953D01*
X83475Y-43786D01*
X83475Y-44786D01*
X83411Y-44632D01*
X83293Y-44514D01*
X83139Y-44450D01*
X82971Y-44450D01*
X82817Y-44513D01*
X82699Y-44631D01*
X82635Y-44786D01*
X82635Y-44953D01*
X82698Y-45107D01*
X82816Y-45225D01*
X82971Y-45290D01*
X83138Y-45290D01*
X83206Y-45261D01*
X83373Y-45428D01*
X83373Y-45594D01*
X83293Y-45514D01*
X83139Y-45450D01*
X82971Y-45450D01*
X82817Y-45513D01*
X82699Y-45631D01*
X82635Y-45786D01*
X82635Y-45953D01*
X82663Y-46021D01*
X82475Y-46209D01*
X82475Y-33286D01*
X82475Y-33286D01*
X82475Y-32693D01*
X82475Y-32646D01*
X82475Y-32460D01*
X82475Y-32280D01*
X82475Y-32093D01*
X82475Y-32046D01*
X82456Y-32002D01*
X82423Y-31968D01*
X82378Y-31950D01*
X82145Y-31950D01*
X82115Y-31980D01*
X82115Y-32310D01*
X82445Y-32310D01*
X82475Y-32280D01*
X82475Y-32460D01*
X82445Y-32430D01*
X82115Y-32430D01*
X82115Y-32760D01*
X82145Y-32790D01*
X82378Y-32790D01*
X82423Y-32771D01*
X82456Y-32738D01*
X82475Y-32693D01*
X82475Y-33286D01*
X82411Y-33132D01*
X82293Y-33014D01*
X82139Y-32950D01*
X81995Y-32950D01*
X81995Y-32760D01*
X81995Y-32430D01*
X81995Y-32310D01*
X81995Y-31980D01*
X81965Y-31950D01*
X81731Y-31950D01*
X81687Y-31968D01*
X81653Y-32002D01*
X81635Y-32046D01*
X81635Y-32093D01*
X81635Y-32280D01*
X81665Y-32310D01*
X81995Y-32310D01*
X81995Y-32430D01*
X81665Y-32430D01*
X81635Y-32460D01*
X81635Y-32646D01*
X81635Y-32693D01*
X81653Y-32738D01*
X81687Y-32771D01*
X81731Y-32790D01*
X81965Y-32790D01*
X81995Y-32760D01*
X81995Y-32950D01*
X81971Y-32950D01*
X81817Y-33013D01*
X81699Y-33131D01*
X81635Y-33286D01*
X81635Y-33453D01*
X81698Y-33607D01*
X81816Y-33725D01*
X81971Y-33790D01*
X82138Y-33790D01*
X82292Y-33726D01*
X82410Y-33608D01*
X82475Y-33453D01*
X82475Y-33286D01*
X82475Y-46209D01*
X82399Y-46285D01*
X82362Y-46340D01*
X82349Y-46405D01*
X82349Y-47882D01*
X81481Y-48750D01*
X81481Y-32410D01*
X81464Y-32244D01*
X81433Y-32169D01*
X81375Y-32134D01*
X81291Y-32218D01*
X81291Y-32049D01*
X81255Y-31991D01*
X81095Y-31943D01*
X80929Y-31960D01*
X80854Y-31991D01*
X80819Y-32049D01*
X81055Y-32285D01*
X81291Y-32049D01*
X81291Y-32218D01*
X81139Y-32370D01*
X81375Y-32606D01*
X81433Y-32570D01*
X81481Y-32410D01*
X81481Y-48750D01*
X81475Y-48756D01*
X81475Y-33286D01*
X81411Y-33132D01*
X81293Y-33014D01*
X81291Y-33013D01*
X81291Y-32690D01*
X81055Y-32454D01*
X80970Y-32539D01*
X80970Y-32370D01*
X80734Y-32134D01*
X80676Y-32169D01*
X80628Y-32329D01*
X80645Y-32495D01*
X80676Y-32570D01*
X80734Y-32606D01*
X80970Y-32370D01*
X80970Y-32539D01*
X80819Y-32690D01*
X80854Y-32748D01*
X81014Y-32796D01*
X81180Y-32779D01*
X81255Y-32748D01*
X81291Y-32690D01*
X81291Y-33013D01*
X81139Y-32950D01*
X80971Y-32950D01*
X80817Y-33013D01*
X80699Y-33131D01*
X80635Y-33286D01*
X80635Y-33453D01*
X80698Y-33607D01*
X80816Y-33725D01*
X80971Y-33790D01*
X81138Y-33790D01*
X81292Y-33726D01*
X81410Y-33608D01*
X81475Y-33453D01*
X81475Y-33286D01*
X81475Y-48756D01*
X81116Y-49115D01*
X81051Y-49115D01*
X80958Y-49153D01*
X80886Y-49225D01*
X80847Y-49319D01*
X80847Y-49420D01*
X80886Y-49514D01*
X80957Y-49586D01*
X81051Y-49625D01*
X81152Y-49625D01*
X81246Y-49586D01*
X81268Y-49564D01*
X81279Y-49593D01*
X81351Y-49664D01*
X81445Y-49703D01*
X81546Y-49703D01*
X81640Y-49665D01*
X81712Y-49593D01*
X81751Y-49499D01*
X81751Y-49434D01*
X83663Y-47521D01*
X83663Y-47521D01*
X83663Y-47521D01*
X83688Y-47484D01*
X83700Y-47466D01*
X83700Y-47466D01*
X83713Y-47401D01*
X83713Y-47401D01*
X83713Y-47401D01*
X83713Y-47282D01*
X83731Y-47290D01*
X83778Y-47290D01*
X84378Y-47290D01*
X84423Y-47271D01*
X84456Y-47238D01*
X84475Y-47193D01*
X84475Y-47146D01*
X84475Y-46546D01*
X84456Y-46502D01*
X84423Y-46468D01*
X84378Y-46450D01*
X84331Y-46450D01*
X83731Y-46450D01*
X83713Y-46457D01*
X83713Y-46122D01*
X83816Y-46225D01*
X83971Y-46290D01*
X84138Y-46290D01*
X84292Y-46226D01*
X84410Y-46108D01*
X84475Y-45953D01*
X84475Y-45786D01*
X84475Y-49249D01*
X84399Y-49264D01*
X84334Y-49307D01*
X84192Y-49450D01*
X83731Y-49450D01*
X83687Y-49468D01*
X83653Y-49502D01*
X83635Y-49546D01*
X83635Y-49593D01*
X83635Y-50193D01*
X83653Y-50238D01*
X83687Y-50271D01*
X83731Y-50290D01*
X83778Y-50290D01*
X84192Y-50290D01*
X84358Y-50456D01*
X84423Y-50499D01*
X84423Y-50499D01*
X84436Y-50502D01*
X84500Y-50514D01*
X84721Y-50514D01*
X84737Y-50531D01*
X84830Y-50569D01*
X84932Y-50570D01*
X85026Y-50531D01*
X85097Y-50459D01*
X85136Y-50365D01*
X85136Y-50264D01*
X85136Y-53730D01*
X84475Y-53730D01*
X84475Y-50786D01*
X84411Y-50632D01*
X84293Y-50514D01*
X84139Y-50450D01*
X83971Y-50450D01*
X83817Y-50513D01*
X83699Y-50631D01*
X83635Y-50786D01*
X83635Y-50953D01*
X83698Y-51107D01*
X83816Y-51225D01*
X83971Y-51290D01*
X84138Y-51290D01*
X84292Y-51226D01*
X84410Y-51108D01*
X84475Y-50953D01*
X84475Y-50786D01*
X84475Y-53730D01*
X83475Y-53730D01*
X83475Y-50786D01*
X83475Y-49786D01*
X83411Y-49632D01*
X83293Y-49514D01*
X83139Y-49450D01*
X82971Y-49450D01*
X82817Y-49513D01*
X82699Y-49631D01*
X82635Y-49786D01*
X82635Y-49953D01*
X82698Y-50107D01*
X82816Y-50225D01*
X82971Y-50290D01*
X83138Y-50290D01*
X83292Y-50226D01*
X83410Y-50108D01*
X83475Y-49953D01*
X83475Y-49786D01*
X83475Y-50786D01*
X83411Y-50632D01*
X83293Y-50514D01*
X83139Y-50450D01*
X82971Y-50450D01*
X82817Y-50513D01*
X82699Y-50631D01*
X82635Y-50786D01*
X82635Y-50953D01*
X82698Y-51107D01*
X82816Y-51225D01*
X82971Y-51290D01*
X83138Y-51290D01*
X83292Y-51226D01*
X83410Y-51108D01*
X83475Y-50953D01*
X83475Y-50786D01*
X83475Y-53730D01*
X82481Y-53730D01*
X82481Y-50910D01*
X82475Y-50849D01*
X82475Y-49786D01*
X82411Y-49632D01*
X82293Y-49514D01*
X82139Y-49450D01*
X81971Y-49450D01*
X81817Y-49513D01*
X81699Y-49631D01*
X81635Y-49786D01*
X81635Y-49953D01*
X81698Y-50107D01*
X81816Y-50225D01*
X81971Y-50290D01*
X82138Y-50290D01*
X82292Y-50226D01*
X82410Y-50108D01*
X82475Y-49953D01*
X82475Y-49786D01*
X82475Y-50849D01*
X82464Y-50744D01*
X82433Y-50669D01*
X82375Y-50634D01*
X82291Y-50718D01*
X82291Y-50549D01*
X82255Y-50491D01*
X82095Y-50443D01*
X81929Y-50460D01*
X81854Y-50491D01*
X81819Y-50549D01*
X82055Y-50785D01*
X82291Y-50549D01*
X82291Y-50718D01*
X82139Y-50870D01*
X82375Y-51106D01*
X82433Y-51070D01*
X82481Y-50910D01*
X82481Y-53730D01*
X82291Y-53730D01*
X82291Y-51190D01*
X82055Y-50954D01*
X81970Y-51039D01*
X81970Y-50870D01*
X81734Y-50634D01*
X81676Y-50669D01*
X81628Y-50829D01*
X81645Y-50995D01*
X81676Y-51070D01*
X81734Y-51106D01*
X81970Y-50870D01*
X81970Y-51039D01*
X81819Y-51190D01*
X81854Y-51248D01*
X82014Y-51296D01*
X82180Y-51279D01*
X82255Y-51248D01*
X82291Y-51190D01*
X82291Y-53730D01*
X81121Y-53730D01*
X81121Y-52784D01*
X81082Y-52690D01*
X81010Y-52618D01*
X80917Y-52579D01*
X80815Y-52579D01*
X80721Y-52618D01*
X80650Y-52690D01*
X80611Y-52783D01*
X80611Y-52849D01*
X80481Y-52978D01*
X80481Y-32410D01*
X80464Y-32244D01*
X80433Y-32169D01*
X80375Y-32134D01*
X80291Y-32218D01*
X80291Y-32049D01*
X80255Y-31991D01*
X80095Y-31943D01*
X79929Y-31960D01*
X79854Y-31991D01*
X79819Y-32049D01*
X80055Y-32285D01*
X80291Y-32049D01*
X80291Y-32218D01*
X80139Y-32370D01*
X80375Y-32606D01*
X80433Y-32570D01*
X80481Y-32410D01*
X80481Y-52978D01*
X80452Y-53007D01*
X80475Y-52953D01*
X80475Y-52786D01*
X80475Y-33286D01*
X80411Y-33132D01*
X80293Y-33014D01*
X80291Y-33013D01*
X80291Y-32690D01*
X80055Y-32454D01*
X79970Y-32539D01*
X79970Y-32370D01*
X79734Y-32134D01*
X79676Y-32169D01*
X79628Y-32329D01*
X79645Y-32495D01*
X79676Y-32570D01*
X79734Y-32606D01*
X79970Y-32370D01*
X79970Y-32539D01*
X79819Y-32690D01*
X79854Y-32748D01*
X80014Y-32796D01*
X80180Y-32779D01*
X80255Y-32748D01*
X80291Y-32690D01*
X80291Y-33013D01*
X80139Y-32950D01*
X79971Y-32950D01*
X79817Y-33013D01*
X79699Y-33131D01*
X79635Y-33286D01*
X79635Y-33453D01*
X79698Y-33607D01*
X79816Y-33725D01*
X79971Y-33790D01*
X80138Y-33790D01*
X80292Y-33726D01*
X80410Y-33608D01*
X80475Y-33453D01*
X80475Y-33286D01*
X80475Y-52786D01*
X80411Y-52632D01*
X80293Y-52514D01*
X80139Y-52450D01*
X79971Y-52450D01*
X79817Y-52513D01*
X79699Y-52631D01*
X79635Y-52786D01*
X79635Y-52953D01*
X79698Y-53107D01*
X79806Y-53215D01*
X79481Y-53215D01*
X79481Y-32410D01*
X79464Y-32244D01*
X79433Y-32169D01*
X79375Y-32134D01*
X79291Y-32218D01*
X79291Y-32049D01*
X79255Y-31991D01*
X79095Y-31943D01*
X78929Y-31960D01*
X78854Y-31991D01*
X78819Y-32049D01*
X79055Y-32285D01*
X79291Y-32049D01*
X79291Y-32218D01*
X79139Y-32370D01*
X79375Y-32606D01*
X79433Y-32570D01*
X79481Y-32410D01*
X79481Y-53215D01*
X79303Y-53215D01*
X79410Y-53108D01*
X79475Y-52953D01*
X79475Y-52786D01*
X79475Y-33286D01*
X79411Y-33132D01*
X79293Y-33014D01*
X79291Y-33013D01*
X79291Y-32690D01*
X79055Y-32454D01*
X78970Y-32539D01*
X78970Y-32370D01*
X78734Y-32134D01*
X78676Y-32169D01*
X78628Y-32329D01*
X78645Y-32495D01*
X78676Y-32570D01*
X78734Y-32606D01*
X78970Y-32370D01*
X78970Y-32539D01*
X78819Y-32690D01*
X78854Y-32748D01*
X79014Y-32796D01*
X79180Y-32779D01*
X79255Y-32748D01*
X79291Y-32690D01*
X79291Y-33013D01*
X79139Y-32950D01*
X78971Y-32950D01*
X78817Y-33013D01*
X78699Y-33131D01*
X78635Y-33286D01*
X78635Y-33453D01*
X78698Y-33607D01*
X78816Y-33725D01*
X78971Y-33790D01*
X79138Y-33790D01*
X79292Y-33726D01*
X79410Y-33608D01*
X79475Y-33453D01*
X79475Y-33286D01*
X79475Y-52786D01*
X79411Y-52632D01*
X79293Y-52514D01*
X79139Y-52450D01*
X78971Y-52450D01*
X78817Y-52513D01*
X78699Y-52631D01*
X78635Y-52786D01*
X78635Y-52953D01*
X78698Y-53107D01*
X78806Y-53215D01*
X78303Y-53215D01*
X78410Y-53108D01*
X78475Y-52953D01*
X78475Y-52786D01*
X78411Y-52632D01*
X78365Y-52586D01*
X78365Y-45382D01*
X78326Y-45288D01*
X78254Y-45217D01*
X78161Y-45178D01*
X78129Y-45178D01*
X78129Y-29201D01*
X78090Y-29107D01*
X78018Y-29035D01*
X77924Y-28997D01*
X77823Y-28996D01*
X77729Y-29035D01*
X77683Y-29081D01*
X77679Y-29081D01*
X77679Y-29011D01*
X77660Y-28967D01*
X77627Y-28933D01*
X77582Y-28915D01*
X77535Y-28915D01*
X76984Y-28915D01*
X76948Y-28930D01*
X76913Y-28915D01*
X76865Y-28915D01*
X76314Y-28915D01*
X76270Y-28933D01*
X76236Y-28967D01*
X76218Y-29011D01*
X76218Y-29059D01*
X76218Y-29453D01*
X76236Y-29497D01*
X76270Y-29530D01*
X76314Y-29549D01*
X76362Y-29549D01*
X76428Y-29549D01*
X76398Y-29579D01*
X76359Y-29673D01*
X76359Y-29774D01*
X76397Y-29868D01*
X76469Y-29940D01*
X76563Y-29979D01*
X76664Y-29979D01*
X76758Y-29940D01*
X76830Y-29869D01*
X76869Y-29775D01*
X76869Y-29673D01*
X76830Y-29580D01*
X76799Y-29549D01*
X76913Y-29549D01*
X76948Y-29534D01*
X76984Y-29549D01*
X77031Y-29549D01*
X77582Y-29549D01*
X77627Y-29530D01*
X77660Y-29497D01*
X77679Y-29453D01*
X77679Y-29421D01*
X77683Y-29421D01*
X77729Y-29468D01*
X77823Y-29506D01*
X77924Y-29507D01*
X78018Y-29468D01*
X78090Y-29396D01*
X78128Y-29302D01*
X78129Y-29201D01*
X78129Y-45178D01*
X78059Y-45178D01*
X77965Y-45216D01*
X77894Y-45288D01*
X77874Y-45337D01*
X77854Y-45288D01*
X77782Y-45217D01*
X77688Y-45178D01*
X77679Y-45178D01*
X77679Y-44807D01*
X77679Y-44759D01*
X77679Y-44365D01*
X77679Y-32956D01*
X77679Y-32909D01*
X77679Y-32515D01*
X77660Y-32471D01*
X77627Y-32437D01*
X77582Y-32419D01*
X77535Y-32419D01*
X76984Y-32419D01*
X76948Y-32433D01*
X76913Y-32419D01*
X76865Y-32419D01*
X76729Y-32419D01*
X76843Y-32372D01*
X76938Y-32277D01*
X76990Y-32153D01*
X76990Y-32019D01*
X76939Y-31896D01*
X76844Y-31801D01*
X76720Y-31750D01*
X76586Y-31750D01*
X76463Y-31801D01*
X76368Y-31895D01*
X76317Y-32019D01*
X76316Y-32153D01*
X76368Y-32276D01*
X76462Y-32371D01*
X76577Y-32419D01*
X76314Y-32419D01*
X76270Y-32437D01*
X76239Y-32468D01*
X76239Y-31760D01*
X76200Y-31666D01*
X76154Y-31620D01*
X76154Y-30000D01*
X76154Y-30000D01*
X76154Y-30000D01*
X76141Y-29934D01*
X76141Y-29934D01*
X76129Y-29916D01*
X76104Y-29879D01*
X76104Y-29879D01*
X76104Y-29879D01*
X75773Y-29549D01*
X75890Y-29549D01*
X75934Y-29530D01*
X75967Y-29497D01*
X75986Y-29453D01*
X75986Y-29405D01*
X75986Y-29011D01*
X75967Y-28967D01*
X75934Y-28933D01*
X75890Y-28915D01*
X75842Y-28915D01*
X75291Y-28915D01*
X75255Y-28930D01*
X75220Y-28915D01*
X75172Y-28915D01*
X74621Y-28915D01*
X74577Y-28933D01*
X74543Y-28967D01*
X74525Y-29011D01*
X74525Y-29059D01*
X74525Y-29453D01*
X74543Y-29497D01*
X74577Y-29530D01*
X74621Y-29549D01*
X74669Y-29549D01*
X74751Y-29549D01*
X74751Y-29566D01*
X74764Y-29631D01*
X74801Y-29687D01*
X75420Y-30306D01*
X75420Y-31620D01*
X75374Y-31666D01*
X75335Y-31760D01*
X75335Y-31861D01*
X75374Y-31955D01*
X75445Y-32027D01*
X75539Y-32065D01*
X75641Y-32066D01*
X75734Y-32027D01*
X75787Y-31974D01*
X75839Y-32027D01*
X75933Y-32065D01*
X76034Y-32066D01*
X76128Y-32027D01*
X76200Y-31955D01*
X76239Y-31861D01*
X76239Y-31760D01*
X76239Y-32468D01*
X76236Y-32471D01*
X76218Y-32515D01*
X76218Y-32563D01*
X76218Y-32956D01*
X76236Y-33001D01*
X76270Y-33034D01*
X76314Y-33053D01*
X76362Y-33053D01*
X76444Y-33053D01*
X76444Y-33077D01*
X76398Y-33123D01*
X76359Y-33216D01*
X76359Y-33318D01*
X76397Y-33411D01*
X76469Y-33483D01*
X76563Y-33522D01*
X76664Y-33522D01*
X76758Y-33484D01*
X76830Y-33412D01*
X76869Y-33318D01*
X76869Y-33217D01*
X76830Y-33123D01*
X76784Y-33077D01*
X76784Y-33053D01*
X76913Y-33053D01*
X76948Y-33038D01*
X76984Y-33053D01*
X77031Y-33053D01*
X77113Y-33053D01*
X77113Y-33077D01*
X77067Y-33123D01*
X77028Y-33216D01*
X77028Y-33318D01*
X77067Y-33411D01*
X77138Y-33483D01*
X77232Y-33522D01*
X77333Y-33522D01*
X77427Y-33484D01*
X77499Y-33412D01*
X77538Y-33318D01*
X77538Y-33217D01*
X77499Y-33123D01*
X77453Y-33077D01*
X77453Y-33053D01*
X77582Y-33053D01*
X77627Y-33034D01*
X77660Y-33001D01*
X77679Y-32956D01*
X77679Y-44365D01*
X77660Y-44321D01*
X77627Y-44288D01*
X77582Y-44269D01*
X77535Y-44269D01*
X77453Y-44269D01*
X77453Y-44206D01*
X77499Y-44160D01*
X77538Y-44066D01*
X77538Y-43965D01*
X77499Y-43871D01*
X77428Y-43799D01*
X77334Y-43760D01*
X77232Y-43760D01*
X77139Y-43799D01*
X77067Y-43871D01*
X77028Y-43964D01*
X77028Y-44066D01*
X77067Y-44160D01*
X77113Y-44206D01*
X77113Y-44269D01*
X76984Y-44269D01*
X76948Y-44284D01*
X76913Y-44269D01*
X76865Y-44269D01*
X76784Y-44269D01*
X76784Y-44206D01*
X76830Y-44160D01*
X76869Y-44066D01*
X76869Y-43965D01*
X76830Y-43871D01*
X76758Y-43799D01*
X76665Y-43760D01*
X76563Y-43760D01*
X76469Y-43799D01*
X76398Y-43871D01*
X76359Y-43964D01*
X76359Y-44066D01*
X76397Y-44160D01*
X76444Y-44206D01*
X76444Y-44269D01*
X76314Y-44269D01*
X76270Y-44288D01*
X76236Y-44321D01*
X76218Y-44365D01*
X76218Y-44413D01*
X76218Y-44807D01*
X76236Y-44851D01*
X76270Y-44885D01*
X76314Y-44903D01*
X76362Y-44903D01*
X76913Y-44903D01*
X76948Y-44888D01*
X76984Y-44903D01*
X77031Y-44903D01*
X77582Y-44903D01*
X77627Y-44885D01*
X77660Y-44851D01*
X77679Y-44807D01*
X77679Y-45178D01*
X77587Y-45178D01*
X77493Y-45216D01*
X77421Y-45288D01*
X77401Y-45337D01*
X77381Y-45288D01*
X77309Y-45217D01*
X77216Y-45178D01*
X77114Y-45178D01*
X77021Y-45216D01*
X76949Y-45288D01*
X76910Y-45382D01*
X76910Y-45447D01*
X75986Y-46371D01*
X75986Y-44807D01*
X75986Y-44759D01*
X75986Y-44365D01*
X75967Y-44321D01*
X75934Y-44288D01*
X75890Y-44269D01*
X75842Y-44269D01*
X75760Y-44269D01*
X75760Y-44206D01*
X75806Y-44160D01*
X75845Y-44066D01*
X75845Y-43965D01*
X75806Y-43871D01*
X75735Y-43799D01*
X75641Y-43760D01*
X75540Y-43760D01*
X75446Y-43799D01*
X75374Y-43871D01*
X75335Y-43964D01*
X75335Y-44066D01*
X75374Y-44160D01*
X75420Y-44206D01*
X75420Y-44269D01*
X75316Y-44269D01*
X75316Y-32956D01*
X75316Y-32909D01*
X75316Y-32515D01*
X75298Y-32471D01*
X75277Y-32450D01*
X75277Y-30378D01*
X75235Y-30276D01*
X75157Y-30197D01*
X75055Y-30155D01*
X74945Y-30155D01*
X74843Y-30197D01*
X74815Y-30225D01*
X74815Y-30190D01*
X74861Y-30144D01*
X74900Y-30050D01*
X74900Y-29949D01*
X74861Y-29855D01*
X74790Y-29783D01*
X74696Y-29745D01*
X74595Y-29744D01*
X74501Y-29783D01*
X74429Y-29855D01*
X74390Y-29949D01*
X74390Y-30050D01*
X74429Y-30144D01*
X74475Y-30190D01*
X74475Y-31620D01*
X74429Y-31666D01*
X74390Y-31760D01*
X74390Y-31861D01*
X74429Y-31955D01*
X74501Y-32027D01*
X74594Y-32065D01*
X74696Y-32066D01*
X74789Y-32027D01*
X74861Y-31955D01*
X74900Y-31861D01*
X74900Y-31760D01*
X74861Y-31666D01*
X74815Y-31620D01*
X74815Y-30641D01*
X74842Y-30668D01*
X74944Y-30710D01*
X75054Y-30710D01*
X75156Y-30668D01*
X75235Y-30590D01*
X75277Y-30488D01*
X75277Y-30378D01*
X75277Y-32450D01*
X75264Y-32437D01*
X75220Y-32419D01*
X75172Y-32419D01*
X74621Y-32419D01*
X74577Y-32437D01*
X74543Y-32471D01*
X74525Y-32515D01*
X74525Y-32563D01*
X74525Y-32956D01*
X74543Y-33001D01*
X74577Y-33034D01*
X74621Y-33053D01*
X74669Y-33053D01*
X74751Y-33053D01*
X74751Y-33077D01*
X74705Y-33123D01*
X74666Y-33216D01*
X74666Y-33318D01*
X74704Y-33411D01*
X74776Y-33483D01*
X74870Y-33522D01*
X74971Y-33522D01*
X75065Y-33484D01*
X75137Y-33412D01*
X75176Y-33318D01*
X75176Y-33217D01*
X75137Y-33123D01*
X75091Y-33077D01*
X75091Y-33053D01*
X75220Y-33053D01*
X75264Y-33034D01*
X75298Y-33001D01*
X75316Y-32956D01*
X75316Y-44269D01*
X75291Y-44269D01*
X75255Y-44284D01*
X75220Y-44269D01*
X75172Y-44269D01*
X75091Y-44269D01*
X75091Y-44206D01*
X75137Y-44160D01*
X75176Y-44066D01*
X75176Y-43965D01*
X75137Y-43871D01*
X75065Y-43799D01*
X74972Y-43760D01*
X74870Y-43760D01*
X74777Y-43799D01*
X74705Y-43871D01*
X74666Y-43964D01*
X74666Y-44066D01*
X74704Y-44160D01*
X74751Y-44206D01*
X74751Y-44269D01*
X74621Y-44269D01*
X74577Y-44288D01*
X74543Y-44321D01*
X74525Y-44365D01*
X74525Y-44413D01*
X74525Y-44807D01*
X74543Y-44851D01*
X74577Y-44885D01*
X74621Y-44903D01*
X74669Y-44903D01*
X75220Y-44903D01*
X75255Y-44888D01*
X75291Y-44903D01*
X75338Y-44903D01*
X75890Y-44903D01*
X75934Y-44885D01*
X75967Y-44851D01*
X75986Y-44807D01*
X75986Y-46371D01*
X75277Y-47080D01*
X75277Y-45732D01*
X75235Y-45630D01*
X75157Y-45552D01*
X75055Y-45509D01*
X74945Y-45509D01*
X74843Y-45552D01*
X74764Y-45630D01*
X74722Y-45731D01*
X74722Y-45842D01*
X74764Y-45944D01*
X74842Y-46022D01*
X74944Y-46064D01*
X75054Y-46064D01*
X75156Y-46022D01*
X75235Y-45944D01*
X75277Y-45842D01*
X75277Y-45732D01*
X75277Y-47080D01*
X74801Y-47556D01*
X74764Y-47612D01*
X74751Y-47677D01*
X74751Y-47773D01*
X74621Y-47773D01*
X74577Y-47791D01*
X74543Y-47825D01*
X74525Y-47869D01*
X74525Y-47917D01*
X74525Y-48311D01*
X74543Y-48355D01*
X74577Y-48389D01*
X74621Y-48407D01*
X74669Y-48407D01*
X75220Y-48407D01*
X75264Y-48389D01*
X75298Y-48355D01*
X75316Y-48311D01*
X75316Y-48263D01*
X75316Y-47869D01*
X75298Y-47825D01*
X75264Y-47791D01*
X75220Y-47773D01*
X75172Y-47773D01*
X75091Y-47773D01*
X75091Y-47747D01*
X76004Y-46834D01*
X75984Y-46864D01*
X75971Y-46929D01*
X75971Y-47716D01*
X75984Y-47781D01*
X76021Y-47836D01*
X76218Y-48033D01*
X76218Y-48311D01*
X76236Y-48355D01*
X76270Y-48389D01*
X76314Y-48407D01*
X76362Y-48407D01*
X76913Y-48407D01*
X76948Y-48392D01*
X76984Y-48407D01*
X77031Y-48407D01*
X77582Y-48407D01*
X77627Y-48389D01*
X77660Y-48355D01*
X77679Y-48311D01*
X77679Y-48263D01*
X77679Y-47869D01*
X77660Y-47825D01*
X77627Y-47791D01*
X77582Y-47773D01*
X77535Y-47773D01*
X77453Y-47773D01*
X77453Y-46330D01*
X78095Y-45688D01*
X78160Y-45688D01*
X78254Y-45649D01*
X78326Y-45577D01*
X78365Y-45484D01*
X78365Y-45382D01*
X78365Y-52586D01*
X78293Y-52514D01*
X78139Y-52450D01*
X77971Y-52450D01*
X77817Y-52513D01*
X77699Y-52631D01*
X77635Y-52786D01*
X77635Y-52953D01*
X77698Y-53107D01*
X77806Y-53215D01*
X77303Y-53215D01*
X77410Y-53108D01*
X77475Y-52953D01*
X77475Y-52786D01*
X77411Y-52632D01*
X77293Y-52514D01*
X77139Y-52450D01*
X76971Y-52450D01*
X76817Y-52513D01*
X76699Y-52631D01*
X76635Y-52786D01*
X76635Y-52953D01*
X76698Y-53107D01*
X76806Y-53215D01*
X76303Y-53215D01*
X76410Y-53108D01*
X76475Y-52953D01*
X76475Y-52786D01*
X76411Y-52632D01*
X76293Y-52514D01*
X76225Y-52485D01*
X76225Y-51458D01*
X76279Y-51404D01*
X76317Y-51310D01*
X76318Y-51209D01*
X76279Y-51115D01*
X76207Y-51043D01*
X76113Y-51004D01*
X76012Y-51004D01*
X75918Y-51043D01*
X75846Y-51115D01*
X75808Y-51208D01*
X75807Y-51310D01*
X75846Y-51404D01*
X75885Y-51442D01*
X75885Y-52485D01*
X75817Y-52513D01*
X75699Y-52631D01*
X75635Y-52786D01*
X75635Y-52953D01*
X75698Y-53107D01*
X75806Y-53215D01*
X75466Y-53215D01*
X75475Y-53193D01*
X75475Y-53146D01*
X75475Y-52960D01*
X75475Y-52780D01*
X75475Y-52593D01*
X75475Y-52546D01*
X75456Y-52502D01*
X75423Y-52468D01*
X75378Y-52450D01*
X75145Y-52450D01*
X75115Y-52480D01*
X75115Y-52810D01*
X75445Y-52810D01*
X75475Y-52780D01*
X75475Y-52960D01*
X75445Y-52930D01*
X75115Y-52930D01*
X75115Y-52937D01*
X74995Y-52937D01*
X74995Y-52930D01*
X74995Y-52810D01*
X74995Y-52480D01*
X74965Y-52450D01*
X74731Y-52450D01*
X74687Y-52468D01*
X74653Y-52502D01*
X74635Y-52546D01*
X74635Y-52593D01*
X74635Y-52780D01*
X74665Y-52810D01*
X74995Y-52810D01*
X74995Y-52930D01*
X74665Y-52930D01*
X74635Y-52960D01*
X74635Y-53146D01*
X74635Y-53193D01*
X74644Y-53215D01*
X73391Y-53215D01*
X73391Y-49004D01*
X73391Y-25870D01*
X73343Y-25753D01*
X73254Y-25664D01*
X73138Y-25616D01*
X73012Y-25616D01*
X72895Y-25664D01*
X72806Y-25753D01*
X72758Y-25869D01*
X72757Y-25995D01*
X72806Y-26112D01*
X72895Y-26201D01*
X73011Y-26249D01*
X73137Y-26249D01*
X73254Y-26201D01*
X73343Y-26112D01*
X73391Y-25996D01*
X73391Y-25870D01*
X73391Y-49004D01*
X73343Y-48887D01*
X73254Y-48798D01*
X73138Y-48750D01*
X73012Y-48750D01*
X72895Y-48798D01*
X72806Y-48887D01*
X72758Y-49003D01*
X72757Y-49129D01*
X72806Y-49246D01*
X72895Y-49335D01*
X73011Y-49383D01*
X73137Y-49383D01*
X73254Y-49335D01*
X73343Y-49246D01*
X73391Y-49130D01*
X73391Y-49004D01*
X73391Y-53215D01*
X72303Y-53215D01*
X72410Y-53108D01*
X72475Y-52953D01*
X72475Y-52786D01*
X72475Y-52786D01*
X72475Y-52193D01*
X72475Y-52146D01*
X72475Y-51960D01*
X72475Y-51780D01*
X72475Y-51593D01*
X72475Y-51546D01*
X72456Y-51502D01*
X72423Y-51468D01*
X72378Y-51450D01*
X72145Y-51450D01*
X72115Y-51480D01*
X72115Y-51810D01*
X72445Y-51810D01*
X72475Y-51780D01*
X72475Y-51960D01*
X72445Y-51930D01*
X72115Y-51930D01*
X72115Y-52260D01*
X72145Y-52290D01*
X72378Y-52290D01*
X72423Y-52271D01*
X72456Y-52238D01*
X72475Y-52193D01*
X72475Y-52786D01*
X72411Y-52632D01*
X72293Y-52514D01*
X72139Y-52450D01*
X71995Y-52450D01*
X71995Y-52260D01*
X71995Y-51930D01*
X71995Y-51810D01*
X71995Y-51480D01*
X71965Y-51450D01*
X71731Y-51450D01*
X71687Y-51468D01*
X71653Y-51502D01*
X71635Y-51546D01*
X71635Y-51593D01*
X71635Y-51780D01*
X71665Y-51810D01*
X71995Y-51810D01*
X71995Y-51930D01*
X71665Y-51930D01*
X71635Y-51960D01*
X71635Y-52146D01*
X71635Y-52193D01*
X71653Y-52238D01*
X71687Y-52271D01*
X71731Y-52290D01*
X71965Y-52290D01*
X71995Y-52260D01*
X71995Y-52450D01*
X71971Y-52450D01*
X71817Y-52513D01*
X71699Y-52631D01*
X71635Y-52786D01*
X71635Y-52953D01*
X71698Y-53107D01*
X71806Y-53215D01*
X71303Y-53215D01*
X71410Y-53108D01*
X71475Y-52953D01*
X71475Y-52786D01*
X71475Y-51786D01*
X71411Y-51632D01*
X71293Y-51514D01*
X71139Y-51450D01*
X70971Y-51450D01*
X70817Y-51513D01*
X70699Y-51631D01*
X70635Y-51786D01*
X70635Y-51953D01*
X70698Y-52107D01*
X70816Y-52225D01*
X70971Y-52290D01*
X71138Y-52290D01*
X71292Y-52226D01*
X71410Y-52108D01*
X71475Y-51953D01*
X71475Y-51786D01*
X71475Y-52786D01*
X71411Y-52632D01*
X71293Y-52514D01*
X71139Y-52450D01*
X70971Y-52450D01*
X70817Y-52513D01*
X70699Y-52631D01*
X70635Y-52786D01*
X70635Y-52953D01*
X70698Y-53107D01*
X70806Y-53215D01*
X70303Y-53215D01*
X70410Y-53108D01*
X70475Y-52953D01*
X70475Y-52786D01*
X70475Y-51786D01*
X70411Y-51632D01*
X70293Y-51514D01*
X70255Y-51498D01*
X70255Y-46799D01*
X70216Y-46706D01*
X70144Y-46634D01*
X70050Y-46595D01*
X69949Y-46595D01*
X69855Y-46634D01*
X69783Y-46705D01*
X69745Y-46799D01*
X69745Y-46822D01*
X69287Y-47280D01*
X67720Y-47280D01*
X67341Y-46901D01*
X67341Y-46878D01*
X67302Y-46784D01*
X67231Y-46713D01*
X67137Y-46674D01*
X67036Y-46674D01*
X66942Y-46712D01*
X66870Y-46784D01*
X66831Y-46878D01*
X66831Y-46979D01*
X66870Y-47073D01*
X66941Y-47145D01*
X67035Y-47184D01*
X67058Y-47184D01*
X67496Y-47621D01*
X67561Y-47665D01*
X67637Y-47680D01*
X69370Y-47680D01*
X69446Y-47665D01*
X69511Y-47621D01*
X70027Y-47105D01*
X70050Y-47105D01*
X70144Y-47066D01*
X70216Y-46995D01*
X70254Y-46901D01*
X70255Y-46799D01*
X70255Y-51498D01*
X70139Y-51450D01*
X69971Y-51450D01*
X69817Y-51513D01*
X69699Y-51631D01*
X69635Y-51786D01*
X69635Y-51953D01*
X69698Y-52107D01*
X69816Y-52225D01*
X69971Y-52290D01*
X70138Y-52290D01*
X70292Y-52226D01*
X70410Y-52108D01*
X70475Y-51953D01*
X70475Y-51786D01*
X70475Y-52786D01*
X70411Y-52632D01*
X70293Y-52514D01*
X70139Y-52450D01*
X69971Y-52450D01*
X69817Y-52513D01*
X69699Y-52631D01*
X69635Y-52786D01*
X69635Y-52953D01*
X69698Y-53107D01*
X69806Y-53215D01*
X69303Y-53215D01*
X69410Y-53108D01*
X69475Y-52953D01*
X69475Y-52786D01*
X69475Y-51786D01*
X69411Y-51632D01*
X69293Y-51514D01*
X69139Y-51450D01*
X68971Y-51450D01*
X68817Y-51513D01*
X68699Y-51631D01*
X68635Y-51786D01*
X68635Y-51953D01*
X68698Y-52107D01*
X68816Y-52225D01*
X68971Y-52290D01*
X69138Y-52290D01*
X69292Y-52226D01*
X69410Y-52108D01*
X69475Y-51953D01*
X69475Y-51786D01*
X69475Y-52786D01*
X69411Y-52632D01*
X69293Y-52514D01*
X69139Y-52450D01*
X68971Y-52450D01*
X68817Y-52513D01*
X68699Y-52631D01*
X68635Y-52786D01*
X68635Y-52953D01*
X68698Y-53107D01*
X68806Y-53215D01*
X68641Y-53215D01*
X68446Y-53021D01*
X68475Y-52953D01*
X68475Y-52786D01*
X68475Y-51786D01*
X68411Y-51632D01*
X68293Y-51514D01*
X68139Y-51450D01*
X67971Y-51450D01*
X67817Y-51513D01*
X67699Y-51631D01*
X67635Y-51786D01*
X67635Y-51953D01*
X67698Y-52107D01*
X67816Y-52225D01*
X67971Y-52290D01*
X68138Y-52290D01*
X68292Y-52226D01*
X68410Y-52108D01*
X68475Y-51953D01*
X68475Y-51786D01*
X68475Y-52786D01*
X68411Y-52632D01*
X68293Y-52514D01*
X68139Y-52450D01*
X67971Y-52450D01*
X67817Y-52513D01*
X67699Y-52631D01*
X67635Y-52786D01*
X67635Y-52953D01*
X67698Y-53107D01*
X67816Y-53225D01*
X67971Y-53290D01*
X68138Y-53290D01*
X68206Y-53261D01*
X68450Y-53506D01*
X68505Y-53542D01*
X68505Y-53542D01*
X68516Y-53545D01*
X68570Y-53555D01*
X68570Y-53555D01*
X68570Y-53555D01*
X80314Y-53555D01*
X80380Y-53542D01*
X80380Y-53542D01*
X80435Y-53506D01*
X80851Y-53089D01*
X80916Y-53089D01*
X81010Y-53050D01*
X81082Y-52979D01*
X81121Y-52885D01*
X81121Y-52784D01*
X81121Y-53730D01*
X67475Y-53730D01*
X67475Y-52786D01*
X67475Y-51786D01*
X67411Y-51632D01*
X67293Y-51514D01*
X67139Y-51450D01*
X66971Y-51450D01*
X66817Y-51513D01*
X66699Y-51631D01*
X66635Y-51786D01*
X66635Y-51953D01*
X66698Y-52107D01*
X66816Y-52225D01*
X66971Y-52290D01*
X67138Y-52290D01*
X67292Y-52226D01*
X67410Y-52108D01*
X67475Y-51953D01*
X67475Y-51786D01*
X67475Y-52786D01*
X67411Y-52632D01*
X67293Y-52514D01*
X67139Y-52450D01*
X66971Y-52450D01*
X66817Y-52513D01*
X66699Y-52631D01*
X66635Y-52786D01*
X66635Y-52953D01*
X66698Y-53107D01*
X66816Y-53225D01*
X66971Y-53290D01*
X67138Y-53290D01*
X67292Y-53226D01*
X67410Y-53108D01*
X67475Y-52953D01*
X67475Y-52786D01*
X67475Y-53730D01*
X65238Y-53730D01*
X65238Y-50023D01*
X65166Y-49849D01*
X65058Y-49740D01*
X65058Y-37823D01*
X65019Y-37729D01*
X64973Y-37683D01*
X64973Y-36962D01*
X65019Y-36916D01*
X65058Y-36822D01*
X65058Y-36721D01*
X65019Y-36627D01*
X64947Y-36555D01*
X64854Y-36516D01*
X64752Y-36516D01*
X64658Y-36555D01*
X64587Y-36627D01*
X64548Y-36720D01*
X64548Y-36822D01*
X64586Y-36915D01*
X64633Y-36962D01*
X64633Y-37683D01*
X64587Y-37729D01*
X64548Y-37823D01*
X64548Y-37924D01*
X64586Y-38018D01*
X64658Y-38090D01*
X64752Y-38128D01*
X64853Y-38129D01*
X64947Y-38090D01*
X65019Y-38018D01*
X65058Y-37924D01*
X65058Y-37823D01*
X65058Y-49740D01*
X65033Y-49715D01*
X64859Y-49643D01*
X64670Y-49643D01*
X64495Y-49715D01*
X64362Y-49848D01*
X64289Y-50022D01*
X64289Y-50211D01*
X64361Y-50386D01*
X64495Y-50519D01*
X64669Y-50592D01*
X64858Y-50592D01*
X65032Y-50520D01*
X65166Y-50386D01*
X65238Y-50212D01*
X65238Y-50023D01*
X65238Y-53730D01*
X65120Y-53730D01*
X65120Y-53000D01*
X65120Y-52016D01*
X65066Y-51885D01*
X64966Y-51784D01*
X64835Y-51730D01*
X64693Y-51730D01*
X64562Y-51784D01*
X64462Y-51884D01*
X64408Y-52015D01*
X64408Y-52157D01*
X64462Y-52288D01*
X64562Y-52388D01*
X64693Y-52442D01*
X64834Y-52442D01*
X64965Y-52388D01*
X65065Y-52288D01*
X65120Y-52157D01*
X65120Y-52016D01*
X65120Y-53000D01*
X65066Y-52869D01*
X64966Y-52768D01*
X64835Y-52714D01*
X64693Y-52714D01*
X64562Y-52768D01*
X64462Y-52868D01*
X64408Y-52999D01*
X64408Y-53141D01*
X64462Y-53272D01*
X64562Y-53372D01*
X64693Y-53426D01*
X64834Y-53426D01*
X64965Y-53372D01*
X65065Y-53272D01*
X65120Y-53141D01*
X65120Y-53000D01*
X65120Y-53730D01*
X64253Y-53730D01*
X64253Y-50023D01*
X64181Y-49849D01*
X64048Y-49715D01*
X63874Y-49643D01*
X63685Y-49643D01*
X63510Y-49715D01*
X63377Y-49848D01*
X63304Y-50022D01*
X63304Y-50211D01*
X63376Y-50386D01*
X63510Y-50519D01*
X63684Y-50592D01*
X63873Y-50592D01*
X64047Y-50520D01*
X64181Y-50386D01*
X64253Y-50212D01*
X64253Y-50023D01*
X64253Y-53730D01*
X63761Y-53730D01*
X63761Y-53346D01*
X63751Y-53293D01*
X63720Y-53247D01*
X63675Y-53217D01*
X63622Y-53206D01*
X63276Y-53206D01*
X63276Y-52140D01*
X63260Y-51952D01*
X63218Y-51852D01*
X63155Y-51810D01*
X63151Y-51815D01*
X63151Y-50047D01*
X63097Y-49916D01*
X62997Y-49815D01*
X62866Y-49761D01*
X62724Y-49761D01*
X62593Y-49815D01*
X62493Y-49915D01*
X62439Y-50046D01*
X62439Y-50188D01*
X62493Y-50319D01*
X62593Y-50419D01*
X62724Y-50473D01*
X62865Y-50473D01*
X62996Y-50419D01*
X63096Y-50319D01*
X63151Y-50188D01*
X63151Y-50047D01*
X63151Y-51815D01*
X63070Y-51895D01*
X63070Y-51726D01*
X63028Y-51662D01*
X62849Y-51605D01*
X62660Y-51621D01*
X62561Y-51662D01*
X62519Y-51726D01*
X62795Y-52001D01*
X63070Y-51726D01*
X63070Y-51895D01*
X62880Y-52086D01*
X63155Y-52362D01*
X63218Y-52320D01*
X63276Y-52140D01*
X63276Y-53206D01*
X63070Y-53206D01*
X63070Y-52447D01*
X62795Y-52171D01*
X62710Y-52256D01*
X62710Y-52086D01*
X62434Y-51810D01*
X62371Y-51852D01*
X62314Y-52032D01*
X62330Y-52220D01*
X62371Y-52320D01*
X62434Y-52362D01*
X62710Y-52086D01*
X62710Y-52256D01*
X62519Y-52447D01*
X62561Y-52510D01*
X62741Y-52567D01*
X62929Y-52551D01*
X63028Y-52510D01*
X63070Y-52447D01*
X63070Y-53206D01*
X62285Y-53206D01*
X62285Y-50023D01*
X62213Y-49849D01*
X62080Y-49715D01*
X61906Y-49643D01*
X61717Y-49643D01*
X61672Y-49661D01*
X61672Y-46169D01*
X61633Y-46076D01*
X61561Y-46004D01*
X61468Y-45965D01*
X61366Y-45965D01*
X61273Y-46004D01*
X61226Y-46050D01*
X59166Y-46050D01*
X59121Y-46004D01*
X59027Y-45965D01*
X58925Y-45965D01*
X58832Y-46004D01*
X58760Y-46075D01*
X58721Y-46169D01*
X58721Y-46270D01*
X58760Y-46364D01*
X58831Y-46436D01*
X58925Y-46475D01*
X59026Y-46475D01*
X59120Y-46436D01*
X59167Y-46390D01*
X61226Y-46390D01*
X61272Y-46436D01*
X61366Y-46475D01*
X61467Y-46475D01*
X61561Y-46436D01*
X61633Y-46365D01*
X61672Y-46271D01*
X61672Y-46169D01*
X61672Y-49661D01*
X61542Y-49715D01*
X61409Y-49848D01*
X61336Y-50022D01*
X61336Y-50211D01*
X61408Y-50386D01*
X61542Y-50519D01*
X61716Y-50592D01*
X61905Y-50592D01*
X62079Y-50520D01*
X62213Y-50386D01*
X62285Y-50212D01*
X62285Y-50023D01*
X62285Y-53206D01*
X61968Y-53206D01*
X61915Y-53217D01*
X61869Y-53247D01*
X61839Y-53293D01*
X61828Y-53346D01*
X61828Y-53730D01*
X61300Y-53730D01*
X61300Y-50023D01*
X61228Y-49849D01*
X61095Y-49715D01*
X60921Y-49643D01*
X60732Y-49643D01*
X60557Y-49715D01*
X60424Y-49848D01*
X60351Y-50022D01*
X60351Y-50211D01*
X60423Y-50386D01*
X60557Y-50519D01*
X60731Y-50592D01*
X60920Y-50592D01*
X61094Y-50520D01*
X61228Y-50386D01*
X61300Y-50212D01*
X61300Y-50023D01*
X61300Y-53730D01*
X61182Y-53730D01*
X61182Y-53000D01*
X61182Y-52016D01*
X61128Y-51885D01*
X61028Y-51784D01*
X60897Y-51730D01*
X60755Y-51730D01*
X60624Y-51784D01*
X60524Y-51884D01*
X60470Y-52015D01*
X60470Y-52157D01*
X60524Y-52288D01*
X60624Y-52388D01*
X60755Y-52442D01*
X60896Y-52442D01*
X61027Y-52388D01*
X61127Y-52288D01*
X61182Y-52157D01*
X61182Y-52016D01*
X61182Y-53000D01*
X61128Y-52869D01*
X61028Y-52768D01*
X60897Y-52714D01*
X60755Y-52714D01*
X60624Y-52768D01*
X60524Y-52868D01*
X60470Y-52999D01*
X60470Y-53141D01*
X60524Y-53272D01*
X60624Y-53372D01*
X60755Y-53426D01*
X60896Y-53426D01*
X61027Y-53372D01*
X61127Y-53272D01*
X61182Y-53141D01*
X61182Y-53000D01*
X61182Y-53730D01*
X60120Y-53730D01*
X60120Y-50023D01*
X60048Y-49849D01*
X59915Y-49715D01*
X59740Y-49643D01*
X59552Y-49643D01*
X59377Y-49715D01*
X59244Y-49848D01*
X59171Y-50022D01*
X59171Y-50211D01*
X59243Y-50386D01*
X59377Y-50519D01*
X59551Y-50592D01*
X59740Y-50592D01*
X59914Y-50520D01*
X60048Y-50386D01*
X60120Y-50212D01*
X60120Y-50023D01*
X60120Y-53730D01*
X60002Y-53730D01*
X60002Y-53000D01*
X60002Y-52016D01*
X59948Y-51885D01*
X59848Y-51784D01*
X59717Y-51730D01*
X59575Y-51730D01*
X59444Y-51784D01*
X59344Y-51884D01*
X59290Y-52015D01*
X59290Y-52157D01*
X59344Y-52288D01*
X59444Y-52388D01*
X59575Y-52442D01*
X59716Y-52442D01*
X59847Y-52388D01*
X59947Y-52288D01*
X60002Y-52157D01*
X60002Y-52016D01*
X60002Y-53000D01*
X59948Y-52869D01*
X59848Y-52768D01*
X59717Y-52714D01*
X59575Y-52714D01*
X59444Y-52768D01*
X59344Y-52868D01*
X59290Y-52999D01*
X59290Y-53141D01*
X59344Y-53272D01*
X59444Y-53372D01*
X59575Y-53426D01*
X59716Y-53426D01*
X59847Y-53372D01*
X59947Y-53272D01*
X60002Y-53141D01*
X60002Y-53000D01*
X60002Y-53730D01*
X59135Y-53730D01*
X59135Y-50023D01*
X59063Y-49849D01*
X58930Y-49715D01*
X58755Y-49643D01*
X58567Y-49643D01*
X58392Y-49715D01*
X58259Y-49848D01*
X58186Y-50022D01*
X58186Y-50211D01*
X58258Y-50386D01*
X58392Y-50519D01*
X58566Y-50592D01*
X58755Y-50592D01*
X58929Y-50520D01*
X59063Y-50386D01*
X59135Y-50212D01*
X59135Y-50023D01*
X59135Y-53730D01*
X58643Y-53730D01*
X58643Y-53346D01*
X58632Y-53293D01*
X58602Y-53247D01*
X58557Y-53217D01*
X58503Y-53206D01*
X58157Y-53206D01*
X58157Y-52140D01*
X58141Y-51952D01*
X58100Y-51852D01*
X58037Y-51810D01*
X58033Y-51815D01*
X58033Y-50047D01*
X57979Y-49916D01*
X57879Y-49815D01*
X57748Y-49761D01*
X57606Y-49761D01*
X57475Y-49815D01*
X57375Y-49915D01*
X57321Y-50046D01*
X57321Y-50188D01*
X57375Y-50319D01*
X57475Y-50419D01*
X57606Y-50473D01*
X57747Y-50473D01*
X57878Y-50419D01*
X57978Y-50319D01*
X58033Y-50188D01*
X58033Y-50047D01*
X58033Y-51815D01*
X57952Y-51895D01*
X57952Y-51726D01*
X57910Y-51662D01*
X57730Y-51605D01*
X57542Y-51621D01*
X57443Y-51662D01*
X57401Y-51726D01*
X57677Y-52001D01*
X57952Y-51726D01*
X57952Y-51895D01*
X57762Y-52086D01*
X58037Y-52362D01*
X58100Y-52320D01*
X58157Y-52140D01*
X58157Y-53206D01*
X57952Y-53206D01*
X57952Y-52447D01*
X57677Y-52171D01*
X57592Y-52256D01*
X57592Y-52086D01*
X57316Y-51810D01*
X57253Y-51852D01*
X57196Y-52032D01*
X57212Y-52220D01*
X57253Y-52320D01*
X57316Y-52362D01*
X57592Y-52086D01*
X57592Y-52256D01*
X57401Y-52447D01*
X57443Y-52510D01*
X57623Y-52567D01*
X57811Y-52551D01*
X57910Y-52510D01*
X57952Y-52447D01*
X57952Y-53206D01*
X57167Y-53206D01*
X57167Y-50023D01*
X57163Y-50013D01*
X57163Y-49004D01*
X57163Y-25870D01*
X57115Y-25753D01*
X57026Y-25664D01*
X56909Y-25616D01*
X56783Y-25616D01*
X56667Y-25664D01*
X56578Y-25753D01*
X56529Y-25869D01*
X56529Y-25995D01*
X56577Y-26112D01*
X56666Y-26201D01*
X56783Y-26249D01*
X56909Y-26249D01*
X57025Y-26201D01*
X57114Y-26112D01*
X57163Y-25996D01*
X57163Y-25870D01*
X57163Y-49004D01*
X57115Y-48887D01*
X57105Y-48877D01*
X57105Y-41681D01*
X57066Y-41588D01*
X56995Y-41516D01*
X56901Y-41477D01*
X56799Y-41477D01*
X56706Y-41515D01*
X56634Y-41587D01*
X56595Y-41681D01*
X56595Y-41746D01*
X56235Y-42107D01*
X56169Y-42107D01*
X56076Y-42145D01*
X56004Y-42217D01*
X55986Y-42261D01*
X55986Y-40882D01*
X55938Y-40765D01*
X55849Y-40676D01*
X55732Y-40627D01*
X55606Y-40627D01*
X55489Y-40675D01*
X55400Y-40765D01*
X55352Y-40881D01*
X55352Y-41007D01*
X55356Y-41017D01*
X55234Y-41139D01*
X55216Y-41165D01*
X55216Y-41165D01*
X55198Y-41139D01*
X55076Y-41017D01*
X55080Y-41008D01*
X55080Y-40882D01*
X55032Y-40765D01*
X54943Y-40676D01*
X54827Y-40627D01*
X54701Y-40627D01*
X54584Y-40675D01*
X54495Y-40765D01*
X54446Y-40881D01*
X54446Y-41007D01*
X54494Y-41124D01*
X54583Y-41213D01*
X54700Y-41261D01*
X54826Y-41261D01*
X54836Y-41257D01*
X54908Y-41330D01*
X54908Y-41384D01*
X54862Y-41430D01*
X54823Y-41523D01*
X54823Y-41625D01*
X54862Y-41719D01*
X54934Y-41790D01*
X55027Y-41829D01*
X55099Y-41829D01*
X55099Y-41861D01*
X55138Y-41955D01*
X55209Y-42027D01*
X55303Y-42065D01*
X55404Y-42066D01*
X55498Y-42027D01*
X55570Y-41955D01*
X55609Y-41861D01*
X55609Y-41760D01*
X55570Y-41666D01*
X55524Y-41620D01*
X55524Y-41330D01*
X55596Y-41257D01*
X55605Y-41261D01*
X55732Y-41261D01*
X55848Y-41213D01*
X55937Y-41124D01*
X55986Y-41008D01*
X55986Y-40882D01*
X55986Y-42261D01*
X55965Y-42311D01*
X55965Y-42412D01*
X56004Y-42506D01*
X56075Y-42578D01*
X56169Y-42617D01*
X56270Y-42617D01*
X56364Y-42578D01*
X56436Y-42506D01*
X56475Y-42413D01*
X56475Y-42347D01*
X56835Y-41987D01*
X56900Y-41987D01*
X56994Y-41948D01*
X57066Y-41876D01*
X57105Y-41783D01*
X57105Y-41681D01*
X57105Y-48877D01*
X57026Y-48798D01*
X56909Y-48750D01*
X56783Y-48750D01*
X56773Y-48754D01*
X56773Y-43638D01*
X56725Y-43521D01*
X56636Y-43432D01*
X56520Y-43383D01*
X56393Y-43383D01*
X56277Y-43431D01*
X56188Y-43520D01*
X56139Y-43637D01*
X56139Y-43763D01*
X56148Y-43784D01*
X56142Y-43793D01*
X56129Y-43858D01*
X56129Y-44090D01*
X56104Y-44053D01*
X55824Y-43773D01*
X55828Y-43764D01*
X55828Y-43638D01*
X55780Y-43521D01*
X55691Y-43432D01*
X55575Y-43383D01*
X55449Y-43383D01*
X55332Y-43431D01*
X55243Y-43520D01*
X55194Y-43637D01*
X55194Y-43763D01*
X55242Y-43880D01*
X55332Y-43969D01*
X55448Y-44017D01*
X55574Y-44017D01*
X55584Y-44013D01*
X55814Y-44243D01*
X55814Y-44455D01*
X55768Y-44501D01*
X55729Y-44594D01*
X55729Y-44696D01*
X55767Y-44789D01*
X55839Y-44861D01*
X55933Y-44900D01*
X56034Y-44900D01*
X56128Y-44861D01*
X56200Y-44790D01*
X56239Y-44696D01*
X56239Y-44660D01*
X56248Y-44664D01*
X56349Y-44664D01*
X56443Y-44625D01*
X56515Y-44554D01*
X56554Y-44460D01*
X56554Y-44358D01*
X56515Y-44265D01*
X56469Y-44218D01*
X56469Y-44017D01*
X56519Y-44017D01*
X56636Y-43969D01*
X56725Y-43880D01*
X56773Y-43764D01*
X56773Y-43638D01*
X56773Y-48754D01*
X56667Y-48798D01*
X56578Y-48887D01*
X56529Y-49003D01*
X56529Y-49129D01*
X56577Y-49246D01*
X56666Y-49335D01*
X56783Y-49383D01*
X56909Y-49383D01*
X57025Y-49335D01*
X57114Y-49246D01*
X57163Y-49130D01*
X57163Y-49004D01*
X57163Y-50013D01*
X57095Y-49849D01*
X56962Y-49715D01*
X56787Y-49643D01*
X56599Y-49643D01*
X56424Y-49715D01*
X56291Y-49848D01*
X56218Y-50022D01*
X56218Y-50211D01*
X56290Y-50386D01*
X56424Y-50519D01*
X56598Y-50592D01*
X56787Y-50592D01*
X56961Y-50520D01*
X57095Y-50386D01*
X57167Y-50212D01*
X57167Y-50023D01*
X57167Y-53206D01*
X56850Y-53206D01*
X56796Y-53217D01*
X56751Y-53247D01*
X56721Y-53293D01*
X56710Y-53346D01*
X56710Y-53730D01*
X56182Y-53730D01*
X56182Y-50023D01*
X56110Y-49849D01*
X55977Y-49715D01*
X55802Y-49643D01*
X55614Y-49643D01*
X55439Y-49715D01*
X55306Y-49848D01*
X55233Y-50022D01*
X55233Y-50211D01*
X55305Y-50386D01*
X55439Y-50519D01*
X55613Y-50592D01*
X55802Y-50592D01*
X55976Y-50520D01*
X56110Y-50386D01*
X56182Y-50212D01*
X56182Y-50023D01*
X56182Y-53730D01*
X56064Y-53730D01*
X56064Y-53000D01*
X56064Y-52016D01*
X56010Y-51885D01*
X55910Y-51784D01*
X55779Y-51730D01*
X55637Y-51730D01*
X55506Y-51784D01*
X55406Y-51884D01*
X55352Y-52015D01*
X55352Y-52157D01*
X55406Y-52288D01*
X55506Y-52388D01*
X55637Y-52442D01*
X55778Y-52442D01*
X55909Y-52388D01*
X56009Y-52288D01*
X56064Y-52157D01*
X56064Y-52016D01*
X56064Y-53000D01*
X56010Y-52869D01*
X55910Y-52768D01*
X55779Y-52714D01*
X55637Y-52714D01*
X55506Y-52768D01*
X55406Y-52868D01*
X55352Y-52999D01*
X55352Y-53141D01*
X55406Y-53272D01*
X55506Y-53372D01*
X55637Y-53426D01*
X55778Y-53426D01*
X55909Y-53372D01*
X56009Y-53272D01*
X56064Y-53141D01*
X56064Y-53000D01*
X56064Y-53730D01*
X53481Y-53730D01*
X53481Y-51910D01*
X53475Y-51849D01*
X53475Y-50786D01*
X53475Y-49786D01*
X53475Y-48786D01*
X53475Y-48786D01*
X53475Y-48193D01*
X53475Y-48146D01*
X53475Y-47546D01*
X53456Y-47502D01*
X53423Y-47468D01*
X53378Y-47450D01*
X53331Y-47450D01*
X52731Y-47450D01*
X52687Y-47468D01*
X52653Y-47502D01*
X52635Y-47546D01*
X52635Y-47593D01*
X52635Y-48193D01*
X52653Y-48238D01*
X52687Y-48271D01*
X52731Y-48290D01*
X52778Y-48290D01*
X53378Y-48290D01*
X53423Y-48271D01*
X53456Y-48238D01*
X53475Y-48193D01*
X53475Y-48786D01*
X53411Y-48632D01*
X53293Y-48514D01*
X53139Y-48450D01*
X52971Y-48450D01*
X52817Y-48513D01*
X52699Y-48631D01*
X52635Y-48786D01*
X52635Y-48953D01*
X52698Y-49107D01*
X52816Y-49225D01*
X52971Y-49290D01*
X53138Y-49290D01*
X53292Y-49226D01*
X53410Y-49108D01*
X53475Y-48953D01*
X53475Y-48786D01*
X53475Y-49786D01*
X53411Y-49632D01*
X53293Y-49514D01*
X53139Y-49450D01*
X52971Y-49450D01*
X52817Y-49513D01*
X52699Y-49631D01*
X52635Y-49786D01*
X52635Y-49953D01*
X52698Y-50107D01*
X52816Y-50225D01*
X52971Y-50290D01*
X53138Y-50290D01*
X53292Y-50226D01*
X53410Y-50108D01*
X53475Y-49953D01*
X53475Y-49786D01*
X53475Y-50786D01*
X53411Y-50632D01*
X53293Y-50514D01*
X53139Y-50450D01*
X52971Y-50450D01*
X52817Y-50513D01*
X52699Y-50631D01*
X52635Y-50786D01*
X52635Y-50953D01*
X52698Y-51107D01*
X52816Y-51225D01*
X52971Y-51290D01*
X53138Y-51290D01*
X53292Y-51226D01*
X53410Y-51108D01*
X53475Y-50953D01*
X53475Y-50786D01*
X53475Y-51849D01*
X53464Y-51744D01*
X53433Y-51669D01*
X53375Y-51634D01*
X53291Y-51718D01*
X53291Y-51549D01*
X53255Y-51491D01*
X53095Y-51443D01*
X52929Y-51460D01*
X52854Y-51491D01*
X52819Y-51549D01*
X53055Y-51785D01*
X53291Y-51549D01*
X53291Y-51718D01*
X53139Y-51870D01*
X53375Y-52106D01*
X53433Y-52070D01*
X53481Y-51910D01*
X53481Y-53730D01*
X53475Y-53730D01*
X53475Y-52786D01*
X53411Y-52632D01*
X53293Y-52514D01*
X53291Y-52513D01*
X53291Y-52190D01*
X53055Y-51954D01*
X52970Y-52039D01*
X52970Y-51870D01*
X52734Y-51634D01*
X52676Y-51669D01*
X52628Y-51829D01*
X52645Y-51995D01*
X52676Y-52070D01*
X52734Y-52106D01*
X52970Y-51870D01*
X52970Y-52039D01*
X52819Y-52190D01*
X52854Y-52248D01*
X53014Y-52296D01*
X53180Y-52279D01*
X53255Y-52248D01*
X53291Y-52190D01*
X53291Y-52513D01*
X53139Y-52450D01*
X52971Y-52450D01*
X52817Y-52513D01*
X52699Y-52631D01*
X52635Y-52786D01*
X52635Y-52953D01*
X52698Y-53107D01*
X52816Y-53225D01*
X52971Y-53290D01*
X53138Y-53290D01*
X53292Y-53226D01*
X53410Y-53108D01*
X53475Y-52953D01*
X53475Y-52786D01*
X53475Y-53730D01*
X52769Y-53730D01*
X52207Y-53618D01*
X51743Y-53308D01*
X51432Y-52843D01*
X51320Y-52281D01*
X51320Y-26458D01*
X51432Y-25896D01*
X51743Y-25432D01*
X52207Y-25121D01*
X52769Y-25009D01*
X57230Y-25009D01*
X57490Y-25061D01*
X57700Y-25201D01*
X57839Y-25410D01*
X57891Y-25671D01*
X57891Y-26811D01*
X57902Y-26864D01*
X57932Y-26909D01*
X57978Y-26940D01*
X58031Y-26950D01*
X72283Y-26950D01*
X72336Y-26940D01*
X72382Y-26909D01*
X72412Y-26864D01*
X72423Y-26811D01*
X72423Y-25671D01*
X72474Y-25410D01*
X72614Y-25201D01*
X72824Y-25061D01*
X73084Y-25009D01*
X86466Y-25009D01*
X87028Y-25121D01*
X87493Y-25432D01*
X87803Y-25896D01*
X87915Y-26458D01*
X87915Y-52281D01*
M02*
