G04 (created by PCBNEW (2013-mar-13)-testing) date Wed 03 Jul 2013 03:21:25 PM PDT*
%MOIN*%
G04 Gerber Fmt 3.4, Leading zero omitted, Abs format*
%FSLAX34Y34*%
G01*
G70*
G90*
G04 APERTURE LIST*
%ADD10C,0.008000*%
%ADD11C,0.003937*%
G04 APERTURE END LIST*
G54D10*
G54D11*
X58031Y-25657D02*
G75*
G03X57244Y-24870I-787J0D01*
G74*
G01*
X73070Y-24870D02*
G75*
G03X72283Y-25657I0J-787D01*
G74*
G01*
X52755Y-24870D02*
G75*
G03X51181Y-26444I0J-1574D01*
G74*
G01*
X51181Y-52295D02*
G75*
G03X52755Y-53870I1574J0D01*
G74*
G01*
X52755Y-53870D02*
X56850Y-53870D01*
X58503Y-53870D02*
X61968Y-53870D01*
X63622Y-53870D02*
X86480Y-53870D01*
X63622Y-53346D02*
X63622Y-53870D01*
X61968Y-53346D02*
X63622Y-53346D01*
X61968Y-53870D02*
X61968Y-53346D01*
X58503Y-53346D02*
X58503Y-53870D01*
X56850Y-53346D02*
X58503Y-53346D01*
X56850Y-53870D02*
X56850Y-53346D01*
X57244Y-24870D02*
X52755Y-24870D01*
X73070Y-24870D02*
X86480Y-24870D01*
X72283Y-26811D02*
X72283Y-25657D01*
X58031Y-26811D02*
X72283Y-26811D01*
X58031Y-26811D02*
X58031Y-25657D01*
X51181Y-26444D02*
X51181Y-52295D01*
X88055Y-52295D02*
X88055Y-26444D01*
X86480Y-53869D02*
G75*
G03X88055Y-52295I0J1574D01*
G74*
G01*
X88055Y-26444D02*
G75*
G03X86480Y-24870I-1574J0D01*
G74*
G01*
M02*
