G04 (created by PCBNEW (2013-mar-13)-testing) date Wed 03 Jul 2013 03:21:25 PM PDT*
%MOIN*%
G04 Gerber Fmt 3.4, Leading zero omitted, Abs format*
%FSLAX34Y34*%
G01*
G70*
G90*
G04 APERTURE LIST*
%ADD10C,0.008000*%
%ADD11R,0.039400X0.035400*%
%ADD12R,0.035400X0.039400*%
%ADD13R,0.039400X0.037400*%
%ADD14R,0.037400X0.039400*%
%ADD15C,0.070900*%
%ADD16R,0.063000X0.163400*%
%ADD17R,0.063000X0.100400*%
%ADD18R,0.017717X0.059055*%
%ADD19R,0.059055X0.017717*%
%ADD20R,0.017700X0.072800*%
%ADD21R,0.023600X0.043300*%
%ADD22R,0.041339X0.023622*%
%ADD23R,0.060000X0.060000*%
%ADD24C,0.060000*%
%ADD25R,0.011811X0.047244*%
%ADD26R,0.062992X0.031496*%
%ADD27R,0.094488X0.062992*%
%ADD28C,0.027000*%
%ADD29C,0.010000*%
%ADD30C,0.016000*%
G04 APERTURE END LIST*
G54D10*
G54D11*
X81653Y-40944D03*
X81653Y-40314D03*
X80944Y-40944D03*
X80944Y-40314D03*
X80236Y-40944D03*
X80236Y-40314D03*
X77559Y-33936D03*
X77559Y-34566D03*
X76850Y-33936D03*
X76850Y-34566D03*
X74724Y-33936D03*
X74724Y-34566D03*
X79212Y-40314D03*
X79212Y-40944D03*
X78503Y-40314D03*
X78503Y-40944D03*
X76141Y-34566D03*
X76141Y-33936D03*
X75433Y-34566D03*
X75433Y-33936D03*
X72362Y-36614D03*
X72362Y-37244D03*
X72362Y-35275D03*
X72362Y-35905D03*
G54D12*
X83464Y-40000D03*
X84094Y-40000D03*
G54D13*
X67125Y-46535D03*
X67125Y-45905D03*
X77401Y-39133D03*
X77401Y-38503D03*
X66456Y-49685D03*
X66456Y-50315D03*
G54D14*
X80787Y-39448D03*
X81417Y-39448D03*
X54960Y-45196D03*
X54330Y-45196D03*
X58031Y-45196D03*
X57401Y-45196D03*
X54960Y-44566D03*
X54330Y-44566D03*
X54724Y-39527D03*
X54094Y-39527D03*
X56377Y-39527D03*
X55747Y-39527D03*
G54D13*
X59685Y-40944D03*
X59685Y-40314D03*
G54D14*
X58031Y-44566D03*
X57401Y-44566D03*
X54724Y-40157D03*
X54094Y-40157D03*
X56377Y-40157D03*
X55747Y-40157D03*
G54D13*
X59055Y-40944D03*
X59055Y-40314D03*
G54D15*
X60826Y-50117D03*
X64764Y-50117D03*
X62795Y-52086D03*
X63779Y-50117D03*
X61811Y-50117D03*
X55708Y-50117D03*
X59646Y-50117D03*
X57677Y-52086D03*
X58661Y-50117D03*
X56693Y-50117D03*
G54D11*
X53937Y-43070D03*
X53937Y-43700D03*
G54D12*
X61496Y-48661D03*
X60866Y-48661D03*
X64724Y-48661D03*
X64094Y-48661D03*
G54D11*
X56220Y-47086D03*
X56220Y-46456D03*
G54D12*
X55590Y-48661D03*
X56220Y-48661D03*
G54D11*
X55590Y-47322D03*
X55590Y-46692D03*
G54D16*
X60826Y-44429D03*
X60826Y-46909D03*
X64763Y-44429D03*
X64763Y-46909D03*
G54D17*
X57716Y-46870D03*
X57716Y-48248D03*
G54D14*
X56220Y-48031D03*
X55590Y-48031D03*
G54D18*
X67096Y-49803D03*
X67352Y-49803D03*
X67608Y-49803D03*
X67864Y-49803D03*
X68120Y-49803D03*
X68375Y-49803D03*
X68631Y-49803D03*
X68887Y-49803D03*
X69143Y-49803D03*
X69399Y-49803D03*
X69655Y-49803D03*
X69911Y-49803D03*
X69911Y-47519D03*
X69655Y-47519D03*
X69399Y-47519D03*
X69143Y-47519D03*
X68887Y-47519D03*
X68631Y-47519D03*
X68375Y-47519D03*
X68120Y-47519D03*
X67864Y-47519D03*
X67608Y-47519D03*
X67352Y-47519D03*
X67096Y-47519D03*
G54D12*
X70708Y-33385D03*
X71338Y-33385D03*
X70708Y-32755D03*
X71338Y-32755D03*
X70708Y-32125D03*
X71338Y-32125D03*
X71338Y-35905D03*
X70708Y-35905D03*
X71338Y-35275D03*
X70708Y-35275D03*
X71338Y-34645D03*
X70708Y-34645D03*
X71338Y-34015D03*
X70708Y-34015D03*
G54D19*
X80826Y-38887D03*
X80826Y-38631D03*
X80826Y-38375D03*
X80826Y-38120D03*
X80826Y-37864D03*
X80826Y-37608D03*
X80826Y-37352D03*
X80826Y-37096D03*
X80826Y-36840D03*
X80826Y-36584D03*
X80826Y-36328D03*
X80826Y-36072D03*
X78543Y-36072D03*
X78543Y-36328D03*
X78543Y-36584D03*
X78543Y-36840D03*
X78543Y-37096D03*
X78543Y-37352D03*
X78543Y-37608D03*
X78543Y-37864D03*
X78543Y-38120D03*
X78543Y-38375D03*
X78543Y-38631D03*
X78543Y-38887D03*
G54D20*
X58159Y-40944D03*
X57903Y-40944D03*
X57648Y-40944D03*
X57392Y-40944D03*
X57136Y-40944D03*
X56880Y-40944D03*
X56624Y-40944D03*
X56368Y-40944D03*
X56112Y-40944D03*
X55856Y-40944D03*
X55600Y-40944D03*
X55344Y-40944D03*
X55089Y-40944D03*
X54833Y-40944D03*
X54833Y-43700D03*
X55089Y-43700D03*
X55344Y-43700D03*
X55600Y-43700D03*
X55856Y-43700D03*
X56112Y-43700D03*
X56368Y-43700D03*
X56624Y-43700D03*
X56880Y-43700D03*
X57136Y-43700D03*
X57392Y-43700D03*
X57648Y-43700D03*
X57903Y-43700D03*
X58159Y-43700D03*
G54D14*
X75551Y-42204D03*
X76181Y-42204D03*
G54D13*
X75157Y-40275D03*
X75157Y-40905D03*
G54D11*
X77362Y-40905D03*
X77362Y-40275D03*
G54D12*
X76574Y-39448D03*
X75944Y-39448D03*
G54D21*
X75885Y-41357D03*
X76259Y-41357D03*
X76633Y-41357D03*
X76633Y-40295D03*
X75885Y-40295D03*
G54D22*
X71633Y-37303D03*
X71633Y-36555D03*
X70728Y-36929D03*
G54D23*
X84055Y-38870D03*
G54D24*
X83055Y-38870D03*
X84055Y-37870D03*
X83055Y-37870D03*
X84055Y-36870D03*
X83055Y-36870D03*
X84055Y-35870D03*
X83055Y-35870D03*
X84055Y-34870D03*
X83055Y-34870D03*
G54D23*
X82055Y-32370D03*
G54D24*
X82055Y-33370D03*
X81055Y-32370D03*
X81055Y-33370D03*
X80055Y-32370D03*
X80055Y-33370D03*
X79055Y-32370D03*
X79055Y-33370D03*
G54D23*
X84055Y-46870D03*
G54D24*
X83055Y-46870D03*
X84055Y-45870D03*
X83055Y-45870D03*
X84055Y-44870D03*
X83055Y-44870D03*
X84055Y-43870D03*
X83055Y-43870D03*
X84055Y-42870D03*
X83055Y-42870D03*
X84055Y-41870D03*
X83055Y-41870D03*
G54D23*
X84055Y-49870D03*
G54D24*
X84055Y-50870D03*
X83055Y-49870D03*
X83055Y-50870D03*
X82055Y-49870D03*
X82055Y-50870D03*
G54D23*
X75055Y-52870D03*
G54D24*
X76055Y-52870D03*
X77055Y-52870D03*
X78055Y-52870D03*
X79055Y-52870D03*
X80055Y-52870D03*
G54D23*
X72055Y-51870D03*
G54D24*
X72055Y-52870D03*
X71055Y-51870D03*
X71055Y-52870D03*
X70055Y-51870D03*
X70055Y-52870D03*
X69055Y-51870D03*
X69055Y-52870D03*
X68055Y-51870D03*
X68055Y-52870D03*
X67055Y-51870D03*
X67055Y-52870D03*
G54D23*
X53055Y-47870D03*
G54D24*
X53055Y-48870D03*
X53055Y-49870D03*
X53055Y-50870D03*
X53055Y-51870D03*
X53055Y-52870D03*
G54D25*
X61122Y-37330D03*
X61318Y-37330D03*
X61515Y-37330D03*
X61712Y-37330D03*
X61909Y-37330D03*
X62106Y-37330D03*
X62303Y-37330D03*
X62500Y-37330D03*
X62696Y-37330D03*
X62893Y-37330D03*
X63090Y-37330D03*
X63287Y-37330D03*
X63484Y-37330D03*
X63681Y-37330D03*
X63877Y-37330D03*
X64074Y-37330D03*
X64271Y-37330D03*
X64468Y-37330D03*
X64665Y-37330D03*
X64862Y-37330D03*
X65059Y-37330D03*
X65255Y-37330D03*
X65452Y-37330D03*
X65649Y-37330D03*
X65846Y-37330D03*
X66043Y-37330D03*
X66240Y-37330D03*
X66437Y-37330D03*
X66633Y-37330D03*
X66830Y-37330D03*
X67027Y-37330D03*
X67224Y-37330D03*
X67421Y-37330D03*
X67618Y-37330D03*
X67814Y-37330D03*
X68011Y-37330D03*
X68208Y-37330D03*
X68405Y-37330D03*
X68602Y-37330D03*
X68799Y-37330D03*
G54D26*
X60452Y-36582D03*
G54D27*
X60295Y-36110D03*
X69625Y-36110D03*
G54D26*
X69468Y-36582D03*
G54D28*
X84960Y-32519D03*
X84960Y-35275D03*
X77874Y-29251D03*
X77283Y-44015D03*
X84645Y-32677D03*
X76614Y-29724D03*
X76614Y-44015D03*
X76062Y-51259D03*
X56850Y-41732D03*
X56220Y-42362D03*
X74645Y-30000D03*
X74645Y-31811D03*
X80866Y-52834D03*
X64803Y-36771D03*
X64803Y-37874D03*
X58976Y-46220D03*
X61417Y-46220D03*
X81102Y-49370D03*
X81496Y-49448D03*
X67086Y-46929D03*
X70000Y-46850D03*
X84881Y-49881D03*
X84881Y-50314D03*
X84881Y-49448D03*
X76929Y-38503D03*
X67637Y-46929D03*
X69212Y-37559D03*
X68188Y-50551D03*
X71811Y-34015D03*
X71811Y-34645D03*
X71811Y-35275D03*
X71811Y-35905D03*
X62913Y-36771D03*
X59448Y-36299D03*
X68818Y-36220D03*
X61338Y-37874D03*
X67244Y-36614D03*
X65196Y-36771D03*
X77362Y-41338D03*
X76732Y-40826D03*
X76259Y-40826D03*
X75157Y-41338D03*
X60157Y-40314D03*
X58582Y-40314D03*
X56929Y-45196D03*
X56929Y-44566D03*
X58582Y-43700D03*
X65984Y-50314D03*
X81417Y-39055D03*
X82992Y-40000D03*
X54488Y-43700D03*
X53858Y-45196D03*
X53858Y-44566D03*
X53622Y-39527D03*
X54094Y-40629D03*
X55275Y-39527D03*
X55275Y-40157D03*
X67125Y-45354D03*
X70275Y-49803D03*
X70275Y-47519D03*
X75787Y-40826D03*
X76181Y-42637D03*
X81496Y-36141D03*
X77874Y-38503D03*
X77874Y-35905D03*
X55748Y-41811D03*
X55039Y-48661D03*
X55039Y-48031D03*
X63543Y-48661D03*
X62047Y-48661D03*
X77283Y-33267D03*
X78110Y-45433D03*
X56299Y-44409D03*
X75590Y-44015D03*
X77637Y-45433D03*
X74921Y-44015D03*
X74921Y-33267D03*
X77165Y-45433D03*
X75590Y-31811D03*
X55354Y-41811D03*
X75984Y-31811D03*
X76614Y-33267D03*
X55078Y-41574D03*
X55984Y-44645D03*
G54D29*
X80314Y-39370D02*
X80314Y-39685D01*
X80314Y-39685D02*
X80944Y-40314D01*
X80944Y-40314D02*
X81653Y-40314D01*
X80826Y-38375D02*
X80442Y-38375D01*
X80314Y-38503D02*
X80314Y-39370D01*
X80314Y-39370D02*
X80314Y-39370D01*
X80442Y-38375D02*
X80314Y-38503D01*
X80826Y-38375D02*
X81801Y-38375D01*
X84055Y-38870D02*
X83555Y-39370D01*
X82795Y-39370D02*
X81801Y-38375D01*
X83555Y-39370D02*
X82795Y-39370D01*
X65255Y-37330D02*
X65255Y-38484D01*
X75738Y-38120D02*
X78543Y-38120D01*
X74251Y-39606D02*
X75738Y-38120D01*
X66377Y-39606D02*
X74251Y-39606D01*
X65255Y-38484D02*
X66377Y-39606D01*
X80078Y-39842D02*
X80078Y-40157D01*
X80826Y-38120D02*
X80383Y-38120D01*
X80078Y-38425D02*
X80078Y-39370D01*
X80383Y-38120D02*
X80078Y-38425D01*
X80078Y-39370D02*
X80078Y-39842D01*
X80078Y-40157D02*
X80236Y-40314D01*
X80826Y-38120D02*
X81860Y-38120D01*
X83055Y-38870D02*
X82610Y-38870D01*
X82610Y-38870D02*
X81860Y-38120D01*
X65452Y-37330D02*
X65452Y-38366D01*
X75679Y-37864D02*
X78543Y-37864D01*
X74173Y-39370D02*
X75679Y-37864D01*
X66456Y-39370D02*
X74173Y-39370D01*
X65452Y-38366D02*
X66456Y-39370D01*
X84055Y-37870D02*
X84960Y-36964D01*
X84960Y-32519D02*
X84980Y-32500D01*
X84960Y-36964D02*
X84960Y-35275D01*
X84980Y-32500D02*
X81732Y-29251D01*
X81732Y-29251D02*
X77874Y-29251D01*
X79842Y-40472D02*
X79842Y-41456D01*
X80324Y-37864D02*
X79842Y-38346D01*
X79842Y-38346D02*
X79842Y-40472D01*
X80826Y-37864D02*
X80324Y-37864D01*
X79842Y-41456D02*
X77283Y-44015D01*
X80826Y-37864D02*
X81919Y-37864D01*
X84055Y-37870D02*
X83539Y-38385D01*
X82440Y-38385D02*
X81919Y-37864D01*
X83539Y-38385D02*
X82440Y-38385D01*
X65649Y-37330D02*
X65649Y-38248D01*
X75620Y-37608D02*
X78543Y-37608D01*
X74094Y-39133D02*
X75620Y-37608D01*
X66535Y-39133D02*
X74094Y-39133D01*
X65649Y-38248D02*
X66535Y-39133D01*
X84645Y-32677D02*
X84665Y-32657D01*
X84665Y-32657D02*
X81535Y-29527D01*
X81535Y-29527D02*
X76811Y-29527D01*
X76811Y-29527D02*
X76614Y-29724D01*
X79606Y-40472D02*
X79606Y-41259D01*
X80265Y-37608D02*
X79606Y-38267D01*
X79606Y-38267D02*
X79606Y-40472D01*
X80826Y-37608D02*
X80265Y-37608D01*
X76850Y-44015D02*
X76614Y-44015D01*
X79606Y-41259D02*
X76850Y-44015D01*
X80826Y-37608D02*
X82017Y-37608D01*
X82279Y-37870D02*
X83055Y-37870D01*
X82017Y-37608D02*
X82279Y-37870D01*
X65846Y-37330D02*
X65846Y-38129D01*
X75561Y-37352D02*
X78543Y-37352D01*
X74015Y-38897D02*
X75561Y-37352D01*
X66614Y-38897D02*
X74015Y-38897D01*
X65846Y-38129D02*
X66614Y-38897D01*
X79212Y-40314D02*
X78503Y-40314D01*
X79370Y-39842D02*
X79370Y-40157D01*
X80206Y-37352D02*
X79370Y-38188D01*
X79370Y-38188D02*
X79370Y-39370D01*
X80826Y-37352D02*
X80206Y-37352D01*
X79370Y-39842D02*
X79370Y-39370D01*
X79370Y-40157D02*
X79212Y-40314D01*
X81338Y-37362D02*
X80836Y-37362D01*
X83562Y-37362D02*
X81338Y-37362D01*
X84055Y-36870D02*
X83562Y-37362D01*
X80836Y-37362D02*
X80826Y-37352D01*
X66043Y-37330D02*
X66043Y-38011D01*
X75501Y-37096D02*
X78543Y-37096D01*
X73937Y-38661D02*
X75501Y-37096D01*
X66692Y-38661D02*
X73937Y-38661D01*
X66043Y-38011D02*
X66692Y-38661D01*
X74724Y-34566D02*
X74724Y-34960D01*
X80324Y-37096D02*
X79842Y-36614D01*
X79842Y-36614D02*
X79842Y-35590D01*
X80324Y-37096D02*
X80826Y-37096D01*
X79370Y-35118D02*
X79842Y-35590D01*
X74881Y-35118D02*
X79370Y-35118D01*
X74724Y-34960D02*
X74881Y-35118D01*
X80826Y-37096D02*
X82234Y-37096D01*
X83055Y-36870D02*
X82460Y-36870D01*
X82460Y-36870D02*
X82234Y-37096D01*
X66240Y-37330D02*
X66240Y-37893D01*
X75442Y-36840D02*
X78543Y-36840D01*
X73858Y-38425D02*
X75442Y-36840D01*
X66771Y-38425D02*
X73858Y-38425D01*
X66240Y-37893D02*
X66771Y-38425D01*
X76141Y-34566D02*
X76141Y-34566D01*
X79685Y-35039D02*
X80078Y-35433D01*
X80078Y-35433D02*
X80078Y-35590D01*
X80383Y-36840D02*
X80826Y-36840D01*
X80078Y-36535D02*
X80078Y-35590D01*
X80383Y-36840D02*
X80078Y-36535D01*
X79527Y-34881D02*
X79685Y-35039D01*
X76456Y-34881D02*
X79527Y-34881D01*
X76141Y-34566D02*
X76456Y-34881D01*
X75433Y-34566D02*
X76141Y-34566D01*
X80826Y-36840D02*
X81938Y-36840D01*
X83547Y-36377D02*
X82401Y-36377D01*
X82401Y-36377D02*
X81938Y-36840D01*
X84055Y-35870D02*
X83547Y-36377D01*
X66437Y-37330D02*
X66437Y-37775D01*
X75383Y-36584D02*
X78543Y-36584D01*
X73779Y-38188D02*
X75383Y-36584D01*
X66850Y-38188D02*
X73779Y-38188D01*
X66437Y-37775D02*
X66850Y-38188D01*
X77559Y-34566D02*
X76850Y-34566D01*
X77559Y-34566D02*
X79606Y-34566D01*
X80442Y-36584D02*
X80314Y-36456D01*
X80314Y-36456D02*
X80314Y-35590D01*
X80442Y-36584D02*
X80826Y-36584D01*
X80314Y-35275D02*
X80314Y-35590D01*
X79606Y-34566D02*
X80314Y-35275D01*
X80826Y-36584D02*
X81879Y-36584D01*
X83055Y-35870D02*
X82594Y-35870D01*
X82594Y-35870D02*
X81879Y-36584D01*
X66633Y-37330D02*
X66633Y-37657D01*
X75324Y-36328D02*
X78543Y-36328D01*
X73700Y-37952D02*
X75324Y-36328D01*
X66929Y-37952D02*
X73700Y-37952D01*
X66633Y-37657D02*
X66929Y-37952D01*
X84330Y-51653D02*
X85196Y-50787D01*
X81968Y-51653D02*
X81574Y-51259D01*
X81574Y-51259D02*
X76062Y-51259D01*
X84488Y-39606D02*
X84094Y-39606D01*
X84488Y-39606D02*
X85196Y-40314D01*
X85196Y-40314D02*
X85196Y-50787D01*
X84330Y-51653D02*
X81968Y-51653D01*
X84094Y-40000D02*
X84094Y-39606D01*
X81702Y-38631D02*
X82677Y-39606D01*
X82677Y-39606D02*
X84094Y-39606D01*
X80826Y-38631D02*
X81702Y-38631D01*
X53055Y-43228D02*
X53921Y-42362D01*
X56880Y-40944D02*
X56880Y-41702D01*
X56880Y-41702D02*
X56850Y-41732D01*
X56220Y-42362D02*
X53921Y-42362D01*
X53055Y-47870D02*
X53055Y-43228D01*
X66614Y-49291D02*
X71968Y-49291D01*
X81574Y-49870D02*
X81523Y-49921D01*
X57392Y-43237D02*
X57480Y-43149D01*
X57480Y-43149D02*
X58503Y-43149D01*
X58503Y-43149D02*
X59291Y-43937D01*
X59291Y-43937D02*
X59291Y-45354D01*
X59291Y-45354D02*
X59842Y-45905D01*
X59842Y-45905D02*
X65275Y-45905D01*
X65275Y-45905D02*
X65433Y-46062D01*
X65433Y-46062D02*
X65433Y-48110D01*
X65433Y-48110D02*
X66614Y-49291D01*
X57392Y-43700D02*
X57392Y-43237D01*
X72598Y-49921D02*
X81523Y-49921D01*
X71968Y-49291D02*
X72598Y-49921D01*
X81574Y-49870D02*
X82055Y-49870D01*
X57648Y-40944D02*
X57648Y-41427D01*
X83602Y-51417D02*
X83055Y-50870D01*
X84251Y-51417D02*
X83602Y-51417D01*
X84566Y-51102D02*
X84251Y-51417D01*
X84566Y-49370D02*
X84566Y-51102D01*
X83779Y-48582D02*
X84566Y-49370D01*
X73937Y-48582D02*
X83779Y-48582D01*
X73385Y-48031D02*
X73937Y-48582D01*
X66929Y-48031D02*
X73385Y-48031D01*
X66614Y-47716D02*
X66929Y-48031D01*
X66614Y-44094D02*
X66614Y-47716D01*
X64015Y-41496D02*
X66614Y-44094D01*
X57716Y-41496D02*
X64015Y-41496D01*
X57648Y-41427D02*
X57716Y-41496D01*
X57392Y-40944D02*
X57392Y-41486D01*
X83543Y-50358D02*
X84055Y-50870D01*
X83543Y-49527D02*
X83543Y-50358D01*
X82834Y-48818D02*
X83543Y-49527D01*
X73858Y-48818D02*
X82834Y-48818D01*
X73307Y-48267D02*
X73858Y-48818D01*
X66850Y-48267D02*
X73307Y-48267D01*
X66377Y-47795D02*
X66850Y-48267D01*
X66377Y-44173D02*
X66377Y-47795D01*
X63937Y-41732D02*
X66377Y-44173D01*
X57637Y-41732D02*
X63937Y-41732D01*
X57392Y-41486D02*
X57637Y-41732D01*
X56624Y-40944D02*
X56624Y-40541D01*
X57136Y-40521D02*
X57136Y-40944D01*
X57007Y-40393D02*
X57136Y-40521D01*
X56929Y-40393D02*
X57007Y-40393D01*
X56771Y-40393D02*
X56929Y-40393D01*
X56624Y-40541D02*
X56771Y-40393D01*
X58267Y-41968D02*
X57559Y-41968D01*
X58267Y-41968D02*
X63858Y-41968D01*
X63858Y-41968D02*
X66141Y-44251D01*
X66141Y-44251D02*
X66141Y-47874D01*
X66141Y-47874D02*
X66771Y-48503D01*
X66771Y-48503D02*
X73228Y-48503D01*
X73228Y-48503D02*
X73779Y-49055D01*
X73779Y-49055D02*
X82240Y-49055D01*
X83055Y-49870D02*
X82240Y-49055D01*
X57136Y-41545D02*
X57136Y-40944D01*
X57559Y-41968D02*
X57136Y-41545D01*
X56112Y-40944D02*
X56112Y-41466D01*
X64763Y-43346D02*
X64763Y-44429D01*
X63622Y-42204D02*
X64763Y-43346D01*
X56850Y-42204D02*
X63622Y-42204D01*
X56112Y-41466D02*
X56850Y-42204D01*
X55344Y-43700D02*
X55344Y-45422D01*
X55590Y-45669D02*
X55590Y-46692D01*
X55344Y-45422D02*
X55590Y-45669D01*
X55600Y-43700D02*
X55600Y-45285D01*
X56220Y-45905D02*
X56220Y-46456D01*
X55600Y-45285D02*
X56220Y-45905D01*
X69143Y-49803D02*
X69143Y-50324D01*
X70055Y-51236D02*
X70055Y-51870D01*
X69143Y-50324D02*
X70055Y-51236D01*
X69399Y-47519D02*
X69399Y-43651D01*
X63484Y-37736D02*
X63484Y-37330D01*
X69399Y-43651D02*
X63484Y-37736D01*
X63484Y-37330D02*
X63484Y-36909D01*
X67637Y-32755D02*
X70708Y-32755D01*
X63484Y-36909D02*
X67637Y-32755D01*
X72362Y-35275D02*
X72362Y-34094D01*
X81417Y-30000D02*
X74645Y-30000D01*
X86377Y-51181D02*
X86377Y-34960D01*
X84724Y-52834D02*
X86377Y-51181D01*
X80866Y-52834D02*
X84724Y-52834D01*
X86377Y-34960D02*
X81417Y-30000D01*
X72362Y-34094D02*
X74645Y-31811D01*
X69399Y-49803D02*
X69399Y-50265D01*
X70551Y-52374D02*
X70055Y-52870D01*
X70551Y-51417D02*
X70551Y-52374D01*
X69399Y-50265D02*
X70551Y-51417D01*
X69655Y-47519D02*
X69655Y-43592D01*
X66830Y-36909D02*
X66830Y-37330D01*
X65118Y-36456D02*
X64803Y-36771D01*
X66377Y-36456D02*
X65118Y-36456D01*
X66830Y-36909D02*
X66377Y-36456D01*
X64803Y-38740D02*
X64803Y-37874D01*
X69655Y-43592D02*
X64803Y-38740D01*
X55856Y-40944D02*
X55856Y-41525D01*
X60826Y-43346D02*
X60826Y-44429D01*
X59921Y-42440D02*
X60826Y-43346D01*
X56771Y-42440D02*
X59921Y-42440D01*
X55856Y-41525D02*
X56771Y-42440D01*
X68631Y-49803D02*
X68631Y-50442D01*
X69055Y-50866D02*
X69055Y-51870D01*
X68631Y-50442D02*
X69055Y-50866D01*
X68887Y-47519D02*
X68887Y-43769D01*
X63090Y-37972D02*
X63090Y-37330D01*
X68887Y-43769D02*
X63090Y-37972D01*
X58661Y-46220D02*
X57480Y-46220D01*
X56624Y-45364D02*
X57480Y-46220D01*
X56624Y-43700D02*
X56624Y-45364D01*
X58661Y-46220D02*
X58661Y-46220D01*
X58661Y-46220D02*
X58976Y-46220D01*
X61417Y-46220D02*
X63228Y-48031D01*
X63228Y-48031D02*
X63228Y-50393D01*
X63228Y-50393D02*
X63543Y-50708D01*
X64251Y-51417D02*
X67602Y-51417D01*
X67602Y-51417D02*
X68055Y-51870D01*
X63543Y-50708D02*
X63543Y-50708D01*
X64251Y-51417D02*
X63543Y-50708D01*
X66771Y-48818D02*
X72125Y-48818D01*
X65433Y-45433D02*
X65905Y-45905D01*
X65905Y-45905D02*
X65905Y-47952D01*
X65905Y-47952D02*
X66771Y-48818D01*
X59921Y-45354D02*
X60000Y-45433D01*
X56880Y-43041D02*
X57244Y-42677D01*
X57244Y-42677D02*
X58661Y-42677D01*
X58661Y-42677D02*
X59763Y-43779D01*
X59763Y-43779D02*
X59763Y-45196D01*
X59763Y-45196D02*
X59921Y-45354D01*
X56880Y-43700D02*
X56880Y-43041D01*
X60000Y-45433D02*
X65275Y-45433D01*
X65275Y-45433D02*
X65433Y-45433D01*
X72125Y-48818D02*
X72755Y-49448D01*
X74960Y-49448D02*
X78976Y-49448D01*
X72755Y-49448D02*
X74960Y-49448D01*
X79055Y-49370D02*
X81102Y-49370D01*
X78976Y-49448D02*
X79055Y-49370D01*
X72755Y-49448D02*
X72755Y-49448D01*
X57136Y-43700D02*
X57136Y-43178D01*
X81254Y-49690D02*
X81496Y-49448D01*
X72598Y-49606D02*
X72682Y-49690D01*
X66692Y-49055D02*
X72047Y-49055D01*
X72047Y-49055D02*
X72598Y-49606D01*
X61811Y-45669D02*
X65354Y-45669D01*
X59527Y-43858D02*
X59527Y-45275D01*
X59527Y-45275D02*
X59921Y-45669D01*
X59921Y-45669D02*
X61811Y-45669D01*
X65669Y-48031D02*
X66535Y-48897D01*
X65669Y-45984D02*
X65669Y-48031D01*
X65354Y-45669D02*
X65669Y-45984D01*
X66535Y-48897D02*
X66692Y-49055D01*
X72682Y-49690D02*
X74960Y-49690D01*
X74960Y-49690D02*
X81254Y-49690D01*
X58582Y-42913D02*
X59527Y-43858D01*
X57401Y-42913D02*
X58582Y-42913D01*
X57136Y-43178D02*
X57401Y-42913D01*
X78055Y-52870D02*
X78799Y-52125D01*
X81496Y-52125D02*
X81732Y-52362D01*
X78799Y-52125D02*
X81496Y-52125D01*
X81732Y-52362D02*
X84566Y-52362D01*
X81543Y-33858D02*
X81055Y-33370D01*
X84645Y-33858D02*
X81543Y-33858D01*
X85905Y-35118D02*
X84645Y-33858D01*
X85905Y-51023D02*
X85905Y-35118D01*
X84566Y-52362D02*
X85905Y-51023D01*
X61515Y-37330D02*
X61515Y-35964D01*
X80551Y-32866D02*
X81055Y-33370D01*
X80551Y-32125D02*
X80551Y-32866D01*
X79448Y-31023D02*
X80551Y-32125D01*
X66456Y-31023D02*
X79448Y-31023D01*
X61515Y-35964D02*
X66456Y-31023D01*
X71055Y-51870D02*
X71055Y-51385D01*
X81653Y-51653D02*
X81889Y-51889D01*
X80015Y-34330D02*
X79055Y-33370D01*
X84488Y-34330D02*
X80015Y-34330D01*
X85433Y-35275D02*
X84488Y-34330D01*
X85433Y-50866D02*
X85433Y-35275D01*
X84409Y-51889D02*
X85433Y-50866D01*
X81889Y-51889D02*
X84409Y-51889D01*
X75433Y-51653D02*
X81653Y-51653D01*
X74881Y-51102D02*
X75433Y-51653D01*
X71338Y-51102D02*
X74881Y-51102D01*
X71055Y-51385D02*
X71338Y-51102D01*
X61909Y-37330D02*
X61909Y-36200D01*
X77181Y-31496D02*
X79055Y-33370D01*
X66614Y-31496D02*
X77181Y-31496D01*
X61909Y-36200D02*
X66614Y-31496D01*
X71055Y-52870D02*
X71574Y-52350D01*
X74803Y-51338D02*
X75354Y-51889D01*
X71732Y-51338D02*
X74803Y-51338D01*
X71574Y-51496D02*
X71732Y-51338D01*
X71574Y-52350D02*
X71574Y-51496D01*
X81574Y-51889D02*
X81811Y-52125D01*
X75354Y-51889D02*
X81574Y-51889D01*
X81811Y-52125D02*
X84488Y-52125D01*
X80779Y-34094D02*
X80055Y-33370D01*
X84566Y-34094D02*
X80779Y-34094D01*
X85669Y-35196D02*
X84566Y-34094D01*
X85669Y-50944D02*
X85669Y-35196D01*
X84488Y-52125D02*
X85669Y-50944D01*
X61712Y-37330D02*
X61712Y-36082D01*
X79566Y-32881D02*
X80055Y-33370D01*
X79566Y-32125D02*
X79566Y-32881D01*
X78700Y-31259D02*
X79566Y-32125D01*
X66535Y-31259D02*
X78700Y-31259D01*
X61712Y-36082D02*
X66535Y-31259D01*
X79055Y-52870D02*
X79562Y-52362D01*
X81653Y-52598D02*
X84645Y-52598D01*
X81417Y-52362D02*
X81653Y-52598D01*
X79562Y-52362D02*
X81417Y-52362D01*
X84472Y-33370D02*
X82055Y-33370D01*
X86141Y-35039D02*
X84472Y-33370D01*
X86141Y-51102D02*
X86141Y-35039D01*
X84645Y-52598D02*
X86141Y-51102D01*
X61318Y-37330D02*
X61318Y-35846D01*
X81574Y-32889D02*
X82055Y-33370D01*
X81574Y-32047D02*
X81574Y-32889D01*
X80314Y-30787D02*
X81574Y-32047D01*
X66377Y-30787D02*
X80314Y-30787D01*
X61318Y-35846D02*
X66377Y-30787D01*
G54D30*
X75944Y-39448D02*
X75944Y-39094D01*
X77244Y-38976D02*
X77401Y-39133D01*
X76062Y-38976D02*
X77244Y-38976D01*
X75944Y-39094D02*
X76062Y-38976D01*
X78543Y-38887D02*
X77647Y-38887D01*
X77647Y-38887D02*
X77401Y-39133D01*
G54D29*
X62500Y-37330D02*
X62500Y-37775D01*
G54D30*
X67637Y-42913D02*
X62519Y-37795D01*
X67480Y-46535D02*
X67637Y-46377D01*
X67480Y-46535D02*
X67125Y-46535D01*
X67637Y-46377D02*
X67637Y-42913D01*
G54D29*
X62500Y-37775D02*
X62519Y-37795D01*
G54D30*
X74960Y-39448D02*
X75944Y-39448D01*
X70000Y-44409D02*
X70000Y-46850D01*
X74960Y-39448D02*
X70000Y-44409D01*
X67096Y-47519D02*
X67096Y-46938D01*
X67125Y-46889D02*
X67125Y-46535D01*
X67086Y-46929D02*
X67125Y-46889D01*
X67096Y-46938D02*
X67086Y-46929D01*
X71338Y-33385D02*
X71338Y-32755D01*
X71338Y-32755D02*
X71338Y-32125D01*
G54D29*
X70000Y-31732D02*
X70944Y-31732D01*
X62500Y-36633D02*
X67401Y-31732D01*
X67401Y-31732D02*
X70000Y-31732D01*
X62500Y-37330D02*
X62500Y-36633D01*
X70944Y-31732D02*
X71338Y-32125D01*
X62303Y-37330D02*
X62500Y-37330D01*
G54D30*
X75885Y-40295D02*
X75177Y-40295D01*
X75177Y-40295D02*
X75157Y-40275D01*
X75147Y-40265D02*
X75157Y-40275D01*
X67352Y-47519D02*
X67096Y-47519D01*
X75866Y-40314D02*
X75885Y-40295D01*
X75885Y-40295D02*
X75885Y-39507D01*
X75885Y-39507D02*
X75944Y-39448D01*
X78543Y-38631D02*
X78543Y-38887D01*
G54D29*
X68887Y-49803D02*
X68887Y-50383D01*
X69566Y-52358D02*
X69055Y-52870D01*
X69566Y-51062D02*
X69566Y-52358D01*
X68887Y-50383D02*
X69566Y-51062D01*
X63287Y-37330D02*
X63287Y-37854D01*
X69143Y-43710D02*
X69143Y-47519D01*
X63287Y-37854D02*
X69143Y-43710D01*
X63287Y-37330D02*
X63287Y-36791D01*
X67952Y-32125D02*
X70708Y-32125D01*
X63287Y-36791D02*
X67952Y-32125D01*
G54D30*
X71633Y-37303D02*
X72303Y-37303D01*
X72303Y-37303D02*
X72362Y-37244D01*
X59055Y-40944D02*
X59685Y-40944D01*
X58159Y-40944D02*
X59055Y-40944D01*
X59055Y-40944D02*
X59055Y-40944D01*
X58031Y-44566D02*
X58031Y-45196D01*
X57903Y-43700D02*
X57903Y-44438D01*
X57903Y-44438D02*
X58031Y-44566D01*
X80826Y-38887D02*
X80826Y-39409D01*
X80826Y-39409D02*
X80787Y-39448D01*
X54724Y-40157D02*
X54724Y-39527D01*
X54833Y-40944D02*
X54833Y-40266D01*
X54833Y-40266D02*
X54724Y-40157D01*
X56377Y-40157D02*
X56377Y-39527D01*
X56368Y-40944D02*
X56368Y-40167D01*
X56368Y-40167D02*
X56377Y-40157D01*
X75551Y-42204D02*
X75551Y-42086D01*
X75885Y-41751D02*
X75885Y-41357D01*
X75551Y-42086D02*
X75885Y-41751D01*
X76633Y-41357D02*
X76633Y-42893D01*
X75551Y-42637D02*
X75551Y-42204D01*
X76023Y-43110D02*
X75551Y-42637D01*
X76417Y-43110D02*
X76023Y-43110D01*
X76633Y-42893D02*
X76417Y-43110D01*
X77401Y-38503D02*
X76929Y-38503D01*
X76929Y-38503D02*
X76929Y-38503D01*
X67608Y-47519D02*
X67608Y-46958D01*
X67608Y-46958D02*
X67637Y-46929D01*
G54D29*
X68602Y-37330D02*
X68602Y-37657D01*
X69055Y-37716D02*
X69212Y-37559D01*
X68661Y-37716D02*
X69055Y-37716D01*
X68602Y-37657D02*
X68661Y-37716D01*
X68375Y-49803D02*
X68120Y-49803D01*
X68120Y-49803D02*
X67864Y-49803D01*
X67864Y-49803D02*
X67608Y-49803D01*
X68375Y-49803D02*
X68375Y-50364D01*
X68375Y-50364D02*
X68188Y-50551D01*
X71338Y-34015D02*
X71811Y-34015D01*
X71338Y-34645D02*
X71811Y-34645D01*
X71338Y-35275D02*
X71811Y-35275D01*
X71338Y-35905D02*
X71811Y-35905D01*
X62893Y-37330D02*
X62893Y-36791D01*
X62893Y-36791D02*
X62913Y-36771D01*
X60295Y-36110D02*
X59637Y-36110D01*
X59637Y-36110D02*
X59448Y-36299D01*
X69468Y-36267D02*
X69625Y-36110D01*
X69468Y-36582D02*
X69468Y-36267D01*
X68929Y-36110D02*
X68818Y-36220D01*
X69625Y-36110D02*
X68929Y-36110D01*
X61122Y-37330D02*
X61122Y-37657D01*
X61122Y-37657D02*
X61338Y-37874D01*
X67421Y-37330D02*
X67421Y-36791D01*
X67421Y-36791D02*
X67244Y-36614D01*
X63681Y-37330D02*
X63877Y-37330D01*
X63877Y-37330D02*
X64074Y-37330D01*
X64074Y-37330D02*
X64271Y-37330D01*
X64271Y-37330D02*
X64468Y-37330D01*
X64468Y-37330D02*
X64665Y-37330D01*
X64665Y-37330D02*
X64862Y-37330D01*
X64862Y-37330D02*
X65059Y-37330D01*
X65059Y-37330D02*
X65059Y-36909D01*
X65059Y-36909D02*
X65196Y-36771D01*
G54D30*
X69911Y-49803D02*
X69655Y-49803D01*
X77362Y-40905D02*
X77362Y-41338D01*
X76732Y-40826D02*
X77283Y-40826D01*
X76259Y-40826D02*
X76732Y-40826D01*
X77283Y-40826D02*
X77362Y-40905D01*
X75157Y-40905D02*
X75157Y-41338D01*
X59685Y-40314D02*
X60157Y-40314D01*
X60157Y-40314D02*
X60157Y-40314D01*
X59055Y-40314D02*
X58582Y-40314D01*
X58582Y-40314D02*
X58582Y-40314D01*
X57401Y-45196D02*
X56929Y-45196D01*
X57401Y-44566D02*
X56929Y-44566D01*
X58159Y-43700D02*
X58582Y-43700D01*
X58582Y-43700D02*
X58582Y-43700D01*
X66456Y-50315D02*
X65984Y-50315D01*
X65984Y-50315D02*
X65984Y-50314D01*
X81417Y-39448D02*
X81417Y-39055D01*
X81417Y-39055D02*
X81417Y-39055D01*
X83464Y-40000D02*
X82992Y-40000D01*
X54833Y-43700D02*
X54488Y-43700D01*
X54488Y-43700D02*
X54488Y-43700D01*
X54330Y-45196D02*
X53858Y-45196D01*
X54330Y-44566D02*
X53858Y-44566D01*
X54094Y-39527D02*
X53622Y-39527D01*
X54094Y-40157D02*
X54094Y-40629D01*
G54D29*
X54094Y-40629D02*
X54094Y-40629D01*
G54D30*
X55747Y-39527D02*
X55275Y-39527D01*
X55747Y-40157D02*
X55275Y-40157D01*
X60452Y-36582D02*
X60452Y-36267D01*
X60452Y-36267D02*
X60295Y-36110D01*
X69468Y-36267D02*
X69625Y-36110D01*
X67125Y-45905D02*
X67125Y-45354D01*
X69911Y-49803D02*
X70275Y-49803D01*
X69911Y-47519D02*
X70275Y-47519D01*
X76259Y-40826D02*
X75787Y-40826D01*
X76259Y-40826D02*
X76259Y-41357D01*
X76181Y-42204D02*
X76181Y-42637D01*
X76181Y-42637D02*
X76181Y-42637D01*
X80826Y-36328D02*
X81309Y-36328D01*
X81309Y-36328D02*
X81496Y-36141D01*
X80826Y-36328D02*
X80826Y-36072D01*
X78543Y-38375D02*
X78001Y-38375D01*
X78001Y-38375D02*
X77874Y-38503D01*
X78543Y-36072D02*
X78041Y-36072D01*
X78041Y-36072D02*
X77874Y-35905D01*
G54D29*
X55600Y-40944D02*
X55600Y-41663D01*
X55600Y-41663D02*
X55748Y-41811D01*
G54D30*
X55590Y-48661D02*
X55039Y-48661D01*
X55590Y-48031D02*
X55039Y-48031D01*
X64094Y-48661D02*
X63543Y-48661D01*
X61496Y-48661D02*
X62047Y-48661D01*
G54D29*
X77559Y-33936D02*
X77559Y-33543D01*
X77559Y-33543D02*
X77283Y-33267D01*
X59646Y-50117D02*
X58189Y-48661D01*
X57716Y-48425D02*
X57716Y-48248D01*
X57952Y-48661D02*
X57716Y-48425D01*
X58189Y-48661D02*
X57952Y-48661D01*
X55590Y-47322D02*
X56220Y-47952D01*
X56220Y-47952D02*
X56220Y-48031D01*
X56220Y-48031D02*
X57499Y-48031D01*
X57499Y-48031D02*
X57716Y-48248D01*
X56220Y-48661D02*
X56220Y-48031D01*
X56220Y-47086D02*
X57499Y-47086D01*
X57499Y-47086D02*
X57716Y-46870D01*
X64724Y-48661D02*
X64724Y-46948D01*
X64724Y-46948D02*
X64763Y-46909D01*
X64764Y-50117D02*
X64764Y-48701D01*
X64764Y-48701D02*
X64724Y-48661D01*
X54251Y-43070D02*
X53937Y-43070D01*
X56368Y-43218D02*
X56220Y-43070D01*
X56220Y-43070D02*
X54251Y-43070D01*
X56368Y-43700D02*
X56368Y-43218D01*
X53937Y-43070D02*
X53937Y-43070D01*
X60866Y-48661D02*
X60866Y-46948D01*
X60866Y-46948D02*
X60826Y-46909D01*
X60826Y-50117D02*
X60826Y-48701D01*
X60826Y-48701D02*
X60866Y-48661D01*
X67027Y-37330D02*
X67027Y-36791D01*
X70000Y-33385D02*
X70708Y-33385D01*
X66929Y-36456D02*
X70000Y-33385D01*
X66929Y-36692D02*
X66929Y-36456D01*
X67027Y-36791D02*
X66929Y-36692D01*
G54D30*
X54960Y-45196D02*
X54960Y-44566D01*
X55089Y-43700D02*
X55089Y-44438D01*
X55089Y-44438D02*
X54960Y-44566D01*
G54D29*
X72362Y-36614D02*
X72362Y-35905D01*
X71633Y-36555D02*
X72303Y-36555D01*
X72303Y-36555D02*
X72362Y-36614D01*
X81653Y-41889D02*
X81653Y-40944D01*
X78110Y-45433D02*
X81653Y-41889D01*
X70728Y-36929D02*
X70314Y-36929D01*
X68405Y-37027D02*
X68503Y-36929D01*
X68503Y-36929D02*
X70314Y-36929D01*
X68405Y-37027D02*
X68405Y-37330D01*
X56112Y-43700D02*
X56112Y-44222D01*
X56112Y-44222D02*
X56299Y-44409D01*
X79094Y-41377D02*
X76771Y-43700D01*
X76771Y-43700D02*
X75905Y-43700D01*
X75590Y-44015D02*
X75905Y-43700D01*
X79212Y-40944D02*
X79212Y-41259D01*
X79212Y-41259D02*
X79094Y-41377D01*
X80944Y-42125D02*
X80944Y-40944D01*
X77637Y-45433D02*
X80944Y-42125D01*
X78503Y-40944D02*
X78503Y-41574D01*
X76614Y-43464D02*
X75472Y-43464D01*
X78503Y-41574D02*
X76614Y-43464D01*
X75472Y-43464D02*
X74921Y-44015D01*
X74724Y-33936D02*
X74724Y-33464D01*
X74724Y-33464D02*
X74921Y-33267D01*
X80236Y-42362D02*
X80236Y-40944D01*
X77165Y-45433D02*
X80236Y-42362D01*
X75590Y-33779D02*
X75590Y-31811D01*
X75590Y-33779D02*
X75433Y-33936D01*
X55344Y-40944D02*
X55344Y-41800D01*
X55344Y-41800D02*
X55354Y-41811D01*
X75984Y-33779D02*
X75984Y-31811D01*
X75984Y-33779D02*
X76141Y-33936D01*
X76850Y-33936D02*
X76850Y-33503D01*
X76850Y-33503D02*
X76614Y-33267D01*
G54D30*
X77362Y-40275D02*
X76654Y-40275D01*
X76654Y-40275D02*
X76633Y-40295D01*
X77421Y-40295D02*
X77440Y-40314D01*
X76633Y-40295D02*
X76633Y-39507D01*
X76633Y-39507D02*
X76574Y-39448D01*
G54D29*
X55089Y-40944D02*
X55078Y-40955D01*
X55078Y-40955D02*
X55078Y-41574D01*
X67814Y-37330D02*
X67814Y-36200D01*
X69370Y-34645D02*
X70708Y-34645D01*
X67814Y-36200D02*
X69370Y-34645D01*
X68011Y-37330D02*
X68011Y-36318D01*
X69055Y-35275D02*
X70708Y-35275D01*
X68011Y-36318D02*
X69055Y-35275D01*
X68208Y-37330D02*
X68208Y-36437D01*
X70551Y-35748D02*
X70708Y-35905D01*
X70393Y-35748D02*
X70551Y-35748D01*
X70236Y-35590D02*
X70393Y-35748D01*
X69055Y-35590D02*
X70236Y-35590D01*
X68208Y-36437D02*
X69055Y-35590D01*
X55856Y-43700D02*
X55856Y-44517D01*
X55856Y-44517D02*
X55984Y-44645D01*
X67618Y-37330D02*
X67618Y-36082D01*
X69685Y-34015D02*
X70708Y-34015D01*
X67618Y-36082D02*
X69685Y-34015D01*
G54D10*
G36*
X84396Y-50617D02*
X84293Y-50514D01*
X84139Y-50450D01*
X83971Y-50450D01*
X83903Y-50478D01*
X83713Y-50287D01*
X83713Y-50282D01*
X83731Y-50290D01*
X83965Y-50290D01*
X83995Y-50260D01*
X83995Y-49930D01*
X83987Y-49930D01*
X83987Y-49810D01*
X83995Y-49810D01*
X83995Y-49480D01*
X83965Y-49450D01*
X83731Y-49450D01*
X83700Y-49462D01*
X83700Y-49462D01*
X83663Y-49407D01*
X83663Y-49407D01*
X83008Y-48752D01*
X83709Y-48752D01*
X84396Y-49440D01*
X84396Y-49457D01*
X84378Y-49450D01*
X84145Y-49450D01*
X84115Y-49480D01*
X84115Y-49810D01*
X84122Y-49810D01*
X84122Y-49930D01*
X84115Y-49930D01*
X84115Y-50260D01*
X84145Y-50290D01*
X84378Y-50290D01*
X84396Y-50282D01*
X84396Y-50617D01*
X84396Y-50617D01*
G37*
X84396Y-50617D02*
X84293Y-50514D01*
X84139Y-50450D01*
X83971Y-50450D01*
X83903Y-50478D01*
X83713Y-50287D01*
X83713Y-50282D01*
X83731Y-50290D01*
X83965Y-50290D01*
X83995Y-50260D01*
X83995Y-49930D01*
X83987Y-49930D01*
X83987Y-49810D01*
X83995Y-49810D01*
X83995Y-49480D01*
X83965Y-49450D01*
X83731Y-49450D01*
X83700Y-49462D01*
X83700Y-49462D01*
X83663Y-49407D01*
X83663Y-49407D01*
X83008Y-48752D01*
X83709Y-48752D01*
X84396Y-49440D01*
X84396Y-49457D01*
X84378Y-49450D01*
X84145Y-49450D01*
X84115Y-49480D01*
X84115Y-49810D01*
X84122Y-49810D01*
X84122Y-49930D01*
X84115Y-49930D01*
X84115Y-50260D01*
X84145Y-50290D01*
X84378Y-50290D01*
X84396Y-50282D01*
X84396Y-50617D01*
G36*
X85026Y-50716D02*
X84736Y-51006D01*
X84736Y-49370D01*
X84723Y-49305D01*
X84723Y-49305D01*
X84687Y-49249D01*
X84475Y-49037D01*
X84475Y-45786D01*
X84475Y-44786D01*
X84475Y-43786D01*
X84475Y-42786D01*
X84475Y-41786D01*
X84411Y-41632D01*
X84293Y-41514D01*
X84139Y-41450D01*
X83971Y-41450D01*
X83817Y-41513D01*
X83699Y-41631D01*
X83635Y-41786D01*
X83635Y-41953D01*
X83698Y-42107D01*
X83816Y-42225D01*
X83971Y-42290D01*
X84138Y-42290D01*
X84292Y-42226D01*
X84410Y-42108D01*
X84475Y-41953D01*
X84475Y-41786D01*
X84475Y-42786D01*
X84411Y-42632D01*
X84293Y-42514D01*
X84139Y-42450D01*
X83971Y-42450D01*
X83817Y-42513D01*
X83699Y-42631D01*
X83635Y-42786D01*
X83635Y-42953D01*
X83698Y-43107D01*
X83816Y-43225D01*
X83971Y-43290D01*
X84138Y-43290D01*
X84292Y-43226D01*
X84410Y-43108D01*
X84475Y-42953D01*
X84475Y-42786D01*
X84475Y-43786D01*
X84411Y-43632D01*
X84293Y-43514D01*
X84139Y-43450D01*
X83971Y-43450D01*
X83817Y-43513D01*
X83699Y-43631D01*
X83635Y-43786D01*
X83635Y-43953D01*
X83698Y-44107D01*
X83816Y-44225D01*
X83971Y-44290D01*
X84138Y-44290D01*
X84292Y-44226D01*
X84410Y-44108D01*
X84475Y-43953D01*
X84475Y-43786D01*
X84475Y-44786D01*
X84411Y-44632D01*
X84293Y-44514D01*
X84139Y-44450D01*
X83971Y-44450D01*
X83817Y-44513D01*
X83699Y-44631D01*
X83635Y-44786D01*
X83635Y-44953D01*
X83698Y-45107D01*
X83816Y-45225D01*
X83971Y-45290D01*
X84138Y-45290D01*
X84292Y-45226D01*
X84410Y-45108D01*
X84475Y-44953D01*
X84475Y-44786D01*
X84475Y-45786D01*
X84411Y-45632D01*
X84293Y-45514D01*
X84139Y-45450D01*
X83971Y-45450D01*
X83817Y-45513D01*
X83699Y-45631D01*
X83635Y-45786D01*
X83635Y-45953D01*
X83698Y-46107D01*
X83816Y-46225D01*
X83971Y-46290D01*
X84138Y-46290D01*
X84292Y-46226D01*
X84410Y-46108D01*
X84475Y-45953D01*
X84475Y-45786D01*
X84475Y-49037D01*
X84475Y-49037D01*
X84475Y-47193D01*
X84475Y-47146D01*
X84475Y-46546D01*
X84456Y-46502D01*
X84423Y-46468D01*
X84378Y-46450D01*
X84331Y-46450D01*
X83731Y-46450D01*
X83687Y-46468D01*
X83653Y-46502D01*
X83635Y-46546D01*
X83635Y-46593D01*
X83635Y-47193D01*
X83653Y-47238D01*
X83687Y-47271D01*
X83731Y-47290D01*
X83778Y-47290D01*
X84378Y-47290D01*
X84423Y-47271D01*
X84456Y-47238D01*
X84475Y-47193D01*
X84475Y-49037D01*
X83899Y-48462D01*
X83844Y-48425D01*
X83779Y-48412D01*
X83475Y-48412D01*
X83475Y-46786D01*
X83475Y-45786D01*
X83475Y-44786D01*
X83475Y-43786D01*
X83475Y-42786D01*
X83475Y-41786D01*
X83411Y-41632D01*
X83293Y-41514D01*
X83139Y-41450D01*
X82971Y-41450D01*
X82817Y-41513D01*
X82699Y-41631D01*
X82635Y-41786D01*
X82635Y-41953D01*
X82698Y-42107D01*
X82816Y-42225D01*
X82971Y-42290D01*
X83138Y-42290D01*
X83292Y-42226D01*
X83410Y-42108D01*
X83475Y-41953D01*
X83475Y-41786D01*
X83475Y-42786D01*
X83411Y-42632D01*
X83293Y-42514D01*
X83139Y-42450D01*
X82971Y-42450D01*
X82817Y-42513D01*
X82699Y-42631D01*
X82635Y-42786D01*
X82635Y-42953D01*
X82698Y-43107D01*
X82816Y-43225D01*
X82971Y-43290D01*
X83138Y-43290D01*
X83292Y-43226D01*
X83410Y-43108D01*
X83475Y-42953D01*
X83475Y-42786D01*
X83475Y-43786D01*
X83411Y-43632D01*
X83293Y-43514D01*
X83139Y-43450D01*
X82971Y-43450D01*
X82817Y-43513D01*
X82699Y-43631D01*
X82635Y-43786D01*
X82635Y-43953D01*
X82698Y-44107D01*
X82816Y-44225D01*
X82971Y-44290D01*
X83138Y-44290D01*
X83292Y-44226D01*
X83410Y-44108D01*
X83475Y-43953D01*
X83475Y-43786D01*
X83475Y-44786D01*
X83411Y-44632D01*
X83293Y-44514D01*
X83139Y-44450D01*
X82971Y-44450D01*
X82817Y-44513D01*
X82699Y-44631D01*
X82635Y-44786D01*
X82635Y-44953D01*
X82698Y-45107D01*
X82816Y-45225D01*
X82971Y-45290D01*
X83138Y-45290D01*
X83292Y-45226D01*
X83410Y-45108D01*
X83475Y-44953D01*
X83475Y-44786D01*
X83475Y-45786D01*
X83411Y-45632D01*
X83293Y-45514D01*
X83139Y-45450D01*
X82971Y-45450D01*
X82817Y-45513D01*
X82699Y-45631D01*
X82635Y-45786D01*
X82635Y-45953D01*
X82698Y-46107D01*
X82816Y-46225D01*
X82971Y-46290D01*
X83138Y-46290D01*
X83292Y-46226D01*
X83410Y-46108D01*
X83475Y-45953D01*
X83475Y-45786D01*
X83475Y-46786D01*
X83411Y-46632D01*
X83293Y-46514D01*
X83139Y-46450D01*
X82971Y-46450D01*
X82817Y-46513D01*
X82699Y-46631D01*
X82635Y-46786D01*
X82635Y-46953D01*
X82698Y-47107D01*
X82816Y-47225D01*
X82971Y-47290D01*
X83138Y-47290D01*
X83292Y-47226D01*
X83410Y-47108D01*
X83475Y-46953D01*
X83475Y-46786D01*
X83475Y-48412D01*
X76990Y-48412D01*
X76990Y-47374D01*
X76939Y-47250D01*
X76844Y-47155D01*
X76720Y-47104D01*
X76586Y-47104D01*
X76463Y-47155D01*
X76368Y-47250D01*
X76317Y-47373D01*
X76316Y-47507D01*
X76368Y-47631D01*
X76462Y-47726D01*
X76586Y-47777D01*
X76720Y-47777D01*
X76843Y-47726D01*
X76938Y-47631D01*
X76990Y-47508D01*
X76990Y-47374D01*
X76990Y-48412D01*
X75277Y-48412D01*
X75277Y-45732D01*
X75235Y-45630D01*
X75157Y-45552D01*
X75055Y-45509D01*
X74945Y-45509D01*
X74843Y-45552D01*
X74764Y-45630D01*
X74722Y-45731D01*
X74722Y-45842D01*
X74764Y-45944D01*
X74842Y-46022D01*
X74944Y-46064D01*
X75054Y-46064D01*
X75156Y-46022D01*
X75235Y-45944D01*
X75277Y-45842D01*
X75277Y-45732D01*
X75277Y-48412D01*
X74007Y-48412D01*
X73506Y-47911D01*
X73450Y-47874D01*
X73385Y-47861D01*
X70110Y-47861D01*
X70120Y-47838D01*
X70120Y-47791D01*
X70120Y-47724D01*
X70130Y-47735D01*
X70224Y-47774D01*
X70326Y-47774D01*
X70419Y-47735D01*
X70491Y-47664D01*
X70530Y-47570D01*
X70530Y-47469D01*
X70491Y-47375D01*
X70420Y-47303D01*
X70326Y-47264D01*
X70225Y-47264D01*
X70131Y-47303D01*
X70120Y-47314D01*
X70120Y-47200D01*
X70101Y-47156D01*
X70067Y-47122D01*
X70026Y-47105D01*
X70050Y-47105D01*
X70144Y-47066D01*
X70216Y-46995D01*
X70254Y-46901D01*
X70255Y-46799D01*
X70216Y-46706D01*
X70200Y-46689D01*
X70200Y-44492D01*
X75043Y-39648D01*
X75647Y-39648D01*
X75647Y-39669D01*
X75666Y-39713D01*
X75685Y-39733D01*
X75685Y-39991D01*
X75666Y-40011D01*
X75647Y-40055D01*
X75647Y-40095D01*
X75474Y-40095D01*
X75474Y-40064D01*
X75456Y-40020D01*
X75422Y-39986D01*
X75378Y-39968D01*
X75330Y-39968D01*
X74936Y-39968D01*
X74892Y-39986D01*
X74858Y-40020D01*
X74840Y-40064D01*
X74840Y-40112D01*
X74840Y-40486D01*
X74858Y-40530D01*
X74892Y-40564D01*
X74936Y-40582D01*
X74984Y-40582D01*
X75378Y-40582D01*
X75422Y-40564D01*
X75456Y-40530D01*
X75470Y-40495D01*
X75647Y-40495D01*
X75647Y-40536D01*
X75666Y-40580D01*
X75680Y-40594D01*
X75643Y-40610D01*
X75571Y-40682D01*
X75532Y-40775D01*
X75532Y-40877D01*
X75571Y-40971D01*
X75642Y-41042D01*
X75680Y-41058D01*
X75666Y-41073D01*
X75647Y-41117D01*
X75647Y-41267D01*
X75677Y-41297D01*
X75826Y-41297D01*
X75826Y-41289D01*
X75944Y-41289D01*
X75944Y-41297D01*
X75953Y-41297D01*
X75953Y-41417D01*
X75944Y-41417D01*
X75944Y-41664D01*
X75974Y-41694D01*
X75979Y-41694D01*
X76027Y-41694D01*
X76071Y-41676D01*
X76072Y-41674D01*
X76073Y-41676D01*
X76117Y-41694D01*
X76165Y-41694D01*
X76401Y-41694D01*
X76445Y-41676D01*
X76446Y-41674D01*
X76447Y-41676D01*
X76491Y-41694D01*
X76539Y-41694D01*
X76544Y-41694D01*
X76574Y-41664D01*
X76574Y-41417D01*
X76565Y-41417D01*
X76565Y-41297D01*
X76574Y-41297D01*
X76574Y-41289D01*
X76692Y-41289D01*
X76692Y-41297D01*
X76841Y-41297D01*
X76871Y-41267D01*
X76871Y-41117D01*
X76853Y-41073D01*
X76838Y-41058D01*
X76876Y-41043D01*
X76892Y-41026D01*
X77045Y-41026D01*
X77045Y-41106D01*
X77063Y-41150D01*
X77097Y-41184D01*
X77141Y-41202D01*
X77142Y-41202D01*
X77107Y-41287D01*
X77107Y-41389D01*
X77145Y-41482D01*
X77217Y-41554D01*
X77311Y-41593D01*
X77412Y-41593D01*
X77506Y-41554D01*
X77578Y-41483D01*
X77617Y-41389D01*
X77617Y-41288D01*
X77581Y-41202D01*
X77583Y-41202D01*
X77627Y-41184D01*
X77660Y-41150D01*
X77679Y-41106D01*
X77679Y-41058D01*
X77679Y-40704D01*
X77660Y-40660D01*
X77627Y-40626D01*
X77583Y-40608D01*
X77535Y-40608D01*
X77141Y-40608D01*
X77097Y-40626D01*
X76892Y-40626D01*
X76876Y-40610D01*
X76838Y-40594D01*
X76853Y-40580D01*
X76871Y-40536D01*
X76871Y-40488D01*
X76871Y-40475D01*
X77045Y-40475D01*
X77045Y-40476D01*
X77063Y-40520D01*
X77097Y-40554D01*
X77141Y-40572D01*
X77189Y-40572D01*
X77583Y-40572D01*
X77627Y-40554D01*
X77660Y-40520D01*
X77679Y-40476D01*
X77679Y-40428D01*
X77679Y-40074D01*
X77660Y-40030D01*
X77627Y-39996D01*
X77583Y-39978D01*
X77535Y-39978D01*
X77141Y-39978D01*
X77097Y-39996D01*
X77063Y-40030D01*
X77045Y-40074D01*
X77045Y-40075D01*
X76871Y-40075D01*
X76871Y-40055D01*
X76853Y-40011D01*
X76833Y-39991D01*
X76833Y-39733D01*
X76853Y-39713D01*
X76871Y-39669D01*
X76871Y-39621D01*
X76871Y-39227D01*
X76853Y-39183D01*
X76846Y-39176D01*
X77084Y-39176D01*
X77084Y-39344D01*
X77102Y-39388D01*
X77136Y-39422D01*
X77180Y-39440D01*
X77228Y-39440D01*
X77622Y-39440D01*
X77666Y-39422D01*
X77700Y-39388D01*
X77718Y-39344D01*
X77718Y-39297D01*
X77718Y-39099D01*
X77730Y-39087D01*
X78203Y-39087D01*
X78224Y-39096D01*
X78271Y-39096D01*
X78862Y-39096D01*
X78906Y-39078D01*
X78940Y-39044D01*
X78958Y-39000D01*
X78958Y-38952D01*
X78958Y-38775D01*
X78952Y-38759D01*
X78958Y-38744D01*
X78958Y-38696D01*
X78958Y-38519D01*
X78952Y-38503D01*
X78958Y-38488D01*
X78958Y-38440D01*
X78958Y-38263D01*
X78952Y-38248D01*
X78958Y-38232D01*
X78958Y-38184D01*
X78958Y-38007D01*
X78952Y-37992D01*
X78958Y-37976D01*
X78958Y-37928D01*
X78958Y-37751D01*
X78952Y-37736D01*
X78958Y-37720D01*
X78958Y-37672D01*
X78958Y-37495D01*
X78952Y-37480D01*
X78958Y-37464D01*
X78958Y-37417D01*
X78958Y-37239D01*
X78952Y-37224D01*
X78958Y-37208D01*
X78958Y-37161D01*
X78958Y-36984D01*
X78952Y-36968D01*
X78958Y-36953D01*
X78958Y-36905D01*
X78958Y-36728D01*
X78952Y-36712D01*
X78958Y-36697D01*
X78958Y-36649D01*
X78958Y-36472D01*
X78952Y-36456D01*
X78958Y-36441D01*
X78958Y-36393D01*
X78958Y-36216D01*
X78952Y-36200D01*
X78958Y-36185D01*
X78958Y-36137D01*
X78958Y-35960D01*
X78940Y-35916D01*
X78906Y-35882D01*
X78862Y-35864D01*
X78814Y-35864D01*
X78224Y-35864D01*
X78203Y-35872D01*
X78129Y-35872D01*
X78129Y-35855D01*
X78090Y-35761D01*
X78018Y-35689D01*
X77924Y-35650D01*
X77823Y-35650D01*
X77729Y-35689D01*
X77657Y-35760D01*
X77619Y-35854D01*
X77618Y-35956D01*
X77657Y-36049D01*
X77729Y-36121D01*
X77818Y-36158D01*
X75324Y-36158D01*
X75259Y-36171D01*
X75204Y-36208D01*
X73630Y-37782D01*
X72679Y-37782D01*
X72679Y-37445D01*
X72679Y-37334D01*
X72679Y-37154D01*
X72679Y-37043D01*
X72660Y-36999D01*
X72627Y-36965D01*
X72583Y-36947D01*
X72535Y-36947D01*
X72452Y-36947D01*
X72422Y-36977D01*
X72422Y-37184D01*
X72649Y-37184D01*
X72679Y-37154D01*
X72679Y-37334D01*
X72649Y-37304D01*
X72422Y-37304D01*
X72422Y-37511D01*
X72452Y-37541D01*
X72535Y-37541D01*
X72583Y-37541D01*
X72627Y-37522D01*
X72660Y-37489D01*
X72679Y-37445D01*
X72679Y-37782D01*
X72302Y-37782D01*
X72302Y-37511D01*
X72302Y-37304D01*
X72302Y-37184D01*
X72302Y-36977D01*
X72272Y-36947D01*
X72189Y-36947D01*
X72141Y-36947D01*
X72097Y-36965D01*
X72063Y-36999D01*
X72045Y-37043D01*
X72045Y-37154D01*
X72075Y-37184D01*
X72302Y-37184D01*
X72302Y-37304D01*
X72075Y-37304D01*
X72045Y-37334D01*
X72045Y-37445D01*
X72063Y-37489D01*
X72097Y-37522D01*
X72141Y-37541D01*
X72189Y-37541D01*
X72272Y-37541D01*
X72302Y-37511D01*
X72302Y-37782D01*
X71960Y-37782D01*
X71960Y-37445D01*
X71960Y-37397D01*
X71960Y-37392D01*
X71960Y-37214D01*
X71960Y-37208D01*
X71960Y-37161D01*
X71942Y-37117D01*
X71908Y-37083D01*
X71864Y-37065D01*
X71723Y-37065D01*
X71693Y-37095D01*
X71693Y-37244D01*
X71930Y-37244D01*
X71960Y-37214D01*
X71960Y-37392D01*
X71930Y-37362D01*
X71693Y-37362D01*
X71693Y-37511D01*
X71723Y-37541D01*
X71864Y-37541D01*
X71908Y-37522D01*
X71942Y-37489D01*
X71960Y-37445D01*
X71960Y-37782D01*
X71573Y-37782D01*
X71573Y-37511D01*
X71573Y-37362D01*
X71573Y-37244D01*
X71573Y-37095D01*
X71543Y-37065D01*
X71403Y-37065D01*
X71359Y-37083D01*
X71325Y-37117D01*
X71307Y-37161D01*
X71307Y-37208D01*
X71307Y-37214D01*
X71337Y-37244D01*
X71573Y-37244D01*
X71573Y-37362D01*
X71337Y-37362D01*
X71307Y-37392D01*
X71307Y-37397D01*
X71307Y-37445D01*
X71325Y-37489D01*
X71359Y-37522D01*
X71403Y-37541D01*
X71543Y-37541D01*
X71573Y-37511D01*
X71573Y-37782D01*
X69338Y-37782D01*
X69356Y-37775D01*
X69428Y-37703D01*
X69467Y-37610D01*
X69467Y-37508D01*
X69428Y-37414D01*
X69357Y-37343D01*
X69263Y-37304D01*
X69162Y-37304D01*
X69068Y-37342D01*
X68996Y-37414D01*
X68978Y-37458D01*
X68978Y-37099D01*
X70314Y-37099D01*
X70413Y-37099D01*
X70419Y-37115D01*
X70453Y-37148D01*
X70497Y-37167D01*
X70545Y-37167D01*
X70958Y-37167D01*
X71003Y-37148D01*
X71036Y-37115D01*
X71055Y-37071D01*
X71055Y-37023D01*
X71055Y-36787D01*
X71036Y-36743D01*
X71003Y-36709D01*
X70958Y-36691D01*
X70911Y-36691D01*
X70497Y-36691D01*
X70453Y-36709D01*
X70419Y-36743D01*
X70413Y-36759D01*
X70314Y-36759D01*
X69903Y-36759D01*
X69903Y-36716D01*
X69903Y-36545D01*
X70122Y-36545D01*
X70166Y-36526D01*
X70200Y-36493D01*
X70218Y-36449D01*
X70218Y-36401D01*
X70218Y-35813D01*
X70273Y-35868D01*
X70273Y-35868D01*
X70328Y-35905D01*
X70393Y-35918D01*
X70411Y-35918D01*
X70411Y-36126D01*
X70429Y-36170D01*
X70463Y-36204D01*
X70507Y-36222D01*
X70555Y-36222D01*
X70909Y-36222D01*
X70953Y-36204D01*
X70987Y-36170D01*
X71005Y-36126D01*
X71005Y-36078D01*
X71005Y-35684D01*
X70987Y-35640D01*
X70953Y-35606D01*
X70914Y-35590D01*
X70953Y-35574D01*
X70987Y-35540D01*
X71005Y-35496D01*
X71005Y-35448D01*
X71005Y-35054D01*
X70987Y-35010D01*
X70953Y-34976D01*
X70914Y-34960D01*
X70953Y-34944D01*
X70987Y-34910D01*
X71005Y-34866D01*
X71005Y-34818D01*
X71005Y-34424D01*
X70987Y-34380D01*
X70953Y-34346D01*
X70914Y-34330D01*
X70953Y-34314D01*
X70987Y-34280D01*
X71005Y-34236D01*
X71005Y-34188D01*
X71005Y-33794D01*
X70987Y-33750D01*
X70953Y-33717D01*
X70914Y-33700D01*
X70953Y-33684D01*
X70987Y-33650D01*
X71005Y-33606D01*
X71005Y-33558D01*
X71005Y-33164D01*
X70987Y-33120D01*
X70953Y-33087D01*
X70914Y-33070D01*
X70953Y-33054D01*
X70987Y-33020D01*
X71005Y-32976D01*
X71005Y-32929D01*
X71005Y-32535D01*
X70987Y-32490D01*
X70953Y-32457D01*
X70914Y-32440D01*
X70953Y-32424D01*
X70987Y-32390D01*
X71005Y-32346D01*
X71005Y-32299D01*
X71005Y-32033D01*
X71041Y-32069D01*
X71041Y-32346D01*
X71059Y-32390D01*
X71093Y-32424D01*
X71132Y-32440D01*
X71093Y-32457D01*
X71059Y-32490D01*
X71041Y-32535D01*
X71041Y-32582D01*
X71041Y-32976D01*
X71059Y-33020D01*
X71093Y-33054D01*
X71132Y-33070D01*
X71093Y-33087D01*
X71059Y-33120D01*
X71041Y-33164D01*
X71041Y-33212D01*
X71041Y-33606D01*
X71059Y-33650D01*
X71093Y-33684D01*
X71132Y-33700D01*
X71093Y-33717D01*
X71059Y-33750D01*
X71041Y-33794D01*
X71041Y-33842D01*
X71041Y-34236D01*
X71059Y-34280D01*
X71093Y-34314D01*
X71132Y-34330D01*
X71093Y-34346D01*
X71059Y-34380D01*
X71041Y-34424D01*
X71041Y-34472D01*
X71041Y-34866D01*
X71059Y-34910D01*
X71093Y-34944D01*
X71132Y-34960D01*
X71093Y-34976D01*
X71059Y-35010D01*
X71041Y-35054D01*
X71041Y-35102D01*
X71041Y-35496D01*
X71059Y-35540D01*
X71093Y-35574D01*
X71132Y-35590D01*
X71093Y-35606D01*
X71059Y-35640D01*
X71041Y-35684D01*
X71041Y-35732D01*
X71041Y-36126D01*
X71059Y-36170D01*
X71093Y-36204D01*
X71137Y-36222D01*
X71185Y-36222D01*
X71539Y-36222D01*
X71583Y-36204D01*
X71617Y-36170D01*
X71635Y-36126D01*
X71635Y-36090D01*
X71666Y-36121D01*
X71760Y-36160D01*
X71861Y-36160D01*
X71955Y-36121D01*
X72027Y-36050D01*
X72045Y-36006D01*
X72045Y-36106D01*
X72063Y-36150D01*
X72097Y-36184D01*
X72141Y-36202D01*
X72189Y-36202D01*
X72192Y-36202D01*
X72192Y-36317D01*
X72141Y-36317D01*
X72097Y-36335D01*
X72063Y-36369D01*
X72056Y-36385D01*
X71948Y-36385D01*
X71942Y-36369D01*
X71908Y-36335D01*
X71864Y-36317D01*
X71816Y-36317D01*
X71403Y-36317D01*
X71359Y-36335D01*
X71325Y-36369D01*
X71307Y-36413D01*
X71307Y-36460D01*
X71307Y-36697D01*
X71325Y-36741D01*
X71359Y-36774D01*
X71403Y-36793D01*
X71451Y-36793D01*
X71864Y-36793D01*
X71908Y-36774D01*
X71942Y-36741D01*
X71948Y-36725D01*
X72045Y-36725D01*
X72045Y-36815D01*
X72063Y-36859D01*
X72097Y-36892D01*
X72141Y-36911D01*
X72189Y-36911D01*
X72583Y-36911D01*
X72627Y-36892D01*
X72660Y-36859D01*
X72679Y-36815D01*
X72679Y-36767D01*
X72679Y-36413D01*
X72660Y-36369D01*
X72627Y-36335D01*
X72583Y-36317D01*
X72535Y-36317D01*
X72532Y-36317D01*
X72532Y-36202D01*
X72583Y-36202D01*
X72627Y-36184D01*
X72660Y-36150D01*
X72679Y-36106D01*
X72679Y-36058D01*
X72679Y-35704D01*
X72660Y-35660D01*
X72627Y-35626D01*
X72583Y-35608D01*
X72535Y-35608D01*
X72141Y-35608D01*
X72097Y-35626D01*
X72063Y-35660D01*
X72045Y-35704D01*
X72045Y-35752D01*
X72045Y-35804D01*
X72027Y-35761D01*
X71955Y-35689D01*
X71861Y-35650D01*
X71760Y-35650D01*
X71666Y-35689D01*
X71635Y-35720D01*
X71635Y-35684D01*
X71617Y-35640D01*
X71583Y-35606D01*
X71544Y-35590D01*
X71583Y-35574D01*
X71617Y-35540D01*
X71635Y-35496D01*
X71635Y-35460D01*
X71666Y-35491D01*
X71760Y-35530D01*
X71861Y-35530D01*
X71955Y-35491D01*
X72027Y-35420D01*
X72045Y-35376D01*
X72045Y-35476D01*
X72063Y-35520D01*
X72097Y-35554D01*
X72141Y-35572D01*
X72189Y-35572D01*
X72583Y-35572D01*
X72627Y-35554D01*
X72660Y-35520D01*
X72679Y-35476D01*
X72679Y-35428D01*
X72679Y-35074D01*
X72660Y-35030D01*
X72627Y-34996D01*
X72583Y-34978D01*
X72535Y-34978D01*
X72532Y-34978D01*
X72532Y-34164D01*
X74631Y-32066D01*
X74696Y-32066D01*
X74789Y-32027D01*
X74861Y-31955D01*
X74900Y-31861D01*
X74900Y-31760D01*
X74861Y-31666D01*
X74861Y-31666D01*
X75374Y-31666D01*
X75374Y-31666D01*
X75335Y-31760D01*
X75335Y-31861D01*
X75374Y-31955D01*
X75420Y-32001D01*
X75420Y-33639D01*
X75212Y-33639D01*
X75176Y-33654D01*
X75176Y-33217D01*
X75137Y-33123D01*
X75065Y-33051D01*
X74972Y-33012D01*
X74870Y-33012D01*
X74777Y-33051D01*
X74705Y-33123D01*
X74666Y-33216D01*
X74666Y-33282D01*
X74604Y-33344D01*
X74567Y-33399D01*
X74554Y-33464D01*
X74554Y-33639D01*
X74503Y-33639D01*
X74459Y-33658D01*
X74425Y-33691D01*
X74407Y-33736D01*
X74407Y-33783D01*
X74407Y-34137D01*
X74425Y-34181D01*
X74459Y-34215D01*
X74503Y-34233D01*
X74551Y-34233D01*
X74945Y-34233D01*
X74989Y-34215D01*
X75023Y-34181D01*
X75041Y-34137D01*
X75041Y-34090D01*
X75041Y-33736D01*
X75023Y-33691D01*
X74989Y-33658D01*
X74945Y-33639D01*
X74897Y-33639D01*
X74894Y-33639D01*
X74894Y-33534D01*
X74906Y-33522D01*
X74971Y-33522D01*
X75065Y-33484D01*
X75137Y-33412D01*
X75176Y-33318D01*
X75176Y-33217D01*
X75176Y-33654D01*
X75168Y-33658D01*
X75134Y-33691D01*
X75116Y-33736D01*
X75116Y-33783D01*
X75116Y-34137D01*
X75134Y-34181D01*
X75168Y-34215D01*
X75212Y-34233D01*
X75259Y-34233D01*
X75653Y-34233D01*
X75698Y-34215D01*
X75731Y-34181D01*
X75750Y-34137D01*
X75750Y-34090D01*
X75750Y-33832D01*
X75760Y-33779D01*
X75760Y-32001D01*
X75787Y-31974D01*
X75814Y-32001D01*
X75814Y-33779D01*
X75824Y-33832D01*
X75824Y-34137D01*
X75843Y-34181D01*
X75876Y-34215D01*
X75920Y-34233D01*
X75968Y-34233D01*
X76362Y-34233D01*
X76406Y-34215D01*
X76440Y-34181D01*
X76458Y-34137D01*
X76458Y-34090D01*
X76458Y-33736D01*
X76440Y-33691D01*
X76406Y-33658D01*
X76362Y-33639D01*
X76314Y-33639D01*
X76154Y-33639D01*
X76154Y-32001D01*
X76200Y-31955D01*
X76239Y-31861D01*
X76239Y-31760D01*
X76200Y-31666D01*
X76199Y-31666D01*
X77110Y-31666D01*
X78663Y-33218D01*
X78635Y-33286D01*
X78635Y-33453D01*
X78698Y-33607D01*
X78816Y-33725D01*
X78971Y-33790D01*
X79138Y-33790D01*
X79206Y-33761D01*
X79895Y-34450D01*
X79950Y-34487D01*
X79950Y-34487D01*
X80015Y-34500D01*
X82849Y-34500D01*
X82817Y-34513D01*
X82699Y-34631D01*
X82635Y-34786D01*
X82635Y-34953D01*
X82698Y-35107D01*
X82816Y-35225D01*
X82971Y-35290D01*
X83138Y-35290D01*
X83292Y-35226D01*
X83410Y-35108D01*
X83475Y-34953D01*
X83475Y-34786D01*
X83411Y-34632D01*
X83293Y-34514D01*
X83260Y-34500D01*
X83849Y-34500D01*
X83817Y-34513D01*
X83699Y-34631D01*
X83635Y-34786D01*
X83635Y-34953D01*
X83698Y-35107D01*
X83816Y-35225D01*
X83971Y-35290D01*
X84138Y-35290D01*
X84292Y-35226D01*
X84410Y-35108D01*
X84475Y-34953D01*
X84475Y-34786D01*
X84411Y-34632D01*
X84293Y-34514D01*
X84260Y-34500D01*
X84417Y-34500D01*
X84937Y-35020D01*
X84910Y-35020D01*
X84816Y-35059D01*
X84744Y-35130D01*
X84705Y-35224D01*
X84705Y-35326D01*
X84744Y-35419D01*
X84790Y-35466D01*
X84790Y-36894D01*
X84206Y-37478D01*
X84139Y-37450D01*
X83971Y-37450D01*
X83817Y-37513D01*
X83699Y-37631D01*
X83635Y-37786D01*
X83635Y-37953D01*
X83663Y-38021D01*
X83468Y-38215D01*
X83303Y-38215D01*
X83410Y-38108D01*
X83475Y-37953D01*
X83475Y-37786D01*
X83411Y-37632D01*
X83311Y-37532D01*
X83562Y-37532D01*
X83628Y-37519D01*
X83628Y-37519D01*
X83683Y-37482D01*
X83903Y-37261D01*
X83971Y-37290D01*
X84138Y-37290D01*
X84292Y-37226D01*
X84410Y-37108D01*
X84475Y-36953D01*
X84475Y-36786D01*
X84411Y-36632D01*
X84293Y-36514D01*
X84139Y-36450D01*
X83971Y-36450D01*
X83817Y-36513D01*
X83699Y-36631D01*
X83635Y-36786D01*
X83635Y-36953D01*
X83663Y-37021D01*
X83492Y-37192D01*
X83326Y-37192D01*
X83410Y-37108D01*
X83475Y-36953D01*
X83475Y-36786D01*
X83411Y-36632D01*
X83327Y-36547D01*
X83547Y-36547D01*
X83612Y-36535D01*
X83612Y-36535D01*
X83667Y-36498D01*
X83903Y-36261D01*
X83971Y-36290D01*
X84138Y-36290D01*
X84292Y-36226D01*
X84410Y-36108D01*
X84475Y-35953D01*
X84475Y-35786D01*
X84411Y-35632D01*
X84293Y-35514D01*
X84139Y-35450D01*
X83971Y-35450D01*
X83817Y-35513D01*
X83699Y-35631D01*
X83635Y-35786D01*
X83635Y-35953D01*
X83663Y-36021D01*
X83476Y-36207D01*
X83311Y-36207D01*
X83410Y-36108D01*
X83475Y-35953D01*
X83475Y-35786D01*
X83411Y-35632D01*
X83293Y-35514D01*
X83139Y-35450D01*
X82971Y-35450D01*
X82817Y-35513D01*
X82699Y-35631D01*
X82670Y-35700D01*
X82594Y-35700D01*
X82594Y-35700D01*
X82529Y-35713D01*
X82511Y-35725D01*
X82474Y-35749D01*
X82474Y-35749D01*
X81809Y-36414D01*
X81505Y-36414D01*
X81523Y-36396D01*
X81546Y-36396D01*
X81640Y-36358D01*
X81712Y-36286D01*
X81751Y-36192D01*
X81751Y-36091D01*
X81712Y-35997D01*
X81640Y-35925D01*
X81547Y-35886D01*
X81445Y-35886D01*
X81351Y-35925D01*
X81280Y-35997D01*
X81242Y-36088D01*
X81242Y-35960D01*
X81223Y-35916D01*
X81190Y-35882D01*
X81145Y-35864D01*
X81098Y-35864D01*
X80507Y-35864D01*
X80484Y-35873D01*
X80484Y-35590D01*
X80484Y-35275D01*
X80472Y-35210D01*
X80472Y-35210D01*
X80435Y-35155D01*
X79726Y-34446D01*
X79671Y-34409D01*
X79606Y-34396D01*
X77876Y-34396D01*
X77876Y-34366D01*
X77876Y-34137D01*
X77876Y-34090D01*
X77876Y-33736D01*
X77857Y-33691D01*
X77824Y-33658D01*
X77779Y-33639D01*
X77732Y-33639D01*
X77729Y-33639D01*
X77729Y-33543D01*
X77716Y-33478D01*
X77679Y-33423D01*
X77679Y-33423D01*
X77538Y-33282D01*
X77538Y-33217D01*
X77499Y-33123D01*
X77428Y-33051D01*
X77334Y-33012D01*
X77232Y-33012D01*
X77139Y-33051D01*
X77067Y-33123D01*
X77028Y-33216D01*
X77028Y-33318D01*
X77067Y-33411D01*
X77138Y-33483D01*
X77232Y-33522D01*
X77298Y-33522D01*
X77389Y-33613D01*
X77389Y-33639D01*
X77338Y-33639D01*
X77294Y-33658D01*
X77260Y-33691D01*
X77242Y-33736D01*
X77242Y-33783D01*
X77242Y-34137D01*
X77260Y-34181D01*
X77294Y-34215D01*
X77338Y-34233D01*
X77385Y-34233D01*
X77779Y-34233D01*
X77824Y-34215D01*
X77857Y-34181D01*
X77876Y-34137D01*
X77876Y-34366D01*
X77857Y-34321D01*
X77824Y-34288D01*
X77779Y-34269D01*
X77732Y-34269D01*
X77338Y-34269D01*
X77294Y-34288D01*
X77260Y-34321D01*
X77242Y-34366D01*
X77242Y-34396D01*
X77167Y-34396D01*
X77167Y-34366D01*
X77167Y-34137D01*
X77167Y-34090D01*
X77167Y-33736D01*
X77149Y-33691D01*
X77115Y-33658D01*
X77071Y-33639D01*
X77023Y-33639D01*
X77020Y-33639D01*
X77020Y-33503D01*
X77007Y-33438D01*
X77007Y-33438D01*
X76990Y-33412D01*
X76990Y-32019D01*
X76939Y-31896D01*
X76844Y-31801D01*
X76720Y-31750D01*
X76586Y-31750D01*
X76463Y-31801D01*
X76368Y-31895D01*
X76317Y-32019D01*
X76316Y-32153D01*
X76368Y-32276D01*
X76462Y-32371D01*
X76586Y-32423D01*
X76720Y-32423D01*
X76843Y-32372D01*
X76938Y-32277D01*
X76990Y-32153D01*
X76990Y-32019D01*
X76990Y-33412D01*
X76970Y-33383D01*
X76869Y-33282D01*
X76869Y-33217D01*
X76830Y-33123D01*
X76758Y-33051D01*
X76665Y-33012D01*
X76563Y-33012D01*
X76469Y-33051D01*
X76398Y-33123D01*
X76359Y-33216D01*
X76359Y-33318D01*
X76397Y-33411D01*
X76469Y-33483D01*
X76563Y-33522D01*
X76628Y-33522D01*
X76680Y-33574D01*
X76680Y-33639D01*
X76629Y-33639D01*
X76585Y-33658D01*
X76551Y-33691D01*
X76533Y-33736D01*
X76533Y-33783D01*
X76533Y-34137D01*
X76551Y-34181D01*
X76585Y-34215D01*
X76629Y-34233D01*
X76677Y-34233D01*
X77071Y-34233D01*
X77115Y-34215D01*
X77149Y-34181D01*
X77167Y-34137D01*
X77167Y-34366D01*
X77149Y-34321D01*
X77115Y-34288D01*
X77071Y-34269D01*
X77023Y-34269D01*
X76629Y-34269D01*
X76585Y-34288D01*
X76551Y-34321D01*
X76533Y-34366D01*
X76533Y-34413D01*
X76533Y-34711D01*
X76527Y-34711D01*
X76458Y-34643D01*
X76458Y-34366D01*
X76440Y-34321D01*
X76406Y-34288D01*
X76362Y-34269D01*
X76314Y-34269D01*
X75920Y-34269D01*
X75876Y-34288D01*
X75843Y-34321D01*
X75824Y-34366D01*
X75824Y-34396D01*
X75750Y-34396D01*
X75750Y-34366D01*
X75731Y-34321D01*
X75698Y-34288D01*
X75653Y-34269D01*
X75606Y-34269D01*
X75212Y-34269D01*
X75168Y-34288D01*
X75134Y-34321D01*
X75116Y-34366D01*
X75116Y-34413D01*
X75116Y-34767D01*
X75134Y-34811D01*
X75168Y-34845D01*
X75212Y-34863D01*
X75259Y-34863D01*
X75653Y-34863D01*
X75698Y-34845D01*
X75731Y-34811D01*
X75750Y-34767D01*
X75750Y-34736D01*
X75824Y-34736D01*
X75824Y-34767D01*
X75843Y-34811D01*
X75876Y-34845D01*
X75920Y-34863D01*
X75968Y-34863D01*
X76198Y-34863D01*
X76282Y-34948D01*
X74952Y-34948D01*
X74894Y-34890D01*
X74894Y-34863D01*
X74945Y-34863D01*
X74989Y-34845D01*
X75023Y-34811D01*
X75041Y-34767D01*
X75041Y-34720D01*
X75041Y-34366D01*
X75023Y-34321D01*
X74989Y-34288D01*
X74945Y-34269D01*
X74897Y-34269D01*
X74503Y-34269D01*
X74459Y-34288D01*
X74425Y-34321D01*
X74407Y-34366D01*
X74407Y-34413D01*
X74407Y-34767D01*
X74425Y-34811D01*
X74459Y-34845D01*
X74503Y-34863D01*
X74551Y-34863D01*
X74554Y-34863D01*
X74554Y-34960D01*
X74567Y-35025D01*
X74604Y-35080D01*
X74761Y-35238D01*
X74761Y-35238D01*
X74816Y-35275D01*
X74881Y-35288D01*
X79299Y-35288D01*
X79672Y-35660D01*
X79672Y-36614D01*
X79685Y-36679D01*
X79722Y-36734D01*
X80176Y-37188D01*
X80152Y-37193D01*
X80141Y-37195D01*
X80086Y-37232D01*
X79249Y-38068D01*
X79213Y-38123D01*
X79200Y-38188D01*
X79200Y-39370D01*
X79200Y-39842D01*
X79200Y-40017D01*
X78991Y-40017D01*
X78947Y-40036D01*
X78913Y-40069D01*
X78895Y-40114D01*
X78895Y-40144D01*
X78820Y-40144D01*
X78820Y-40114D01*
X78802Y-40069D01*
X78768Y-40036D01*
X78724Y-40017D01*
X78677Y-40017D01*
X78283Y-40017D01*
X78238Y-40036D01*
X78205Y-40069D01*
X78186Y-40114D01*
X78186Y-40161D01*
X78186Y-40515D01*
X78205Y-40559D01*
X78238Y-40593D01*
X78283Y-40611D01*
X78330Y-40611D01*
X78724Y-40611D01*
X78768Y-40593D01*
X78802Y-40559D01*
X78820Y-40515D01*
X78820Y-40484D01*
X78895Y-40484D01*
X78895Y-40515D01*
X78913Y-40559D01*
X78947Y-40593D01*
X78991Y-40611D01*
X79039Y-40611D01*
X79433Y-40611D01*
X79436Y-40610D01*
X79436Y-40649D01*
X79433Y-40647D01*
X79385Y-40647D01*
X78991Y-40647D01*
X78947Y-40666D01*
X78913Y-40699D01*
X78895Y-40744D01*
X78895Y-40791D01*
X78895Y-41145D01*
X78913Y-41189D01*
X78947Y-41223D01*
X78990Y-41241D01*
X78974Y-41257D01*
X78673Y-41558D01*
X78673Y-41241D01*
X78724Y-41241D01*
X78768Y-41223D01*
X78802Y-41189D01*
X78820Y-41145D01*
X78820Y-41098D01*
X78820Y-40744D01*
X78802Y-40699D01*
X78768Y-40666D01*
X78724Y-40647D01*
X78677Y-40647D01*
X78283Y-40647D01*
X78238Y-40666D01*
X78205Y-40699D01*
X78186Y-40744D01*
X78186Y-40791D01*
X78186Y-41145D01*
X78205Y-41189D01*
X78238Y-41223D01*
X78283Y-41241D01*
X78330Y-41241D01*
X78333Y-41241D01*
X78333Y-41504D01*
X76871Y-42966D01*
X76871Y-41598D01*
X76871Y-41447D01*
X76841Y-41417D01*
X76692Y-41417D01*
X76692Y-41664D01*
X76722Y-41694D01*
X76727Y-41694D01*
X76775Y-41694D01*
X76819Y-41676D01*
X76853Y-41642D01*
X76871Y-41598D01*
X76871Y-42966D01*
X76543Y-43294D01*
X76488Y-43294D01*
X76488Y-42425D01*
X76488Y-42377D01*
X76488Y-41983D01*
X76469Y-41939D01*
X76436Y-41905D01*
X76392Y-41887D01*
X76344Y-41887D01*
X75970Y-41887D01*
X75926Y-41905D01*
X75892Y-41939D01*
X75874Y-41983D01*
X75874Y-42031D01*
X75874Y-42425D01*
X75892Y-42469D01*
X75926Y-42503D01*
X75955Y-42515D01*
X75926Y-42586D01*
X75926Y-42688D01*
X75964Y-42782D01*
X76036Y-42853D01*
X76130Y-42892D01*
X76231Y-42892D01*
X76325Y-42854D01*
X76397Y-42782D01*
X76436Y-42688D01*
X76436Y-42587D01*
X76406Y-42515D01*
X76436Y-42503D01*
X76469Y-42469D01*
X76488Y-42425D01*
X76488Y-43294D01*
X75858Y-43294D01*
X75858Y-42425D01*
X75858Y-42377D01*
X75858Y-42294D01*
X75858Y-42114D01*
X75858Y-42031D01*
X75858Y-41983D01*
X75839Y-41939D01*
X75826Y-41926D01*
X75826Y-41664D01*
X75826Y-41417D01*
X75677Y-41417D01*
X75647Y-41447D01*
X75647Y-41598D01*
X75666Y-41642D01*
X75699Y-41676D01*
X75743Y-41694D01*
X75791Y-41694D01*
X75796Y-41694D01*
X75826Y-41664D01*
X75826Y-41926D01*
X75806Y-41905D01*
X75762Y-41887D01*
X75641Y-41887D01*
X75611Y-41917D01*
X75611Y-42144D01*
X75828Y-42144D01*
X75858Y-42114D01*
X75858Y-42294D01*
X75828Y-42264D01*
X75611Y-42264D01*
X75611Y-42491D01*
X75641Y-42521D01*
X75762Y-42521D01*
X75806Y-42503D01*
X75839Y-42469D01*
X75858Y-42425D01*
X75858Y-43294D01*
X75491Y-43294D01*
X75491Y-42491D01*
X75491Y-42264D01*
X75491Y-42144D01*
X75491Y-41917D01*
X75474Y-41901D01*
X75474Y-41116D01*
X75474Y-41068D01*
X75474Y-40694D01*
X75456Y-40650D01*
X75422Y-40616D01*
X75378Y-40598D01*
X75330Y-40598D01*
X74936Y-40598D01*
X74892Y-40616D01*
X74858Y-40650D01*
X74840Y-40694D01*
X74840Y-40742D01*
X74840Y-41116D01*
X74858Y-41160D01*
X74892Y-41194D01*
X74934Y-41211D01*
X74902Y-41287D01*
X74902Y-41389D01*
X74941Y-41482D01*
X75012Y-41554D01*
X75106Y-41593D01*
X75207Y-41593D01*
X75301Y-41554D01*
X75373Y-41483D01*
X75412Y-41389D01*
X75412Y-41288D01*
X75380Y-41211D01*
X75422Y-41194D01*
X75456Y-41160D01*
X75474Y-41116D01*
X75474Y-41901D01*
X75461Y-41887D01*
X75340Y-41887D01*
X75296Y-41905D01*
X75262Y-41939D01*
X75244Y-41983D01*
X75244Y-42031D01*
X75244Y-42114D01*
X75274Y-42144D01*
X75491Y-42144D01*
X75491Y-42264D01*
X75274Y-42264D01*
X75244Y-42294D01*
X75244Y-42377D01*
X75244Y-42425D01*
X75262Y-42469D01*
X75296Y-42503D01*
X75340Y-42521D01*
X75461Y-42521D01*
X75491Y-42491D01*
X75491Y-43294D01*
X75472Y-43294D01*
X75407Y-43307D01*
X75352Y-43344D01*
X74935Y-43760D01*
X74870Y-43760D01*
X74777Y-43799D01*
X74705Y-43871D01*
X74666Y-43964D01*
X74666Y-44066D01*
X74704Y-44160D01*
X74776Y-44231D01*
X74870Y-44270D01*
X74971Y-44270D01*
X75065Y-44232D01*
X75137Y-44160D01*
X75176Y-44066D01*
X75176Y-44001D01*
X75542Y-43634D01*
X75731Y-43634D01*
X75605Y-43760D01*
X75540Y-43760D01*
X75446Y-43799D01*
X75374Y-43871D01*
X75335Y-43964D01*
X75335Y-44066D01*
X75374Y-44160D01*
X75445Y-44231D01*
X75539Y-44270D01*
X75641Y-44270D01*
X75734Y-44232D01*
X75806Y-44160D01*
X75845Y-44066D01*
X75845Y-44001D01*
X75975Y-43870D01*
X76398Y-43870D01*
X76398Y-43871D01*
X76359Y-43964D01*
X76359Y-44066D01*
X76397Y-44160D01*
X76469Y-44231D01*
X76563Y-44270D01*
X76664Y-44270D01*
X76758Y-44232D01*
X76804Y-44185D01*
X76850Y-44185D01*
X76915Y-44172D01*
X76915Y-44172D01*
X76970Y-44135D01*
X77031Y-44074D01*
X77067Y-44160D01*
X77138Y-44231D01*
X77232Y-44270D01*
X77333Y-44270D01*
X77427Y-44232D01*
X77499Y-44160D01*
X77538Y-44066D01*
X77538Y-44001D01*
X79962Y-41576D01*
X79999Y-41521D01*
X79999Y-41521D01*
X80012Y-41456D01*
X80012Y-41240D01*
X80015Y-41241D01*
X80063Y-41241D01*
X80066Y-41241D01*
X80066Y-42291D01*
X77179Y-45178D01*
X77114Y-45178D01*
X77021Y-45216D01*
X76949Y-45288D01*
X76910Y-45382D01*
X76910Y-45483D01*
X76949Y-45577D01*
X77020Y-45649D01*
X77114Y-45688D01*
X77215Y-45688D01*
X77309Y-45649D01*
X77381Y-45577D01*
X77401Y-45529D01*
X77421Y-45577D01*
X77493Y-45649D01*
X77586Y-45688D01*
X77688Y-45688D01*
X77782Y-45649D01*
X77853Y-45577D01*
X77874Y-45529D01*
X77893Y-45577D01*
X77965Y-45649D01*
X78059Y-45688D01*
X78160Y-45688D01*
X78254Y-45649D01*
X78326Y-45577D01*
X78365Y-45484D01*
X78365Y-45418D01*
X81773Y-42009D01*
X81810Y-41954D01*
X81810Y-41954D01*
X81823Y-41889D01*
X81823Y-41241D01*
X81874Y-41241D01*
X81918Y-41223D01*
X81952Y-41189D01*
X81970Y-41145D01*
X81970Y-41098D01*
X81970Y-40744D01*
X81952Y-40699D01*
X81918Y-40666D01*
X81874Y-40647D01*
X81826Y-40647D01*
X81432Y-40647D01*
X81388Y-40666D01*
X81354Y-40699D01*
X81336Y-40744D01*
X81336Y-40791D01*
X81336Y-41145D01*
X81354Y-41189D01*
X81388Y-41223D01*
X81432Y-41241D01*
X81480Y-41241D01*
X81483Y-41241D01*
X81483Y-41819D01*
X81081Y-42220D01*
X81101Y-42191D01*
X81101Y-42191D01*
X81114Y-42125D01*
X81114Y-41241D01*
X81165Y-41241D01*
X81209Y-41223D01*
X81243Y-41189D01*
X81261Y-41145D01*
X81261Y-41098D01*
X81261Y-40744D01*
X81243Y-40699D01*
X81209Y-40666D01*
X81165Y-40647D01*
X81118Y-40647D01*
X80724Y-40647D01*
X80679Y-40666D01*
X80646Y-40699D01*
X80627Y-40744D01*
X80627Y-40791D01*
X80627Y-41145D01*
X80646Y-41189D01*
X80679Y-41223D01*
X80724Y-41241D01*
X80771Y-41241D01*
X80774Y-41241D01*
X80774Y-42055D01*
X80373Y-42457D01*
X80393Y-42427D01*
X80393Y-42427D01*
X80395Y-42416D01*
X80406Y-42362D01*
X80406Y-42362D01*
X80406Y-42362D01*
X80406Y-41241D01*
X80457Y-41241D01*
X80501Y-41223D01*
X80534Y-41189D01*
X80553Y-41145D01*
X80553Y-41098D01*
X80553Y-40744D01*
X80534Y-40699D01*
X80501Y-40666D01*
X80457Y-40647D01*
X80409Y-40647D01*
X80015Y-40647D01*
X80012Y-40649D01*
X80012Y-40610D01*
X80015Y-40611D01*
X80063Y-40611D01*
X80457Y-40611D01*
X80501Y-40593D01*
X80534Y-40559D01*
X80553Y-40515D01*
X80553Y-40468D01*
X80553Y-40163D01*
X80627Y-40238D01*
X80627Y-40515D01*
X80646Y-40559D01*
X80679Y-40593D01*
X80724Y-40611D01*
X80771Y-40611D01*
X81165Y-40611D01*
X81209Y-40593D01*
X81243Y-40559D01*
X81261Y-40515D01*
X81261Y-40484D01*
X81336Y-40484D01*
X81336Y-40515D01*
X81354Y-40559D01*
X81388Y-40593D01*
X81432Y-40611D01*
X81480Y-40611D01*
X81874Y-40611D01*
X81918Y-40593D01*
X81952Y-40559D01*
X81970Y-40515D01*
X81970Y-40468D01*
X81970Y-40114D01*
X81952Y-40069D01*
X81918Y-40036D01*
X81874Y-40017D01*
X81826Y-40017D01*
X81432Y-40017D01*
X81388Y-40036D01*
X81354Y-40069D01*
X81336Y-40114D01*
X81336Y-40144D01*
X81261Y-40144D01*
X81261Y-40114D01*
X81243Y-40069D01*
X81209Y-40036D01*
X81165Y-40017D01*
X81118Y-40017D01*
X81094Y-40017D01*
X81094Y-39669D01*
X81094Y-39621D01*
X81094Y-39538D01*
X81094Y-39358D01*
X81094Y-39275D01*
X81094Y-39227D01*
X81076Y-39183D01*
X81042Y-39150D01*
X80998Y-39131D01*
X80877Y-39131D01*
X80847Y-39161D01*
X80847Y-39388D01*
X81064Y-39388D01*
X81094Y-39358D01*
X81094Y-39538D01*
X81064Y-39508D01*
X80847Y-39508D01*
X80847Y-39735D01*
X80877Y-39765D01*
X80998Y-39765D01*
X81042Y-39747D01*
X81076Y-39713D01*
X81094Y-39669D01*
X81094Y-40017D01*
X80888Y-40017D01*
X80636Y-39765D01*
X80697Y-39765D01*
X80727Y-39735D01*
X80727Y-39508D01*
X80719Y-39508D01*
X80719Y-39388D01*
X80727Y-39388D01*
X80727Y-39161D01*
X80697Y-39131D01*
X80576Y-39131D01*
X80532Y-39150D01*
X80498Y-39183D01*
X80484Y-39216D01*
X80484Y-39086D01*
X80507Y-39096D01*
X80736Y-39096D01*
X80766Y-39066D01*
X80766Y-38932D01*
X80758Y-38932D01*
X80758Y-38843D01*
X80766Y-38843D01*
X80766Y-38840D01*
X80886Y-38840D01*
X80886Y-38843D01*
X80894Y-38843D01*
X80894Y-38932D01*
X80886Y-38932D01*
X80886Y-39066D01*
X80916Y-39096D01*
X81145Y-39096D01*
X81162Y-39089D01*
X81162Y-39105D01*
X81177Y-39143D01*
X81162Y-39150D01*
X81128Y-39183D01*
X81110Y-39227D01*
X81110Y-39275D01*
X81110Y-39669D01*
X81128Y-39713D01*
X81162Y-39747D01*
X81206Y-39765D01*
X81254Y-39765D01*
X81628Y-39765D01*
X81672Y-39747D01*
X81706Y-39713D01*
X81724Y-39669D01*
X81724Y-39621D01*
X81724Y-39227D01*
X81706Y-39183D01*
X81672Y-39150D01*
X81656Y-39143D01*
X81672Y-39106D01*
X81672Y-39004D01*
X81633Y-38910D01*
X81561Y-38839D01*
X81472Y-38801D01*
X81632Y-38801D01*
X82556Y-39726D01*
X82556Y-39726D01*
X82556Y-39726D01*
X82593Y-39751D01*
X82612Y-39763D01*
X82612Y-39763D01*
X82677Y-39776D01*
X82677Y-39776D01*
X82677Y-39776D01*
X82865Y-39776D01*
X82847Y-39783D01*
X82776Y-39855D01*
X82737Y-39949D01*
X82737Y-40050D01*
X82775Y-40144D01*
X82847Y-40216D01*
X82941Y-40254D01*
X83042Y-40255D01*
X83136Y-40216D01*
X83152Y-40200D01*
X83167Y-40200D01*
X83167Y-40220D01*
X83185Y-40264D01*
X83219Y-40298D01*
X83263Y-40317D01*
X83311Y-40317D01*
X83665Y-40317D01*
X83709Y-40298D01*
X83743Y-40264D01*
X83761Y-40220D01*
X83761Y-40173D01*
X83761Y-39779D01*
X83760Y-39776D01*
X83798Y-39776D01*
X83797Y-39779D01*
X83797Y-39826D01*
X83797Y-40220D01*
X83815Y-40264D01*
X83849Y-40298D01*
X83893Y-40317D01*
X83941Y-40317D01*
X84295Y-40317D01*
X84339Y-40298D01*
X84373Y-40264D01*
X84391Y-40220D01*
X84391Y-40173D01*
X84391Y-39779D01*
X84390Y-39776D01*
X84417Y-39776D01*
X85026Y-40385D01*
X85026Y-50716D01*
X85026Y-50716D01*
G37*
X85026Y-50716D02*
X84736Y-51006D01*
X84736Y-49370D01*
X84723Y-49305D01*
X84723Y-49305D01*
X84687Y-49249D01*
X84475Y-49037D01*
X84475Y-45786D01*
X84475Y-44786D01*
X84475Y-43786D01*
X84475Y-42786D01*
X84475Y-41786D01*
X84411Y-41632D01*
X84293Y-41514D01*
X84139Y-41450D01*
X83971Y-41450D01*
X83817Y-41513D01*
X83699Y-41631D01*
X83635Y-41786D01*
X83635Y-41953D01*
X83698Y-42107D01*
X83816Y-42225D01*
X83971Y-42290D01*
X84138Y-42290D01*
X84292Y-42226D01*
X84410Y-42108D01*
X84475Y-41953D01*
X84475Y-41786D01*
X84475Y-42786D01*
X84411Y-42632D01*
X84293Y-42514D01*
X84139Y-42450D01*
X83971Y-42450D01*
X83817Y-42513D01*
X83699Y-42631D01*
X83635Y-42786D01*
X83635Y-42953D01*
X83698Y-43107D01*
X83816Y-43225D01*
X83971Y-43290D01*
X84138Y-43290D01*
X84292Y-43226D01*
X84410Y-43108D01*
X84475Y-42953D01*
X84475Y-42786D01*
X84475Y-43786D01*
X84411Y-43632D01*
X84293Y-43514D01*
X84139Y-43450D01*
X83971Y-43450D01*
X83817Y-43513D01*
X83699Y-43631D01*
X83635Y-43786D01*
X83635Y-43953D01*
X83698Y-44107D01*
X83816Y-44225D01*
X83971Y-44290D01*
X84138Y-44290D01*
X84292Y-44226D01*
X84410Y-44108D01*
X84475Y-43953D01*
X84475Y-43786D01*
X84475Y-44786D01*
X84411Y-44632D01*
X84293Y-44514D01*
X84139Y-44450D01*
X83971Y-44450D01*
X83817Y-44513D01*
X83699Y-44631D01*
X83635Y-44786D01*
X83635Y-44953D01*
X83698Y-45107D01*
X83816Y-45225D01*
X83971Y-45290D01*
X84138Y-45290D01*
X84292Y-45226D01*
X84410Y-45108D01*
X84475Y-44953D01*
X84475Y-44786D01*
X84475Y-45786D01*
X84411Y-45632D01*
X84293Y-45514D01*
X84139Y-45450D01*
X83971Y-45450D01*
X83817Y-45513D01*
X83699Y-45631D01*
X83635Y-45786D01*
X83635Y-45953D01*
X83698Y-46107D01*
X83816Y-46225D01*
X83971Y-46290D01*
X84138Y-46290D01*
X84292Y-46226D01*
X84410Y-46108D01*
X84475Y-45953D01*
X84475Y-45786D01*
X84475Y-49037D01*
X84475Y-49037D01*
X84475Y-47193D01*
X84475Y-47146D01*
X84475Y-46546D01*
X84456Y-46502D01*
X84423Y-46468D01*
X84378Y-46450D01*
X84331Y-46450D01*
X83731Y-46450D01*
X83687Y-46468D01*
X83653Y-46502D01*
X83635Y-46546D01*
X83635Y-46593D01*
X83635Y-47193D01*
X83653Y-47238D01*
X83687Y-47271D01*
X83731Y-47290D01*
X83778Y-47290D01*
X84378Y-47290D01*
X84423Y-47271D01*
X84456Y-47238D01*
X84475Y-47193D01*
X84475Y-49037D01*
X83899Y-48462D01*
X83844Y-48425D01*
X83779Y-48412D01*
X83475Y-48412D01*
X83475Y-46786D01*
X83475Y-45786D01*
X83475Y-44786D01*
X83475Y-43786D01*
X83475Y-42786D01*
X83475Y-41786D01*
X83411Y-41632D01*
X83293Y-41514D01*
X83139Y-41450D01*
X82971Y-41450D01*
X82817Y-41513D01*
X82699Y-41631D01*
X82635Y-41786D01*
X82635Y-41953D01*
X82698Y-42107D01*
X82816Y-42225D01*
X82971Y-42290D01*
X83138Y-42290D01*
X83292Y-42226D01*
X83410Y-42108D01*
X83475Y-41953D01*
X83475Y-41786D01*
X83475Y-42786D01*
X83411Y-42632D01*
X83293Y-42514D01*
X83139Y-42450D01*
X82971Y-42450D01*
X82817Y-42513D01*
X82699Y-42631D01*
X82635Y-42786D01*
X82635Y-42953D01*
X82698Y-43107D01*
X82816Y-43225D01*
X82971Y-43290D01*
X83138Y-43290D01*
X83292Y-43226D01*
X83410Y-43108D01*
X83475Y-42953D01*
X83475Y-42786D01*
X83475Y-43786D01*
X83411Y-43632D01*
X83293Y-43514D01*
X83139Y-43450D01*
X82971Y-43450D01*
X82817Y-43513D01*
X82699Y-43631D01*
X82635Y-43786D01*
X82635Y-43953D01*
X82698Y-44107D01*
X82816Y-44225D01*
X82971Y-44290D01*
X83138Y-44290D01*
X83292Y-44226D01*
X83410Y-44108D01*
X83475Y-43953D01*
X83475Y-43786D01*
X83475Y-44786D01*
X83411Y-44632D01*
X83293Y-44514D01*
X83139Y-44450D01*
X82971Y-44450D01*
X82817Y-44513D01*
X82699Y-44631D01*
X82635Y-44786D01*
X82635Y-44953D01*
X82698Y-45107D01*
X82816Y-45225D01*
X82971Y-45290D01*
X83138Y-45290D01*
X83292Y-45226D01*
X83410Y-45108D01*
X83475Y-44953D01*
X83475Y-44786D01*
X83475Y-45786D01*
X83411Y-45632D01*
X83293Y-45514D01*
X83139Y-45450D01*
X82971Y-45450D01*
X82817Y-45513D01*
X82699Y-45631D01*
X82635Y-45786D01*
X82635Y-45953D01*
X82698Y-46107D01*
X82816Y-46225D01*
X82971Y-46290D01*
X83138Y-46290D01*
X83292Y-46226D01*
X83410Y-46108D01*
X83475Y-45953D01*
X83475Y-45786D01*
X83475Y-46786D01*
X83411Y-46632D01*
X83293Y-46514D01*
X83139Y-46450D01*
X82971Y-46450D01*
X82817Y-46513D01*
X82699Y-46631D01*
X82635Y-46786D01*
X82635Y-46953D01*
X82698Y-47107D01*
X82816Y-47225D01*
X82971Y-47290D01*
X83138Y-47290D01*
X83292Y-47226D01*
X83410Y-47108D01*
X83475Y-46953D01*
X83475Y-46786D01*
X83475Y-48412D01*
X76990Y-48412D01*
X76990Y-47374D01*
X76939Y-47250D01*
X76844Y-47155D01*
X76720Y-47104D01*
X76586Y-47104D01*
X76463Y-47155D01*
X76368Y-47250D01*
X76317Y-47373D01*
X76316Y-47507D01*
X76368Y-47631D01*
X76462Y-47726D01*
X76586Y-47777D01*
X76720Y-47777D01*
X76843Y-47726D01*
X76938Y-47631D01*
X76990Y-47508D01*
X76990Y-47374D01*
X76990Y-48412D01*
X75277Y-48412D01*
X75277Y-45732D01*
X75235Y-45630D01*
X75157Y-45552D01*
X75055Y-45509D01*
X74945Y-45509D01*
X74843Y-45552D01*
X74764Y-45630D01*
X74722Y-45731D01*
X74722Y-45842D01*
X74764Y-45944D01*
X74842Y-46022D01*
X74944Y-46064D01*
X75054Y-46064D01*
X75156Y-46022D01*
X75235Y-45944D01*
X75277Y-45842D01*
X75277Y-45732D01*
X75277Y-48412D01*
X74007Y-48412D01*
X73506Y-47911D01*
X73450Y-47874D01*
X73385Y-47861D01*
X70110Y-47861D01*
X70120Y-47838D01*
X70120Y-47791D01*
X70120Y-47724D01*
X70130Y-47735D01*
X70224Y-47774D01*
X70326Y-47774D01*
X70419Y-47735D01*
X70491Y-47664D01*
X70530Y-47570D01*
X70530Y-47469D01*
X70491Y-47375D01*
X70420Y-47303D01*
X70326Y-47264D01*
X70225Y-47264D01*
X70131Y-47303D01*
X70120Y-47314D01*
X70120Y-47200D01*
X70101Y-47156D01*
X70067Y-47122D01*
X70026Y-47105D01*
X70050Y-47105D01*
X70144Y-47066D01*
X70216Y-46995D01*
X70254Y-46901D01*
X70255Y-46799D01*
X70216Y-46706D01*
X70200Y-46689D01*
X70200Y-44492D01*
X75043Y-39648D01*
X75647Y-39648D01*
X75647Y-39669D01*
X75666Y-39713D01*
X75685Y-39733D01*
X75685Y-39991D01*
X75666Y-40011D01*
X75647Y-40055D01*
X75647Y-40095D01*
X75474Y-40095D01*
X75474Y-40064D01*
X75456Y-40020D01*
X75422Y-39986D01*
X75378Y-39968D01*
X75330Y-39968D01*
X74936Y-39968D01*
X74892Y-39986D01*
X74858Y-40020D01*
X74840Y-40064D01*
X74840Y-40112D01*
X74840Y-40486D01*
X74858Y-40530D01*
X74892Y-40564D01*
X74936Y-40582D01*
X74984Y-40582D01*
X75378Y-40582D01*
X75422Y-40564D01*
X75456Y-40530D01*
X75470Y-40495D01*
X75647Y-40495D01*
X75647Y-40536D01*
X75666Y-40580D01*
X75680Y-40594D01*
X75643Y-40610D01*
X75571Y-40682D01*
X75532Y-40775D01*
X75532Y-40877D01*
X75571Y-40971D01*
X75642Y-41042D01*
X75680Y-41058D01*
X75666Y-41073D01*
X75647Y-41117D01*
X75647Y-41267D01*
X75677Y-41297D01*
X75826Y-41297D01*
X75826Y-41289D01*
X75944Y-41289D01*
X75944Y-41297D01*
X75953Y-41297D01*
X75953Y-41417D01*
X75944Y-41417D01*
X75944Y-41664D01*
X75974Y-41694D01*
X75979Y-41694D01*
X76027Y-41694D01*
X76071Y-41676D01*
X76072Y-41674D01*
X76073Y-41676D01*
X76117Y-41694D01*
X76165Y-41694D01*
X76401Y-41694D01*
X76445Y-41676D01*
X76446Y-41674D01*
X76447Y-41676D01*
X76491Y-41694D01*
X76539Y-41694D01*
X76544Y-41694D01*
X76574Y-41664D01*
X76574Y-41417D01*
X76565Y-41417D01*
X76565Y-41297D01*
X76574Y-41297D01*
X76574Y-41289D01*
X76692Y-41289D01*
X76692Y-41297D01*
X76841Y-41297D01*
X76871Y-41267D01*
X76871Y-41117D01*
X76853Y-41073D01*
X76838Y-41058D01*
X76876Y-41043D01*
X76892Y-41026D01*
X77045Y-41026D01*
X77045Y-41106D01*
X77063Y-41150D01*
X77097Y-41184D01*
X77141Y-41202D01*
X77142Y-41202D01*
X77107Y-41287D01*
X77107Y-41389D01*
X77145Y-41482D01*
X77217Y-41554D01*
X77311Y-41593D01*
X77412Y-41593D01*
X77506Y-41554D01*
X77578Y-41483D01*
X77617Y-41389D01*
X77617Y-41288D01*
X77581Y-41202D01*
X77583Y-41202D01*
X77627Y-41184D01*
X77660Y-41150D01*
X77679Y-41106D01*
X77679Y-41058D01*
X77679Y-40704D01*
X77660Y-40660D01*
X77627Y-40626D01*
X77583Y-40608D01*
X77535Y-40608D01*
X77141Y-40608D01*
X77097Y-40626D01*
X76892Y-40626D01*
X76876Y-40610D01*
X76838Y-40594D01*
X76853Y-40580D01*
X76871Y-40536D01*
X76871Y-40488D01*
X76871Y-40475D01*
X77045Y-40475D01*
X77045Y-40476D01*
X77063Y-40520D01*
X77097Y-40554D01*
X77141Y-40572D01*
X77189Y-40572D01*
X77583Y-40572D01*
X77627Y-40554D01*
X77660Y-40520D01*
X77679Y-40476D01*
X77679Y-40428D01*
X77679Y-40074D01*
X77660Y-40030D01*
X77627Y-39996D01*
X77583Y-39978D01*
X77535Y-39978D01*
X77141Y-39978D01*
X77097Y-39996D01*
X77063Y-40030D01*
X77045Y-40074D01*
X77045Y-40075D01*
X76871Y-40075D01*
X76871Y-40055D01*
X76853Y-40011D01*
X76833Y-39991D01*
X76833Y-39733D01*
X76853Y-39713D01*
X76871Y-39669D01*
X76871Y-39621D01*
X76871Y-39227D01*
X76853Y-39183D01*
X76846Y-39176D01*
X77084Y-39176D01*
X77084Y-39344D01*
X77102Y-39388D01*
X77136Y-39422D01*
X77180Y-39440D01*
X77228Y-39440D01*
X77622Y-39440D01*
X77666Y-39422D01*
X77700Y-39388D01*
X77718Y-39344D01*
X77718Y-39297D01*
X77718Y-39099D01*
X77730Y-39087D01*
X78203Y-39087D01*
X78224Y-39096D01*
X78271Y-39096D01*
X78862Y-39096D01*
X78906Y-39078D01*
X78940Y-39044D01*
X78958Y-39000D01*
X78958Y-38952D01*
X78958Y-38775D01*
X78952Y-38759D01*
X78958Y-38744D01*
X78958Y-38696D01*
X78958Y-38519D01*
X78952Y-38503D01*
X78958Y-38488D01*
X78958Y-38440D01*
X78958Y-38263D01*
X78952Y-38248D01*
X78958Y-38232D01*
X78958Y-38184D01*
X78958Y-38007D01*
X78952Y-37992D01*
X78958Y-37976D01*
X78958Y-37928D01*
X78958Y-37751D01*
X78952Y-37736D01*
X78958Y-37720D01*
X78958Y-37672D01*
X78958Y-37495D01*
X78952Y-37480D01*
X78958Y-37464D01*
X78958Y-37417D01*
X78958Y-37239D01*
X78952Y-37224D01*
X78958Y-37208D01*
X78958Y-37161D01*
X78958Y-36984D01*
X78952Y-36968D01*
X78958Y-36953D01*
X78958Y-36905D01*
X78958Y-36728D01*
X78952Y-36712D01*
X78958Y-36697D01*
X78958Y-36649D01*
X78958Y-36472D01*
X78952Y-36456D01*
X78958Y-36441D01*
X78958Y-36393D01*
X78958Y-36216D01*
X78952Y-36200D01*
X78958Y-36185D01*
X78958Y-36137D01*
X78958Y-35960D01*
X78940Y-35916D01*
X78906Y-35882D01*
X78862Y-35864D01*
X78814Y-35864D01*
X78224Y-35864D01*
X78203Y-35872D01*
X78129Y-35872D01*
X78129Y-35855D01*
X78090Y-35761D01*
X78018Y-35689D01*
X77924Y-35650D01*
X77823Y-35650D01*
X77729Y-35689D01*
X77657Y-35760D01*
X77619Y-35854D01*
X77618Y-35956D01*
X77657Y-36049D01*
X77729Y-36121D01*
X77818Y-36158D01*
X75324Y-36158D01*
X75259Y-36171D01*
X75204Y-36208D01*
X73630Y-37782D01*
X72679Y-37782D01*
X72679Y-37445D01*
X72679Y-37334D01*
X72679Y-37154D01*
X72679Y-37043D01*
X72660Y-36999D01*
X72627Y-36965D01*
X72583Y-36947D01*
X72535Y-36947D01*
X72452Y-36947D01*
X72422Y-36977D01*
X72422Y-37184D01*
X72649Y-37184D01*
X72679Y-37154D01*
X72679Y-37334D01*
X72649Y-37304D01*
X72422Y-37304D01*
X72422Y-37511D01*
X72452Y-37541D01*
X72535Y-37541D01*
X72583Y-37541D01*
X72627Y-37522D01*
X72660Y-37489D01*
X72679Y-37445D01*
X72679Y-37782D01*
X72302Y-37782D01*
X72302Y-37511D01*
X72302Y-37304D01*
X72302Y-37184D01*
X72302Y-36977D01*
X72272Y-36947D01*
X72189Y-36947D01*
X72141Y-36947D01*
X72097Y-36965D01*
X72063Y-36999D01*
X72045Y-37043D01*
X72045Y-37154D01*
X72075Y-37184D01*
X72302Y-37184D01*
X72302Y-37304D01*
X72075Y-37304D01*
X72045Y-37334D01*
X72045Y-37445D01*
X72063Y-37489D01*
X72097Y-37522D01*
X72141Y-37541D01*
X72189Y-37541D01*
X72272Y-37541D01*
X72302Y-37511D01*
X72302Y-37782D01*
X71960Y-37782D01*
X71960Y-37445D01*
X71960Y-37397D01*
X71960Y-37392D01*
X71960Y-37214D01*
X71960Y-37208D01*
X71960Y-37161D01*
X71942Y-37117D01*
X71908Y-37083D01*
X71864Y-37065D01*
X71723Y-37065D01*
X71693Y-37095D01*
X71693Y-37244D01*
X71930Y-37244D01*
X71960Y-37214D01*
X71960Y-37392D01*
X71930Y-37362D01*
X71693Y-37362D01*
X71693Y-37511D01*
X71723Y-37541D01*
X71864Y-37541D01*
X71908Y-37522D01*
X71942Y-37489D01*
X71960Y-37445D01*
X71960Y-37782D01*
X71573Y-37782D01*
X71573Y-37511D01*
X71573Y-37362D01*
X71573Y-37244D01*
X71573Y-37095D01*
X71543Y-37065D01*
X71403Y-37065D01*
X71359Y-37083D01*
X71325Y-37117D01*
X71307Y-37161D01*
X71307Y-37208D01*
X71307Y-37214D01*
X71337Y-37244D01*
X71573Y-37244D01*
X71573Y-37362D01*
X71337Y-37362D01*
X71307Y-37392D01*
X71307Y-37397D01*
X71307Y-37445D01*
X71325Y-37489D01*
X71359Y-37522D01*
X71403Y-37541D01*
X71543Y-37541D01*
X71573Y-37511D01*
X71573Y-37782D01*
X69338Y-37782D01*
X69356Y-37775D01*
X69428Y-37703D01*
X69467Y-37610D01*
X69467Y-37508D01*
X69428Y-37414D01*
X69357Y-37343D01*
X69263Y-37304D01*
X69162Y-37304D01*
X69068Y-37342D01*
X68996Y-37414D01*
X68978Y-37458D01*
X68978Y-37099D01*
X70314Y-37099D01*
X70413Y-37099D01*
X70419Y-37115D01*
X70453Y-37148D01*
X70497Y-37167D01*
X70545Y-37167D01*
X70958Y-37167D01*
X71003Y-37148D01*
X71036Y-37115D01*
X71055Y-37071D01*
X71055Y-37023D01*
X71055Y-36787D01*
X71036Y-36743D01*
X71003Y-36709D01*
X70958Y-36691D01*
X70911Y-36691D01*
X70497Y-36691D01*
X70453Y-36709D01*
X70419Y-36743D01*
X70413Y-36759D01*
X70314Y-36759D01*
X69903Y-36759D01*
X69903Y-36716D01*
X69903Y-36545D01*
X70122Y-36545D01*
X70166Y-36526D01*
X70200Y-36493D01*
X70218Y-36449D01*
X70218Y-36401D01*
X70218Y-35813D01*
X70273Y-35868D01*
X70273Y-35868D01*
X70328Y-35905D01*
X70393Y-35918D01*
X70411Y-35918D01*
X70411Y-36126D01*
X70429Y-36170D01*
X70463Y-36204D01*
X70507Y-36222D01*
X70555Y-36222D01*
X70909Y-36222D01*
X70953Y-36204D01*
X70987Y-36170D01*
X71005Y-36126D01*
X71005Y-36078D01*
X71005Y-35684D01*
X70987Y-35640D01*
X70953Y-35606D01*
X70914Y-35590D01*
X70953Y-35574D01*
X70987Y-35540D01*
X71005Y-35496D01*
X71005Y-35448D01*
X71005Y-35054D01*
X70987Y-35010D01*
X70953Y-34976D01*
X70914Y-34960D01*
X70953Y-34944D01*
X70987Y-34910D01*
X71005Y-34866D01*
X71005Y-34818D01*
X71005Y-34424D01*
X70987Y-34380D01*
X70953Y-34346D01*
X70914Y-34330D01*
X70953Y-34314D01*
X70987Y-34280D01*
X71005Y-34236D01*
X71005Y-34188D01*
X71005Y-33794D01*
X70987Y-33750D01*
X70953Y-33717D01*
X70914Y-33700D01*
X70953Y-33684D01*
X70987Y-33650D01*
X71005Y-33606D01*
X71005Y-33558D01*
X71005Y-33164D01*
X70987Y-33120D01*
X70953Y-33087D01*
X70914Y-33070D01*
X70953Y-33054D01*
X70987Y-33020D01*
X71005Y-32976D01*
X71005Y-32929D01*
X71005Y-32535D01*
X70987Y-32490D01*
X70953Y-32457D01*
X70914Y-32440D01*
X70953Y-32424D01*
X70987Y-32390D01*
X71005Y-32346D01*
X71005Y-32299D01*
X71005Y-32033D01*
X71041Y-32069D01*
X71041Y-32346D01*
X71059Y-32390D01*
X71093Y-32424D01*
X71132Y-32440D01*
X71093Y-32457D01*
X71059Y-32490D01*
X71041Y-32535D01*
X71041Y-32582D01*
X71041Y-32976D01*
X71059Y-33020D01*
X71093Y-33054D01*
X71132Y-33070D01*
X71093Y-33087D01*
X71059Y-33120D01*
X71041Y-33164D01*
X71041Y-33212D01*
X71041Y-33606D01*
X71059Y-33650D01*
X71093Y-33684D01*
X71132Y-33700D01*
X71093Y-33717D01*
X71059Y-33750D01*
X71041Y-33794D01*
X71041Y-33842D01*
X71041Y-34236D01*
X71059Y-34280D01*
X71093Y-34314D01*
X71132Y-34330D01*
X71093Y-34346D01*
X71059Y-34380D01*
X71041Y-34424D01*
X71041Y-34472D01*
X71041Y-34866D01*
X71059Y-34910D01*
X71093Y-34944D01*
X71132Y-34960D01*
X71093Y-34976D01*
X71059Y-35010D01*
X71041Y-35054D01*
X71041Y-35102D01*
X71041Y-35496D01*
X71059Y-35540D01*
X71093Y-35574D01*
X71132Y-35590D01*
X71093Y-35606D01*
X71059Y-35640D01*
X71041Y-35684D01*
X71041Y-35732D01*
X71041Y-36126D01*
X71059Y-36170D01*
X71093Y-36204D01*
X71137Y-36222D01*
X71185Y-36222D01*
X71539Y-36222D01*
X71583Y-36204D01*
X71617Y-36170D01*
X71635Y-36126D01*
X71635Y-36090D01*
X71666Y-36121D01*
X71760Y-36160D01*
X71861Y-36160D01*
X71955Y-36121D01*
X72027Y-36050D01*
X72045Y-36006D01*
X72045Y-36106D01*
X72063Y-36150D01*
X72097Y-36184D01*
X72141Y-36202D01*
X72189Y-36202D01*
X72192Y-36202D01*
X72192Y-36317D01*
X72141Y-36317D01*
X72097Y-36335D01*
X72063Y-36369D01*
X72056Y-36385D01*
X71948Y-36385D01*
X71942Y-36369D01*
X71908Y-36335D01*
X71864Y-36317D01*
X71816Y-36317D01*
X71403Y-36317D01*
X71359Y-36335D01*
X71325Y-36369D01*
X71307Y-36413D01*
X71307Y-36460D01*
X71307Y-36697D01*
X71325Y-36741D01*
X71359Y-36774D01*
X71403Y-36793D01*
X71451Y-36793D01*
X71864Y-36793D01*
X71908Y-36774D01*
X71942Y-36741D01*
X71948Y-36725D01*
X72045Y-36725D01*
X72045Y-36815D01*
X72063Y-36859D01*
X72097Y-36892D01*
X72141Y-36911D01*
X72189Y-36911D01*
X72583Y-36911D01*
X72627Y-36892D01*
X72660Y-36859D01*
X72679Y-36815D01*
X72679Y-36767D01*
X72679Y-36413D01*
X72660Y-36369D01*
X72627Y-36335D01*
X72583Y-36317D01*
X72535Y-36317D01*
X72532Y-36317D01*
X72532Y-36202D01*
X72583Y-36202D01*
X72627Y-36184D01*
X72660Y-36150D01*
X72679Y-36106D01*
X72679Y-36058D01*
X72679Y-35704D01*
X72660Y-35660D01*
X72627Y-35626D01*
X72583Y-35608D01*
X72535Y-35608D01*
X72141Y-35608D01*
X72097Y-35626D01*
X72063Y-35660D01*
X72045Y-35704D01*
X72045Y-35752D01*
X72045Y-35804D01*
X72027Y-35761D01*
X71955Y-35689D01*
X71861Y-35650D01*
X71760Y-35650D01*
X71666Y-35689D01*
X71635Y-35720D01*
X71635Y-35684D01*
X71617Y-35640D01*
X71583Y-35606D01*
X71544Y-35590D01*
X71583Y-35574D01*
X71617Y-35540D01*
X71635Y-35496D01*
X71635Y-35460D01*
X71666Y-35491D01*
X71760Y-35530D01*
X71861Y-35530D01*
X71955Y-35491D01*
X72027Y-35420D01*
X72045Y-35376D01*
X72045Y-35476D01*
X72063Y-35520D01*
X72097Y-35554D01*
X72141Y-35572D01*
X72189Y-35572D01*
X72583Y-35572D01*
X72627Y-35554D01*
X72660Y-35520D01*
X72679Y-35476D01*
X72679Y-35428D01*
X72679Y-35074D01*
X72660Y-35030D01*
X72627Y-34996D01*
X72583Y-34978D01*
X72535Y-34978D01*
X72532Y-34978D01*
X72532Y-34164D01*
X74631Y-32066D01*
X74696Y-32066D01*
X74789Y-32027D01*
X74861Y-31955D01*
X74900Y-31861D01*
X74900Y-31760D01*
X74861Y-31666D01*
X74861Y-31666D01*
X75374Y-31666D01*
X75374Y-31666D01*
X75335Y-31760D01*
X75335Y-31861D01*
X75374Y-31955D01*
X75420Y-32001D01*
X75420Y-33639D01*
X75212Y-33639D01*
X75176Y-33654D01*
X75176Y-33217D01*
X75137Y-33123D01*
X75065Y-33051D01*
X74972Y-33012D01*
X74870Y-33012D01*
X74777Y-33051D01*
X74705Y-33123D01*
X74666Y-33216D01*
X74666Y-33282D01*
X74604Y-33344D01*
X74567Y-33399D01*
X74554Y-33464D01*
X74554Y-33639D01*
X74503Y-33639D01*
X74459Y-33658D01*
X74425Y-33691D01*
X74407Y-33736D01*
X74407Y-33783D01*
X74407Y-34137D01*
X74425Y-34181D01*
X74459Y-34215D01*
X74503Y-34233D01*
X74551Y-34233D01*
X74945Y-34233D01*
X74989Y-34215D01*
X75023Y-34181D01*
X75041Y-34137D01*
X75041Y-34090D01*
X75041Y-33736D01*
X75023Y-33691D01*
X74989Y-33658D01*
X74945Y-33639D01*
X74897Y-33639D01*
X74894Y-33639D01*
X74894Y-33534D01*
X74906Y-33522D01*
X74971Y-33522D01*
X75065Y-33484D01*
X75137Y-33412D01*
X75176Y-33318D01*
X75176Y-33217D01*
X75176Y-33654D01*
X75168Y-33658D01*
X75134Y-33691D01*
X75116Y-33736D01*
X75116Y-33783D01*
X75116Y-34137D01*
X75134Y-34181D01*
X75168Y-34215D01*
X75212Y-34233D01*
X75259Y-34233D01*
X75653Y-34233D01*
X75698Y-34215D01*
X75731Y-34181D01*
X75750Y-34137D01*
X75750Y-34090D01*
X75750Y-33832D01*
X75760Y-33779D01*
X75760Y-32001D01*
X75787Y-31974D01*
X75814Y-32001D01*
X75814Y-33779D01*
X75824Y-33832D01*
X75824Y-34137D01*
X75843Y-34181D01*
X75876Y-34215D01*
X75920Y-34233D01*
X75968Y-34233D01*
X76362Y-34233D01*
X76406Y-34215D01*
X76440Y-34181D01*
X76458Y-34137D01*
X76458Y-34090D01*
X76458Y-33736D01*
X76440Y-33691D01*
X76406Y-33658D01*
X76362Y-33639D01*
X76314Y-33639D01*
X76154Y-33639D01*
X76154Y-32001D01*
X76200Y-31955D01*
X76239Y-31861D01*
X76239Y-31760D01*
X76200Y-31666D01*
X76199Y-31666D01*
X77110Y-31666D01*
X78663Y-33218D01*
X78635Y-33286D01*
X78635Y-33453D01*
X78698Y-33607D01*
X78816Y-33725D01*
X78971Y-33790D01*
X79138Y-33790D01*
X79206Y-33761D01*
X79895Y-34450D01*
X79950Y-34487D01*
X79950Y-34487D01*
X80015Y-34500D01*
X82849Y-34500D01*
X82817Y-34513D01*
X82699Y-34631D01*
X82635Y-34786D01*
X82635Y-34953D01*
X82698Y-35107D01*
X82816Y-35225D01*
X82971Y-35290D01*
X83138Y-35290D01*
X83292Y-35226D01*
X83410Y-35108D01*
X83475Y-34953D01*
X83475Y-34786D01*
X83411Y-34632D01*
X83293Y-34514D01*
X83260Y-34500D01*
X83849Y-34500D01*
X83817Y-34513D01*
X83699Y-34631D01*
X83635Y-34786D01*
X83635Y-34953D01*
X83698Y-35107D01*
X83816Y-35225D01*
X83971Y-35290D01*
X84138Y-35290D01*
X84292Y-35226D01*
X84410Y-35108D01*
X84475Y-34953D01*
X84475Y-34786D01*
X84411Y-34632D01*
X84293Y-34514D01*
X84260Y-34500D01*
X84417Y-34500D01*
X84937Y-35020D01*
X84910Y-35020D01*
X84816Y-35059D01*
X84744Y-35130D01*
X84705Y-35224D01*
X84705Y-35326D01*
X84744Y-35419D01*
X84790Y-35466D01*
X84790Y-36894D01*
X84206Y-37478D01*
X84139Y-37450D01*
X83971Y-37450D01*
X83817Y-37513D01*
X83699Y-37631D01*
X83635Y-37786D01*
X83635Y-37953D01*
X83663Y-38021D01*
X83468Y-38215D01*
X83303Y-38215D01*
X83410Y-38108D01*
X83475Y-37953D01*
X83475Y-37786D01*
X83411Y-37632D01*
X83311Y-37532D01*
X83562Y-37532D01*
X83628Y-37519D01*
X83628Y-37519D01*
X83683Y-37482D01*
X83903Y-37261D01*
X83971Y-37290D01*
X84138Y-37290D01*
X84292Y-37226D01*
X84410Y-37108D01*
X84475Y-36953D01*
X84475Y-36786D01*
X84411Y-36632D01*
X84293Y-36514D01*
X84139Y-36450D01*
X83971Y-36450D01*
X83817Y-36513D01*
X83699Y-36631D01*
X83635Y-36786D01*
X83635Y-36953D01*
X83663Y-37021D01*
X83492Y-37192D01*
X83326Y-37192D01*
X83410Y-37108D01*
X83475Y-36953D01*
X83475Y-36786D01*
X83411Y-36632D01*
X83327Y-36547D01*
X83547Y-36547D01*
X83612Y-36535D01*
X83612Y-36535D01*
X83667Y-36498D01*
X83903Y-36261D01*
X83971Y-36290D01*
X84138Y-36290D01*
X84292Y-36226D01*
X84410Y-36108D01*
X84475Y-35953D01*
X84475Y-35786D01*
X84411Y-35632D01*
X84293Y-35514D01*
X84139Y-35450D01*
X83971Y-35450D01*
X83817Y-35513D01*
X83699Y-35631D01*
X83635Y-35786D01*
X83635Y-35953D01*
X83663Y-36021D01*
X83476Y-36207D01*
X83311Y-36207D01*
X83410Y-36108D01*
X83475Y-35953D01*
X83475Y-35786D01*
X83411Y-35632D01*
X83293Y-35514D01*
X83139Y-35450D01*
X82971Y-35450D01*
X82817Y-35513D01*
X82699Y-35631D01*
X82670Y-35700D01*
X82594Y-35700D01*
X82594Y-35700D01*
X82529Y-35713D01*
X82511Y-35725D01*
X82474Y-35749D01*
X82474Y-35749D01*
X81809Y-36414D01*
X81505Y-36414D01*
X81523Y-36396D01*
X81546Y-36396D01*
X81640Y-36358D01*
X81712Y-36286D01*
X81751Y-36192D01*
X81751Y-36091D01*
X81712Y-35997D01*
X81640Y-35925D01*
X81547Y-35886D01*
X81445Y-35886D01*
X81351Y-35925D01*
X81280Y-35997D01*
X81242Y-36088D01*
X81242Y-35960D01*
X81223Y-35916D01*
X81190Y-35882D01*
X81145Y-35864D01*
X81098Y-35864D01*
X80507Y-35864D01*
X80484Y-35873D01*
X80484Y-35590D01*
X80484Y-35275D01*
X80472Y-35210D01*
X80472Y-35210D01*
X80435Y-35155D01*
X79726Y-34446D01*
X79671Y-34409D01*
X79606Y-34396D01*
X77876Y-34396D01*
X77876Y-34366D01*
X77876Y-34137D01*
X77876Y-34090D01*
X77876Y-33736D01*
X77857Y-33691D01*
X77824Y-33658D01*
X77779Y-33639D01*
X77732Y-33639D01*
X77729Y-33639D01*
X77729Y-33543D01*
X77716Y-33478D01*
X77679Y-33423D01*
X77679Y-33423D01*
X77538Y-33282D01*
X77538Y-33217D01*
X77499Y-33123D01*
X77428Y-33051D01*
X77334Y-33012D01*
X77232Y-33012D01*
X77139Y-33051D01*
X77067Y-33123D01*
X77028Y-33216D01*
X77028Y-33318D01*
X77067Y-33411D01*
X77138Y-33483D01*
X77232Y-33522D01*
X77298Y-33522D01*
X77389Y-33613D01*
X77389Y-33639D01*
X77338Y-33639D01*
X77294Y-33658D01*
X77260Y-33691D01*
X77242Y-33736D01*
X77242Y-33783D01*
X77242Y-34137D01*
X77260Y-34181D01*
X77294Y-34215D01*
X77338Y-34233D01*
X77385Y-34233D01*
X77779Y-34233D01*
X77824Y-34215D01*
X77857Y-34181D01*
X77876Y-34137D01*
X77876Y-34366D01*
X77857Y-34321D01*
X77824Y-34288D01*
X77779Y-34269D01*
X77732Y-34269D01*
X77338Y-34269D01*
X77294Y-34288D01*
X77260Y-34321D01*
X77242Y-34366D01*
X77242Y-34396D01*
X77167Y-34396D01*
X77167Y-34366D01*
X77167Y-34137D01*
X77167Y-34090D01*
X77167Y-33736D01*
X77149Y-33691D01*
X77115Y-33658D01*
X77071Y-33639D01*
X77023Y-33639D01*
X77020Y-33639D01*
X77020Y-33503D01*
X77007Y-33438D01*
X77007Y-33438D01*
X76990Y-33412D01*
X76990Y-32019D01*
X76939Y-31896D01*
X76844Y-31801D01*
X76720Y-31750D01*
X76586Y-31750D01*
X76463Y-31801D01*
X76368Y-31895D01*
X76317Y-32019D01*
X76316Y-32153D01*
X76368Y-32276D01*
X76462Y-32371D01*
X76586Y-32423D01*
X76720Y-32423D01*
X76843Y-32372D01*
X76938Y-32277D01*
X76990Y-32153D01*
X76990Y-32019D01*
X76990Y-33412D01*
X76970Y-33383D01*
X76869Y-33282D01*
X76869Y-33217D01*
X76830Y-33123D01*
X76758Y-33051D01*
X76665Y-33012D01*
X76563Y-33012D01*
X76469Y-33051D01*
X76398Y-33123D01*
X76359Y-33216D01*
X76359Y-33318D01*
X76397Y-33411D01*
X76469Y-33483D01*
X76563Y-33522D01*
X76628Y-33522D01*
X76680Y-33574D01*
X76680Y-33639D01*
X76629Y-33639D01*
X76585Y-33658D01*
X76551Y-33691D01*
X76533Y-33736D01*
X76533Y-33783D01*
X76533Y-34137D01*
X76551Y-34181D01*
X76585Y-34215D01*
X76629Y-34233D01*
X76677Y-34233D01*
X77071Y-34233D01*
X77115Y-34215D01*
X77149Y-34181D01*
X77167Y-34137D01*
X77167Y-34366D01*
X77149Y-34321D01*
X77115Y-34288D01*
X77071Y-34269D01*
X77023Y-34269D01*
X76629Y-34269D01*
X76585Y-34288D01*
X76551Y-34321D01*
X76533Y-34366D01*
X76533Y-34413D01*
X76533Y-34711D01*
X76527Y-34711D01*
X76458Y-34643D01*
X76458Y-34366D01*
X76440Y-34321D01*
X76406Y-34288D01*
X76362Y-34269D01*
X76314Y-34269D01*
X75920Y-34269D01*
X75876Y-34288D01*
X75843Y-34321D01*
X75824Y-34366D01*
X75824Y-34396D01*
X75750Y-34396D01*
X75750Y-34366D01*
X75731Y-34321D01*
X75698Y-34288D01*
X75653Y-34269D01*
X75606Y-34269D01*
X75212Y-34269D01*
X75168Y-34288D01*
X75134Y-34321D01*
X75116Y-34366D01*
X75116Y-34413D01*
X75116Y-34767D01*
X75134Y-34811D01*
X75168Y-34845D01*
X75212Y-34863D01*
X75259Y-34863D01*
X75653Y-34863D01*
X75698Y-34845D01*
X75731Y-34811D01*
X75750Y-34767D01*
X75750Y-34736D01*
X75824Y-34736D01*
X75824Y-34767D01*
X75843Y-34811D01*
X75876Y-34845D01*
X75920Y-34863D01*
X75968Y-34863D01*
X76198Y-34863D01*
X76282Y-34948D01*
X74952Y-34948D01*
X74894Y-34890D01*
X74894Y-34863D01*
X74945Y-34863D01*
X74989Y-34845D01*
X75023Y-34811D01*
X75041Y-34767D01*
X75041Y-34720D01*
X75041Y-34366D01*
X75023Y-34321D01*
X74989Y-34288D01*
X74945Y-34269D01*
X74897Y-34269D01*
X74503Y-34269D01*
X74459Y-34288D01*
X74425Y-34321D01*
X74407Y-34366D01*
X74407Y-34413D01*
X74407Y-34767D01*
X74425Y-34811D01*
X74459Y-34845D01*
X74503Y-34863D01*
X74551Y-34863D01*
X74554Y-34863D01*
X74554Y-34960D01*
X74567Y-35025D01*
X74604Y-35080D01*
X74761Y-35238D01*
X74761Y-35238D01*
X74816Y-35275D01*
X74881Y-35288D01*
X79299Y-35288D01*
X79672Y-35660D01*
X79672Y-36614D01*
X79685Y-36679D01*
X79722Y-36734D01*
X80176Y-37188D01*
X80152Y-37193D01*
X80141Y-37195D01*
X80086Y-37232D01*
X79249Y-38068D01*
X79213Y-38123D01*
X79200Y-38188D01*
X79200Y-39370D01*
X79200Y-39842D01*
X79200Y-40017D01*
X78991Y-40017D01*
X78947Y-40036D01*
X78913Y-40069D01*
X78895Y-40114D01*
X78895Y-40144D01*
X78820Y-40144D01*
X78820Y-40114D01*
X78802Y-40069D01*
X78768Y-40036D01*
X78724Y-40017D01*
X78677Y-40017D01*
X78283Y-40017D01*
X78238Y-40036D01*
X78205Y-40069D01*
X78186Y-40114D01*
X78186Y-40161D01*
X78186Y-40515D01*
X78205Y-40559D01*
X78238Y-40593D01*
X78283Y-40611D01*
X78330Y-40611D01*
X78724Y-40611D01*
X78768Y-40593D01*
X78802Y-40559D01*
X78820Y-40515D01*
X78820Y-40484D01*
X78895Y-40484D01*
X78895Y-40515D01*
X78913Y-40559D01*
X78947Y-40593D01*
X78991Y-40611D01*
X79039Y-40611D01*
X79433Y-40611D01*
X79436Y-40610D01*
X79436Y-40649D01*
X79433Y-40647D01*
X79385Y-40647D01*
X78991Y-40647D01*
X78947Y-40666D01*
X78913Y-40699D01*
X78895Y-40744D01*
X78895Y-40791D01*
X78895Y-41145D01*
X78913Y-41189D01*
X78947Y-41223D01*
X78990Y-41241D01*
X78974Y-41257D01*
X78673Y-41558D01*
X78673Y-41241D01*
X78724Y-41241D01*
X78768Y-41223D01*
X78802Y-41189D01*
X78820Y-41145D01*
X78820Y-41098D01*
X78820Y-40744D01*
X78802Y-40699D01*
X78768Y-40666D01*
X78724Y-40647D01*
X78677Y-40647D01*
X78283Y-40647D01*
X78238Y-40666D01*
X78205Y-40699D01*
X78186Y-40744D01*
X78186Y-40791D01*
X78186Y-41145D01*
X78205Y-41189D01*
X78238Y-41223D01*
X78283Y-41241D01*
X78330Y-41241D01*
X78333Y-41241D01*
X78333Y-41504D01*
X76871Y-42966D01*
X76871Y-41598D01*
X76871Y-41447D01*
X76841Y-41417D01*
X76692Y-41417D01*
X76692Y-41664D01*
X76722Y-41694D01*
X76727Y-41694D01*
X76775Y-41694D01*
X76819Y-41676D01*
X76853Y-41642D01*
X76871Y-41598D01*
X76871Y-42966D01*
X76543Y-43294D01*
X76488Y-43294D01*
X76488Y-42425D01*
X76488Y-42377D01*
X76488Y-41983D01*
X76469Y-41939D01*
X76436Y-41905D01*
X76392Y-41887D01*
X76344Y-41887D01*
X75970Y-41887D01*
X75926Y-41905D01*
X75892Y-41939D01*
X75874Y-41983D01*
X75874Y-42031D01*
X75874Y-42425D01*
X75892Y-42469D01*
X75926Y-42503D01*
X75955Y-42515D01*
X75926Y-42586D01*
X75926Y-42688D01*
X75964Y-42782D01*
X76036Y-42853D01*
X76130Y-42892D01*
X76231Y-42892D01*
X76325Y-42854D01*
X76397Y-42782D01*
X76436Y-42688D01*
X76436Y-42587D01*
X76406Y-42515D01*
X76436Y-42503D01*
X76469Y-42469D01*
X76488Y-42425D01*
X76488Y-43294D01*
X75858Y-43294D01*
X75858Y-42425D01*
X75858Y-42377D01*
X75858Y-42294D01*
X75858Y-42114D01*
X75858Y-42031D01*
X75858Y-41983D01*
X75839Y-41939D01*
X75826Y-41926D01*
X75826Y-41664D01*
X75826Y-41417D01*
X75677Y-41417D01*
X75647Y-41447D01*
X75647Y-41598D01*
X75666Y-41642D01*
X75699Y-41676D01*
X75743Y-41694D01*
X75791Y-41694D01*
X75796Y-41694D01*
X75826Y-41664D01*
X75826Y-41926D01*
X75806Y-41905D01*
X75762Y-41887D01*
X75641Y-41887D01*
X75611Y-41917D01*
X75611Y-42144D01*
X75828Y-42144D01*
X75858Y-42114D01*
X75858Y-42294D01*
X75828Y-42264D01*
X75611Y-42264D01*
X75611Y-42491D01*
X75641Y-42521D01*
X75762Y-42521D01*
X75806Y-42503D01*
X75839Y-42469D01*
X75858Y-42425D01*
X75858Y-43294D01*
X75491Y-43294D01*
X75491Y-42491D01*
X75491Y-42264D01*
X75491Y-42144D01*
X75491Y-41917D01*
X75474Y-41901D01*
X75474Y-41116D01*
X75474Y-41068D01*
X75474Y-40694D01*
X75456Y-40650D01*
X75422Y-40616D01*
X75378Y-40598D01*
X75330Y-40598D01*
X74936Y-40598D01*
X74892Y-40616D01*
X74858Y-40650D01*
X74840Y-40694D01*
X74840Y-40742D01*
X74840Y-41116D01*
X74858Y-41160D01*
X74892Y-41194D01*
X74934Y-41211D01*
X74902Y-41287D01*
X74902Y-41389D01*
X74941Y-41482D01*
X75012Y-41554D01*
X75106Y-41593D01*
X75207Y-41593D01*
X75301Y-41554D01*
X75373Y-41483D01*
X75412Y-41389D01*
X75412Y-41288D01*
X75380Y-41211D01*
X75422Y-41194D01*
X75456Y-41160D01*
X75474Y-41116D01*
X75474Y-41901D01*
X75461Y-41887D01*
X75340Y-41887D01*
X75296Y-41905D01*
X75262Y-41939D01*
X75244Y-41983D01*
X75244Y-42031D01*
X75244Y-42114D01*
X75274Y-42144D01*
X75491Y-42144D01*
X75491Y-42264D01*
X75274Y-42264D01*
X75244Y-42294D01*
X75244Y-42377D01*
X75244Y-42425D01*
X75262Y-42469D01*
X75296Y-42503D01*
X75340Y-42521D01*
X75461Y-42521D01*
X75491Y-42491D01*
X75491Y-43294D01*
X75472Y-43294D01*
X75407Y-43307D01*
X75352Y-43344D01*
X74935Y-43760D01*
X74870Y-43760D01*
X74777Y-43799D01*
X74705Y-43871D01*
X74666Y-43964D01*
X74666Y-44066D01*
X74704Y-44160D01*
X74776Y-44231D01*
X74870Y-44270D01*
X74971Y-44270D01*
X75065Y-44232D01*
X75137Y-44160D01*
X75176Y-44066D01*
X75176Y-44001D01*
X75542Y-43634D01*
X75731Y-43634D01*
X75605Y-43760D01*
X75540Y-43760D01*
X75446Y-43799D01*
X75374Y-43871D01*
X75335Y-43964D01*
X75335Y-44066D01*
X75374Y-44160D01*
X75445Y-44231D01*
X75539Y-44270D01*
X75641Y-44270D01*
X75734Y-44232D01*
X75806Y-44160D01*
X75845Y-44066D01*
X75845Y-44001D01*
X75975Y-43870D01*
X76398Y-43870D01*
X76398Y-43871D01*
X76359Y-43964D01*
X76359Y-44066D01*
X76397Y-44160D01*
X76469Y-44231D01*
X76563Y-44270D01*
X76664Y-44270D01*
X76758Y-44232D01*
X76804Y-44185D01*
X76850Y-44185D01*
X76915Y-44172D01*
X76915Y-44172D01*
X76970Y-44135D01*
X77031Y-44074D01*
X77067Y-44160D01*
X77138Y-44231D01*
X77232Y-44270D01*
X77333Y-44270D01*
X77427Y-44232D01*
X77499Y-44160D01*
X77538Y-44066D01*
X77538Y-44001D01*
X79962Y-41576D01*
X79999Y-41521D01*
X79999Y-41521D01*
X80012Y-41456D01*
X80012Y-41240D01*
X80015Y-41241D01*
X80063Y-41241D01*
X80066Y-41241D01*
X80066Y-42291D01*
X77179Y-45178D01*
X77114Y-45178D01*
X77021Y-45216D01*
X76949Y-45288D01*
X76910Y-45382D01*
X76910Y-45483D01*
X76949Y-45577D01*
X77020Y-45649D01*
X77114Y-45688D01*
X77215Y-45688D01*
X77309Y-45649D01*
X77381Y-45577D01*
X77401Y-45529D01*
X77421Y-45577D01*
X77493Y-45649D01*
X77586Y-45688D01*
X77688Y-45688D01*
X77782Y-45649D01*
X77853Y-45577D01*
X77874Y-45529D01*
X77893Y-45577D01*
X77965Y-45649D01*
X78059Y-45688D01*
X78160Y-45688D01*
X78254Y-45649D01*
X78326Y-45577D01*
X78365Y-45484D01*
X78365Y-45418D01*
X81773Y-42009D01*
X81810Y-41954D01*
X81810Y-41954D01*
X81823Y-41889D01*
X81823Y-41241D01*
X81874Y-41241D01*
X81918Y-41223D01*
X81952Y-41189D01*
X81970Y-41145D01*
X81970Y-41098D01*
X81970Y-40744D01*
X81952Y-40699D01*
X81918Y-40666D01*
X81874Y-40647D01*
X81826Y-40647D01*
X81432Y-40647D01*
X81388Y-40666D01*
X81354Y-40699D01*
X81336Y-40744D01*
X81336Y-40791D01*
X81336Y-41145D01*
X81354Y-41189D01*
X81388Y-41223D01*
X81432Y-41241D01*
X81480Y-41241D01*
X81483Y-41241D01*
X81483Y-41819D01*
X81081Y-42220D01*
X81101Y-42191D01*
X81101Y-42191D01*
X81114Y-42125D01*
X81114Y-41241D01*
X81165Y-41241D01*
X81209Y-41223D01*
X81243Y-41189D01*
X81261Y-41145D01*
X81261Y-41098D01*
X81261Y-40744D01*
X81243Y-40699D01*
X81209Y-40666D01*
X81165Y-40647D01*
X81118Y-40647D01*
X80724Y-40647D01*
X80679Y-40666D01*
X80646Y-40699D01*
X80627Y-40744D01*
X80627Y-40791D01*
X80627Y-41145D01*
X80646Y-41189D01*
X80679Y-41223D01*
X80724Y-41241D01*
X80771Y-41241D01*
X80774Y-41241D01*
X80774Y-42055D01*
X80373Y-42457D01*
X80393Y-42427D01*
X80393Y-42427D01*
X80395Y-42416D01*
X80406Y-42362D01*
X80406Y-42362D01*
X80406Y-42362D01*
X80406Y-41241D01*
X80457Y-41241D01*
X80501Y-41223D01*
X80534Y-41189D01*
X80553Y-41145D01*
X80553Y-41098D01*
X80553Y-40744D01*
X80534Y-40699D01*
X80501Y-40666D01*
X80457Y-40647D01*
X80409Y-40647D01*
X80015Y-40647D01*
X80012Y-40649D01*
X80012Y-40610D01*
X80015Y-40611D01*
X80063Y-40611D01*
X80457Y-40611D01*
X80501Y-40593D01*
X80534Y-40559D01*
X80553Y-40515D01*
X80553Y-40468D01*
X80553Y-40163D01*
X80627Y-40238D01*
X80627Y-40515D01*
X80646Y-40559D01*
X80679Y-40593D01*
X80724Y-40611D01*
X80771Y-40611D01*
X81165Y-40611D01*
X81209Y-40593D01*
X81243Y-40559D01*
X81261Y-40515D01*
X81261Y-40484D01*
X81336Y-40484D01*
X81336Y-40515D01*
X81354Y-40559D01*
X81388Y-40593D01*
X81432Y-40611D01*
X81480Y-40611D01*
X81874Y-40611D01*
X81918Y-40593D01*
X81952Y-40559D01*
X81970Y-40515D01*
X81970Y-40468D01*
X81970Y-40114D01*
X81952Y-40069D01*
X81918Y-40036D01*
X81874Y-40017D01*
X81826Y-40017D01*
X81432Y-40017D01*
X81388Y-40036D01*
X81354Y-40069D01*
X81336Y-40114D01*
X81336Y-40144D01*
X81261Y-40144D01*
X81261Y-40114D01*
X81243Y-40069D01*
X81209Y-40036D01*
X81165Y-40017D01*
X81118Y-40017D01*
X81094Y-40017D01*
X81094Y-39669D01*
X81094Y-39621D01*
X81094Y-39538D01*
X81094Y-39358D01*
X81094Y-39275D01*
X81094Y-39227D01*
X81076Y-39183D01*
X81042Y-39150D01*
X80998Y-39131D01*
X80877Y-39131D01*
X80847Y-39161D01*
X80847Y-39388D01*
X81064Y-39388D01*
X81094Y-39358D01*
X81094Y-39538D01*
X81064Y-39508D01*
X80847Y-39508D01*
X80847Y-39735D01*
X80877Y-39765D01*
X80998Y-39765D01*
X81042Y-39747D01*
X81076Y-39713D01*
X81094Y-39669D01*
X81094Y-40017D01*
X80888Y-40017D01*
X80636Y-39765D01*
X80697Y-39765D01*
X80727Y-39735D01*
X80727Y-39508D01*
X80719Y-39508D01*
X80719Y-39388D01*
X80727Y-39388D01*
X80727Y-39161D01*
X80697Y-39131D01*
X80576Y-39131D01*
X80532Y-39150D01*
X80498Y-39183D01*
X80484Y-39216D01*
X80484Y-39086D01*
X80507Y-39096D01*
X80736Y-39096D01*
X80766Y-39066D01*
X80766Y-38932D01*
X80758Y-38932D01*
X80758Y-38843D01*
X80766Y-38843D01*
X80766Y-38840D01*
X80886Y-38840D01*
X80886Y-38843D01*
X80894Y-38843D01*
X80894Y-38932D01*
X80886Y-38932D01*
X80886Y-39066D01*
X80916Y-39096D01*
X81145Y-39096D01*
X81162Y-39089D01*
X81162Y-39105D01*
X81177Y-39143D01*
X81162Y-39150D01*
X81128Y-39183D01*
X81110Y-39227D01*
X81110Y-39275D01*
X81110Y-39669D01*
X81128Y-39713D01*
X81162Y-39747D01*
X81206Y-39765D01*
X81254Y-39765D01*
X81628Y-39765D01*
X81672Y-39747D01*
X81706Y-39713D01*
X81724Y-39669D01*
X81724Y-39621D01*
X81724Y-39227D01*
X81706Y-39183D01*
X81672Y-39150D01*
X81656Y-39143D01*
X81672Y-39106D01*
X81672Y-39004D01*
X81633Y-38910D01*
X81561Y-38839D01*
X81472Y-38801D01*
X81632Y-38801D01*
X82556Y-39726D01*
X82556Y-39726D01*
X82556Y-39726D01*
X82593Y-39751D01*
X82612Y-39763D01*
X82612Y-39763D01*
X82677Y-39776D01*
X82677Y-39776D01*
X82677Y-39776D01*
X82865Y-39776D01*
X82847Y-39783D01*
X82776Y-39855D01*
X82737Y-39949D01*
X82737Y-40050D01*
X82775Y-40144D01*
X82847Y-40216D01*
X82941Y-40254D01*
X83042Y-40255D01*
X83136Y-40216D01*
X83152Y-40200D01*
X83167Y-40200D01*
X83167Y-40220D01*
X83185Y-40264D01*
X83219Y-40298D01*
X83263Y-40317D01*
X83311Y-40317D01*
X83665Y-40317D01*
X83709Y-40298D01*
X83743Y-40264D01*
X83761Y-40220D01*
X83761Y-40173D01*
X83761Y-39779D01*
X83760Y-39776D01*
X83798Y-39776D01*
X83797Y-39779D01*
X83797Y-39826D01*
X83797Y-40220D01*
X83815Y-40264D01*
X83849Y-40298D01*
X83893Y-40317D01*
X83941Y-40317D01*
X84295Y-40317D01*
X84339Y-40298D01*
X84373Y-40264D01*
X84391Y-40220D01*
X84391Y-40173D01*
X84391Y-39779D01*
X84390Y-39776D01*
X84417Y-39776D01*
X85026Y-40385D01*
X85026Y-50716D01*
G36*
X87915Y-52281D02*
X87803Y-52843D01*
X87493Y-53307D01*
X87230Y-53483D01*
X87230Y-52146D01*
X87230Y-26296D01*
X87116Y-26020D01*
X86905Y-25809D01*
X86630Y-25695D01*
X86331Y-25694D01*
X86056Y-25808D01*
X85844Y-26019D01*
X85730Y-26295D01*
X85730Y-26593D01*
X85844Y-26869D01*
X86054Y-27080D01*
X86330Y-27194D01*
X86628Y-27195D01*
X86904Y-27081D01*
X87115Y-26870D01*
X87230Y-26594D01*
X87230Y-26296D01*
X87230Y-52146D01*
X87116Y-51870D01*
X86905Y-51659D01*
X86630Y-51545D01*
X86331Y-51545D01*
X86199Y-51599D01*
X86498Y-51301D01*
X86535Y-51246D01*
X86535Y-51246D01*
X86547Y-51181D01*
X86547Y-34960D01*
X86535Y-34895D01*
X86535Y-34895D01*
X86498Y-34840D01*
X84586Y-32928D01*
X84594Y-32932D01*
X84696Y-32932D01*
X84789Y-32893D01*
X84861Y-32821D01*
X84885Y-32764D01*
X84909Y-32774D01*
X85011Y-32774D01*
X85104Y-32735D01*
X85176Y-32664D01*
X85215Y-32570D01*
X85215Y-32469D01*
X85176Y-32375D01*
X85105Y-32303D01*
X85011Y-32264D01*
X84985Y-32264D01*
X81852Y-29131D01*
X81797Y-29094D01*
X81732Y-29081D01*
X78064Y-29081D01*
X78018Y-29035D01*
X77924Y-28997D01*
X77823Y-28996D01*
X77729Y-29035D01*
X77657Y-29107D01*
X77619Y-29201D01*
X77618Y-29302D01*
X77641Y-29357D01*
X76811Y-29357D01*
X76811Y-29357D01*
X76756Y-29368D01*
X76745Y-29370D01*
X76690Y-29407D01*
X76628Y-29469D01*
X76563Y-29469D01*
X76469Y-29508D01*
X76398Y-29579D01*
X76359Y-29673D01*
X76359Y-29774D01*
X76381Y-29830D01*
X74836Y-29830D01*
X74790Y-29783D01*
X74696Y-29745D01*
X74595Y-29744D01*
X74501Y-29783D01*
X74429Y-29855D01*
X74390Y-29949D01*
X74390Y-30050D01*
X74429Y-30144D01*
X74501Y-30216D01*
X74594Y-30254D01*
X74696Y-30255D01*
X74789Y-30216D01*
X74836Y-30170D01*
X74910Y-30170D01*
X74843Y-30197D01*
X74764Y-30275D01*
X74722Y-30377D01*
X74722Y-30488D01*
X74764Y-30590D01*
X74791Y-30617D01*
X73391Y-30617D01*
X73391Y-25870D01*
X73343Y-25753D01*
X73254Y-25664D01*
X73138Y-25616D01*
X73012Y-25616D01*
X72895Y-25664D01*
X72806Y-25753D01*
X72758Y-25869D01*
X72757Y-25995D01*
X72806Y-26112D01*
X72895Y-26201D01*
X73011Y-26249D01*
X73137Y-26249D01*
X73254Y-26201D01*
X73343Y-26112D01*
X73391Y-25996D01*
X73391Y-25870D01*
X73391Y-30617D01*
X66377Y-30617D01*
X66312Y-30630D01*
X66257Y-30667D01*
X61198Y-35726D01*
X61161Y-35781D01*
X61148Y-35846D01*
X61148Y-36974D01*
X61039Y-36974D01*
X60995Y-36992D01*
X60961Y-37026D01*
X60942Y-37070D01*
X60942Y-37118D01*
X60942Y-37590D01*
X60952Y-37612D01*
X60952Y-37657D01*
X60964Y-37722D01*
X61001Y-37777D01*
X61083Y-37859D01*
X61083Y-37924D01*
X61122Y-38018D01*
X61193Y-38090D01*
X61287Y-38128D01*
X61389Y-38129D01*
X61482Y-38090D01*
X61554Y-38018D01*
X61593Y-37924D01*
X61593Y-37823D01*
X61554Y-37729D01*
X61512Y-37686D01*
X61598Y-37686D01*
X61614Y-37680D01*
X61629Y-37686D01*
X61677Y-37686D01*
X61795Y-37686D01*
X61811Y-37680D01*
X61826Y-37686D01*
X61874Y-37686D01*
X61992Y-37686D01*
X62007Y-37680D01*
X62023Y-37686D01*
X62071Y-37686D01*
X62189Y-37686D01*
X62204Y-37680D01*
X62220Y-37686D01*
X62267Y-37686D01*
X62330Y-37686D01*
X62330Y-37743D01*
X62319Y-37795D01*
X62334Y-37871D01*
X62378Y-37936D01*
X67437Y-42996D01*
X67437Y-45682D01*
X67424Y-45650D01*
X67390Y-45616D01*
X67346Y-45598D01*
X67325Y-45598D01*
X67325Y-45514D01*
X67342Y-45498D01*
X67380Y-45405D01*
X67381Y-45303D01*
X67342Y-45210D01*
X67270Y-45138D01*
X67176Y-45099D01*
X67075Y-45099D01*
X66981Y-45138D01*
X66909Y-45209D01*
X66871Y-45303D01*
X66870Y-45404D01*
X66909Y-45498D01*
X66925Y-45514D01*
X66925Y-45598D01*
X66905Y-45598D01*
X66861Y-45616D01*
X66827Y-45650D01*
X66808Y-45694D01*
X66808Y-45742D01*
X66808Y-46116D01*
X66827Y-46160D01*
X66861Y-46194D01*
X66905Y-46212D01*
X66952Y-46212D01*
X67346Y-46212D01*
X67390Y-46194D01*
X67424Y-46160D01*
X67437Y-46128D01*
X67437Y-46295D01*
X67432Y-46300D01*
X67424Y-46280D01*
X67390Y-46246D01*
X67346Y-46228D01*
X67299Y-46228D01*
X66905Y-46228D01*
X66861Y-46246D01*
X66827Y-46280D01*
X66808Y-46324D01*
X66808Y-46372D01*
X66808Y-46746D01*
X66827Y-46790D01*
X66856Y-46819D01*
X66831Y-46878D01*
X66831Y-46979D01*
X66870Y-47073D01*
X66896Y-47099D01*
X66896Y-47179D01*
X66887Y-47200D01*
X66887Y-47248D01*
X66887Y-47749D01*
X66784Y-47646D01*
X66784Y-44094D01*
X66784Y-44094D01*
X66784Y-44094D01*
X66771Y-44029D01*
X66771Y-44029D01*
X66759Y-44011D01*
X66734Y-43974D01*
X66734Y-43974D01*
X66734Y-43974D01*
X64135Y-41375D01*
X64080Y-41339D01*
X64015Y-41326D01*
X60887Y-41326D01*
X60887Y-36764D01*
X60887Y-36716D01*
X60887Y-36449D01*
X60887Y-36401D01*
X60887Y-35771D01*
X60869Y-35727D01*
X60835Y-35693D01*
X60791Y-35675D01*
X60743Y-35675D01*
X59798Y-35675D01*
X59754Y-35693D01*
X59721Y-35727D01*
X59702Y-35771D01*
X59702Y-35819D01*
X59702Y-35940D01*
X59637Y-35940D01*
X59637Y-35940D01*
X59572Y-35953D01*
X59554Y-35965D01*
X59517Y-35990D01*
X59517Y-35990D01*
X59463Y-36044D01*
X59398Y-36044D01*
X59304Y-36082D01*
X59232Y-36154D01*
X59193Y-36248D01*
X59193Y-36349D01*
X59232Y-36443D01*
X59304Y-36515D01*
X59397Y-36554D01*
X59499Y-36554D01*
X59593Y-36515D01*
X59664Y-36443D01*
X59702Y-36352D01*
X59702Y-36449D01*
X59721Y-36493D01*
X59754Y-36526D01*
X59798Y-36545D01*
X59846Y-36545D01*
X60017Y-36545D01*
X60017Y-36764D01*
X60036Y-36808D01*
X60069Y-36841D01*
X60113Y-36860D01*
X60161Y-36860D01*
X60791Y-36860D01*
X60835Y-36841D01*
X60869Y-36808D01*
X60887Y-36764D01*
X60887Y-41326D01*
X60412Y-41326D01*
X60412Y-40264D01*
X60373Y-40170D01*
X60302Y-40098D01*
X60208Y-40060D01*
X60106Y-40059D01*
X60013Y-40098D01*
X60002Y-40109D01*
X60002Y-40104D01*
X59983Y-40059D01*
X59950Y-40026D01*
X59905Y-40007D01*
X59858Y-40007D01*
X59464Y-40007D01*
X59420Y-40026D01*
X59386Y-40059D01*
X59370Y-40099D01*
X59353Y-40059D01*
X59320Y-40026D01*
X59275Y-40007D01*
X59228Y-40007D01*
X58834Y-40007D01*
X58790Y-40026D01*
X58756Y-40059D01*
X58738Y-40104D01*
X58738Y-40109D01*
X58727Y-40098D01*
X58633Y-40060D01*
X58532Y-40059D01*
X58438Y-40098D01*
X58366Y-40170D01*
X58327Y-40264D01*
X58327Y-40365D01*
X58366Y-40459D01*
X58438Y-40531D01*
X58531Y-40569D01*
X58633Y-40570D01*
X58726Y-40531D01*
X58738Y-40520D01*
X58738Y-40525D01*
X58756Y-40569D01*
X58790Y-40603D01*
X58834Y-40621D01*
X58881Y-40621D01*
X59275Y-40621D01*
X59320Y-40603D01*
X59353Y-40569D01*
X59370Y-40530D01*
X59386Y-40569D01*
X59420Y-40603D01*
X59464Y-40621D01*
X59511Y-40621D01*
X59905Y-40621D01*
X59950Y-40603D01*
X59983Y-40569D01*
X60002Y-40525D01*
X60002Y-40520D01*
X60012Y-40531D01*
X60106Y-40569D01*
X60207Y-40570D01*
X60301Y-40531D01*
X60373Y-40459D01*
X60412Y-40365D01*
X60412Y-40264D01*
X60412Y-41326D01*
X60002Y-41326D01*
X60002Y-41155D01*
X60002Y-41034D01*
X60002Y-40854D01*
X60002Y-40734D01*
X59983Y-40689D01*
X59950Y-40656D01*
X59905Y-40637D01*
X59858Y-40637D01*
X59775Y-40637D01*
X59745Y-40667D01*
X59745Y-40884D01*
X59972Y-40884D01*
X60002Y-40854D01*
X60002Y-41034D01*
X59972Y-41004D01*
X59745Y-41004D01*
X59745Y-41221D01*
X59775Y-41251D01*
X59858Y-41251D01*
X59905Y-41251D01*
X59950Y-41233D01*
X59983Y-41199D01*
X60002Y-41155D01*
X60002Y-41326D01*
X59625Y-41326D01*
X59625Y-41221D01*
X59625Y-41004D01*
X59625Y-40884D01*
X59625Y-40667D01*
X59595Y-40637D01*
X59511Y-40637D01*
X59464Y-40637D01*
X59420Y-40656D01*
X59386Y-40689D01*
X59370Y-40729D01*
X59353Y-40689D01*
X59320Y-40656D01*
X59275Y-40637D01*
X59228Y-40637D01*
X59145Y-40637D01*
X59115Y-40667D01*
X59115Y-40884D01*
X59342Y-40884D01*
X59370Y-40856D01*
X59398Y-40884D01*
X59625Y-40884D01*
X59625Y-41004D01*
X59398Y-41004D01*
X59370Y-41032D01*
X59342Y-41004D01*
X59115Y-41004D01*
X59115Y-41221D01*
X59145Y-41251D01*
X59228Y-41251D01*
X59275Y-41251D01*
X59320Y-41233D01*
X59353Y-41199D01*
X59370Y-41160D01*
X59386Y-41199D01*
X59420Y-41233D01*
X59464Y-41251D01*
X59511Y-41251D01*
X59595Y-41251D01*
X59625Y-41221D01*
X59625Y-41326D01*
X58995Y-41326D01*
X58995Y-41221D01*
X58995Y-41004D01*
X58995Y-40884D01*
X58995Y-40667D01*
X58965Y-40637D01*
X58881Y-40637D01*
X58834Y-40637D01*
X58790Y-40656D01*
X58756Y-40689D01*
X58738Y-40734D01*
X58738Y-40854D01*
X58768Y-40884D01*
X58995Y-40884D01*
X58995Y-41004D01*
X58768Y-41004D01*
X58738Y-41034D01*
X58738Y-41155D01*
X58756Y-41199D01*
X58790Y-41233D01*
X58834Y-41251D01*
X58881Y-41251D01*
X58965Y-41251D01*
X58995Y-41221D01*
X58995Y-41326D01*
X58367Y-41326D01*
X58367Y-41034D01*
X58367Y-40854D01*
X58367Y-40556D01*
X58349Y-40512D01*
X58315Y-40479D01*
X58271Y-40460D01*
X58233Y-40460D01*
X58203Y-40490D01*
X58203Y-40884D01*
X58337Y-40884D01*
X58367Y-40854D01*
X58367Y-41034D01*
X58337Y-41004D01*
X58203Y-41004D01*
X58203Y-41012D01*
X58114Y-41012D01*
X58114Y-41004D01*
X58111Y-41004D01*
X58111Y-40884D01*
X58114Y-40884D01*
X58114Y-40490D01*
X58084Y-40460D01*
X58046Y-40460D01*
X58031Y-40467D01*
X58015Y-40460D01*
X57967Y-40460D01*
X57790Y-40460D01*
X57775Y-40467D01*
X57760Y-40460D01*
X57712Y-40460D01*
X57535Y-40460D01*
X57520Y-40467D01*
X57504Y-40460D01*
X57456Y-40460D01*
X57293Y-40460D01*
X57293Y-40456D01*
X57293Y-40456D01*
X57256Y-40401D01*
X57163Y-40308D01*
X57163Y-25870D01*
X57115Y-25753D01*
X57026Y-25664D01*
X56909Y-25616D01*
X56783Y-25616D01*
X56667Y-25664D01*
X56578Y-25753D01*
X56529Y-25869D01*
X56529Y-25995D01*
X56577Y-26112D01*
X56666Y-26201D01*
X56783Y-26249D01*
X56909Y-26249D01*
X57025Y-26201D01*
X57114Y-26112D01*
X57163Y-25996D01*
X57163Y-25870D01*
X57163Y-40308D01*
X57128Y-40273D01*
X57072Y-40236D01*
X57007Y-40223D01*
X56929Y-40223D01*
X56771Y-40223D01*
X56706Y-40236D01*
X56684Y-40251D01*
X56684Y-40247D01*
X56684Y-40067D01*
X56684Y-39984D01*
X56684Y-39936D01*
X56666Y-39892D01*
X56632Y-39858D01*
X56593Y-39842D01*
X56632Y-39826D01*
X56666Y-39792D01*
X56684Y-39748D01*
X56684Y-39700D01*
X56684Y-39617D01*
X56684Y-39437D01*
X56684Y-39354D01*
X56684Y-39306D01*
X56666Y-39262D01*
X56632Y-39228D01*
X56588Y-39210D01*
X56467Y-39210D01*
X56437Y-39240D01*
X56437Y-39467D01*
X56654Y-39467D01*
X56684Y-39437D01*
X56684Y-39617D01*
X56654Y-39587D01*
X56437Y-39587D01*
X56437Y-39814D01*
X56465Y-39842D01*
X56437Y-39870D01*
X56437Y-40097D01*
X56654Y-40097D01*
X56684Y-40067D01*
X56684Y-40247D01*
X56654Y-40217D01*
X56437Y-40217D01*
X56437Y-40444D01*
X56454Y-40460D01*
X56442Y-40460D01*
X56412Y-40490D01*
X56412Y-40884D01*
X56415Y-40884D01*
X56415Y-41004D01*
X56412Y-41004D01*
X56412Y-41398D01*
X56442Y-41428D01*
X56480Y-41428D01*
X56496Y-41422D01*
X56511Y-41428D01*
X56559Y-41428D01*
X56710Y-41428D01*
X56710Y-41514D01*
X56706Y-41515D01*
X56634Y-41587D01*
X56595Y-41681D01*
X56595Y-41709D01*
X56304Y-41418D01*
X56323Y-41398D01*
X56323Y-41004D01*
X56320Y-41004D01*
X56320Y-40884D01*
X56323Y-40884D01*
X56323Y-40490D01*
X56297Y-40464D01*
X56301Y-40460D01*
X56317Y-40444D01*
X56317Y-40217D01*
X56317Y-40097D01*
X56317Y-39870D01*
X56290Y-39842D01*
X56317Y-39814D01*
X56317Y-39587D01*
X56317Y-39467D01*
X56317Y-39240D01*
X56287Y-39210D01*
X56167Y-39210D01*
X56123Y-39228D01*
X56089Y-39262D01*
X56070Y-39306D01*
X56070Y-39354D01*
X56070Y-39437D01*
X56100Y-39467D01*
X56317Y-39467D01*
X56317Y-39587D01*
X56100Y-39587D01*
X56070Y-39617D01*
X56070Y-39700D01*
X56070Y-39748D01*
X56089Y-39792D01*
X56123Y-39826D01*
X56162Y-39842D01*
X56123Y-39858D01*
X56089Y-39892D01*
X56070Y-39936D01*
X56070Y-39984D01*
X56070Y-40067D01*
X56100Y-40097D01*
X56317Y-40097D01*
X56317Y-40217D01*
X56100Y-40217D01*
X56070Y-40247D01*
X56070Y-40330D01*
X56070Y-40378D01*
X56089Y-40422D01*
X56123Y-40456D01*
X56134Y-40460D01*
X55999Y-40460D01*
X55984Y-40467D01*
X55980Y-40465D01*
X56002Y-40456D01*
X56036Y-40422D01*
X56054Y-40378D01*
X56054Y-40330D01*
X56054Y-39936D01*
X56036Y-39892D01*
X56002Y-39858D01*
X55963Y-39842D01*
X56002Y-39826D01*
X56036Y-39792D01*
X56054Y-39748D01*
X56054Y-39700D01*
X56054Y-39306D01*
X56036Y-39262D01*
X56002Y-39228D01*
X55958Y-39210D01*
X55911Y-39210D01*
X55537Y-39210D01*
X55493Y-39228D01*
X55459Y-39262D01*
X55440Y-39306D01*
X55440Y-39327D01*
X55436Y-39327D01*
X55420Y-39311D01*
X55326Y-39272D01*
X55225Y-39272D01*
X55131Y-39311D01*
X55059Y-39382D01*
X55031Y-39450D01*
X55024Y-39467D01*
X55001Y-39467D01*
X55031Y-39437D01*
X55031Y-39354D01*
X55031Y-39306D01*
X55013Y-39262D01*
X54979Y-39228D01*
X54935Y-39210D01*
X54814Y-39210D01*
X54784Y-39240D01*
X54784Y-39467D01*
X54792Y-39467D01*
X54792Y-39587D01*
X54784Y-39587D01*
X54784Y-39814D01*
X54812Y-39842D01*
X54784Y-39870D01*
X54784Y-40097D01*
X54792Y-40097D01*
X54792Y-40217D01*
X54784Y-40217D01*
X54784Y-40225D01*
X54664Y-40225D01*
X54664Y-40217D01*
X54664Y-40097D01*
X54664Y-39870D01*
X54636Y-39842D01*
X54664Y-39814D01*
X54664Y-39587D01*
X54664Y-39467D01*
X54664Y-39240D01*
X54634Y-39210D01*
X54513Y-39210D01*
X54469Y-39228D01*
X54435Y-39262D01*
X54417Y-39306D01*
X54417Y-39354D01*
X54417Y-39437D01*
X54447Y-39467D01*
X54664Y-39467D01*
X54664Y-39587D01*
X54447Y-39587D01*
X54417Y-39617D01*
X54417Y-39700D01*
X54417Y-39748D01*
X54435Y-39792D01*
X54469Y-39826D01*
X54508Y-39842D01*
X54469Y-39858D01*
X54435Y-39892D01*
X54417Y-39936D01*
X54417Y-39984D01*
X54417Y-40067D01*
X54447Y-40097D01*
X54664Y-40097D01*
X54664Y-40217D01*
X54447Y-40217D01*
X54417Y-40247D01*
X54417Y-40330D01*
X54417Y-40378D01*
X54435Y-40422D01*
X54469Y-40456D01*
X54513Y-40474D01*
X54634Y-40474D01*
X54664Y-40444D01*
X54664Y-40474D01*
X54664Y-40474D01*
X54687Y-40474D01*
X54676Y-40479D01*
X54664Y-40491D01*
X54642Y-40512D01*
X54624Y-40556D01*
X54624Y-40854D01*
X54654Y-40884D01*
X54788Y-40884D01*
X54788Y-40876D01*
X54877Y-40876D01*
X54877Y-40884D01*
X54880Y-40884D01*
X54880Y-41004D01*
X54877Y-41004D01*
X54877Y-41398D01*
X54885Y-41407D01*
X54862Y-41430D01*
X54823Y-41523D01*
X54823Y-41625D01*
X54862Y-41719D01*
X54934Y-41790D01*
X55027Y-41829D01*
X55099Y-41829D01*
X55099Y-41861D01*
X55138Y-41955D01*
X55209Y-42027D01*
X55303Y-42065D01*
X55404Y-42066D01*
X55498Y-42027D01*
X55551Y-41974D01*
X55603Y-42027D01*
X55697Y-42065D01*
X55798Y-42066D01*
X55892Y-42027D01*
X55964Y-41955D01*
X55988Y-41897D01*
X56197Y-42107D01*
X56169Y-42107D01*
X56076Y-42145D01*
X56029Y-42192D01*
X54788Y-42192D01*
X54788Y-41398D01*
X54788Y-41004D01*
X54654Y-41004D01*
X54624Y-41034D01*
X54624Y-41332D01*
X54642Y-41376D01*
X54676Y-41410D01*
X54720Y-41428D01*
X54758Y-41428D01*
X54788Y-41398D01*
X54788Y-42192D01*
X54401Y-42192D01*
X54401Y-40378D01*
X54401Y-40330D01*
X54401Y-39936D01*
X54383Y-39892D01*
X54349Y-39858D01*
X54310Y-39842D01*
X54349Y-39826D01*
X54383Y-39792D01*
X54401Y-39748D01*
X54401Y-39700D01*
X54401Y-39306D01*
X54383Y-39262D01*
X54349Y-39228D01*
X54305Y-39210D01*
X54257Y-39210D01*
X53883Y-39210D01*
X53839Y-39228D01*
X53805Y-39262D01*
X53787Y-39306D01*
X53787Y-39327D01*
X53782Y-39327D01*
X53766Y-39311D01*
X53672Y-39272D01*
X53571Y-39272D01*
X53477Y-39311D01*
X53405Y-39382D01*
X53367Y-39476D01*
X53367Y-39578D01*
X53405Y-39671D01*
X53477Y-39743D01*
X53571Y-39782D01*
X53672Y-39782D01*
X53766Y-39743D01*
X53782Y-39727D01*
X53787Y-39727D01*
X53787Y-39748D01*
X53805Y-39792D01*
X53839Y-39826D01*
X53878Y-39842D01*
X53839Y-39858D01*
X53805Y-39892D01*
X53787Y-39936D01*
X53787Y-39984D01*
X53787Y-40378D01*
X53805Y-40422D01*
X53839Y-40456D01*
X53883Y-40474D01*
X53889Y-40474D01*
X53878Y-40485D01*
X53839Y-40578D01*
X53839Y-40680D01*
X53878Y-40774D01*
X53949Y-40845D01*
X54043Y-40884D01*
X54144Y-40884D01*
X54238Y-40846D01*
X54310Y-40774D01*
X54349Y-40680D01*
X54349Y-40579D01*
X54310Y-40485D01*
X54299Y-40474D01*
X54305Y-40474D01*
X54349Y-40456D01*
X54383Y-40422D01*
X54401Y-40378D01*
X54401Y-42192D01*
X53921Y-42192D01*
X53921Y-42192D01*
X53866Y-42202D01*
X53856Y-42205D01*
X53801Y-42241D01*
X52934Y-43108D01*
X52898Y-43163D01*
X52885Y-43228D01*
X52885Y-47450D01*
X52731Y-47450D01*
X52687Y-47468D01*
X52653Y-47502D01*
X52635Y-47546D01*
X52635Y-47593D01*
X52635Y-48193D01*
X52653Y-48238D01*
X52687Y-48271D01*
X52731Y-48290D01*
X52778Y-48290D01*
X53378Y-48290D01*
X53423Y-48271D01*
X53456Y-48238D01*
X53475Y-48193D01*
X53475Y-48146D01*
X53475Y-47546D01*
X53456Y-47502D01*
X53423Y-47468D01*
X53378Y-47450D01*
X53331Y-47450D01*
X53225Y-47450D01*
X53225Y-43298D01*
X53620Y-42903D01*
X53620Y-42917D01*
X53620Y-43271D01*
X53638Y-43315D01*
X53672Y-43349D01*
X53716Y-43367D01*
X53763Y-43367D01*
X54157Y-43367D01*
X54201Y-43349D01*
X54235Y-43315D01*
X54254Y-43271D01*
X54254Y-43240D01*
X54670Y-43240D01*
X54642Y-43268D01*
X54624Y-43312D01*
X54624Y-43360D01*
X54624Y-43481D01*
X54539Y-43445D01*
X54437Y-43445D01*
X54343Y-43484D01*
X54272Y-43556D01*
X54254Y-43599D01*
X54254Y-43499D01*
X54235Y-43455D01*
X54201Y-43422D01*
X54157Y-43403D01*
X54110Y-43403D01*
X54027Y-43403D01*
X53997Y-43433D01*
X53997Y-43640D01*
X54004Y-43640D01*
X54004Y-43760D01*
X53997Y-43760D01*
X53997Y-43967D01*
X54027Y-43997D01*
X54110Y-43997D01*
X54157Y-43997D01*
X54201Y-43979D01*
X54235Y-43945D01*
X54254Y-43901D01*
X54254Y-43801D01*
X54271Y-43845D01*
X54343Y-43916D01*
X54437Y-43955D01*
X54538Y-43955D01*
X54624Y-43920D01*
X54624Y-44088D01*
X54642Y-44132D01*
X54676Y-44166D01*
X54720Y-44184D01*
X54768Y-44184D01*
X54889Y-44184D01*
X54889Y-44249D01*
X54749Y-44249D01*
X54705Y-44268D01*
X54671Y-44301D01*
X54653Y-44346D01*
X54653Y-44393D01*
X54653Y-44787D01*
X54671Y-44831D01*
X54705Y-44865D01*
X54744Y-44881D01*
X54705Y-44898D01*
X54671Y-44931D01*
X54653Y-44975D01*
X54653Y-45023D01*
X54653Y-45417D01*
X54671Y-45461D01*
X54705Y-45495D01*
X54749Y-45513D01*
X54797Y-45513D01*
X55171Y-45513D01*
X55197Y-45503D01*
X55197Y-45503D01*
X55223Y-45543D01*
X55420Y-45739D01*
X55420Y-46395D01*
X55369Y-46395D01*
X55325Y-46414D01*
X55291Y-46447D01*
X55273Y-46492D01*
X55273Y-46539D01*
X55273Y-46893D01*
X55291Y-46937D01*
X55325Y-46971D01*
X55369Y-46989D01*
X55417Y-46989D01*
X55811Y-46989D01*
X55855Y-46971D01*
X55889Y-46937D01*
X55903Y-46903D01*
X55903Y-46933D01*
X55903Y-47112D01*
X55889Y-47077D01*
X55855Y-47044D01*
X55811Y-47025D01*
X55763Y-47025D01*
X55369Y-47025D01*
X55325Y-47044D01*
X55291Y-47077D01*
X55273Y-47122D01*
X55273Y-47169D01*
X55273Y-47523D01*
X55291Y-47567D01*
X55325Y-47601D01*
X55369Y-47619D01*
X55417Y-47619D01*
X55647Y-47619D01*
X55741Y-47714D01*
X55379Y-47714D01*
X55335Y-47732D01*
X55301Y-47766D01*
X55283Y-47810D01*
X55283Y-47831D01*
X55200Y-47831D01*
X55184Y-47815D01*
X55090Y-47776D01*
X54988Y-47776D01*
X54895Y-47815D01*
X54823Y-47886D01*
X54784Y-47980D01*
X54784Y-48081D01*
X54823Y-48175D01*
X54894Y-48247D01*
X54988Y-48286D01*
X55089Y-48286D01*
X55183Y-48247D01*
X55199Y-48231D01*
X55283Y-48231D01*
X55283Y-48252D01*
X55301Y-48296D01*
X55335Y-48330D01*
X55379Y-48348D01*
X55379Y-48348D01*
X55345Y-48362D01*
X55311Y-48396D01*
X55293Y-48440D01*
X55293Y-48461D01*
X55200Y-48461D01*
X55184Y-48445D01*
X55090Y-48406D01*
X54988Y-48406D01*
X54895Y-48445D01*
X54823Y-48516D01*
X54784Y-48610D01*
X54784Y-48711D01*
X54823Y-48805D01*
X54894Y-48877D01*
X54988Y-48916D01*
X55089Y-48916D01*
X55183Y-48877D01*
X55199Y-48861D01*
X55293Y-48861D01*
X55293Y-48882D01*
X55311Y-48926D01*
X55345Y-48960D01*
X55389Y-48978D01*
X55437Y-48978D01*
X55791Y-48978D01*
X55835Y-48960D01*
X55869Y-48926D01*
X55887Y-48882D01*
X55887Y-48834D01*
X55887Y-48440D01*
X55869Y-48396D01*
X55835Y-48362D01*
X55801Y-48348D01*
X55801Y-48348D01*
X55845Y-48330D01*
X55879Y-48296D01*
X55897Y-48252D01*
X55897Y-48204D01*
X55897Y-47870D01*
X55913Y-47886D01*
X55913Y-48252D01*
X55931Y-48296D01*
X55965Y-48330D01*
X56009Y-48348D01*
X56009Y-48348D01*
X55975Y-48362D01*
X55941Y-48396D01*
X55923Y-48440D01*
X55923Y-48488D01*
X55923Y-48882D01*
X55941Y-48926D01*
X55975Y-48960D01*
X56019Y-48978D01*
X56067Y-48978D01*
X56421Y-48978D01*
X56465Y-48960D01*
X56499Y-48926D01*
X56517Y-48882D01*
X56517Y-48834D01*
X56517Y-48440D01*
X56499Y-48396D01*
X56465Y-48362D01*
X56431Y-48348D01*
X56431Y-48348D01*
X56475Y-48330D01*
X56509Y-48296D01*
X56527Y-48252D01*
X56527Y-48204D01*
X56527Y-48201D01*
X57281Y-48201D01*
X57281Y-48773D01*
X57299Y-48818D01*
X57333Y-48851D01*
X57377Y-48870D01*
X57425Y-48870D01*
X58055Y-48870D01*
X58099Y-48851D01*
X58119Y-48831D01*
X59212Y-49924D01*
X59171Y-50022D01*
X59171Y-50211D01*
X59243Y-50386D01*
X59377Y-50519D01*
X59551Y-50592D01*
X59740Y-50592D01*
X59914Y-50520D01*
X60048Y-50386D01*
X60120Y-50212D01*
X60120Y-50023D01*
X60048Y-49849D01*
X59915Y-49715D01*
X59740Y-49643D01*
X59552Y-49643D01*
X59452Y-49684D01*
X58310Y-48541D01*
X58255Y-48504D01*
X58189Y-48491D01*
X58151Y-48491D01*
X58151Y-47722D01*
X58133Y-47678D01*
X58099Y-47644D01*
X58055Y-47626D01*
X58007Y-47626D01*
X57377Y-47626D01*
X57333Y-47644D01*
X57299Y-47678D01*
X57281Y-47722D01*
X57281Y-47769D01*
X57281Y-47861D01*
X56527Y-47861D01*
X56527Y-47810D01*
X56509Y-47766D01*
X56475Y-47732D01*
X56431Y-47714D01*
X56383Y-47714D01*
X56222Y-47714D01*
X55907Y-47399D01*
X55907Y-47297D01*
X55921Y-47331D01*
X55955Y-47365D01*
X55999Y-47383D01*
X56047Y-47383D01*
X56441Y-47383D01*
X56485Y-47365D01*
X56519Y-47331D01*
X56537Y-47287D01*
X56537Y-47256D01*
X57281Y-47256D01*
X57281Y-47395D01*
X57299Y-47440D01*
X57333Y-47473D01*
X57377Y-47492D01*
X57425Y-47492D01*
X58055Y-47492D01*
X58099Y-47473D01*
X58133Y-47440D01*
X58151Y-47395D01*
X58151Y-47348D01*
X58151Y-46390D01*
X58661Y-46390D01*
X58785Y-46390D01*
X58831Y-46436D01*
X58925Y-46475D01*
X59026Y-46475D01*
X59120Y-46436D01*
X59192Y-46365D01*
X59231Y-46271D01*
X59231Y-46169D01*
X59192Y-46076D01*
X59121Y-46004D01*
X59027Y-45965D01*
X58925Y-45965D01*
X58832Y-46004D01*
X58785Y-46050D01*
X58661Y-46050D01*
X58338Y-46050D01*
X58338Y-45417D01*
X58338Y-45369D01*
X58338Y-45286D01*
X58338Y-45106D01*
X58338Y-45023D01*
X58338Y-44975D01*
X58320Y-44931D01*
X58286Y-44898D01*
X58247Y-44881D01*
X58286Y-44865D01*
X58320Y-44831D01*
X58338Y-44787D01*
X58338Y-44740D01*
X58338Y-44656D01*
X58338Y-44476D01*
X58338Y-44393D01*
X58338Y-44346D01*
X58320Y-44301D01*
X58286Y-44268D01*
X58242Y-44249D01*
X58121Y-44249D01*
X58091Y-44279D01*
X58091Y-44506D01*
X58308Y-44506D01*
X58338Y-44476D01*
X58338Y-44656D01*
X58308Y-44626D01*
X58091Y-44626D01*
X58091Y-44853D01*
X58119Y-44881D01*
X58091Y-44909D01*
X58091Y-45136D01*
X58308Y-45136D01*
X58338Y-45106D01*
X58338Y-45286D01*
X58308Y-45256D01*
X58091Y-45256D01*
X58091Y-45483D01*
X58121Y-45513D01*
X58242Y-45513D01*
X58286Y-45495D01*
X58320Y-45461D01*
X58338Y-45417D01*
X58338Y-46050D01*
X57971Y-46050D01*
X57971Y-45483D01*
X57971Y-45256D01*
X57971Y-45136D01*
X57971Y-44909D01*
X57943Y-44881D01*
X57971Y-44853D01*
X57971Y-44626D01*
X57971Y-44506D01*
X57971Y-44279D01*
X57941Y-44249D01*
X57820Y-44249D01*
X57776Y-44268D01*
X57742Y-44301D01*
X57724Y-44346D01*
X57724Y-44393D01*
X57724Y-44476D01*
X57754Y-44506D01*
X57971Y-44506D01*
X57971Y-44626D01*
X57754Y-44626D01*
X57724Y-44656D01*
X57724Y-44740D01*
X57724Y-44787D01*
X57742Y-44831D01*
X57776Y-44865D01*
X57815Y-44881D01*
X57776Y-44898D01*
X57742Y-44931D01*
X57724Y-44975D01*
X57724Y-45023D01*
X57724Y-45106D01*
X57754Y-45136D01*
X57971Y-45136D01*
X57971Y-45256D01*
X57754Y-45256D01*
X57724Y-45286D01*
X57724Y-45369D01*
X57724Y-45417D01*
X57742Y-45461D01*
X57776Y-45495D01*
X57820Y-45513D01*
X57941Y-45513D01*
X57971Y-45483D01*
X57971Y-46050D01*
X57550Y-46050D01*
X56952Y-45451D01*
X56979Y-45451D01*
X57073Y-45413D01*
X57089Y-45396D01*
X57094Y-45396D01*
X57094Y-45417D01*
X57112Y-45461D01*
X57146Y-45495D01*
X57190Y-45513D01*
X57238Y-45513D01*
X57612Y-45513D01*
X57656Y-45495D01*
X57690Y-45461D01*
X57708Y-45417D01*
X57708Y-45369D01*
X57708Y-44975D01*
X57690Y-44931D01*
X57656Y-44898D01*
X57617Y-44881D01*
X57656Y-44865D01*
X57690Y-44831D01*
X57708Y-44787D01*
X57708Y-44740D01*
X57708Y-44346D01*
X57690Y-44301D01*
X57656Y-44268D01*
X57612Y-44249D01*
X57564Y-44249D01*
X57190Y-44249D01*
X57146Y-44268D01*
X57112Y-44301D01*
X57094Y-44346D01*
X57094Y-44366D01*
X57089Y-44366D01*
X57073Y-44350D01*
X56980Y-44311D01*
X56878Y-44311D01*
X56794Y-44346D01*
X56794Y-44184D01*
X56815Y-44184D01*
X56992Y-44184D01*
X57008Y-44178D01*
X57023Y-44184D01*
X57071Y-44184D01*
X57248Y-44184D01*
X57264Y-44178D01*
X57279Y-44184D01*
X57327Y-44184D01*
X57504Y-44184D01*
X57520Y-44178D01*
X57535Y-44184D01*
X57583Y-44184D01*
X57760Y-44184D01*
X57775Y-44178D01*
X57790Y-44184D01*
X57828Y-44184D01*
X57858Y-44154D01*
X57858Y-43760D01*
X57856Y-43760D01*
X57856Y-43640D01*
X57858Y-43640D01*
X57858Y-43632D01*
X57947Y-43632D01*
X57947Y-43640D01*
X57950Y-43640D01*
X57950Y-43760D01*
X57947Y-43760D01*
X57947Y-44154D01*
X57977Y-44184D01*
X58015Y-44184D01*
X58031Y-44178D01*
X58046Y-44184D01*
X58094Y-44184D01*
X58271Y-44184D01*
X58315Y-44166D01*
X58349Y-44132D01*
X58367Y-44088D01*
X58367Y-44040D01*
X58367Y-43900D01*
X58422Y-43900D01*
X58438Y-43916D01*
X58531Y-43955D01*
X58633Y-43955D01*
X58726Y-43917D01*
X58798Y-43845D01*
X58837Y-43751D01*
X58837Y-43723D01*
X59121Y-44007D01*
X59121Y-45354D01*
X59134Y-45419D01*
X59171Y-45474D01*
X59722Y-46025D01*
X59777Y-46062D01*
X59777Y-46062D01*
X59842Y-46075D01*
X60391Y-46075D01*
X60391Y-46116D01*
X60391Y-47750D01*
X60410Y-47794D01*
X60443Y-47828D01*
X60487Y-47846D01*
X60535Y-47846D01*
X60696Y-47846D01*
X60696Y-48344D01*
X60665Y-48344D01*
X60621Y-48362D01*
X60587Y-48396D01*
X60569Y-48440D01*
X60569Y-48488D01*
X60569Y-48882D01*
X60587Y-48926D01*
X60621Y-48960D01*
X60656Y-48974D01*
X60656Y-49674D01*
X60557Y-49715D01*
X60424Y-49848D01*
X60351Y-50022D01*
X60351Y-50211D01*
X60423Y-50386D01*
X60557Y-50519D01*
X60731Y-50592D01*
X60920Y-50592D01*
X61094Y-50520D01*
X61228Y-50386D01*
X61300Y-50212D01*
X61300Y-50023D01*
X61228Y-49849D01*
X61095Y-49715D01*
X60996Y-49674D01*
X60996Y-48978D01*
X61066Y-48978D01*
X61111Y-48960D01*
X61144Y-48926D01*
X61163Y-48882D01*
X61163Y-48834D01*
X61163Y-48440D01*
X61144Y-48396D01*
X61111Y-48362D01*
X61066Y-48344D01*
X61036Y-48344D01*
X61036Y-47846D01*
X61165Y-47846D01*
X61209Y-47828D01*
X61243Y-47794D01*
X61261Y-47750D01*
X61261Y-47702D01*
X61261Y-46425D01*
X61272Y-46436D01*
X61366Y-46475D01*
X61431Y-46475D01*
X63058Y-48101D01*
X63058Y-49877D01*
X62997Y-49815D01*
X62866Y-49761D01*
X62724Y-49761D01*
X62593Y-49815D01*
X62493Y-49915D01*
X62439Y-50046D01*
X62439Y-50188D01*
X62493Y-50319D01*
X62593Y-50419D01*
X62724Y-50473D01*
X62865Y-50473D01*
X62996Y-50419D01*
X63058Y-50358D01*
X63058Y-50393D01*
X63071Y-50458D01*
X63108Y-50513D01*
X63423Y-50828D01*
X64131Y-51537D01*
X64131Y-51537D01*
X64186Y-51574D01*
X64251Y-51587D01*
X66743Y-51587D01*
X66699Y-51631D01*
X66635Y-51786D01*
X66635Y-51953D01*
X66698Y-52107D01*
X66816Y-52225D01*
X66971Y-52290D01*
X67138Y-52290D01*
X67292Y-52226D01*
X67410Y-52108D01*
X67475Y-51953D01*
X67475Y-51786D01*
X67411Y-51632D01*
X67366Y-51587D01*
X67531Y-51587D01*
X67663Y-51718D01*
X67635Y-51786D01*
X67635Y-51953D01*
X67698Y-52107D01*
X67816Y-52225D01*
X67971Y-52290D01*
X68138Y-52290D01*
X68292Y-52226D01*
X68410Y-52108D01*
X68475Y-51953D01*
X68475Y-51786D01*
X68411Y-51632D01*
X68293Y-51514D01*
X68139Y-51450D01*
X67971Y-51450D01*
X67903Y-51478D01*
X67722Y-51297D01*
X67667Y-51260D01*
X67602Y-51247D01*
X67308Y-51247D01*
X67308Y-50188D01*
X67308Y-49863D01*
X67275Y-49863D01*
X67173Y-49863D01*
X67140Y-49863D01*
X67140Y-50188D01*
X67170Y-50218D01*
X67208Y-50218D01*
X67224Y-50212D01*
X67239Y-50218D01*
X67278Y-50218D01*
X67308Y-50188D01*
X67308Y-51247D01*
X67052Y-51247D01*
X67052Y-50188D01*
X67052Y-49863D01*
X66917Y-49863D01*
X66887Y-49893D01*
X66887Y-50122D01*
X66906Y-50166D01*
X66939Y-50200D01*
X66984Y-50218D01*
X67022Y-50218D01*
X67052Y-50188D01*
X67052Y-51247D01*
X66773Y-51247D01*
X66773Y-50525D01*
X66773Y-50478D01*
X66773Y-50104D01*
X66773Y-49895D01*
X66773Y-49775D01*
X66743Y-49745D01*
X66516Y-49745D01*
X66516Y-49962D01*
X66546Y-49992D01*
X66629Y-49992D01*
X66677Y-49992D01*
X66721Y-49973D01*
X66755Y-49939D01*
X66773Y-49895D01*
X66773Y-50104D01*
X66755Y-50060D01*
X66721Y-50026D01*
X66677Y-50008D01*
X66629Y-50008D01*
X66396Y-50008D01*
X66396Y-49962D01*
X66396Y-49745D01*
X66396Y-49625D01*
X66396Y-49408D01*
X66366Y-49378D01*
X66283Y-49378D01*
X66235Y-49378D01*
X66191Y-49396D01*
X66157Y-49430D01*
X66139Y-49474D01*
X66139Y-49595D01*
X66169Y-49625D01*
X66396Y-49625D01*
X66396Y-49745D01*
X66169Y-49745D01*
X66139Y-49775D01*
X66139Y-49895D01*
X66157Y-49939D01*
X66191Y-49973D01*
X66235Y-49992D01*
X66283Y-49992D01*
X66366Y-49992D01*
X66396Y-49962D01*
X66396Y-50008D01*
X66235Y-50008D01*
X66191Y-50026D01*
X66157Y-50060D01*
X66139Y-50104D01*
X66139Y-50109D01*
X66128Y-50098D01*
X66035Y-50060D01*
X65933Y-50059D01*
X65839Y-50098D01*
X65768Y-50170D01*
X65729Y-50264D01*
X65729Y-50365D01*
X65767Y-50459D01*
X65839Y-50531D01*
X65933Y-50569D01*
X66034Y-50570D01*
X66128Y-50531D01*
X66139Y-50520D01*
X66139Y-50525D01*
X66157Y-50569D01*
X66191Y-50603D01*
X66235Y-50622D01*
X66283Y-50622D01*
X66677Y-50622D01*
X66721Y-50603D01*
X66755Y-50569D01*
X66773Y-50525D01*
X66773Y-51247D01*
X64322Y-51247D01*
X63663Y-50588D01*
X63654Y-50579D01*
X63684Y-50592D01*
X63873Y-50592D01*
X64047Y-50520D01*
X64181Y-50386D01*
X64253Y-50212D01*
X64253Y-50023D01*
X64181Y-49849D01*
X64048Y-49715D01*
X63874Y-49643D01*
X63685Y-49643D01*
X63510Y-49715D01*
X63398Y-49827D01*
X63398Y-48877D01*
X63398Y-48877D01*
X63492Y-48916D01*
X63593Y-48916D01*
X63687Y-48877D01*
X63703Y-48861D01*
X63797Y-48861D01*
X63797Y-48882D01*
X63815Y-48926D01*
X63849Y-48960D01*
X63893Y-48978D01*
X63941Y-48978D01*
X64295Y-48978D01*
X64339Y-48960D01*
X64373Y-48926D01*
X64391Y-48882D01*
X64391Y-48834D01*
X64391Y-48440D01*
X64373Y-48396D01*
X64339Y-48362D01*
X64295Y-48344D01*
X64247Y-48344D01*
X63893Y-48344D01*
X63849Y-48362D01*
X63815Y-48396D01*
X63797Y-48440D01*
X63797Y-48461D01*
X63703Y-48461D01*
X63687Y-48445D01*
X63594Y-48406D01*
X63492Y-48406D01*
X63399Y-48445D01*
X63398Y-48445D01*
X63398Y-48031D01*
X63385Y-47966D01*
X63348Y-47911D01*
X63348Y-47911D01*
X61672Y-46235D01*
X61672Y-46169D01*
X61633Y-46076D01*
X61632Y-46075D01*
X64328Y-46075D01*
X64328Y-46116D01*
X64328Y-47750D01*
X64347Y-47794D01*
X64380Y-47828D01*
X64424Y-47846D01*
X64472Y-47846D01*
X64554Y-47846D01*
X64554Y-48344D01*
X64523Y-48344D01*
X64479Y-48362D01*
X64445Y-48396D01*
X64427Y-48440D01*
X64427Y-48488D01*
X64427Y-48882D01*
X64445Y-48926D01*
X64479Y-48960D01*
X64523Y-48978D01*
X64571Y-48978D01*
X64594Y-48978D01*
X64594Y-49674D01*
X64495Y-49715D01*
X64362Y-49848D01*
X64289Y-50022D01*
X64289Y-50211D01*
X64361Y-50386D01*
X64495Y-50519D01*
X64669Y-50592D01*
X64858Y-50592D01*
X65032Y-50520D01*
X65166Y-50386D01*
X65238Y-50212D01*
X65238Y-50023D01*
X65166Y-49849D01*
X65033Y-49715D01*
X64934Y-49674D01*
X64934Y-48974D01*
X64969Y-48960D01*
X65003Y-48926D01*
X65021Y-48882D01*
X65021Y-48834D01*
X65021Y-48440D01*
X65003Y-48396D01*
X64969Y-48362D01*
X64925Y-48344D01*
X64894Y-48344D01*
X64894Y-47846D01*
X65102Y-47846D01*
X65146Y-47828D01*
X65180Y-47794D01*
X65198Y-47750D01*
X65198Y-47702D01*
X65198Y-46075D01*
X65205Y-46075D01*
X65263Y-46133D01*
X65263Y-48110D01*
X65276Y-48175D01*
X65312Y-48230D01*
X66493Y-49411D01*
X66493Y-49411D01*
X66493Y-49411D01*
X66516Y-49426D01*
X66516Y-49625D01*
X66743Y-49625D01*
X66773Y-49595D01*
X66773Y-49474D01*
X66768Y-49461D01*
X66897Y-49461D01*
X66887Y-49484D01*
X66887Y-49713D01*
X66917Y-49743D01*
X67052Y-49743D01*
X67052Y-49735D01*
X67140Y-49735D01*
X67140Y-49743D01*
X67173Y-49743D01*
X67275Y-49743D01*
X67308Y-49743D01*
X67308Y-49735D01*
X67396Y-49735D01*
X67396Y-49743D01*
X67399Y-49743D01*
X67399Y-49863D01*
X67396Y-49863D01*
X67396Y-50188D01*
X67426Y-50218D01*
X67464Y-50218D01*
X67480Y-50212D01*
X67495Y-50218D01*
X67543Y-50218D01*
X67720Y-50218D01*
X67736Y-50212D01*
X67751Y-50218D01*
X67799Y-50218D01*
X67976Y-50218D01*
X67992Y-50212D01*
X68007Y-50218D01*
X68055Y-50218D01*
X68205Y-50218D01*
X68205Y-50293D01*
X68203Y-50296D01*
X68138Y-50296D01*
X68044Y-50334D01*
X67972Y-50406D01*
X67934Y-50500D01*
X67933Y-50601D01*
X67972Y-50695D01*
X68044Y-50767D01*
X68138Y-50806D01*
X68239Y-50806D01*
X68333Y-50767D01*
X68405Y-50695D01*
X68443Y-50602D01*
X68443Y-50536D01*
X68474Y-50506D01*
X68474Y-50507D01*
X68511Y-50563D01*
X68885Y-50936D01*
X68885Y-51485D01*
X68817Y-51513D01*
X68699Y-51631D01*
X68635Y-51786D01*
X68635Y-51953D01*
X68698Y-52107D01*
X68816Y-52225D01*
X68971Y-52290D01*
X69138Y-52290D01*
X69292Y-52226D01*
X69396Y-52122D01*
X69396Y-52287D01*
X69206Y-52478D01*
X69139Y-52450D01*
X68971Y-52450D01*
X68817Y-52513D01*
X68699Y-52631D01*
X68635Y-52786D01*
X68635Y-52953D01*
X68698Y-53107D01*
X68816Y-53225D01*
X68971Y-53290D01*
X69138Y-53290D01*
X69292Y-53226D01*
X69410Y-53108D01*
X69475Y-52953D01*
X69475Y-52786D01*
X69446Y-52718D01*
X69687Y-52478D01*
X69687Y-52478D01*
X69687Y-52478D01*
X69711Y-52441D01*
X69723Y-52423D01*
X69723Y-52423D01*
X69736Y-52358D01*
X69736Y-52358D01*
X69736Y-52358D01*
X69736Y-52145D01*
X69816Y-52225D01*
X69971Y-52290D01*
X70138Y-52290D01*
X70292Y-52226D01*
X70381Y-52138D01*
X70381Y-52303D01*
X70206Y-52478D01*
X70139Y-52450D01*
X69971Y-52450D01*
X69817Y-52513D01*
X69699Y-52631D01*
X69635Y-52786D01*
X69635Y-52953D01*
X69698Y-53107D01*
X69816Y-53225D01*
X69971Y-53290D01*
X70138Y-53290D01*
X70292Y-53226D01*
X70410Y-53108D01*
X70475Y-52953D01*
X70475Y-52786D01*
X70446Y-52718D01*
X70671Y-52494D01*
X70708Y-52439D01*
X70708Y-52439D01*
X70721Y-52374D01*
X70721Y-52130D01*
X70816Y-52225D01*
X70971Y-52290D01*
X71138Y-52290D01*
X71292Y-52226D01*
X71404Y-52114D01*
X71404Y-52279D01*
X71206Y-52478D01*
X71139Y-52450D01*
X70971Y-52450D01*
X70817Y-52513D01*
X70699Y-52631D01*
X70635Y-52786D01*
X70635Y-52953D01*
X70698Y-53107D01*
X70816Y-53225D01*
X70971Y-53290D01*
X71138Y-53290D01*
X71292Y-53226D01*
X71410Y-53108D01*
X71475Y-52953D01*
X71475Y-52786D01*
X71446Y-52718D01*
X71695Y-52470D01*
X71731Y-52415D01*
X71731Y-52415D01*
X71744Y-52350D01*
X71744Y-52290D01*
X71778Y-52290D01*
X72378Y-52290D01*
X72423Y-52271D01*
X72456Y-52238D01*
X72475Y-52193D01*
X72475Y-52146D01*
X72475Y-51546D01*
X72459Y-51508D01*
X74732Y-51508D01*
X75234Y-52009D01*
X75289Y-52046D01*
X75289Y-52046D01*
X75354Y-52059D01*
X78625Y-52059D01*
X78206Y-52478D01*
X78139Y-52450D01*
X77971Y-52450D01*
X77817Y-52513D01*
X77699Y-52631D01*
X77635Y-52786D01*
X77635Y-52953D01*
X77698Y-53107D01*
X77816Y-53225D01*
X77971Y-53290D01*
X78138Y-53290D01*
X78292Y-53226D01*
X78410Y-53108D01*
X78475Y-52953D01*
X78475Y-52786D01*
X78446Y-52718D01*
X78869Y-52295D01*
X79388Y-52295D01*
X79206Y-52478D01*
X79139Y-52450D01*
X78971Y-52450D01*
X78817Y-52513D01*
X78699Y-52631D01*
X78635Y-52786D01*
X78635Y-52953D01*
X78698Y-53107D01*
X78816Y-53225D01*
X78971Y-53290D01*
X79138Y-53290D01*
X79292Y-53226D01*
X79410Y-53108D01*
X79475Y-52953D01*
X79475Y-52786D01*
X79446Y-52718D01*
X79633Y-52532D01*
X79799Y-52532D01*
X79699Y-52631D01*
X79635Y-52786D01*
X79635Y-52953D01*
X79698Y-53107D01*
X79816Y-53225D01*
X79971Y-53290D01*
X80138Y-53290D01*
X80292Y-53226D01*
X80410Y-53108D01*
X80475Y-52953D01*
X80475Y-52786D01*
X80411Y-52632D01*
X80311Y-52532D01*
X81346Y-52532D01*
X81479Y-52664D01*
X81056Y-52664D01*
X81010Y-52618D01*
X80917Y-52579D01*
X80815Y-52579D01*
X80721Y-52618D01*
X80650Y-52690D01*
X80611Y-52783D01*
X80611Y-52885D01*
X80649Y-52978D01*
X80721Y-53050D01*
X80815Y-53089D01*
X80916Y-53089D01*
X81010Y-53050D01*
X81056Y-53004D01*
X84724Y-53004D01*
X84789Y-52991D01*
X84789Y-52991D01*
X84844Y-52954D01*
X85784Y-52014D01*
X85730Y-52145D01*
X85730Y-52443D01*
X85844Y-52719D01*
X86054Y-52930D01*
X86330Y-53045D01*
X86628Y-53045D01*
X86904Y-52931D01*
X87115Y-52720D01*
X87230Y-52445D01*
X87230Y-52146D01*
X87230Y-53483D01*
X87028Y-53618D01*
X86465Y-53730D01*
X77475Y-53730D01*
X77475Y-52786D01*
X77411Y-52632D01*
X77293Y-52514D01*
X77139Y-52450D01*
X76971Y-52450D01*
X76817Y-52513D01*
X76699Y-52631D01*
X76635Y-52786D01*
X76635Y-52953D01*
X76698Y-53107D01*
X76816Y-53225D01*
X76971Y-53290D01*
X77138Y-53290D01*
X77292Y-53226D01*
X77410Y-53108D01*
X77475Y-52953D01*
X77475Y-52786D01*
X77475Y-53730D01*
X76475Y-53730D01*
X76475Y-52786D01*
X76411Y-52632D01*
X76293Y-52514D01*
X76139Y-52450D01*
X75971Y-52450D01*
X75817Y-52513D01*
X75699Y-52631D01*
X75635Y-52786D01*
X75635Y-52953D01*
X75698Y-53107D01*
X75816Y-53225D01*
X75971Y-53290D01*
X76138Y-53290D01*
X76292Y-53226D01*
X76410Y-53108D01*
X76475Y-52953D01*
X76475Y-52786D01*
X76475Y-53730D01*
X75475Y-53730D01*
X75475Y-53193D01*
X75475Y-53146D01*
X75475Y-52546D01*
X75456Y-52502D01*
X75423Y-52468D01*
X75378Y-52450D01*
X75331Y-52450D01*
X74731Y-52450D01*
X74687Y-52468D01*
X74653Y-52502D01*
X74635Y-52546D01*
X74635Y-52593D01*
X74635Y-53193D01*
X74653Y-53238D01*
X74687Y-53271D01*
X74731Y-53290D01*
X74778Y-53290D01*
X75378Y-53290D01*
X75423Y-53271D01*
X75456Y-53238D01*
X75475Y-53193D01*
X75475Y-53730D01*
X72481Y-53730D01*
X72481Y-52910D01*
X72464Y-52744D01*
X72433Y-52669D01*
X72375Y-52634D01*
X72291Y-52718D01*
X72291Y-52549D01*
X72255Y-52491D01*
X72095Y-52443D01*
X71929Y-52460D01*
X71854Y-52491D01*
X71819Y-52549D01*
X72055Y-52785D01*
X72291Y-52549D01*
X72291Y-52718D01*
X72139Y-52870D01*
X72375Y-53106D01*
X72433Y-53070D01*
X72481Y-52910D01*
X72481Y-53730D01*
X72291Y-53730D01*
X72291Y-53190D01*
X72055Y-52954D01*
X71970Y-53039D01*
X71970Y-52870D01*
X71734Y-52634D01*
X71676Y-52669D01*
X71628Y-52829D01*
X71645Y-52995D01*
X71676Y-53070D01*
X71734Y-53106D01*
X71970Y-52870D01*
X71970Y-53039D01*
X71819Y-53190D01*
X71854Y-53248D01*
X72014Y-53296D01*
X72180Y-53279D01*
X72255Y-53248D01*
X72291Y-53190D01*
X72291Y-53730D01*
X68475Y-53730D01*
X68475Y-52786D01*
X68411Y-52632D01*
X68293Y-52514D01*
X68139Y-52450D01*
X67971Y-52450D01*
X67817Y-52513D01*
X67699Y-52631D01*
X67635Y-52786D01*
X67635Y-52953D01*
X67698Y-53107D01*
X67816Y-53225D01*
X67971Y-53290D01*
X68138Y-53290D01*
X68292Y-53226D01*
X68410Y-53108D01*
X68475Y-52953D01*
X68475Y-52786D01*
X68475Y-53730D01*
X67475Y-53730D01*
X67475Y-52786D01*
X67411Y-52632D01*
X67293Y-52514D01*
X67139Y-52450D01*
X66971Y-52450D01*
X66817Y-52513D01*
X66699Y-52631D01*
X66635Y-52786D01*
X66635Y-52953D01*
X66698Y-53107D01*
X66816Y-53225D01*
X66971Y-53290D01*
X67138Y-53290D01*
X67292Y-53226D01*
X67410Y-53108D01*
X67475Y-52953D01*
X67475Y-52786D01*
X67475Y-53730D01*
X65120Y-53730D01*
X65120Y-53000D01*
X65120Y-52016D01*
X65066Y-51885D01*
X64966Y-51784D01*
X64835Y-51730D01*
X64693Y-51730D01*
X64562Y-51784D01*
X64462Y-51884D01*
X64408Y-52015D01*
X64408Y-52157D01*
X64462Y-52288D01*
X64562Y-52388D01*
X64693Y-52442D01*
X64834Y-52442D01*
X64965Y-52388D01*
X65065Y-52288D01*
X65120Y-52157D01*
X65120Y-52016D01*
X65120Y-53000D01*
X65066Y-52869D01*
X64966Y-52768D01*
X64835Y-52714D01*
X64693Y-52714D01*
X64562Y-52768D01*
X64462Y-52868D01*
X64408Y-52999D01*
X64408Y-53141D01*
X64462Y-53272D01*
X64562Y-53372D01*
X64693Y-53426D01*
X64834Y-53426D01*
X64965Y-53372D01*
X65065Y-53272D01*
X65120Y-53141D01*
X65120Y-53000D01*
X65120Y-53730D01*
X63761Y-53730D01*
X63761Y-53346D01*
X63751Y-53293D01*
X63720Y-53247D01*
X63675Y-53217D01*
X63622Y-53206D01*
X63269Y-53206D01*
X63269Y-51992D01*
X63197Y-51818D01*
X63064Y-51684D01*
X62890Y-51612D01*
X62701Y-51612D01*
X62526Y-51684D01*
X62393Y-51817D01*
X62320Y-51991D01*
X62320Y-52180D01*
X62392Y-52355D01*
X62526Y-52488D01*
X62700Y-52561D01*
X62889Y-52561D01*
X63063Y-52489D01*
X63197Y-52355D01*
X63269Y-52181D01*
X63269Y-51992D01*
X63269Y-53206D01*
X62302Y-53206D01*
X62302Y-48610D01*
X62263Y-48517D01*
X62191Y-48445D01*
X62098Y-48406D01*
X61996Y-48406D01*
X61902Y-48445D01*
X61886Y-48461D01*
X61793Y-48461D01*
X61793Y-48440D01*
X61774Y-48396D01*
X61741Y-48362D01*
X61696Y-48344D01*
X61649Y-48344D01*
X61295Y-48344D01*
X61251Y-48362D01*
X61217Y-48396D01*
X61199Y-48440D01*
X61199Y-48488D01*
X61199Y-48882D01*
X61217Y-48926D01*
X61251Y-48960D01*
X61295Y-48978D01*
X61342Y-48978D01*
X61696Y-48978D01*
X61741Y-48960D01*
X61774Y-48926D01*
X61793Y-48882D01*
X61793Y-48861D01*
X61886Y-48861D01*
X61902Y-48877D01*
X61996Y-48916D01*
X62097Y-48916D01*
X62191Y-48877D01*
X62263Y-48806D01*
X62302Y-48712D01*
X62302Y-48610D01*
X62302Y-53206D01*
X62285Y-53206D01*
X62285Y-50023D01*
X62213Y-49849D01*
X62080Y-49715D01*
X61906Y-49643D01*
X61717Y-49643D01*
X61542Y-49715D01*
X61409Y-49848D01*
X61336Y-50022D01*
X61336Y-50211D01*
X61408Y-50386D01*
X61542Y-50519D01*
X61716Y-50592D01*
X61905Y-50592D01*
X62079Y-50520D01*
X62213Y-50386D01*
X62285Y-50212D01*
X62285Y-50023D01*
X62285Y-53206D01*
X61968Y-53206D01*
X61915Y-53217D01*
X61869Y-53247D01*
X61839Y-53293D01*
X61828Y-53346D01*
X61828Y-53730D01*
X61182Y-53730D01*
X61182Y-53000D01*
X61182Y-52016D01*
X61128Y-51885D01*
X61028Y-51784D01*
X60897Y-51730D01*
X60755Y-51730D01*
X60624Y-51784D01*
X60524Y-51884D01*
X60470Y-52015D01*
X60470Y-52157D01*
X60524Y-52288D01*
X60624Y-52388D01*
X60755Y-52442D01*
X60896Y-52442D01*
X61027Y-52388D01*
X61127Y-52288D01*
X61182Y-52157D01*
X61182Y-52016D01*
X61182Y-53000D01*
X61128Y-52869D01*
X61028Y-52768D01*
X60897Y-52714D01*
X60755Y-52714D01*
X60624Y-52768D01*
X60524Y-52868D01*
X60470Y-52999D01*
X60470Y-53141D01*
X60524Y-53272D01*
X60624Y-53372D01*
X60755Y-53426D01*
X60896Y-53426D01*
X61027Y-53372D01*
X61127Y-53272D01*
X61182Y-53141D01*
X61182Y-53000D01*
X61182Y-53730D01*
X60002Y-53730D01*
X60002Y-53000D01*
X60002Y-52016D01*
X59948Y-51885D01*
X59848Y-51784D01*
X59717Y-51730D01*
X59575Y-51730D01*
X59444Y-51784D01*
X59344Y-51884D01*
X59290Y-52015D01*
X59290Y-52157D01*
X59344Y-52288D01*
X59444Y-52388D01*
X59575Y-52442D01*
X59716Y-52442D01*
X59847Y-52388D01*
X59947Y-52288D01*
X60002Y-52157D01*
X60002Y-52016D01*
X60002Y-53000D01*
X59948Y-52869D01*
X59848Y-52768D01*
X59717Y-52714D01*
X59575Y-52714D01*
X59444Y-52768D01*
X59344Y-52868D01*
X59290Y-52999D01*
X59290Y-53141D01*
X59344Y-53272D01*
X59444Y-53372D01*
X59575Y-53426D01*
X59716Y-53426D01*
X59847Y-53372D01*
X59947Y-53272D01*
X60002Y-53141D01*
X60002Y-53000D01*
X60002Y-53730D01*
X59135Y-53730D01*
X59135Y-50023D01*
X59063Y-49849D01*
X58930Y-49715D01*
X58755Y-49643D01*
X58567Y-49643D01*
X58392Y-49715D01*
X58259Y-49848D01*
X58186Y-50022D01*
X58186Y-50211D01*
X58258Y-50386D01*
X58392Y-50519D01*
X58566Y-50592D01*
X58755Y-50592D01*
X58929Y-50520D01*
X59063Y-50386D01*
X59135Y-50212D01*
X59135Y-50023D01*
X59135Y-53730D01*
X58643Y-53730D01*
X58643Y-53346D01*
X58632Y-53293D01*
X58602Y-53247D01*
X58557Y-53217D01*
X58503Y-53206D01*
X58151Y-53206D01*
X58151Y-51992D01*
X58079Y-51818D01*
X58033Y-51771D01*
X58033Y-50047D01*
X57979Y-49916D01*
X57879Y-49815D01*
X57748Y-49761D01*
X57606Y-49761D01*
X57475Y-49815D01*
X57375Y-49915D01*
X57321Y-50046D01*
X57321Y-50188D01*
X57375Y-50319D01*
X57475Y-50419D01*
X57606Y-50473D01*
X57747Y-50473D01*
X57878Y-50419D01*
X57978Y-50319D01*
X58033Y-50188D01*
X58033Y-50047D01*
X58033Y-51771D01*
X57946Y-51684D01*
X57771Y-51612D01*
X57583Y-51612D01*
X57408Y-51684D01*
X57275Y-51817D01*
X57202Y-51991D01*
X57202Y-52180D01*
X57274Y-52355D01*
X57408Y-52488D01*
X57582Y-52561D01*
X57771Y-52561D01*
X57945Y-52489D01*
X58079Y-52355D01*
X58151Y-52181D01*
X58151Y-51992D01*
X58151Y-53206D01*
X57167Y-53206D01*
X57167Y-50023D01*
X57163Y-50013D01*
X57163Y-49004D01*
X57115Y-48887D01*
X57026Y-48798D01*
X56909Y-48750D01*
X56783Y-48750D01*
X56667Y-48798D01*
X56578Y-48887D01*
X56529Y-49003D01*
X56529Y-49129D01*
X56577Y-49246D01*
X56666Y-49335D01*
X56783Y-49383D01*
X56909Y-49383D01*
X57025Y-49335D01*
X57114Y-49246D01*
X57163Y-49130D01*
X57163Y-49004D01*
X57163Y-50013D01*
X57095Y-49849D01*
X56962Y-49715D01*
X56787Y-49643D01*
X56599Y-49643D01*
X56424Y-49715D01*
X56291Y-49848D01*
X56218Y-50022D01*
X56218Y-50211D01*
X56290Y-50386D01*
X56424Y-50519D01*
X56598Y-50592D01*
X56787Y-50592D01*
X56961Y-50520D01*
X57095Y-50386D01*
X57167Y-50212D01*
X57167Y-50023D01*
X57167Y-53206D01*
X56850Y-53206D01*
X56796Y-53217D01*
X56751Y-53247D01*
X56721Y-53293D01*
X56710Y-53346D01*
X56710Y-53730D01*
X56182Y-53730D01*
X56182Y-50023D01*
X56110Y-49849D01*
X55977Y-49715D01*
X55802Y-49643D01*
X55614Y-49643D01*
X55439Y-49715D01*
X55306Y-49848D01*
X55233Y-50022D01*
X55233Y-50211D01*
X55305Y-50386D01*
X55439Y-50519D01*
X55613Y-50592D01*
X55802Y-50592D01*
X55976Y-50520D01*
X56110Y-50386D01*
X56182Y-50212D01*
X56182Y-50023D01*
X56182Y-53730D01*
X56064Y-53730D01*
X56064Y-53000D01*
X56064Y-52016D01*
X56010Y-51885D01*
X55910Y-51784D01*
X55779Y-51730D01*
X55637Y-51730D01*
X55506Y-51784D01*
X55406Y-51884D01*
X55352Y-52015D01*
X55352Y-52157D01*
X55406Y-52288D01*
X55506Y-52388D01*
X55637Y-52442D01*
X55778Y-52442D01*
X55909Y-52388D01*
X56009Y-52288D01*
X56064Y-52157D01*
X56064Y-52016D01*
X56064Y-53000D01*
X56010Y-52869D01*
X55910Y-52768D01*
X55779Y-52714D01*
X55637Y-52714D01*
X55506Y-52768D01*
X55406Y-52868D01*
X55352Y-52999D01*
X55352Y-53141D01*
X55406Y-53272D01*
X55506Y-53372D01*
X55637Y-53426D01*
X55778Y-53426D01*
X55909Y-53372D01*
X56009Y-53272D01*
X56064Y-53141D01*
X56064Y-53000D01*
X56064Y-53730D01*
X54637Y-53730D01*
X54637Y-45417D01*
X54637Y-45369D01*
X54637Y-44975D01*
X54619Y-44931D01*
X54585Y-44898D01*
X54546Y-44881D01*
X54585Y-44865D01*
X54619Y-44831D01*
X54637Y-44787D01*
X54637Y-44740D01*
X54637Y-44346D01*
X54619Y-44301D01*
X54585Y-44268D01*
X54541Y-44249D01*
X54493Y-44249D01*
X54119Y-44249D01*
X54075Y-44268D01*
X54041Y-44301D01*
X54023Y-44346D01*
X54023Y-44366D01*
X54018Y-44366D01*
X54002Y-44350D01*
X53909Y-44311D01*
X53877Y-44311D01*
X53877Y-43967D01*
X53877Y-43760D01*
X53877Y-43640D01*
X53877Y-43433D01*
X53847Y-43403D01*
X53763Y-43403D01*
X53716Y-43403D01*
X53672Y-43422D01*
X53638Y-43455D01*
X53620Y-43499D01*
X53620Y-43610D01*
X53650Y-43640D01*
X53877Y-43640D01*
X53877Y-43760D01*
X53650Y-43760D01*
X53620Y-43790D01*
X53620Y-43901D01*
X53638Y-43945D01*
X53672Y-43979D01*
X53716Y-43997D01*
X53763Y-43997D01*
X53847Y-43997D01*
X53877Y-43967D01*
X53877Y-44311D01*
X53807Y-44311D01*
X53714Y-44350D01*
X53642Y-44422D01*
X53603Y-44515D01*
X53603Y-44617D01*
X53641Y-44711D01*
X53713Y-44782D01*
X53807Y-44821D01*
X53908Y-44821D01*
X54002Y-44783D01*
X54018Y-44766D01*
X54023Y-44766D01*
X54023Y-44787D01*
X54041Y-44831D01*
X54075Y-44865D01*
X54114Y-44881D01*
X54075Y-44898D01*
X54041Y-44931D01*
X54023Y-44975D01*
X54023Y-44996D01*
X54018Y-44996D01*
X54002Y-44980D01*
X53909Y-44941D01*
X53807Y-44941D01*
X53714Y-44980D01*
X53642Y-45052D01*
X53603Y-45145D01*
X53603Y-45247D01*
X53641Y-45341D01*
X53713Y-45412D01*
X53807Y-45451D01*
X53908Y-45451D01*
X54002Y-45413D01*
X54018Y-45396D01*
X54023Y-45396D01*
X54023Y-45417D01*
X54041Y-45461D01*
X54075Y-45495D01*
X54119Y-45513D01*
X54167Y-45513D01*
X54541Y-45513D01*
X54585Y-45495D01*
X54619Y-45461D01*
X54637Y-45417D01*
X54637Y-53730D01*
X53481Y-53730D01*
X53481Y-52910D01*
X53475Y-52849D01*
X53475Y-51786D01*
X53475Y-50786D01*
X53475Y-49786D01*
X53475Y-48786D01*
X53411Y-48632D01*
X53293Y-48514D01*
X53139Y-48450D01*
X52971Y-48450D01*
X52817Y-48513D01*
X52699Y-48631D01*
X52635Y-48786D01*
X52635Y-48953D01*
X52698Y-49107D01*
X52816Y-49225D01*
X52971Y-49290D01*
X53138Y-49290D01*
X53292Y-49226D01*
X53410Y-49108D01*
X53475Y-48953D01*
X53475Y-48786D01*
X53475Y-49786D01*
X53411Y-49632D01*
X53293Y-49514D01*
X53139Y-49450D01*
X52971Y-49450D01*
X52817Y-49513D01*
X52699Y-49631D01*
X52635Y-49786D01*
X52635Y-49953D01*
X52698Y-50107D01*
X52816Y-50225D01*
X52971Y-50290D01*
X53138Y-50290D01*
X53292Y-50226D01*
X53410Y-50108D01*
X53475Y-49953D01*
X53475Y-49786D01*
X53475Y-50786D01*
X53411Y-50632D01*
X53293Y-50514D01*
X53139Y-50450D01*
X52971Y-50450D01*
X52817Y-50513D01*
X52699Y-50631D01*
X52635Y-50786D01*
X52635Y-50953D01*
X52698Y-51107D01*
X52816Y-51225D01*
X52971Y-51290D01*
X53138Y-51290D01*
X53292Y-51226D01*
X53410Y-51108D01*
X53475Y-50953D01*
X53475Y-50786D01*
X53475Y-51786D01*
X53411Y-51632D01*
X53293Y-51514D01*
X53139Y-51450D01*
X52971Y-51450D01*
X52817Y-51513D01*
X52699Y-51631D01*
X52635Y-51786D01*
X52635Y-51953D01*
X52698Y-52107D01*
X52816Y-52225D01*
X52971Y-52290D01*
X53138Y-52290D01*
X53292Y-52226D01*
X53410Y-52108D01*
X53475Y-51953D01*
X53475Y-51786D01*
X53475Y-52849D01*
X53464Y-52744D01*
X53433Y-52669D01*
X53375Y-52634D01*
X53291Y-52718D01*
X53291Y-52549D01*
X53255Y-52491D01*
X53095Y-52443D01*
X52929Y-52460D01*
X52854Y-52491D01*
X52819Y-52549D01*
X53055Y-52785D01*
X53291Y-52549D01*
X53291Y-52718D01*
X53139Y-52870D01*
X53375Y-53106D01*
X53433Y-53070D01*
X53481Y-52910D01*
X53481Y-53730D01*
X53291Y-53730D01*
X53291Y-53190D01*
X53055Y-52954D01*
X52970Y-53039D01*
X52970Y-52870D01*
X52734Y-52634D01*
X52676Y-52669D01*
X52628Y-52829D01*
X52645Y-52995D01*
X52676Y-53070D01*
X52734Y-53106D01*
X52970Y-52870D01*
X52970Y-53039D01*
X52819Y-53190D01*
X52854Y-53248D01*
X53014Y-53296D01*
X53180Y-53279D01*
X53255Y-53248D01*
X53291Y-53190D01*
X53291Y-53730D01*
X52769Y-53730D01*
X52207Y-53618D01*
X51743Y-53308D01*
X51432Y-52843D01*
X51320Y-52281D01*
X51320Y-26458D01*
X51432Y-25896D01*
X51743Y-25432D01*
X52207Y-25121D01*
X52769Y-25009D01*
X57230Y-25009D01*
X57490Y-25061D01*
X57700Y-25201D01*
X57839Y-25410D01*
X57891Y-25671D01*
X57891Y-26811D01*
X57902Y-26864D01*
X57932Y-26909D01*
X57978Y-26940D01*
X58031Y-26950D01*
X72283Y-26950D01*
X72336Y-26940D01*
X72382Y-26909D01*
X72412Y-26864D01*
X72423Y-26811D01*
X72423Y-25671D01*
X72474Y-25410D01*
X72614Y-25201D01*
X72824Y-25061D01*
X73084Y-25009D01*
X86466Y-25009D01*
X87028Y-25121D01*
X87493Y-25432D01*
X87803Y-25896D01*
X87915Y-26458D01*
X87915Y-52281D01*
X87915Y-52281D01*
G37*
X87915Y-52281D02*
X87803Y-52843D01*
X87493Y-53307D01*
X87230Y-53483D01*
X87230Y-52146D01*
X87230Y-26296D01*
X87116Y-26020D01*
X86905Y-25809D01*
X86630Y-25695D01*
X86331Y-25694D01*
X86056Y-25808D01*
X85844Y-26019D01*
X85730Y-26295D01*
X85730Y-26593D01*
X85844Y-26869D01*
X86054Y-27080D01*
X86330Y-27194D01*
X86628Y-27195D01*
X86904Y-27081D01*
X87115Y-26870D01*
X87230Y-26594D01*
X87230Y-26296D01*
X87230Y-52146D01*
X87116Y-51870D01*
X86905Y-51659D01*
X86630Y-51545D01*
X86331Y-51545D01*
X86199Y-51599D01*
X86498Y-51301D01*
X86535Y-51246D01*
X86535Y-51246D01*
X86547Y-51181D01*
X86547Y-34960D01*
X86535Y-34895D01*
X86535Y-34895D01*
X86498Y-34840D01*
X84586Y-32928D01*
X84594Y-32932D01*
X84696Y-32932D01*
X84789Y-32893D01*
X84861Y-32821D01*
X84885Y-32764D01*
X84909Y-32774D01*
X85011Y-32774D01*
X85104Y-32735D01*
X85176Y-32664D01*
X85215Y-32570D01*
X85215Y-32469D01*
X85176Y-32375D01*
X85105Y-32303D01*
X85011Y-32264D01*
X84985Y-32264D01*
X81852Y-29131D01*
X81797Y-29094D01*
X81732Y-29081D01*
X78064Y-29081D01*
X78018Y-29035D01*
X77924Y-28997D01*
X77823Y-28996D01*
X77729Y-29035D01*
X77657Y-29107D01*
X77619Y-29201D01*
X77618Y-29302D01*
X77641Y-29357D01*
X76811Y-29357D01*
X76811Y-29357D01*
X76756Y-29368D01*
X76745Y-29370D01*
X76690Y-29407D01*
X76628Y-29469D01*
X76563Y-29469D01*
X76469Y-29508D01*
X76398Y-29579D01*
X76359Y-29673D01*
X76359Y-29774D01*
X76381Y-29830D01*
X74836Y-29830D01*
X74790Y-29783D01*
X74696Y-29745D01*
X74595Y-29744D01*
X74501Y-29783D01*
X74429Y-29855D01*
X74390Y-29949D01*
X74390Y-30050D01*
X74429Y-30144D01*
X74501Y-30216D01*
X74594Y-30254D01*
X74696Y-30255D01*
X74789Y-30216D01*
X74836Y-30170D01*
X74910Y-30170D01*
X74843Y-30197D01*
X74764Y-30275D01*
X74722Y-30377D01*
X74722Y-30488D01*
X74764Y-30590D01*
X74791Y-30617D01*
X73391Y-30617D01*
X73391Y-25870D01*
X73343Y-25753D01*
X73254Y-25664D01*
X73138Y-25616D01*
X73012Y-25616D01*
X72895Y-25664D01*
X72806Y-25753D01*
X72758Y-25869D01*
X72757Y-25995D01*
X72806Y-26112D01*
X72895Y-26201D01*
X73011Y-26249D01*
X73137Y-26249D01*
X73254Y-26201D01*
X73343Y-26112D01*
X73391Y-25996D01*
X73391Y-25870D01*
X73391Y-30617D01*
X66377Y-30617D01*
X66312Y-30630D01*
X66257Y-30667D01*
X61198Y-35726D01*
X61161Y-35781D01*
X61148Y-35846D01*
X61148Y-36974D01*
X61039Y-36974D01*
X60995Y-36992D01*
X60961Y-37026D01*
X60942Y-37070D01*
X60942Y-37118D01*
X60942Y-37590D01*
X60952Y-37612D01*
X60952Y-37657D01*
X60964Y-37722D01*
X61001Y-37777D01*
X61083Y-37859D01*
X61083Y-37924D01*
X61122Y-38018D01*
X61193Y-38090D01*
X61287Y-38128D01*
X61389Y-38129D01*
X61482Y-38090D01*
X61554Y-38018D01*
X61593Y-37924D01*
X61593Y-37823D01*
X61554Y-37729D01*
X61512Y-37686D01*
X61598Y-37686D01*
X61614Y-37680D01*
X61629Y-37686D01*
X61677Y-37686D01*
X61795Y-37686D01*
X61811Y-37680D01*
X61826Y-37686D01*
X61874Y-37686D01*
X61992Y-37686D01*
X62007Y-37680D01*
X62023Y-37686D01*
X62071Y-37686D01*
X62189Y-37686D01*
X62204Y-37680D01*
X62220Y-37686D01*
X62267Y-37686D01*
X62330Y-37686D01*
X62330Y-37743D01*
X62319Y-37795D01*
X62334Y-37871D01*
X62378Y-37936D01*
X67437Y-42996D01*
X67437Y-45682D01*
X67424Y-45650D01*
X67390Y-45616D01*
X67346Y-45598D01*
X67325Y-45598D01*
X67325Y-45514D01*
X67342Y-45498D01*
X67380Y-45405D01*
X67381Y-45303D01*
X67342Y-45210D01*
X67270Y-45138D01*
X67176Y-45099D01*
X67075Y-45099D01*
X66981Y-45138D01*
X66909Y-45209D01*
X66871Y-45303D01*
X66870Y-45404D01*
X66909Y-45498D01*
X66925Y-45514D01*
X66925Y-45598D01*
X66905Y-45598D01*
X66861Y-45616D01*
X66827Y-45650D01*
X66808Y-45694D01*
X66808Y-45742D01*
X66808Y-46116D01*
X66827Y-46160D01*
X66861Y-46194D01*
X66905Y-46212D01*
X66952Y-46212D01*
X67346Y-46212D01*
X67390Y-46194D01*
X67424Y-46160D01*
X67437Y-46128D01*
X67437Y-46295D01*
X67432Y-46300D01*
X67424Y-46280D01*
X67390Y-46246D01*
X67346Y-46228D01*
X67299Y-46228D01*
X66905Y-46228D01*
X66861Y-46246D01*
X66827Y-46280D01*
X66808Y-46324D01*
X66808Y-46372D01*
X66808Y-46746D01*
X66827Y-46790D01*
X66856Y-46819D01*
X66831Y-46878D01*
X66831Y-46979D01*
X66870Y-47073D01*
X66896Y-47099D01*
X66896Y-47179D01*
X66887Y-47200D01*
X66887Y-47248D01*
X66887Y-47749D01*
X66784Y-47646D01*
X66784Y-44094D01*
X66784Y-44094D01*
X66784Y-44094D01*
X66771Y-44029D01*
X66771Y-44029D01*
X66759Y-44011D01*
X66734Y-43974D01*
X66734Y-43974D01*
X66734Y-43974D01*
X64135Y-41375D01*
X64080Y-41339D01*
X64015Y-41326D01*
X60887Y-41326D01*
X60887Y-36764D01*
X60887Y-36716D01*
X60887Y-36449D01*
X60887Y-36401D01*
X60887Y-35771D01*
X60869Y-35727D01*
X60835Y-35693D01*
X60791Y-35675D01*
X60743Y-35675D01*
X59798Y-35675D01*
X59754Y-35693D01*
X59721Y-35727D01*
X59702Y-35771D01*
X59702Y-35819D01*
X59702Y-35940D01*
X59637Y-35940D01*
X59637Y-35940D01*
X59572Y-35953D01*
X59554Y-35965D01*
X59517Y-35990D01*
X59517Y-35990D01*
X59463Y-36044D01*
X59398Y-36044D01*
X59304Y-36082D01*
X59232Y-36154D01*
X59193Y-36248D01*
X59193Y-36349D01*
X59232Y-36443D01*
X59304Y-36515D01*
X59397Y-36554D01*
X59499Y-36554D01*
X59593Y-36515D01*
X59664Y-36443D01*
X59702Y-36352D01*
X59702Y-36449D01*
X59721Y-36493D01*
X59754Y-36526D01*
X59798Y-36545D01*
X59846Y-36545D01*
X60017Y-36545D01*
X60017Y-36764D01*
X60036Y-36808D01*
X60069Y-36841D01*
X60113Y-36860D01*
X60161Y-36860D01*
X60791Y-36860D01*
X60835Y-36841D01*
X60869Y-36808D01*
X60887Y-36764D01*
X60887Y-41326D01*
X60412Y-41326D01*
X60412Y-40264D01*
X60373Y-40170D01*
X60302Y-40098D01*
X60208Y-40060D01*
X60106Y-40059D01*
X60013Y-40098D01*
X60002Y-40109D01*
X60002Y-40104D01*
X59983Y-40059D01*
X59950Y-40026D01*
X59905Y-40007D01*
X59858Y-40007D01*
X59464Y-40007D01*
X59420Y-40026D01*
X59386Y-40059D01*
X59370Y-40099D01*
X59353Y-40059D01*
X59320Y-40026D01*
X59275Y-40007D01*
X59228Y-40007D01*
X58834Y-40007D01*
X58790Y-40026D01*
X58756Y-40059D01*
X58738Y-40104D01*
X58738Y-40109D01*
X58727Y-40098D01*
X58633Y-40060D01*
X58532Y-40059D01*
X58438Y-40098D01*
X58366Y-40170D01*
X58327Y-40264D01*
X58327Y-40365D01*
X58366Y-40459D01*
X58438Y-40531D01*
X58531Y-40569D01*
X58633Y-40570D01*
X58726Y-40531D01*
X58738Y-40520D01*
X58738Y-40525D01*
X58756Y-40569D01*
X58790Y-40603D01*
X58834Y-40621D01*
X58881Y-40621D01*
X59275Y-40621D01*
X59320Y-40603D01*
X59353Y-40569D01*
X59370Y-40530D01*
X59386Y-40569D01*
X59420Y-40603D01*
X59464Y-40621D01*
X59511Y-40621D01*
X59905Y-40621D01*
X59950Y-40603D01*
X59983Y-40569D01*
X60002Y-40525D01*
X60002Y-40520D01*
X60012Y-40531D01*
X60106Y-40569D01*
X60207Y-40570D01*
X60301Y-40531D01*
X60373Y-40459D01*
X60412Y-40365D01*
X60412Y-40264D01*
X60412Y-41326D01*
X60002Y-41326D01*
X60002Y-41155D01*
X60002Y-41034D01*
X60002Y-40854D01*
X60002Y-40734D01*
X59983Y-40689D01*
X59950Y-40656D01*
X59905Y-40637D01*
X59858Y-40637D01*
X59775Y-40637D01*
X59745Y-40667D01*
X59745Y-40884D01*
X59972Y-40884D01*
X60002Y-40854D01*
X60002Y-41034D01*
X59972Y-41004D01*
X59745Y-41004D01*
X59745Y-41221D01*
X59775Y-41251D01*
X59858Y-41251D01*
X59905Y-41251D01*
X59950Y-41233D01*
X59983Y-41199D01*
X60002Y-41155D01*
X60002Y-41326D01*
X59625Y-41326D01*
X59625Y-41221D01*
X59625Y-41004D01*
X59625Y-40884D01*
X59625Y-40667D01*
X59595Y-40637D01*
X59511Y-40637D01*
X59464Y-40637D01*
X59420Y-40656D01*
X59386Y-40689D01*
X59370Y-40729D01*
X59353Y-40689D01*
X59320Y-40656D01*
X59275Y-40637D01*
X59228Y-40637D01*
X59145Y-40637D01*
X59115Y-40667D01*
X59115Y-40884D01*
X59342Y-40884D01*
X59370Y-40856D01*
X59398Y-40884D01*
X59625Y-40884D01*
X59625Y-41004D01*
X59398Y-41004D01*
X59370Y-41032D01*
X59342Y-41004D01*
X59115Y-41004D01*
X59115Y-41221D01*
X59145Y-41251D01*
X59228Y-41251D01*
X59275Y-41251D01*
X59320Y-41233D01*
X59353Y-41199D01*
X59370Y-41160D01*
X59386Y-41199D01*
X59420Y-41233D01*
X59464Y-41251D01*
X59511Y-41251D01*
X59595Y-41251D01*
X59625Y-41221D01*
X59625Y-41326D01*
X58995Y-41326D01*
X58995Y-41221D01*
X58995Y-41004D01*
X58995Y-40884D01*
X58995Y-40667D01*
X58965Y-40637D01*
X58881Y-40637D01*
X58834Y-40637D01*
X58790Y-40656D01*
X58756Y-40689D01*
X58738Y-40734D01*
X58738Y-40854D01*
X58768Y-40884D01*
X58995Y-40884D01*
X58995Y-41004D01*
X58768Y-41004D01*
X58738Y-41034D01*
X58738Y-41155D01*
X58756Y-41199D01*
X58790Y-41233D01*
X58834Y-41251D01*
X58881Y-41251D01*
X58965Y-41251D01*
X58995Y-41221D01*
X58995Y-41326D01*
X58367Y-41326D01*
X58367Y-41034D01*
X58367Y-40854D01*
X58367Y-40556D01*
X58349Y-40512D01*
X58315Y-40479D01*
X58271Y-40460D01*
X58233Y-40460D01*
X58203Y-40490D01*
X58203Y-40884D01*
X58337Y-40884D01*
X58367Y-40854D01*
X58367Y-41034D01*
X58337Y-41004D01*
X58203Y-41004D01*
X58203Y-41012D01*
X58114Y-41012D01*
X58114Y-41004D01*
X58111Y-41004D01*
X58111Y-40884D01*
X58114Y-40884D01*
X58114Y-40490D01*
X58084Y-40460D01*
X58046Y-40460D01*
X58031Y-40467D01*
X58015Y-40460D01*
X57967Y-40460D01*
X57790Y-40460D01*
X57775Y-40467D01*
X57760Y-40460D01*
X57712Y-40460D01*
X57535Y-40460D01*
X57520Y-40467D01*
X57504Y-40460D01*
X57456Y-40460D01*
X57293Y-40460D01*
X57293Y-40456D01*
X57293Y-40456D01*
X57256Y-40401D01*
X57163Y-40308D01*
X57163Y-25870D01*
X57115Y-25753D01*
X57026Y-25664D01*
X56909Y-25616D01*
X56783Y-25616D01*
X56667Y-25664D01*
X56578Y-25753D01*
X56529Y-25869D01*
X56529Y-25995D01*
X56577Y-26112D01*
X56666Y-26201D01*
X56783Y-26249D01*
X56909Y-26249D01*
X57025Y-26201D01*
X57114Y-26112D01*
X57163Y-25996D01*
X57163Y-25870D01*
X57163Y-40308D01*
X57128Y-40273D01*
X57072Y-40236D01*
X57007Y-40223D01*
X56929Y-40223D01*
X56771Y-40223D01*
X56706Y-40236D01*
X56684Y-40251D01*
X56684Y-40247D01*
X56684Y-40067D01*
X56684Y-39984D01*
X56684Y-39936D01*
X56666Y-39892D01*
X56632Y-39858D01*
X56593Y-39842D01*
X56632Y-39826D01*
X56666Y-39792D01*
X56684Y-39748D01*
X56684Y-39700D01*
X56684Y-39617D01*
X56684Y-39437D01*
X56684Y-39354D01*
X56684Y-39306D01*
X56666Y-39262D01*
X56632Y-39228D01*
X56588Y-39210D01*
X56467Y-39210D01*
X56437Y-39240D01*
X56437Y-39467D01*
X56654Y-39467D01*
X56684Y-39437D01*
X56684Y-39617D01*
X56654Y-39587D01*
X56437Y-39587D01*
X56437Y-39814D01*
X56465Y-39842D01*
X56437Y-39870D01*
X56437Y-40097D01*
X56654Y-40097D01*
X56684Y-40067D01*
X56684Y-40247D01*
X56654Y-40217D01*
X56437Y-40217D01*
X56437Y-40444D01*
X56454Y-40460D01*
X56442Y-40460D01*
X56412Y-40490D01*
X56412Y-40884D01*
X56415Y-40884D01*
X56415Y-41004D01*
X56412Y-41004D01*
X56412Y-41398D01*
X56442Y-41428D01*
X56480Y-41428D01*
X56496Y-41422D01*
X56511Y-41428D01*
X56559Y-41428D01*
X56710Y-41428D01*
X56710Y-41514D01*
X56706Y-41515D01*
X56634Y-41587D01*
X56595Y-41681D01*
X56595Y-41709D01*
X56304Y-41418D01*
X56323Y-41398D01*
X56323Y-41004D01*
X56320Y-41004D01*
X56320Y-40884D01*
X56323Y-40884D01*
X56323Y-40490D01*
X56297Y-40464D01*
X56301Y-40460D01*
X56317Y-40444D01*
X56317Y-40217D01*
X56317Y-40097D01*
X56317Y-39870D01*
X56290Y-39842D01*
X56317Y-39814D01*
X56317Y-39587D01*
X56317Y-39467D01*
X56317Y-39240D01*
X56287Y-39210D01*
X56167Y-39210D01*
X56123Y-39228D01*
X56089Y-39262D01*
X56070Y-39306D01*
X56070Y-39354D01*
X56070Y-39437D01*
X56100Y-39467D01*
X56317Y-39467D01*
X56317Y-39587D01*
X56100Y-39587D01*
X56070Y-39617D01*
X56070Y-39700D01*
X56070Y-39748D01*
X56089Y-39792D01*
X56123Y-39826D01*
X56162Y-39842D01*
X56123Y-39858D01*
X56089Y-39892D01*
X56070Y-39936D01*
X56070Y-39984D01*
X56070Y-40067D01*
X56100Y-40097D01*
X56317Y-40097D01*
X56317Y-40217D01*
X56100Y-40217D01*
X56070Y-40247D01*
X56070Y-40330D01*
X56070Y-40378D01*
X56089Y-40422D01*
X56123Y-40456D01*
X56134Y-40460D01*
X55999Y-40460D01*
X55984Y-40467D01*
X55980Y-40465D01*
X56002Y-40456D01*
X56036Y-40422D01*
X56054Y-40378D01*
X56054Y-40330D01*
X56054Y-39936D01*
X56036Y-39892D01*
X56002Y-39858D01*
X55963Y-39842D01*
X56002Y-39826D01*
X56036Y-39792D01*
X56054Y-39748D01*
X56054Y-39700D01*
X56054Y-39306D01*
X56036Y-39262D01*
X56002Y-39228D01*
X55958Y-39210D01*
X55911Y-39210D01*
X55537Y-39210D01*
X55493Y-39228D01*
X55459Y-39262D01*
X55440Y-39306D01*
X55440Y-39327D01*
X55436Y-39327D01*
X55420Y-39311D01*
X55326Y-39272D01*
X55225Y-39272D01*
X55131Y-39311D01*
X55059Y-39382D01*
X55031Y-39450D01*
X55024Y-39467D01*
X55001Y-39467D01*
X55031Y-39437D01*
X55031Y-39354D01*
X55031Y-39306D01*
X55013Y-39262D01*
X54979Y-39228D01*
X54935Y-39210D01*
X54814Y-39210D01*
X54784Y-39240D01*
X54784Y-39467D01*
X54792Y-39467D01*
X54792Y-39587D01*
X54784Y-39587D01*
X54784Y-39814D01*
X54812Y-39842D01*
X54784Y-39870D01*
X54784Y-40097D01*
X54792Y-40097D01*
X54792Y-40217D01*
X54784Y-40217D01*
X54784Y-40225D01*
X54664Y-40225D01*
X54664Y-40217D01*
X54664Y-40097D01*
X54664Y-39870D01*
X54636Y-39842D01*
X54664Y-39814D01*
X54664Y-39587D01*
X54664Y-39467D01*
X54664Y-39240D01*
X54634Y-39210D01*
X54513Y-39210D01*
X54469Y-39228D01*
X54435Y-39262D01*
X54417Y-39306D01*
X54417Y-39354D01*
X54417Y-39437D01*
X54447Y-39467D01*
X54664Y-39467D01*
X54664Y-39587D01*
X54447Y-39587D01*
X54417Y-39617D01*
X54417Y-39700D01*
X54417Y-39748D01*
X54435Y-39792D01*
X54469Y-39826D01*
X54508Y-39842D01*
X54469Y-39858D01*
X54435Y-39892D01*
X54417Y-39936D01*
X54417Y-39984D01*
X54417Y-40067D01*
X54447Y-40097D01*
X54664Y-40097D01*
X54664Y-40217D01*
X54447Y-40217D01*
X54417Y-40247D01*
X54417Y-40330D01*
X54417Y-40378D01*
X54435Y-40422D01*
X54469Y-40456D01*
X54513Y-40474D01*
X54634Y-40474D01*
X54664Y-40444D01*
X54664Y-40474D01*
X54664Y-40474D01*
X54687Y-40474D01*
X54676Y-40479D01*
X54664Y-40491D01*
X54642Y-40512D01*
X54624Y-40556D01*
X54624Y-40854D01*
X54654Y-40884D01*
X54788Y-40884D01*
X54788Y-40876D01*
X54877Y-40876D01*
X54877Y-40884D01*
X54880Y-40884D01*
X54880Y-41004D01*
X54877Y-41004D01*
X54877Y-41398D01*
X54885Y-41407D01*
X54862Y-41430D01*
X54823Y-41523D01*
X54823Y-41625D01*
X54862Y-41719D01*
X54934Y-41790D01*
X55027Y-41829D01*
X55099Y-41829D01*
X55099Y-41861D01*
X55138Y-41955D01*
X55209Y-42027D01*
X55303Y-42065D01*
X55404Y-42066D01*
X55498Y-42027D01*
X55551Y-41974D01*
X55603Y-42027D01*
X55697Y-42065D01*
X55798Y-42066D01*
X55892Y-42027D01*
X55964Y-41955D01*
X55988Y-41897D01*
X56197Y-42107D01*
X56169Y-42107D01*
X56076Y-42145D01*
X56029Y-42192D01*
X54788Y-42192D01*
X54788Y-41398D01*
X54788Y-41004D01*
X54654Y-41004D01*
X54624Y-41034D01*
X54624Y-41332D01*
X54642Y-41376D01*
X54676Y-41410D01*
X54720Y-41428D01*
X54758Y-41428D01*
X54788Y-41398D01*
X54788Y-42192D01*
X54401Y-42192D01*
X54401Y-40378D01*
X54401Y-40330D01*
X54401Y-39936D01*
X54383Y-39892D01*
X54349Y-39858D01*
X54310Y-39842D01*
X54349Y-39826D01*
X54383Y-39792D01*
X54401Y-39748D01*
X54401Y-39700D01*
X54401Y-39306D01*
X54383Y-39262D01*
X54349Y-39228D01*
X54305Y-39210D01*
X54257Y-39210D01*
X53883Y-39210D01*
X53839Y-39228D01*
X53805Y-39262D01*
X53787Y-39306D01*
X53787Y-39327D01*
X53782Y-39327D01*
X53766Y-39311D01*
X53672Y-39272D01*
X53571Y-39272D01*
X53477Y-39311D01*
X53405Y-39382D01*
X53367Y-39476D01*
X53367Y-39578D01*
X53405Y-39671D01*
X53477Y-39743D01*
X53571Y-39782D01*
X53672Y-39782D01*
X53766Y-39743D01*
X53782Y-39727D01*
X53787Y-39727D01*
X53787Y-39748D01*
X53805Y-39792D01*
X53839Y-39826D01*
X53878Y-39842D01*
X53839Y-39858D01*
X53805Y-39892D01*
X53787Y-39936D01*
X53787Y-39984D01*
X53787Y-40378D01*
X53805Y-40422D01*
X53839Y-40456D01*
X53883Y-40474D01*
X53889Y-40474D01*
X53878Y-40485D01*
X53839Y-40578D01*
X53839Y-40680D01*
X53878Y-40774D01*
X53949Y-40845D01*
X54043Y-40884D01*
X54144Y-40884D01*
X54238Y-40846D01*
X54310Y-40774D01*
X54349Y-40680D01*
X54349Y-40579D01*
X54310Y-40485D01*
X54299Y-40474D01*
X54305Y-40474D01*
X54349Y-40456D01*
X54383Y-40422D01*
X54401Y-40378D01*
X54401Y-42192D01*
X53921Y-42192D01*
X53921Y-42192D01*
X53866Y-42202D01*
X53856Y-42205D01*
X53801Y-42241D01*
X52934Y-43108D01*
X52898Y-43163D01*
X52885Y-43228D01*
X52885Y-47450D01*
X52731Y-47450D01*
X52687Y-47468D01*
X52653Y-47502D01*
X52635Y-47546D01*
X52635Y-47593D01*
X52635Y-48193D01*
X52653Y-48238D01*
X52687Y-48271D01*
X52731Y-48290D01*
X52778Y-48290D01*
X53378Y-48290D01*
X53423Y-48271D01*
X53456Y-48238D01*
X53475Y-48193D01*
X53475Y-48146D01*
X53475Y-47546D01*
X53456Y-47502D01*
X53423Y-47468D01*
X53378Y-47450D01*
X53331Y-47450D01*
X53225Y-47450D01*
X53225Y-43298D01*
X53620Y-42903D01*
X53620Y-42917D01*
X53620Y-43271D01*
X53638Y-43315D01*
X53672Y-43349D01*
X53716Y-43367D01*
X53763Y-43367D01*
X54157Y-43367D01*
X54201Y-43349D01*
X54235Y-43315D01*
X54254Y-43271D01*
X54254Y-43240D01*
X54670Y-43240D01*
X54642Y-43268D01*
X54624Y-43312D01*
X54624Y-43360D01*
X54624Y-43481D01*
X54539Y-43445D01*
X54437Y-43445D01*
X54343Y-43484D01*
X54272Y-43556D01*
X54254Y-43599D01*
X54254Y-43499D01*
X54235Y-43455D01*
X54201Y-43422D01*
X54157Y-43403D01*
X54110Y-43403D01*
X54027Y-43403D01*
X53997Y-43433D01*
X53997Y-43640D01*
X54004Y-43640D01*
X54004Y-43760D01*
X53997Y-43760D01*
X53997Y-43967D01*
X54027Y-43997D01*
X54110Y-43997D01*
X54157Y-43997D01*
X54201Y-43979D01*
X54235Y-43945D01*
X54254Y-43901D01*
X54254Y-43801D01*
X54271Y-43845D01*
X54343Y-43916D01*
X54437Y-43955D01*
X54538Y-43955D01*
X54624Y-43920D01*
X54624Y-44088D01*
X54642Y-44132D01*
X54676Y-44166D01*
X54720Y-44184D01*
X54768Y-44184D01*
X54889Y-44184D01*
X54889Y-44249D01*
X54749Y-44249D01*
X54705Y-44268D01*
X54671Y-44301D01*
X54653Y-44346D01*
X54653Y-44393D01*
X54653Y-44787D01*
X54671Y-44831D01*
X54705Y-44865D01*
X54744Y-44881D01*
X54705Y-44898D01*
X54671Y-44931D01*
X54653Y-44975D01*
X54653Y-45023D01*
X54653Y-45417D01*
X54671Y-45461D01*
X54705Y-45495D01*
X54749Y-45513D01*
X54797Y-45513D01*
X55171Y-45513D01*
X55197Y-45503D01*
X55197Y-45503D01*
X55223Y-45543D01*
X55420Y-45739D01*
X55420Y-46395D01*
X55369Y-46395D01*
X55325Y-46414D01*
X55291Y-46447D01*
X55273Y-46492D01*
X55273Y-46539D01*
X55273Y-46893D01*
X55291Y-46937D01*
X55325Y-46971D01*
X55369Y-46989D01*
X55417Y-46989D01*
X55811Y-46989D01*
X55855Y-46971D01*
X55889Y-46937D01*
X55903Y-46903D01*
X55903Y-46933D01*
X55903Y-47112D01*
X55889Y-47077D01*
X55855Y-47044D01*
X55811Y-47025D01*
X55763Y-47025D01*
X55369Y-47025D01*
X55325Y-47044D01*
X55291Y-47077D01*
X55273Y-47122D01*
X55273Y-47169D01*
X55273Y-47523D01*
X55291Y-47567D01*
X55325Y-47601D01*
X55369Y-47619D01*
X55417Y-47619D01*
X55647Y-47619D01*
X55741Y-47714D01*
X55379Y-47714D01*
X55335Y-47732D01*
X55301Y-47766D01*
X55283Y-47810D01*
X55283Y-47831D01*
X55200Y-47831D01*
X55184Y-47815D01*
X55090Y-47776D01*
X54988Y-47776D01*
X54895Y-47815D01*
X54823Y-47886D01*
X54784Y-47980D01*
X54784Y-48081D01*
X54823Y-48175D01*
X54894Y-48247D01*
X54988Y-48286D01*
X55089Y-48286D01*
X55183Y-48247D01*
X55199Y-48231D01*
X55283Y-48231D01*
X55283Y-48252D01*
X55301Y-48296D01*
X55335Y-48330D01*
X55379Y-48348D01*
X55379Y-48348D01*
X55345Y-48362D01*
X55311Y-48396D01*
X55293Y-48440D01*
X55293Y-48461D01*
X55200Y-48461D01*
X55184Y-48445D01*
X55090Y-48406D01*
X54988Y-48406D01*
X54895Y-48445D01*
X54823Y-48516D01*
X54784Y-48610D01*
X54784Y-48711D01*
X54823Y-48805D01*
X54894Y-48877D01*
X54988Y-48916D01*
X55089Y-48916D01*
X55183Y-48877D01*
X55199Y-48861D01*
X55293Y-48861D01*
X55293Y-48882D01*
X55311Y-48926D01*
X55345Y-48960D01*
X55389Y-48978D01*
X55437Y-48978D01*
X55791Y-48978D01*
X55835Y-48960D01*
X55869Y-48926D01*
X55887Y-48882D01*
X55887Y-48834D01*
X55887Y-48440D01*
X55869Y-48396D01*
X55835Y-48362D01*
X55801Y-48348D01*
X55801Y-48348D01*
X55845Y-48330D01*
X55879Y-48296D01*
X55897Y-48252D01*
X55897Y-48204D01*
X55897Y-47870D01*
X55913Y-47886D01*
X55913Y-48252D01*
X55931Y-48296D01*
X55965Y-48330D01*
X56009Y-48348D01*
X56009Y-48348D01*
X55975Y-48362D01*
X55941Y-48396D01*
X55923Y-48440D01*
X55923Y-48488D01*
X55923Y-48882D01*
X55941Y-48926D01*
X55975Y-48960D01*
X56019Y-48978D01*
X56067Y-48978D01*
X56421Y-48978D01*
X56465Y-48960D01*
X56499Y-48926D01*
X56517Y-48882D01*
X56517Y-48834D01*
X56517Y-48440D01*
X56499Y-48396D01*
X56465Y-48362D01*
X56431Y-48348D01*
X56431Y-48348D01*
X56475Y-48330D01*
X56509Y-48296D01*
X56527Y-48252D01*
X56527Y-48204D01*
X56527Y-48201D01*
X57281Y-48201D01*
X57281Y-48773D01*
X57299Y-48818D01*
X57333Y-48851D01*
X57377Y-48870D01*
X57425Y-48870D01*
X58055Y-48870D01*
X58099Y-48851D01*
X58119Y-48831D01*
X59212Y-49924D01*
X59171Y-50022D01*
X59171Y-50211D01*
X59243Y-50386D01*
X59377Y-50519D01*
X59551Y-50592D01*
X59740Y-50592D01*
X59914Y-50520D01*
X60048Y-50386D01*
X60120Y-50212D01*
X60120Y-50023D01*
X60048Y-49849D01*
X59915Y-49715D01*
X59740Y-49643D01*
X59552Y-49643D01*
X59452Y-49684D01*
X58310Y-48541D01*
X58255Y-48504D01*
X58189Y-48491D01*
X58151Y-48491D01*
X58151Y-47722D01*
X58133Y-47678D01*
X58099Y-47644D01*
X58055Y-47626D01*
X58007Y-47626D01*
X57377Y-47626D01*
X57333Y-47644D01*
X57299Y-47678D01*
X57281Y-47722D01*
X57281Y-47769D01*
X57281Y-47861D01*
X56527Y-47861D01*
X56527Y-47810D01*
X56509Y-47766D01*
X56475Y-47732D01*
X56431Y-47714D01*
X56383Y-47714D01*
X56222Y-47714D01*
X55907Y-47399D01*
X55907Y-47297D01*
X55921Y-47331D01*
X55955Y-47365D01*
X55999Y-47383D01*
X56047Y-47383D01*
X56441Y-47383D01*
X56485Y-47365D01*
X56519Y-47331D01*
X56537Y-47287D01*
X56537Y-47256D01*
X57281Y-47256D01*
X57281Y-47395D01*
X57299Y-47440D01*
X57333Y-47473D01*
X57377Y-47492D01*
X57425Y-47492D01*
X58055Y-47492D01*
X58099Y-47473D01*
X58133Y-47440D01*
X58151Y-47395D01*
X58151Y-47348D01*
X58151Y-46390D01*
X58661Y-46390D01*
X58785Y-46390D01*
X58831Y-46436D01*
X58925Y-46475D01*
X59026Y-46475D01*
X59120Y-46436D01*
X59192Y-46365D01*
X59231Y-46271D01*
X59231Y-46169D01*
X59192Y-46076D01*
X59121Y-46004D01*
X59027Y-45965D01*
X58925Y-45965D01*
X58832Y-46004D01*
X58785Y-46050D01*
X58661Y-46050D01*
X58338Y-46050D01*
X58338Y-45417D01*
X58338Y-45369D01*
X58338Y-45286D01*
X58338Y-45106D01*
X58338Y-45023D01*
X58338Y-44975D01*
X58320Y-44931D01*
X58286Y-44898D01*
X58247Y-44881D01*
X58286Y-44865D01*
X58320Y-44831D01*
X58338Y-44787D01*
X58338Y-44740D01*
X58338Y-44656D01*
X58338Y-44476D01*
X58338Y-44393D01*
X58338Y-44346D01*
X58320Y-44301D01*
X58286Y-44268D01*
X58242Y-44249D01*
X58121Y-44249D01*
X58091Y-44279D01*
X58091Y-44506D01*
X58308Y-44506D01*
X58338Y-44476D01*
X58338Y-44656D01*
X58308Y-44626D01*
X58091Y-44626D01*
X58091Y-44853D01*
X58119Y-44881D01*
X58091Y-44909D01*
X58091Y-45136D01*
X58308Y-45136D01*
X58338Y-45106D01*
X58338Y-45286D01*
X58308Y-45256D01*
X58091Y-45256D01*
X58091Y-45483D01*
X58121Y-45513D01*
X58242Y-45513D01*
X58286Y-45495D01*
X58320Y-45461D01*
X58338Y-45417D01*
X58338Y-46050D01*
X57971Y-46050D01*
X57971Y-45483D01*
X57971Y-45256D01*
X57971Y-45136D01*
X57971Y-44909D01*
X57943Y-44881D01*
X57971Y-44853D01*
X57971Y-44626D01*
X57971Y-44506D01*
X57971Y-44279D01*
X57941Y-44249D01*
X57820Y-44249D01*
X57776Y-44268D01*
X57742Y-44301D01*
X57724Y-44346D01*
X57724Y-44393D01*
X57724Y-44476D01*
X57754Y-44506D01*
X57971Y-44506D01*
X57971Y-44626D01*
X57754Y-44626D01*
X57724Y-44656D01*
X57724Y-44740D01*
X57724Y-44787D01*
X57742Y-44831D01*
X57776Y-44865D01*
X57815Y-44881D01*
X57776Y-44898D01*
X57742Y-44931D01*
X57724Y-44975D01*
X57724Y-45023D01*
X57724Y-45106D01*
X57754Y-45136D01*
X57971Y-45136D01*
X57971Y-45256D01*
X57754Y-45256D01*
X57724Y-45286D01*
X57724Y-45369D01*
X57724Y-45417D01*
X57742Y-45461D01*
X57776Y-45495D01*
X57820Y-45513D01*
X57941Y-45513D01*
X57971Y-45483D01*
X57971Y-46050D01*
X57550Y-46050D01*
X56952Y-45451D01*
X56979Y-45451D01*
X57073Y-45413D01*
X57089Y-45396D01*
X57094Y-45396D01*
X57094Y-45417D01*
X57112Y-45461D01*
X57146Y-45495D01*
X57190Y-45513D01*
X57238Y-45513D01*
X57612Y-45513D01*
X57656Y-45495D01*
X57690Y-45461D01*
X57708Y-45417D01*
X57708Y-45369D01*
X57708Y-44975D01*
X57690Y-44931D01*
X57656Y-44898D01*
X57617Y-44881D01*
X57656Y-44865D01*
X57690Y-44831D01*
X57708Y-44787D01*
X57708Y-44740D01*
X57708Y-44346D01*
X57690Y-44301D01*
X57656Y-44268D01*
X57612Y-44249D01*
X57564Y-44249D01*
X57190Y-44249D01*
X57146Y-44268D01*
X57112Y-44301D01*
X57094Y-44346D01*
X57094Y-44366D01*
X57089Y-44366D01*
X57073Y-44350D01*
X56980Y-44311D01*
X56878Y-44311D01*
X56794Y-44346D01*
X56794Y-44184D01*
X56815Y-44184D01*
X56992Y-44184D01*
X57008Y-44178D01*
X57023Y-44184D01*
X57071Y-44184D01*
X57248Y-44184D01*
X57264Y-44178D01*
X57279Y-44184D01*
X57327Y-44184D01*
X57504Y-44184D01*
X57520Y-44178D01*
X57535Y-44184D01*
X57583Y-44184D01*
X57760Y-44184D01*
X57775Y-44178D01*
X57790Y-44184D01*
X57828Y-44184D01*
X57858Y-44154D01*
X57858Y-43760D01*
X57856Y-43760D01*
X57856Y-43640D01*
X57858Y-43640D01*
X57858Y-43632D01*
X57947Y-43632D01*
X57947Y-43640D01*
X57950Y-43640D01*
X57950Y-43760D01*
X57947Y-43760D01*
X57947Y-44154D01*
X57977Y-44184D01*
X58015Y-44184D01*
X58031Y-44178D01*
X58046Y-44184D01*
X58094Y-44184D01*
X58271Y-44184D01*
X58315Y-44166D01*
X58349Y-44132D01*
X58367Y-44088D01*
X58367Y-44040D01*
X58367Y-43900D01*
X58422Y-43900D01*
X58438Y-43916D01*
X58531Y-43955D01*
X58633Y-43955D01*
X58726Y-43917D01*
X58798Y-43845D01*
X58837Y-43751D01*
X58837Y-43723D01*
X59121Y-44007D01*
X59121Y-45354D01*
X59134Y-45419D01*
X59171Y-45474D01*
X59722Y-46025D01*
X59777Y-46062D01*
X59777Y-46062D01*
X59842Y-46075D01*
X60391Y-46075D01*
X60391Y-46116D01*
X60391Y-47750D01*
X60410Y-47794D01*
X60443Y-47828D01*
X60487Y-47846D01*
X60535Y-47846D01*
X60696Y-47846D01*
X60696Y-48344D01*
X60665Y-48344D01*
X60621Y-48362D01*
X60587Y-48396D01*
X60569Y-48440D01*
X60569Y-48488D01*
X60569Y-48882D01*
X60587Y-48926D01*
X60621Y-48960D01*
X60656Y-48974D01*
X60656Y-49674D01*
X60557Y-49715D01*
X60424Y-49848D01*
X60351Y-50022D01*
X60351Y-50211D01*
X60423Y-50386D01*
X60557Y-50519D01*
X60731Y-50592D01*
X60920Y-50592D01*
X61094Y-50520D01*
X61228Y-50386D01*
X61300Y-50212D01*
X61300Y-50023D01*
X61228Y-49849D01*
X61095Y-49715D01*
X60996Y-49674D01*
X60996Y-48978D01*
X61066Y-48978D01*
X61111Y-48960D01*
X61144Y-48926D01*
X61163Y-48882D01*
X61163Y-48834D01*
X61163Y-48440D01*
X61144Y-48396D01*
X61111Y-48362D01*
X61066Y-48344D01*
X61036Y-48344D01*
X61036Y-47846D01*
X61165Y-47846D01*
X61209Y-47828D01*
X61243Y-47794D01*
X61261Y-47750D01*
X61261Y-47702D01*
X61261Y-46425D01*
X61272Y-46436D01*
X61366Y-46475D01*
X61431Y-46475D01*
X63058Y-48101D01*
X63058Y-49877D01*
X62997Y-49815D01*
X62866Y-49761D01*
X62724Y-49761D01*
X62593Y-49815D01*
X62493Y-49915D01*
X62439Y-50046D01*
X62439Y-50188D01*
X62493Y-50319D01*
X62593Y-50419D01*
X62724Y-50473D01*
X62865Y-50473D01*
X62996Y-50419D01*
X63058Y-50358D01*
X63058Y-50393D01*
X63071Y-50458D01*
X63108Y-50513D01*
X63423Y-50828D01*
X64131Y-51537D01*
X64131Y-51537D01*
X64186Y-51574D01*
X64251Y-51587D01*
X66743Y-51587D01*
X66699Y-51631D01*
X66635Y-51786D01*
X66635Y-51953D01*
X66698Y-52107D01*
X66816Y-52225D01*
X66971Y-52290D01*
X67138Y-52290D01*
X67292Y-52226D01*
X67410Y-52108D01*
X67475Y-51953D01*
X67475Y-51786D01*
X67411Y-51632D01*
X67366Y-51587D01*
X67531Y-51587D01*
X67663Y-51718D01*
X67635Y-51786D01*
X67635Y-51953D01*
X67698Y-52107D01*
X67816Y-52225D01*
X67971Y-52290D01*
X68138Y-52290D01*
X68292Y-52226D01*
X68410Y-52108D01*
X68475Y-51953D01*
X68475Y-51786D01*
X68411Y-51632D01*
X68293Y-51514D01*
X68139Y-51450D01*
X67971Y-51450D01*
X67903Y-51478D01*
X67722Y-51297D01*
X67667Y-51260D01*
X67602Y-51247D01*
X67308Y-51247D01*
X67308Y-50188D01*
X67308Y-49863D01*
X67275Y-49863D01*
X67173Y-49863D01*
X67140Y-49863D01*
X67140Y-50188D01*
X67170Y-50218D01*
X67208Y-50218D01*
X67224Y-50212D01*
X67239Y-50218D01*
X67278Y-50218D01*
X67308Y-50188D01*
X67308Y-51247D01*
X67052Y-51247D01*
X67052Y-50188D01*
X67052Y-49863D01*
X66917Y-49863D01*
X66887Y-49893D01*
X66887Y-50122D01*
X66906Y-50166D01*
X66939Y-50200D01*
X66984Y-50218D01*
X67022Y-50218D01*
X67052Y-50188D01*
X67052Y-51247D01*
X66773Y-51247D01*
X66773Y-50525D01*
X66773Y-50478D01*
X66773Y-50104D01*
X66773Y-49895D01*
X66773Y-49775D01*
X66743Y-49745D01*
X66516Y-49745D01*
X66516Y-49962D01*
X66546Y-49992D01*
X66629Y-49992D01*
X66677Y-49992D01*
X66721Y-49973D01*
X66755Y-49939D01*
X66773Y-49895D01*
X66773Y-50104D01*
X66755Y-50060D01*
X66721Y-50026D01*
X66677Y-50008D01*
X66629Y-50008D01*
X66396Y-50008D01*
X66396Y-49962D01*
X66396Y-49745D01*
X66396Y-49625D01*
X66396Y-49408D01*
X66366Y-49378D01*
X66283Y-49378D01*
X66235Y-49378D01*
X66191Y-49396D01*
X66157Y-49430D01*
X66139Y-49474D01*
X66139Y-49595D01*
X66169Y-49625D01*
X66396Y-49625D01*
X66396Y-49745D01*
X66169Y-49745D01*
X66139Y-49775D01*
X66139Y-49895D01*
X66157Y-49939D01*
X66191Y-49973D01*
X66235Y-49992D01*
X66283Y-49992D01*
X66366Y-49992D01*
X66396Y-49962D01*
X66396Y-50008D01*
X66235Y-50008D01*
X66191Y-50026D01*
X66157Y-50060D01*
X66139Y-50104D01*
X66139Y-50109D01*
X66128Y-50098D01*
X66035Y-50060D01*
X65933Y-50059D01*
X65839Y-50098D01*
X65768Y-50170D01*
X65729Y-50264D01*
X65729Y-50365D01*
X65767Y-50459D01*
X65839Y-50531D01*
X65933Y-50569D01*
X66034Y-50570D01*
X66128Y-50531D01*
X66139Y-50520D01*
X66139Y-50525D01*
X66157Y-50569D01*
X66191Y-50603D01*
X66235Y-50622D01*
X66283Y-50622D01*
X66677Y-50622D01*
X66721Y-50603D01*
X66755Y-50569D01*
X66773Y-50525D01*
X66773Y-51247D01*
X64322Y-51247D01*
X63663Y-50588D01*
X63654Y-50579D01*
X63684Y-50592D01*
X63873Y-50592D01*
X64047Y-50520D01*
X64181Y-50386D01*
X64253Y-50212D01*
X64253Y-50023D01*
X64181Y-49849D01*
X64048Y-49715D01*
X63874Y-49643D01*
X63685Y-49643D01*
X63510Y-49715D01*
X63398Y-49827D01*
X63398Y-48877D01*
X63398Y-48877D01*
X63492Y-48916D01*
X63593Y-48916D01*
X63687Y-48877D01*
X63703Y-48861D01*
X63797Y-48861D01*
X63797Y-48882D01*
X63815Y-48926D01*
X63849Y-48960D01*
X63893Y-48978D01*
X63941Y-48978D01*
X64295Y-48978D01*
X64339Y-48960D01*
X64373Y-48926D01*
X64391Y-48882D01*
X64391Y-48834D01*
X64391Y-48440D01*
X64373Y-48396D01*
X64339Y-48362D01*
X64295Y-48344D01*
X64247Y-48344D01*
X63893Y-48344D01*
X63849Y-48362D01*
X63815Y-48396D01*
X63797Y-48440D01*
X63797Y-48461D01*
X63703Y-48461D01*
X63687Y-48445D01*
X63594Y-48406D01*
X63492Y-48406D01*
X63399Y-48445D01*
X63398Y-48445D01*
X63398Y-48031D01*
X63385Y-47966D01*
X63348Y-47911D01*
X63348Y-47911D01*
X61672Y-46235D01*
X61672Y-46169D01*
X61633Y-46076D01*
X61632Y-46075D01*
X64328Y-46075D01*
X64328Y-46116D01*
X64328Y-47750D01*
X64347Y-47794D01*
X64380Y-47828D01*
X64424Y-47846D01*
X64472Y-47846D01*
X64554Y-47846D01*
X64554Y-48344D01*
X64523Y-48344D01*
X64479Y-48362D01*
X64445Y-48396D01*
X64427Y-48440D01*
X64427Y-48488D01*
X64427Y-48882D01*
X64445Y-48926D01*
X64479Y-48960D01*
X64523Y-48978D01*
X64571Y-48978D01*
X64594Y-48978D01*
X64594Y-49674D01*
X64495Y-49715D01*
X64362Y-49848D01*
X64289Y-50022D01*
X64289Y-50211D01*
X64361Y-50386D01*
X64495Y-50519D01*
X64669Y-50592D01*
X64858Y-50592D01*
X65032Y-50520D01*
X65166Y-50386D01*
X65238Y-50212D01*
X65238Y-50023D01*
X65166Y-49849D01*
X65033Y-49715D01*
X64934Y-49674D01*
X64934Y-48974D01*
X64969Y-48960D01*
X65003Y-48926D01*
X65021Y-48882D01*
X65021Y-48834D01*
X65021Y-48440D01*
X65003Y-48396D01*
X64969Y-48362D01*
X64925Y-48344D01*
X64894Y-48344D01*
X64894Y-47846D01*
X65102Y-47846D01*
X65146Y-47828D01*
X65180Y-47794D01*
X65198Y-47750D01*
X65198Y-47702D01*
X65198Y-46075D01*
X65205Y-46075D01*
X65263Y-46133D01*
X65263Y-48110D01*
X65276Y-48175D01*
X65312Y-48230D01*
X66493Y-49411D01*
X66493Y-49411D01*
X66493Y-49411D01*
X66516Y-49426D01*
X66516Y-49625D01*
X66743Y-49625D01*
X66773Y-49595D01*
X66773Y-49474D01*
X66768Y-49461D01*
X66897Y-49461D01*
X66887Y-49484D01*
X66887Y-49713D01*
X66917Y-49743D01*
X67052Y-49743D01*
X67052Y-49735D01*
X67140Y-49735D01*
X67140Y-49743D01*
X67173Y-49743D01*
X67275Y-49743D01*
X67308Y-49743D01*
X67308Y-49735D01*
X67396Y-49735D01*
X67396Y-49743D01*
X67399Y-49743D01*
X67399Y-49863D01*
X67396Y-49863D01*
X67396Y-50188D01*
X67426Y-50218D01*
X67464Y-50218D01*
X67480Y-50212D01*
X67495Y-50218D01*
X67543Y-50218D01*
X67720Y-50218D01*
X67736Y-50212D01*
X67751Y-50218D01*
X67799Y-50218D01*
X67976Y-50218D01*
X67992Y-50212D01*
X68007Y-50218D01*
X68055Y-50218D01*
X68205Y-50218D01*
X68205Y-50293D01*
X68203Y-50296D01*
X68138Y-50296D01*
X68044Y-50334D01*
X67972Y-50406D01*
X67934Y-50500D01*
X67933Y-50601D01*
X67972Y-50695D01*
X68044Y-50767D01*
X68138Y-50806D01*
X68239Y-50806D01*
X68333Y-50767D01*
X68405Y-50695D01*
X68443Y-50602D01*
X68443Y-50536D01*
X68474Y-50506D01*
X68474Y-50507D01*
X68511Y-50563D01*
X68885Y-50936D01*
X68885Y-51485D01*
X68817Y-51513D01*
X68699Y-51631D01*
X68635Y-51786D01*
X68635Y-51953D01*
X68698Y-52107D01*
X68816Y-52225D01*
X68971Y-52290D01*
X69138Y-52290D01*
X69292Y-52226D01*
X69396Y-52122D01*
X69396Y-52287D01*
X69206Y-52478D01*
X69139Y-52450D01*
X68971Y-52450D01*
X68817Y-52513D01*
X68699Y-52631D01*
X68635Y-52786D01*
X68635Y-52953D01*
X68698Y-53107D01*
X68816Y-53225D01*
X68971Y-53290D01*
X69138Y-53290D01*
X69292Y-53226D01*
X69410Y-53108D01*
X69475Y-52953D01*
X69475Y-52786D01*
X69446Y-52718D01*
X69687Y-52478D01*
X69687Y-52478D01*
X69687Y-52478D01*
X69711Y-52441D01*
X69723Y-52423D01*
X69723Y-52423D01*
X69736Y-52358D01*
X69736Y-52358D01*
X69736Y-52358D01*
X69736Y-52145D01*
X69816Y-52225D01*
X69971Y-52290D01*
X70138Y-52290D01*
X70292Y-52226D01*
X70381Y-52138D01*
X70381Y-52303D01*
X70206Y-52478D01*
X70139Y-52450D01*
X69971Y-52450D01*
X69817Y-52513D01*
X69699Y-52631D01*
X69635Y-52786D01*
X69635Y-52953D01*
X69698Y-53107D01*
X69816Y-53225D01*
X69971Y-53290D01*
X70138Y-53290D01*
X70292Y-53226D01*
X70410Y-53108D01*
X70475Y-52953D01*
X70475Y-52786D01*
X70446Y-52718D01*
X70671Y-52494D01*
X70708Y-52439D01*
X70708Y-52439D01*
X70721Y-52374D01*
X70721Y-52130D01*
X70816Y-52225D01*
X70971Y-52290D01*
X71138Y-52290D01*
X71292Y-52226D01*
X71404Y-52114D01*
X71404Y-52279D01*
X71206Y-52478D01*
X71139Y-52450D01*
X70971Y-52450D01*
X70817Y-52513D01*
X70699Y-52631D01*
X70635Y-52786D01*
X70635Y-52953D01*
X70698Y-53107D01*
X70816Y-53225D01*
X70971Y-53290D01*
X71138Y-53290D01*
X71292Y-53226D01*
X71410Y-53108D01*
X71475Y-52953D01*
X71475Y-52786D01*
X71446Y-52718D01*
X71695Y-52470D01*
X71731Y-52415D01*
X71731Y-52415D01*
X71744Y-52350D01*
X71744Y-52290D01*
X71778Y-52290D01*
X72378Y-52290D01*
X72423Y-52271D01*
X72456Y-52238D01*
X72475Y-52193D01*
X72475Y-52146D01*
X72475Y-51546D01*
X72459Y-51508D01*
X74732Y-51508D01*
X75234Y-52009D01*
X75289Y-52046D01*
X75289Y-52046D01*
X75354Y-52059D01*
X78625Y-52059D01*
X78206Y-52478D01*
X78139Y-52450D01*
X77971Y-52450D01*
X77817Y-52513D01*
X77699Y-52631D01*
X77635Y-52786D01*
X77635Y-52953D01*
X77698Y-53107D01*
X77816Y-53225D01*
X77971Y-53290D01*
X78138Y-53290D01*
X78292Y-53226D01*
X78410Y-53108D01*
X78475Y-52953D01*
X78475Y-52786D01*
X78446Y-52718D01*
X78869Y-52295D01*
X79388Y-52295D01*
X79206Y-52478D01*
X79139Y-52450D01*
X78971Y-52450D01*
X78817Y-52513D01*
X78699Y-52631D01*
X78635Y-52786D01*
X78635Y-52953D01*
X78698Y-53107D01*
X78816Y-53225D01*
X78971Y-53290D01*
X79138Y-53290D01*
X79292Y-53226D01*
X79410Y-53108D01*
X79475Y-52953D01*
X79475Y-52786D01*
X79446Y-52718D01*
X79633Y-52532D01*
X79799Y-52532D01*
X79699Y-52631D01*
X79635Y-52786D01*
X79635Y-52953D01*
X79698Y-53107D01*
X79816Y-53225D01*
X79971Y-53290D01*
X80138Y-53290D01*
X80292Y-53226D01*
X80410Y-53108D01*
X80475Y-52953D01*
X80475Y-52786D01*
X80411Y-52632D01*
X80311Y-52532D01*
X81346Y-52532D01*
X81479Y-52664D01*
X81056Y-52664D01*
X81010Y-52618D01*
X80917Y-52579D01*
X80815Y-52579D01*
X80721Y-52618D01*
X80650Y-52690D01*
X80611Y-52783D01*
X80611Y-52885D01*
X80649Y-52978D01*
X80721Y-53050D01*
X80815Y-53089D01*
X80916Y-53089D01*
X81010Y-53050D01*
X81056Y-53004D01*
X84724Y-53004D01*
X84789Y-52991D01*
X84789Y-52991D01*
X84844Y-52954D01*
X85784Y-52014D01*
X85730Y-52145D01*
X85730Y-52443D01*
X85844Y-52719D01*
X86054Y-52930D01*
X86330Y-53045D01*
X86628Y-53045D01*
X86904Y-52931D01*
X87115Y-52720D01*
X87230Y-52445D01*
X87230Y-52146D01*
X87230Y-53483D01*
X87028Y-53618D01*
X86465Y-53730D01*
X77475Y-53730D01*
X77475Y-52786D01*
X77411Y-52632D01*
X77293Y-52514D01*
X77139Y-52450D01*
X76971Y-52450D01*
X76817Y-52513D01*
X76699Y-52631D01*
X76635Y-52786D01*
X76635Y-52953D01*
X76698Y-53107D01*
X76816Y-53225D01*
X76971Y-53290D01*
X77138Y-53290D01*
X77292Y-53226D01*
X77410Y-53108D01*
X77475Y-52953D01*
X77475Y-52786D01*
X77475Y-53730D01*
X76475Y-53730D01*
X76475Y-52786D01*
X76411Y-52632D01*
X76293Y-52514D01*
X76139Y-52450D01*
X75971Y-52450D01*
X75817Y-52513D01*
X75699Y-52631D01*
X75635Y-52786D01*
X75635Y-52953D01*
X75698Y-53107D01*
X75816Y-53225D01*
X75971Y-53290D01*
X76138Y-53290D01*
X76292Y-53226D01*
X76410Y-53108D01*
X76475Y-52953D01*
X76475Y-52786D01*
X76475Y-53730D01*
X75475Y-53730D01*
X75475Y-53193D01*
X75475Y-53146D01*
X75475Y-52546D01*
X75456Y-52502D01*
X75423Y-52468D01*
X75378Y-52450D01*
X75331Y-52450D01*
X74731Y-52450D01*
X74687Y-52468D01*
X74653Y-52502D01*
X74635Y-52546D01*
X74635Y-52593D01*
X74635Y-53193D01*
X74653Y-53238D01*
X74687Y-53271D01*
X74731Y-53290D01*
X74778Y-53290D01*
X75378Y-53290D01*
X75423Y-53271D01*
X75456Y-53238D01*
X75475Y-53193D01*
X75475Y-53730D01*
X72481Y-53730D01*
X72481Y-52910D01*
X72464Y-52744D01*
X72433Y-52669D01*
X72375Y-52634D01*
X72291Y-52718D01*
X72291Y-52549D01*
X72255Y-52491D01*
X72095Y-52443D01*
X71929Y-52460D01*
X71854Y-52491D01*
X71819Y-52549D01*
X72055Y-52785D01*
X72291Y-52549D01*
X72291Y-52718D01*
X72139Y-52870D01*
X72375Y-53106D01*
X72433Y-53070D01*
X72481Y-52910D01*
X72481Y-53730D01*
X72291Y-53730D01*
X72291Y-53190D01*
X72055Y-52954D01*
X71970Y-53039D01*
X71970Y-52870D01*
X71734Y-52634D01*
X71676Y-52669D01*
X71628Y-52829D01*
X71645Y-52995D01*
X71676Y-53070D01*
X71734Y-53106D01*
X71970Y-52870D01*
X71970Y-53039D01*
X71819Y-53190D01*
X71854Y-53248D01*
X72014Y-53296D01*
X72180Y-53279D01*
X72255Y-53248D01*
X72291Y-53190D01*
X72291Y-53730D01*
X68475Y-53730D01*
X68475Y-52786D01*
X68411Y-52632D01*
X68293Y-52514D01*
X68139Y-52450D01*
X67971Y-52450D01*
X67817Y-52513D01*
X67699Y-52631D01*
X67635Y-52786D01*
X67635Y-52953D01*
X67698Y-53107D01*
X67816Y-53225D01*
X67971Y-53290D01*
X68138Y-53290D01*
X68292Y-53226D01*
X68410Y-53108D01*
X68475Y-52953D01*
X68475Y-52786D01*
X68475Y-53730D01*
X67475Y-53730D01*
X67475Y-52786D01*
X67411Y-52632D01*
X67293Y-52514D01*
X67139Y-52450D01*
X66971Y-52450D01*
X66817Y-52513D01*
X66699Y-52631D01*
X66635Y-52786D01*
X66635Y-52953D01*
X66698Y-53107D01*
X66816Y-53225D01*
X66971Y-53290D01*
X67138Y-53290D01*
X67292Y-53226D01*
X67410Y-53108D01*
X67475Y-52953D01*
X67475Y-52786D01*
X67475Y-53730D01*
X65120Y-53730D01*
X65120Y-53000D01*
X65120Y-52016D01*
X65066Y-51885D01*
X64966Y-51784D01*
X64835Y-51730D01*
X64693Y-51730D01*
X64562Y-51784D01*
X64462Y-51884D01*
X64408Y-52015D01*
X64408Y-52157D01*
X64462Y-52288D01*
X64562Y-52388D01*
X64693Y-52442D01*
X64834Y-52442D01*
X64965Y-52388D01*
X65065Y-52288D01*
X65120Y-52157D01*
X65120Y-52016D01*
X65120Y-53000D01*
X65066Y-52869D01*
X64966Y-52768D01*
X64835Y-52714D01*
X64693Y-52714D01*
X64562Y-52768D01*
X64462Y-52868D01*
X64408Y-52999D01*
X64408Y-53141D01*
X64462Y-53272D01*
X64562Y-53372D01*
X64693Y-53426D01*
X64834Y-53426D01*
X64965Y-53372D01*
X65065Y-53272D01*
X65120Y-53141D01*
X65120Y-53000D01*
X65120Y-53730D01*
X63761Y-53730D01*
X63761Y-53346D01*
X63751Y-53293D01*
X63720Y-53247D01*
X63675Y-53217D01*
X63622Y-53206D01*
X63269Y-53206D01*
X63269Y-51992D01*
X63197Y-51818D01*
X63064Y-51684D01*
X62890Y-51612D01*
X62701Y-51612D01*
X62526Y-51684D01*
X62393Y-51817D01*
X62320Y-51991D01*
X62320Y-52180D01*
X62392Y-52355D01*
X62526Y-52488D01*
X62700Y-52561D01*
X62889Y-52561D01*
X63063Y-52489D01*
X63197Y-52355D01*
X63269Y-52181D01*
X63269Y-51992D01*
X63269Y-53206D01*
X62302Y-53206D01*
X62302Y-48610D01*
X62263Y-48517D01*
X62191Y-48445D01*
X62098Y-48406D01*
X61996Y-48406D01*
X61902Y-48445D01*
X61886Y-48461D01*
X61793Y-48461D01*
X61793Y-48440D01*
X61774Y-48396D01*
X61741Y-48362D01*
X61696Y-48344D01*
X61649Y-48344D01*
X61295Y-48344D01*
X61251Y-48362D01*
X61217Y-48396D01*
X61199Y-48440D01*
X61199Y-48488D01*
X61199Y-48882D01*
X61217Y-48926D01*
X61251Y-48960D01*
X61295Y-48978D01*
X61342Y-48978D01*
X61696Y-48978D01*
X61741Y-48960D01*
X61774Y-48926D01*
X61793Y-48882D01*
X61793Y-48861D01*
X61886Y-48861D01*
X61902Y-48877D01*
X61996Y-48916D01*
X62097Y-48916D01*
X62191Y-48877D01*
X62263Y-48806D01*
X62302Y-48712D01*
X62302Y-48610D01*
X62302Y-53206D01*
X62285Y-53206D01*
X62285Y-50023D01*
X62213Y-49849D01*
X62080Y-49715D01*
X61906Y-49643D01*
X61717Y-49643D01*
X61542Y-49715D01*
X61409Y-49848D01*
X61336Y-50022D01*
X61336Y-50211D01*
X61408Y-50386D01*
X61542Y-50519D01*
X61716Y-50592D01*
X61905Y-50592D01*
X62079Y-50520D01*
X62213Y-50386D01*
X62285Y-50212D01*
X62285Y-50023D01*
X62285Y-53206D01*
X61968Y-53206D01*
X61915Y-53217D01*
X61869Y-53247D01*
X61839Y-53293D01*
X61828Y-53346D01*
X61828Y-53730D01*
X61182Y-53730D01*
X61182Y-53000D01*
X61182Y-52016D01*
X61128Y-51885D01*
X61028Y-51784D01*
X60897Y-51730D01*
X60755Y-51730D01*
X60624Y-51784D01*
X60524Y-51884D01*
X60470Y-52015D01*
X60470Y-52157D01*
X60524Y-52288D01*
X60624Y-52388D01*
X60755Y-52442D01*
X60896Y-52442D01*
X61027Y-52388D01*
X61127Y-52288D01*
X61182Y-52157D01*
X61182Y-52016D01*
X61182Y-53000D01*
X61128Y-52869D01*
X61028Y-52768D01*
X60897Y-52714D01*
X60755Y-52714D01*
X60624Y-52768D01*
X60524Y-52868D01*
X60470Y-52999D01*
X60470Y-53141D01*
X60524Y-53272D01*
X60624Y-53372D01*
X60755Y-53426D01*
X60896Y-53426D01*
X61027Y-53372D01*
X61127Y-53272D01*
X61182Y-53141D01*
X61182Y-53000D01*
X61182Y-53730D01*
X60002Y-53730D01*
X60002Y-53000D01*
X60002Y-52016D01*
X59948Y-51885D01*
X59848Y-51784D01*
X59717Y-51730D01*
X59575Y-51730D01*
X59444Y-51784D01*
X59344Y-51884D01*
X59290Y-52015D01*
X59290Y-52157D01*
X59344Y-52288D01*
X59444Y-52388D01*
X59575Y-52442D01*
X59716Y-52442D01*
X59847Y-52388D01*
X59947Y-52288D01*
X60002Y-52157D01*
X60002Y-52016D01*
X60002Y-53000D01*
X59948Y-52869D01*
X59848Y-52768D01*
X59717Y-52714D01*
X59575Y-52714D01*
X59444Y-52768D01*
X59344Y-52868D01*
X59290Y-52999D01*
X59290Y-53141D01*
X59344Y-53272D01*
X59444Y-53372D01*
X59575Y-53426D01*
X59716Y-53426D01*
X59847Y-53372D01*
X59947Y-53272D01*
X60002Y-53141D01*
X60002Y-53000D01*
X60002Y-53730D01*
X59135Y-53730D01*
X59135Y-50023D01*
X59063Y-49849D01*
X58930Y-49715D01*
X58755Y-49643D01*
X58567Y-49643D01*
X58392Y-49715D01*
X58259Y-49848D01*
X58186Y-50022D01*
X58186Y-50211D01*
X58258Y-50386D01*
X58392Y-50519D01*
X58566Y-50592D01*
X58755Y-50592D01*
X58929Y-50520D01*
X59063Y-50386D01*
X59135Y-50212D01*
X59135Y-50023D01*
X59135Y-53730D01*
X58643Y-53730D01*
X58643Y-53346D01*
X58632Y-53293D01*
X58602Y-53247D01*
X58557Y-53217D01*
X58503Y-53206D01*
X58151Y-53206D01*
X58151Y-51992D01*
X58079Y-51818D01*
X58033Y-51771D01*
X58033Y-50047D01*
X57979Y-49916D01*
X57879Y-49815D01*
X57748Y-49761D01*
X57606Y-49761D01*
X57475Y-49815D01*
X57375Y-49915D01*
X57321Y-50046D01*
X57321Y-50188D01*
X57375Y-50319D01*
X57475Y-50419D01*
X57606Y-50473D01*
X57747Y-50473D01*
X57878Y-50419D01*
X57978Y-50319D01*
X58033Y-50188D01*
X58033Y-50047D01*
X58033Y-51771D01*
X57946Y-51684D01*
X57771Y-51612D01*
X57583Y-51612D01*
X57408Y-51684D01*
X57275Y-51817D01*
X57202Y-51991D01*
X57202Y-52180D01*
X57274Y-52355D01*
X57408Y-52488D01*
X57582Y-52561D01*
X57771Y-52561D01*
X57945Y-52489D01*
X58079Y-52355D01*
X58151Y-52181D01*
X58151Y-51992D01*
X58151Y-53206D01*
X57167Y-53206D01*
X57167Y-50023D01*
X57163Y-50013D01*
X57163Y-49004D01*
X57115Y-48887D01*
X57026Y-48798D01*
X56909Y-48750D01*
X56783Y-48750D01*
X56667Y-48798D01*
X56578Y-48887D01*
X56529Y-49003D01*
X56529Y-49129D01*
X56577Y-49246D01*
X56666Y-49335D01*
X56783Y-49383D01*
X56909Y-49383D01*
X57025Y-49335D01*
X57114Y-49246D01*
X57163Y-49130D01*
X57163Y-49004D01*
X57163Y-50013D01*
X57095Y-49849D01*
X56962Y-49715D01*
X56787Y-49643D01*
X56599Y-49643D01*
X56424Y-49715D01*
X56291Y-49848D01*
X56218Y-50022D01*
X56218Y-50211D01*
X56290Y-50386D01*
X56424Y-50519D01*
X56598Y-50592D01*
X56787Y-50592D01*
X56961Y-50520D01*
X57095Y-50386D01*
X57167Y-50212D01*
X57167Y-50023D01*
X57167Y-53206D01*
X56850Y-53206D01*
X56796Y-53217D01*
X56751Y-53247D01*
X56721Y-53293D01*
X56710Y-53346D01*
X56710Y-53730D01*
X56182Y-53730D01*
X56182Y-50023D01*
X56110Y-49849D01*
X55977Y-49715D01*
X55802Y-49643D01*
X55614Y-49643D01*
X55439Y-49715D01*
X55306Y-49848D01*
X55233Y-50022D01*
X55233Y-50211D01*
X55305Y-50386D01*
X55439Y-50519D01*
X55613Y-50592D01*
X55802Y-50592D01*
X55976Y-50520D01*
X56110Y-50386D01*
X56182Y-50212D01*
X56182Y-50023D01*
X56182Y-53730D01*
X56064Y-53730D01*
X56064Y-53000D01*
X56064Y-52016D01*
X56010Y-51885D01*
X55910Y-51784D01*
X55779Y-51730D01*
X55637Y-51730D01*
X55506Y-51784D01*
X55406Y-51884D01*
X55352Y-52015D01*
X55352Y-52157D01*
X55406Y-52288D01*
X55506Y-52388D01*
X55637Y-52442D01*
X55778Y-52442D01*
X55909Y-52388D01*
X56009Y-52288D01*
X56064Y-52157D01*
X56064Y-52016D01*
X56064Y-53000D01*
X56010Y-52869D01*
X55910Y-52768D01*
X55779Y-52714D01*
X55637Y-52714D01*
X55506Y-52768D01*
X55406Y-52868D01*
X55352Y-52999D01*
X55352Y-53141D01*
X55406Y-53272D01*
X55506Y-53372D01*
X55637Y-53426D01*
X55778Y-53426D01*
X55909Y-53372D01*
X56009Y-53272D01*
X56064Y-53141D01*
X56064Y-53000D01*
X56064Y-53730D01*
X54637Y-53730D01*
X54637Y-45417D01*
X54637Y-45369D01*
X54637Y-44975D01*
X54619Y-44931D01*
X54585Y-44898D01*
X54546Y-44881D01*
X54585Y-44865D01*
X54619Y-44831D01*
X54637Y-44787D01*
X54637Y-44740D01*
X54637Y-44346D01*
X54619Y-44301D01*
X54585Y-44268D01*
X54541Y-44249D01*
X54493Y-44249D01*
X54119Y-44249D01*
X54075Y-44268D01*
X54041Y-44301D01*
X54023Y-44346D01*
X54023Y-44366D01*
X54018Y-44366D01*
X54002Y-44350D01*
X53909Y-44311D01*
X53877Y-44311D01*
X53877Y-43967D01*
X53877Y-43760D01*
X53877Y-43640D01*
X53877Y-43433D01*
X53847Y-43403D01*
X53763Y-43403D01*
X53716Y-43403D01*
X53672Y-43422D01*
X53638Y-43455D01*
X53620Y-43499D01*
X53620Y-43610D01*
X53650Y-43640D01*
X53877Y-43640D01*
X53877Y-43760D01*
X53650Y-43760D01*
X53620Y-43790D01*
X53620Y-43901D01*
X53638Y-43945D01*
X53672Y-43979D01*
X53716Y-43997D01*
X53763Y-43997D01*
X53847Y-43997D01*
X53877Y-43967D01*
X53877Y-44311D01*
X53807Y-44311D01*
X53714Y-44350D01*
X53642Y-44422D01*
X53603Y-44515D01*
X53603Y-44617D01*
X53641Y-44711D01*
X53713Y-44782D01*
X53807Y-44821D01*
X53908Y-44821D01*
X54002Y-44783D01*
X54018Y-44766D01*
X54023Y-44766D01*
X54023Y-44787D01*
X54041Y-44831D01*
X54075Y-44865D01*
X54114Y-44881D01*
X54075Y-44898D01*
X54041Y-44931D01*
X54023Y-44975D01*
X54023Y-44996D01*
X54018Y-44996D01*
X54002Y-44980D01*
X53909Y-44941D01*
X53807Y-44941D01*
X53714Y-44980D01*
X53642Y-45052D01*
X53603Y-45145D01*
X53603Y-45247D01*
X53641Y-45341D01*
X53713Y-45412D01*
X53807Y-45451D01*
X53908Y-45451D01*
X54002Y-45413D01*
X54018Y-45396D01*
X54023Y-45396D01*
X54023Y-45417D01*
X54041Y-45461D01*
X54075Y-45495D01*
X54119Y-45513D01*
X54167Y-45513D01*
X54541Y-45513D01*
X54585Y-45495D01*
X54619Y-45461D01*
X54637Y-45417D01*
X54637Y-53730D01*
X53481Y-53730D01*
X53481Y-52910D01*
X53475Y-52849D01*
X53475Y-51786D01*
X53475Y-50786D01*
X53475Y-49786D01*
X53475Y-48786D01*
X53411Y-48632D01*
X53293Y-48514D01*
X53139Y-48450D01*
X52971Y-48450D01*
X52817Y-48513D01*
X52699Y-48631D01*
X52635Y-48786D01*
X52635Y-48953D01*
X52698Y-49107D01*
X52816Y-49225D01*
X52971Y-49290D01*
X53138Y-49290D01*
X53292Y-49226D01*
X53410Y-49108D01*
X53475Y-48953D01*
X53475Y-48786D01*
X53475Y-49786D01*
X53411Y-49632D01*
X53293Y-49514D01*
X53139Y-49450D01*
X52971Y-49450D01*
X52817Y-49513D01*
X52699Y-49631D01*
X52635Y-49786D01*
X52635Y-49953D01*
X52698Y-50107D01*
X52816Y-50225D01*
X52971Y-50290D01*
X53138Y-50290D01*
X53292Y-50226D01*
X53410Y-50108D01*
X53475Y-49953D01*
X53475Y-49786D01*
X53475Y-50786D01*
X53411Y-50632D01*
X53293Y-50514D01*
X53139Y-50450D01*
X52971Y-50450D01*
X52817Y-50513D01*
X52699Y-50631D01*
X52635Y-50786D01*
X52635Y-50953D01*
X52698Y-51107D01*
X52816Y-51225D01*
X52971Y-51290D01*
X53138Y-51290D01*
X53292Y-51226D01*
X53410Y-51108D01*
X53475Y-50953D01*
X53475Y-50786D01*
X53475Y-51786D01*
X53411Y-51632D01*
X53293Y-51514D01*
X53139Y-51450D01*
X52971Y-51450D01*
X52817Y-51513D01*
X52699Y-51631D01*
X52635Y-51786D01*
X52635Y-51953D01*
X52698Y-52107D01*
X52816Y-52225D01*
X52971Y-52290D01*
X53138Y-52290D01*
X53292Y-52226D01*
X53410Y-52108D01*
X53475Y-51953D01*
X53475Y-51786D01*
X53475Y-52849D01*
X53464Y-52744D01*
X53433Y-52669D01*
X53375Y-52634D01*
X53291Y-52718D01*
X53291Y-52549D01*
X53255Y-52491D01*
X53095Y-52443D01*
X52929Y-52460D01*
X52854Y-52491D01*
X52819Y-52549D01*
X53055Y-52785D01*
X53291Y-52549D01*
X53291Y-52718D01*
X53139Y-52870D01*
X53375Y-53106D01*
X53433Y-53070D01*
X53481Y-52910D01*
X53481Y-53730D01*
X53291Y-53730D01*
X53291Y-53190D01*
X53055Y-52954D01*
X52970Y-53039D01*
X52970Y-52870D01*
X52734Y-52634D01*
X52676Y-52669D01*
X52628Y-52829D01*
X52645Y-52995D01*
X52676Y-53070D01*
X52734Y-53106D01*
X52970Y-52870D01*
X52970Y-53039D01*
X52819Y-53190D01*
X52854Y-53248D01*
X53014Y-53296D01*
X53180Y-53279D01*
X53255Y-53248D01*
X53291Y-53190D01*
X53291Y-53730D01*
X52769Y-53730D01*
X52207Y-53618D01*
X51743Y-53308D01*
X51432Y-52843D01*
X51320Y-52281D01*
X51320Y-26458D01*
X51432Y-25896D01*
X51743Y-25432D01*
X52207Y-25121D01*
X52769Y-25009D01*
X57230Y-25009D01*
X57490Y-25061D01*
X57700Y-25201D01*
X57839Y-25410D01*
X57891Y-25671D01*
X57891Y-26811D01*
X57902Y-26864D01*
X57932Y-26909D01*
X57978Y-26940D01*
X58031Y-26950D01*
X72283Y-26950D01*
X72336Y-26940D01*
X72382Y-26909D01*
X72412Y-26864D01*
X72423Y-26811D01*
X72423Y-25671D01*
X72474Y-25410D01*
X72614Y-25201D01*
X72824Y-25061D01*
X73084Y-25009D01*
X86466Y-25009D01*
X87028Y-25121D01*
X87493Y-25432D01*
X87803Y-25896D01*
X87915Y-26458D01*
X87915Y-52281D01*
M02*
