G04 (created by PCBNEW (2013-mar-13)-testing) date Wed 03 Jul 2013 03:21:25 PM PDT*
%MOIN*%
G04 Gerber Fmt 3.4, Leading zero omitted, Abs format*
%FSLAX34Y34*%
G01*
G70*
G90*
G04 APERTURE LIST*
%ADD10C,0.008000*%
%ADD11R,0.061118X0.045370*%
%ADD12C,0.037496*%
%ADD13C,0.049307*%
%ADD14C,0.076900*%
%ADD15C,0.053200*%
%ADD16C,0.045400*%
%ADD17R,0.066000X0.066000*%
%ADD18C,0.066000*%
%ADD19C,0.132000*%
%ADD20C,0.045370*%
G04 APERTURE END LIST*
G54D10*
G54D11*
X74921Y-44586D03*
X75590Y-44586D03*
X76614Y-44586D03*
X77283Y-44586D03*
X77283Y-48090D03*
X76614Y-48090D03*
X74921Y-48090D03*
G54D12*
X75000Y-45787D03*
G54D13*
X76653Y-47440D03*
G54D11*
X74921Y-29232D03*
X75590Y-29232D03*
X76614Y-29232D03*
X77283Y-29232D03*
X77283Y-32736D03*
X76614Y-32736D03*
X74921Y-32736D03*
G54D12*
X75000Y-30433D03*
G54D13*
X76653Y-32086D03*
G54D14*
X60826Y-50117D03*
X64764Y-50117D03*
X62795Y-52086D03*
G54D15*
X62795Y-50117D03*
X60826Y-52086D03*
X64764Y-52086D03*
X60826Y-53070D03*
X64764Y-53070D03*
G54D14*
X63779Y-50117D03*
X61811Y-50117D03*
X55708Y-50117D03*
X59646Y-50117D03*
X57677Y-52086D03*
G54D15*
X57677Y-50117D03*
X55708Y-52086D03*
X59646Y-52086D03*
X55708Y-53070D03*
X59646Y-53070D03*
G54D14*
X58661Y-50117D03*
X56693Y-50117D03*
G54D16*
X55669Y-40944D03*
X54763Y-40944D03*
X56456Y-43700D03*
X55511Y-43700D03*
G54D17*
X84055Y-38870D03*
G54D18*
X83055Y-38870D03*
X84055Y-37870D03*
X83055Y-37870D03*
X84055Y-36870D03*
X83055Y-36870D03*
X84055Y-35870D03*
X83055Y-35870D03*
X84055Y-34870D03*
X83055Y-34870D03*
G54D17*
X82055Y-32370D03*
G54D18*
X82055Y-33370D03*
X81055Y-32370D03*
X81055Y-33370D03*
X80055Y-32370D03*
X80055Y-33370D03*
X79055Y-32370D03*
X79055Y-33370D03*
G54D17*
X84055Y-46870D03*
G54D18*
X83055Y-46870D03*
X84055Y-45870D03*
X83055Y-45870D03*
X84055Y-44870D03*
X83055Y-44870D03*
X84055Y-43870D03*
X83055Y-43870D03*
X84055Y-42870D03*
X83055Y-42870D03*
X84055Y-41870D03*
X83055Y-41870D03*
G54D17*
X84055Y-49870D03*
G54D18*
X84055Y-50870D03*
X83055Y-49870D03*
X83055Y-50870D03*
X82055Y-49870D03*
X82055Y-50870D03*
G54D17*
X75055Y-52870D03*
G54D18*
X76055Y-52870D03*
X77055Y-52870D03*
X78055Y-52870D03*
X79055Y-52870D03*
X80055Y-52870D03*
G54D17*
X72055Y-51870D03*
G54D18*
X72055Y-52870D03*
X71055Y-51870D03*
X71055Y-52870D03*
X70055Y-51870D03*
X70055Y-52870D03*
X69055Y-51870D03*
X69055Y-52870D03*
X68055Y-51870D03*
X68055Y-52870D03*
X67055Y-51870D03*
X67055Y-52870D03*
G54D17*
X53055Y-47870D03*
G54D18*
X53055Y-48870D03*
X53055Y-49870D03*
X53055Y-50870D03*
X53055Y-51870D03*
X53055Y-52870D03*
G54D19*
X86480Y-52295D03*
X86480Y-26444D03*
G54D20*
X56846Y-49066D03*
X73074Y-49066D03*
X73074Y-25933D03*
X56846Y-25933D03*
M02*
